<svg width="20" height="20" viewBox="0 0 20 20" fill="none" xmlns="http://www.w3.org/2000/svg">
<path d="M15.4094 4.72747L13.0396 4.18061C12.7821 4.12136 12.5178 4.2558 12.413 4.49733L11.3193 7.04936C11.2236 7.27266 11.2874 7.5347 11.4765 7.68737L12.8573 8.81755C12.037 10.5652 10.6038 12.019 8.81964 12.8552L7.68946 11.4744C7.53451 11.2853 7.27475 11.2215 7.05145 11.3172L4.49942 12.4109C4.25561 12.518 4.12117 12.7823 4.18041 13.0398L4.72728 15.4095C4.78424 15.6556 5.00299 15.8334 5.26047 15.8334C11.096 15.8334 15.8332 11.1053 15.8332 5.26066C15.8332 5.00546 15.6577 4.78443 15.4094 4.72747Z" fill="#FF761D"/>
</svg>
