<svg width="24" height="24" viewBox="0 0 24 24" fill="none" xmlns="http://www.w3.org/2000/svg">
<path d="M16.5782 7.58712H16.264V7.33331C16.2662 6.84945 16.0093 6.40136 15.5906 6.15877C15.1718 5.91617 14.6553 5.91617 14.2367 6.15877C13.8179 6.40136 13.5611 6.84945 13.5633 7.33331V7.58712H10.4367V7.33331C10.4389 6.84945 10.1821 6.40136 9.76333 6.15877C9.34468 5.91617 8.82816 5.91617 8.4094 6.15877C7.99074 6.40136 7.73382 6.84945 7.73604 7.33331V7.58712H7.4218C6.63692 7.58801 6.00089 8.22404 6 9.00892V16.2769C6.00089 17.0618 6.63692 17.6978 7.4218 17.6987H16.5782C17.3631 17.6978 17.9991 17.0618 18 16.2769V9.00892C17.9991 8.22404 17.3631 7.58801 16.5782 7.58712ZM14.132 7.33331C14.1303 7.05295 14.2789 6.79325 14.5215 6.65251C14.764 6.51189 15.0632 6.51189 15.3058 6.65251C15.5483 6.79325 15.6969 7.05295 15.6952 7.33331V8.39933H14.1319V7.33331H14.132ZM8.30476 7.33331C8.3031 7.05295 8.45172 6.79325 8.6942 6.65251C8.9368 6.51189 9.23604 6.51189 9.47852 6.65251C9.72112 6.79325 9.86974 7.05295 9.86796 7.33331V8.39933H8.30476V7.33331ZM7.4218 8.15584H7.73604V8.68369C7.73604 8.84075 7.86334 8.96805 8.0204 8.96805H10.1524C10.3095 8.96805 10.4368 8.84075 10.4368 8.68369V8.15584H13.5633V8.68369C13.5633 8.84075 13.6906 8.96805 13.8477 8.96805H15.9796C16.1367 8.96805 16.264 8.84075 16.264 8.68369V8.15584H16.5782C17.0492 8.1564 17.4307 8.53795 17.4313 9.00892V10.4197H6.56872V9.00892C6.56928 8.53795 6.95083 8.1564 7.4218 8.15584ZM16.5782 17.13H7.4218C6.95083 17.1294 6.56928 16.7477 6.56872 16.2769V10.9884H17.4313V16.2769C17.4307 16.7477 17.0492 17.1294 16.5782 17.13Z" fill="#111111"/>
</svg>
