<svg width="12" height="13" viewBox="0 0 12 13" fill="none" xmlns="http://www.w3.org/2000/svg">
<path d="M10.5782 2.58711H10.264V2.33329C10.2662 1.84944 10.0093 1.40135 9.5906 1.15875C9.17184 0.916158 8.65532 0.916158 8.23667 1.15875C7.81791 1.40135 7.56109 1.84944 7.56331 2.33329V2.58711H4.43669V2.33329C4.43891 1.84944 4.18209 1.40135 3.76333 1.15875C3.34468 0.916158 2.82816 0.916158 2.4094 1.15875C1.99074 1.40135 1.73382 1.84944 1.73604 2.33329V2.58711H1.4218C0.636922 2.588 0.000888626 3.22403 0 4.00891V11.2769C0.000888626 12.0617 0.636922 12.6978 1.4218 12.6987H10.5782C11.3631 12.6978 11.9991 12.0617 12 11.2769V4.00891C11.9991 3.22403 11.3631 2.588 10.5782 2.58711ZM8.13203 2.33329C8.13026 2.05293 8.27888 1.79323 8.52147 1.6525C8.76396 1.51187 9.0632 1.51187 9.3058 1.6525C9.54828 1.79323 9.6969 2.05293 9.69524 2.33329V3.39931H8.13192V2.33329H8.13203ZM2.30476 2.33329C2.3031 2.05293 2.45172 1.79323 2.6942 1.6525C2.9368 1.51187 3.23604 1.51187 3.47852 1.6525C3.72112 1.79323 3.86974 2.05293 3.86796 2.33329V3.39931H2.30476V2.33329ZM1.4218 3.15583H1.73604V3.68367C1.73604 3.84074 1.86334 3.96803 2.0204 3.96803H4.15244C4.3095 3.96803 4.4368 3.84074 4.4368 3.68367V3.15583H7.56331V3.68367C7.56331 3.84074 7.69061 3.96803 7.84767 3.96803H9.9796C10.1367 3.96803 10.264 3.84074 10.264 3.68367V3.15583H10.5782C11.0492 3.15638 11.4307 3.53794 11.4313 4.00891V5.41971H0.56872V4.00891C0.569276 3.53794 0.950829 3.15638 1.4218 3.15583ZM10.5782 12.1299H1.4218C0.950829 12.1294 0.569276 11.7477 0.56872 11.2769V5.98843H11.4313V11.2769C11.4307 11.7477 11.0492 12.1294 10.5782 12.1299Z" fill="white"/>
</svg>
