<svg width="24" height="25" viewBox="0 0 24 25" fill="none" xmlns="http://www.w3.org/2000/svg">
<path fill-rule="evenodd" clip-rule="evenodd" d="M18.0056 17.1577C18.2499 17.3816 18.2664 17.7612 18.0425 18.0054L12.1002 24.4879L6.1579 18.0054C5.93398 17.7612 5.95049 17.3816 6.19476 17.1577C6.43903 16.9338 6.81857 16.9503 7.04248 17.1946L12.1002 22.7121L17.1579 17.1946C17.3818 16.9503 17.7614 16.9338 18.0056 17.1577Z" fill="white"/>
<path fill-rule="evenodd" clip-rule="evenodd" d="M6.19457 7.33033C5.9503 7.10641 5.9338 6.72687 6.15771 6.4826L12.1 9.78244e-05L18.0423 6.4826C18.2662 6.72687 18.2497 7.10641 18.0054 7.33033C17.7612 7.55424 17.3816 7.53774 17.1577 7.29347L12.1 1.77597L7.0423 7.29347C6.81838 7.53774 6.43884 7.55424 6.19457 7.33033Z" fill="white"/>
</svg>
