<svg width="17" height="25" viewBox="0 0 17 25" fill="none" xmlns="http://www.w3.org/2000/svg">
<path d="M8.5 12.5C8.5 10.1989 10.3655 8.33337 12.6667 8.33337H12.8333C15.1345 8.33337 17 10.1989 17 12.5C17 14.8012 15.1345 16.6667 12.8333 16.6667H12.6667C10.3655 16.6667 8.5 14.8012 8.5 12.5Z" fill="#1ABCFE"/>
<path d="M0 20.8333C0 18.5321 1.86548 16.6666 4.16667 16.6666H8.5V20.75C8.5 23.0972 6.55513 25 4.20792 25C1.90673 25 0 23.1345 0 20.8333Z" fill="#0ACF83"/>
<path d="M8.5 0V8.33333H12.8333C15.1345 8.33333 17 6.46785 17 4.16667C17 1.86548 15.1345 0 12.8333 0L8.5 0Z" fill="#FF7262"/>
<path d="M0 4.16671C0 6.46789 1.86548 8.33337 4.16667 8.33337L8.5 8.33337L8.5 4.00543e-05L4.16667 4.00543e-05C1.86548 4.00543e-05 0 1.86552 0 4.16671Z" fill="#F24E1E"/>
<path d="M0 12.5C0 14.8011 1.86548 16.6666 4.16667 16.6666H8.5L8.5 8.33329L4.16667 8.33329C1.86548 8.33329 0 10.1988 0 12.5Z" fill="#A259FF"/>
</svg>
