<svg width="19" height="14" viewBox="0 0 19 14" fill="none" xmlns="http://www.w3.org/2000/svg">
<path d="M11.1679 1.70711C10.7774 1.31658 10.7774 0.683418 11.1679 0.292893C11.5584 -0.0976311 12.1916 -0.0976311 12.5821 0.292893L18.5821 6.29289C18.9607 6.67147 18.9739 7.28106 18.6122 7.67572L13.1122 13.6757C12.739 14.0828 12.1064 14.1103 11.6993 13.7372C11.2922 13.364 11.2647 12.7314 11.6378 12.3243L16.4909 7.03008L11.1679 1.70711Z" fill="black"/>
<path fill-rule="evenodd" clip-rule="evenodd" d="M0 6.875C0 6.39175 0.391751 6 0.875 6H15.875C16.3582 6 16.75 6.39175 16.75 6.875C16.75 7.35825 16.3582 7.75 15.875 7.75H0.875C0.391751 7.75 0 7.35825 0 6.875Z" fill="black"/>
</svg>
