<svg id="OBJECTS" xmlns="http://www.w3.org/2000/svg" viewBox="0 0 87.2 87.2"><defs><style>.cls-1{fill:#fff;}</style></defs><title>FB</title><path class="cls-1" d="M411.32,115.08a43.6,43.6,0,1,1,43.6-43.6A43.65,43.65,0,0,1,411.32,115.08Zm0-84.2a40.6,40.6,0,1,0,40.6,40.6A40.65,40.65,0,0,0,411.32,30.88Z" transform="translate(-367.72 -27.88)"/><path class="cls-1" d="M412.71,47.28a7.49,7.49,0,0,0-7.49,7.49v7.84l-5.44.08v7.79l5.44-.08V95.69h9.32V70.41H422l.83-7.79h-8.32V57.18a2.1,2.1,0,0,1,2.1-2.1h6.21V47.28Z" transform="translate(-367.72 -27.88)"/></svg>