<svg id="Слой_2" data-name="Слой 2" xmlns="http://www.w3.org/2000/svg" viewBox="0 0 95 136"><defs><style>.cls-1{fill:#fff;}.cls-2{fill:#b006af;}</style></defs><title>Logo short</title><rect class="cls-1" x="2" y="32" width="21" height="73"/><circle class="cls-1" cx="12.5" cy="12.5" r="12.5"/><path class="cls-2" d="M138,285V267s-36-14-55,8a41.72,41.72,0,0,0-8,27s0,22,18,32c0,0,20,10,45,0V316s-14,7-29,3h0s-13-3-12-18h0s-2-11,7-18h0s14-7,34,2" transform="translate(-43 -232)"/><rect class="cls-1" x="81" y="311" width="21" height="93" transform="translate(-309 217) rotate(-90)"/></svg>