<svg id="Слой_2" data-name="Слой 2" xmlns="http://www.w3.org/2000/svg" viewBox="0 0 676 136"><defs><style>.cls-1{fill:#fff;}.cls-2{fill:#b006af;}</style></defs><title>Logo full colored </title><rect class="cls-1" x="2" y="32" width="21" height="73"/><circle class="cls-1" cx="12.5" cy="12.5" r="12.5"/><path class="cls-2" d="M138,285V267s-36-14-55,8a41.72,41.72,0,0,0-8,27s0,22,18,32c0,0,20,10,45,0V316s-14,7-29,3h0s-13-3-12-18h0s-2-11,7-18h0s14-7,34,2" transform="translate(-43 -232)"/><path class="cls-2" d="M166,280h16s7,0,7,9h0s1,9-7,10H165l-2,16h11a6.46,6.46,0,0,1,5,3h0l8,19h22l-9-20s-2-6-4-6h0s2,0,5-2h0s10-7,10-20h0s0-15-11-22h0s-6-3-12-3H161l5,16" transform="translate(-43 -232)"/><rect class="cls-2" x="103" y="32" width="21" height="73"/><rect class="cls-2" x="176" y="32" width="55" height="16"/><rect class="cls-2" x="177" y="60" width="50" height="16"/><rect class="cls-2" x="176" y="89" width="55" height="16"/><rect class="cls-2" x="175" y="32" width="22" height="73"/><path class="cls-2" d="M330,264H307l-28,73h22l6-16h22l6,16h23Zm-20,42,8-22,8,22Z" transform="translate(-43 -232)"/><rect class="cls-2" x="329" y="32" width="22" height="73"/><rect class="cls-2" x="309" y="32" width="63" height="16"/><rect class="cls-2" x="377" y="32" width="21" height="73"/><rect class="cls-2" x="377" y="32" width="55" height="16"/><rect class="cls-2" x="378" y="60" width="50" height="16"/><rect class="cls-2" x="377" y="89" width="55" height="16"/><rect class="cls-1" x="437" y="89" width="17" height="16"/><path class="cls-1" d="M526,263s-14,0-21,12,2,23,2,23,6,6,14,8h0s16,4,17,7a6.93,6.93,0,0,1,0,5s-1,3-7,3h0s-19,0-27-5h0v18s14,4,25,4h0s20,0,27-9h0s9-14,1-26h0a32.93,32.93,0,0,0-19-11h0s-12-3-13-6h0s-2-5,4-6h0s12-3,27,3h0V266s-16-5-30-3" transform="translate(-43 -232)"/><rect class="cls-1" x="525" y="32" width="21" height="73"/><rect class="cls-1" x="573" y="32" width="22" height="73"/><rect class="cls-1" x="553" y="32" width="63" height="16"/><rect class="cls-1" x="621" y="32" width="21" height="73"/><rect class="cls-1" x="621" y="32" width="55" height="16"/><rect class="cls-1" x="622" y="60" width="50" height="16"/><rect class="cls-1" x="621" y="89" width="55" height="16"/><rect class="cls-1" x="371.5" y="20.5" width="21" height="674" transform="translate(-18.5 507.5) rotate(-90)"/></svg>