<svg id="Слой_1" data-name="Слой 1" xmlns="http://www.w3.org/2000/svg" viewBox="0 0 52 52"><defs><style>.cls-1{fill:#613a83;}</style></defs><title>Points dark</title><rect class="cls-1" x="10" width="2" height="2"/><rect class="cls-1" x="30" width="2" height="2"/><rect class="cls-1" x="50" width="2" height="2"/><rect class="cls-1" x="50" y="20" width="2" height="2"/><rect class="cls-1" x="50" y="40" width="2" height="2"/><rect class="cls-1" x="40" y="50" width="2" height="2"/><rect class="cls-1" x="20" y="50" width="2" height="2"/><rect class="cls-1" y="50" width="2" height="2"/><rect class="cls-1" x="30" y="40" width="2" height="2"/><rect class="cls-1" x="10" y="40" width="2" height="2"/><rect class="cls-1" x="40" y="30" width="2" height="2"/><rect class="cls-1" x="20" y="30" width="2" height="2"/><rect class="cls-1" y="30" width="2" height="2"/><rect class="cls-1" x="30" y="20" width="2" height="2"/><rect class="cls-1" x="10" y="20" width="2" height="2"/><rect class="cls-1" x="40" y="10" width="2" height="2"/><rect class="cls-1" x="20" y="10" width="2" height="2"/><rect class="cls-1" y="10" width="2" height="2"/></svg>