<svg id="Слой_1" data-name="Слой 1" xmlns="http://www.w3.org/2000/svg" viewBox="0 0 61 61"><defs><style>.cls-1{fill:#de8cfc;}.cls-2{fill:none;}</style></defs><title>Light</title><rect class="cls-1" x="19" y="9" width="2" height="2"/><rect class="cls-1" x="39" y="9" width="2" height="2"/><rect class="cls-1" x="59" y="9" width="2" height="2"/><rect class="cls-1" x="59" y="29" width="2" height="2"/><rect class="cls-1" x="59" y="49" width="2" height="2"/><rect class="cls-1" x="49" y="59" width="2" height="2"/><rect class="cls-1" x="29" y="59" width="2" height="2"/><rect class="cls-1" x="9" y="59" width="2" height="2"/><rect class="cls-1" x="39" y="49" width="2" height="2"/><rect class="cls-1" x="19" y="49" width="2" height="2"/><rect class="cls-1" x="49" y="39" width="2" height="2"/><rect class="cls-1" x="29" y="39" width="2" height="2"/><rect class="cls-1" x="9" y="39" width="2" height="2"/><rect class="cls-1" x="39" y="29" width="2" height="2"/><rect class="cls-1" x="19" y="29" width="2" height="2"/><rect class="cls-1" x="49" y="19" width="2" height="2"/><rect class="cls-1" x="29" y="19" width="2" height="2"/><rect class="cls-1" x="9" y="19" width="2" height="2"/><rect class="cls-2" y="9" width="2" height="2"/><rect class="cls-2" y="49" width="2" height="2"/><rect class="cls-2" y="29" width="2" height="2"/><rect class="cls-2" x="49" width="2" height="2"/><rect class="cls-2" x="29" width="2" height="2"/><rect class="cls-2" x="9" width="2" height="2"/></svg>