<svg xmlns="http://www.w3.org/2000/svg" viewBox="0 0 249.86 233"><defs><style>.cls-1{opacity:0.4;}</style></defs><title>Кавычки</title><g id="Слой_2" data-name="Слой 2"><path class="cls-1" d="M424.82,282.62h0l0-.12h0A36,36,0,1,0,405.36,328c.76,52.06-62.36,79-62.36,79l2,5C457.58,371.86,426.19,286.21,424.82,282.62Z" transform="translate(-267 -179)"/><path class="cls-1" d="M511.82,282.62h0l0-.12h0A36,36,0,1,0,492.36,328c.76,52.06-62.36,79-62.36,79l2,5C544.58,371.86,513.19,286.21,511.82,282.62Z" transform="translate(-267 -179)"/><path class="cls-1" d="M359,308.38h0l0,.12h0A36,36,0,1,0,378.5,263c-.76-52.06,62.36-79,62.36-79l-2-5C326.27,219.14,357.67,304.79,359,308.38Z" transform="translate(-267 -179)"/><path class="cls-1" d="M272,308.38h0l0,.12h0A36,36,0,1,0,291.5,263c-.76-52.06,62.36-79,62.36-79l-2-5C239.27,219.14,270.67,304.79,272,308.38Z" transform="translate(-267 -179)"/></g></svg>