<svg id="OBJECTS" xmlns="http://www.w3.org/2000/svg" viewBox="0 0 87.2 87.2"><defs><style>.cls-1{fill:#fff;}</style></defs><title>Skype</title><path class="cls-1" d="M411.32,434.12a43.6,43.6,0,1,1,43.6-43.6A43.65,43.65,0,0,1,411.32,434.12Zm0-84.2a40.6,40.6,0,1,0,40.6,40.6A40.65,40.65,0,0,0,411.32,349.92Z" transform="translate(-367.72 -346.92)"/><path class="cls-1" d="M435,393.64a23.83,23.83,0,0,0-29.07-26.34,14,14,0,0,0-18.18,20.08,23.83,23.83,0,0,0,29.07,26.34A14,14,0,0,0,435,393.64ZM404.14,405.7a20.11,20.11,0,0,1-4.42-2,2.44,2.44,0,0,1-.77-3.37l.09-.14a2.45,2.45,0,0,1,3.35-.77,22.06,22.06,0,0,0,3.52,1.73c4.84,1.84,11.92,1.54,11.92-3.31,0-2.46-1.92-3.25-7.87-4.83-7-1.84-10.91-3.15-10.91-8.4,0-6.5,5.43-10,12.1-10a18.72,18.72,0,0,1,9.86,2.63,2.45,2.45,0,0,1,.72,3.51,2.41,2.41,0,0,1-3.2.69,14,14,0,0,0-7.43-2.19c-3,0-5.9,1.12-5.9,4.35,0,2.93,2.75,3.46,6.79,4.47,7.14,1.75,12.16,3.29,12.16,9.18C424.13,406.53,413,408.61,404.14,405.7Z" transform="translate(-367.72 -346.92)"/></svg>