<svg id="OBJECTS" xmlns="http://www.w3.org/2000/svg" viewBox="0 0 87.2 87.2"><defs><style>.cls-1{fill:#fff;}</style></defs><title>Viber</title><path class="cls-1" d="M88.68,434.12a43.6,43.6,0,1,1,43.6-43.6A43.65,43.65,0,0,1,88.68,434.12Zm0-84.2a40.6,40.6,0,1,0,40.6,40.6A40.65,40.65,0,0,0,88.68,349.92Z" transform="translate(-45.08 -346.92)"/><path class="cls-1" d="M79.89,399.78c1.36,1.36,4.1,3.93,6,4.39s3.25-.59,4.72-1.84a4.79,4.79,0,0,1,3-1.76c1.93-.35,7.37,3.27,8.67,4.81,4,4.7.41,10-4.95,10.42-6.63.56-15.47-5.48-21.7-11.71S63.31,389,63.86,382.4c.45-5.36,5.71-8.91,10.42-4.95,1.55,1.3,5.16,6.74,4.81,8.67a4.79,4.79,0,0,1-1.76,3c-1.25,1.46-2.3,2.84-1.84,4.72S78.54,398.42,79.89,399.78Z" transform="translate(-45.08 -346.92)"/><path class="cls-1" d="M97.85,393.24a1.66,1.66,0,0,1-1.3-1.29,11.66,11.66,0,0,0-9.14-9.38,1.65,1.65,0,0,1-1.24-1.5.94.94,0,0,1,1.21-.94,15,15,0,0,1,11.58,11.92.93.93,0,0,1-1,1.19Z" transform="translate(-45.08 -346.92)"/><path class="cls-1" d="M105.26,394.56a1.66,1.66,0,0,1-1.32-1.37c-1.22-9.8-7.11-16.15-17-18.37a1.65,1.65,0,0,1-1.25-1.49.94.94,0,0,1,1.21-.94c11.19,2.5,18.12,10,19.51,21.08a.93.93,0,0,1-1.06,1.1Z" transform="translate(-45.08 -346.92)"/><path class="cls-1" d="M112.4,395.68a1.66,1.66,0,0,1-1.31-1.32c-2.69-16-10.09-24-24.73-26.69a1.65,1.65,0,0,1-1.29-1.45.92.92,0,0,1,1.16-1c16,2.94,24.37,12,27.28,29.32a.93.93,0,0,1-1,1.16Z" transform="translate(-45.08 -346.92)"/></svg>