<svg id="OBJECTS" xmlns="http://www.w3.org/2000/svg" viewBox="0 0 87.2 87.2"><defs><style>.cls-1{fill:#fff;}</style></defs><title>VK</title><path class="cls-1" d="M303.77,327.77a43.6,43.6,0,1,1,43.6-43.6A43.65,43.65,0,0,1,303.77,327.77Zm0-84.2a40.6,40.6,0,1,0,40.6,40.6A40.65,40.65,0,0,0,303.77,243.57Z" transform="translate(-260.17 -240.57)"/><path class="cls-1" d="M278.46,271.25h9.14a.9.9,0,0,1,.82.53,53.56,53.56,0,0,0,7.74,12.34.62.62,0,0,0,1.1-.08c1-2.34,2.74-8-.7-12.09a.71.71,0,0,1,.25-1.11,12.39,12.39,0,0,1,10.21-.18,1.94,1.94,0,0,1,1.15,1.77l.78,11.74a.84.84,0,0,0,1,.83c3.82-.81,6.07-6.54,8.3-12.52a1.88,1.88,0,0,1,1.76-1.23h8.42a1.12,1.12,0,0,1,1.12,1.29c-.79,4.24-5.06,9.74-7.29,12.39a2.46,2.46,0,0,0,0,3.17l7.53,9a1,1,0,0,1-.76,1.63h-9.53a2.8,2.8,0,0,1-2.06-.9l-6.66-5.55a.91.91,0,0,0-1.33-.12c-.83,1-.76,2.24-1.15,5.05a1.8,1.8,0,0,1-1.8,1.51H300a6.24,6.24,0,0,1-2.68-.59c-3.74-1.77-14-8.05-19.7-25.64A.92.92,0,0,1,278.46,271.25Z" transform="translate(-260.17 -240.57)"/></svg>