<svg id="OBJECTS" xmlns="http://www.w3.org/2000/svg" viewBox="0 0 87.2 87.2"><defs><style>.cls-1{fill:#fff;}</style></defs><title>WhatsApp</title><path class="cls-1" d="M196.23,221.43a43.6,43.6,0,1,1,43.6-43.6A43.65,43.65,0,0,1,196.23,221.43Zm0-84.2a40.6,40.6,0,1,0,40.6,40.6A40.65,40.65,0,0,0,196.23,137.23Z" transform="translate(-152.63 -134.23)"/><path class="cls-1" d="M173.37,202.82l4-12.38a22.7,22.7,0,1,1,7.72,7.11Zm22.83-45.37-.84,0a20.3,20.3,0,0,0-15.7,32.08l.36.49-2.7,8.37,7.91-3.56.54.32a20.37,20.37,0,0,0,25.34-3.66,20.3,20.3,0,0,0-14.9-34.06Z" transform="translate(-152.63 -134.23)"/><path class="cls-1" d="M194.25,179.77c.82.82,2.48,2.38,3.62,2.66s2-.35,2.86-1.11a2.9,2.9,0,0,1,1.8-1.06c1.17-.21,4.47,2,5.26,2.92,2.4,2.85.25,6-3,6.31-4,.34-9.37-3.32-13.15-7.1s-7.43-9.13-7.1-13.15c.27-3.25,3.46-5.4,6.31-3,.94.79,3.13,4.09,2.92,5.26a2.9,2.9,0,0,1-1.06,1.8c-.76.89-1.39,1.72-1.11,2.86S193.42,178.95,194.25,179.77Z" transform="translate(-152.63 -134.23)"/></svg>