<svg width="148" height="174" viewBox="0 0 148 174" fill="none" xmlns="http://www.w3.org/2000/svg">
<path d="M146.832 12.4228L122.168 12.4228M134.5 1.07719V23.7685M144.399 20.2662C140.844 19.2056 138.275 16.1574 138.275 12.5626C138.275 8.96772 140.844 5.91956 144.399 4.85898M124.685 4.85899C128.24 5.91957 130.809 8.96774 130.809 12.5626C130.809 16.1574 128.24 19.2056 124.685 20.2662M147 12.5C147 18.8513 141.404 24 134.5 24C127.596 24 122 18.8513 122 12.5C122 6.14873 127.596 1 134.5 1C141.404 1 147 6.14873 147 12.5Z" stroke="#F38F57" stroke-width="2"/>
<path d="M38.5001 173V44.7928M49.2689 44.7928H27.7087M35.1727 65.0678L34.0036 44.7928M41.8725 65.0678L42.9964 44.7928M73.5269 51.5511H3.47297C2.10156 51.5511 1 50.4473 1 49.0731V8.47805C1 7.10386 2.10156 6 3.47297 6H73.5269C74.8983 6 76 7.10386 76 8.47805V49.0731C76 50.4247 74.8983 51.5511 73.5269 51.5511ZM50.3929 38.0345H26.5844C25.213 38.0345 24.1115 36.9306 24.1115 35.5564V24.9233C24.1115 23.5491 25.213 22.4453 26.5844 22.4453H50.3929C51.7644 22.4453 52.8659 23.5491 52.8659 24.9233V35.5564C52.8659 36.9081 51.7644 38.0345 50.3929 38.0345ZM45.2447 65.0678H31.7553L29.5072 44.7928H47.4929L45.2447 65.0678Z" stroke="#E6F6F4" stroke-width="2" stroke-miterlimit="10" stroke-linecap="round" stroke-linejoin="round"/>
</svg>
