<svg width="809" height="349" viewBox="0 0 809 349" fill="none" xmlns="http://www.w3.org/2000/svg">
<g opacity="0.7">
<rect opacity="0.2" x="329.895" y="160.919" width="376.645" height="186.081" fill="#C9BABA"/>
<rect opacity="0.2" x="455" y="186" width="228" height="72" fill="#C9BABA"/>
<rect opacity="0.2" width="69.5" height="260.625" transform="matrix(-1 0 0 1 318.125 86)" fill="#C9BABA"/>
<rect opacity="0.2" width="69.5" height="260.625" transform="matrix(-1 0 0 1 234.052 86)" fill="#C9BABA"/>
<rect opacity="0.2" width="56" height="34" transform="matrix(-1 0 0 1 138 312.625)" fill="#C9BABA"/>
<rect opacity="0.2" width="56" height="33" transform="matrix(-1 0 0 1 138 269.625)" fill="#C9BABA"/>
<rect opacity="0.2" width="56" height="32" transform="matrix(-1 0 0 1 138 224.625)" fill="#C9BABA"/>
<rect opacity="0.2" width="151" height="150" transform="matrix(-1 0 0 1 151 196.625)" fill="#C9BABA"/>
<rect opacity="0.2" x="717.928" y="97.0242" width="90.2379" height="249.976" fill="#C9BABA"/>
<circle cx="373" cy="205" r="6" fill="#C9BABA"/>
<circle cx="393" cy="205" r="6" fill="#C9BABA"/>
<circle cx="393" cy="225" r="6" fill="#C9BABA"/>
<circle cx="373" cy="225" r="6" fill="#C9BABA"/>
</g>
<path d="M282.002 101.824L262.909 95.4314L266.189 101.987L255.21 102.746L255.383 105.063L266.231 104.21L263.844 110.583L282.002 101.824Z" fill="#2E2E37"/>
<path d="M231.865 82.8209L213.801 73.9261L216.172 80.8618L205.191 80.142L205.052 82.4611L215.917 83.0711L212.696 89.0659L231.865 82.8209Z" fill="#2E2E37"/>
<path d="M274.312 66.2083L255.362 59.4028L258.499 66.0277L247.506 66.5484L247.629 68.8683L258.493 68.2517L255.968 74.5708L274.312 66.2083Z" fill="#2E2E37"/>
<path d="M180.309 69.0558L163.061 58.669L164.838 65.78L153.956 64.1365L153.622 66.4355L164.397 67.9599L160.682 73.6616L180.309 69.0558Z" fill="#2E2E37"/>
<path d="M131.809 80.6193L112.473 75.0049L116.015 81.422L105.076 82.625L105.343 84.9329L116.148 83.6421L114.02 90.106L131.809 80.6193Z" fill="#2E2E37"/>
<path d="M85.085 105.606L66.2084 98.6008L69.2746 105.258L58.2769 105.663L58.3753 107.984L69.2456 107.482L66.6535 113.774L85.085 105.606Z" fill="#2E2E37"/>
<path d="M46.3445 132.48L27.0235 126.814L30.5486 133.241L19.6062 134.415L19.867 136.723L30.6755 135.461L28.5305 141.92L46.3445 132.48Z" fill="#2E2E37"/>
<path d="M42.3406 170.587L22.8875 165.393L26.5678 171.731L15.6573 173.171L15.9741 175.473L26.7487 173.948L24.7615 180.457L42.3406 170.587Z" fill="#2E2E37"/>
<path d="M97.2773 145.207L78.1066 139.052L81.4672 145.566L70.4986 146.462L70.7006 148.776L81.5377 147.789L79.2293 154.191L97.2773 145.207Z" fill="#2E2E37"/>
<path d="M141.869 121.481L123.298 113.7L126.086 120.479L115.081 120.428L115.083 122.751L125.965 122.7L123.115 128.879L141.869 121.481Z" fill="#2E2E37"/>
<path d="M192.263 107.78L173.137 101.488L176.451 108.026L165.476 108.843L165.662 111.159L176.506 110.249L174.152 116.634L192.263 107.78Z" fill="#2E2E37"/>
<path d="M244.909 126.577L228.057 115.559L229.57 122.731L218.756 120.686L218.337 122.971L229.048 124.893L225.125 130.453L244.909 126.577Z" fill="#2E2E37"/>
<path d="M290.394 145.285L271.429 138.52L274.58 145.138L263.588 145.683L263.716 148.002L274.579 147.362L272.067 153.687L290.394 145.285Z" fill="#2E2E37"/>
<path d="M281.411 178.417L262.25 172.234L265.601 178.753L254.631 179.632L254.829 181.946L265.668 180.976L263.35 187.374L281.411 178.417Z" fill="#2E2E37"/>
<path d="M235.799 165.588L218.946 154.57L220.459 161.742L209.646 159.697L209.227 161.982L219.938 163.904L216.015 169.464L235.799 165.588Z" fill="#2E2E37"/>
<path d="M186.524 154.084L168.431 145.25L170.826 152.177L159.842 151.494L159.71 153.814L170.577 154.387L167.377 160.393L186.524 154.084Z" fill="#2E2E37"/>
<path d="M137.566 161.514L117.432 161.411L122.596 166.613L112.405 170.766L113.294 172.913L123.332 168.711L123.056 175.511L137.566 161.514Z" fill="#2E2E37"/>
<path d="M142.035 44.4592L123.641 36.2708L126.279 43.1095L115.277 42.8157L115.228 45.1384L126.109 45.3271L123.123 51.4421L142.035 44.4592Z" fill="#2E2E37"/>
<path d="M98.0635 61.5696L79.592 53.5566L82.2948 60.3699L71.2913 60.1808L71.2645 62.5039L82.1461 62.589L79.2185 68.7321L98.0635 61.5696Z" fill="#2E2E37"/>
<path d="M51.5151 81.2123L31.8391 76.9394L35.8138 83.0981L24.9831 85.0496L25.4079 87.3337L36.0988 85.3037L34.4201 91.8985L51.5151 81.2123Z" fill="#2E2E37"/>
<path d="M428.065 103.7L414.164 51.8202L512.549 20.5624C529.732 15.1029 547.995 25.0963 552.662 42.5121C557.329 59.9279 546.509 77.7139 528.898 81.5777L428.065 103.7Z" fill="#C4C4C4"/>
<path d="M428.065 103.7L414.164 51.8202L512.549 20.5624C529.732 15.1029 547.995 25.0963 552.662 42.5121C557.329 59.9279 546.509 77.7139 528.898 81.5777L428.065 103.7Z" fill="url(#paint0_linear)"/>
<path d="M428.065 103.7L414.164 51.8202L512.549 20.5624C529.732 15.1029 547.995 25.0963 552.662 42.5121C557.329 59.9279 546.509 77.7139 528.898 81.5777L428.065 103.7Z" stroke="#2E2E37" stroke-width="4"/>
<rect width="16.3968" height="19.6761" transform="matrix(0.258819 0.965926 0.965926 -0.258819 316.291 138.585)" fill="#C5C5C5"/>
<rect width="16.3968" height="19.6761" transform="matrix(0.258819 0.965926 0.965926 -0.258819 289.979 40.3889)" fill="#C5C5C5"/>
<path d="M335.955 133.839L344.099 164.235L399.776 149.316C435.503 139.743 456.773 103.262 447.281 67.8379C437.789 32.4134 401.129 11.455 365.401 21.0282L309.725 35.9466L317.929 66.566L373.605 51.6475C392.278 46.6441 411.439 57.5979 416.4 76.1125C421.361 94.6272 410.244 113.694 391.571 118.697L335.955 133.839Z" fill="#F35757"/>
<path d="M447.032 67.9047C456.637 103.749 435.363 140.596 399.519 150.2L325.568 170.016L317.327 139.259L391.217 119.218C409.951 114.198 421.07 94.9405 416.05 76.2064C411.03 57.4723 391.772 46.3538 373.038 51.3736L299.088 71.1886L290.786 40.2062L364.736 20.3912C392.197 13.0332 420.245 23.7976 436.183 45.3523M335.419 134.412L343.66 165.168M308.878 35.3585L317.179 66.3409" stroke="#2E2E37" stroke-width="4" stroke-miterlimit="10"/>
<path d="M339.521 150.288L347.762 181.044L403.763 166.039C439.607 156.434 460.881 119.587 451.276 83.7428C441.672 47.8982 404.825 26.6248 368.98 36.2293L312.98 51.2346L321.281 82.217L377.282 67.2116C396.016 62.1918 415.274 73.3103 420.294 92.0445C425.314 110.779 414.195 130.036 395.461 135.056L339.521 150.288Z" fill="#CD1B1B"/>
<path d="M339.521 150.288L347.762 181.044L403.763 166.039C439.607 156.434 460.881 119.587 451.276 83.7428C441.672 47.8982 404.825 26.6248 368.98 36.2293L312.98 51.2346L321.281 82.217L377.282 67.2116C396.016 62.1918 415.274 73.3103 420.294 92.0445C425.314 110.779 414.195 130.036 395.461 135.056L339.521 150.288Z" fill="url(#paint1_linear)" fill-opacity="0.3"/>
<rect x="329.163" y="186.627" width="33.3401" height="19.6761" transform="rotate(-105 329.163 186.627)" fill="white"/>
<rect x="302.71" y="87.9031" width="33.3401" height="19.6761" transform="rotate(-105 302.71 87.9031)" fill="white"/>
<path d="M339.663 150.25L347.904 181.006M313.122 51.1965L321.424 82.1789M321.571 155.097L329.812 185.854L403.763 166.039C439.608 156.434 460.881 119.587 451.277 83.7427C441.672 47.8982 404.825 26.6247 368.981 36.2292L295.03 56.0442L303.332 87.0266L377.283 67.2116C396.017 62.1918 415.274 73.3103 420.294 92.0444C425.314 110.779 414.196 130.036 395.461 135.056L321.571 155.097Z" stroke="#2E2E37" stroke-width="4" stroke-miterlimit="10"/>
<path d="M508.683 22L427.528 48.2394C433.08 52.8263 444.683 63.7 446.683 70.5L487.682 60.5L508.683 22Z" fill="#C4C4C4" stroke="#2E2E37" stroke-width="4"/>
<path d="M685.915 264.494L547.898 39.4312C538.138 23.5161 517.477 18.2723 501.309 27.6069V27.6069C484.899 37.0813 479.222 58.0306 488.603 74.4939L497.671 90.4069" stroke="#2E2E37" stroke-opacity="0.25" stroke-width="8"/>
<path d="M491.668 70.6372C482.668 54.0582 488.515 33.3268 504.853 23.8945C521.19 14.4623 542.067 19.7638 551.925 35.8479L691.222 263.129L618.851 304.912L491.668 70.6372Z" fill="#C4C4C4"/>
<path d="M491.668 70.6372C482.668 54.0582 488.515 33.3268 504.853 23.8945C521.19 14.4623 542.067 19.7638 551.925 35.8479L691.222 263.129L618.851 304.912L491.668 70.6372Z" fill="url(#paint2_linear)"/>
<path d="M661.851 304.912L524.183 55M691.222 263.129L551.925 35.8479C542.067 19.7638 521.19 14.4623 504.853 23.8945V23.8945C488.515 33.3268 482.668 54.0582 491.668 70.6372L618.851 304.912L691.222 263.129Z" stroke="#2E2E37" stroke-width="4"/>
<circle cx="523.845" cy="55.354" r="20" stroke="#2E2E37" stroke-width="4"/>
<circle cx="523.67" cy="55.1779" r="5" fill="#2E2E37"/>
<path d="M561.29 275.64C568.725 264.612 581.156 258 594.457 258H712.908C726.209 258 738.64 264.612 746.075 275.64L794.183 347H513.183L561.29 275.64Z" fill="#C4C4C4"/>
<path fill-rule="evenodd" clip-rule="evenodd" d="M635.603 258L575.326 347H513.183L561.29 275.64C568.725 264.612 581.156 258 594.457 258H635.603Z" fill="white" fill-opacity="0.4"/>
<path d="M533.183 347L593.183 258M575.183 347L635.183 258M794.183 347L746.075 275.64C738.64 264.612 726.209 258 712.908 258H594.457C581.156 258 568.725 264.612 561.29 275.64L513.183 347H794.183Z" stroke="#2E2E37" stroke-width="4"/>
<path d="M642.626 288.909C644.426 285.867 647.699 284 651.234 284H721.766C725.301 284 728.574 285.867 730.374 288.909L751.708 324.982C752.497 326.315 751.536 328 749.987 328H623.013C621.464 328 620.503 326.315 621.292 324.982L642.626 288.909Z" fill="white" stroke="#2E2E37" stroke-width="4"/>
<path d="M673 299.247L687.306 313.661L687.322 306.268L697.559 310.561L698.453 308.395L688.292 304.245L693.332 299.586L673 299.247Z" fill="#2E2E37"/>
<circle cx="710.5" cy="293.5" r="2.5" fill="#DD9D9D"/>
<circle cx="720.5" cy="293.5" r="2.5" fill="#00C6AE"/>
<defs>
<linearGradient id="paint0_linear" x1="421.115" y1="77.76" x2="552.662" y2="42.5121" gradientUnits="userSpaceOnUse">
<stop stop-color="white"/>
<stop offset="1" stop-color="white" stop-opacity="0"/>
</linearGradient>
<linearGradient id="paint1_linear" x1="224.061" y1="3.96848" x2="529.075" y2="263.762" gradientUnits="userSpaceOnUse">
<stop stop-color="white"/>
<stop offset="1" stop-color="white" stop-opacity="0"/>
</linearGradient>
<linearGradient id="paint2_linear" x1="504.853" y1="23.8945" x2="655.036" y2="284.021" gradientUnits="userSpaceOnUse">
<stop stop-color="white"/>
<stop offset="1" stop-color="white" stop-opacity="0"/>
</linearGradient>
</defs>
</svg>
