<svg width="970" height="407" viewBox="0 0 970 407" fill="none" xmlns="http://www.w3.org/2000/svg">
<mask id="path-1-inside-1" fill="white">
<path fill-rule="evenodd" clip-rule="evenodd" d="M311.556 278.448C311.877 280.192 312.105 281.952 312.238 283.718L320.001 282.281C355.045 275.79 388.714 298.937 395.204 333.98C400.957 365.043 383.423 395.026 354.959 405.957H11.8921C6.58509 398.623 2.79977 390.072 1.05398 380.646C-5.43023 345.636 18.6756 311.817 54.8947 305.109C46.2704 258.544 78.3322 213.562 126.506 204.64C167.089 197.123 206.159 217.596 222.621 252.073C230.191 244.746 239.852 239.793 250.325 237.867C279.007 232.555 306.421 250.724 311.556 278.448Z"/>
</mask>
<path fill-rule="evenodd" clip-rule="evenodd" d="M311.556 278.448C311.877 280.192 312.105 281.952 312.238 283.718L320.001 282.281C355.045 275.79 388.714 298.937 395.204 333.98C400.957 365.043 383.423 395.026 354.959 405.957H11.8921C6.58509 398.623 2.79977 390.072 1.05398 380.646C-5.43023 345.636 18.6756 311.817 54.8947 305.109C46.2704 258.544 78.3322 213.562 126.506 204.64C167.089 197.123 206.159 217.596 222.621 252.073C230.191 244.746 239.852 239.793 250.325 237.867C279.007 232.555 306.421 250.724 311.556 278.448Z" fill="white"/>
<path d="M312.238 283.718L308.249 284.018L308.583 288.463L312.966 287.652L312.238 283.718ZM311.556 278.448L315.489 277.722L315.489 277.719L311.556 278.448ZM320.001 282.281L320.73 286.214L320.001 282.281ZM395.204 333.98L399.137 333.251L395.204 333.98ZM354.959 405.957V409.957H355.701L356.393 409.691L354.959 405.957ZM11.8921 405.957L8.65156 408.302L9.8492 409.957H11.8921V405.957ZM1.05398 380.646L4.98709 379.917H4.98709L1.05398 380.646ZM54.8947 305.109L55.6231 309.042L59.5562 308.313L58.8278 304.38L54.8947 305.109ZM126.506 204.64L125.778 200.706V200.706L126.506 204.64ZM222.621 252.073L219.011 253.797L221.407 258.815L225.403 254.948L222.621 252.073ZM250.325 237.867L251.048 241.801L251.053 241.8L250.325 237.867ZM316.226 283.419C316.083 281.509 315.837 279.608 315.489 277.722L307.622 279.174C307.918 280.777 308.127 282.394 308.249 284.018L316.226 283.419ZM319.273 278.347L311.509 279.785L312.966 287.652L320.73 286.214L319.273 278.347ZM399.137 333.251C392.245 296.037 356.488 271.455 319.273 278.347L320.73 286.214C353.601 280.126 385.183 301.838 391.271 334.708L399.137 333.251ZM356.393 409.691C386.624 398.082 405.248 366.244 399.137 333.251L391.271 334.708C396.667 363.842 380.223 391.97 353.525 402.223L356.393 409.691ZM11.8921 409.957H354.959V401.957H11.8921V409.957ZM-2.87914 381.374C-1.02241 391.399 3.00592 400.5 8.65156 408.302L15.1326 403.612C10.1643 396.746 6.62196 388.745 4.98709 379.917L-2.87914 381.374ZM54.1662 301.176C15.902 308.263 -9.78878 344.067 -2.87914 381.374L4.98709 379.917C-1.07167 347.204 21.4492 315.371 55.6231 309.042L54.1662 301.176ZM125.778 200.706C75.5585 210.008 41.9118 256.975 50.9616 305.837L58.8278 304.38C50.6289 260.112 81.1058 217.116 127.235 208.573L125.778 200.706ZM226.23 250.35C208.972 214.205 168.103 192.867 125.778 200.706L127.235 208.573C166.075 201.379 203.345 220.986 219.011 253.797L226.23 250.35ZM249.602 233.933C238.362 235.999 227.982 241.317 219.839 249.199L225.403 254.948C232.4 248.175 241.342 243.586 251.048 241.801L249.602 233.933ZM315.489 277.719C309.928 247.698 280.323 228.243 249.596 233.934L251.053 241.8C277.69 236.867 302.913 253.749 307.622 279.176L315.489 277.719Z" fill="#E0F0FB" mask="url(#path-1-inside-1)"/>
<mask id="path-3-inside-2" fill="white">
<path fill-rule="evenodd" clip-rule="evenodd" d="M745.532 122.906C745.398 121.176 745.173 119.454 744.858 117.746C739.723 90.0221 712.309 71.8536 683.627 77.1658C673.154 79.0909 663.493 84.0448 655.923 91.3718C639.461 56.8941 600.391 36.4217 559.809 43.938C511.634 52.8602 479.573 97.8421 488.197 144.407C451.978 151.115 427.872 184.934 434.356 219.944C440.84 254.954 475.458 277.897 511.678 271.189L527.667 268.227C527.807 269.99 528.037 271.747 528.359 273.488C533.498 301.239 560.161 319.569 587.911 314.429C598.044 312.567 607.372 307.671 614.661 300.391C630.813 334.962 668.779 355.665 708.044 348.393C754.653 339.76 785.44 294.977 776.807 248.368C811.85 241.878 834.997 208.209 828.506 173.166C822.016 138.123 788.347 114.976 753.304 121.466L745.532 122.906Z"/>
</mask>
<path fill-rule="evenodd" clip-rule="evenodd" d="M745.532 122.906C745.398 121.176 745.173 119.454 744.858 117.746C739.723 90.0221 712.309 71.8536 683.627 77.1658C673.154 79.0909 663.493 84.0448 655.923 91.3718C639.461 56.8941 600.391 36.4217 559.809 43.938C511.634 52.8602 479.573 97.8421 488.197 144.407C451.978 151.115 427.872 184.934 434.356 219.944C440.84 254.954 475.458 277.897 511.678 271.189L527.667 268.227C527.807 269.99 528.037 271.747 528.359 273.488C533.498 301.239 560.161 319.569 587.911 314.429C598.044 312.567 607.372 307.671 614.661 300.391C630.813 334.962 668.779 355.665 708.044 348.393C754.653 339.76 785.44 294.977 776.807 248.368C811.85 241.878 834.997 208.209 828.506 173.166C822.016 138.123 788.347 114.976 753.304 121.466L745.532 122.906Z" fill="white"/>
<path d="M745.532 122.906L741.543 123.214L741.887 127.649L746.26 126.839L745.532 122.906ZM744.858 117.746L748.792 117.02L748.791 117.018L744.858 117.746ZM683.627 77.1658L684.35 81.0998L684.356 81.0989L683.627 77.1658ZM655.923 91.3718L652.313 93.0953L654.709 98.1131L658.705 94.2461L655.923 91.3718ZM559.809 43.938L559.08 40.0048L559.809 43.938ZM488.197 144.407L488.925 148.34L492.859 147.612L492.13 143.679L488.197 144.407ZM434.356 219.944L438.289 219.216L434.356 219.944ZM511.678 271.189L512.407 275.122L511.678 271.189ZM527.667 268.227L531.655 267.913L531.305 263.486L526.939 264.294L527.667 268.227ZM528.359 273.488L524.425 274.214L524.425 274.217L528.359 273.488ZM587.911 314.429L587.188 310.495L587.183 310.496L587.911 314.429ZM614.661 300.391L618.285 298.698L615.87 293.53L611.834 297.561L614.661 300.391ZM776.807 248.368L776.079 244.435L772.146 245.164L772.874 249.097L776.807 248.368ZM749.52 122.597C749.375 120.728 749.132 118.867 748.792 117.02L740.924 118.472C741.214 120.042 741.42 121.625 741.543 123.214L749.52 122.597ZM748.791 117.018C743.231 86.9966 713.626 67.5417 682.899 73.2327L684.356 81.0989C710.992 76.1655 736.215 93.0476 740.925 118.475L748.791 117.018ZM682.904 73.2317C671.664 75.2978 661.285 80.6159 653.141 88.4975L658.705 94.2461C665.702 87.4738 674.644 82.884 684.35 81.0998L682.904 73.2317ZM659.533 89.6483C642.275 53.5037 601.405 32.1659 559.08 40.0048L560.537 47.8711C599.377 40.6775 636.647 60.2844 652.313 93.0953L659.533 89.6483ZM559.08 40.0048C508.861 49.3059 475.214 96.2735 484.264 145.136L492.13 143.679C483.931 99.4107 514.408 56.4146 560.537 47.8711L559.08 40.0048ZM487.469 140.474C449.204 147.561 423.514 183.365 430.423 220.673L438.289 219.216C432.231 186.503 454.751 154.67 488.925 148.34L487.469 140.474ZM430.423 220.673C437.333 257.979 474.142 282.209 512.407 275.122L510.95 267.256C476.775 273.585 444.348 251.928 438.289 219.216L430.423 220.673ZM512.407 275.122L528.396 272.161L526.939 264.294L510.95 267.256L512.407 275.122ZM523.68 268.542C523.83 270.443 524.078 272.336 524.425 274.214L532.292 272.763C531.996 271.157 531.783 269.538 531.655 267.913L523.68 268.542ZM524.425 274.217C529.967 304.139 558.717 323.904 588.64 318.362L587.183 310.496C561.605 315.233 537.029 298.338 532.292 272.76L524.425 274.217ZM588.634 318.363C599.564 316.354 609.625 311.074 617.488 303.221L611.834 297.561C605.118 304.269 596.524 308.779 587.188 310.495L588.634 318.363ZM611.037 302.084C627.941 338.265 667.672 359.938 708.772 352.326L707.315 344.46C669.886 351.392 633.685 331.658 618.285 298.698L611.037 302.084ZM708.772 352.326C757.554 343.291 789.775 296.421 780.74 247.64L772.874 249.097C781.104 293.534 751.752 336.229 707.315 344.46L708.772 352.326ZM777.536 252.301C814.75 245.409 839.332 209.653 832.44 172.437L824.573 173.894C830.661 206.765 808.949 238.347 776.079 244.435L777.536 252.301ZM832.44 172.437C825.547 135.222 789.791 110.641 752.575 117.533L754.032 125.399C786.903 119.311 818.485 141.024 824.573 173.894L832.44 172.437ZM752.575 117.533L744.803 118.973L746.26 126.839L754.032 125.399L752.575 117.533Z" fill="#E0F0FB" mask="url(#path-3-inside-2)"/>
<mask id="path-5-inside-3" fill="white">
<path fill-rule="evenodd" clip-rule="evenodd" d="M514.398 298.722V199.756C505.101 200.05 495.53 202.737 486.805 208.002C478.045 213.273 470.984 220.711 466.555 229.329C440.76 207.235 399.213 204.5 365.288 224.973C325.016 249.275 310.733 297.076 333.386 331.738C305.708 348.441 294.357 379.908 305.624 405.097H613.44C638.12 379.771 643.945 342.477 625.169 313.747C654.464 296.069 664.392 260.592 647.344 234.506C630.296 208.42 592.727 201.604 563.432 219.282L556.942 223.199C556.256 221.815 555.489 220.47 554.641 219.171C549.894 211.908 543.056 206.582 535.141 203.359L540.405 208.538V327.245L514.398 298.722Z"/>
</mask>
<path fill-rule="evenodd" clip-rule="evenodd" d="M514.398 298.722V199.756C505.101 200.05 495.53 202.737 486.805 208.002C478.045 213.273 470.984 220.711 466.555 229.329C440.76 207.235 399.213 204.5 365.288 224.973C325.016 249.275 310.733 297.076 333.386 331.738C305.708 348.441 294.357 379.908 305.624 405.097H613.44C638.12 379.771 643.945 342.477 625.169 313.747C654.464 296.069 664.392 260.592 647.344 234.506C630.296 208.42 592.727 201.604 563.432 219.282L556.942 223.199C556.256 221.815 555.489 220.47 554.641 219.171C549.894 211.908 543.056 206.582 535.141 203.359L540.405 208.538V327.245L514.398 298.722Z" fill="white"/>
<path d="M514.398 199.756H518.398V195.628L514.272 195.758L514.398 199.756ZM514.398 298.722H510.398V300.271L511.442 301.417L514.398 298.722ZM486.805 208.002L488.867 211.429L488.871 211.427L486.805 208.002ZM466.555 229.329L463.953 232.367L467.798 235.661L470.113 231.157L466.555 229.329ZM365.288 224.973L363.221 221.548L363.221 221.548L365.288 224.973ZM333.386 331.738L335.453 335.163L339.003 333.021L336.735 329.55L333.386 331.738ZM305.624 405.097L301.973 406.73L303.031 409.097H305.624V405.097ZM613.44 405.097V409.097H615.127L616.305 407.889L613.44 405.097ZM625.169 313.747L623.103 310.323L619.553 312.465L621.821 315.936L625.169 313.747ZM647.344 234.506L643.995 236.694L647.344 234.506ZM563.432 219.282L565.499 222.707V222.707L563.432 219.282ZM556.942 223.199L553.357 224.974L555.286 228.87L559.008 226.624L556.942 223.199ZM554.641 219.171L557.991 216.985L557.989 216.983L554.641 219.171ZM535.141 203.359L536.65 199.654L532.336 206.21L535.141 203.359ZM540.405 208.538H544.405V206.862L543.21 205.686L540.405 208.538ZM540.405 327.245L537.449 329.94L544.405 337.569V327.245H540.405ZM510.398 199.756V298.722H518.398V199.756H510.398ZM488.871 211.427C497.004 206.519 505.907 204.026 514.525 203.754L514.272 195.758C504.296 196.073 494.055 198.955 484.738 204.577L488.871 211.427ZM470.113 231.157C474.182 223.238 480.708 216.339 488.867 211.429L484.742 204.575C475.382 210.208 467.785 218.184 462.997 227.501L470.113 231.157ZM367.354 228.397C399.994 208.701 439.629 211.534 463.953 232.367L469.157 226.291C441.89 202.937 398.433 200.299 363.221 221.548L367.354 228.397ZM336.735 329.55C315.588 297.194 328.575 251.798 367.354 228.397L363.221 221.548C321.456 246.751 305.877 296.958 330.038 333.927L336.735 329.55ZM309.275 403.464C298.984 380.457 309.168 351.025 335.453 335.163L331.32 328.314C302.247 345.858 289.73 379.36 301.973 406.73L309.275 403.464ZM305.624 409.097H613.44V401.097H305.624V409.097ZM621.821 315.936C639.43 342.88 634.137 378.127 610.575 402.306L616.305 407.889C642.103 381.415 648.46 342.073 628.518 311.559L621.821 315.936ZM643.995 236.694C659.606 260.58 650.783 293.619 623.103 310.323L627.236 317.172C658.145 298.52 669.178 260.604 650.692 232.318L643.995 236.694ZM565.499 222.707C593.243 205.965 628.304 212.684 643.995 236.694L650.692 232.318C632.288 204.157 592.212 197.243 561.366 215.858L565.499 222.707ZM559.008 226.624L565.499 222.707L561.366 215.858L554.875 219.774L559.008 226.624ZM551.291 221.357C552.052 222.524 552.742 223.731 553.357 224.974L560.526 221.424C559.771 219.898 558.925 218.416 557.991 216.985L551.291 221.357ZM533.633 207.064C540.863 210.008 547.029 214.836 551.293 221.359L557.989 216.983C552.759 208.98 545.249 203.156 536.65 199.654L533.633 207.064ZM543.21 205.686L537.947 200.508L532.336 206.21L537.599 211.389L543.21 205.686ZM544.405 327.245V208.538H536.405V327.245H544.405ZM511.442 301.417L537.449 329.94L543.361 324.55L517.354 296.027L511.442 301.417Z" fill="#E0F0FB" mask="url(#path-5-inside-3)"/>
<mask id="path-7-inside-4" fill="white">
<path fill-rule="evenodd" clip-rule="evenodd" d="M836.504 210.213C837.813 211.206 839.061 212.262 840.243 213.375L845.126 208.102C867.165 184.301 906.358 181.171 932.665 201.11C958.972 221.049 962.432 256.506 940.393 280.307C975.383 306.826 979.986 353.988 950.673 385.644C942.626 394.334 932.86 400.952 922.201 405.432H852.435C852.258 405.357 852.08 405.282 851.903 405.205C851.895 405.281 851.887 405.357 851.878 405.432H646.987C647.7 393.13 652.746 380.812 662.287 370.509C627.329 344.014 623.552 296.012 653.849 263.293C679.372 235.73 720.934 227.807 754.299 241.835C755.427 232.713 759.562 224.026 766.157 216.923C784.196 197.442 815.691 194.438 836.504 210.213Z"/>
</mask>
<path fill-rule="evenodd" clip-rule="evenodd" d="M836.504 210.213C837.813 211.206 839.061 212.262 840.243 213.375L845.126 208.102C867.165 184.301 906.358 181.171 932.665 201.11C958.972 221.049 962.432 256.506 940.393 280.307C975.383 306.826 979.986 353.988 950.673 385.644C942.626 394.334 932.86 400.952 922.201 405.432H852.435C852.258 405.357 852.08 405.282 851.903 405.205C851.895 405.281 851.887 405.357 851.878 405.432H646.987C647.7 393.13 652.746 380.812 662.287 370.509C627.329 344.014 623.552 296.012 653.849 263.293C679.372 235.73 720.934 227.807 754.299 241.835C755.427 232.713 759.562 224.026 766.157 216.923C784.196 197.442 815.691 194.438 836.504 210.213Z" fill="white"/>
<path d="M840.243 213.375L837.5 216.287L840.437 219.053L843.178 216.093L840.243 213.375ZM836.504 210.213L838.922 207.026L838.92 207.025L836.504 210.213ZM845.126 208.102L848.061 210.819V210.819L845.126 208.102ZM932.665 201.11L930.248 204.297V204.297L932.665 201.11ZM940.393 280.307L937.458 277.589L934.459 280.828L937.977 283.494L940.393 280.307ZM950.673 385.644L953.608 388.361L950.673 385.644ZM922.201 405.432V409.432H923.007L923.751 409.12L922.201 405.432ZM852.435 405.432L850.881 409.118L851.626 409.432H852.435V405.432ZM851.903 405.205L853.482 401.53L848.497 399.388L847.925 404.784L851.903 405.205ZM851.878 405.432V409.432H855.456L855.854 405.876L851.878 405.432ZM646.987 405.432L642.994 405.201L642.749 409.432H646.987V405.432ZM662.287 370.509L665.221 373.227L668.221 369.988L664.703 367.321L662.287 370.509ZM653.849 263.293L656.784 266.011L653.849 263.293ZM754.299 241.835L752.749 245.522L757.62 247.57L758.269 242.325L754.299 241.835ZM766.157 216.923L769.089 219.644L769.092 219.64L766.157 216.923ZM842.985 210.463C841.699 209.252 840.343 208.105 838.922 207.026L834.086 213.399C835.283 214.307 836.422 215.272 837.5 216.287L842.985 210.463ZM842.191 205.384L837.308 210.657L843.178 216.093L848.061 210.819L842.191 205.384ZM935.081 197.922C907.18 176.775 865.666 180.032 842.191 205.384L848.061 210.819C868.664 188.57 905.535 185.567 930.248 204.297L935.081 197.922ZM943.328 283.024C967.025 257.433 963.211 219.242 935.081 197.922L930.248 204.297C954.733 222.855 957.839 255.58 937.458 277.589L943.328 283.024ZM953.608 388.361C984.579 354.914 979.623 305.02 942.809 277.119L937.977 283.494C971.144 308.632 975.392 353.061 947.738 382.926L953.608 388.361ZM923.751 409.12C934.902 404.432 945.15 397.495 953.608 388.361L947.738 382.926C940.102 391.172 930.817 397.471 920.651 401.745L923.751 409.12ZM852.435 409.432H922.201V401.432H852.435V409.432ZM850.324 408.881C850.509 408.96 850.695 409.039 850.881 409.118L853.99 401.747C853.82 401.675 853.651 401.603 853.482 401.53L850.324 408.881ZM855.854 405.876C855.863 405.794 855.872 405.711 855.881 405.627L847.925 404.784C847.918 404.851 847.911 404.919 847.903 404.988L855.854 405.876ZM646.987 409.432H851.878V401.432H646.987V409.432ZM659.352 367.791C649.197 378.757 643.762 391.949 642.994 405.201L650.981 405.663C651.638 394.312 656.295 382.866 665.221 373.227L659.352 367.791ZM650.914 260.575C619.06 294.976 622.972 345.731 659.87 373.697L664.703 367.321C631.687 342.298 628.044 297.048 656.784 266.011L650.914 260.575ZM755.849 238.147C720.988 223.491 677.619 231.736 650.914 260.575L656.784 266.011C681.125 239.724 720.88 232.124 752.749 245.522L755.849 238.147ZM763.226 214.201C756.092 221.884 751.566 231.341 750.329 241.344L758.269 242.325C759.288 234.085 763.032 226.167 769.089 219.644L763.226 214.201ZM838.92 207.025C816.425 189.976 782.622 193.255 763.222 214.205L769.092 219.64C785.77 201.63 814.957 198.901 834.088 213.401L838.92 207.025Z" fill="#E0F0FB" mask="url(#path-7-inside-4)"/>
<line x1="462.962" y1="327.762" x2="462.962" y2="404.002" stroke="#2E2E37" stroke-width="4"/>
<line x1="326.902" y1="327.762" x2="326.902" y2="404.002" stroke="#2E2E37" stroke-width="4"/>
<path d="M513.837 300.784H161.278C153.829 300.784 147.79 306.823 147.79 314.273C147.79 321.723 153.829 327.762 161.278 327.762H540.722L513.837 300.784Z" fill="#C4C4C4"/>
<path d="M720.18 327.762L868.556 327.762C876.006 327.762 882.045 321.723 882.045 314.273C882.045 306.823 876.006 300.784 868.556 300.784L720.18 300.784L720.18 327.762Z" fill="#C4C4C4"/>
<path d="M720.18 327.762L868.556 327.762C876.006 327.762 882.045 321.723 882.045 314.273V314.273C882.045 306.823 876.006 300.784 868.556 300.784L818.06 300.784M720.18 300.784L760.992 300.784" stroke="#2E2E37" stroke-width="4"/>
<path d="M512.571 327.762H540.722V404.002L512.571 375.841V327.762Z" fill="#FFBF19"/>
<path d="M513.744 183.469V134.228L540.722 162.12V209.295L513.744 183.469Z" fill="#FFD770"/>
<path d="M541.895 162.378H721.353V402.829H541.895V162.378Z" fill="#FFBD12"/>
<path d="M541.895 162.378H721.353V402.829H541.895V162.378Z" fill="url(#paint0_linear)" fill-opacity="0.2"/>
<path d="M542 163.196L516.5 136.5L693 135L720.18 163.196H542Z" fill="#FFD770"/>
<path d="M720.18 162.95V404.002H541.269M720.18 162.95L692.655 135.401L581.524 135.401M720.18 162.95H541.269V404.002M541.269 404.002L513.744 376.453V328.243M513.744 300.005V135.401H553" stroke="#2E2E37" stroke-width="4"/>
<path d="M513.845 136.233L540.957 163.547" stroke="#2E2E37" stroke-width="4"/>
<path d="M514.101 183L541.213 210.314" stroke="#2E2E37" stroke-width="4"/>
<path d="M541.651 327.762H161.585C153.966 327.762 147.79 321.723 147.79 314.273C147.79 306.823 153.966 300.784 161.585 300.784H513.37H514.75L541.895 327.523" stroke="#2E2E37" stroke-width="4"/>
<path d="M699.068 185.837H561.834V300.784H699.068V283.1V185.837Z" fill="#EDF8FF"/>
<path d="M699.068 300.784V185.837H561.834V300.784H699.068ZM699.068 300.784V283.1" stroke="#2E2E37" stroke-width="4"/>
<path d="M654.496 313.686H699.068V339.491H654.496V313.686Z" fill="#00C6AE"/>
<path d="M654.496 313.686H699.068V339.491H654.496V313.686Z" fill="url(#paint1_linear)" fill-opacity="0.2"/>
<path d="M699.068 339.491V313.686H654.496V339.491H699.068ZM699.068 339.491V335.521" stroke="#2E2E37" stroke-width="4"/>
<path d="M561.834 326.589C561.834 319.463 567.611 313.686 574.737 313.686C581.862 313.686 587.639 319.463 587.639 326.589C587.639 333.714 581.862 339.491 574.737 339.491C567.611 339.491 561.834 333.714 561.834 326.589Z" fill="#D41818"/>
<path d="M561.834 326.589C561.834 319.463 567.611 313.686 574.737 313.686C581.862 313.686 587.639 319.463 587.639 326.589C587.639 333.714 581.862 339.491 574.737 339.491C567.611 339.491 561.834 333.714 561.834 326.589Z" fill="url(#paint2_linear)" fill-opacity="0.2"/>
<path d="M595.85 326.589C595.85 319.463 601.626 313.686 608.752 313.686H609.925C617.051 313.686 622.827 319.463 622.827 326.589C622.827 333.714 617.051 339.491 609.925 339.491H608.752C601.626 339.491 595.85 333.714 595.85 326.589Z" fill="#D41818"/>
<path d="M561.834 326.589C561.834 319.463 567.611 313.686 574.737 313.686V313.686C581.862 313.686 587.639 319.463 587.639 326.589V326.589C587.639 333.714 581.862 339.491 574.737 339.491V339.491C567.611 339.491 561.834 333.714 561.834 326.589V326.589Z" stroke="#2E2E37" stroke-width="4"/>
<path d="M595.85 326.589C595.85 319.463 601.626 313.686 608.752 313.686H609.925C617.051 313.686 622.827 319.463 622.827 326.589C622.827 333.714 617.051 339.491 609.925 339.491H608.752C601.626 339.491 595.85 333.714 595.85 326.589Z" fill="#D41818"/>
<path d="M595.85 326.589C595.85 319.463 601.626 313.686 608.752 313.686H609.925C617.051 313.686 622.827 319.463 622.827 326.589C622.827 333.714 617.051 339.491 609.925 339.491H608.752C601.626 339.491 595.85 333.714 595.85 326.589Z" fill="url(#paint3_linear)" fill-opacity="0.2"/>
<path d="M595.85 326.589C595.85 319.463 601.626 313.686 608.752 313.686H609.925C617.051 313.686 622.827 319.463 622.827 326.589C622.827 333.714 617.051 339.491 609.925 339.491H608.752C601.626 339.491 595.85 333.714 595.85 326.589Z" stroke="#2E2E37" stroke-width="4"/>
<path d="M663.88 332.453L671.102 324.174L680.424 331.136L689.684 320.724" stroke="#2E2E37" stroke-width="4"/>
<line x1="258.872" y1="327.762" x2="258.872" y2="404.002" stroke="#2E2E37" stroke-width="4"/>
<line x1="190.842" y1="327.762" x2="190.842" y2="404.002" stroke="#2E2E37" stroke-width="4"/>
<line x1="839.474" y1="327.762" x2="839.474" y2="404.002" stroke="#2E2E37" stroke-width="4"/>
<line x1="771.443" y1="327.762" x2="771.443" y2="404.002" stroke="#2E2E37" stroke-width="4"/>
<line x1="394.932" y1="327.762" x2="394.932" y2="404.002" stroke="#2E2E37" stroke-width="4"/>
<path d="M581.774 144.016L581.774 125.591C581.774 118.053 575.735 111.942 568.286 111.942C560.836 111.942 554.797 118.053 554.797 125.591V144.016L554.797 145.381C554.797 147.643 560.836 149.476 568.286 149.476C575.735 149.476 581.774 147.643 581.774 145.381L581.774 144.016Z" fill="#D41818"/>
<path d="M581.774 144.016L581.774 125.591C581.774 118.053 575.735 111.942 568.286 111.942C560.836 111.942 554.797 118.053 554.797 125.591V144.016L554.797 145.381C554.797 147.643 560.836 149.476 568.286 149.476C575.735 149.476 581.774 147.643 581.774 145.381L581.774 144.016Z" fill="url(#paint4_linear)" fill-opacity="0.3"/>
<path d="M581.774 144.016L581.774 125.591C581.774 118.053 575.735 111.942 568.286 111.942C560.836 111.942 554.797 118.053 554.797 125.591V144.016L554.797 145.381C554.797 147.643 560.836 149.476 568.286 149.476C575.735 149.476 581.774 147.643 581.774 145.381L581.774 144.016Z" stroke="#2E2E37" stroke-width="4"/>
<path d="M192.361 258.559H260.782L274.466 272.341V313.686H206.045L192.361 299.904V258.559Z" fill="#78C8FF"/>
<path d="M274.466 272.341L260.782 258.559H192.361V299.904L206.045 313.686M274.466 272.341V313.686H206.045M274.466 272.341H206.045V313.686" stroke="#2E2E37" stroke-width="4"/>
<path d="M275.639 273.353L206.071 272.331L205.379 312.514L191.188 299.233L191.88 259.732H262.141L275.639 273.353Z" fill="#71C4FF"/>
<path d="M192.361 258.559H260.782L274.466 272.341V313.686H206.045L192.361 299.904V258.559Z" fill="url(#paint5_linear)" fill-opacity="0.3"/>
<path d="M274.466 272.341L260.782 258.559H192.361V299.904L206.045 313.686M274.466 272.341V313.686H206.045M274.466 272.341H206.045V313.686" stroke="#2E2E37" stroke-width="4"/>
<path d="M192.361 259.732L206.436 273.807" stroke="#2E2E37" stroke-width="4"/>
<path d="M302.616 238.619H372.015L385.895 252.267V313.686H316.496L302.616 300.038V238.619Z" fill="#BB8BCC"/>
<path d="M385.895 252.367L317.293 251.336L316.61 312.513L302.616 299.109L303.299 238.619H372.584L385.895 252.367Z" fill="#F7E1FF"/>
<path d="M302.616 238.619H371.037L384.722 252.267V313.686H316.301L302.616 300.038V238.619Z" fill="url(#paint6_linear)" fill-opacity="0.3"/>
<path d="M316.301 252.267V313.686M316.301 252.267H350.511H384.722M316.301 252.267L350.511 274.105L384.722 252.267M384.722 252.267L371.037 238.619H302.616V300.038L316.301 313.686M384.722 252.267V313.686H316.301" stroke="#2E2E37" stroke-width="4"/>
<path d="M302.616 238.619L316.692 252.694" stroke="#2E2E37" stroke-width="4"/>
<path d="M410.526 258.559H478.947L492.632 272.341V313.686H424.211L410.526 299.904V258.559Z" fill="#FC7044"/>
<path d="M493.804 273.353L424.236 272.331L423.544 312.514L409.353 299.233L410.045 259.732H480.306L493.804 273.353Z" fill="#FFD3C5"/>
<path d="M409.353 258.559H478.752L492.631 272.341V313.686H423.233L409.353 299.904V258.559Z" fill="url(#paint7_linear)" fill-opacity="0.3"/>
<path d="M492.631 272.341L478.752 258.559H409.353V299.904L423.233 313.686M492.631 272.341V313.686H423.233M492.631 272.341H423.233V313.686" stroke="#2E2E37" stroke-width="4"/>
<path d="M230.992 291.938C229.752 291.584 229.132 291.387 229.132 290.765C229.132 290.199 229.711 289.959 230.455 289.959C231.405 289.959 232.039 290.411 232.149 291.175H234.63C234.561 289.125 232.756 287.882 230.455 287.882C228.333 287.882 226.652 288.744 226.652 290.948C226.652 292.814 228.14 293.563 229.835 294.072C231.226 294.496 232.287 294.679 232.287 295.485C232.287 295.993 231.791 296.361 230.868 296.361C229.766 296.361 228.856 295.965 228.856 294.891H226.376C226.376 297.138 228.305 298.438 230.868 298.438C233.334 298.438 234.767 297.181 234.767 295.245C234.767 293.082 232.852 292.461 230.992 291.938Z" fill="#2E2E37"/>
<path d="M238.246 291.98V290.185H243.234V288.108H235.766V298.212H243.317V296.135H238.246V294.057H242.545V291.98H238.246Z" fill="#2E2E37"/>
<path d="M248.695 298.438C251.795 298.438 253.572 296.205 253.572 293.153C253.572 290.115 251.795 287.882 248.695 287.882C245.567 287.882 243.817 290.115 243.817 293.153C243.817 296.205 245.567 298.438 248.695 298.438ZM248.695 296.361C246.89 296.361 246.297 294.919 246.297 293.153C246.297 291.401 246.89 289.959 248.695 289.959C250.486 289.959 251.092 291.401 251.092 293.153C251.092 294.919 250.486 296.361 248.695 296.361Z" fill="#2E2E37"/>
<path d="M328.342 291.98V290.185H333.33V288.108H325.862V298.212H333.413V296.135H328.342V294.057H332.641V291.98H328.342Z" fill="#2E2E37"/>
<path d="M334.514 298.212H336.857V291.924H336.884L338.717 298.212H340.453L342.286 291.924H342.313V298.212H344.656V288.108H341.624L339.599 294.552H339.571L337.546 288.108H334.514V298.212Z" fill="#2E2E37"/>
<path d="M351.672 296.107L352.306 298.212H354.787L351.231 288.108H348.751L345.182 298.212H347.663L348.297 296.107H351.672ZM348.861 294.171L349.978 290.44H350.005L351.121 294.171H348.861Z" fill="#2E2E37"/>
<path d="M355.493 288.108V298.212H357.973V288.108H355.493Z" fill="#2E2E37"/>
<path d="M359.328 288.108V298.212H366.19V296.135H361.808V288.108H359.328Z" fill="#2E2E37"/>
<path d="M371.199 291.938C369.959 291.584 369.339 291.387 369.339 290.765C369.339 290.199 369.918 289.959 370.662 289.959C371.612 289.959 372.246 290.411 372.356 291.175H374.837C374.768 289.125 372.963 287.882 370.662 287.882C368.54 287.882 366.859 288.744 366.859 290.948C366.859 292.814 368.347 293.563 370.042 294.072C371.433 294.496 372.494 294.679 372.494 295.485C372.494 295.993 371.998 296.361 371.075 296.361C369.973 296.361 369.063 295.965 369.063 294.891H366.583C366.583 297.138 368.512 298.438 371.075 298.438C373.541 298.438 374.974 297.181 374.974 295.245C374.974 293.082 373.059 292.461 371.199 291.938Z" fill="#2E2E37"/>
<path d="M450.074 296.107L450.708 298.212H453.188L449.633 288.108H447.152L443.584 298.212H446.064L446.698 296.107H450.074ZM447.263 294.171L448.379 290.44H448.406L449.523 294.171H447.263Z" fill="#2E2E37"/>
<path d="M453.88 298.212H458.386C461.128 298.212 462.644 296.417 462.644 293.167C462.644 289.917 460.99 288.108 458.248 288.108H453.88V298.212ZM456.361 290.185H458C459.544 290.185 460.164 291.33 460.164 293.167C460.164 295.004 459.544 296.135 458 296.135H456.361V290.185Z" fill="#2E2E37"/>
<path d="M467.743 291.938C466.503 291.584 465.883 291.387 465.883 290.765C465.883 290.199 466.462 289.959 467.206 289.959C468.157 289.959 468.791 290.411 468.901 291.175H471.381C471.312 289.125 469.507 287.882 467.206 287.882C465.084 287.882 463.403 288.744 463.403 290.948C463.403 292.814 464.891 293.563 466.586 294.072C467.978 294.496 469.039 294.679 469.039 295.485C469.039 295.993 468.542 296.361 467.619 296.361C466.517 296.361 465.608 295.965 465.608 294.891H463.127C463.127 297.138 465.056 298.438 467.619 298.438C470.086 298.438 471.519 297.181 471.519 295.245C471.519 293.082 469.604 292.461 467.743 291.938Z" fill="#2E2E37"/>
<path d="M409.353 259.732L424.601 273.807" stroke="#2E2E37" stroke-width="4"/>
<path d="M423.428 259.732L437.504 273.807" stroke="#2E2E37" stroke-width="4"/>
<path d="M437.504 259.732L451.579 273.807" stroke="#2E2E37" stroke-width="4"/>
<path d="M451.579 259.732L465.654 273.807" stroke="#2E2E37" stroke-width="4"/>
<path d="M464.481 259.732L479.729 273.807" stroke="#2E2E37" stroke-width="4"/>
<circle cx="786.777" cy="275.175" r="38.9249" fill="#00C6AE"/>
<circle cx="786.777" cy="275.175" r="38.9249" fill="url(#paint8_linear)" fill-opacity="0.3"/>
<circle cx="787.075" cy="275.473" r="38.6277" stroke="#2E2E37" stroke-width="4"/>
<circle cx="787.074" cy="275.473" r="29.7136" stroke="#2E2E37" stroke-width="4"/>
<path d="M795.953 282.388C795.953 277.396 792.566 276.219 788.002 274.793V266.806C790.284 267.341 791.71 268.946 792.031 271.834H795.24C794.919 267.163 791.888 264.524 788.002 263.918V261.707H785.862V263.775C780.977 263.918 778.018 266.557 778.018 270.479C778.018 274.864 782.511 276.362 785.862 277.289V286.239C782.154 285.775 780.478 283.672 780.157 280.498H776.948C777.269 285.775 781.084 288.592 785.862 289.127V291.73H788.002V289.198C793.386 288.984 795.953 285.989 795.953 282.388ZM781.227 270.122C781.227 268.09 783.01 266.735 785.862 266.628V274.116C783.259 273.296 781.227 272.44 781.227 270.122ZM788.002 286.346V277.931C791.389 279.001 792.744 279.963 792.744 282.388C792.744 284.563 791.318 286.168 788.002 286.346Z" fill="#2E2E37"/>
<mask id="path-62-inside-5" fill="white">
<path fill-rule="evenodd" clip-rule="evenodd" d="M641.468 206.599C641.12 206.237 640.753 205.894 640.368 205.57C634.244 200.44 624.977 201.417 619.669 207.753C617.728 210.063 616.511 212.888 616.18 215.855C606.362 211.293 594.133 213.87 586.623 222.834C577.708 233.475 578.82 249.087 589.106 257.704C582.403 265.705 583.239 277.443 590.972 283.922C598.706 290.4 610.408 289.166 617.111 281.166L620.068 277.636C620.423 278.004 620.798 278.354 621.19 278.683C627.32 283.818 636.452 283.012 641.588 276.882C643.465 274.647 644.62 271.895 644.899 268.989C654.665 273.627 666.695 271.3 673.961 262.627C682.586 252.331 681.232 236.993 670.936 228.368C677.421 220.627 676.403 209.095 668.662 202.61C660.922 196.125 649.389 197.143 642.905 204.884L641.468 206.599Z"/>
</mask>
<path fill-rule="evenodd" clip-rule="evenodd" d="M641.468 206.599C641.12 206.237 640.753 205.894 640.368 205.57C634.244 200.44 624.977 201.417 619.669 207.753C617.728 210.063 616.511 212.888 616.18 215.855C606.362 211.293 594.133 213.87 586.623 222.834C577.708 233.475 578.82 249.087 589.106 257.704C582.403 265.705 583.239 277.443 590.972 283.922C598.706 290.4 610.408 289.166 617.111 281.166L620.068 277.636C620.423 278.004 620.798 278.354 621.19 278.683C627.32 283.818 636.452 283.012 641.588 276.882C643.465 274.647 644.62 271.895 644.899 268.989C654.665 273.627 666.695 271.3 673.961 262.627C682.586 252.331 681.232 236.993 670.936 228.368C677.421 220.627 676.403 209.095 668.662 202.61C660.922 196.125 649.389 197.143 642.905 204.884L641.468 206.599Z" fill="#78C8FF"/>
<path d="M641.468 206.599L638.583 209.37L641.671 212.585L644.534 209.168L641.468 206.599ZM640.368 205.57L642.939 202.506L642.937 202.504L640.368 205.57ZM619.669 207.753L622.732 210.326L622.735 210.321L619.669 207.753ZM616.18 215.855L614.494 219.482L619.537 221.826L620.155 216.3L616.18 215.855ZM586.623 222.834L583.557 220.265L586.623 222.834ZM589.106 257.704L592.172 260.273L594.741 257.207L591.674 254.638L589.106 257.704ZM590.972 283.922L593.541 280.855L593.541 280.855L590.972 283.922ZM617.111 281.166L620.177 283.734L617.111 281.166ZM620.068 277.636L622.948 274.86L619.86 271.656L617.002 275.067L620.068 277.636ZM621.19 278.683L618.619 281.748L618.621 281.749L621.19 278.683ZM641.588 276.882L638.525 274.309L638.521 274.314L641.588 276.882ZM644.899 268.989L646.615 265.376L641.462 262.929L640.917 268.607L644.899 268.989ZM670.936 228.368L667.87 225.799L665.301 228.865L668.368 231.434L670.936 228.368ZM642.905 204.884L639.838 202.315L642.905 204.884ZM644.353 203.828C643.906 203.363 643.434 202.921 642.939 202.506L637.797 208.635C638.072 208.866 638.335 209.111 638.583 209.37L644.353 203.828ZM642.937 202.504C635.022 195.874 623.246 197.254 616.603 205.184L622.735 210.321C626.707 205.58 633.466 205.006 637.799 208.637L642.937 202.504ZM616.606 205.18C614.164 208.087 612.625 211.651 612.204 215.41L620.155 216.3C620.398 214.126 621.293 212.039 622.732 210.326L616.606 205.18ZM617.865 212.228C606.373 206.887 592.205 209.943 583.557 220.265L589.689 225.403C596.061 217.797 606.352 215.699 614.494 219.482L617.865 212.228ZM583.557 220.265C573.306 232.501 574.46 250.653 586.537 260.771L591.674 254.638C583.179 247.521 582.11 234.45 589.689 225.403L583.557 220.265ZM586.039 255.136C578.001 264.731 578.879 279.009 588.403 286.988L593.541 280.855C587.598 275.877 586.805 266.679 592.172 260.273L586.039 255.136ZM588.403 286.988C597.928 294.967 612.139 293.33 620.177 283.734L614.045 278.597C608.678 285.003 599.484 285.834 593.541 280.855L588.403 286.988ZM620.177 283.734L623.134 280.205L617.002 275.067L614.045 278.597L620.177 283.734ZM617.188 280.412C617.641 280.882 618.119 281.328 618.619 281.748L623.761 275.619C623.477 275.38 623.205 275.127 622.948 274.86L617.188 280.412ZM618.621 281.749C626.445 288.303 638.1 287.274 644.654 279.451L638.521 274.314C634.805 278.75 628.195 279.334 623.759 275.617L618.621 281.749ZM644.65 279.455C647.049 276.6 648.524 273.083 648.88 269.371L640.917 268.607C640.716 270.706 639.881 272.695 638.525 274.309L644.65 279.455ZM643.183 272.602C654.554 278.003 668.562 275.3 677.027 265.196L670.895 260.058C664.828 267.3 654.776 269.252 646.615 265.376L643.183 272.602ZM677.027 265.196C687.071 253.207 685.494 235.345 673.505 225.301L668.368 231.434C676.97 238.64 678.101 251.456 670.895 260.058L677.027 265.196ZM674.003 230.936C681.906 221.502 680.665 207.447 671.231 199.544L666.093 205.676C672.141 210.742 672.936 219.752 667.87 225.799L674.003 230.936ZM671.231 199.544C661.797 191.64 647.742 192.881 639.838 202.315L645.971 207.453C651.037 201.405 660.046 200.61 666.093 205.676L671.231 199.544ZM639.838 202.315L638.402 204.03L644.534 209.168L645.971 207.453L639.838 202.315Z" fill="#2E2E37" mask="url(#path-62-inside-5)"/>
<defs>
<linearGradient id="paint0_linear" x1="631.624" y1="162.378" x2="631.624" y2="402.829" gradientUnits="userSpaceOnUse">
<stop stop-color="white"/>
<stop offset="1" stop-color="white" stop-opacity="0"/>
</linearGradient>
<linearGradient id="paint1_linear" x1="676.782" y1="313.686" x2="676.782" y2="339.491" gradientUnits="userSpaceOnUse">
<stop stop-color="white"/>
<stop offset="1" stop-color="white" stop-opacity="0"/>
</linearGradient>
<linearGradient id="paint2_linear" x1="574.737" y1="313.686" x2="574.737" y2="339.491" gradientUnits="userSpaceOnUse">
<stop stop-color="white"/>
<stop offset="1" stop-color="white" stop-opacity="0"/>
</linearGradient>
<linearGradient id="paint3_linear" x1="609.338" y1="313.686" x2="609.338" y2="339.491" gradientUnits="userSpaceOnUse">
<stop stop-color="white"/>
<stop offset="1" stop-color="white" stop-opacity="0"/>
</linearGradient>
<linearGradient id="paint4_linear" x1="568.286" y1="111.942" x2="568.286" y2="149.476" gradientUnits="userSpaceOnUse">
<stop stop-color="white"/>
<stop offset="1" stop-color="white" stop-opacity="0"/>
</linearGradient>
<linearGradient id="paint5_linear" x1="233.413" y1="258.559" x2="233.413" y2="313.686" gradientUnits="userSpaceOnUse">
<stop stop-color="white"/>
<stop offset="1" stop-color="white" stop-opacity="0"/>
</linearGradient>
<linearGradient id="paint6_linear" x1="343.669" y1="259.092" x2="343.669" y2="313.686" gradientUnits="userSpaceOnUse">
<stop stop-color="white"/>
<stop offset="1" stop-color="white" stop-opacity="0"/>
</linearGradient>
<linearGradient id="paint7_linear" x1="450.992" y1="258.559" x2="450.992" y2="313.686" gradientUnits="userSpaceOnUse">
<stop stop-color="white"/>
<stop offset="1" stop-color="white" stop-opacity="0"/>
</linearGradient>
<linearGradient id="paint8_linear" x1="786.777" y1="236.251" x2="786.777" y2="314.1" gradientUnits="userSpaceOnUse">
<stop stop-color="white"/>
<stop offset="1" stop-color="white" stop-opacity="0"/>
</linearGradient>
</defs>
</svg>
