<svg xmlns="http://www.w3.org/2000/svg" width="12.708" height="12.708" viewBox="0 0 12.708 12.708"><g transform="translate(0)"><path d="M279,279.159a.994.994,0,0,0,.993.993h1.167a.994.994,0,0,0,.993-.993v-1.167a.994.994,0,0,0-.993-.993h-1.167a.994.994,0,0,0-.993.993Zm.993-1.167h1.167v1.167h-1.167Z" transform="translate(-272.075 -270.125)" fill="#ffe87b"/><ellipse cx="0.5" rx="0.5" transform="translate(8.875 4.834)" fill="#ffe87b"/><ellipse cx="0.5" rx="0.5" transform="translate(6.875 4.834)" fill="#ffe87b"/><path d="M12.212,8.737a.5.5,0,0,0,.5-.5V2.979A1.988,1.988,0,0,0,10.723.993h-.645V.5a.5.5,0,0,0-.993,0v.5H6.826V.5a.5.5,0,1,0-.993,0v.5H3.6V.5a.5.5,0,1,0-.993,0v.5H1.986A1.988,1.988,0,0,0,0,2.979v7.744a1.988,1.988,0,0,0,1.986,1.986h8.737a1.988,1.988,0,0,0,1.986-1.986.5.5,0,1,0-.993,0,.994.994,0,0,1-.993.993H1.986a.994.994,0,0,1-.993-.993V2.979a.994.994,0,0,1,.993-.993h.621v.5a.5.5,0,0,0,.993,0v-.5H5.833v.5a.5.5,0,0,0,.993,0v-.5H9.085v.5a.5.5,0,0,0,.993,0v-.5h.645a.994.994,0,0,1,.993.993V8.241A.5.5,0,0,0,12.212,8.737Z" transform="translate(0)" fill="#ffe87b"/><circle cx="1" cy="1" r="1" transform="translate(1.875 8.834)" fill="#ffe87b"/><ellipse cx="1" rx="1" transform="translate(1.875 4.834)" fill="#ffe87b"/><ellipse cx="1" rx="1" transform="translate(1.875 6.834)" fill="#ffe87b"/><circle transform="translate(5.875 6.834)" fill="#ffe87b"/><circle transform="translate(5.875 4.834)" fill="#ffe87b"/><ellipse cy="1" ry="1" transform="translate(5.875 8.834)" fill="#ffe87b"/></g></svg>