<svg xmlns="http://www.w3.org/2000/svg" width="1557" height="989.266" viewBox="0 0 1557 989.266"><g transform="translate(0 0.266)"><path d="M1218.525-289.22c31.786-57.2,83.063-110.135,141.889-137.633,58.344-27.275,126.456-42.436,188.622-24.392s113.9,76.625,105.667,138.038c-7.4,55.239-57.387,95.828-107.265,124.868s-105.449,54.2-138.5,100.133c-18.374,25.538-28.2,59.782-13.887,87.576,10.093,19.592,30.217,32.558,50.338,42.989,97.566,50.586,212.751,61.971,323.641,55.784s219.977-28.808,330.17-42.147a2028.74,2028.74,0,0,1,369.3-10.511c52.981,3.293,107.321,9.031,154.356,32.495s85.678,68.483,85.548,119.062c-.134,51.129-37.552,94.03-65.848,137.478-13.142,20.181-25,43.809-19.089,66.882,4.106,16.035,16.186,29,28.355,40.75a616.754,616.754,0,0,0,91.885,73.092" transform="translate(-1200.794 459.089)" fill="none" stroke="#1d1d1b" stroke-miterlimit="10" stroke-width="0.5" stroke-dasharray="5" opacity="0.62"/><g transform="translate(0 152)" fill="none" stroke="#707070" stroke-width="1" opacity="0.34"><circle cx="17.5" cy="17.5" r="17.5" stroke="none"/><circle cx="17.5" cy="17.5" r="17" fill="none"/></g><g transform="translate(1522 954)" fill="none" stroke="#707070" stroke-width="1" opacity="0.34"><circle cx="17.5" cy="17.5" r="17.5" stroke="none"/><circle cx="17.5" cy="17.5" r="17" fill="none"/></g></g></svg>