<svg xmlns="http://www.w3.org/2000/svg" width="16.178" height="15.446" viewBox="0 0 16.178 15.446"><g transform="translate(0 -1.049)"><path d="M7.528,1.4a.626.626,0,0,1,1.123,0L10.666,5.48a.627.627,0,0,0,.472.342l4.5.654a.626.626,0,0,1,.347,1.068L12.73,10.722a.627.627,0,0,0-.18.554l.769,4.487a.627.627,0,0,1-.909.661L8.38,14.305a.626.626,0,0,0-.583,0L3.768,16.423a.626.626,0,0,1-.909-.66l.769-4.487a.626.626,0,0,0-.18-.554L.189,7.545A.626.626,0,0,1,.537,6.477l4.505-.654a.626.626,0,0,0,.472-.343Z" fill="#fed201"/></g></svg>