<svg width="50" height="50" viewBox="0 0 50 50" fill="none" xmlns="http://www.w3.org/2000/svg">
<path fill-rule="evenodd" clip-rule="evenodd" d="M19.537 24.9H6.2963C3.37009 24.9 1 22.5299 1 19.6037V6.36295C1 3.43674 3.37009 1.06665 6.2963 1.06665H19.537C22.4632 1.06665 24.8333 3.43674 24.8333 6.36295V19.6037C24.8333 22.5299 22.4632 24.9 19.537 24.9Z" stroke="#979797" stroke-width="1.73333" stroke-linecap="round" stroke-linejoin="round"/>
<path fill-rule="evenodd" clip-rule="evenodd" d="M42.046 46.0852H34.1016C31.9089 46.0852 30.1293 44.3056 30.1293 42.113V34.1685C30.1293 31.9758 31.9089 30.1963 34.1016 30.1963H42.046C44.2387 30.1963 46.0182 31.9758 46.0182 34.1685V42.113C46.0182 44.3056 44.2387 46.0852 42.046 46.0852Z" stroke="#979797" stroke-width="1.73333" stroke-linecap="round" stroke-linejoin="round"/>
<path fill-rule="evenodd" clip-rule="evenodd" d="M44.6943 22.2518H36.7498C34.5571 22.2518 32.7776 20.4722 32.7776 18.2796V10.3351C32.7776 8.14247 34.5571 6.36292 36.7498 6.36292H44.6943C46.8869 6.36292 48.6665 8.14247 48.6665 10.3351V18.2796C48.6665 20.4722 46.8869 22.2518 44.6943 22.2518Z" stroke="#979797" stroke-width="1.73333" stroke-linecap="round" stroke-linejoin="round"/>
<path fill-rule="evenodd" clip-rule="evenodd" d="M18.2127 48.7334H10.2682C8.07558 48.7334 6.29602 46.9538 6.29602 44.7611V36.8167C6.29602 34.624 8.07558 32.8445 10.2682 32.8445H18.2127C20.4054 32.8445 22.1849 34.624 22.1849 36.8167V44.7611C22.1849 46.9538 20.4054 48.7334 18.2127 48.7334Z" stroke="#979797" stroke-width="1.73333" stroke-linecap="round" stroke-linejoin="round"/>
</svg>
