<svg width="55" height="55" viewBox="0 0 55 55" fill="none" xmlns="http://www.w3.org/2000/svg">
<path fill-rule="evenodd" clip-rule="evenodd" d="M28.9429 28.478L34.3365 27.3975C35.1164 27.2441 35.8338 26.8643 36.3992 26.3055L52.1494 10.5668C54.2609 8.45399 54.2609 5.02982 52.1494 2.91701V2.91701C50.0366 0.805497 46.6124 0.805497 44.4996 2.91701L28.7494 18.6557C28.1863 19.2196 27.8024 19.9371 27.6458 20.7184L26.5769 26.112C26.4511 26.7701 26.6594 27.4479 27.1332 27.9217C27.607 28.3955 28.2848 28.6038 28.9429 28.478Z" stroke="#3F96FE" stroke-width="1.73333" stroke-linecap="round" stroke-linejoin="round"/>
<path d="M20.1222 34.3251C29.1471 43.35 41.5 45.638 47.6967 39.4327C52.9199 34.2096 52.1081 24.6415 46.3447 16.3619" stroke="#3F96FE" stroke-width="1.73333" stroke-linecap="round" stroke-linejoin="round"/>
<path d="M38.8273 8.57934C27.9737 0.230419 14.4017 -0.812473 6.84143 6.74777C-1.62015 15.2094 0.667858 31.2139 11.949 42.495C16.8886 47.5159 22.9944 51.2358 29.7215 53.3226" stroke="#3F96FE" stroke-width="1.73333" stroke-linecap="round" stroke-linejoin="round"/>
</svg>
