<svg width="62" height="61" viewBox="0 0 62 61" fill="none" xmlns="http://www.w3.org/2000/svg">
<path d="M34.4534 8.88445C46.2993 7.01403 54.386 15.1008 52.5156 26.9467C50.6452 38.7926 39.5259 49.9119 27.6801 51.7822C15.8342 53.6527 7.74742 45.5659 9.61784 33.72C11.4883 21.8741 22.6076 10.7548 34.4534 8.88445" stroke="#F35757" stroke-width="1.73333" stroke-linecap="round" stroke-linejoin="round"/>
<path d="M23.0746 31.9365L29.4642 38.3261" stroke="#F35757" stroke-width="1.73333" stroke-linecap="round" stroke-linejoin="round"/>
<path d="M32.6705 22.3408L39.0601 28.7304" stroke="#F35757" stroke-width="1.73333" stroke-linecap="round" stroke-linejoin="round"/>
<path d="M27.8811 27.15L34.2481 33.517" stroke="#F35757" stroke-width="1.73333" stroke-linecap="round" stroke-linejoin="round"/>
<path d="M37.3888 8.9679C36.8921 13.759 37.9556 18.0646 40.6469 20.7536C43.3382 23.4449 47.6415 24.5084 52.4326 24.0116" stroke="#F35757" stroke-width="1.73333" stroke-linecap="round" stroke-linejoin="round"/>
<path d="M9.70142 36.6553C14.4925 36.1586 18.7981 37.222 21.4872 39.9133C24.1785 42.6046 25.2419 46.908 24.7452 51.6991" stroke="#F35757" stroke-width="1.73333" stroke-linecap="round" stroke-linejoin="round"/>
</svg>
