<svg width="63" height="49" viewBox="0 0 63 49" fill="none" xmlns="http://www.w3.org/2000/svg">
<path d="M1.2002 26.0657L8.93698 13.1711C9.82741 11.687 11.1226 10.4876 12.6706 9.71363L14.4457 8.82609C15.7093 8.19429 17.1026 7.86536 18.5154 7.86536H28.0298" stroke="#BB8BCC" stroke-width="1.73333" stroke-linecap="round" stroke-linejoin="round"/>
<path d="M35.2651 29.5239C38.1958 30.4768 41.3563 30.4556 44.2739 29.4632L52.1604 37.3193C52.727 37.8774 53.4886 38.1929 54.2838 38.199H58.8335C60.5067 38.1942 61.8619 36.839 61.8668 35.1658V30.5984C61.8668 29.7899 61.544 29.0148 60.9701 28.4453L53.1007 20.6365C53.6022 19.2234 53.8686 17.7376 53.8894 16.2383C53.9523 12.4686 52.5138 8.82857 49.8909 6.1203C47.2679 3.41203 43.6758 1.85778 39.906 1.80005C32.1071 1.79806 25.7154 7.98832 25.4676 15.7833C25.4367 17.8522 25.8613 19.9026 26.7113 21.7891" stroke="#BB8BCC" stroke-width="1.73333" stroke-linecap="round" stroke-linejoin="round"/>
<path d="M7.2677 47.2992L24.7457 40.9836C27.1852 40.1022 29.2779 38.4621 30.717 36.3041L39.7956 22.6903C41.116 20.7102 40.8551 18.0734 39.1722 16.3905V16.3905C37.2229 14.4412 34.0626 14.4409 32.1129 16.3898L25.468 23.0321H19.4013" stroke="#BB8BCC" stroke-width="1.73333" stroke-linecap="round" stroke-linejoin="round"/>
</svg>
