<svg width="275" height="274" viewBox="0 0 275 274" fill="none" xmlns="http://www.w3.org/2000/svg">
<g opacity="0.4">
<path d="M208.711 66.2893C199.425 57.0035 188.401 49.6375 176.268 44.612C164.136 39.5866 151.132 37 138 37C124.868 37 111.864 39.5866 99.7316 44.6121C87.5991 49.6375 76.5752 57.0035 67.2893 66.2893L76.4545 75.4545C84.5367 67.3722 94.1318 60.961 104.692 56.5869C115.252 52.2128 126.57 49.9615 138 49.9615C149.43 49.9615 160.748 52.2128 171.308 56.5869C181.868 60.961 191.463 67.3722 199.546 75.4545L208.711 66.2893Z" fill="#D9D9D9"/>
<path d="M41.4074 111.118C38.0085 123.803 37.1414 137.033 38.8555 150.053C40.5696 163.072 44.8314 175.627 51.3975 187C57.9636 198.373 66.7054 208.341 77.1239 216.335C87.5423 224.33 99.4334 230.194 112.118 233.593L115.473 221.073C104.432 218.114 94.0824 213.01 85.0143 206.052C75.9462 199.094 68.3375 190.418 62.6224 180.519C56.9074 170.621 53.198 159.693 51.7061 148.361C50.2142 137.029 50.9689 125.513 53.9272 114.473L41.4074 111.118Z" fill="#D9D9D9"/>
<path d="M163.303 233.593C175.988 230.194 187.879 224.33 198.298 216.335C208.716 208.341 217.458 198.373 224.024 187C230.59 175.627 234.852 163.072 236.566 150.053C238.28 137.033 237.413 123.803 234.014 111.118L221.494 114.473C224.452 125.513 225.207 137.029 223.715 148.361C222.223 159.693 218.514 170.621 212.799 180.519C207.084 190.418 199.475 199.094 190.407 206.052C181.339 213.01 170.989 218.114 159.949 221.073L163.303 233.593Z" fill="#D9D9D9"/>
</g>
<g opacity="0.6">
<path d="M196.812 80.301C189.316 72.7895 180.417 66.8311 170.624 62.7659C160.83 58.7007 150.334 56.6084 139.733 56.6084C129.133 56.6084 118.636 58.7007 108.843 62.7659C99.0495 66.8311 90.1509 72.7895 82.6553 80.301L90.0535 87.7149C96.5776 81.177 104.323 75.9908 112.847 72.4526C121.371 68.9143 130.507 67.0931 139.733 67.0931C148.96 67.0931 158.096 68.9143 166.62 72.4525C175.144 75.9908 182.889 81.1769 189.413 87.7148L196.812 80.301Z" fill="#D9D9D9"/>
<path d="M61.7634 116.564C59.0198 126.825 58.3198 137.527 59.7035 148.058C61.0871 158.59 64.5272 168.746 69.8274 177.946C75.1276 187.145 82.1841 195.209 90.5939 201.676C99.0038 208.142 108.602 212.886 118.842 215.635L121.549 205.508C112.637 203.115 104.283 198.986 96.9632 193.358C89.6434 187.729 83.5015 180.711 78.8883 172.703C74.2751 164.696 71.2808 155.857 70.0766 146.69C68.8723 137.523 69.4815 128.208 71.8695 119.277L61.7634 116.564Z" fill="#D9D9D9"/>
<path d="M160.159 215.635C170.398 212.886 179.996 208.142 188.406 201.676C196.816 195.209 203.872 187.145 209.173 177.946C214.473 168.746 217.913 158.59 219.297 148.058C220.68 137.526 219.98 126.825 217.237 116.564L207.131 119.277C209.519 128.208 210.128 137.523 208.923 146.69C207.719 155.857 204.725 164.696 200.112 172.703C195.499 180.711 189.357 187.729 182.037 193.357C174.717 198.986 166.363 203.115 157.451 205.508L160.159 215.635Z" fill="#D9D9D9"/>
</g>
<path d="M183.567 93.5184C177.869 87.8083 171.105 83.2788 163.66 80.1886C156.215 77.0983 148.236 75.5077 140.177 75.5078C132.119 75.5078 124.14 77.0983 116.695 80.1886C109.25 83.2789 102.486 87.8083 96.7878 93.5184L102.412 99.1543C107.371 94.1843 113.259 90.2419 119.739 87.5522C126.219 84.8625 133.164 83.4781 140.177 83.4781C147.191 83.4781 154.136 84.8624 160.616 87.5522C167.096 90.2419 172.984 94.1843 177.943 99.1543L183.567 93.5184Z" fill="#D9D9D9"/>
<path d="M80.9061 121.085C78.8205 128.885 78.2884 137.02 79.3402 145.026C80.392 153.033 83.0071 160.753 87.0363 167.746C91.0654 174.74 96.4296 180.869 102.823 185.785C109.216 190.701 116.512 194.307 124.296 196.397L126.354 188.698C119.58 186.879 113.229 183.741 107.664 179.462C102.1 175.183 97.431 169.848 93.9242 163.761C90.4173 157.674 88.1411 150.955 87.2256 143.986C86.3102 137.018 86.7733 129.937 88.5886 123.148L80.9061 121.085Z" fill="#D9D9D9"/>
<path d="M155.704 196.397C163.488 194.307 170.784 190.701 177.177 185.785C183.57 180.869 188.935 174.739 192.964 167.746C196.993 160.753 199.608 153.033 200.66 145.026C201.712 137.02 201.179 128.885 199.094 121.085L191.411 123.147C193.227 129.937 193.69 137.018 192.774 143.986C191.859 150.954 189.583 157.674 186.076 163.761C182.569 169.848 177.9 175.183 172.336 179.462C166.771 183.741 160.42 186.879 153.646 188.698L155.704 196.397Z" fill="#D9D9D9"/>
</svg>
