<svg id="Component_11_1" data-name="Component 11 – 1" xmlns="http://www.w3.org/2000/svg" width="50" height="50" viewBox="0 0 50 50">
  <circle id="Ellipse_15" data-name="Ellipse 15" cx="25" cy="25" r="25" fill="#fed201"/>
  <g id="credit-card" transform="translate(10 15.377)">
    <path id="Path_37" data-name="Path 37" d="M27.934,88H2.069A2.072,2.072,0,0,0,0,90.069v14.484a2.072,2.072,0,0,0,2.069,2.069H27.934A2.072,2.072,0,0,0,30,104.554V90.069A2.072,2.072,0,0,0,27.934,88Zm1.035,16.554a1.036,1.036,0,0,1-1.035,1.035H2.069a1.036,1.036,0,0,1-1.035-1.035V90.069a1.036,1.036,0,0,1,1.035-1.035H27.934a1.036,1.036,0,0,1,1.035,1.035Z" transform="translate(0 -88)"/>
    <path id="Path_38" data-name="Path 38" d="M54.208,146.069A2.072,2.072,0,0,0,52.138,144H50.069A2.072,2.072,0,0,0,48,146.069V147.1a2.072,2.072,0,0,0,2.069,2.069h2.069a2.072,2.072,0,0,0,2.069-2.069ZM53.173,147.1a1.036,1.036,0,0,1-1.035,1.035H50.069a1.036,1.036,0,0,1-1.035-1.035v-1.035a1.036,1.036,0,0,1,1.035-1.035h2.069a1.036,1.036,0,0,1,1.035,1.035Z" transform="translate(-44.896 -140.379)"/>
    <path id="Path_39" data-name="Path 39" d="M74.587,176H72.517a.517.517,0,0,0,0,1.035h2.069a.517.517,0,1,0,0-1.035Z" transform="translate(-67.344 -170.31)"/>
    <path id="Path_40" data-name="Path 40" d="M141.173,272h-4.656a.517.517,0,0,0-.517.517v1.552a.517.517,0,0,0,.517.517h4.656a.517.517,0,0,0,.517-.517v-1.552A.517.517,0,0,0,141.173,272Zm-.517,1.552h-3.621v-.517h3.621Z" transform="translate(-127.206 -260.102)"/>
    <path id="Path_41" data-name="Path 41" d="M245.173,272h-4.656a.517.517,0,0,0-.517.517v1.552a.517.517,0,0,0,.517.517h4.656a.517.517,0,0,0,.517-.517v-1.552A.517.517,0,0,0,245.173,272Zm-.517,1.552h-3.621v-.517h3.621Z" transform="translate(-224.481 -260.102)"/>
    <path id="Path_42" data-name="Path 42" d="M341.173,272h-4.656a.517.517,0,0,0-.517.517v1.552a.517.517,0,0,0,.517.517h4.656a.517.517,0,0,0,.517-.517v-1.552A.517.517,0,0,0,341.173,272Zm-.517,1.552h-3.621v-.517h3.621Z" transform="translate(-314.273 -260.102)"/>
    <path id="Path_43" data-name="Path 43" d="M45.173,272H40.517a.517.517,0,0,0-.517.517v1.552a.517.517,0,0,0,.517.517h4.656a.517.517,0,0,0,.517-.517v-1.552A.517.517,0,0,0,45.173,272Zm-.517,1.552H41.035v-.517h3.621Z" transform="translate(-37.413 -260.102)"/>
    <path id="Path_44" data-name="Path 44" d="M282.587,148.138a1.552,1.552,0,1,1,1.219-2.51,2.593,2.593,0,1,0,.591-.887,2.586,2.586,0,1,0-1.811,4.431.517.517,0,0,0,0-1.035Zm3.621-3.1a1.552,1.552,0,1,1-1.219,2.511,2.581,2.581,0,0,0,0-1.917A1.55,1.55,0,0,1,286.208,145.035Z" transform="translate(-261.894 -140.379)"/>
  </g>
</svg>
