<svg id="Слой_1" data-name="Слой 1" xmlns="http://www.w3.org/2000/svg" viewBox="0 0 442.49 443.14"><defs><style>.cls-1{fill:#fff;}</style></defs><title>new-logo</title><path class="cls-1" d="M459.4,390.72H667.64c6.4,0,6.41,0,6.41,6.57q0,100.95.11,201.9c0,5.09-1.36,6.38-6.41,6.37q-100.95-.26-201.9-.12c-6.44,0-6.45,0-6.45-6.64V390.72Zm201.09,13.83c-2.49-.12-4.13-.26-5.77-.26q-88,0-176-.11c-4.66,0-5.82,1.38-5.81,5.91q.21,87.74,0,175.47c0,5.05,1.28,6.4,6.38,6.38q87.49-.29,175,0c5.21,0,6.34-1.5,6.32-6.44q-.24-87.5-.1-175Z" transform="translate(-459.29 -162.43)"/><path class="cls-1" d="M459.7,162.83H674.05V169q0,101.19.1,202.38c0,4.71-1.1,6.2-6,6.19q-101.45-.24-202.88,0c-3.87,0-6-.29-6-5.21q.24-102.19.12-204.38C459.41,166.41,459.57,164.94,459.7,162.83ZM660.23,363.62c.1-2,.25-3.49.25-5q0-88.7.11-177.4c0-4.78-1.85-5.34-5.88-5.33q-87.94.15-175.9,0c-4.61,0-5.88,1.27-5.87,5.86q.21,88.2.11,176.41c0,1.75.2,3.51.32,5.45Z" transform="translate(-459.29 -162.43)"/><path class="cls-1" d="M687.3,377.07v-5.55q0-101.44-.11-202.9c0-4.69,1-6.2,6-6.19q101.45.24,202.9.11h5.71V377.07Zm13.48-13.58H888.35c.09-2,.23-3.6.23-5.23q0-88.22.09-176.43c0-4.49-1.07-6-5.8-5.94q-88,.24-175.93,0c-5.29,0-6.27,1.71-6.26,6.55q.24,87.47.1,174.93Z" transform="translate(-459.29 -162.43)"/><path class="cls-1" d="M646.82,578.33H488.42l158.4-158Z" transform="translate(-459.29 -162.43)"/><path class="cls-1" d="M647,348.72,487.87,189.82H647Z" transform="translate(-459.29 -162.43)"/><path class="cls-1" d="M714.63,347V189.64H873.34Z" transform="translate(-459.29 -162.43)"/><path class="cls-1" d="M873.55,579.26,714.42,420.36H873.55Z" transform="translate(-459.29 -162.43)"/></svg>