<svg width="86" height="185" viewBox="0 0 86 185" fill="none" xmlns="http://www.w3.org/2000/svg">
<path d="M35.9797 69.5654C22.4938 76.6295 18.3196 84.0146 14.7876 90.1153C6.76028 103.601 4.51264 123.188 13.5032 132.178C19.2829 138.279 28.5945 138.279 34.6953 132.178C40.475 126.399 40.1539 117.087 34.3742 111.307C31.1633 108.418 27.6313 107.454 24.0993 106.812C18.9618 105.849 14.4665 87.2255 37.5851 71.492L35.9797 69.5654Z" fill="#4398EA"/>
<path d="M72.9289 69.5654C59.443 76.6295 55.2688 84.0146 51.7368 90.1153C43.7095 103.601 41.4619 123.188 50.4524 132.178C56.2321 138.279 65.5438 138.279 71.6445 132.178C77.4242 126.399 77.1031 117.087 71.3234 111.307C68.1125 108.418 64.5805 107.454 61.0485 106.812C55.911 105.849 51.4157 87.2255 74.5343 71.492L72.9289 69.5654Z" fill="#4398EA"/>
</svg>
