<svg width="216" height="46" viewBox="0 0 216 46" fill="none" xmlns="http://www.w3.org/2000/svg">
<path fill-rule="evenodd" clip-rule="evenodd" d="M209.353 45.1591H210.973H211.085V42.8176L212.649 45.1591H214.659H214.771L212.537 42.2043L214.715 39.4167H212.816H212.704L211.085 41.7025V39.4167H209.465H209.353V45.1591Z" fill="#75A854"/>
<path fill-rule="evenodd" clip-rule="evenodd" d="M200.528 45.1591H202.147H202.259V39.4167H200.639H200.528V45.1591Z" fill="#75A854"/>
<path fill-rule="evenodd" clip-rule="evenodd" d="M190.92 45.1591H192.54H192.596V40.8105H193.88V39.4167H189.747H189.635V40.8105H190.92V45.1591Z" fill="#75A854"/>
<path fill-rule="evenodd" clip-rule="evenodd" d="M182.988 39.807C182.597 39.5282 182.262 39.361 181.927 39.361C181.592 39.3052 181.369 39.2495 181.201 39.2495H181.145C180.475 39.2495 179.972 39.4167 179.637 39.7512C179.302 40.0857 179.134 40.476 179.134 40.9778C179.134 41.4238 179.246 41.814 179.469 42.0371C179.693 42.2601 179.916 42.4273 180.14 42.5388C180.251 42.5946 180.363 42.5946 180.419 42.6503C180.531 42.7061 180.642 42.7061 180.698 42.7061H180.754C180.81 42.7061 180.81 42.7061 180.81 42.7061C181.033 42.7618 181.201 42.8176 181.369 42.9291C181.536 43.0406 181.592 43.1521 181.592 43.3751C181.592 43.4309 181.592 43.4309 181.592 43.4866C181.592 43.5424 181.592 43.5424 181.536 43.5981C181.48 43.6539 181.48 43.7096 181.369 43.7654C181.257 43.8211 181.201 43.8769 181.033 43.8769C180.978 43.8769 180.978 43.8769 180.978 43.8769C180.922 43.8769 180.922 43.8769 180.922 43.8769C180.698 43.8211 180.531 43.7654 180.363 43.6539C180.14 43.5424 179.972 43.4309 179.86 43.2636C179.805 43.2078 179.805 43.2078 179.805 43.2078C179.749 43.1521 179.749 43.1521 179.749 43.1521H179.637L178.855 44.3786C179.134 44.6016 179.358 44.7689 179.525 44.8804C179.749 44.9919 179.972 45.1034 180.14 45.1592C180.307 45.2149 180.419 45.2149 180.531 45.2707C180.698 45.3264 180.81 45.3264 180.978 45.3264H181.033C181.592 45.3264 182.095 45.1592 182.542 44.8804C182.988 44.6016 183.212 44.0999 183.212 43.4309C183.212 42.9291 183.1 42.5388 182.877 42.3158C182.653 42.0371 182.43 41.8698 182.151 41.7583C181.983 41.7025 181.871 41.6468 181.76 41.591C181.648 41.5353 181.536 41.5353 181.424 41.4795C181.369 41.4795 181.313 41.4795 181.313 41.4238C181.257 41.4238 181.201 41.4238 181.145 41.368C181.033 41.3123 180.922 41.2565 180.866 41.2008C180.81 41.0893 180.754 41.0335 180.754 40.922C180.754 40.8663 180.754 40.8663 180.754 40.8105C180.754 40.7548 180.754 40.7548 180.81 40.699C180.866 40.6433 180.922 40.5317 180.978 40.5317C181.089 40.476 181.145 40.4202 181.313 40.4202C181.48 40.4202 181.592 40.476 181.76 40.5317C181.927 40.5875 182.039 40.699 182.151 40.8105C182.206 40.8105 182.206 40.8663 182.206 40.8663C182.262 40.922 182.262 40.922 182.318 40.922H182.374L182.988 39.807Z" fill="#75A854"/>
<path fill-rule="evenodd" clip-rule="evenodd" d="M170.476 45.1591H172.096H172.208V39.4167H170.588H170.476V45.1591Z" fill="#75A854"/>
<path fill-rule="evenodd" clip-rule="evenodd" d="M159.026 45.1591H160.645H160.757V43.3751L161.874 45.1591H163.829H163.885L162.265 42.8733C162.265 42.8733 162.265 42.8733 162.321 42.8733C162.321 42.8733 162.321 42.8733 162.377 42.8733C162.656 42.7618 162.936 42.5946 163.159 42.3158C163.382 42.037 163.494 41.6468 163.494 41.145C163.494 40.699 163.382 40.3087 163.159 40.0857C162.936 39.8627 162.712 39.6954 162.489 39.5839C162.265 39.4724 162.042 39.4724 161.874 39.4167C161.707 39.4167 161.539 39.4167 161.483 39.4167H159.081H158.97V45.1591H159.026ZM160.701 42.037V40.699H161.036C161.316 40.699 161.483 40.7547 161.595 40.8662C161.707 40.9777 161.763 41.145 161.763 41.2565V41.3123C161.763 41.3123 161.763 41.3123 161.763 41.368C161.763 41.368 161.763 41.368 161.763 41.4238V41.4795C161.763 41.6468 161.707 41.7583 161.595 41.8698C161.483 41.9813 161.316 42.037 161.036 42.037H160.701Z" fill="#75A854"/>
<path fill-rule="evenodd" clip-rule="evenodd" d="M146.849 39.4167H146.793V42.8176C146.793 43.7096 147.016 44.3229 147.519 44.7131C147.966 45.1034 148.58 45.3264 149.362 45.3264H149.418C150.2 45.3264 150.759 45.1034 151.262 44.7131C151.708 44.3229 151.988 43.6538 151.988 42.8176V39.4167H150.368H150.256V42.8176C150.256 42.8733 150.256 42.9848 150.256 43.0406C150.256 43.1521 150.256 43.2078 150.2 43.3193C150.144 43.4866 150.089 43.5981 149.921 43.7653C149.809 43.9326 149.586 43.9884 149.362 43.9884C149.083 43.9884 148.916 43.9326 148.804 43.7653C148.692 43.6538 148.58 43.4866 148.525 43.3193C148.469 43.2078 148.469 43.0963 148.469 43.0406C148.469 42.9291 148.469 42.8733 148.469 42.8176V39.4167H146.849Z" fill="#75A854"/>
<path fill-rule="evenodd" clip-rule="evenodd" d="M136.795 45.3264H136.85C137.912 45.3264 138.638 44.9919 139.141 44.4344C139.643 43.8211 139.923 43.0963 139.923 42.3158C139.923 41.5353 139.643 40.8105 139.141 40.1972C138.638 39.584 137.856 39.2495 136.85 39.2495H136.795C135.789 39.2495 135.007 39.584 134.449 40.1972C133.946 40.8105 133.667 41.5353 133.667 42.3158C133.667 43.1521 133.946 43.8211 134.449 44.4344C135.007 45.0477 135.789 45.3264 136.795 45.3264ZM136.795 43.9884C136.739 43.9884 136.683 43.9884 136.627 43.9884C136.571 43.9884 136.515 43.9326 136.459 43.9326C136.18 43.8211 135.957 43.7096 135.733 43.4309C135.51 43.1521 135.398 42.8176 135.398 42.3158C135.398 41.814 135.51 41.4795 135.733 41.2008C135.957 40.922 136.18 40.7548 136.459 40.699C136.515 40.699 136.571 40.6433 136.627 40.6433C136.683 40.6433 136.739 40.6433 136.795 40.6433C136.85 40.6433 136.906 40.6433 136.962 40.6433C137.018 40.6433 137.074 40.699 137.13 40.699C137.409 40.8105 137.632 40.922 137.856 41.2008C138.079 41.4795 138.191 41.814 138.191 42.3158C138.191 42.8176 138.079 43.2078 137.856 43.4309C137.632 43.7096 137.409 43.8211 137.13 43.9326C137.074 43.9326 137.018 43.9884 136.962 43.9884C136.906 43.9884 136.85 43.9884 136.795 43.9884Z" fill="#75A854"/>
<path fill-rule="evenodd" clip-rule="evenodd" d="M124.282 45.1591H125.902H126.014V40.8105H127.299V39.4167H123.109H123.053V40.8105H124.282V45.1591Z" fill="#75A854"/>
<path fill-rule="evenodd" clip-rule="evenodd" d="M81.775 26.538C81.0489 28.3778 81.0489 30.4406 81.775 32.2804C81.1606 31.9459 80.3227 31.5556 79.5966 31.7787C77.865 32.3919 77.7533 33.507 77.7533 34.9565H0V26.538H81.775Z" fill="#75A854"/>
<path fill-rule="evenodd" clip-rule="evenodd" d="M98.5322 14.384C97.5826 14.384 96.3538 14.1053 95.8511 13.5477C96.6889 13.8265 97.5826 14.3283 98.5322 14.384ZM83.73 18.7327C83.3949 19.123 82.7805 19.123 82.166 19.2345C82.7805 19.123 83.1715 18.3424 83.73 18.7327ZM102.33 0.501768C101.995 0.501768 102.219 0 101.828 0C101.213 0.223008 100.375 0.223008 100.096 1.22655C99.9845 0.613273 99.3701 0.390264 99.0908 0.27876C98.9791 0.780529 99.5935 1.22655 99.3142 1.89557C97.8619 2.00707 97.0241 3.12212 96.5213 4.1814L96.4096 4.0699C96.1862 5.29645 94.9573 6.13273 94.9573 7.47078C95.2366 7.97254 95.6835 7.08051 96.1862 7.35927C95.5718 7.69378 95.2366 8.08405 94.9573 8.58582C94.7339 9.19909 94.7339 9.70086 94.9573 10.2026C95.5718 9.97962 96.1862 9.19909 96.6889 8.97608C96.4655 10.0354 95.8511 10.5371 95.2366 11.3734L95.1249 12.9345C94.5105 12.5442 93.7843 11.9309 93.2816 11.2062C92.5555 10.8159 92.2762 9.86811 91.6618 9.03183C88.8689 5.63096 84.7355 8.19555 81.5516 7.91679C77.5299 7.19202 73.7316 5.85397 70.827 2.7876C70.827 3.79114 71.1063 4.62742 71.6649 5.68671C72.0559 7.13626 73.2289 8.2513 74.4577 9.08758C73.5082 9.31059 72.8937 8.58582 72.1676 8.2513V8.47431C72.6703 9.81236 73.3964 10.9274 74.4577 11.9867C75.4073 13.2132 77.0272 12.823 78.0884 13.5477C77.6974 14.0495 76.8596 13.8823 76.1334 13.8823C76.8596 15.3318 78.3119 16.4469 79.7642 16.4469C80.1552 16.5584 80.7137 16.0566 80.7696 16.6699C80.6579 17.3946 79.7642 17.2831 79.2056 17.2831C79.7083 18.2867 80.7696 19.2345 81.6633 19.9592C84.121 20.0707 85.9085 22.9698 88.3662 21.4088C89.4833 22.5238 90.7122 20.907 91.9969 21.0185C91.9969 21.2415 91.6618 21.4088 91.6618 21.5203C90.0978 22.0221 88.5896 22.7468 88.1428 24.4194C88.1428 25.7575 86.8022 24.9212 86.1878 25.1442C84.6237 25.2557 83.8976 26.8167 83.3949 28.2105C82.6687 30.6636 84.8472 32.838 82.8922 34.5663C82.2777 34.9008 81.6633 34.5663 81.1606 34.176C81.2723 34.9008 81.4399 35.4026 81.9985 35.7371C82.6129 35.9601 83.5625 35.6256 83.8418 35.2353C83.8418 35.6256 83.5066 35.8486 83.339 36.2388C82.2219 36.7406 81.2723 35.7371 80.4345 35.291C80.4345 36.2388 81.0489 36.5176 81.384 37.1309C81.775 37.6326 80.7696 37.4654 80.7696 37.6326C82.3336 39.1937 84.4003 40.6432 86.5229 40.03C87.4725 39.807 88.0869 38.6919 88.5896 37.8556C88.813 35.7928 88.813 33.507 87.64 31.7787C86.8022 30.7751 86.8022 29.3256 86.5229 28.1548C86.858 27.5415 87.3607 26.8167 88.0869 26.7052C88.3662 27.7088 88.813 28.6566 89.5392 29.3813C90.0419 30.9424 91.9969 31.5557 91.8293 33.1725C91.1032 34.845 89.5392 36.2388 89.7626 38.0229C90.9915 39.4725 92.0528 41.3123 92.3321 43.3751C93.2816 43.3751 92.9465 44.6016 93.2816 45.0477C94.1195 45.3822 95.0132 45.0477 95.7393 45.0477C95.3483 43.3751 94.0078 42.7061 93.2816 41.3123C93.1699 40.9778 93.0023 40.3645 93.2816 40.1972C93.896 40.5317 94.7339 41.0335 94.7339 41.9255C95.5718 41.814 95.3483 43.0406 95.5718 43.5981C95.9628 43.9884 96.5213 44.8247 97.1358 44.5459C97.3592 44.2114 97.2475 44.1556 97.2475 43.9326C97.7502 42.2601 96.2979 41.6468 96.1303 40.5317C95.1249 39.5282 93.8402 39.3052 93.0582 37.9672C92.5555 37.3539 93.3375 37.0194 93.8961 36.4061C96.1862 34.6778 96.9123 31.5557 96.9123 28.8796C98.1412 26.8167 100.934 26.4265 102.554 24.3636C103.783 23.2486 104.509 21.6876 105.347 20.461L105.682 20.7955C107.246 20.907 108.475 18.9557 109.704 18.0079C109.927 18.3424 110.206 18.6212 110.542 19.123C110.877 19.6247 110.43 20.461 110.877 20.8513C111.156 21.353 110.653 21.7991 110.542 22.1893C110.933 23.0256 111.491 24.0291 112.273 24.3636C112.608 23.2486 112.385 22.1893 112.497 21.0743V20.7398C112.72 19.1787 111.044 18.3424 111.156 16.8371C112.385 15.6106 113.949 16.9486 115.178 17.2274C115.513 17.4504 115.401 17.9522 115.401 18.2309C116.518 18.2309 117.468 17.7292 118.306 16.7814C117.971 16.5584 117.58 16.3911 117.3 16.1681C115.736 14.83 113.781 16.0566 112.161 14.83C111.324 14.607 110.486 14.607 109.815 14.607C109.089 15.3318 108.475 15.9451 107.86 16.7814H107.469C107.469 15.7778 107.581 15.1088 107.693 14.2168C107.358 12.8787 106.576 12.8787 105.626 11.9309C105.347 9.86811 102.945 9.36635 103.28 7.08051C103.503 6.07697 104.732 6.96901 105.57 6.35573C106.687 5.96547 107.637 8.0283 108.587 6.35573C108.698 6.24423 108.363 5.96547 108.363 5.63096L108.978 5.40795C109.704 2.34159 105.905 3.45663 104.453 2.00707C104.174 0.836281 102.945 1.11504 102.33 0.501768ZM73.5082 14.1053H0V5.74246H69.5981C70.4919 8.75307 71.7766 11.6522 73.5082 14.1053ZM82.557 23.3601C79.5966 21.4088 76.9713 19.0115 74.8487 16.1681H0V24.5867H82.2777L82.557 23.3601ZM89.6509 45.2149H0V36.9636H77.7533C78.0884 38.5804 79.2056 39.9742 80.4345 40.8663C82.6129 42.5946 84.2327 42.8176 88.8689 43.5424L89.6509 45.2149Z" fill="#3D669B"/>
<path fill-rule="evenodd" clip-rule="evenodd" d="M123.053 35.6256H130.371V26.3708H131.879C138.302 26.3708 139.866 20.2938 139.866 16.0009C139.866 11.7637 138.358 5.68674 131.879 5.68674H123.053V35.6256ZM130.371 13.4363H131.153C131.823 13.4363 132.884 13.6035 132.884 15.9451C132.884 18.2867 131.879 18.5097 131.153 18.5097H130.371V13.4363ZM143.05 35.6256H155.842V26.9283H150.368V24.0849H155.339V16.8929H150.368V14.3841H155.842V5.68674H143.05V35.6256ZM168.521 17.6734V24.5309H172.375C172.431 26.538 171.147 28.1548 169.415 28.1548C166.901 28.1548 165.449 24.8654 165.449 20.8513C165.449 17.2274 166.51 13.492 169.471 13.492C170.7 13.492 171.817 14.2168 172.264 15.6106L178.52 13.6593C177.458 8.7531 174.33 4.73895 169.192 4.73895C161.483 4.73895 158.467 12.823 158.467 20.8513C158.467 29.9389 162.489 36.5176 169.247 36.5176C175.839 36.5176 179.302 30.1061 179.302 21.2416V17.6177H168.521V17.6734ZM180.195 35.6256H187.68L188.406 31.2769H192.987L193.713 35.6256H201.198L194.718 5.63099H186.675L180.195 35.6256ZM189.468 23.8062L190.752 16.1681L191.981 23.8062H189.468ZM214.492 5.9655V13.492C213.319 13.046 211.476 12.5442 210.191 12.5442C209.465 12.5442 208.124 12.6557 208.124 14.3283C208.124 16.1124 209.52 16.1124 211.587 17.1717C214.045 18.454 216 20.684 216 25.7575C216 31.3327 213.542 36.5734 207.789 36.5734C205.722 36.5734 203.32 35.9044 201.477 34.7893V26.538C202.873 27.3743 205.331 28.4893 206.951 28.4893C208.627 28.4893 209.018 27.4858 209.018 26.538C209.018 24.9212 207.733 24.4194 206.56 23.8619C204.884 23.1371 201.142 21.7433 201.142 15.2203C201.142 8.6416 204.27 4.73895 208.794 4.73895C210.805 4.73895 212.928 5.18497 214.492 5.9655Z" fill="#3D669B"/>
</svg>
