<svg width="201" height="156" viewBox="0 0 201 156" fill="none" xmlns="http://www.w3.org/2000/svg">
<path d="M196.627 153.705V154.11H197.001C197.083 154.11 197.154 154.09 197.205 154.059C197.252 154.028 197.28 153.973 197.28 153.906C197.28 153.839 197.252 153.788 197.205 153.756C197.154 153.721 197.083 153.705 197.001 153.705H196.627ZM197.005 153.422C197.197 153.422 197.347 153.466 197.453 153.552C197.559 153.639 197.61 153.756 197.61 153.906C197.61 154.032 197.571 154.134 197.484 154.216C197.402 154.295 197.284 154.346 197.126 154.366L197.622 154.935H197.237L196.777 154.369H196.627V154.935H196.305V153.422H197.005ZM196.906 155.458C197.083 155.458 197.248 155.423 197.398 155.356C197.551 155.289 197.685 155.199 197.798 155.085C197.912 154.971 198.003 154.837 198.07 154.68C198.132 154.527 198.168 154.362 198.168 154.185C198.168 154.008 198.132 153.843 198.07 153.69C198.003 153.536 197.912 153.399 197.798 153.285C197.685 153.171 197.551 153.081 197.398 153.014C197.248 152.951 197.083 152.919 196.906 152.919C196.73 152.919 196.561 152.951 196.407 153.014C196.25 153.081 196.113 153.171 195.999 153.285C195.885 153.399 195.794 153.536 195.731 153.69C195.665 153.843 195.633 154.008 195.633 154.185C195.633 154.362 195.665 154.527 195.731 154.68C195.794 154.837 195.885 154.971 195.999 155.085C196.113 155.199 196.25 155.289 196.407 155.356C196.561 155.423 196.73 155.458 196.906 155.458ZM196.906 152.554C197.138 152.554 197.35 152.597 197.555 152.684C197.755 152.766 197.928 152.884 198.081 153.033C198.231 153.179 198.349 153.352 198.435 153.552C198.522 153.749 198.565 153.961 198.565 154.185C198.565 154.409 198.522 154.621 198.435 154.817C198.349 155.014 198.231 155.187 198.081 155.336C197.928 155.482 197.755 155.599 197.555 155.686C197.35 155.772 197.138 155.816 196.906 155.816C196.671 155.816 196.455 155.772 196.25 155.686C196.046 155.599 195.869 155.482 195.72 155.336C195.57 155.187 195.452 155.014 195.366 154.817C195.28 154.621 195.236 154.409 195.236 154.185C195.236 153.961 195.28 153.749 195.366 153.552C195.452 153.352 195.57 153.179 195.72 153.033C195.869 152.884 196.046 152.766 196.25 152.684C196.455 152.597 196.671 152.554 196.906 152.554ZM43.8043 146.726C43.8043 143.842 45.6945 141.472 48.7832 141.472C51.7343 141.472 53.7266 143.74 53.7266 146.726C53.7266 149.713 51.7343 151.98 48.7832 151.98C45.6945 151.98 43.8043 149.611 43.8043 146.726ZM57.0904 146.726V138.521H53.5223V140.514C52.3906 139.036 50.6733 138.109 48.3391 138.109C43.7375 138.109 40.1301 141.716 40.1301 146.726C40.1301 151.741 43.7375 155.344 48.3391 155.344C50.6733 155.344 52.3906 154.417 53.5223 152.939V154.931H57.0904V146.726ZM177.667 146.726C177.667 143.842 179.557 141.472 182.646 141.472C185.601 141.472 187.589 143.74 187.589 146.726C187.589 149.713 185.601 151.98 182.646 151.98C179.557 151.98 177.667 149.611 177.667 146.726ZM190.957 146.726V131.931H187.385V140.514C186.253 139.036 184.536 138.109 182.202 138.109C177.6 138.109 173.993 141.716 173.993 146.726C173.993 151.741 177.6 155.344 182.202 155.344C184.536 155.344 186.253 154.417 187.385 152.939V154.931H190.957V146.726ZM101.381 141.303C103.68 141.303 105.158 142.746 105.535 145.284H97.0193C97.4005 142.915 98.8387 141.303 101.381 141.303ZM101.452 138.109C96.6421 138.109 93.2783 141.61 93.2783 146.726C93.2783 151.945 96.7796 155.344 101.692 155.344C104.163 155.344 106.427 154.727 108.419 153.045L106.67 150.401C105.295 151.497 103.542 152.118 101.896 152.118C99.5971 152.118 97.5026 151.053 96.9879 148.098H109.174C109.209 147.654 109.244 147.206 109.244 146.726C109.209 141.61 106.05 138.109 101.452 138.109ZM144.536 146.726C144.536 143.842 146.426 141.472 149.515 141.472C152.466 141.472 154.459 143.74 154.459 146.726C154.459 149.713 152.466 151.98 149.515 151.98C146.426 151.98 144.536 149.611 144.536 146.726ZM157.822 146.726V138.521H154.254V140.514C153.119 139.036 151.405 138.109 149.071 138.109C144.47 138.109 140.862 141.716 140.862 146.726C140.862 151.741 144.47 155.344 149.071 155.344C151.405 155.344 153.119 154.417 154.254 152.939V154.931H157.822V146.726ZM124.385 146.726C124.385 151.705 127.851 155.344 133.14 155.344C135.612 155.344 137.259 154.794 139.043 153.387L137.329 150.503C135.989 151.465 134.583 151.98 133.034 151.98C130.185 151.945 128.091 149.886 128.091 146.726C128.091 143.567 130.185 141.508 133.034 141.472C134.583 141.472 135.989 141.987 137.329 142.95L139.043 140.066C137.259 138.659 135.612 138.109 133.14 138.109C127.851 138.109 124.385 141.748 124.385 146.726ZM170.389 138.109C168.33 138.109 166.99 139.071 166.063 140.514V138.521H162.526V154.931H166.098V145.732C166.098 143.017 167.265 141.508 169.599 141.508C170.323 141.508 171.077 141.61 171.831 141.92L172.932 138.557C172.142 138.246 171.112 138.109 170.389 138.109ZM74.7383 139.826C73.0211 138.694 70.6554 138.109 68.0462 138.109C63.8886 138.109 61.2126 140.101 61.2126 143.363C61.2126 146.039 63.2049 147.689 66.8751 148.204L68.561 148.444C70.5179 148.719 71.4414 149.233 71.4414 150.161C71.4414 151.43 70.1367 152.153 67.7004 152.153C65.2286 152.153 63.4446 151.363 62.2421 150.436L60.5602 153.214C62.5172 154.656 64.9889 155.344 67.665 155.344C72.4041 155.344 75.1509 153.112 75.1509 149.988C75.1509 147.104 72.9896 145.595 69.4176 145.08L67.7357 144.836C66.1914 144.632 64.9536 144.325 64.9536 143.225C64.9536 142.023 66.1207 141.303 68.0776 141.303C70.1721 141.303 72.1998 142.093 73.194 142.71L74.7383 139.826ZM120.778 138.109C118.719 138.109 117.379 139.071 116.455 140.514V138.521H112.919V154.931H116.487V145.732C116.487 143.017 117.654 141.508 119.988 141.508C120.711 141.508 121.466 141.61 122.22 141.92L123.32 138.557C122.53 138.246 121.501 138.109 120.778 138.109ZM90.3271 138.521H84.4917V133.542H80.8843V138.521H77.5559V141.783H80.8843V149.269C80.8843 153.077 82.3618 155.344 86.5822 155.344C88.1305 155.344 89.9145 154.865 91.0463 154.075L90.0167 151.018C88.9518 151.634 87.7847 151.945 86.8573 151.945C85.0732 151.945 84.4917 150.845 84.4917 149.198V141.783H90.3271V138.521ZM36.9746 154.931V144.632C36.9746 140.753 34.5029 138.144 30.5183 138.109C28.4238 138.073 26.2625 138.726 24.7496 141.028C23.6178 139.209 21.8338 138.109 19.3267 138.109C17.5741 138.109 15.8608 138.623 14.5208 140.545V138.521H10.9487V154.931H14.5522V145.834C14.5522 142.985 16.1319 141.472 18.5722 141.472C20.9418 141.472 22.1403 143.017 22.1403 145.799V154.931H25.7477V145.834C25.7477 142.985 27.3942 141.472 29.7638 141.472C32.2001 141.472 33.3672 143.017 33.3672 145.799V154.931H36.9746Z" fill="#231F20"/>
<path d="M198.828 100.357V97.9597H198.203L197.48 99.6062L196.761 97.9597H196.132V100.357H196.576V98.5491L197.252 100.109H197.712L198.388 98.5452V100.357H198.828ZM194.863 100.357V98.3683H195.664V97.9636H193.621V98.3683H194.423V100.357H194.863Z" fill="#F79410"/>
<path d="M127.78 110.668H73.7021V13.4806H127.78V110.668Z" fill="#FF5F00"/>
<path d="M77.1666 62.0666C77.1666 42.3517 86.3973 24.7902 100.772 13.4728C90.2601 5.19705 76.9937 0.257511 62.5759 0.257511C28.4431 0.257511 0.774658 27.9299 0.774658 62.0666C0.774658 96.2032 28.4431 123.876 62.5759 123.876C76.9937 123.876 90.2601 118.936 100.772 110.66C86.3973 99.343 77.1666 81.7815 77.1666 62.0666Z" fill="#EB001B"/>
<path d="M200.714 62.0666C200.714 96.2032 173.046 123.876 138.913 123.876C124.495 123.876 111.229 118.936 100.713 110.66C115.092 99.343 124.322 81.7815 124.322 62.0666C124.322 42.3517 115.092 24.7902 100.713 13.4728C111.229 5.19705 124.495 0.257511 138.913 0.257511C173.046 0.257511 200.714 27.9299 200.714 62.0666Z" fill="#F79E1B"/>
</svg>
