<svg width="24" height="24" viewBox="0 0 24 24" fill="none" xmlns="http://www.w3.org/2000/svg">
<path fill-rule="evenodd" clip-rule="evenodd" d="M12 4C13.6569 4 15 5.34315 15 7H9.00005C9.00005 5.34315 10.3432 4 12 4ZM7.00005 7C7.00005 4.23858 9.23862 2 12 2C14.7615 2 17 4.23858 17 7H20L21.3962 17.4713C21.716 19.8693 19.8505 22 17.4313 22H6.56878C4.14962 22 2.28414 19.8693 2.60387 17.4713L4.00005 7H7.00005ZM17 9H15H9.00005H7.00005H5.75108L4.58632 17.7357C4.42646 18.9346 5.3592 20 6.56878 20H17.4313C18.6409 20 19.5736 18.9346 19.4138 17.7357L18.249 9H17Z" fill="#282630"/>
</svg>
