<svg width="74" height="36" viewBox="0 0 74 36" fill="none" xmlns="http://www.w3.org/2000/svg">
<path d="M24.344 11.96C23.736 10.84 22.856 9.992 21.704 9.416C20.584 8.808 19.256 8.504 17.72 8.504C15.064 8.504 12.936 9.384 11.336 11.144C9.736 12.872 8.936 15.192 8.936 18.104C8.936 21.208 9.768 23.64 11.432 25.4C13.128 27.128 15.448 27.992 18.392 27.992C20.408 27.992 22.104 27.48 23.48 26.456C24.888 25.432 25.912 23.96 26.552 22.04H16.136V15.992H33.992V23.624C33.384 25.672 32.344 27.576 30.872 29.336C29.432 31.096 27.592 32.52 25.352 33.608C23.112 34.696 20.584 35.24 17.768 35.24C14.44 35.24 11.464 34.52 8.84 33.08C6.248 31.608 4.216 29.576 2.744 26.984C1.304 24.392 0.584 21.432 0.584 18.104C0.584 14.776 1.304 11.816 2.744 9.224C4.216 6.6 6.248 4.568 8.84 3.128C11.432 1.656 14.392 0.919998 17.72 0.919998C21.752 0.919998 25.144 1.896 27.896 3.848C30.68 5.8 32.52 8.504 33.416 11.96H24.344ZM60.4745 1.304V7.88H46.7465V14.984H57.0185V21.368H46.7465V35H38.5385V1.304H60.4745ZM68.6285 35.384C67.1885 35.384 66.0045 34.968 65.0765 34.136C64.1805 33.272 63.7325 32.216 63.7325 30.968C63.7325 29.688 64.1805 28.616 65.0765 27.752C66.0045 26.888 67.1885 26.456 68.6285 26.456C70.0365 26.456 71.1885 26.888 72.0845 27.752C73.0125 28.616 73.4765 29.688 73.4765 30.968C73.4765 32.216 73.0125 33.272 72.0845 34.136C71.1885 34.968 70.0365 35.384 68.6285 35.384Z" fill="#282630"/>
</svg>
