<svg width="32" height="32" viewBox="0 0 32 32" fill="none" xmlns="http://www.w3.org/2000/svg">
<path d="M24 16.7514V22.6667H20.5707V17.1476C20.5707 15.7611 20.0747 14.8149 18.8334 14.8149C17.8858 14.8149 17.3219 15.4526 17.0738 16.0694C16.9833 16.2899 16.9601 16.5969 16.9601 16.9056V22.6667H13.5296C13.5296 22.6667 13.5758 13.3191 13.5296 12.3506H16.9597V13.8129C16.9528 13.8238 16.9437 13.8356 16.9372 13.8462H16.9597V13.8129C17.4154 13.111 18.2293 12.1083 20.051 12.1083C22.308 12.1082 24 13.5827 24 16.7514ZM9.94116 7.37777C8.76761 7.37777 8 8.14753 8 9.15979C8 10.15 8.7454 10.9431 9.89563 10.9431H9.91855C11.1148 10.9431 11.8588 10.1501 11.8588 9.15979C11.8363 8.14753 11.1148 7.37777 9.94116 7.37777ZM8.20374 22.6667H11.6329V12.3506H8.20374V22.6667Z" fill="#282630"/>
</svg>
