<svg width="24" height="24" viewBox="0 0 24 24" fill="none" xmlns="http://www.w3.org/2000/svg">
<path fill-rule="evenodd" clip-rule="evenodd" d="M16.9645 10.4645C16.9645 14.0543 14.0543 16.9645 10.4645 16.9645C6.87463 16.9645 3.96448 14.0543 3.96448 10.4645C3.96448 6.87463 6.87463 3.96448 10.4645 3.96448C14.0543 3.96448 16.9645 6.87463 16.9645 10.4645ZM15.7263 17.1405C14.279 18.2828 12.4514 18.9645 10.4645 18.9645C5.77006 18.9645 1.96448 15.1589 1.96448 10.4645C1.96448 5.77006 5.77006 1.96448 10.4645 1.96448C15.1589 1.96448 18.9645 5.77006 18.9645 10.4645C18.9645 12.4513 18.2828 14.279 17.1405 15.7263L22.0356 20.6213L20.6214 22.0355L15.7263 17.1405Z" fill="#282630"/>
</svg>
