<svg width="32" height="32" viewBox="0 0 32 32" fill="none" xmlns="http://www.w3.org/2000/svg">
<path d="M24 11.2057C23.405 11.4667 22.771 11.6397 22.11 11.7237C22.79 11.3177 23.309 10.6797 23.553 9.91067C22.919 10.2887 22.219 10.5557 21.473 10.7047C20.871 10.0637 20.013 9.66667 19.077 9.66667C17.261 9.66667 15.799 11.1407 15.799 12.9477C15.799 13.2077 15.821 13.4577 15.875 13.6957C13.148 13.5627 10.735 12.2557 9.114 10.2647C8.831 10.7557 8.665 11.3177 8.665 11.9227C8.665 13.0587 9.25 14.0657 10.122 14.6487C9.595 14.6387 9.078 14.4857 8.64 14.2447C8.64 14.2547 8.64 14.2677 8.64 14.2807C8.64 15.8747 9.777 17.1987 11.268 17.5037C11.001 17.5767 10.71 17.6117 10.408 17.6117C10.198 17.6117 9.986 17.5997 9.787 17.5557C10.212 18.8547 11.418 19.8097 12.852 19.8407C11.736 20.7137 10.319 21.2397 8.785 21.2397C8.516 21.2397 8.258 21.2277 8 21.1947C9.453 22.1317 11.175 22.6667 13.032 22.6667C19.068 22.6667 22.368 17.6667 22.368 13.3327C22.368 13.1877 22.363 13.0477 22.356 12.9087C23.007 12.4467 23.554 11.8697 24 11.2057Z" fill="#282630"/>
</svg>
