<svg width="56" height="56" viewBox="0 0 56 56" fill="none" xmlns="http://www.w3.org/2000/svg">
<path d="M46.4297 8.95093C45.8259 8.95093 45.3359 9.44093 45.3359 10.0447C45.3359 10.6484 45.8259 11.1384 46.4297 11.1384C47.0334 11.1384 47.5234 10.6484 47.5234 10.0447C47.5234 9.44082 47.0334 8.95093 46.4297 8.95093Z" fill="#282630"/>
<path d="M52.1126 7.84888C49.5024 4.91511 45.8818 3.29943 41.918 3.29943C37.5835 3.29943 33.6283 4.97953 30.4802 8.15819C29.3855 9.26343 28.5672 10.3677 28 11.244C27.4328 10.3678 26.6145 9.26364 25.5198 8.15819C22.3717 4.97943 18.4166 3.29932 14.082 3.29932C5.78528 3.29932 0 10.2404 0 18.4927C0 29.64 11.8129 39.026 27.2837 52.4335C27.4892 52.6117 27.7446 52.7007 28 52.7007C28.2554 52.7007 28.5108 52.6117 28.7163 52.4335C44.2239 38.994 56 29.6245 56 18.4927C56 14.4464 54.6195 10.6664 52.1126 7.84888ZM28 50.1602C13.3909 37.5182 2.1875 28.4383 2.1875 18.4927C2.1875 11.0782 7.301 5.48693 14.082 5.48693C17.8472 5.48693 21.1543 6.88539 23.9117 9.64328C26.0123 11.7444 26.9924 13.8887 27.0021 13.9101C27.178 14.3024 27.5682 14.5544 27.9984 14.5553C27.999 14.5553 27.9998 14.5553 28.0004 14.5553C28.4305 14.5553 28.8212 14.3023 28.998 13.9101C29.0077 13.8887 29.9878 11.7445 32.0884 9.64328C34.8457 6.88529 38.1528 5.48693 41.9181 5.48693C48.6991 5.48693 53.8126 11.0782 53.8126 18.4927C53.8125 28.6628 41.8698 38.1579 28 50.1602Z" fill="#282630"/>
<path d="M50.2552 12.8472C49.9746 12.3122 49.3135 12.1061 48.7786 12.3865C48.2437 12.6671 48.0374 13.3281 48.3179 13.8631C49.0399 15.2398 49.4375 16.8839 49.4375 18.4926C49.4375 21.6531 47.9333 25.0075 44.7035 29.0492C44.3264 29.521 44.4033 30.2093 44.8751 30.5864C45.35 30.966 46.0377 30.8837 46.4124 30.4148C49.9686 25.9646 51.625 22.1762 51.625 18.4926C51.625 16.5081 51.1513 14.556 50.2552 12.8472Z" fill="#282630"/>
</svg>
