<svg width="56" height="56" viewBox="0 0 56 56" fill="none" xmlns="http://www.w3.org/2000/svg">
<path d="M51.5731 35.2536C53.7515 33.777 55.1248 31.2792 55.1248 28.58C55.1248 26.1164 53.979 23.7888 52.0749 22.2736C53.3511 20.0679 54.0209 17.5748 54.0209 14.9998C54.0209 6.9753 47.4924 0.446688 39.4677 0.446688C36.9727 0.446688 34.5437 1.07953 32.3846 2.28474C31.0419 0.839127 29.149 0 27.1482 0C25.0699 0 23.104 0.916455 21.7596 2.45602C19.8809 0.882658 17.4872 0 15.0176 0C9.23217 0 4.52532 4.70674 4.52532 10.4923C4.52532 13.747 6.01501 16.6605 8.34842 18.5863C8.20558 20.553 8.70258 22.5228 9.77795 24.1946C10.7669 25.7319 12.188 26.9287 13.8477 27.6446C12.0557 30.8987 9.8053 33.9077 7.18861 36.5244L1.89714 41.8158C0.534545 43.1785 0.534545 45.3955 1.89714 46.7582L10.1154 54.9765C10.7755 55.6365 11.6532 56 12.5867 56C13.5201 56 14.3979 55.6365 15.0579 54.9765L17.9891 52.0453C22.3666 47.6678 28.0657 44.7065 34.1524 43.6227C34.4122 49.1788 39.0134 53.6192 44.6327 53.6192C50.4182 53.6192 55.1249 48.9125 55.1249 43.127C55.1247 40.0598 53.8238 37.2269 51.5731 35.2536ZM10.5527 19.9856C11.9083 20.6258 13.4217 20.9845 15.0176 20.9845C15.6316 20.9845 16.2358 20.9304 16.8288 20.8271L16.338 22.1731C15.9019 23.3687 15.4052 24.5445 14.8523 25.6949C12.4704 24.7263 10.8277 22.4968 10.5527 19.9856ZM34.2852 41.3823C30.8225 41.9408 27.4688 43.0654 24.3722 44.6843C24.2627 44.1785 24.0113 43.7139 23.6367 43.3393L22.3028 42.0054C21.7881 41.4907 21.1038 41.2072 20.3759 41.2072C19.648 41.2072 18.9636 41.4907 18.4489 42.0054L15.2813 45.173C14.8542 45.6001 14.8542 46.2926 15.2813 46.7198C15.7084 47.1468 16.4007 47.147 16.8282 46.7198L19.9958 43.5523C20.1328 43.4153 20.2927 43.3948 20.376 43.3948C20.4592 43.3948 20.6191 43.4154 20.7562 43.5523L22.09 44.8862C22.2997 45.0957 22.2997 45.4369 22.09 45.6465L21.2957 46.4409C21.2452 46.4915 21.201 46.546 21.1624 46.6031C19.474 47.7479 17.8902 49.0504 16.4421 50.4985L13.5109 53.4297C13.0012 53.9393 12.1719 53.9395 11.6622 53.4297L5.8516 47.6191L11.3736 42.097C11.8007 41.6699 11.8007 40.9773 11.3736 40.5501C10.9464 40.1231 10.2541 40.1231 9.82674 40.5501L4.30471 46.0722L3.44393 45.2114C2.93424 44.7018 2.93424 43.8724 3.44393 43.3627L8.73539 38.0713C12.9912 33.8153 16.3307 28.5769 18.393 22.9225L19.1987 20.7135C20.0264 21.6776 21.0111 22.4722 22.1027 23.0712L19.6453 31.6605C19.5082 32.1398 19.7125 32.6511 20.142 32.904C20.3147 33.0056 20.5064 33.0552 20.6966 33.0552C20.9795 33.0552 21.2594 32.9456 21.4703 32.7348L29.0463 25.1589C29.8443 25.979 30.733 26.6989 31.705 27.3114C31.5247 28.0882 31.4336 28.8832 31.4336 29.6845C31.4336 30.5116 31.529 31.3222 31.7121 32.1039L26.3747 37.4413C26.062 37.7541 25.9683 38.2246 26.1375 38.6333C26.3068 39.0419 26.7056 39.3085 27.1481 39.3085H32.4841C33.0881 39.3085 33.5779 38.8187 33.5779 38.2147C33.5779 37.6107 33.0881 37.121 32.4841 37.121H29.7886L32.5329 34.3766C33.2268 35.7667 34.2306 36.9974 35.493 37.9739C34.892 39.0349 34.4856 40.1847 34.2852 41.3823ZM22.9103 28.2014L24.1349 23.9211C24.9774 24.1724 25.8583 24.3186 26.7603 24.3514L22.9103 28.2014ZM44.4615 51.4301C40.0228 51.3403 36.4046 47.7108 36.3291 43.2719C36.2988 41.4911 36.8278 39.7804 37.8541 38.3325C37.9517 38.1948 38.0264 38.0402 38.0557 37.8739C38.1368 37.4143 37.9273 36.9766 37.5558 36.7462C35.8155 35.6665 34.5715 34.0319 33.9905 32.1455C33.9833 32.1189 33.975 32.0927 33.9658 32.0665C33.74 31.306 33.6212 30.5056 33.6212 29.6848C33.6212 28.8219 33.7545 27.9684 34.0175 27.1481C34.1789 26.6446 33.973 26.0928 33.5099 25.8375C32.0026 25.0069 30.6545 23.8416 29.6115 22.4672C29.4027 22.192 29.0789 22.0347 28.7403 22.0347C28.6792 22.0347 28.6176 22.0399 28.556 22.0504C28.0843 22.131 27.6106 22.1718 27.1482 22.1718C24.2934 22.1718 21.6723 20.7299 20.1367 18.3148C19.8359 17.8416 19.2262 17.6727 18.7245 17.9233C17.5651 18.503 16.318 18.7969 15.0176 18.7969C10.4384 18.7969 6.71282 15.0714 6.71282 10.4921C6.71282 5.91293 10.4384 2.1875 15.0176 2.1875C17.2859 2.1875 19.4735 3.12868 21.0374 4.77357C21.1103 4.84773 21.1873 4.91948 21.2562 4.99746C22.5927 6.50958 23.3304 8.44202 23.3365 10.4667C23.3384 11.061 23.8055 11.5694 24.3998 11.5856C25.0177 11.6024 25.5242 11.1064 25.5242 10.4923C25.5242 8.1327 24.7376 5.87017 23.2963 4.03015C24.2304 2.87952 25.6462 2.1875 27.1482 2.1875C28.7777 2.1875 30.3045 2.99032 31.2323 4.33509C31.569 4.8229 32.2328 4.95415 32.7295 4.63051C34.8796 3.23018 37.4031 2.53783 39.9895 2.64513C46.5601 2.9178 51.8047 8.36917 51.8332 14.9454C51.844 17.4406 51.1142 19.8464 49.7256 21.9047C49.6881 21.9435 49.6522 21.9846 49.62 22.0299C47.2851 25.3147 43.5712 27.3067 39.6777 27.365C39.0975 27.3737 38.5931 27.8078 38.556 28.3868C38.5151 29.0254 39.0208 29.553 39.6472 29.553C39.6514 29.553 39.6557 29.553 39.6598 29.5529C43.9505 29.5043 48.0529 27.4709 50.8153 24.0688C52.1425 25.1736 52.9373 26.8297 52.9373 28.5801C52.9373 31.0112 51.4079 33.2177 49.1314 34.0709C48.7395 34.2179 48.4657 34.5755 48.4263 34.9922C48.3871 35.4089 48.5888 35.8114 48.9462 36.0292C51.4454 37.5517 52.9373 40.2051 52.9373 43.1271C52.9372 47.7632 49.1186 51.5243 44.4615 51.4301Z" fill="#282630"/>
<path d="M39.519 5.70995L39.4677 5.70984C38.8637 5.70984 38.3739 6.19962 38.3739 6.80359C38.3739 7.40756 38.8638 7.89735 39.4678 7.89735L39.5028 7.89746C39.5055 7.89746 39.5084 7.89746 39.5111 7.89746C40.1112 7.89746 40.6001 7.41303 40.6046 6.8118C40.6091 6.20783 40.123 5.71443 39.519 5.70995Z" fill="#282630"/>
<path d="M44.2159 7.01345C43.6971 6.70457 43.0256 6.87465 42.7165 7.39353C42.4073 7.91251 42.5774 8.58375 43.0964 8.89295C45.2391 10.1691 46.5702 12.5092 46.5702 14.9999C46.5702 15.6039 47.06 16.0937 47.6639 16.0937C48.2679 16.0937 48.7577 15.6039 48.7577 14.9999C48.7577 11.7424 47.0174 8.68219 44.2159 7.01345Z" fill="#282630"/>
<path d="M14.4081 37.5147C14.2047 37.3111 13.9236 37.1941 13.6348 37.1941C13.3472 37.1941 13.065 37.3111 12.8615 37.5147C12.6582 37.718 12.5411 38.0002 12.5411 38.2889C12.5411 38.5767 12.6581 38.8589 12.8615 39.0622C13.065 39.2657 13.3472 39.3816 13.6348 39.3816C13.9236 39.3816 14.2047 39.2657 14.4081 39.0622C14.6125 38.8577 14.7286 38.5767 14.7286 38.2889C14.7286 38.0002 14.6125 37.7191 14.4081 37.5147Z" fill="#282630"/>
</svg>
