<svg width="56" height="56" viewBox="0 0 56 56" fill="none" xmlns="http://www.w3.org/2000/svg">
<path d="M37.8438 0C37.2398 0 36.75 0.489781 36.75 1.09375V6.125C36.75 6.72897 37.2398 7.21875 37.8438 7.21875C38.4477 7.21875 38.9375 6.72897 38.9375 6.125V1.09375C38.9375 0.489781 38.4477 0 37.8438 0Z" fill="#282630"/>
<path d="M12.6875 34.125C12.0838 34.125 11.5938 34.615 11.5938 35.2188C11.5938 35.8225 12.0838 36.3125 12.6875 36.3125C13.2912 36.3125 13.7812 35.8225 13.7812 35.2188C13.7812 34.615 13.2912 34.125 12.6875 34.125Z" fill="#282630"/>
<path d="M53.1562 31.9375C53.1562 29.5251 51.1936 27.5625 48.7812 27.5625H40.6162C41.8802 24.3247 42.3919 20.5136 42.2932 17.1211C42.2744 16.4737 42.2496 16.0993 42.216 15.8636C42.1595 13.5004 40.2189 11.5938 37.8438 11.5938C35.4314 11.5938 33.4688 13.5564 33.4688 15.9688V17.0625C33.4688 23.98 24.586 27.8667 17.8824 29.5333C17.3755 28.3746 16.2186 27.5625 14.875 27.5625H3.9375C3.33353 27.5625 2.84375 28.0523 2.84375 28.6562V54.9062C2.84375 55.5102 3.33353 56 3.9375 56H14.875C16.2096 56 17.3599 55.1986 17.872 54.0521C18.4271 54.1945 18.9423 54.3291 19.418 54.4533C23.2368 55.4507 25.3404 56 30.4566 56H42.2188C44.6311 56 46.5938 54.0374 46.5938 51.625C46.5938 50.7255 46.3206 49.8888 45.8533 49.1927C47.5429 48.6018 48.7812 46.9874 48.7812 45.0625C48.7812 44.1663 48.5148 43.3268 48.0489 42.6276C49.7311 42.0357 50.9688 40.425 50.9688 38.5C50.9688 37.6005 50.6956 36.7638 50.2283 36.0677C51.9179 35.4768 53.1562 33.8624 53.1562 31.9375ZM15.9688 52.7188C15.9688 53.3218 15.4781 53.8125 14.875 53.8125H5.03125V29.75H14.875C15.4781 29.75 15.9688 30.2407 15.9688 30.8438V52.7188ZM48.7812 34.125C46.4353 34.125 45.876 34.125 43.3125 34.125C42.7085 34.125 42.2188 34.6148 42.2188 35.2188C42.2188 35.8227 42.7085 36.3125 43.3125 36.3125H46.5938C47.7999 36.3125 48.7812 37.2938 48.7812 38.5C48.7812 39.7082 47.8019 40.6875 46.5938 40.6875H41.125C40.521 40.6875 40.0312 41.1773 40.0312 41.7812C40.0312 42.3852 40.521 42.875 41.125 42.875H44.4062C45.5981 42.875 46.5938 43.8271 46.5938 45.0625C46.5938 46.2707 45.6144 47.25 44.4062 47.25C42.0603 47.25 41.501 47.25 38.9375 47.25C38.3335 47.25 37.8438 47.7398 37.8438 48.3438C37.8438 48.9477 38.3335 49.4375 38.9375 49.4375H42.2188C43.4249 49.4375 44.4062 50.4188 44.4062 51.625C44.4062 52.8312 43.4249 53.8125 42.2188 53.8125H30.4566C25.6214 53.8125 23.733 53.3193 19.9708 52.3368C19.4196 52.1929 18.8151 52.035 18.1562 51.8671V31.7215C26.0715 29.8361 35.6562 25.234 35.6562 17.0625V15.9688C35.6562 14.7626 36.6376 13.7812 37.8438 13.7812C39.0477 13.7812 40.029 14.761 40.0312 15.9654V15.9688C40.0312 16.4441 40.6245 22.2778 38.2456 27.5625H34.5625C33.9585 27.5625 33.4688 28.0523 33.4688 28.6562C33.4688 29.2602 33.9585 29.75 34.5625 29.75C35.3263 29.75 47.5346 29.75 48.7812 29.75C49.9874 29.75 50.9688 30.7313 50.9688 31.9375C50.9688 33.1457 49.9894 34.125 48.7812 34.125Z" fill="#282630"/>
<path d="M12.6875 38.5C12.0835 38.5 11.5938 38.9898 11.5938 39.5938V48.3438C11.5938 48.9477 12.0835 49.4375 12.6875 49.4375C13.2915 49.4375 13.7812 48.9477 13.7812 48.3438V39.5938C13.7812 38.9898 13.2915 38.5 12.6875 38.5Z" fill="#282630"/>
<path d="M29.0938 13.7812H24.7188C24.1148 13.7812 23.625 14.271 23.625 14.875C23.625 15.479 24.1148 15.9688 24.7188 15.9688H29.0938C29.6977 15.9688 30.1875 15.479 30.1875 14.875C30.1875 14.271 29.6977 13.7812 29.0938 13.7812Z" fill="#282630"/>
<path d="M50.9688 13.7812H46.5938C45.9898 13.7812 45.5 14.271 45.5 14.875C45.5 15.479 45.9898 15.9688 46.5938 15.9688H50.9688C51.5727 15.9688 52.0625 15.479 52.0625 14.875C52.0625 14.271 51.5727 13.7812 50.9688 13.7812Z" fill="#282630"/>
<path d="M47.8976 4.8211C47.4704 4.3941 46.7781 4.3941 46.3507 4.8211L43.2577 7.91412C42.8306 8.34123 42.8306 9.03379 43.2577 9.46101C43.685 9.88812 44.3773 9.88801 44.8046 9.46101L47.8976 6.36799C48.3247 5.94088 48.3247 5.24832 47.8976 4.8211Z" fill="#282630"/>
<path d="M32.4298 7.91412L29.3368 4.8211C28.9095 4.3941 28.2172 4.3941 27.7899 4.8211C27.3628 5.24821 27.3628 5.94078 27.7899 6.36799L30.8829 9.46101C31.3103 9.88812 32.0026 9.88801 32.4298 9.46101C32.8569 9.0339 32.8569 8.34134 32.4298 7.91412Z" fill="#282630"/>
</svg>
