<svg width="56" height="56" viewBox="0 0 56 56" fill="none" xmlns="http://www.w3.org/2000/svg">
<g clip-path="url(#clip0)">
<path d="M55.892 30.5868C55.3892 25.5294 53.1298 20.7616 49.5298 17.1614C46.4533 14.085 42.6877 12.108 38.7254 11.229V8.44991C40.3437 8.04729 41.5466 6.58241 41.5466 4.84124C41.5466 2.79065 39.8784 1.12244 37.8278 1.12244H29.9527C27.9021 1.12244 26.2339 2.79065 26.2339 4.84124C26.2339 6.5823 27.4368 8.04718 29.055 8.44991V11.2367C25.1049 12.1195 21.3518 14.0937 18.284 17.1615C17.6126 17.8329 16.9935 18.5372 16.4269 19.2691C16.3994 19.267 16.3719 19.265 16.3439 19.265H8.54965C7.94567 19.265 7.45588 19.7547 7.45588 20.3587C7.45588 20.9628 7.94567 21.4525 8.54965 21.4525H14.9386C14.1366 22.7951 13.49 24.2051 12.9978 25.6565H1.09377C0.489789 25.6565 0 26.1462 0 26.7503C0 27.3544 0.489789 27.844 1.09377 27.844H12.3797C12.0645 29.2278 11.8836 30.636 11.8369 32.0482H7.00011C6.39613 32.0482 5.90634 32.5378 5.90634 33.1419C5.90634 33.746 6.39613 34.2357 7.00011 34.2357H11.8717C11.9641 35.6515 12.1917 37.0598 12.5547 38.4398H5.46884C4.86486 38.4398 4.37507 38.9295 4.37507 39.5336C4.37507 40.1377 4.86486 40.6273 5.46884 40.6273H13.2527C14.3257 43.4658 16.0026 46.1261 18.284 48.4075C21.8875 52.011 26.6602 54.271 31.7229 54.7712C32.4454 54.8425 33.1685 54.8778 33.8906 54.8778C38.1587 54.8778 42.3725 53.6426 45.9481 51.3142C46.4543 50.9845 46.5974 50.307 46.2678 49.8008C45.9381 49.2946 45.2605 49.1514 44.7543 49.481C36.9277 54.5777 26.4458 53.4757 19.8308 46.8607C12.0692 39.0991 12.0692 26.4702 19.8308 18.7085C27.5922 10.947 40.2212 10.947 47.9829 18.7085C54.5892 25.3148 55.6971 35.7877 50.6174 43.6106C50.2883 44.1172 50.4324 44.7947 50.9389 45.1236C51.4458 45.4526 52.123 45.3085 52.4519 44.8019C55.166 40.6221 56.3877 35.5738 55.892 30.5868ZM28.4214 4.84135C28.4214 3.99697 29.1083 3.31008 29.9527 3.31008H37.8278C38.6722 3.31008 39.3591 3.99697 39.3591 4.84135C39.3591 5.68574 38.6722 6.37263 37.8278 6.37263H37.6316H30.1488H29.9527C29.1083 6.37263 28.4214 5.68563 28.4214 4.84135ZM31.2426 10.8607V8.56016H36.5378V10.8567C34.7795 10.6476 33.0006 10.6489 31.2426 10.8607Z" fill="#282630"/>
<path d="M48.7568 46.5399C48.4681 46.5399 48.187 46.6569 47.9837 46.8604C47.7791 47.0638 47.6631 47.346 47.6631 47.6337C47.6631 47.9213 47.7791 48.2035 47.9837 48.4069C48.187 48.6115 48.4682 48.7274 48.7568 48.7274C49.0445 48.7274 49.3256 48.6115 49.5301 48.4069C49.7336 48.2035 49.8506 47.9213 49.8506 47.6337C49.8506 47.346 49.7337 47.0638 49.5301 46.8604C49.3256 46.6569 49.0444 46.5399 48.7568 46.5399Z" fill="#282630"/>
<path d="M33.9069 15.8169C24.551 15.8169 16.9394 23.4284 16.9394 32.7844C16.9394 42.1404 24.551 49.7519 33.9069 49.7519C43.2628 49.7519 50.8744 42.1404 50.8744 32.7844C50.8744 23.4284 43.2628 15.8169 33.9069 15.8169ZM33.9069 47.5644C25.7571 47.5644 19.1269 40.9341 19.1269 32.7844C19.1269 24.6347 25.7571 18.0044 33.9069 18.0044C42.0567 18.0044 48.6869 24.6347 48.6869 32.7844C48.6869 40.9341 42.0567 47.5644 33.9069 47.5644Z" fill="#282630"/>
<path d="M40.8256 24.3188L35.4082 29.7361C34.9551 29.5121 34.4455 29.3855 33.9069 29.3855C33.3681 29.3855 32.8586 29.5121 32.4056 29.7361L29.981 27.3115C29.5538 26.8844 28.8614 26.8844 28.4341 27.3115C28.007 27.7386 28.007 28.4312 28.4341 28.8583L30.8587 31.2829C30.6345 31.7359 30.5081 32.2455 30.5081 32.7842C30.5081 34.6583 32.0327 36.183 33.9069 36.183C35.781 36.183 37.3056 34.6583 37.3056 32.7842C37.3056 32.2455 37.1791 31.7359 36.9551 31.2829L42.2135 26.0245L42.3724 25.8656C42.7995 25.4384 42.7995 24.7459 42.3724 24.3188C41.9453 23.8916 41.2529 23.8916 40.8256 24.3188ZM33.9069 33.9955C33.239 33.9955 32.6956 33.4522 32.6956 32.7843C32.6956 32.1164 33.239 31.5731 33.9069 31.5731C34.5747 31.5731 35.1181 32.1164 35.1181 32.7843C35.1181 33.4522 34.5747 33.9955 33.9069 33.9955Z" fill="#282630"/>
<path d="M45.6013 31.7039H44.5879C43.984 31.7039 43.4942 32.1935 43.4942 32.7976C43.4942 33.4017 43.984 33.8914 44.5879 33.8914H45.6013C46.2053 33.8914 46.6951 33.4017 46.6951 32.7976C46.6951 32.1935 46.2053 31.7039 45.6013 31.7039Z" fill="#282630"/>
<path d="M23.2257 31.6774H22.2124C21.6084 31.6774 21.1187 32.167 21.1187 32.7711C21.1187 33.3752 21.6084 33.8649 22.2124 33.8649H23.2257C23.8296 33.8649 24.3194 33.3752 24.3194 32.7711C24.3194 32.167 23.8296 31.6774 23.2257 31.6774Z" fill="#282630"/>
<path d="M33.9202 23.197C34.5242 23.197 35.014 22.7073 35.014 22.1032V21.09C35.014 20.4859 34.5242 19.9962 33.9202 19.9962C33.3163 19.9962 32.8265 20.4859 32.8265 21.09V22.1032C32.8265 22.7073 33.3163 23.197 33.9202 23.197Z" fill="#282630"/>
<path d="M33.8936 42.3717C33.2896 42.3717 32.7998 42.8614 32.7998 43.4655V44.4787C32.7998 45.0828 33.2896 45.5725 33.8936 45.5725C34.4975 45.5725 34.9873 45.0828 34.9873 44.4787V43.4655C34.9873 42.8614 34.4975 42.3717 33.8936 42.3717Z" fill="#282630"/>
<path d="M1.09375 38.4395C0.806094 38.4395 0.523906 38.5565 0.320469 38.7599C0.117031 38.9634 0 39.2455 0 39.5332C0 39.822 0.116922 40.103 0.320469 40.3065C0.524016 40.5099 0.806094 40.627 1.09375 40.627C1.38141 40.627 1.66359 40.5099 1.86692 40.3065C2.07036 40.103 2.1875 39.8209 2.1875 39.5332C2.1875 39.2455 2.07047 38.9634 1.86692 38.7599C1.66359 38.5565 1.38141 38.4395 1.09375 38.4395Z" fill="#282630"/>
</g>
<defs>
<clipPath id="clip0">
<rect width="56" height="56" fill="white"/>
</clipPath>
</defs>
</svg>
