<svg width="56" height="56" viewBox="0 0 56 56" fill="none" xmlns="http://www.w3.org/2000/svg">
<g clip-path="url(#clip0)">
<path d="M9.30482 49.7581C9.10149 49.5545 8.8193 49.4376 8.53165 49.4376C8.24399 49.4376 7.9618 49.5545 7.75837 49.7581C7.55493 49.9616 7.4379 50.2437 7.4379 50.5314C7.4379 50.819 7.55482 51.1012 7.75837 51.3045C7.9618 51.508 8.24399 51.6251 8.53165 51.6251C8.8193 51.6251 9.10149 51.5081 9.30482 51.3045C9.50826 51.1012 9.6254 50.819 9.6254 50.5314C9.6254 50.2437 9.50837 49.9615 9.30482 49.7581Z" fill="#282630"/>
<path d="M51.3541 20.0088C51.1507 19.8053 50.8696 19.6884 50.5808 19.6884C50.2932 19.6884 50.011 19.8053 49.8075 20.0088C49.6042 20.2123 49.4871 20.4944 49.4871 20.7821C49.4871 21.0698 49.6041 21.3519 49.8075 21.5553C50.011 21.7587 50.2932 21.8759 50.5808 21.8759C50.8696 21.8759 51.1507 21.7588 51.3541 21.5553C51.5585 21.3519 51.6755 21.0698 51.6755 20.7821C51.6755 20.4944 51.5585 20.2123 51.3541 20.0088Z" fill="#282630"/>
<path d="M55.679 0.320359C55.4738 0.115281 55.1956 0 54.9054 0L27.9998 0.00142188C27.3958 0.00142188 26.9062 0.491203 26.9062 1.09517V4.22297L16.5386 7.00098C15.9551 7.15739 15.6088 7.75709 15.7652 8.3405L21.1385 28.3935L16.4902 33.0419C15.8986 32.178 14.9052 31.6099 13.7816 31.6099H3.28193C1.47265 31.6099 0.000793457 33.0819 0.000793457 34.8911V52.7188C0.000793457 54.528 1.47265 56 3.28193 56H13.7817C15.3188 56 16.6118 54.9373 16.9662 53.5084L18.2666 54.6425C19.2706 55.518 20.5568 56.0001 21.8889 56.0001H54.9056C55.5096 56.0001 55.9994 55.5103 55.9994 54.9064V1.09375C55.9992 0.803688 55.8841 0.525437 55.679 0.320359ZM14.8752 52.7189C14.8752 53.3218 14.3846 53.8126 13.7815 53.8126H3.28182C2.67873 53.8126 2.18807 53.322 2.18807 52.7189V34.8912C2.18807 34.2881 2.67873 33.7974 3.28182 33.7974H7.43796V46.3969C7.43796 47.0008 7.92775 47.4906 8.53171 47.4906C9.13568 47.4906 9.62546 47.0008 9.62546 46.3969V33.7974H13.7816C14.3847 33.7974 14.8754 34.2881 14.8754 34.8912V52.7189H14.8752ZM18.1612 8.83083L26.9062 6.48758V10.5405L26.1731 10.7369C25.8928 10.812 25.654 10.9952 25.509 11.2465C25.364 11.4977 25.3246 11.7962 25.3997 12.0764C25.8201 13.645 24.8859 15.263 23.3174 15.6833C23.0368 15.7585 22.7976 15.9421 22.6527 16.1938C22.5078 16.4455 22.4687 16.7445 22.5445 17.025L26.8078 32.812H24.6127L23.4814 28.3862C23.4454 28.2453 23.3824 28.1155 23.2981 28.0026L18.1612 8.83083ZM26.9062 15.5563V24.7855L24.9113 17.3988C25.7446 16.9685 26.4266 16.3248 26.9062 15.5563ZM42.6194 53.8125H21.8887C21.0853 53.8125 20.3095 53.5218 19.704 52.9938L17.0627 50.6903V35.563L21.8378 30.7879L22.7039 34.1763C22.8277 34.6605 23.2638 34.9991 23.7635 34.9991L45.2671 35.0004C46.1114 35.0004 46.7983 35.6873 46.7983 36.5317C46.7983 37.3761 46.1114 38.0629 45.2671 38.0629H34.2486C33.6447 38.0629 33.1549 38.5527 33.1549 39.1567C33.1549 39.7607 33.6447 40.2504 34.2486 40.2504H48.6905C49.5349 40.2504 50.2217 40.9373 50.2217 41.7817C50.2217 42.6261 49.5349 43.3129 48.6905 43.3129H34.2486C33.6447 43.3129 33.1549 43.8027 33.1549 44.4067C33.1549 45.0107 33.6447 45.5004 34.2486 45.5004H46.3502C47.1946 45.5004 47.8815 46.1873 47.8815 47.0317C47.8815 47.8761 47.1946 48.5629 46.3502 48.5629H34.2486C33.6447 48.5629 33.1549 49.0527 33.1549 49.6567C33.1549 50.2607 33.6447 50.7504 34.2486 50.7504H42.6194C43.4638 50.7504 44.1507 51.4373 44.1507 52.2817C44.1506 53.1256 43.4637 53.8125 42.6194 53.8125ZM53.8119 53.8125H53.8118H46.0069C46.219 53.3451 46.3381 52.827 46.3381 52.2812C46.3381 51.7355 46.219 51.2174 46.0069 50.75H46.3502C48.4007 50.75 50.0688 49.0818 50.0688 47.0314C50.0688 46.4333 49.9261 45.8682 49.6741 45.367C51.2487 44.9345 52.409 43.4913 52.409 41.7815C52.409 40.952 52.1358 40.1851 51.675 39.5661V25.7039C51.675 25.0999 51.1852 24.6101 50.5813 24.6101C49.9773 24.6101 49.4875 25.0999 49.4875 25.7039V38.1499C49.2305 38.0936 48.9639 38.0629 48.6903 38.0629H48.6544C48.8665 37.5956 48.9856 37.0775 48.9856 36.5317C48.9856 34.4811 47.3174 32.813 45.2669 32.813H43.5087C45.3757 32.0124 46.6869 30.1568 46.6869 28C46.6869 25.1137 44.3388 22.7655 41.4525 22.7655C38.5663 22.7655 36.2181 25.1137 36.2181 28C36.2181 30.1568 37.5294 32.0124 39.3962 32.813H33.4175V12.0163C35.3714 11.5905 36.9131 10.0488 37.3388 8.09484H45.5661C45.9918 10.0488 47.5335 11.5905 49.4874 12.0163V15.4167C49.4874 16.0207 49.9772 16.5105 50.5812 16.5105C51.1851 16.5105 51.6749 16.0207 51.6749 15.4167V11.0398C51.6749 10.4358 51.1851 9.94602 50.5812 9.94602C48.9573 9.94602 47.6363 8.62488 47.6363 7.00109C47.6363 6.39713 47.1466 5.90734 46.5426 5.90734H36.3624C35.7584 5.90734 35.2687 6.39713 35.2687 7.00109C35.2687 8.62498 33.9476 9.94602 32.3238 9.94602C31.7199 9.94602 31.2301 10.4358 31.2301 11.0398V32.8129H29.0938V2.1887L53.8119 2.1875V53.8125ZM41.4527 31.047C39.7726 31.047 38.4059 29.6801 38.4059 28.0001C38.4059 26.3201 39.7727 24.9531 41.4527 24.9531C43.1327 24.9531 44.4996 26.32 44.4996 28C44.4996 29.68 43.1328 31.047 41.4527 31.047Z" fill="#282630"/>
</g>
<defs>
<clipPath id="clip0">
<rect width="56" height="56" fill="white"/>
</clipPath>
</defs>
</svg>
