<svg xmlns="http://www.w3.org/2000/svg" xmlns:xlink="http://www.w3.org/1999/xlink" viewBox="0 0 25.97 26"><defs><style>.cls-1,.cls-3{fill:none;}.cls-2{clip-path:url(#clip-path);}.cls-3{stroke:#42bdce;stroke-linecap:round;stroke-linejoin:round;stroke-width:2px;}.cls-4{fill:#42bdce;}</style><clipPath id="clip-path" transform="translate(0)"><rect class="cls-1" width="25.97" height="26"/></clipPath></defs><title>about-4</title><g id="Шар_2" data-name="Шар 2"><g id="Шар_1-2" data-name="Шар 1"><g class="cls-2"><path class="cls-3" d="M12.78,24.55A11.77,11.77,0,0,1,1,12.44,11.9,11.9,0,0,1,12.44,1a11.78,11.78,0,0,1,11,16.74L25,25l-7.24-1.54A11.73,11.73,0,0,1,12.78,24.55Z" transform="translate(0)"/><path class="cls-4" d="M11.14,12.78a1.64,1.64,0,1,0,1.64-1.64,1.64,1.64,0,0,0-1.64,1.64" transform="translate(0)"/><path class="cls-4" d="M5.91,12.78a1.64,1.64,0,1,0,1.63-1.64,1.64,1.64,0,0,0-1.63,1.64" transform="translate(0)"/><path class="cls-4" d="M16.37,12.78A1.64,1.64,0,1,0,18,11.15a1.64,1.64,0,0,0-1.63,1.64" transform="translate(0)"/></g></g></g></svg>