<svg xmlns="http://www.w3.org/2000/svg" xmlns:xlink="http://www.w3.org/1999/xlink" viewBox="0 0 34 34"><defs><style>.cls-1{fill:none;}.cls-2{clip-path:url(#clip-path);}.cls-3{fill:url(#Градієнт_без_назви);}.cls-4{clip-path:url(#clip-path-2);}.cls-5{fill:#41bdce;}</style><clipPath id="clip-path"><path class="cls-1" d="M5.71,17A11.29,11.29,0,1,1,17,28.29,11.29,11.29,0,0,1,5.71,17M17,0A17,17,0,1,0,34,17,17,17,0,0,0,17,0Z"/></clipPath><linearGradient id="Градієнт_без_назви" y1="34" x2="1" y2="34" gradientTransform="matrix(34, 0, 0, -34, -0.02, 1173)" gradientUnits="userSpaceOnUse"><stop offset="0" stop-color="#41bdce"/><stop offset="0.58" stop-color="#41bdce"/><stop offset="1" stop-color="#ecf6f8"/></linearGradient><clipPath id="clip-path-2"><rect class="cls-1" width="34" height="34"/></clipPath></defs><title>load-circle</title><g id="Шар_2" data-name="Шар 2"><g id="Шар_1-2" data-name="Шар 1"><g class="cls-2"><rect class="cls-3" width="34" height="34"/></g><g class="cls-4"><path class="cls-5" d="M16.56,28.28A11.29,11.29,0,0,1,17,5.71V0A17,17,0,1,0,33.66,20.43,2.86,2.86,0,0,0,30.85,17,2.89,2.89,0,0,0,28,19.34a11.29,11.29,0,0,1-11.49,8.94"/></g></g></g></svg>