<svg xmlns="http://www.w3.org/2000/svg" viewBox="0 0 6.5 6.5"><defs><style>.cls-1,.cls-2{fill:none;stroke:#ffffff;stroke-linecap:round;stroke-linejoin:round;stroke-width:0.5px;}.cls-1{fill-rule:evenodd;}</style></defs><title>social-ico-1</title><g id="Шар_2" data-name="Шар 2"><g id="Icons"><path class="cls-1" d="M1.75.25h3a1.5,1.5,0,0,1,1.5,1.5v3a1.5,1.5,0,0,1-1.5,1.5h-3a1.5,1.5,0,0,1-1.5-1.5v-3A1.5,1.5,0,0,1,1.75.25Zm.3,3a1.2,1.2,0,1,1,1.2,1.2A1.2,1.2,0,0,1,2,3.25Z"/><path id="Shape_3077" data-name="Shape 3077" class="cls-2" d="M4.9,1.49A.11.11,0,1,0,5,1.6a.11.11,0,0,0-.11-.11"/></g></g></svg>