<svg height="512pt" viewBox="0 -12 512.00111 512" width="512pt" xmlns="http://www.w3.org/2000/svg"><path d="m296 432c-4.425781 0-8-3.574219-8-8 0-26.472656-21.527344-48-48-48-4.425781 0-8-3.574219-8-8 0-4.421875 3.574219-8 8-8 35.289062 0 64 28.710938 64 64 0 4.425781-3.574219 8-8 8zm0 0"/><path d="m240 376-40-.015625c-4.425781 0-8-3.582031-8-8 0-4.421875 3.585938-8 8-8l40 .015625c4.425781 0 8 3.585938 8 8 0 4.425781-3.585938 8-8 8zm0 0"/><path d="m16 488c-8.824219 0-16-7.175781-16-16 0-4.421875 3.574219-8 8-8s8 3.578125 8 8v.015625c4.425781 0 8 3.570313 8 7.992187 0 4.417969-3.574219 7.992188-8 7.992188zm0 0"/><path d="m288 488c-4.425781 0-8-3.574219-8-8 0-4.421875 3.574219-8 8-8h.015625c0-4.421875 3.570313-8 7.992187-8 4.417969 0 7.992188 3.578125 7.992188 8 0 8.824219-7.175781 16-16 16zm0 0"/><path d="m296 480c-4.425781 0-8-3.574219-8-8v-48c0-4.421875 3.574219-8 8-8s8 3.578125 8 8v48c0 4.425781-3.574219 8-8 8zm0 0"/><path d="m8 431.984375c-4.425781 0-8-3.574219-8-8 0-35.289063 28.710938-64 64-64 4.425781 0 8 3.578125 8 8 0 4.425781-3.574219 8-8 8-26.472656 0-48 21.527344-48 48 0 4.425781-3.574219 8-8 8zm0 0"/><path d="m64 376c-4.414062 0-8-3.574219-8-8 0-4.414062 3.574219-8 8-8l40-.015625c4.414062 0 8 3.578125 8 8 0 4.417969-3.574219 8-8 8zm0 0"/><path d="m8 479.984375c-4.425781 0-8-3.574219-8-8v-48c0-4.421875 3.574219-8 8-8s8 3.578125 8 8v48c0 4.425781-3.574219 8-8 8zm0 0"/><path d="m288 488h-272c-4.425781 0-8-3.574219-8-8 0-4.421875 3.574219-8 8-8h272c4.425781 0 8 3.578125 8 8 0 4.425781-3.574219 8-8 8zm0 0"/><path d="m104 375.984375c-4.425781 0-8-3.574219-8-8v-35.703125c0-4.425781 3.574219-8 8-8s8 3.574219 8 8v35.703125c0 4.425781-3.574219 8-8 8zm0 0"/><path d="m200 375.96875c-4.425781 0-8-3.578125-8-8v-35.6875c0-4.425781 3.574219-8 8-8s8 3.574219 8 8v35.6875c0 4.421875-3.574219 8-8 8zm0 0"/><path d="m152 352c-61.761719 0-112-50.238281-112-112 0-4.421875 3.574219-8 8-8s8 3.578125 8 8c0 52.9375 43.0625 96 96 96s96-43.0625 96-96c0-4.421875 3.574219-8 8-8s8 3.578125 8 8c0 61.761719-50.238281 112-112 112zm0 0"/><path d="m48 248c-4.425781 0-8-3.574219-8-8v-72c0-4.421875 3.574219-8 8-8s8 3.578125 8 8v72c0 4.425781-3.574219 8-8 8zm0 0"/><path d="m256 248c-4.425781 0-8-3.574219-8-8v-88c0-4.421875 3.574219-8 8-8s8 3.578125 8 8v88c0 4.425781-3.574219 8-8 8zm0 0"/><path d="m256 160c-4.425781 0-8-3.574219-8-8 0-22.054688-17.945312-40-40-40-4.425781 0-8-3.574219-8-8 0-4.421875 3.574219-8 8-8 30.871094 0 56 25.128906 56 56 0 4.425781-3.574219 8-8 8zm0 0"/><path d="m208 112c-4.425781 0-8-3.574219-8-8v-32c0-4.421875 3.574219-8 8-8s8 3.578125 8 8v32c0 4.425781-3.574219 8-8 8zm0 0"/><path d="m208 80h-64c-4.425781 0-8-3.574219-8-8 0-4.421875 3.574219-8 8-8h64c4.425781 0 8 3.578125 8 8 0 4.425781-3.574219 8-8 8zm0 0"/><path d="m47.984375 176c-4.425781 0-8-3.574219-8-8 0-57.34375 46.664063-104 104.015625-104 4.425781 0 8 3.578125 8 8 0 4.425781-3.574219 8-8 8-48.527344 0-88.015625 39.480469-88.015625 88 0 4.425781-3.578125 8-8 8zm0 0"/><path d="m256 216c-2.046875 0-4.097656-.785156-5.65625-2.34375l-24-24c-3.128906-3.128906-3.128906-8.183594 0-11.3125s8.183594-3.128906 11.3125 0l24 24c3.128906 3.128906 3.128906 8.183594 0 11.3125-1.558594 1.558594-3.609375 2.34375-5.65625 2.34375zm0 0"/><path d="m152 208c-44.601562 0-81.648438-15.992188-83.207031-16.671875-4.039063-1.765625-5.882813-6.488281-4.121094-10.527344 1.761719-4.039062 6.488281-5.886719 10.527344-4.128906.351562.152344 35.664062 15.328125 76.800781 15.328125 41.273438 0 76.449219-15.175781 76.800781-15.328125 4.046875-1.785156 8.765625.074219 10.527344 4.128906 1.777344 4.046875-.070313 8.769531-4.128906 10.527344-1.550781.679687-38.613281 16.671875-83.199219 16.671875zm0 0"/><path d="m47.984375 216c-2.046875 0-4.097656-.785156-5.65625-2.34375-3.128906-3.128906-3.128906-8.191406 0-11.3125l24.015625-24c3.128906-3.128906 8.183594-3.128906 11.3125 0s3.128906 8.191406 0 11.3125l-24.015625 24c-1.5625 1.558594-3.609375 2.34375-5.65625 2.34375zm0 0"/><path d="m127.992188 392c-1.519532 0-3.070313-.4375-4.433594-1.34375l-24-16.015625c-3.679688-2.457031-4.671875-7.425781-2.214844-11.097656 2.457031-3.679688 7.425781-4.671875 11.097656-2.214844l24 16.015625c3.679688 2.457031 4.671875 7.425781 2.214844 11.097656-1.542969 2.3125-4.082031 3.558594-6.664062 3.558594zm0 0"/><path d="m128 392c-3.34375 0-6.472656-2.113281-7.585938-5.464844-1.40625-4.183594.859376-8.726562 5.050782-10.125l24-8.035156c4.191406-1.398438 8.726562.847656 10.128906 5.050781 1.40625 4.183594-.859375 8.726563-5.050781 10.125l-24 8.035157c-.847657.277343-1.703125.414062-2.542969.414062zm0 0"/><path d="m176.007812 392c-2.582031 0-5.121093-1.246094-6.664062-3.558594-2.457031-3.671875-1.464844-8.640625 2.214844-11.097656l24-16.015625c3.664062-2.457031 8.632812-1.464844 11.097656 2.214844 2.457031 3.671875 1.464844 8.640625-2.214844 11.097656l-24 16.015625c-1.363281.90625-2.914062 1.34375-4.433594 1.34375zm0 0"/><path d="m176 392c-.839844 0-1.695312-.136719-2.535156-.414062l-24-8.035157c-4.183594-1.398437-6.457032-5.933593-5.050782-10.125 1.402344-4.183593 5.953126-6.441406 10.128907-5.050781l24 8.035156c4.183593 1.398438 6.457031 5.933594 5.050781 10.125-1.121094 3.34375-4.25 5.464844-7.59375 5.464844zm0 0"/><path d="m152.238281 424c-4.421875 0-8.039062-3.574219-8.039062-8 0-4.421875 3.535156-8 7.953125-8h.085937c4.417969 0 8 3.578125 8 8 0 4.425781-3.582031 8-8 8zm0 0"/><path d="m152.238281 456c-4.421875 0-8.039062-3.574219-8.039062-8 0-4.421875 3.535156-8 7.953125-8h.085937c4.417969 0 8 3.578125 8 8 0 4.425781-3.582031 8-8 8zm0 0"/><path d="m312 248c-1.359375 0-2.71875-.34375-3.9375-1.039062-2.519531-1.425782-4.0625-4.082032-4.0625-6.960938v-16h-16c-4.425781 0-8-3.574219-8-8v-208c0-4.421875 3.574219-8 8-8h208c4.425781 0 8 3.578125 8 8v208c0 4.425781-3.574219 8-8 8h-141.800781l-38.085938 22.855469c-1.265625.761719-2.679687 1.144531-4.113281 1.144531zm-16-40h16c4.425781 0 8 3.578125 8 8v9.863281l27.863281-16.726562c1.242188-.753907 2.664063-1.144531 4.121094-1.144531h136.015625v-192h-192zm0 0"/><path d="m480 335.984375h-127.96875c-4.421875 0-8-3.574219-8-8 0-4.421875 3.578125-8 8-8h127.96875c4.425781 0 8 3.578125 8 8 0 4.425781-3.574219 8-8 8zm0 0"/><path d="m416.015625 488c-4.421875 0-8-3.574219-8-8v-176.015625c0-4.421875 3.578125-8 8-8 4.425781 0 8 3.578125 8 8v176.015625c0 4.425781-3.574219 8-8 8zm0 0"/><path d="m480.015625 488h-128c-4.421875 0-8-3.574219-8-8 0-4.421875 3.578125-8 8-8h128c4.425781 0 8 3.578125 8 8 0 4.425781-3.574219 8-8 8zm0 0"/><path d="m352.03125 440c-17.648438 0-32-14.351562-32-32 0-4.421875 3.578125-8 8-8 4.425781 0 8 3.578125 8 8 0 8.824219 7.175781 16 16 16s16-7.175781 16-16c0-4.421875 3.578125-8 8-8 4.425781 0 8 3.578125 8 8 0 17.648438-14.351562 32-32 32zm0 0"/><path d="m376.03125 416h-48c-4.421875 0-8-3.574219-8-8 0-4.421875 3.578125-8 8-8h48c4.425781 0 8 3.578125 8 8 0 4.425781-3.574219 8-8 8zm0 0"/><path d="m328.03125 416c-.757812 0-1.527344-.113281-2.296875-.335938-4.230469-1.273437-6.628906-5.726562-5.367187-9.960937l24-80.015625c1.265624-4.230469 5.710937-6.632812 9.960937-5.367188 4.230469 1.273438 6.632813 5.726563 5.367187 9.960938l-24 80.015625c-1.039062 3.472656-4.214843 5.703125-7.664062 5.703125zm0 0"/><path d="m376.03125 416c-3.445312 0-6.625-2.230469-7.664062-5.703125l-24-80.015625c-1.261719-4.234375 1.136718-8.6875 5.367187-9.960938 4.242187-1.265624 8.699219 1.136719 9.960937 5.367188l24 80.015625c1.265626 4.234375-1.136718 8.6875-5.367187 9.960937-.769531.222657-1.535156.335938-2.296875.335938zm0 0"/><path d="m480 440c-17.648438 0-32-14.351562-32-32 0-4.421875 3.574219-8 8-8s8 3.578125 8 8c0 8.824219 7.175781 16 16 16s16-7.175781 16-16c0-4.421875 3.574219-8 8-8s8 3.578125 8 8c0 17.648438-14.351562 32-32 32zm0 0"/><path d="m504 416h-48c-4.425781 0-8-3.574219-8-8 0-4.421875 3.574219-8 8-8h48c4.425781 0 8 3.578125 8 8 0 4.425781-3.574219 8-8 8zm0 0"/><path d="m456 416c-.761719 0-1.527344-.113281-2.296875-.335938-4.230469-1.273437-6.632813-5.726562-5.367187-9.960937l24-80.015625c1.265624-4.230469 5.71875-6.632812 9.960937-5.367188 4.230469 1.273438 6.632813 5.726563 5.367187 9.960938l-24 80.015625c-1.039062 3.472656-4.214843 5.703125-7.664062 5.703125zm0 0"/><path d="m504 416c-3.449219 0-6.625-2.230469-7.664062-5.703125l-24-80.015625c-1.265626-4.234375 1.136718-8.6875 5.367187-9.960938 4.25-1.265624 8.6875 1.136719 9.960937 5.367188l24 80.015625c1.265626 4.234375-1.136718 8.6875-5.367187 9.960937-.769531.222657-1.535156.335938-2.296875.335938zm0 0"/><path d="m392 184c-39.703125 0-72-32.296875-72-72s32.296875-72 72-72 72 32.296875 72 72-32.296875 72-72 72zm0-128c-30.871094 0-56 25.128906-56 56s25.128906 56 56 56 56-25.128906 56-56-25.128906-56-56-56zm0 0"/><path d="m392 126.609375c-4.425781 0-8-3.578125-8-8v-38.625c0-4.421875 3.574219-8 8-8s8 3.578125 8 8v38.625c0 4.421875-3.574219 8-8 8zm0 0"/><path d="m392.238281 152c-4.421875 0-8.039062-3.574219-8.039062-8 0-4.421875 3.535156-8 7.953125-8h.085937c4.417969 0 8 3.578125 8 8 0 4.425781-3.582031 8-8 8zm0 0"/></svg>