<svg height="480pt" viewBox="-48 0 480 480" width="480pt" xmlns="http://www.w3.org/2000/svg"><path d="m312 480c13.601562 0 24-10.398438 24-24v-44.800781l5.601562 5.601562c9.597657 9.597657 25.597657 9.597657 35.199219 0 9.597657-9.601562 9.597657-25.601562 0-35.199219l-40.800781-40.800781v-204.800781h-16v188.800781l-96.800781-96.800781 36-36h14.402343c13.597657 0 24-10.398438 24-24 0-6.398438-2.402343-12.800781-7.203124-16.800781l-65.597657-65.597657c-9.601562-9.601562-24.800781-9.601562-33.601562 0-4.800781 4.796876-7.199219 10.398438-7.199219 16.796876v14.402343l-115.199219 115.199219h-14.402343c-13.597657 0-24 10.398438-24 24 0 6.398438 2.402343 12.800781 7.203124 16.800781l65.597657 65.597657c9.601562 9.601562 24.800781 9.601562 33.601562 0 4.800781-4.796876 7.199219-10.398438 7.199219-16.796876v-14.402343l44-44 132 132v60.800781c0 4.800781-3.199219 8-8 8h-232v-40c0-13.601562-10.398438-24-24-24h-40v-376c0-4.800781 3.199219-8 8-8h288c4.800781 0 8 3.199219 8 8v32h16v-32c0-13.601562-10.398438-24-24-24h-288c-13.601562 0-24 10.398438-24 24v387.199219l68.800781 68.800781zm-109.601562-383.199219c3.203124-3.199219 8-3.199219 11.203124 0l65.597657 65.597657c3.199219 3.203124 3.199219 8 0 11.203124-1.597657 1.597657-3.199219 2.398438-5.597657 2.398438h-14.402343l-59.199219-59.199219v-14.402343c0-1.597657.800781-4 2.398438-5.597657zm-10.398438 34.398438 52.800781 52.800781-108.800781 108.800781-52.800781-52.800781zm-66.398438 196c-3.203124 3.199219-8 3.199219-11.203124 0l-65.597657-65.597657c-3.199219-3.203124-3.199219-8 0-11.203124 1.597657-1.597657 3.199219-2.398438 5.597657-2.398438h14.402343l59.199219 59.199219v14.402343c0 1.597657-.800781 4-2.398438 5.597657zm86.398438-88 153.601562 153.601562c3.199219 3.199219 3.199219 8.800781 0 12.800781-3.203124 3.199219-8.800781 3.199219-12.800781 0l-153.601562-153.601562zm-148 184.800781v28.800781l-36.800781-36.800781h28.800781c4.800781 0 8 3.199219 8 8zm0 0"/><path d="m242.421875 74.265625 15.835937-15.839844 11.316407 11.3125-15.839844 15.839844zm0 0"/><path d="m266.5 98.183594 32.246094-32.242188 11.3125 11.3125-32.242188 32.242188zm0 0"/><path d="m290.582031 122.101562 48.082031-48.082031 11.3125 11.316407-48.082031 48.082031zm0 0"/><path d="m120 40h96v16h-96zm0 0"/><path d="m40 80h128v16h-128zm0 0"/><path d="m40 120h96v16h-96zm0 0"/><path d="m40 160h64v16h-64zm0 0"/><path d="m40 200h24v16h-24zm0 0"/><path d="m40 360h224v16h-224zm0 0"/><path d="m104 392h192v16h-192zm0 0"/><path d="m104 424h192v16h-192zm0 0"/></svg>