<svg xmlns="http://www.w3.org/2000/svg" width="40" height="46" viewBox="0 0 40 46">
  <defs>
    <style>
      .cls-1 {
        fill: #00ffc4;
        fill-rule: evenodd;
      }
    </style>
  </defs>
  <path id="Icon" class="cls-1" d="M16,1.508A5.016,5.016,0,0,0,12.418,0H8.77A8.594,8.594,0,0,0,2.563,2.624,9.038,9.038,0,0,0,0,8.989V26.576a4.773,4.773,0,0,0,1.472,3.675,5.419,5.419,0,0,0,2.368,1.378V44.687a1.216,1.216,0,1,0,2.432,0V31.563a4.64,4.64,0,0,0,2.368-1.247l0.064-.065a5.276,5.276,0,0,0,1.472-3.675v-8.6h2.24A5.13,5.13,0,0,0,16,16.47,5.276,5.276,0,0,0,17.474,12.8V5.183A5.4,5.4,0,0,0,16,1.508Zm-8.255,25a2.827,2.827,0,0,1-.768,1.9l-0.064.066a2.633,2.633,0,0,1-1.856.722H4.995a2.571,2.571,0,0,1-1.856-.787,2.662,2.662,0,0,1-.768-1.9V15.158l0.192,0.2a8.4,8.4,0,0,0,1.152.984,1.6,1.6,0,0,0,.448.262,6.921,6.921,0,0,0,.96.525l0.576,0.2c0.32,0.131.64,0.2,0.96,0.328,0.192,0.065.448,0.065,0.64,0.131,0.128,0,.32.065,0.448,0.065V26.51Zm3.328-10.959H8.642a6.262,6.262,0,0,1-4.48-1.9,6.694,6.694,0,0,1,0-9.253,6.263,6.263,0,0,1,4.48-1.9h2.432V15.551Zm3.9-2.69a3.136,3.136,0,0,1-.768,1.969,2.629,2.629,0,0,1-.7.459V2.821a1.652,1.652,0,0,1,.7.459,2.707,2.707,0,0,1,.768,1.969v7.612ZM37.44,2.624A8.593,8.593,0,0,0,31.233,0H27.585A5.13,5.13,0,0,0,24,1.508a5.275,5.275,0,0,0-1.472,3.675V12.8A5.4,5.4,0,0,0,24,16.47a5.016,5.016,0,0,0,3.584,1.509h2.24v8.662A5.4,5.4,0,0,0,31.3,30.316l0.064,0.066a5.189,5.189,0,0,0,2.368,1.247V44.753a1.216,1.216,0,1,0,2.432,0V31.628a4.855,4.855,0,0,0,2.368-1.378A5.276,5.276,0,0,0,40,26.576V8.989A9.038,9.038,0,0,0,37.44,2.624ZM26.369,15.289a2.63,2.63,0,0,1-.7-0.459,2.707,2.707,0,0,1-.768-1.969V5.183a2.828,2.828,0,0,1,.768-1.9,2.631,2.631,0,0,1,.7-0.459V15.289Zm4.864,0.2H28.8V2.493h2.432a6.263,6.263,0,0,1,4.48,1.9,6.613,6.613,0,0,1,0,9.187A6.262,6.262,0,0,1,31.233,15.486Zm6.4,11.156a2.827,2.827,0,0,1-.768,1.9,2.531,2.531,0,0,1-1.856.787H34.944a2.75,2.75,0,0,1-1.856-.722l-0.064-.066a2.663,2.663,0,0,1-.768-1.9V17.914c0.128,0,.32-0.066.448-0.066,0.192-.065.448-0.065,0.64-0.131a5.517,5.517,0,0,0,.96-0.328l0.576-.2a6.953,6.953,0,0,0,.96-0.525c0.128-.066.32-0.2,0.448-0.263a9.435,9.435,0,0,0,1.216-1.05,0.348,0.348,0,0,1,.128-0.2V26.641h0Z"/>
</svg>
