<svg id="Layer_1" enable-background="new 0 0 512.001 512.001" height="55" viewBox="0 0 512.001 512.001" width="46" xmlns="http://www.w3.org/2000/svg" style="fill: #00ffc4;"><path d="m508.713 487.63-237.713-297.141v-45.718l112.208-56.104c5.082-2.541 8.292-7.735 8.292-13.417s-3.21-10.875-8.292-13.417l-120.5-60.25c-4.649-2.325-10.171-2.078-14.594.657-4.22 2.608-6.859 7.125-7.091 12.051-.014.204-.023 176.198-.023 176.198l-237.713 297.141c-3.602 4.503-4.304 10.671-1.807 15.868 2.498 5.197 7.753 8.502 13.52 8.502h482c5.766 0 11.021-3.305 13.52-8.502 2.497-5.197 1.795-11.365-1.807-15.868zm-252.713-267.868 74.321 92.901-24.617 15.917-41.986-25.192c-4.75-2.851-10.685-2.851-15.435 0l-41.986 25.192-24.617-15.917zm15-108.532v-71.959l71.959 35.979zm-224.79 370.771 116.633-145.791 35.013 22.638c4.803 3.105 10.956 3.209 15.861.266l42.283-25.371 42.283 25.37c2.378 1.427 5.048 2.138 7.717 2.138 2.836 0 5.67-.803 8.145-2.403l35.013-22.638 116.633 145.791z"/></svg>