<?xml version="1.0" encoding="UTF-8"?>
<!-- Generator: Adobe Illustrator 19.0.0, SVG Export Plug-In . SVG Version: 6.00 Build 0)  -->
<svg id="Layer_1" enable-background="new 0 0 511.989 511.989" fill="#00ffc4" version="1.1" viewBox="0 0 511.99 511.99" xml:space="preserve" xmlns="http://www.w3.org/2000/svg">

	
		<path d="m405.34 207.99c-9.734 0-19.171 1.312-28.155 3.773l-27.469-71.444 9.938-10.218c4.062-4.188 4.016-10.859-0.109-14.992l-21.328-21.32c-2-2-4.719-3.133-7.547-3.133h-53.326c-5.891 0-10.672 4.781-10.672 10.672s4.78 10.664 10.671 10.664h48.904l10.781 10.773-7.375 7.562c-2.969 3.055-3.719 7.437-2.328 11.187 0 0.023 0.016 0.055 0.016 0.086l9.812 25.5-145.15 18.141v-19.914h32c5.891 0 10.672-4.781 10.672-10.671s-4.781-10.664-10.672-10.664h-63.999c-5.891 0-10.664 4.773-10.664 10.664s4.773 10.671 10.664 10.671h10.671v29.109l-14.898 25.546c-14.711-7.656-31.406-11.992-49.101-11.992-58.812 0-106.67 47.851-106.67 106.65 0 58.844 47.858 106.69 106.67 106.69 51.515 0 94.607-36.717 104.52-85.342h14.64c4.406 12.422 16.257 21.344 30.171 21.344 17.648 0 31.991-14.344 31.991-32 0-7.375-2.499-14.186-6.718-19.592l68.326-106.28 7.672 19.984c-34.734 17.602-58.608 53.671-58.608 95.2 0 58.844 47.858 106.69 106.67 106.69s106.65-47.842 106.65-106.69c2e-3 -58.803-47.841-106.65-106.65-106.65zm-298.67 192c-47.054 0-85.334-38.281-85.334-85.344 0-47.037 38.281-85.317 85.334-85.317 13.781 0 26.804 3.281 38.335 9.109l-47.554 81.521c-2.961 5.094-1.25 11.609 3.844 14.594 1.695 0.969 3.539 1.438 5.367 1.438h0.055 82.584c-9.5 36.78-42.945 63.999-82.631 63.999zm18.57-85.344 37.499-64.263c17.922 15.656 29.257 38.672 29.257 64.263h-66.756zm100.59 0h-12.5c0-33.466-15.499-63.38-39.694-82.95l7.695-13.203 50.257 86.155c-2.477 2.938-4.445 6.312-5.758 9.998zm30.172 21.344c-5.891 0-10.672-4.797-10.672-10.656 0-5.906 4.781-10.688 10.672-10.688 5.883 0 10.664 4.781 10.664 10.688 0 5.859-4.781 10.656-10.664 10.656zm7.336-41.811c-2.367-0.546-4.813-0.843-7.336-0.843-2.055 0-4.055 0.188-5.984 0.562l-51.327-87.991 131.99-16.5-67.342 104.77zm142 105.81c-47.062 0-85.343-38.281-85.343-85.344 0-32.451 18.25-60.74 45-75.162l30.39 79.005c1.641 4.219 5.672 6.844 9.953 6.844 1.266 0 2.562-0.25 3.828-0.719 5.499-2.125 8.233-8.281 6.14-13.779l-30.42-79.03c6.562-1.617 13.421-2.477 20.452-2.477 47.046 0 85.326 38.28 85.326 85.317 0 47.064-38.28 85.345-85.326 85.345z"/>
	
















</svg>
