<svg id="_x31_" enable-background="new 0 0 24 24" height="512" viewBox="0 0 24 24" width="512" xmlns="http://www.w3.org/2000/svg"><g><g id="XMLID_1_"><path d="m19.3 2c.2-.1.5 0 .7.2v.3c0 .2-.1.3-.3.4l-.7.4v-1.1z"/><path d="m12.1 5.9-5.1-2.6v-1.1l5.5 2.8c.3.2.6.2.9 0l5.6-2.8v1.1l-5.1 2.6c-.3.2-.6.2-.9.2s-.6 0-.9-.2z"/><path d="m21.5 15c.8 0 1.5-.7 1.5-1.5v-6c0-.5-.3-1-.8-1.3-.2-.1-.3-.4-.2-.7.1-.2.4-.3.7-.2.8.5 1.3 1.3 1.3 2.2v6c0 1.4-1.1 2.5-2.5 2.5h-3.6l-3.1 2.9c-.1.1-.2.1-.3.1s-.1 0-.2 0c-.2-.1-.3-.3-.3-.5v-2.5h-1.5c-1.4 0-2.5-1.1-2.5-2.5v-1c0-.3.2-.5.5-.5s.5.2.5.5v1c0 .8.7 1.5 1.5 1.5h2c.3 0 .5.2.5.5v1.9l2.4-2.2c.1-.1.2-.1.3-.1h3.8z"/><path d="m6.1 2.2c.1-.2.4-.3.6-.2l.3.2v1.1l-.7-.4c-.2-.1-.3-.3-.3-.4s0-.2.1-.3z"/><path d="m7.5 10c-.8 0-1.5-.7-1.5-1.5v-6c0 .2.1.3.3.4l.7.4v5.2c0 .3.2.5.5.5h11c.3 0 .5-.2.5-.5v-5.2l.7-.4c.2-.1.3-.3.3-.4v6c0 .8-.7 1.5-1.5 1.5z"/><path d="m7 1.5v.7l-.3-.2c-.2-.1-.5 0-.6.2-.1.1-.1.2-.1.3v-1c0-.8.7-1.5 1.5-1.5h11c.8 0 1.5.7 1.5 1.5v1c0-.1 0-.2-.1-.2-.1-.3-.4-.4-.6-.3l-.3.2v-.7c0-.3-.2-.5-.5-.5h-11c-.3 0-.5.2-.5.5z"/><path d="m7.5 14.5c0-1.1-.9-2-2-2s-2 .9-2 2 .9 2 2 2 2-.9 2-2zm-2 3c-1.7 0-3-1.4-3-3s1.3-3 3-3 3 1.4 3 3-1.3 3-3 3z"/><path d="m10 23.5v-2c0-.8-.7-1.5-1.5-1.5h-6c-.8 0-1.5.7-1.5 1.5v2c0 .3-.2.5-.5.5s-.5-.2-.5-.5v-2c0-1.4 1.1-2.5 2.5-2.5h6c1.4 0 2.5 1.1 2.5 2.5v2c0 .3-.2.5-.5.5s-.5-.2-.5-.5z"/></g></g></svg>