<svg xmlns="http://www.w3.org/2000/svg" width="27" height="20" viewBox="0 0 27 20">
  <defs>
    <style>
      .cls-1 {
        fill: #fff;
        fill-rule: evenodd;
      }
    </style>
  </defs>
  <path id="Email" class="cls-1" d="M24.776,0H2.223A2.226,2.226,0,0,0,0,2.222V17.777A2.225,2.225,0,0,0,2.223,20H24.776A2.226,2.226,0,0,0,27,17.777V2.222A2.226,2.226,0,0,0,24.776,0Zm0.318,17.778a0.322,0.322,0,0,1-.318.318H2.223a0.322,0.322,0,0,1-.318-0.318V5.56L12.858,12a0.953,0.953,0,0,0,.957.006L25.094,5.542V17.777Zm0-14.43L13.347,10.073,1.906,3.35V2.222A0.322,0.322,0,0,1,2.223,1.9H24.776a0.322,0.322,0,0,1,.318.317V3.347Z"/>
</svg>
