<svg xmlns="http://www.w3.org/2000/svg" width="37" height="50" viewBox="0 0 37 50">
  <defs>
    <style>
      .cls-1 {
        fill: #00ffc4;
        fill-rule: evenodd;
      }
    </style>
  </defs>
  <path id="Icon" class="cls-1" d="M32.625,25.311l0-.007L32.615,25.3ZM5.506,19.427A43.873,43.873,0,0,0,19.054,22.1c4.8,0.226,9.614.043,14.421,0.057,0.98,0,1.835-.065,1.832-1.354s-0.882-1.262-1.838-1.372c-1.006-.115-2.383.764-2.923-1.07a1.175,1.175,0,0,0-1.935.343c-0.357,1.192-1.163.732-1.787,0.7-0.795-.042-0.4-0.794-0.538-1.238-0.2-.648.605-1.791-0.88-1.826-1.3-.031-1.381.83-1.383,1.808,0,0.531.262,1.331-.723,1.292-0.521-.021-1.13.315-1.525-0.5-0.668-1.375-1.575-1.377-2.241,0-0.393.815-1.006,0.446-1.528,0.5-0.807.077-.666-0.566-0.741-1.071-0.133-.9.528-2.442-1.108-2.338-1.559.1-1.081,1.611-1.151,2.651a4.361,4.361,0,0,1-.137.634c-0.851-.474-2.255.109-2.282-1.78-0.015-1.05-1.277-1.052-1.98-.084-0.258.354,0.133,1.195-.965,0.755-0.764-.306-1.388-0.447-1.384-1.386,0-.522.026-1.046-0.011-1.566-0.034-.468.2-1.1-0.646-1.158a1.431,1.431,0,0,0-1.528.69c-0.257.469,0.275,1.227-.63,1.539C2.727,14.436,4.078,11.7,3.693,9.085c2.249,0.749,3.958,1.894,5.979,2.349,6.3,1.421,12.691,1.351,19.086,1.315,4.223-.024,4.224,0,4.3,4.064,0.005,0.3.019,0.6,0,.895-0.039.71,0.357,0.895,0.983,0.855,0.575-.037,1.272.149,1.264-0.8,0-.522,0-1.044.006-1.566,0.009-5.819.009-5.819-5.794-6.267,0.647-.622.407-1.413,0.561-2.12a20.915,20.915,0,0,1,1.908-5.549A1.38,1.38,0,0,0,31.575.176c-1.091-.544-1.6.185-1.945,1-1.189,2.8-2.587,5.558-1.742,8.875-6.854-.175-13.746.837-20.417-2.047,1.085-.19,1.99-0.622,1.653-1.8A16.358,16.358,0,0,0,7.083.97C6.561,0.234,6.132-.294,5.232.183c-1.02.54-.554,1.275-0.215,2.022A17.2,17.2,0,0,1,6.861,7.662C4.845,6.891,3.779,5.687,4.176,3.55c0.069-.373.187-0.957-0.467-1.059a1.337,1.337,0,0,0-1.448.345A3.905,3.905,0,0,0,1.474,5.3a48.231,48.231,0,0,1-.022,6.261c-0.377,3.592.758,6.27,4.084,7.9-0.01-.011-0.018-0.021-0.029-0.032h0ZM30.315,47.772c-0.383.721-.727,1.419,0.114,1.921a1.426,1.426,0,0,0,2.132-.507c4.634-8.256,6.054-16.8,2.268-25.787a1.38,1.38,0,0,0-1.88-.734A1.068,1.068,0,0,0,32.3,24.28a10.679,10.679,0,0,1,.327,1.024l0,0.007c0.98,1.468,1.531,2.445-1.047,3.248-4.475,1.394-7.953,4.479-10.968,8-1.4,1.63-2.884,1.911-4.081.235a22.057,22.057,0,0,0-7.8-6.69c-1.618-.856-3.27-2.406-5.424-1.229-0.187,1.035.325,1.553,1.262,1.989A34.829,34.829,0,0,1,9.2,33.371c2.649,1.763,5.343,3.724,6.093,6.944a20.569,20.569,0,0,1,.553,7.918c-0.151.934-.211,1.6,0.963,1.66a1.14,1.14,0,0,0,1.355-1.349c-0.172-2.43.425-4.893-.319-7.3-0.154-.5-0.327-1.071.494-1.16,0.846-.091.733,0.548,0.729,1.047a13.364,13.364,0,0,1-.231,1.725A14.376,14.376,0,0,0,18.995,49c0.283,0.965.772,0.868,1.436,0.908,0.912,0.054.927-.53,0.9-1.159-0.027-.59-0.072-1.181-0.11-1.771-0.182-2.831-.463-5.948,1.128-8.231a19.5,19.5,0,0,1,12.1-8.329c-0.222,2.584.141,5.016-.264,7.474A32.408,32.408,0,0,1,30.315,47.772ZM32.626,25.3l-0.04-.051L32.615,25.3ZM5.507,19.428h0L5.555,19.47l-0.019-.01,0.011,0.012,0.009,0Zm0.183,7.58a38.011,38.011,0,0,0,11.752,1.739,44.41,44.41,0,0,0,13.341-1.627c1.041-.3,1.777-0.677,1.8-1.843a2.676,2.676,0,0,0-2.469-.52,46.706,46.706,0,0,1-23.195.1c-1.542-.383-2.868-0.518-1.474-2.6a2.128,2.128,0,0,0,.1-2.778c-0.642.148-1.385-.389-1.9,0.613A31,31,0,0,0,.162,30.8,29.239,29.239,0,0,0,4.2,48.715c0.55,0.971,1.237,1.591,2.236,1.111,1.039-.5.366-1.354,0.04-2.066-0.817-1.786-1.757-3.532-2.4-5.378C2.523,37.97,1.442,33.493,3.3,28.876l-0.023.011C3.17,27.11,3.526,26.246,5.69,27.008ZM5.507,19.428c0.011,0.011.018,0.021,0.029,0.032l0.019,0.01ZM3.314,28.833l0.027-.074C3.32,28.8,3.3,28.84,3.275,28.887ZM3.3,28.876L3.31,28.87c0-.013,0-0.024,0-0.037C3.308,28.847,3.3,28.862,3.3,28.876Zm29.295-3.593c0.008,0.029.013,0.056,0.02,0.084l0.012-.055L32.615,25.3Zm-0.007-.03c0,0.008,0,.015,0,0.024l0.009,0.006C32.59,25.272,32.589,25.263,32.586,25.253ZM32.615,25.3l-0.029-.044c0,0.01,0,.019.007,0.03Zm-29.34,3.59L3.3,28.876c0.006-.014.01-0.028,0.016-0.042Z"/>
</svg>
