<svg id="Capa_1" enable-background="new 0 0 512 512" height="512" viewBox="0 0 512 512" width="512" xmlns="http://www.w3.org/2000/svg"><g><path d="m87 0h-32c-30.327 0-55 24.673-55 55v145c0 30.327 24.673 55 55 55h32c13.809 0 27.676-2.257 41-6.526v216.526c0 25.916 21.084 47 47 47s47-21.084 47-47v-337c0-71.377-66.083-128-135-128zm-57 200v-145c0-13.785 11.215-25 25-25s25 11.215 25 25v145c0 13.785-11.215 25-25 25s-25-11.215-25-25zm162 265c0 9.374-7.626 17-17 17s-17-7.626-17-17v-230.148c13.049-7.849 24.47-17.531 34-28.57zm-87.275-241.522c3.378-7.125 5.275-15.083 5.275-23.478v-145c0-8.388-1.895-16.34-5.268-23.46 48.176 8.375 87.268 49.861 87.268 96.46 0 46.311-39.312 87.228-87.275 95.478z"/><path d="m457 0h-32c-68.865 0-135 56.57-135 128v337c0 25.916 21.084 47 47 47s47-21.084 47-47v-216.526c13.324 4.269 27.191 6.526 41 6.526h32c30.327 0 55-24.673 55-55v-145c0-30.327-24.673-55-55-55zm-49.732 31.54c-3.373 7.12-5.268 15.072-5.268 23.46v145c0 8.395 1.897 16.353 5.275 23.478-48.004-8.257-87.275-49.203-87.275-95.478 0-46.599 39.092-88.085 87.268-96.46zm-53.268 433.46c0 9.374-7.626 17-17 17s-17-7.626-17-17v-258.719c9.524 11.031 20.943 20.717 34 28.57zm128-265c0 13.785-11.215 25-25 25s-25-11.215-25-25v-145c0-13.785 11.215-25 25-25s25 11.215 25 25z"/></g></svg>