
<svg xmlns="http://www.w3.org/2000/svg" viewBox="0 0 18.917 18.917"><defs><style>.a{fill:#fff;fill-rule:evenodd;}</style></defs><g transform="translate(-1246.084 -844)"><path class="a" d="M9.458,1.681a29,29,0,0,1,3.783.105,4.874,4.874,0,0,1,1.787.315,3.691,3.691,0,0,1,1.787,1.787,4.874,4.874,0,0,1,.315,1.787c0,.946.105,1.261.105,3.783a29,29,0,0,1-.105,3.783,4.874,4.874,0,0,1-.315,1.787,3.691,3.691,0,0,1-1.787,1.787,4.874,4.874,0,0,1-1.787.315c-.946,0-1.261.105-3.783.105a29,29,0,0,1-3.783-.105,4.874,4.874,0,0,1-1.787-.315A3.691,3.691,0,0,1,2.1,15.028a4.874,4.874,0,0,1-.315-1.787c0-.946-.105-1.261-.105-3.783a29,29,0,0,1,.105-3.783A4.874,4.874,0,0,1,2.1,3.888a3.774,3.774,0,0,1,.736-1.051A1.777,1.777,0,0,1,3.888,2.1a4.874,4.874,0,0,1,1.787-.315,29,29,0,0,1,3.783-.105M9.458,0A31.052,31.052,0,0,0,5.57.105a6.488,6.488,0,0,0-2.312.42A4.114,4.114,0,0,0,1.576,1.576,4.114,4.114,0,0,0,.525,3.258,4.788,4.788,0,0,0,.105,5.57,31.052,31.052,0,0,0,0,9.458a31.052,31.052,0,0,0,.105,3.888,6.488,6.488,0,0,0,.42,2.312A4.114,4.114,0,0,0,1.576,17.34a4.114,4.114,0,0,0,1.681,1.051,6.488,6.488,0,0,0,2.312.42,31.051,31.051,0,0,0,3.888.105,31.051,31.051,0,0,0,3.888-.105,6.488,6.488,0,0,0,2.312-.42,4.409,4.409,0,0,0,2.732-2.732,6.488,6.488,0,0,0,.42-2.312c0-1.051.105-1.366.105-3.888a31.051,31.051,0,0,0-.105-3.888,6.488,6.488,0,0,0-.42-2.312A4.114,4.114,0,0,0,17.34,1.576,4.114,4.114,0,0,0,15.659.525a6.488,6.488,0,0,0-2.312-.42A31.052,31.052,0,0,0,9.458,0m0,4.624A4.756,4.756,0,0,0,4.624,9.458,4.834,4.834,0,1,0,9.458,4.624m0,7.987A3.1,3.1,0,0,1,6.306,9.458,3.1,3.1,0,0,1,9.458,6.306a3.1,3.1,0,0,1,3.153,3.153,3.1,3.1,0,0,1-3.153,3.153M14.5,3.258a1.156,1.156,0,1,0,1.156,1.156A1.166,1.166,0,0,0,14.5,3.258" transform="translate(1246.083 844)"/></g></svg>