<svg xmlns="http://www.w3.org/2000/svg" width="46" height="46" viewBox="0 0 46 46">
  <defs>
    <style>
      .cls-1 {
        fill: #00ffc4;
        fill-rule: evenodd;
      }
    </style>
  </defs>
  <path id="Icon" class="cls-1" d="M44.743,32.665c-1.2-.015-2.678.42-2.695-1.624a0.783,0.783,0,0,0-.859-0.407c-1.163,0-2.326-.012-3.488,0-0.883.011-1.088,0.558-1.162,1.342-0.123,1.3.686,3.089-.446,3.786-0.995.612-2.657,0.154-4.024,0.168-0.205,0-.41,0-0.616,0-2.7,0-2.663,0-2.716-2.673-0.017-.833.483-2.033-0.506-2.416a9.1,9.1,0,0,0-4.452-.131c-1.231.163-.494,1.514-0.71,1.84-1.274.7-3.135-1.155-3.3,1.266-0.2,3.046-.053,6.115-0.044,9.175,0,0.382-.1,1.038.369,1.016,1.577-.072,2.921.193,3.748,1.693a0.349,0.349,0,0,0,.2.014c1.492-.04,3.164.307,4.414-0.261,0.829-.377.283-2.126,0.269-3.251-0.012-1.039.253-1.47,1.37-1.395,1.362,0.091,2.735.035,4.1,0.015,0.781-.011,1.853.245,1.9-0.944,0.05-1.37-1.122-1.04-1.956-1.09-1.77-.106-3.572.225-5.316-0.214q-0.007-.3-0.015-0.6h3.678c4.071,0,4.055,0,4.076,3.96,0.023,4.3-.547,3.668,3.813,3.838,1.71,0.067,2.028-.539,1.963-2.053-0.113-2.647-.038-5.3-0.023-7.953,0-.433-0.159-1.015.6-1.04a0.474,0.474,0,0,1,.578.423,42.6,42.6,0,0,1-.212,6.687c-0.1.615-.84,1.416-0.369,2.02,0.458,0.588,1.448.333,2.133,0.176,0.809-.185.953-1,0.953-1.763,0-2.719-.013-5.439.008-8.159A1.174,1.174,0,0,0,44.743,32.665ZM22.363,42.021c-0.878-.037-0.561-0.778-0.573-1.237-0.04-1.482.059-2.971-.041-4.448a1.966,1.966,0,0,1,1.257-2.2c0,2.257.017,4.48-.014,6.7C22.986,41.3,23.281,42.06,22.363,42.021Zm3.5,1.676c-0.838-.011-0.8-0.526-0.8-1.078q0-4.257,0-8.514c0-.584.025-1.048,0.843-1.037,0.838,0.011.8,0.526,0.8,1.078q0,2.128,0,4.257c0,1.419-.006,2.838,0,4.257C26.706,43.244,26.678,43.708,25.86,43.7Zm14.391-5.153c0,1.351,0,2.7,0,4.054,0,0.537.072,1.078-.776,1.1-0.8.019-.868-0.41-0.866-1.015,0.01-2.838,0-5.676.005-8.514,0-.537-0.071-1.072.776-1.1,1-.031.856,0.628,0.86,1.218C40.257,35.706,40.251,37.125,40.251,38.544Zm-24.058,3.1c0.978,0,2.286.145,2.233-1.283-0.044-1.19-1.218-1.16-2.164-1.16-3.692,0-7.389-.116-11.074.041-2.553.109-3.136-.575-3.13-3.176,0.022-9.446.057-18.892-.032-28.337-0.018-1.912.645-3,2.493-3.183,1.011-.1.784-0.686,0.831-1.259C5.417,2.462,4.871,2.5,4.3,2.458A3.79,3.79,0,0,0,.018,6.43C0,11.663.012,16.9,0.012,22.128q0,7.339,0,14.679c0,3.475,1.338,4.815,4.9,4.836Q10.552,41.676,16.193,41.64ZM16.172,6.957c2.394,0,4.79-.04,7.182.02a1.976,1.976,0,0,0,2.023-1.056,5.058,5.058,0,0,0,.144-4.45C24.9,0.017,23.56.038,22.3,0.029,18.534,0,14.77.077,11.009,0,7.678-.066,6.336.261,6.518,4.337,6.607,6.327,7.409,6.97,9.195,6.96,11.52,6.948,13.846,6.957,16.172,6.957ZM8.617,3.4c-0.029-1.12.713-.924,1.361-0.927,2.043-.009,4.086,0,6.129,0s4.088,0.056,6.129-.022c1.077-.041,1.2.447,1.206,1.331a0.952,0.952,0,0,1-1.173,1.155C18.183,4.895,14.1,4.9,10.01,4.923,8.919,4.929,8.643,4.378,8.617,3.4ZM31.5,32.9c0.907-.036.972-0.856,0.966-1.662-0.033-4.145-.015-8.291-0.015-12.437,0-4.009.021-8.019-.007-12.029a4.229,4.229,0,0,0-4.661-4.307,1.044,1.044,0,0,0-1.064,1,0.876,0.876,0,0,0,.8,1.01C30.334,4.592,30.4,6.554,30.4,8.593c0,7.544.01,15.088-.017,22.631C30.379,32.1,30.482,32.937,31.5,32.9Zm-5.337-5.118a0.788,0.788,0,0,0,.963-0.933c-0.005-.705-0.094-1.134-0.978-1.127-4.156.033-8.313,0.019-12.469,0.01a1.058,1.058,0,0,0-1.314.93c-0.06.894,0.551,1.118,1.329,1.115,2.044-.009,4.088,0,6.133,0C21.939,27.769,24.051,27.753,26.163,27.779Zm-0.376-9.394H20.064c-2.044,0-4.088.005-6.133,0-0.79,0-1.6.026-1.565,1.083,0.032,0.9.755,0.966,1.484,0.964,4.02-.009,8.041-0.019,12.061.008,0.81,0.005,1.236-.127,1.229-1.094C27.133,18.253,26.463,18.385,25.788,18.385Zm0.079-7.354c-2.044.024-4.088,0.008-6.133,0.008-1.908,0-3.816,0-5.724,0-0.77,0-1.628-.042-1.644,1.006s0.831,1.041,1.609,1.04q5.928-.008,11.856,0c0.719,0,1.308.04,1.311-1.007C27.145,11.062,26.624,11.022,25.867,11.031ZM6.84,36.646c0.936,0.487,1.406-.55,1.93-1.092a7.106,7.106,0,0,0,1.085-1.648c0.33-.625.895-1.463,0.1-1.933a1.311,1.311,0,0,0-1.98.662,0.953,0.953,0,0,1-1.425.641c-1.086-.6-1.269.091-1.195,1.026C5.106,35.51,5.983,36.2,6.84,36.646ZM9.933,17.257a1.183,1.183,0,0,0-1.738.391c-0.571,1.181-1.486,1.439-2.775.59-0.038.654-.026,0.924-0.073,1.183a2.223,2.223,0,0,0,1.538,2.541c1.075,0.408,1.578-.758,2.136-1.468a12.421,12.421,0,0,0,1.023-1.675C10.346,18.273,10.578,17.534,9.933,17.257ZM6.858,29.308c0.928,0.467,1.416-.56,1.921-1.116a13.856,13.856,0,0,0,1.142-1.836c0.389-.6.707-1.364,0.026-1.735a1.231,1.231,0,0,0-1.858.518,1.287,1.287,0,0,1-1.77.877c-1.341-.68-0.833.428-0.89,0.6A2.248,2.248,0,0,0,6.858,29.308ZM6.947,14.622c1.044,0.336,1.566-.78,2.092-1.534,0.337-.483.606-1.012,0.92-1.511,0.374-.6.712-1.337-0.09-1.677a1.212,1.212,0,0,0-1.81.637c-0.448,1.1-1.344,1.381-2.578.207-0.072.671-.086,0.937-0.131,1.2A2.269,2.269,0,0,0,6.947,14.622ZM15.519,33c-1.041.471-3-.738-3.047,1.011-0.049,1.974,1.972.981,3.051,1.044,0.982,0.057,2.786.773,2.844-.864C18.439,32.186,16.47,33.511,15.519,33Z"/>
</svg>
