<?xml version="1.0" encoding="UTF-8"?>
<svg fill="#00ffc4" viewBox="0 0 511 512" xmlns="http://www.w3.org/2000/svg">
 <path d="m173.3 447.93c2.6289 0 5.207-1.0703 7.0664-2.9297 1.8594-1.8594 2.9336-4.4414 2.9336-7.0703 0-2.6289-1.0703-5.2109-2.9336-7.0703-1.8594-1.8594-4.4375-2.9297-7.0664-2.9297-2.6328 0-5.2109 1.0703-7.0703 2.9297s-2.9297 4.4414-2.9297 7.0703c0 2.6289 1.0664 5.2109 2.9297 7.0703 1.8594 1.8594 4.4414 2.9297 7.0703 2.9297z"/>
 <path d="m502.47 492h-48.105l-18.277-32.672v-89.133c0-21.02-13.492-39.332-33.57-45.562l-76.715-23.812v-81.227c0-7.5469-2.2305-14.652-6.1406-20.621 21.77-7.5078 37.457-28.188 37.457-52.473 0-28.934-22.262-52.758-50.555-55.27v-41.168c0-27.605-22.457-50.062-50.062-50.062-5.5234 0-10 4.4766-10 10v79.816c-0.046875 0-0.089844-0.007812-0.13672-0.007812-8.6992-0.17578-16.926 3.0781-23.184 9.1133-6.2578 6.0352-9.793 14.148-9.9492 22.84-0.32812 17.945 14.008 32.809 31.953 33.137l0.58203 0.011718c-1.7383 16.355-6.582 32.52-14.297 47.395-2.75 5.3047-4.207 11.281-4.207 17.289v86.008l-24.09 43.406-129.06 81.141c-12.277 7.7188-19.609 20.984-19.609 35.488v26.363h-44c-5.5234 0-10 4.4766-10 10s4.4766 10 10 10h491.97c5.5195 0 10-4.4766 10-10s-4.4805-10-10.004-10zm-165.35-345.5c0 17.898-13.312 32.742-30.555 35.156v-70.312c17.242 2.4141 30.555 17.258 30.555 35.156zm-70.617-124.79c11.676 4.1289 20.062 15.277 20.062 28.352v143.23c0 4.3594 2.8203 8.2148 6.9766 9.5312 7.332 2.3281 12.262 9.0703 12.262 16.773v78.598h-58.535v-78.598c0-2.8555 0.66016-5.5742 1.957-8.082 11.305-21.793 17.277-46.031 17.277-70.102zm-29.762 109.35c-2.3242-2.4102-3.5742-5.5859-3.5117-8.9375 0.058594-3.3516 1.4219-6.4805 3.8359-8.8086 2.3555-2.2695 5.4414-3.5156 8.7031-3.5156 0.14062 0 0.28125 0.003907 0.42188 0.003907 0.10547 0 0.20703-0.011719 0.3125-0.015626v25.129l-0.95312-0.015625c-3.3516-0.0625-6.4805-1.4258-8.8086-3.8398zm-84.965 317.45c-2.4336-4.957-8.4258-7.0039-13.387-4.5664l-44.305 21.762c-0.66016 0.32422-1.2812 0.72266-1.8555 1.1836l-17.727 14.246v-15.496c0-7.582 3.832-14.52 10.254-18.559l131.23-82.508c1.4258-0.89453 2.6055-2.1406 3.4219-3.6094l23.738-42.77h53.969l-28.887 43.359c-12.059 18.098-28.75 32.73-48.27 42.316l-20.703 10.172c-4.957 2.4336-7 8.4258-4.5664 13.383 2.4375 4.957 8.4297 7.0039 13.387 4.5664l20.699-10.168c22.688-11.145 42.082-28.148 56.098-49.184l7.8516-11.785 81.773 30.121v92.441c0 2.9922 0.46094 5.875 1.3164 8.5859h-282.91l10.992-8.8359 43.312-21.273c4.957-2.4336 7-8.4258 4.5664-13.383zm251.31 43.492c-4.7344 0-8.5859-3.8516-8.5859-8.5859v-99.414c0-4.1875-2.6133-7.9375-6.543-9.3828l-83.824-30.879 10.879-16.332 4.9648-7.4492 76.613 23.773c11.66 3.6211 19.496 14.254 19.496 26.465v91.742c0 1.7109 0.4375 3.3906 1.2695 4.8828l14.09 25.18z"/>
</svg>
