<?xml version="1.0" encoding="UTF-8"?>
<svg width="50px" height="50px" fill="#00ffc4" viewBox="0 0 50 50" xmlns="http://www.w3.org/2000/svg">
 <path d="m35 2c-2.75 0-5 2.25-5 5 0 2.7461 2.25 5 5 5s5-2.2539 5-5c0-2.75-2.25-5-5-5zm0 2c1.6719 0 3 1.332 3 3s-1.3281 3-3 3c-1.668 0-3-1.332-3-3s1.332-3 3-3zm-15 5c-0.51953 0-1.0078 0.14453-1.4258 0.375-0.097656 0.03125-0.1875 0.078125-0.27344 0.13281l-6.9258 4.9766c-0.12109 0.085938-0.22266 0.19922-0.29297 0.32812-0.625 0.55078-1.082 1.293-1.082 2.1875 0 1.6445 1.3555 3 3 3 0.48828 0 0.87109-0.26562 1.2773-0.47266 0.21094 0.003906 0.42188-0.0625 0.59375-0.1875l5.5859-4.0156 2.7148 0.85938-4.2656 6.9531c-0.046875 0.078125-0.085937 0.16016-0.10938 0.24609-0.4375 0.70312-0.73438 1.5117-0.78125 2.3906-0.023437 0.03125-0.042969 0.0625-0.0625 0.09375l-3.2617 5.1328h-7.1914c-1.9219 0-3.5 1.5781-3.5 3.5s1.5781 3.5 3.5 3.5h8.4336c1.6172 0 3.1406-0.78906 4.0781-2.1094l2.8984-4.0938 4.7305 2.918-1.5781 8.1055c-0.011719 0.066406-0.015625 0.13672-0.015625 0.20703-0.023437 0.15234-0.046875 0.30859-0.046875 0.47266 0 1.9219 1.5781 3.5 3.5 3.5 1.457 0 2.5703-0.98828 3.0938-2.2656 0.17969-0.15234 0.30078-0.35547 0.34375-0.58594v-0.003907l2.0273-10.668c0.015625-0.078125 0.019531-0.16016 0.015625-0.24219 0.007812-0.070312 0.019531-0.11328 0.019531-0.23438 0-0.73047-0.30859-1.3633-0.73828-1.8789-0.058594-0.14062-0.14844-0.26172-0.25781-0.35938l-4.8281-4.2773 1.6875-3.332 1.4062 3.0977c0.03125 0.070313 0.070313 0.13281 0.11328 0.19141 0.51172 0.92188 1.4922 1.5586 2.6172 1.5586h7c1.6445 0 3-1.3555 3-3s-1.3555-3-3-3h-5.3359l-2.6953-6.4219c-0.14453-1.2383-0.91797-2.2461-1.9414-2.8828-0.089844-0.13281-0.21094-0.24609-0.35156-0.32422l-2.5039-1.3984c-0.085937-0.046875-0.17578-0.082031-0.27344-0.10156l-8.1641-1.7812c-0.078125-0.015625-0.15625-0.023438-0.23438-0.019531-0.16016-0.03125-0.30859-0.070313-0.5-0.070313zm0 2c0.0625 0 0.14062 0.011719 0.25 0.039063 0.12891 0.03125 0.26172 0.039062 0.39062 0.023437l-0.15625 0.019531 7.8438 1.7148 2.0352 1.1328-0.11719-0.36328c0.089844 0.26953 0.28906 0.48828 0.55078 0.60156 0.70703 0.30469 1.2031 1.0039 1.2031 1.832 0 0.34766-0.09375 0.66797-0.26562 0.97266-0.13672 0.23828-0.16797 0.51562-0.09375 0.77734l-0.10938-0.35156-4.4844 8.8711c-0.20703 0.40625-0.11328 0.89844 0.23047 1.1992l5.207 4.6211-0.078125-0.21484c0.058594 0.14844 0.14844 0.28516 0.26562 0.39062 0.20312 0.19141 0.32812 0.44141 0.32812 0.73438 0-0.019531-0.003906 0.019531-0.015625 0.14062-0.023437 0.15625-0.003906 0.31641 0.046875 0.46484l-0.082031-0.23438-1.8203 9.5898h0.82422c-0.48047 0-0.89453 0.34375-0.98438 0.81641-0.12891 0.69531-0.72656 1.2227-1.4688 1.2227-0.83984 0-1.5-0.66016-1.5-1.5 0-0.097656 0.011719-0.19531 0.03125-0.29688 0-0.011719 0.003906-0.023437 0.003906-0.035156l1.6992-8.75c0.078125-0.41016-0.10156-0.82422-0.45703-1.043l-7.2383-4.4688 0.097656 0.38672c-0.070313-0.28125-0.25781-0.51562-0.51172-0.64844-0.96484-0.5-1.625-1.4805-1.625-2.6445 0-0.65234 0.21094-1.2461 0.57031-1.7461 0.17578-0.24609 0.23438-0.55469 0.15234-0.84766l0.10938 0.40625 4.7109-7.6719c0.16016-0.26172 0.19141-0.58594 0.085937-0.87109-0.10938-0.28906-0.34375-0.51172-0.63672-0.60547l-4.4102-1.3984c-0.30078-0.097656-0.62891-0.042969-0.88281 0.14062l-5.8984 4.2383c-0.058593 0.035157-0.11328 0.070313-0.16406 0.11328-0.18359 0.15625-0.39453 0.24219-0.63672 0.24219-0.56641 0-1-0.43359-1-1 0-0.36719 0.19141-0.66797 0.48438-0.84375 0.050781-0.035156 0.10156-0.070312 0.14453-0.11328 0.003907-0.003906 0.007813-0.007813 0.011719-0.011719l6.6367-4.7578-0.1875 0.027343c0.13281-0.019531 0.26172-0.070312 0.37891-0.14453 0.16016-0.10156 0.33594-0.15625 0.53125-0.15625zm13.113 7.7031 1.9648 4.6836c0.15625 0.37109 0.51953 0.61328 0.92188 0.61328h6c0.56641 0 1 0.43359 1 1s-0.43359 1-1 1h-7c-0.40625 0-0.74219-0.23828-0.90234-0.57812-0.070312-0.15234-0.17969-0.28516-0.31641-0.38281l0.19141 0.12891-1.9531-4.3086zm-14.41 9.7148c0.40625 0.65234 0.96094 1.207 1.6055 1.6406 0.082031 0.13672 0.19531 0.25391 0.33203 0.33594l0.56641 0.35156-2.8281 3.9883c-0.5625 0.79297-1.4727 1.2656-2.4453 1.2656h-8.4336c-0.83984 0-1.5-0.66016-1.5-1.5s0.66016-1.5 1.5-1.5h7.7422c0.34375 0 0.66016-0.17578 0.84375-0.46484z"/>
</svg>
