<?xml version="1.0" encoding="UTF-8"?>
<svg width="512pt" height="512pt" fill="#00ffc4" viewBox="0 -66 512 512" xmlns="http://www.w3.org/2000/svg">
 <path d="m461.29 226.51-76.492-5.4648-50.555-84.215-25.273-42.168v-11.68c0.007812-12.676-10.262-22.957-22.938-22.965-2.8398-0.003906-5.6562 0.52344-8.3008 1.5469l-72.688 28.039 5.4922-18.434c4.3359-15.496-2.6992-31.922-16.906-39.477l-57.035-30.641c-4.1484-2.2266-9.3164-0.80469-11.742 3.2305l-83.66 133.97-1.7656-1.0234c-4.2266-2.4297-9.6211-0.96875-12.047 3.2578-0.054688 0.089844-0.10156 0.17969-0.15234 0.27344l-26.191 49.309c-2.2578 4.2578-0.68359 9.5352 3.5312 11.867l318.54 176.55c1.3086 0.72266 2.7773 1.1016 4.2734 1.1016h131.66c29.238-0.027344 52.938-23.723 52.965-52.965v-45.656c-0.09375-28.609-22.184-52.328-50.715-54.457zm-94.941-1.8906-10.082 3.3633-78.988-102.7 20.305-15.246zm-230.69-204.03 49.621 26.633c6.8789 3.6367 10.316 11.551 8.2812 19.059l-7.293 24.578-50.672-30.387-17.547-10.531zm-52.266 84.25 4.5195-7.0625 29.043 21.602c14.781 11.098 22.328 29.375 19.684 47.672l-1.1016 25.512-78.895-45.473zm375.65 257.1h-129.39l-308.96-171.26 17.84-33.543 292.52 168.31c1.3438 0.77344 2.8633 1.1797 4.4141 1.1758h158.89c0 19.5-15.809 35.312-35.309 35.312zm35.309-52.969h-156.54l-60.547-34.859 20.355-20.754c3.3633-3.5273 3.2305-9.1172-0.30078-12.48-3.457-3.2969-8.9102-3.2422-12.305 0.12109l-23.551 24.012-33.547-19.332 33.645-26.914c3.8047-3.0469 4.4219-8.6055 1.375-12.414-3.0469-3.8047-8.6055-4.4219-12.41-1.375l-39.047 31.242-28.742-16.527 43.609-36.344c3.75-3.1211 4.2578-8.6875 1.1406-12.438-3.1211-3.75-8.6914-4.2578-12.441-1.1406l-48.621 40.527-13.648-7.8555 1.4297-33.887c3.2695-24.414-6.9609-48.68-26.719-63.383l-30.078-22.363 11.363-17.84 78.141 46.883c1.0508 0.60547 2.2148 0.98047 3.418 1.1055 0.21094 0 0.39453 0.070312 0.60938 0.085937 0.21094 0.019532 0.34375 0.0625 0.51172 0.0625 1.0898 0.003906 2.1758-0.19531 3.1953-0.58984l89.422-34.488c1.6367-0.625 3.4688-0.41016 4.918 0.57422 1.4531 0.99609 2.3164 2.6484 2.3047 4.4141v9.7109l-31.781 23.832c-3.8984 2.9297-4.6836 8.4648-1.7539 12.359 0.019531 0.027344 0.039062 0.054688 0.058594 0.078125l88.277 114.76c2.2812 2.9883 6.2148 4.1914 9.7812 2.9922l24.812-8.2734 79.328 5.668c19.305 1.4297 34.262 17.469 34.336 36.828z"/>
 <path d="m52.965 256h-44.137c-4.875 0-8.8281 3.9531-8.8281 8.8281s3.9531 8.8281 8.8281 8.8281h44.137c4.875 0 8.8281-3.9531 8.8281-8.8281s-3.9531-8.8281-8.8281-8.8281z"/>
 <path d="m0 317.79c0 4.875 3.9531 8.8281 8.8281 8.8281h114.76c4.875 0 8.8281-3.9531 8.8281-8.8281s-3.9531-8.8281-8.8281-8.8281h-114.76c-4.875 0-8.8281 3.9531-8.8281 8.8281z"/>
 <path d="m220.69 361.93h-211.86c-4.875 0-8.8281 3.9492-8.8281 8.8242s3.9531 8.8281 8.8281 8.8281h211.86c4.875 0 8.8242-3.9531 8.8242-8.8281s-3.9492-8.8242-8.8242-8.8242z"/>
</svg>
