<?xml version="1.0" encoding="UTF-8"?>
<svg width="512pt" height="512pt" fill="#00ffc4" viewBox="0 -20 512 511" xmlns="http://www.w3.org/2000/svg">
 <g fill-rule="evenodd">
  <path d="m418.7 41.07c-5.2422-1.7305-10.898 1.1172-12.629 6.3633-1.7305 5.2422 1.1172 10.898 6.3594 12.629 47.59 15.707 79.566 59.957 79.566 110.11 0 47.273-28.266 89.402-72.012 107.32-0.003906 0.003906-0.011719 0.007812-0.019531 0.011718s-0.015625 0.003906-0.023438 0.007813c-13.906 5.7773-28.258 8.5859-43.875 8.5859-5.5195 0-10 4.4766-10 10 0 5.5234 4.4805 10 10 10 10.363 0 20.27-1.0625 29.887-3.2227-8.5039 16.762-24.371 42.34-51.254 67.582-41.977 39.41-119.86 85.406-253.02 81.672-5.8516-4.4141-22.914-18.555-39.777-44.664-19.117-29.594-41.902-81.117-41.902-158.5 0-77.727 6.3203-129.99 19.895-164.49 12.633-32.105 31.77-49.801 62.051-57.371 47.023-11.754 66.109-5.6719 73.836 1.5 7.2656 6.7422 9.4141 19.066 6.3945 36.641-4.1367 24.027-11.027 38.613-21.688 45.898-10.809 7.3867-27.465 8.6523-50.918 3.8672-9.1602-1.9922-20.508-5.0703-29.633-8.043-5.25-1.7148-10.895 1.1602-12.605 6.4102-1.7109 5.25 1.1602 10.895 6.4102 12.605 7.2773 2.3711 15.879 4.8047 23.848 6.7695 0.66797 25.676 6.7891 103.95 55.547 139.59-12.328 36.957-8.1562 64.125-7.9609 65.336 0.79297 4.9102 5.0391 8.4023 9.8594 8.4023 0.53125 0 1.0664-0.039062 1.6094-0.12891 5.4531-0.88281 9.1562-6.0156 8.2734-11.469-0.042969-0.26562-4.1055-26.762 9.6016-62.547 0.007813-0.019531 0.011719-0.042969 0.019531-0.0625 0.007813-0.023438 0.015626-0.039062 0.023438-0.058594 12.324-33.457 34.738-61.664 66.734-84.031 2.5547 19.656 9.3477 38.516 20.051 55.32 1.9062 2.9922 5.1406 4.6289 8.4453 4.6289 1.8359 0 3.6953-0.50781 5.3633-1.5664 4.6562-2.9688 6.0273-9.1484 3.0586-13.809-11.824-18.562-18.074-40.066-18.074-62.191v-0.015625c0.007813-50.141 31.977-94.383 79.562-110.09 5.2422-1.7305 8.0938-7.3867 6.3594-12.633-1.7305-5.2422-7.3906-8.0898-12.629-6.3594-54 17.824-90.852 66.984-93.176 123.42-36.891 23.125-63.586 52.793-79.555 88.379-34.988-29.762-41.664-90.664-42.902-116.18 23.168 3.1055 40.512 0.16406 53.969-9.0312 15.641-10.691 24.93-28.895 30.113-59.027 4.2422-24.656 0.039063-43.055-12.5-54.688-16.742-15.539-46.93-17.582-92.289-6.2422-36.691 9.1719-60.781 31.238-75.812 69.449-14.52 36.91-21.281 91.504-21.281 171.82 0 82.926 24.902 138.45 45.793 170.41 22.977 35.16 46.121 50.41 47.098 51.039 1.5234 0.99219 3.2891 1.5469 5.1055 1.6055 6.3672 0.21484 12.668 0.32031 18.91 0.32031 54.949-0.003906 104.94-8.2422 148.81-24.555 39.363-14.633 73.906-35.746 102.67-62.754 41.07-38.559 58.383-77.75 63.352-90.824 48.906-21.93 80.258-70.133 80.258-124.04 0-58.797-37.492-110.68-93.297-129.1z"/>
  <path d="m376.07 54.238c5.5078 0 10-4.4922 10-10 0-5.5078-4.4922-10-10-10-5.5078 0-10 4.4922-10 10 0 5.5078 4.4922 10 10 10z"/>
 </g>
</svg>
