<svg id="Capa_1" enable-background="new 0 0 512 512" height="512" viewBox="0 0 512 512" width="512" xmlns="http://www.w3.org/2000/svg"><g><path d="m491.205 381.363h-86.761c4.944-5.731 8.465-12.727 9.978-20.439.143-.731 3.071-39.018 2.607-52.42-.425-12.276-2.095-24.384-4.962-35.988-.994-4.021-5.063-6.475-9.08-5.481-4.021.994-6.476 5.059-5.481 9.08 2.331 9.433 3.789 19.242 4.358 29.211-8.863 6.799-32.965 22.11-63.461 15.889-4.43-34.04-26.009-43.927-42.591-56.167l10.836-4.585c13.566-5.74 19.903-21.365 14.162-34.935-4.07-9.618-13.161-15.603-22.937-16.212 5.039-4.016 9.263-8.985 12.451-14.705 14.54-3.975 30.421-.603 42.083 9.098 14.154 11.774 25.42 25.635 33.486 41.198 1.901 3.668 6.424 5.118 10.11 3.208 3.678-1.906 5.114-6.432 3.208-10.11-8.991-17.348-21.511-32.767-37.211-45.828-12.857-10.694-29.595-15.572-45.947-13.853 1.466-8.746.58-17.758-2.692-26.25l-3.775-9.798c-1.332-3.458-3.018-6.676-4.984-9.647 13.593-11.887 10.37-34.041-6.302-41.439-14.884-6.603-32.186 2.696-34.672 18.975-6.279-.115-12.68.943-18.891 3.336-21.367 8.233-33.876 29.585-31.915 51.336.161 3.046 1.234 8.565 3.14 13.513l3.775 9.798c6.469 16.79 21.04 28.12 37.539 31.252.105 2.652.292 5.224.565 7.705l-68.36 38.515c-34.404 19.384-55.147 44.47-56.58 45.825-6.467 7.084-1.239 18.214 7.99 18.214 3.896 0 2.743-.545 41.496-16.623 3.815-1.614 5.599-6.015 3.985-9.83-1.614-3.814-6.014-5.599-9.83-3.985l-18.395 7.783c11.714-10.928 24.679-20.418 38.696-28.316l95.221-53.649c5.838-2.256 12.475.529 14.93 6.332 2.509 5.932-.259 12.765-6.192 15.275l-21.932 9.279c-.018.007-.036.016-.055.023l-69.741 29.507c-3.815 1.614-5.599 6.015-3.985 9.83s6.018 5.6 9.83 3.985l65.195-27.584c18.076 15.823 38.501 20.493 43.127 49.463l-51.937 9.413c-.26.048 6.606-1.218-121.981 22.49-8.265 1.758-16.592-3.411-18.567-11.563l-1.17-5.361c-1.787-8.209-9.183-14.168-17.585-14.168-9.95 0-18.004 8.056-17.998 18.008l.02 31.746c-.155 3.387.415 6.649 1.556 9.647h-74.784c-11.466.002-20.795 9.331-20.795 20.798s9.329 20.795 20.795 20.795h470.409c11.467 0 20.795-9.329 20.795-20.795s-9.328-20.796-20.794-20.796zm-198.989-276.462c6.673 2.961 7.952 11.921 2.306 16.6-4.797-3.911-10.265-6.904-16.11-8.828.853-6.586 7.799-10.436 13.804-7.772zm-42.087 22.597c4.144-1.597 8.408-2.353 12.604-2.353 14.127 0 27.48 8.574 32.855 22.524l3.775 9.797c2.043 5.303 2.701 10.802 2.167 16.104l-22.667-11.813c-1.437-.749-2.549-1.994-3.132-3.507-4.293-11.141-16.85-16.711-27.989-12.419l-19.412 7.48c2.329-11.357 10.201-21.344 21.799-25.813zm-16.396 55.257-3.775-9.798c-.476-1.236-.871-2.483-1.2-3.735l24.378-9.393c3.422-1.318 7.28.393 8.598 3.814 1.897 4.924 5.519 8.979 10.198 11.417l24.856 12.954c-3.888 6.583-9.925 11.956-17.597 14.912-4.145 1.597-8.407 2.354-12.604 2.353-14.124-.001-27.479-8.575-32.854-22.524zm40.267 162.565 57.167-10.361c30.54 7.808 56.05-2.719 70.762-11.595-.125 2.537-.059 1.138-2.317 35.114-2.471 11.645-11.854 20.748-23.552 22.885h-217.991l.579-14.792zm-164.978 26.576-.02-31.935c-.001-1.655 1.34-3 2.998-3 1.399 0 2.631.992 2.929 2.359.022.1 1.342 6.126 1.258 5.745 3.207 13.235 14.429 22.302 27.38 23.269l-.51 13.028h-27.752c-3.708-1.138-6.283-4.204-6.283-9.466zm382.183 36.058h-470.41c-3.196 0-5.795-2.6-5.795-5.795s2.6-5.795 5.795-5.795h470.409c3.196 0 5.795 2.6 5.795 5.795s-2.599 5.795-5.794 5.795z"/></g></svg>