<?xml version="1.0" encoding="UTF-8"?>
<!-- Generator: Adobe Illustrator 17.1.0, SVG Export Plug-In . SVG Version: 6.00 Build 0)  -->
<!DOCTYPE svg  PUBLIC '-//W3C//DTD SVG 1.1//EN'  'http://www.w3.org/Graphics/SVG/1.1/DTD/svg11.dtd'>
<svg id="Capa_1" width="46" height="55" enable-background="new 0 0 428.681 428.681" fill="#00ffc4" version="1.1" viewBox="0 0 428.68 428.68" xml:space="preserve" xmlns="http://www.w3.org/2000/svg">
<path d="m134.62 150c10.72 6.369 22.844 9.552 34.863 9.552 12.016 0 24.09-3.185 34.807-9.551 25.499-15.148 39.354-45.113 37.966-82.214-1.679-44.887-38.663-66.603-72.327-67.784-0.233-8e-3 -0.461-8e-3 -0.694 0-33.666 1.182-70.877 22.897-72.554 67.784-0.073 1.968 3e-3 12.644 0.33 15.856 3.03 29.723 15.856 53.433 37.609 66.357zm59.51-17.193c-15.136 8.99-33.939 8.991-49.075-1e-3 -14.926-8.867-24.461-25.221-27.332-46.147 16.828 3.678 34.848 5.817 52.861 6.244 0.157 4e-3 0.315 4e-3 0.474 0 17.358-0.411 34.229-2.321 50.328-5.689-2.962 20.662-12.461 36.803-27.256 45.593zm-24.538-112.8c11.237 0.453 22.601 3.706 31.888 9.97-10.003 1.415-20.257 2.257-30.659 2.513-11.109-0.273-22.04-1.213-32.677-2.807 9.205-6.073 20.388-9.231 31.448-9.676zm-47.363 27.189c15.556 3.122 31.786 4.9 48.355 5.293 0.158 4e-3 0.316 4e-3 0.475 0 15.765-0.374 31.246-2.005 46.121-4.854 2.732 5.457 4.504 11.754 5.011 18.919-16.21 3.737-33.8 5.92-51.369 6.352-18.469-0.454-36.896-2.834-53.782-6.923 0.573-7.121 2.404-13.374 5.189-18.787zm239.33 291.04c-1.183 0-2.185 0.205-3.185 0.582v-24.557c0-5.522-4.774-9.584-10.297-9.584h-48.333c-5.522 0-10.37 4.062-10.37 9.584v42.416h-35v-42.416c0-5.522-4.145-9.584-9.667-9.584h-48.33c-5.523 0-10.003 4.062-10.003 9.584v24.256c-1-0.184-1.368-0.281-2.182-0.281-5.523 0-9.818 4.478-9.818 10v36.422c0 5.522 4.295 10 9.818 10 0.814 0 1.182-0.098 2.182-0.281v24.259c0 5.522 4.48 10.042 10.003 10.042h48.33c5.522 0 9.667-4.52 9.667-10.042v-41.958h35v41.958c0 5.522 4.848 10.042 10.37 10.042h48.333c5.522 0 10.297-4.52 10.297-10.042v-24.56c1 0.377 2.002 0.582 3.185 0.582 5.522 0 9.815-4.478 9.815-10v-36.422c0-5.522-4.293-10-9.815-10zm-127.18 70.442h-28v-84h28v84zm104 0h-29v-84h29v84zm-210.66-197.63c4.563 18.893 21.61 32.968 41.884 32.968s37.321-14.075 41.884-32.968c13.417 7.877 23.803 20.224 27.006 37.525l3.108 16.778c1.007 5.431 6.23 9.012 11.654 8.012 5.431-1.007 9.018-6.225 8.012-11.654l-3.108-16.576c-8.27-44.662-50.435-64.453-88.553-64.453h-2e-3c-38.118 0-80.285 19.792-88.556 64.452l-23.568 127.13c-0.542 2.921 0.245 5.729 2.145 8.014s4.717 3.403 7.688 3.403h64.669c5.523 0 10-4.478 10-10 0-5.523-4.478-10-10-10h-52.647l21.378-115.26c3.205-17.303 13.589-29.497 27.006-37.374zm41.887-10.771c7.622 0 15.442 0.975 22.964 2.981-1.171 11.64-11.024 20.757-22.967 20.757s-21.796-9.116-22.966-20.757c7.524-2.007 15.345-2.981 22.969-2.981z"/>















</svg>
