<svg xmlns="http://www.w3.org/2000/svg" width="25" height="20" viewBox="0 0 25 20">
  <defs>
    <style>
      .cls-1 {
        fill: #fff;
        fill-rule: evenodd;
      }
    </style>
  </defs>
  <path id="Twitter" class="cls-1" d="M22.408,5a11.033,11.033,0,0,0,2.586-2.645,10.9,10.9,0,0,1-2.927.818A5,5,0,0,0,24.311.389a10.569,10.569,0,0,1-3.269,1.2A5.871,5.871,0,0,0,19.359.435a4.941,4.941,0,0,0-2.074-.43,5.042,5.042,0,0,0-4.391,2.523,4.948,4.948,0,0,0-.683,2.522,6.927,6.927,0,0,0,.1,1.157A14.43,14.43,0,0,1,6.429,4.67,14.094,14.094,0,0,1,1.77.918a4.83,4.83,0,0,0-.1,4.95A5.6,5.6,0,0,0,3.331,7.7a4.844,4.844,0,0,1-2.293-.673V7.118a4.8,4.8,0,0,0,1.171,3.175,5.17,5.17,0,0,0,2.928,1.78,6.59,6.59,0,0,1-1.366.146,9.175,9.175,0,0,1-.927-0.05,5.025,5.025,0,0,0,1.781,2.477,4.825,4.825,0,0,0,3,.987,10.245,10.245,0,0,1-6.392,2.161c-0.455,0-.862-0.015-1.22-0.047a14.365,14.365,0,0,0,7.855,2.259,14.226,14.226,0,0,0,7.953-2.259,13.824,13.824,0,0,0,4.928-5.433,14.092,14.092,0,0,0,1.707-6.683A2.887,2.887,0,0,0,22.408,5Z"/>
</svg>
