<svg xmlns="http://www.w3.org/2000/svg" width="20" height="20" viewBox="0 0 20 20">
  <defs>
    <style>
      .cls-1 {
        fill: #00ffc4;
        fill-rule: evenodd;
      }
    </style>
  </defs>
  <path id="Whatsapp" class="cls-1" d="M20,9.744A9.839,9.839,0,0,1,5.428,18.278L-0.01,20.005l1.773-5.23A9.645,9.645,0,0,1,.354,9.743,9.822,9.822,0,0,1,20,9.744ZM10.174,1.552A8.235,8.235,0,0,0,1.918,9.746a8.105,8.105,0,0,0,1.573,4.8L2.46,17.591l3.172-1.008a8.267,8.267,0,0,0,12.8-6.839A8.234,8.234,0,0,0,10.174,1.552Zm4.961,10.437a1.254,1.254,0,0,0-.462-0.279c-0.239-.12-1.425-0.7-1.645-0.776a0.377,0.377,0,0,0-.543.118c-0.159.24-.62,0.777-0.762,0.938a0.371,0.371,0,0,1-.521.062,6.64,6.64,0,0,1-1.937-1.186A7.2,7.2,0,0,1,7.927,9.213a0.345,0.345,0,0,1,.105-0.487c0.108-.108.241-0.28,0.361-0.42a1.6,1.6,0,0,0,.241-0.4,0.445,0.445,0,0,0-.02-0.42C8.554,7.37,8.073,6.2,7.871,5.718s-0.4-.4-0.542-0.4S7.029,5.3,6.869,5.3a0.88,0.88,0,0,0-.641.3,2.671,2.671,0,0,0-.842,1.992,4.619,4.619,0,0,0,.983,2.471,9.857,9.857,0,0,0,4.113,3.606c2.448,0.956,2.448.637,2.889,0.6a2.429,2.429,0,0,0,1.624-1.135A1.984,1.984,0,0,0,15.135,11.989Z"/>
</svg>
