<svg xmlns="http://www.w3.org/2000/svg" width="26" height="20" viewBox="0 0 26 20"><g><g><path fill="#ff396c" d="M25.154 6.21a.64.64 0 0 1 .191.45l-.041 8.75c0 .318-.232.572-.516.572H23.74c-.284 0-.516-.26-.516-.577 0-.318.232-.577.516-.577h.537l.036-7.902-3.365-3.117h-4.16v11.03h1.038c.284 0 .516.26.516.577 0 .318-.232.578-.516.578h-6.302c-.284 0-.516-.26-.516-.578 0-.317.232-.577.516-.577h4.232V1.154H3.638v3.648c0 .318-.232.577-.516.577-.284 0-.516-.26-.516-.577V.577c0-.317.232-.577.516-.577h13.145c.284 0 .516.26.516.577v2.078h4.346c.124 0 .237.046.33.133l3.695 3.422zM2.1 6.412c0-.317.233-.577.517-.577h6.26c.284 0 .516.26.516.577 0 .318-.232.578-.516.578h-6.26c-.284 0-.517-.26-.517-.578zM1.053 9.027c0-.317.232-.571.516-.571h.005l6.26.04c.284 0 .516.26.511.583-.005.317-.237.571-.521.571l-6.26-.04c-.284 0-.516-.26-.511-.583zm5.723 3.244H.516c-.284 0-.516-.26-.516-.577 0-.318.232-.578.516-.578h6.26c.284 0 .516.26.516.578 0 .323-.232.577-.516.577zm-1.584 3.145c0 .318-.232.578-.516.578H3.122c-.284 0-.516-.26-.516-.578v-2.112c0-.318.232-.577.516-.577.284 0 .516.26.516.577v1.535h1.038c.284 0 .516.26.516.577zm4.196 1.31c0-.796-.568-1.442-1.27-1.442-.712 0-1.31.658-1.31 1.443s.598 1.443 1.31 1.443c.702 0 1.27-.647 1.27-1.443zm1.032 0c0 1.432-1.032 2.598-2.302 2.598-.62 0-1.202-.271-1.651-.762a2.712 2.712 0 0 1-.692-1.835c0-.693.248-1.34.692-1.836.443-.49 1.032-.762 1.651-.762 1.27 0 2.302 1.166 2.302 2.598zM22.01 7.724l-1.238-1.247h-1.93v3.584h3.168zm.862-.681a.61.61 0 0 1 .17.427v3.168c0 .318-.232.578-.516.578h-4.2c-.284 0-.517-.26-.517-.578V5.905c0-.318.233-.578.516-.578h2.648c.129 0 .253.052.346.15zm-.882 9.685c0-.797-.568-1.443-1.27-1.443-.712 0-1.31.658-1.31 1.443s.598 1.443 1.31 1.443c.702 0 1.27-.647 1.27-1.443zm1.032 0c0 1.431-1.032 2.597-2.302 2.597-.62 0-1.202-.271-1.651-.762a2.712 2.712 0 0 1-.692-1.835c0-.693.248-1.34.692-1.836.443-.49 1.032-.762 1.651-.762 1.27 0 2.302 1.166 2.302 2.598z"/></g></g></svg>