<svg xmlns="http://www.w3.org/2000/svg" width="36" height="36" viewBox="0 0 36 36"><g><g><g><path fill="#ff396c" d="M18.667 12.259c0-2.474-1.455-6.293-4.292-6.293-.873 0-1.855.436-2.401 1.127-.582.728-.764 1.637-.764 2.547 0 2.291 1.346 6.074 4.256 6.074.837 0 1.782-.4 2.328-.945.8-.8.873-1.892.873-2.51z"/></g><g><path fill="#ff396c" d="M16.848 21.243c-.254-.036-.436-.036-.8-.036-.291 0-2.146.073-3.601.546-.764.254-2.947 1.091-2.947 3.528.037 2.437 2.365 4.183 6.039 4.183 3.274 0 5.02-1.564 5.02-3.71 0-1.746-1.128-2.655-3.71-4.51z"/></g><g><path fill="#ff396c" d="M28.598 17.351v3.456h-1.674v-3.456h-3.419v-1.71h3.42v-3.419h1.673v3.42h3.419v1.71zM13.865 30.883c-4.947 0-7.348-2.364-7.348-4.91 0-1.237.619-2.983 2.62-4.184 2.11-1.31 4.983-1.455 6.51-1.564-.472-.618-1.018-1.273-1.018-2.328 0-.582.182-.91.328-1.346-.364.036-.764.073-1.092.073-3.6.036-5.638-2.656-5.638-5.348 0-1.564.728-3.31 2.183-4.583 1.964-1.6 4.62-2.037 6.438-2.037h6.73l-2.22 1.382H19.25c.8.655 2.437 2.001 2.437 4.62 0 2.546-1.418 3.747-2.873 4.874-.437.437-.946.91-.946 1.674 0 .764.509 1.164.873 1.455l1.237.946c1.491 1.273 2.873 2.437 2.873 4.801 0 3.238-3.128 6.475-8.985 6.475zM18.012 0C8.191 0 .224 7.966.224 17.788c0 9.821 7.967 17.788 17.788 17.788 9.822 0 17.788-7.967 17.788-17.788C35.8 7.966 27.834 0 18.012 0z"/></g></g></g></svg>