<svg xmlns="http://www.w3.org/2000/svg" width="36" height="36" viewBox="0 0 36 36"><g><g><g><path fill="#ff396c" d="M21.312 17.788a3.401 3.401 0 0 1-3.404 3.404 3.401 3.401 0 0 1-3.405-3.404 3.401 3.401 0 0 1 3.405-3.405 3.401 3.401 0 0 1 3.404 3.405z"/></g><g><path fill="#ff396c" d="M23.362 13.563a1.225 1.225 0 0 1-1.223-1.223c0-.674.55-1.223 1.223-1.223.674 0 1.223.55 1.223 1.223 0 .674-.549 1.223-1.223 1.223zm-5.454 9.47a5.246 5.246 0 1 1 0-10.49 5.246 5.246 0 0 1 0 10.49zm7.962-11.27a3.155 3.155 0 0 0-.764-1.174 3.155 3.155 0 0 0-1.174-.764c-.361-.139-.903-.306-1.897-.354-1.077-.049-1.404-.063-4.127-.063-2.731 0-3.05.007-4.128.063-.993.048-1.535.215-1.897.354a3.155 3.155 0 0 0-1.174.764c-.34.327-.597.73-.764 1.175-.14.36-.306.903-.355 1.896-.048 1.077-.062 1.397-.062 4.128 0 2.73.014 3.05.062 4.127.05.994.209 1.536.355 1.897.167.445.424.848.764 1.174.327.34.73.598 1.174.765.362.139.904.305 1.897.354 1.077.049 1.397.063 4.128.063 2.73 0 3.05-.007 4.127-.063.994-.049 1.536-.208 1.897-.354a3.373 3.373 0 0 0 1.938-1.939c.14-.361.306-.903.355-1.897.048-1.077.062-1.403.062-4.127 0-2.73-.007-3.05-.062-4.128-.049-.993-.216-1.535-.355-1.896z"/></g><g><path fill="#ff396c" d="M28.06 21.998c-.05 1.084-.223 1.828-.473 2.481a5.208 5.208 0 0 1-2.988 2.988c-.646.25-1.39.424-2.48.472-1.092.049-1.439.063-4.211.063-2.773 0-3.12-.014-4.211-.063-1.084-.048-1.827-.222-2.48-.472-.682-.257-1.3-.66-1.807-1.181a4.973 4.973 0 0 1-1.181-1.807c-.25-.646-.424-1.39-.473-2.48-.049-1.091-.062-1.439-.062-4.211 0-2.773.013-3.12.062-4.21.049-1.085.222-1.828.473-2.481.257-.681.66-1.3 1.18-1.807a4.973 4.973 0 0 1 1.807-1.181c.654-.25 1.39-.424 2.481-.473 1.09-.048 1.438-.062 4.21-.062 2.773 0 3.12.014 4.211.062 1.084.049 1.828.223 2.48.473.682.257 1.3.66 1.808 1.181a4.973 4.973 0 0 1 1.18 1.807c.25.653.425 1.39.473 2.48.049 1.091.063 1.438.063 4.21 0 2.773-.014 3.12-.063 4.211zM17.907 0C8.083 0 .12 7.963.12 17.788s7.963 17.788 17.788 17.788 17.787-7.963 17.787-17.788S27.733 0 17.908 0z"/></g></g></g></svg>