<svg xmlns="http://www.w3.org/2000/svg" width="12.267" height="8.625" viewBox="0 0 12.267 8.625"><g transform="translate(-17 -21)"><path d="M11.787,236H.479a.479.479,0,1,0,0,.958H11.787a.479.479,0,1,0,0-.958Z" transform="translate(17 -211.167)" fill="#fff"/><path d="M11.787,76H.479a.479.479,0,0,0,0,.958H11.787a.479.479,0,0,0,0-.958Z" transform="translate(17 -55)" fill="#fff"/><path d="M11.787,396H.479a.479.479,0,1,0,0,.958H11.787a.479.479,0,1,0,0-.958Z" transform="translate(17 -367.333)" fill="#fff"/></g></svg>