<svg xmlns="http://www.w3.org/2000/svg" width="25" height="25" viewBox="0 0 25 25"><g transform="translate(-0.448 -0.495)"><path d="M83.783,74.16a.619.619,0,0,0-.875,0L78.971,78.1,75.035,74.16a.619.619,0,0,0-.89.859l.015.015L78.1,78.972,74.16,82.908a.619.619,0,1,0,.859.89l.015-.015,3.936-3.937,3.936,3.937a.619.619,0,0,0,.874-.875l-3.936-3.937,3.936-3.937a.619.619,0,0,0,0-.875Zm0,0" transform="translate(-66.086 -66.041)" fill="#949494"/><g transform="translate(0.448 0.495)" fill="none" stroke="#949494" stroke-width="1"><circle cx="12.5" cy="12.5" r="12.5" stroke="none"/><circle cx="12.5" cy="12.5" r="12" fill="none"/></g></g></svg>