<?xml version="1.0" encoding="UTF-8" standalone="no"?>
<!DOCTYPE svg PUBLIC "-//W3C//DTD SVG 1.1//EN" "http://www.w3.org/Graphics/SVG/1.1/DTD/svg11.dtd">
<svg version="1.1" xmlns="http://www.w3.org/2000/svg" xmlns:xlink="http://www.w3.org/1999/xlink" preserveAspectRatio="xMidYMid meet" viewBox="0 0 15 27" width="15" height="27"><defs><path d="M2.18 1.23C1.91 0.95 1.47 0.94 1.19 1.21C1.19 1.22 1.18 1.22 1.18 1.23C0.9 1.5 0.89 1.94 1.16 2.22C1.17 2.22 1.17 2.23 1.18 2.23C1.93 2.98 5.69 6.74 12.47 13.52C5.69 20.29 1.93 24.05 1.18 24.81C0.9 25.08 0.89 25.52 1.16 25.8C1.17 25.8 1.17 25.8 1.18 25.81C1.31 25.94 1.49 26.01 1.67 26.02C1.86 26.02 2.04 25.94 2.17 25.81C3.35 24.63 12.79 15.19 13.97 14.01C14.24 13.75 14.25 13.3 13.98 13.03C13.98 13.03 13.98 13.02 13.97 13.02C11.62 10.66 3.36 2.41 2.18 1.23Z" id="h20ojTFYzd"></path><path d="M13.97 13.02C6.9 5.94 2.97 2.01 2.18 1.23C1.91 0.95 1.47 0.94 1.19 1.21C1.19 1.22 1.18 1.22 1.18 1.23C0.9 1.5 0.89 1.94 1.16 2.22C1.17 2.22 1.17 2.23 1.18 2.23C1.93 2.98 5.69 6.74 12.47 13.52L12.47 13.52C5.69 20.29 1.93 24.05 1.18 24.81C0.9 25.08 0.89 25.52 1.16 25.8C1.17 25.8 1.17 25.8 1.18 25.81C1.31 25.94 1.49 26.01 1.67 26.02C1.86 26.02 2.04 25.94 2.17 25.81C3.35 24.63 12.79 15.19 13.97 14.01C14.24 13.75 14.25 13.3 13.98 13.03C13.98 13.03 13.98 13.02 13.97 13.02C13.97 13.02 13.97 13.02 13.97 13.02Z" id="a10UuOH1x"></path></defs><g><g><g><use xlink:href="#h20ojTFYzd" opacity="1" fill="#949494" fill-opacity="1"></use><g><use xlink:href="#h20ojTFYzd" opacity="1" fill-opacity="0" stroke="#000000" stroke-width="1" stroke-opacity="0"></use></g></g><g><use xlink:href="#a10UuOH1x" opacity="1" fill="#000000" fill-opacity="0"></use><g><use xlink:href="#a10UuOH1x" opacity="1" fill-opacity="0" stroke="#949494" stroke-width="0.3" stroke-opacity="1"></use></g></g></g></g></svg>