<svg xmlns="http://www.w3.org/2000/svg" width="30" height="30" viewBox="0 0 30 30"><g><g><path fill="#fe396c" d="M28.776 14.994c0 7.535-6.131 13.66-13.66 13.66-7.536 0-13.66-6.132-13.66-13.66 0-7.536 6.13-13.66 13.66-13.66 7.529 0 13.66 6.13 13.66 13.66zM15.116 30c4.008 0 7.779-1.565 10.613-4.4a14.885 14.885 0 0 0 4.393-10.606c0-4.009-1.564-7.773-4.4-10.601A14.886 14.886 0 0 0 15.117 0 14.897 14.897 0 0 0 4.508 4.393 14.885 14.885 0 0 0 .115 15c0 4.008 1.559 7.773 4.393 10.607A14.923 14.923 0 0 0 15.116 30z"/></g><g><path fill="#ff396c" d="M19.716 15.31l-6.964-6.963a.414.414 0 0 0-.592 0 .414.414 0 0 0 0 .592l6.665 6.666-6.665 6.665a.414.414 0 0 0 0 .592c.078.078.19.123.294.123.102 0 .215-.04.293-.123l6.964-6.964a.412.412 0 0 0 .005-.587z"/><path fill="none" stroke="#ff396c" stroke-miterlimit="50" stroke-width=".3" d="M19.716 15.31v0l-6.964-6.963a.414.414 0 0 0-.592 0 .414.414 0 0 0 0 .592l6.665 6.666v0L12.16 22.27a.414.414 0 0 0 0 .592c.078.078.19.123.294.123.102 0 .215-.04.293-.123l6.964-6.964a.412.412 0 0 0 .005-.587z"/></g></g></svg>