<svg xmlns="http://www.w3.org/2000/svg" width="15" height="27" viewBox="0 0 15 27"><g><g><path fill="#ff396c" d="M13.633 12.99L1.839 1.195a.7.7 0 0 0-1.003 0 .7.7 0 0 0 0 1.003l11.288 11.288L.836 24.774a.7.7 0 0 0 0 1.003.725.725 0 0 0 .498.207.69.69 0 0 0 .497-.207l11.793-11.793a.698.698 0 0 0 .009-.995z"/><path fill="none" stroke="#ff396c" stroke-miterlimit="50" stroke-width=".3" d="M13.633 12.99v0L1.839 1.195a.7.7 0 0 0-1.003 0 .7.7 0 0 0 0 1.003l11.288 11.288v0L.836 24.774a.7.7 0 0 0 0 1.003.725.725 0 0 0 .498.207.69.69 0 0 0 .497-.207l11.793-11.793a.698.698 0 0 0 .009-.995z"/></g></g></svg>