<svg xmlns="http://www.w3.org/2000/svg" width="15" height="27" viewBox="0 0 16 27"><g><g><path fill="#fff" d="M14.321 12.99L2.528 1.195a.7.7 0 0 0-1.003 0 .7.7 0 0 0 0 1.003l11.288 11.288L1.525 24.775a.7.7 0 0 0 0 1.002.725.725 0 0 0 .497.208.69.69 0 0 0 .497-.208l11.794-11.793a.698.698 0 0 0 .008-.995z"/><path fill="none" stroke="#fff" stroke-miterlimit="50" stroke-width=".3" d="M14.321 12.99v0L2.528 1.195a.7.7 0 0 0-1.003 0 .7.7 0 0 0 0 1.003l11.288 11.288v0L1.525 24.775a.7.7 0 0 0 0 1.002.725.725 0 0 0 .497.208.69.69 0 0 0 .497-.208l11.794-11.793a.698.698 0 0 0 .008-.995z"/></g></g></svg>