<svg xmlns="http://www.w3.org/2000/svg" width="19.539" height="19.537" viewBox="0 0 19.539 19.537"><g transform="translate(-0.663 0.25)"><path d="M4.755,12.654a20.2,20.2,0,0,0,6.718,5.262,10.455,10.455,0,0,0,3.759,1.112c.091,0,.178.008.268.008A3.113,3.113,0,0,0,17.914,18a.086.086,0,0,0,.016-.02,10.164,10.164,0,0,1,.761-.789c.185-.178.375-.363.556-.552a1.9,1.9,0,0,0-.008-2.836l-2.371-2.371a1.919,1.919,0,0,0-1.389-.639,1.984,1.984,0,0,0-1.4.635L12.664,12.84c-.13-.075-.264-.142-.391-.205a4.877,4.877,0,0,1-.434-.237,14.946,14.946,0,0,1-3.57-3.25A8.607,8.607,0,0,1,7.062,7.223c.371-.335.718-.686,1.053-1.03.118-.122.241-.245.363-.367a2.022,2.022,0,0,0,.655-1.42,2.006,2.006,0,0,0-.655-1.42L7.3,1.811c-.138-.138-.268-.272-.4-.41-.26-.268-.533-.544-.8-.793A1.967,1.967,0,0,0,4.711,0a2.025,2.025,0,0,0-1.4.611L1.832,2.087a3.031,3.031,0,0,0-.9,1.941,7.3,7.3,0,0,0,.548,3.156A18.359,18.359,0,0,0,4.755,12.654ZM1.891,4.11a2.086,2.086,0,0,1,.627-1.341L3.986,1.3A1.062,1.062,0,0,1,4.711.966a1.008,1.008,0,0,1,.71.343c.264.245.513.5.781.773.134.138.272.276.41.418L7.788,3.676a1.071,1.071,0,0,1,.371.738,1.071,1.071,0,0,1-.371.738c-.122.122-.245.249-.367.371-.367.371-.71.722-1.089,1.057l-.02.02a.771.771,0,0,0-.2.876c0,.012.008.02.012.032A9.284,9.284,0,0,0,7.512,9.759a15.774,15.774,0,0,0,3.8,3.463,5.647,5.647,0,0,0,.521.284,4.877,4.877,0,0,1,.434.237l.043.024a.825.825,0,0,0,.383.1.837.837,0,0,0,.588-.268l1.475-1.475a1.044,1.044,0,0,1,.722-.351.991.991,0,0,1,.7.351L18.557,14.5a.951.951,0,0,1-.012,1.487c-.166.178-.339.347-.525.525a11.359,11.359,0,0,0-.824.856,2.166,2.166,0,0,1-1.692.718c-.067,0-.138,0-.205-.008a9.5,9.5,0,0,1-3.4-1.018A19.186,19.186,0,0,1,5.5,12.047,17.573,17.573,0,0,1,2.388,6.86,6.362,6.362,0,0,1,1.891,4.11Z" transform="translate(0 0)" fill="#ff396c" stroke="#ff396c" stroke-width="0.5"/></g></svg>