<svg xmlns="http://www.w3.org/2000/svg" width="21.243" height="21.245" viewBox="0 0 21.243 21.245">
  <g id="phone" transform="translate(-0.011)">
    <g id="Group_11" data-name="Group 11" transform="translate(0.011 0)">
      <path id="Path_56" data-name="Path 56" d="M20.708,15.669l-2.641-2.641a1.87,1.87,0,0,0-2.641,0l-1.2,1.2a1.416,1.416,0,0,1-2,0l-5.2-5.208a1.414,1.414,0,0,1,0-2l1.2-1.2a1.866,1.866,0,0,0,0-2.642L5.581.546a1.869,1.869,0,0,0-2.639,0L1.98,1.5a6.742,6.742,0,0,0,0,9.524l8.244,8.249a6.73,6.73,0,0,0,9.524,0l.96-.96A1.87,1.87,0,0,0,20.708,15.669ZM3.821,1.427a.623.623,0,0,1,.881,0l2.64,2.632a.622.622,0,0,1,0,.88l-.44.44L3.383,1.861ZM11.1,18.39,2.86,10.142a5.473,5.473,0,0,1-.343-7.386L6.026,6.264A2.657,2.657,0,0,0,6.141,9.9l5.2,5.207h0a2.657,2.657,0,0,0,3.637.116l3.509,3.509A5.462,5.462,0,0,1,11.1,18.39Zm8.723-.96-.44.44-3.521-3.521.44-.44a.623.623,0,0,1,.88,0l2.641,2.641A.623.623,0,0,1,19.828,17.43Z" transform="translate(-0.011 0)" fill="#fed201"/>
    </g>
  </g>
</svg>
