<svg xmlns="http://www.w3.org/2000/svg" width="16" height="15" viewBox="0 0 16 15"><g><g><path fill="#fff" d="M12.228 13.059a.77.77 0 0 1-.77-.77c0-.421.347-.768.77-.768.422 0 .769.347.769.769a.77.77 0 0 1-.77.769zm0-2.697a1.926 1.926 0 0 0-1.925 1.925 1.926 1.926 0 0 0 3.849 0 1.926 1.926 0 0 0-1.924-1.925z"/></g><g><path fill="#fff" d="M13.009 8.38H4.925L3.843 3.858h10.285zm2.31-5.458a.58.58 0 0 0-.455-.22H3.565L3.046.523a.58.58 0 0 0-.56-.444H.578a.577.577 0 1 0 0 1.155h1.45L3.907 9.09a.58.58 0 0 0 .561.443h8.991a.578.578 0 0 0 .561-.437l1.406-5.68a.571.571 0 0 0-.106-.494z"/></g><g><path fill="#fff" d="M5.236 13.059a.77.77 0 0 1-.769-.77c0-.421.347-.768.77-.768.421 0 .768.347.768.769a.77.77 0 0 1-.769.769zm0-2.697a1.926 1.926 0 0 0-1.924 1.925c0 1.062.862 1.924 1.924 1.924a1.926 1.926 0 0 0 1.924-1.924 1.926 1.926 0 0 0-1.924-1.925z"/></g></g></svg>