<svg xmlns="http://www.w3.org/2000/svg" width="23.84" height="22.437" viewBox="0 0 23.84 22.437"><path d="M23.7,17.427a.765.765,0,0,0-.595-.327L8.319,16.463a.765.765,0,0,0-.066,1.528l13.787.594L19.33,27.044H7.266L5.087,15.177a.765.765,0,0,0-.473-.574L1.045,13.2a.765.765,0,1,0-.56,1.424l3.174,1.247L5.877,27.947a.765.765,0,0,0,.752.627H7l-.84,2.334a.638.638,0,0,0,.6.853h.589a2.295,2.295,0,1,0,3.411,0h5a2.295,2.295,0,1,0,3.411,0h.717a.637.637,0,1,0,0-1.275H7.664l.688-1.912H19.887a.765.765,0,0,0,.728-.531L23.8,18.1A.763.763,0,0,0,23.7,17.427ZM9.051,34.31a1.02,1.02,0,1,1,1.02-1.02A1.021,1.021,0,0,1,9.051,34.31Zm8.414,0a1.02,1.02,0,1,1,1.02-1.02A1.021,1.021,0,0,1,17.465,34.31Z" transform="translate(0 -13.148)" fill="#ff396c"/></svg>