<svg width="60" height="57" viewBox="0 0 60 57" fill="none" xmlns="http://www.w3.org/2000/svg">
<path d="M22.4899 12.2281C22.4899 17.8744 17.9057 22.4562 12.2449 22.4562C6.58423 22.4562 2 17.8744 2 12.2281C2 6.58188 6.58423 2 12.2449 2C17.9057 2 22.4899 6.58188 22.4899 12.2281Z" stroke="#00C853" stroke-width="4"/>
<path d="M57.9997 44.0172C57.9997 49.6634 53.4154 54.2453 47.7547 54.2453C42.094 54.2453 37.5098 49.6634 37.5098 44.0172C37.5098 38.3709 42.094 33.7891 47.7547 33.7891C53.4154 33.7891 57.9997 38.3709 57.9997 44.0172Z" stroke="#00C853" stroke-width="4"/>
<line x1="2" y1="-2" x2="71.4192" y2="-2" transform="matrix(-0.707593 0.70662 -0.707593 -0.70662 52.0552 1.28125)" stroke="#00C853" stroke-width="4" stroke-linecap="round"/>
</svg>
