<svg width="84" height="70" viewBox="0 0 84 70" fill="none" xmlns="http://www.w3.org/2000/svg">
<path fill-rule="evenodd" clip-rule="evenodd" d="M6 0C2.68628 0 0 2.6875 0 6V32C0 35.3125 2.68628 38 6 38H55C58.3137 38 61 35.3125 61 32V6C61 2.6875 58.3137 0 55 0H6ZM4 6C4 4.89453 4.89551 4 6 4H55C55.6296 4 56.1914 4.29297 56.5579 4.74609C56.8345 5.08984 57 5.52344 57 6V11H4V6ZM4 17V32C4 33.1055 4.89551 34 6 34H55C56.1045 34 57 33.1055 57 32V17H4Z" fill="#00C853"/>
<path d="M44.0174 30.1179L48.6261 32.2986C59.2363 37.319 71.8455 35.2569 80.3038 27.1182C80.7526 26.6863 81.5 27.0044 81.5 27.6272V49.9307V59.5C72.7378 65.5518 61.555 66.8939 51.6096 63.0873L43.6908 60.0565C36.1393 57.1662 27.9374 56.4126 19.9857 57.8785L18 58.2446V27.4343L19.2829 27.1682C27.6292 25.4367 36.3124 26.4722 44.0174 30.1179Z" fill="white" stroke="#00C853" stroke-width="4" stroke-linejoin="round"/>
<path d="M50 54C46.134 54 43 51.0899 43 47.5M43 47.5C43 43.9101 46.134 41 50 41C53.866 41 57 43.9101 57 47.5H43Z" stroke="#00C853" stroke-width="4"/>
</svg>
