<svg width="64" height="64" viewBox="0 0 64 64" fill="none" xmlns="http://www.w3.org/2000/svg">
<path d="M31.4203 2.29264L31.4848 2.2399L31.5447 2.18198C31.6001 2.12838 31.6607 2.08805 31.7224 2.06059L31.7309 2.05681L31.7393 2.05296C31.8077 2.02174 31.8931 2 31.9998 2C32.178 2 32.3394 2.06838 32.4636 2.18682L32.5186 2.23917L32.5773 2.28721L49.4006 16.048L52.6669 18.7197V14.4999V10.6684C52.6669 10.2988 52.9674 9.99996 53.3336 9.99996H56C56.1298 9.99996 56.2447 10.0356 56.3438 10.0977L56.3507 10.102L56.3577 10.1062C56.4054 10.1356 56.4509 10.1726 56.4919 10.2165L56.4934 10.2181C56.526 10.2531 56.562 10.3026 56.5936 10.365L56.5936 10.365L56.5995 10.3765C56.6392 10.4537 56.6668 10.5534 56.6668 10.6684V21.0434V21.9895L57.3983 22.5896L61.5522 25.9972L61.6135 26.0475L61.6785 26.0928L61.7265 26.1261C61.8945 26.2497 62 26.4455 62 26.6683C62 27.0331 61.705 27.3314 61.3336 27.3314H58.6658H56.6658V29.3314V58.6682C56.6658 60.5087 55.1753 61.9997 53.3326 61.9997H10.666C8.82338 61.9997 7.33285 60.5087 7.33285 58.6682V29.3314V27.3314H5.33285H2.66677C2.29486 27.3314 2 27.0329 2 26.6683C2 26.4561 2.06527 26.322 2.16603 26.2201L2.34373 26.0763L2.34375 26.0763L2.35187 26.0697L31.4203 2.29264Z" fill="white" stroke="#00C853" stroke-width="4"/>
</svg>
