<svg width="16" height="15" viewBox="0 0 16 15" fill="none" xmlns="http://www.w3.org/2000/svg">
<mask id="mask0" mask-type="alpha" maskUnits="userSpaceOnUse" x="0" y="0" width="16" height="15">
<path fill-rule="evenodd" clip-rule="evenodd" d="M4.36333 0C6.66667 0 8 2 8 2C8 2 9.33333 0 11.6367 0C14.0467 0 16 1.95333 16 4.36333C16 8.56474 11.1132 12.5844 8.84437 14.3653C8.61444 14.5536 8.32042 14.6667 8 14.6667C7.67958 14.6667 7.38555 14.5536 7.15562 14.3653C4.88682 12.5844 0 8.56474 0 4.36333C0 1.95333 1.95333 0 4.36333 0Z" fill="#47B04B"/>
</mask>
<g mask="url(#mask0)">
<rect width="18" height="16" transform="translate(-1 -1)" fill="#00C853"/>
<rect x="-1" y="-1" width="18" height="16" fill="white"/>
</g>
</svg>
