<svg width="36" height="36" viewBox="0 0 36 36" fill="none" xmlns="http://www.w3.org/2000/svg">
<g opacity="0.9">
<circle cx="18" cy="18" r="18" fill="#FF005C"/>
<circle cx="18" cy="18" r="18" fill="url(#paint0_linear)"/>
</g>
<path fill-rule="evenodd" clip-rule="evenodd" d="M13.8245 13.0484C14.9563 11.902 17.9992 9.33594 17.9992 9.33594C17.9992 9.33594 17.9244 11.1448 19.3126 13.0484C20.7007 14.9521 21.2764 17.0694 21.2764 17.0694L21.7117 13.0484C21.7117 13.0484 25.4242 17.0694 25.4242 20.4734C25.4242 23.6617 23.9201 26.3056 19.0374 26.6279C19.4289 26.4113 20.0969 25.7658 17.9992 24.3985C15.3157 22.6495 16.0468 20.954 16.0468 20.954C16.0468 20.954 13.6661 22.3852 14.3489 24.8511C14.5743 25.6651 14.8734 26.1449 15.1729 26.4224C11.7016 25.7314 10.5742 23.501 10.5742 19.2359C10.5742 16.9703 11.7579 15.1417 13.8245 13.0484Z" fill="white"/>
<defs>
<linearGradient id="paint0_linear" x1="18" y1="0" x2="18" y2="36" gradientUnits="userSpaceOnUse">
<stop stop-color="#FFA450"/>
<stop offset="1" stop-color="#FFB066" stop-opacity="0"/>
</linearGradient>
</defs>
</svg>
