<svg width="40" height="39" viewBox="0 0 40 39" fill="none" xmlns="http://www.w3.org/2000/svg">
<g opacity="0.9">
<ellipse cx="20" cy="19.4186" rx="20" ry="19.4186" fill="#FF005C"/>
<ellipse cx="20" cy="19.4186" rx="20" ry="19.4186" fill="url(#paint0_linear)"/>
</g>
<path d="M15.6113 14.5684C16.8691 13.3675 20.25 10.6797 20.25 10.6797C20.25 10.6797 20.167 12.5744 21.709 14.5684C23.252 16.5624 23.8916 18.7801 23.8916 18.7801L24.375 14.5684C24.375 14.5684 28.5 18.7801 28.5 22.3457C28.5 25.6849 26.8291 28.454 21.4053 28.7922C21.8408 28.5649 22.5791 27.8888 20.25 26.4574C17.2686 24.6254 18.0811 22.8495 18.0811 22.8495C18.0811 22.8495 15.4355 24.3486 16.1943 26.9315C16.4443 27.784 16.7783 28.2867 17.1113 28.5773C13.2529 27.854 12 25.5175 12 21.0494C12 18.6764 13.3154 16.7609 15.6113 14.5684Z" fill="white"/>
<defs>
<linearGradient id="paint0_linear" x1="20" y1="0" x2="20" y2="38.8372" gradientUnits="userSpaceOnUse">
<stop stop-color="#FFA450"/>
<stop offset="1" stop-color="#FFB066" stop-opacity="0"/>
</linearGradient>
</defs>
</svg>
