<svg width="46" height="46" viewBox="0 0 46 46" fill="none" xmlns="http://www.w3.org/2000/svg">
<path d="M44.0837 21.082H42.1663V42.168C42.1663 44.2852 40.4509 46 38.333 46H7.66626C5.54834 46 3.83301 44.2852 3.83301 42.168V21.082H1.91675C0.858154 21.082 0 20.2266 0 19.168C0 18.9062 0.0476074 18.6602 0.136963 18.4375C0.241211 18.1797 0.402344 17.9492 0.611328 17.7617L0.780273 17.625L21.6733 0.535156C22.0176 0.203125 22.4851 0 23 0C23.4019 0 23.7747 0.125 24.0828 0.335938C24.1689 0.394531 24.25 0.460938 24.3252 0.53125L36.417 10.4219V7.66797C36.417 6.60938 37.2756 5.75 38.3337 5.75H40.2502C40.697 5.75 41.1084 5.90234 41.4343 6.16016C41.8804 6.51172 42.167 7.05469 42.167 7.66797V15.125L45.2175 17.6211C45.2771 17.6641 45.3345 17.7109 45.3887 17.7617L45.5029 17.8789L45.6013 17.9961C45.8513 18.3203 46.0002 18.7266 46.0002 19.168C46.0002 20.2266 45.1421 21.082 44.0837 21.082Z" fill="#1AD467"/>
</svg>
