<svg width="46" height="46" viewBox="0 0 46 46" fill="none" xmlns="http://www.w3.org/2000/svg">
<path d="M21.6733 0.535156C21.8308 0.382812 22.0139 0.257812 22.2156 0.167969C22.4551 0.0585938 22.7205 0 23 0C23.5142 0 23.981 0.203125 24.3252 0.53125L36.417 10.4219V7.66797C36.417 6.60938 37.2756 5.75 38.3337 5.75H40.2502C40.6206 5.75 40.9663 5.85547 41.2598 6.03906C41.406 6.12891 41.5391 6.23828 41.6555 6.36328C41.7759 6.49219 41.8784 6.64062 41.9595 6.80078C42.092 7.05859 42.167 7.35547 42.167 7.66797V15.125L45.1526 17.5742L45.1975 17.6055C45.6833 17.9531 46.0002 18.5234 46.0002 19.168C46.0002 20.2266 45.1421 21.082 44.0837 21.082H42.1663V42.168C42.1663 44.2852 40.4509 46 38.333 46H7.66626C5.54834 46 3.83301 44.2852 3.83301 42.168V21.082H1.91675C0.858154 21.082 0 20.2266 0 19.168C0 18.6016 0.223145 18.1133 0.611328 17.7617L0.780273 17.625L21.6733 0.535156Z" fill="white"/>
</svg>
