<svg width="126" height="14" viewBox="0 0 126 14" fill="none" xmlns="http://www.w3.org/2000/svg">
<path fill-rule="evenodd" clip-rule="evenodd" d="M122.768 6.60576C123.539 6.81603 124.133 7.19056 124.551 7.72935C124.969 8.26815 125.177 8.91975 125.177 9.68195C125.177 11.1538 124.692 12.2412 123.722 12.9454C122.751 13.6485 121.508 14 119.992 14C118.54 14 117.357 13.7569 116.444 13.2707C116.11 13.0867 115.878 12.8567 115.749 12.5807C115.622 12.3048 115.622 11.9959 115.749 11.6532C115.982 11.1286 116.528 11.0289 117.39 11.3575C118.301 11.7134 119.163 11.8908 119.972 11.8908C120.846 11.8908 121.528 11.7057 122.016 11.3378C122.505 10.9698 122.748 10.4376 122.748 9.74109C122.748 8.47951 121.823 7.82792 119.972 7.78959H118.527C118.243 7.78959 118.015 7.70636 117.842 7.54209C117.668 7.37782 117.581 7.15113 117.581 6.86202C117.581 6.58605 117.668 6.36264 117.842 6.19181C118.015 6.01987 118.243 5.93445 118.527 5.93445H119.722C120.544 5.93445 121.183 5.76471 121.639 5.42303C122.097 5.08026 122.325 4.58089 122.325 3.92381C122.325 3.37187 122.134 2.93164 121.756 2.6031C121.376 2.27456 120.807 2.1103 120.049 2.1103C119.381 2.1103 118.578 2.27456 117.639 2.6031C116.843 2.87907 116.335 2.78708 116.117 2.32603C115.975 2.03802 115.963 1.75876 116.078 1.48936C116.194 1.21996 116.419 0.993274 116.753 0.809293C117.729 0.269399 118.906 0 120.281 0C121.657 0 122.744 0.306633 123.547 0.916615C124.352 1.52879 124.753 2.41255 124.753 3.56899C124.753 4.21293 124.586 4.81524 124.252 5.37375C123.918 5.93117 123.423 6.34184 122.768 6.60576ZM107.927 0.000874308C108.441 0.000874308 108.814 0.28232 109.046 0.848497L113.517 12.068C113.659 12.3571 113.688 12.6725 113.605 13.0131C113.52 13.3559 113.319 13.5858 112.997 13.7041C112.637 13.8355 112.319 13.8268 112.043 13.6745C111.767 13.5234 111.557 13.2573 111.417 12.8751L110.337 9.9577H105.383L104.379 12.7371C104.059 13.6844 103.531 14.0075 102.799 13.7041C102.233 13.4544 102.104 12.9156 102.413 12.0877L106.751 0.965675C106.995 0.322839 107.387 0.000874308 107.927 0.000874308ZM81.2933 0.09922C82.8736 0.09922 84.1167 0.450753 85.0225 1.15382C85.9294 1.85689 86.3823 2.95748 86.3823 4.4567C86.3823 5.98111 85.9059 7.13208 84.9562 7.90742C84.0043 8.68277 82.7644 9.07044 81.2344 9.07044C80.502 9.07044 79.9431 9.03759 79.5577 8.97188V12.6C79.5577 12.9548 79.4549 13.245 79.2483 13.4684C79.0437 13.6918 78.76 13.8025 78.4003 13.8025C78.0287 13.8025 77.7418 13.6918 77.5437 13.4684C77.3435 13.245 77.2439 12.9548 77.2439 12.6V1.73533C77.2439 0.959984 77.6037 0.500034 78.3232 0.355478C79.1722 0.184639 80.1616 0.09922 81.2933 0.09922ZM36.1376 0.0992318C37.718 0.0992318 38.961 0.450765 39.8669 1.15383C40.7737 1.8569 41.2267 2.95749 41.2267 4.45671C41.2267 5.98112 40.7502 7.13209 39.8005 7.90744C38.8486 8.68278 37.6087 9.07045 36.0787 9.07045C35.3464 9.07045 34.7874 9.0376 34.402 8.97189V12.6C34.402 12.9548 34.2992 13.245 34.0926 13.4685C33.8881 13.6919 33.6043 13.8025 33.2446 13.8025C32.873 13.8025 32.5861 13.6919 32.388 13.4685C32.1878 13.245 32.0882 12.9548 32.0882 12.6V1.73534C32.0882 0.959996 32.448 0.500046 33.1675 0.35549C34.0165 0.184651 35.0059 0.0992318 36.1376 0.0992318ZM11.2006 0.197249C10.7509 0.197249 10.3719 0.448032 10.0635 0.947406L6.20793 7.31553L2.27417 0.966023C1.96581 0.453507 1.56751 0.197249 1.07927 0.197249C0.758057 0.197249 0.497876 0.299095 0.298726 0.502788C0.0995753 0.70648 0 1.01859 0 1.44021V12.5995C0 13.4022 0.359756 13.803 1.07927 13.803C1.79985 13.803 2.15961 13.4022 2.15961 12.5995V4.673L5.01302 9.24841C5.29462 9.70836 5.65438 9.93834 6.09229 9.93834C6.51629 9.93834 6.86962 9.70179 7.15229 9.22761L9.96716 4.57444V12.5995C9.96716 12.9543 10.0689 13.2445 10.2755 13.4679C10.4811 13.6913 10.7638 13.803 11.1235 13.803C11.4961 13.803 11.782 13.6913 11.9812 13.4679C12.1803 13.2445 12.2809 12.9543 12.2809 12.5995V1.4194C12.2809 1.05144 12.1867 0.756855 12.0004 0.533451C11.8141 0.310047 11.5475 0.197249 11.2006 0.197249ZM26.4633 0.197249C26.0393 0.197249 25.6667 0.420654 25.3455 0.867463L19.1183 9.68208V1.4194C19.1183 1.06458 19.0187 0.772187 18.8196 0.542212C18.6204 0.312237 18.3345 0.197249 17.9619 0.197249C17.5754 0.197249 17.2874 0.312237 17.0936 0.542212C16.9009 0.772187 16.8045 1.06458 16.8045 1.4194V12.5995C16.8045 12.9817 16.9009 13.2763 17.0936 13.4876C17.2874 13.6979 17.5572 13.803 17.9041 13.803C18.2767 13.803 18.6354 13.573 18.9834 13.1131L25.248 4.35761V12.5995C25.248 12.9423 25.3487 13.227 25.5478 13.457C25.747 13.6869 26.0393 13.803 26.4247 13.803C26.7973 13.803 27.08 13.6913 27.2727 13.4679C27.4665 13.2445 27.5618 12.9543 27.5618 12.5995V1.4194C27.5618 0.604634 27.1967 0.197249 26.4633 0.197249ZM35.9438 7.02036C35.2885 7.02036 34.7746 6.99408 34.402 6.94151V2.28725C34.9673 2.2084 35.5262 2.16898 36.0787 2.16898C37.8914 2.16898 38.7972 2.95089 38.7972 4.51582C38.7972 6.18478 37.8453 7.02036 35.9438 7.02036ZM50.8984 0.197237H60.0358C60.3827 0.197237 60.6568 0.289228 60.8559 0.473208C61.0551 0.657188 61.1546 0.913446 61.1546 1.24198C61.1546 1.55738 61.0551 1.81473 60.8559 2.01076C60.6568 2.20897 60.3827 2.30753 60.0358 2.30753H56.6234V12.5995C56.6234 12.9543 56.5249 13.2445 56.3247 13.4679C56.1266 13.6913 55.8397 13.803 55.4671 13.803C55.0945 13.803 54.8086 13.6913 54.6094 13.4679C54.4103 13.2445 54.3107 12.9543 54.3107 12.5995V2.30753H50.8984C50.5643 2.30753 50.2967 2.20897 50.0986 2.01076C49.8984 1.81473 49.7988 1.55738 49.7988 1.24198C49.7988 0.913446 49.8984 0.657188 50.0986 0.473208C50.2967 0.289228 50.5643 0.197237 50.8984 0.197237ZM73.411 0.295584C72.7429 0.0458969 72.229 0.367862 71.8692 1.26257L69.1507 8.00523L65.506 1.12459C65.2887 0.702969 65.0317 0.423713 64.7351 0.285728C64.4396 0.147743 64.1184 0.171836 63.7715 0.355816C63.4503 0.539796 63.2768 0.819051 63.2511 1.19249C63.2254 1.56811 63.3218 1.93936 63.5402 2.30732L68.0714 10.2338C67.8648 10.7857 67.6464 11.1964 67.4151 11.4658C67.1849 11.7352 66.9076 11.8699 66.5864 11.8699C66.445 11.8699 66.3133 11.8579 66.1913 11.8305C66.0692 11.8053 65.9279 11.7593 65.7662 11.6925C65.6067 11.6279 65.4932 11.5885 65.43 11.5753C64.7994 11.364 64.3818 11.5359 64.1762 12.0878C63.945 12.7186 64.1698 13.2246 64.8518 13.6057C65.3144 13.8685 65.9311 13.9999 66.702 13.9999C67.55 13.9999 68.2481 13.6747 68.7942 13.0242C69.3392 12.3726 69.9152 11.3245 70.5191 9.87898L73.835 1.9525C74.1819 1.09721 74.0406 0.546367 73.411 0.295584ZM81.0994 7.02035C80.4442 7.02035 79.9302 6.99406 79.5576 6.9415V2.28724C80.123 2.20839 80.6819 2.16897 81.2344 2.16897C83.0471 2.16897 83.9529 2.95088 83.9529 4.51581C83.9529 6.18477 83.001 7.02035 81.0994 7.02035ZM92.3535 5.58128C92.9702 5.47506 93.6255 5.42249 94.3204 5.42249C97.5335 5.42249 99.1396 6.77058 99.1396 9.46458C99.1396 10.9233 98.7092 12.0283 97.8483 12.7773C96.9864 13.5264 95.7208 13.9009 94.0506 13.9009C92.9574 13.9009 91.9873 13.8363 91.1393 13.7049C90.4059 13.5855 90.0408 13.1584 90.0408 12.4225V1.40012C90.0408 1.05844 90.1425 0.772612 90.3491 0.542637C90.5536 0.312662 90.831 0.197674 91.1779 0.197674H97.2305C97.5657 0.197674 97.8291 0.291855 98.0218 0.482406C98.2134 0.674052 98.3109 0.9325 98.3109 1.26213C98.3109 1.57753 98.2134 1.8305 98.0218 2.02214C97.8291 2.2116 97.5657 2.30688 97.2305 2.30688H92.3535V5.58128ZM93.9928 11.9494C93.3622 11.9494 92.8161 11.9165 92.3536 11.8508V7.51194C92.8418 7.41995 93.4339 7.37396 94.1277 7.37396C94.9243 7.37396 95.5539 7.55137 96.0164 7.90728C96.479 8.2621 96.7103 8.81404 96.7103 9.5631C96.7103 11.1532 95.8045 11.9494 93.9928 11.9494ZM106 8.1048L107.811 3.13515L109.681 8.1048H106Z" fill="#47B04B"/>
<path fill-rule="evenodd" clip-rule="evenodd" d="M122.768 6.60576C123.539 6.81603 124.133 7.19056 124.551 7.72935C124.969 8.26815 125.177 8.91975 125.177 9.68195C125.177 11.1538 124.692 12.2412 123.722 12.9454C122.751 13.6485 121.508 14 119.992 14C118.54 14 117.357 13.7569 116.444 13.2707C116.11 13.0867 115.878 12.8567 115.749 12.5807C115.622 12.3048 115.622 11.9959 115.749 11.6532C115.982 11.1286 116.528 11.0289 117.39 11.3575C118.301 11.7134 119.163 11.8908 119.972 11.8908C120.846 11.8908 121.528 11.7057 122.016 11.3378C122.505 10.9698 122.748 10.4376 122.748 9.74109C122.748 8.47951 121.823 7.82792 119.972 7.78959H118.527C118.243 7.78959 118.015 7.70636 117.842 7.54209C117.668 7.37782 117.581 7.15113 117.581 6.86202C117.581 6.58605 117.668 6.36264 117.842 6.19181C118.015 6.01987 118.243 5.93445 118.527 5.93445H119.722C120.544 5.93445 121.183 5.76471 121.639 5.42303C122.097 5.08026 122.325 4.58089 122.325 3.92381C122.325 3.37187 122.134 2.93164 121.756 2.6031C121.376 2.27456 120.807 2.1103 120.049 2.1103C119.381 2.1103 118.578 2.27456 117.639 2.6031C116.843 2.87907 116.335 2.78708 116.117 2.32603C115.975 2.03802 115.963 1.75876 116.078 1.48936C116.194 1.21996 116.419 0.993274 116.753 0.809293C117.729 0.269399 118.906 0 120.281 0C121.657 0 122.744 0.306633 123.547 0.916615C124.352 1.52879 124.753 2.41255 124.753 3.56899C124.753 4.21293 124.586 4.81524 124.252 5.37375C123.918 5.93117 123.423 6.34184 122.768 6.60576ZM107.927 0.000874308C108.441 0.000874308 108.814 0.28232 109.046 0.848497L113.517 12.068C113.659 12.3571 113.688 12.6725 113.605 13.0131C113.52 13.3559 113.319 13.5858 112.997 13.7041C112.637 13.8355 112.319 13.8268 112.043 13.6745C111.767 13.5234 111.557 13.2573 111.417 12.8751L110.337 9.9577H105.383L104.379 12.7371C104.059 13.6844 103.531 14.0075 102.799 13.7041C102.233 13.4544 102.104 12.9156 102.413 12.0877L106.751 0.965675C106.995 0.322839 107.387 0.000874308 107.927 0.000874308ZM81.2933 0.09922C82.8736 0.09922 84.1167 0.450753 85.0225 1.15382C85.9294 1.85689 86.3823 2.95748 86.3823 4.4567C86.3823 5.98111 85.9059 7.13208 84.9562 7.90742C84.0043 8.68277 82.7644 9.07044 81.2344 9.07044C80.502 9.07044 79.9431 9.03759 79.5577 8.97188V12.6C79.5577 12.9548 79.4549 13.245 79.2483 13.4684C79.0437 13.6918 78.76 13.8025 78.4003 13.8025C78.0287 13.8025 77.7418 13.6918 77.5437 13.4684C77.3435 13.245 77.2439 12.9548 77.2439 12.6V1.73533C77.2439 0.959984 77.6037 0.500034 78.3232 0.355478C79.1722 0.184639 80.1616 0.09922 81.2933 0.09922ZM36.1376 0.0992318C37.718 0.0992318 38.961 0.450765 39.8669 1.15383C40.7737 1.8569 41.2267 2.95749 41.2267 4.45671C41.2267 5.98112 40.7502 7.13209 39.8005 7.90744C38.8486 8.68278 37.6087 9.07045 36.0787 9.07045C35.3464 9.07045 34.7874 9.0376 34.402 8.97189V12.6C34.402 12.9548 34.2992 13.245 34.0926 13.4685C33.8881 13.6919 33.6043 13.8025 33.2446 13.8025C32.873 13.8025 32.5861 13.6919 32.388 13.4685C32.1878 13.245 32.0882 12.9548 32.0882 12.6V1.73534C32.0882 0.959996 32.448 0.500046 33.1675 0.35549C34.0165 0.184651 35.0059 0.0992318 36.1376 0.0992318ZM11.2006 0.197249C10.7509 0.197249 10.3719 0.448032 10.0635 0.947406L6.20793 7.31553L2.27417 0.966023C1.96581 0.453507 1.56751 0.197249 1.07927 0.197249C0.758057 0.197249 0.497876 0.299095 0.298726 0.502788C0.0995753 0.70648 0 1.01859 0 1.44021V12.5995C0 13.4022 0.359756 13.803 1.07927 13.803C1.79985 13.803 2.15961 13.4022 2.15961 12.5995V4.673L5.01302 9.24841C5.29462 9.70836 5.65438 9.93834 6.09229 9.93834C6.51629 9.93834 6.86962 9.70179 7.15229 9.22761L9.96716 4.57444V12.5995C9.96716 12.9543 10.0689 13.2445 10.2755 13.4679C10.4811 13.6913 10.7638 13.803 11.1235 13.803C11.4961 13.803 11.782 13.6913 11.9812 13.4679C12.1803 13.2445 12.2809 12.9543 12.2809 12.5995V1.4194C12.2809 1.05144 12.1867 0.756855 12.0004 0.533451C11.8141 0.310047 11.5475 0.197249 11.2006 0.197249ZM26.4633 0.197249C26.0393 0.197249 25.6667 0.420654 25.3455 0.867463L19.1183 9.68208V1.4194C19.1183 1.06458 19.0187 0.772187 18.8196 0.542212C18.6204 0.312237 18.3345 0.197249 17.9619 0.197249C17.5754 0.197249 17.2874 0.312237 17.0936 0.542212C16.9009 0.772187 16.8045 1.06458 16.8045 1.4194V12.5995C16.8045 12.9817 16.9009 13.2763 17.0936 13.4876C17.2874 13.6979 17.5572 13.803 17.9041 13.803C18.2767 13.803 18.6354 13.573 18.9834 13.1131L25.248 4.35761V12.5995C25.248 12.9423 25.3487 13.227 25.5478 13.457C25.747 13.6869 26.0393 13.803 26.4247 13.803C26.7973 13.803 27.08 13.6913 27.2727 13.4679C27.4665 13.2445 27.5618 12.9543 27.5618 12.5995V1.4194C27.5618 0.604634 27.1967 0.197249 26.4633 0.197249ZM35.9438 7.02036C35.2885 7.02036 34.7746 6.99408 34.402 6.94151V2.28725C34.9673 2.2084 35.5262 2.16898 36.0787 2.16898C37.8914 2.16898 38.7972 2.95089 38.7972 4.51582C38.7972 6.18478 37.8453 7.02036 35.9438 7.02036ZM50.8984 0.197237H60.0358C60.3827 0.197237 60.6568 0.289228 60.8559 0.473208C61.0551 0.657188 61.1546 0.913446 61.1546 1.24198C61.1546 1.55738 61.0551 1.81473 60.8559 2.01076C60.6568 2.20897 60.3827 2.30753 60.0358 2.30753H56.6234V12.5995C56.6234 12.9543 56.5249 13.2445 56.3247 13.4679C56.1266 13.6913 55.8397 13.803 55.4671 13.803C55.0945 13.803 54.8086 13.6913 54.6094 13.4679C54.4103 13.2445 54.3107 12.9543 54.3107 12.5995V2.30753H50.8984C50.5643 2.30753 50.2967 2.20897 50.0986 2.01076C49.8984 1.81473 49.7988 1.55738 49.7988 1.24198C49.7988 0.913446 49.8984 0.657188 50.0986 0.473208C50.2967 0.289228 50.5643 0.197237 50.8984 0.197237ZM73.411 0.295584C72.7429 0.0458969 72.229 0.367862 71.8692 1.26257L69.1507 8.00523L65.506 1.12459C65.2887 0.702969 65.0317 0.423713 64.7351 0.285728C64.4396 0.147743 64.1184 0.171836 63.7715 0.355816C63.4503 0.539796 63.2768 0.819051 63.2511 1.19249C63.2254 1.56811 63.3218 1.93936 63.5402 2.30732L68.0714 10.2338C67.8648 10.7857 67.6464 11.1964 67.4151 11.4658C67.1849 11.7352 66.9076 11.8699 66.5864 11.8699C66.445 11.8699 66.3133 11.8579 66.1913 11.8305C66.0692 11.8053 65.9279 11.7593 65.7662 11.6925C65.6067 11.6279 65.4932 11.5885 65.43 11.5753C64.7994 11.364 64.3818 11.5359 64.1762 12.0878C63.945 12.7186 64.1698 13.2246 64.8518 13.6057C65.3144 13.8685 65.9311 13.9999 66.702 13.9999C67.55 13.9999 68.2481 13.6747 68.7942 13.0242C69.3392 12.3726 69.9152 11.3245 70.5191 9.87898L73.835 1.9525C74.1819 1.09721 74.0406 0.546367 73.411 0.295584ZM81.0994 7.02035C80.4442 7.02035 79.9302 6.99406 79.5576 6.9415V2.28724C80.123 2.20839 80.6819 2.16897 81.2344 2.16897C83.0471 2.16897 83.9529 2.95088 83.9529 4.51581C83.9529 6.18477 83.001 7.02035 81.0994 7.02035ZM92.3535 5.58128C92.9702 5.47506 93.6255 5.42249 94.3204 5.42249C97.5335 5.42249 99.1396 6.77058 99.1396 9.46458C99.1396 10.9233 98.7092 12.0283 97.8483 12.7773C96.9864 13.5264 95.7208 13.9009 94.0506 13.9009C92.9574 13.9009 91.9873 13.8363 91.1393 13.7049C90.4059 13.5855 90.0408 13.1584 90.0408 12.4225V1.40012C90.0408 1.05844 90.1425 0.772612 90.3491 0.542637C90.5536 0.312662 90.831 0.197674 91.1779 0.197674H97.2305C97.5657 0.197674 97.8291 0.291855 98.0218 0.482406C98.2134 0.674052 98.3109 0.9325 98.3109 1.26213C98.3109 1.57753 98.2134 1.8305 98.0218 2.02214C97.8291 2.2116 97.5657 2.30688 97.2305 2.30688H92.3535V5.58128ZM93.9928 11.9494C93.3622 11.9494 92.8161 11.9165 92.3536 11.8508V7.51194C92.8418 7.41995 93.4339 7.37396 94.1277 7.37396C94.9243 7.37396 95.5539 7.55137 96.0164 7.90728C96.479 8.2621 96.7103 8.81404 96.7103 9.5631C96.7103 11.1532 95.8045 11.9494 93.9928 11.9494ZM106 8.1048L107.811 3.13515L109.681 8.1048H106Z" fill="url(#paint0_linear)"/>
<defs>
<linearGradient id="paint0_linear" x1="62.5885" y1="24.4418" x2="62.5885" y2="-1.07047e-07" gradientUnits="userSpaceOnUse">
<stop offset="0.325079" stop-color="#4BD150"/>
<stop offset="1" stop-color="#47B04B"/>
</linearGradient>
</defs>
</svg>
