<svg width="155" height="18" viewBox="0 0 155 18" fill="none" xmlns="http://www.w3.org/2000/svg">
<path fill-rule="evenodd" clip-rule="evenodd" d="M152.017 8.17956C152.972 8.43992 153.707 8.90368 154.224 9.57085C154.743 10.238 155 11.0448 155 11.9886C155 13.8111 154.399 15.1577 153.198 16.0296C151.996 16.9002 150.456 17.3355 148.579 17.3355C146.781 17.3355 145.316 17.0344 144.187 16.4323C143.773 16.2045 143.485 15.9198 143.326 15.578C143.169 15.2363 143.169 14.8539 143.326 14.4295C143.614 13.78 144.29 13.6566 145.357 14.0634C146.486 14.5041 147.553 14.7238 148.555 14.7238C149.637 14.7238 150.482 14.4946 151.086 14.039C151.691 13.5833 151.992 12.9243 151.992 12.0619C151.992 10.4997 150.846 9.69289 148.555 9.64543H146.765C146.414 9.64543 146.132 9.54237 145.917 9.33896C145.702 9.13556 145.595 8.85486 145.595 8.49687C145.595 8.15515 145.702 7.87852 145.917 7.66698C146.132 7.45409 146.414 7.34832 146.765 7.34832H148.245C149.263 7.34832 150.055 7.13813 150.62 6.71505C151.186 6.29061 151.468 5.67227 151.468 4.85865C151.468 4.17521 151.232 3.63009 150.764 3.22328C150.293 2.81647 149.589 2.61307 148.651 2.61307C147.823 2.61307 146.829 2.81647 145.666 3.22328C144.68 3.565 144.052 3.45109 143.781 2.8802C143.606 2.52357 143.59 2.17778 143.733 1.8442C143.877 1.51062 144.155 1.22992 144.569 1.0021C145.778 0.333583 147.235 0 148.937 0C150.641 0 151.988 0.379688 152.982 1.135C153.978 1.89302 154.475 2.98733 154.475 4.4193C154.475 5.21664 154.268 5.96246 153.854 6.65403C153.441 7.34425 152.828 7.85276 152.017 8.17956ZM133.64 0.0010622C134.276 0.0010622 134.739 0.349561 135.025 1.05063L140.562 14.9431C140.738 15.3011 140.774 15.6917 140.671 16.1134C140.566 16.5378 140.317 16.8226 139.919 16.969C139.472 17.1318 139.078 17.1209 138.738 16.9324C138.395 16.7453 138.136 16.4158 137.962 15.9425L136.624 12.3301H130.49L129.248 15.7717C128.851 16.9446 128.197 17.3447 127.291 16.969C126.589 16.6599 126.43 15.9927 126.812 14.9675L132.184 1.19572C132.486 0.399734 132.972 0.0010622 133.64 0.0010622ZM100.661 0.122848C102.618 0.122848 104.157 0.558133 105.279 1.4287C106.402 2.29927 106.963 3.66208 106.963 5.51848C106.963 7.40608 106.373 8.83126 105.197 9.79133C104.018 10.7514 102.483 11.2314 100.588 11.2314C99.6813 11.2314 98.9892 11.1907 98.5119 11.1094V15.6019C98.5119 16.0413 98.3846 16.4006 98.1288 16.6772C97.8755 16.9539 97.5242 17.0908 97.0787 17.0908C96.6187 17.0908 96.2634 16.9539 96.0181 16.6772C95.7702 16.4006 95.6469 16.0413 95.6469 15.6019V2.14875C95.6469 1.18869 96.0923 0.619154 96.9833 0.440159C98.0346 0.228618 99.2597 0.122848 100.661 0.122848ZM44.7471 0.12286C46.7041 0.12286 48.2437 0.556454 49.3652 1.42755C50.4878 2.29864 51.0488 3.66192 51.0488 5.51739C51.0488 7.40802 50.459 8.82989 49.2827 9.79083C48.104 10.7518 46.5688 11.2322 44.6743 11.2322C43.7676 11.2322 43.0757 11.1893 42.5981 11.1111V15.6033C42.5981 15.865 42.5532 16.0994 42.4624 16.3025C42.4009 16.4393 42.3184 16.5643 42.2148 16.6775C41.9619 16.9549 41.6106 17.0916 41.165 17.0916C40.7051 17.0916 40.3496 16.9549 40.1045 16.6775C39.8564 16.4002 39.7332 16.0408 39.7332 15.6033V2.1502C39.7332 1.68536 39.8364 1.31427 40.0432 1.03302C40.2659 0.732235 40.6079 0.533016 41.0696 0.439266C41.6392 0.325985 42.2598 0.240047 42.9316 0.18536C43.5 0.142391 44.105 0.12286 44.7471 0.12286ZM13.8691 0.243954C13.3123 0.243954 12.843 0.552547 12.4612 1.17364L7.68701 9.05645L2.81592 1.19708C2.73755 1.06817 2.65454 0.950985 2.56665 0.845516C2.22681 0.443172 1.81689 0.243954 1.33643 0.243954C1.20728 0.243954 1.08618 0.255672 0.9729 0.283016C0.737305 0.337704 0.536377 0.450985 0.369873 0.62286C0.123291 0.87286 0 1.25958 0 1.78302V15.5994C0 15.8299 0.0236816 16.033 0.0712891 16.2088C0.133789 16.4393 0.237061 16.6268 0.380859 16.7674C0.491455 16.8729 0.625977 16.9549 0.784668 17.0096C0.944336 17.0643 1.12817 17.0916 1.33643 17.0916C2.22876 17.0916 2.67407 16.5955 2.67407 15.5994V5.78692L6.20728 11.451C6.55615 12.0213 7.00146 12.3065 7.5437 12.3065C7.72192 12.3065 7.88989 12.2713 8.04785 12.2049C8.18555 12.1463 8.31567 12.0643 8.43799 11.9549C8.58911 11.8182 8.72852 11.6424 8.8562 11.4275L12.3418 5.66583V15.5994L12.3445 15.7049C12.3484 15.7869 12.3574 15.869 12.3713 15.951C12.3882 16.0447 12.4121 16.1346 12.4431 16.2205C12.5066 16.3924 12.5999 16.5447 12.7236 16.6775C12.9783 16.951 13.3281 17.0916 13.7737 17.0916C14.2351 17.0916 14.5891 16.951 14.8357 16.6775C15.0823 16.4002 15.2068 16.0408 15.2068 15.5994V1.75567C15.2068 1.30255 15.0901 0.93536 14.8594 0.661922C14.6289 0.384579 14.2986 0.243954 13.8691 0.243954ZM32.7681 0.243954C32.2432 0.243954 31.7817 0.521297 31.384 1.07208L23.6731 11.99V1.75567C23.6731 1.5213 23.6384 1.31036 23.5688 1.12286C23.5073 0.954891 23.4187 0.802547 23.3032 0.669735C23.0566 0.384579 22.7026 0.243954 22.2412 0.243954C21.7627 0.243954 21.406 0.384579 21.166 0.669735L21.0657 0.806454L20.9822 0.950985C20.8662 1.18145 20.8081 1.45098 20.8081 1.75567V15.5994C20.8081 16.076 20.9275 16.4393 21.166 16.701C21.406 16.9627 21.7402 17.0916 22.1697 17.0916C22.6311 17.0916 23.0752 16.8065 23.5061 16.2361L31.2632 5.3963V15.5994C31.2632 15.8338 31.301 16.0486 31.3765 16.2361C31.4143 16.3338 31.4617 16.4236 31.5183 16.5096L31.6345 16.6619C31.7134 16.7518 31.8042 16.8299 31.9067 16.8924C32.1248 17.0252 32.396 17.0916 32.7205 17.0916L32.9573 17.0799L33.0994 17.0565C33.3784 16.994 33.6021 16.869 33.7703 16.6775L33.887 16.5213C34.0486 16.2713 34.1284 15.9627 34.1284 15.5994V1.75567C34.1284 0.74786 33.6763 0.243954 32.7681 0.243954ZM44.5073 8.69317C44.1616 8.69317 43.8477 8.68927 43.5654 8.67755C43.1855 8.66192 42.8628 8.63458 42.5981 8.59552V2.82989C43.2983 2.73223 43.9902 2.68536 44.6743 2.68536C46.9189 2.68536 48.0405 3.65411 48.0405 5.59161C48.0405 7.65802 46.8618 8.69317 44.5073 8.69317ZM63.0247 0.244212H74.3391C74.7686 0.244212 75.108 0.358118 75.3546 0.585931C75.6012 0.813744 75.7245 1.13105 75.7245 1.53786C75.7245 1.9284 75.6012 2.24707 75.3546 2.48979C75.108 2.73524 74.7686 2.85728 74.3391 2.85728H70.1137V15.6012C70.1137 16.0406 69.9918 16.3999 69.7439 16.6766C69.4986 16.9532 69.1433 17.0915 68.6819 17.0915C68.2205 17.0915 67.8665 16.9532 67.6199 16.6766C67.3733 16.3999 67.25 16.0406 67.25 15.6012V2.85728H63.0247C62.6111 2.85728 62.2796 2.73524 62.0344 2.48979C61.7864 2.24707 61.6631 1.9284 61.6631 1.53786C61.6631 1.13105 61.7864 0.813744 62.0344 0.585931C62.2796 0.358118 62.6111 0.244212 63.0247 0.244212ZM90.9009 0.365985C90.0736 0.0568103 89.4373 0.455483 88.9918 1.56336L85.6256 9.91242L81.1126 1.3925C80.8435 0.870427 80.5253 0.52464 80.158 0.35378C79.7921 0.182921 79.3944 0.212754 78.9648 0.440566C78.5671 0.668379 78.3523 1.01417 78.3205 1.47657C78.2887 1.94169 78.408 2.40138 78.6785 2.85701L84.2892 12.6719C84.0333 13.3554 83.7629 13.8639 83.4765 14.1975C83.1915 14.5311 82.8481 14.6978 82.4503 14.6978C82.2753 14.6978 82.1123 14.6829 81.9611 14.649C81.81 14.6178 81.635 14.5609 81.4348 14.4782C81.2372 14.3982 81.0967 14.3493 81.0185 14.3331C80.2376 14.0714 79.7205 14.2843 79.466 14.9677C79.1796 15.7488 79.458 16.3753 80.3026 16.8471C80.8753 17.1726 81.639 17.3353 82.5935 17.3353C83.6435 17.3353 84.508 16.9326 85.1841 16.1271C85.8589 15.3203 86.5722 14.0225 87.32 12.2326L91.4259 2.41766C91.8555 1.3586 91.6805 0.676515 90.9009 0.365985ZM100.421 8.69293C99.6097 8.69293 98.9733 8.66039 98.5119 8.5953V2.83218C99.2119 2.73455 99.904 2.68573 100.588 2.68573C102.833 2.68573 103.954 3.65393 103.954 5.5917C103.954 7.65828 102.776 8.69293 100.421 8.69293ZM114.356 6.91098C115.12 6.77944 115.932 6.71435 116.792 6.71435C120.771 6.71435 122.759 8.38362 122.759 11.7195C122.759 13.5257 122.226 14.8939 121.16 15.8214C120.093 16.749 118.526 17.2127 116.458 17.2127C115.104 17.2127 113.903 17.1327 112.853 16.97C111.945 16.8222 111.493 16.2933 111.493 15.3821V1.73366C111.493 1.31058 111.619 0.956657 111.875 0.671891C112.128 0.387125 112.471 0.244743 112.901 0.244743H120.395C120.81 0.244743 121.137 0.361361 121.375 0.59731C121.613 0.834615 121.733 1.15464 121.733 1.5628C121.733 1.95334 121.613 2.26658 121.375 2.50389C121.137 2.73848 120.81 2.85645 120.395 2.85645H114.356V6.91098ZM116.386 14.7963C115.605 14.7963 114.929 14.7556 114.356 14.6742V9.30165C114.961 9.18775 115.694 9.13079 116.553 9.13079C117.54 9.13079 118.319 9.35047 118.892 9.79118C119.465 10.2305 119.751 10.914 119.751 11.8415C119.751 13.8104 118.63 14.7963 116.386 14.7963ZM131.253 10.0357L133.497 3.88204L135.811 10.0357H131.253Z" fill="#47B04B"/>
<path fill-rule="evenodd" clip-rule="evenodd" d="M152.017 8.17956C152.972 8.43992 153.707 8.90368 154.224 9.57085C154.743 10.238 155 11.0448 155 11.9886C155 13.8111 154.399 15.1577 153.198 16.0296C151.996 16.9002 150.456 17.3355 148.579 17.3355C146.781 17.3355 145.316 17.0344 144.187 16.4323C143.773 16.2045 143.485 15.9198 143.326 15.578C143.169 15.2363 143.169 14.8539 143.326 14.4295C143.614 13.78 144.29 13.6566 145.357 14.0634C146.486 14.5041 147.553 14.7238 148.555 14.7238C149.637 14.7238 150.482 14.4946 151.086 14.039C151.691 13.5833 151.992 12.9243 151.992 12.0619C151.992 10.4997 150.846 9.69289 148.555 9.64543H146.765C146.414 9.64543 146.132 9.54237 145.917 9.33896C145.702 9.13556 145.595 8.85486 145.595 8.49687C145.595 8.15515 145.702 7.87852 145.917 7.66698C146.132 7.45409 146.414 7.34832 146.765 7.34832H148.245C149.263 7.34832 150.055 7.13813 150.62 6.71505C151.186 6.29061 151.468 5.67227 151.468 4.85865C151.468 4.17521 151.232 3.63009 150.764 3.22328C150.293 2.81647 149.589 2.61307 148.651 2.61307C147.823 2.61307 146.829 2.81647 145.666 3.22328C144.68 3.565 144.052 3.45109 143.781 2.8802C143.606 2.52357 143.59 2.17778 143.733 1.8442C143.877 1.51062 144.155 1.22992 144.569 1.0021C145.778 0.333583 147.235 0 148.937 0C150.641 0 151.988 0.379688 152.982 1.135C153.978 1.89302 154.475 2.98733 154.475 4.4193C154.475 5.21664 154.268 5.96246 153.854 6.65403C153.441 7.34425 152.828 7.85276 152.017 8.17956ZM133.64 0.0010622C134.276 0.0010622 134.739 0.349561 135.025 1.05063L140.562 14.9431C140.738 15.3011 140.774 15.6917 140.671 16.1134C140.566 16.5378 140.317 16.8226 139.919 16.969C139.472 17.1318 139.078 17.1209 138.738 16.9324C138.395 16.7453 138.136 16.4158 137.962 15.9425L136.624 12.3301H130.49L129.248 15.7717C128.851 16.9446 128.197 17.3447 127.291 16.969C126.589 16.6599 126.43 15.9927 126.812 14.9675L132.184 1.19572C132.486 0.399734 132.972 0.0010622 133.64 0.0010622ZM100.661 0.122848C102.618 0.122848 104.157 0.558133 105.279 1.4287C106.402 2.29927 106.963 3.66208 106.963 5.51848C106.963 7.40608 106.373 8.83126 105.197 9.79133C104.018 10.7514 102.483 11.2314 100.588 11.2314C99.6813 11.2314 98.9892 11.1907 98.5119 11.1094V15.6019C98.5119 16.0413 98.3846 16.4006 98.1288 16.6772C97.8755 16.9539 97.5242 17.0908 97.0787 17.0908C96.6187 17.0908 96.2634 16.9539 96.0181 16.6772C95.7702 16.4006 95.6469 16.0413 95.6469 15.6019V2.14875C95.6469 1.18869 96.0923 0.619154 96.9833 0.440159C98.0346 0.228618 99.2597 0.122848 100.661 0.122848ZM44.7471 0.12286C46.7041 0.12286 48.2437 0.556454 49.3652 1.42755C50.4878 2.29864 51.0488 3.66192 51.0488 5.51739C51.0488 7.40802 50.459 8.82989 49.2827 9.79083C48.104 10.7518 46.5688 11.2322 44.6743 11.2322C43.7676 11.2322 43.0757 11.1893 42.5981 11.1111V15.6033C42.5981 15.865 42.5532 16.0994 42.4624 16.3025C42.4009 16.4393 42.3184 16.5643 42.2148 16.6775C41.9619 16.9549 41.6106 17.0916 41.165 17.0916C40.7051 17.0916 40.3496 16.9549 40.1045 16.6775C39.8564 16.4002 39.7332 16.0408 39.7332 15.6033V2.1502C39.7332 1.68536 39.8364 1.31427 40.0432 1.03302C40.2659 0.732235 40.6079 0.533016 41.0696 0.439266C41.6392 0.325985 42.2598 0.240047 42.9316 0.18536C43.5 0.142391 44.105 0.12286 44.7471 0.12286ZM13.8691 0.243954C13.3123 0.243954 12.843 0.552547 12.4612 1.17364L7.68701 9.05645L2.81592 1.19708C2.73755 1.06817 2.65454 0.950985 2.56665 0.845516C2.22681 0.443172 1.81689 0.243954 1.33643 0.243954C1.20728 0.243954 1.08618 0.255672 0.9729 0.283016C0.737305 0.337704 0.536377 0.450985 0.369873 0.62286C0.123291 0.87286 0 1.25958 0 1.78302V15.5994C0 15.8299 0.0236816 16.033 0.0712891 16.2088C0.133789 16.4393 0.237061 16.6268 0.380859 16.7674C0.491455 16.8729 0.625977 16.9549 0.784668 17.0096C0.944336 17.0643 1.12817 17.0916 1.33643 17.0916C2.22876 17.0916 2.67407 16.5955 2.67407 15.5994V5.78692L6.20728 11.451C6.55615 12.0213 7.00146 12.3065 7.5437 12.3065C7.72192 12.3065 7.88989 12.2713 8.04785 12.2049C8.18555 12.1463 8.31567 12.0643 8.43799 11.9549C8.58911 11.8182 8.72852 11.6424 8.8562 11.4275L12.3418 5.66583V15.5994L12.3445 15.7049C12.3484 15.7869 12.3574 15.869 12.3713 15.951C12.3882 16.0447 12.4121 16.1346 12.4431 16.2205C12.5066 16.3924 12.5999 16.5447 12.7236 16.6775C12.9783 16.951 13.3281 17.0916 13.7737 17.0916C14.2351 17.0916 14.5891 16.951 14.8357 16.6775C15.0823 16.4002 15.2068 16.0408 15.2068 15.5994V1.75567C15.2068 1.30255 15.0901 0.93536 14.8594 0.661922C14.6289 0.384579 14.2986 0.243954 13.8691 0.243954ZM32.7681 0.243954C32.2432 0.243954 31.7817 0.521297 31.384 1.07208L23.6731 11.99V1.75567C23.6731 1.5213 23.6384 1.31036 23.5688 1.12286C23.5073 0.954891 23.4187 0.802547 23.3032 0.669735C23.0566 0.384579 22.7026 0.243954 22.2412 0.243954C21.7627 0.243954 21.406 0.384579 21.166 0.669735L21.0657 0.806454L20.9822 0.950985C20.8662 1.18145 20.8081 1.45098 20.8081 1.75567V15.5994C20.8081 16.076 20.9275 16.4393 21.166 16.701C21.406 16.9627 21.7402 17.0916 22.1697 17.0916C22.6311 17.0916 23.0752 16.8065 23.5061 16.2361L31.2632 5.3963V15.5994C31.2632 15.8338 31.301 16.0486 31.3765 16.2361C31.4143 16.3338 31.4617 16.4236 31.5183 16.5096L31.6345 16.6619C31.7134 16.7518 31.8042 16.8299 31.9067 16.8924C32.1248 17.0252 32.396 17.0916 32.7205 17.0916L32.9573 17.0799L33.0994 17.0565C33.3784 16.994 33.6021 16.869 33.7703 16.6775L33.887 16.5213C34.0486 16.2713 34.1284 15.9627 34.1284 15.5994V1.75567C34.1284 0.74786 33.6763 0.243954 32.7681 0.243954ZM44.5073 8.69317C44.1616 8.69317 43.8477 8.68927 43.5654 8.67755C43.1855 8.66192 42.8628 8.63458 42.5981 8.59552V2.82989C43.2983 2.73223 43.9902 2.68536 44.6743 2.68536C46.9189 2.68536 48.0405 3.65411 48.0405 5.59161C48.0405 7.65802 46.8618 8.69317 44.5073 8.69317ZM63.0247 0.244212H74.3391C74.7686 0.244212 75.108 0.358118 75.3546 0.585931C75.6012 0.813744 75.7245 1.13105 75.7245 1.53786C75.7245 1.9284 75.6012 2.24707 75.3546 2.48979C75.108 2.73524 74.7686 2.85728 74.3391 2.85728H70.1137V15.6012C70.1137 16.0406 69.9918 16.3999 69.7439 16.6766C69.4986 16.9532 69.1433 17.0915 68.6819 17.0915C68.2205 17.0915 67.8665 16.9532 67.6199 16.6766C67.3733 16.3999 67.25 16.0406 67.25 15.6012V2.85728H63.0247C62.6111 2.85728 62.2796 2.73524 62.0344 2.48979C61.7864 2.24707 61.6631 1.9284 61.6631 1.53786C61.6631 1.13105 61.7864 0.813744 62.0344 0.585931C62.2796 0.358118 62.6111 0.244212 63.0247 0.244212ZM90.9009 0.365985C90.0736 0.0568103 89.4373 0.455483 88.9918 1.56336L85.6256 9.91242L81.1126 1.3925C80.8435 0.870427 80.5253 0.52464 80.158 0.35378C79.7921 0.182921 79.3944 0.212754 78.9648 0.440566C78.5671 0.668379 78.3523 1.01417 78.3205 1.47657C78.2887 1.94169 78.408 2.40138 78.6785 2.85701L84.2892 12.6719C84.0333 13.3554 83.7629 13.8639 83.4765 14.1975C83.1915 14.5311 82.8481 14.6978 82.4503 14.6978C82.2753 14.6978 82.1123 14.6829 81.9611 14.649C81.81 14.6178 81.635 14.5609 81.4348 14.4782C81.2372 14.3982 81.0967 14.3493 81.0185 14.3331C80.2376 14.0714 79.7205 14.2843 79.466 14.9677C79.1796 15.7488 79.458 16.3753 80.3026 16.8471C80.8753 17.1726 81.639 17.3353 82.5935 17.3353C83.6435 17.3353 84.508 16.9326 85.1841 16.1271C85.8589 15.3203 86.5722 14.0225 87.32 12.2326L91.4259 2.41766C91.8555 1.3586 91.6805 0.676515 90.9009 0.365985ZM100.421 8.69293C99.6097 8.69293 98.9733 8.66039 98.5119 8.5953V2.83218C99.2119 2.73455 99.904 2.68573 100.588 2.68573C102.833 2.68573 103.954 3.65393 103.954 5.5917C103.954 7.65828 102.776 8.69293 100.421 8.69293ZM114.356 6.91098C115.12 6.77944 115.932 6.71435 116.792 6.71435C120.771 6.71435 122.759 8.38362 122.759 11.7195C122.759 13.5257 122.226 14.8939 121.16 15.8214C120.093 16.749 118.526 17.2127 116.458 17.2127C115.104 17.2127 113.903 17.1327 112.853 16.97C111.945 16.8222 111.493 16.2933 111.493 15.3821V1.73366C111.493 1.31058 111.619 0.956657 111.875 0.671891C112.128 0.387125 112.471 0.244743 112.901 0.244743H120.395C120.81 0.244743 121.137 0.361361 121.375 0.59731C121.613 0.834615 121.733 1.15464 121.733 1.5628C121.733 1.95334 121.613 2.26658 121.375 2.50389C121.137 2.73848 120.81 2.85645 120.395 2.85645H114.356V6.91098ZM116.386 14.7963C115.605 14.7963 114.929 14.7556 114.356 14.6742V9.30165C114.961 9.18775 115.694 9.13079 116.553 9.13079C117.54 9.13079 118.319 9.35047 118.892 9.79118C119.465 10.2305 119.751 10.914 119.751 11.8415C119.751 13.8104 118.63 14.7963 116.386 14.7963ZM131.253 10.0357L133.497 3.88204L135.811 10.0357H131.253Z" fill="url(#paint0_linear)"/>
<path fill-rule="evenodd" clip-rule="evenodd" d="M152.017 8.17956C152.972 8.43992 153.707 8.90368 154.224 9.57085C154.743 10.238 155 11.0448 155 11.9886C155 13.8111 154.399 15.1577 153.198 16.0296C151.996 16.9002 150.456 17.3355 148.579 17.3355C146.781 17.3355 145.316 17.0344 144.187 16.4323C143.773 16.2045 143.485 15.9198 143.326 15.578C143.169 15.2363 143.169 14.8539 143.326 14.4295C143.614 13.78 144.29 13.6566 145.357 14.0634C146.486 14.5041 147.553 14.7238 148.555 14.7238C149.637 14.7238 150.482 14.4946 151.086 14.039C151.691 13.5833 151.992 12.9243 151.992 12.0619C151.992 10.4997 150.846 9.69289 148.555 9.64543H146.765C146.414 9.64543 146.132 9.54237 145.917 9.33896C145.702 9.13556 145.595 8.85486 145.595 8.49687C145.595 8.15515 145.702 7.87852 145.917 7.66698C146.132 7.45409 146.414 7.34832 146.765 7.34832H148.245C149.263 7.34832 150.055 7.13813 150.62 6.71505C151.186 6.29061 151.468 5.67227 151.468 4.85865C151.468 4.17521 151.232 3.63009 150.764 3.22328C150.293 2.81647 149.589 2.61307 148.651 2.61307C147.823 2.61307 146.829 2.81647 145.666 3.22328C144.68 3.565 144.052 3.45109 143.781 2.8802C143.606 2.52357 143.59 2.17778 143.733 1.8442C143.877 1.51062 144.155 1.22992 144.569 1.0021C145.778 0.333583 147.235 0 148.937 0C150.641 0 151.988 0.379688 152.982 1.135C153.978 1.89302 154.475 2.98733 154.475 4.4193C154.475 5.21664 154.268 5.96246 153.854 6.65403C153.441 7.34425 152.828 7.85276 152.017 8.17956ZM133.64 0.0010622C134.276 0.0010622 134.739 0.349561 135.025 1.05063L140.562 14.9431C140.738 15.3011 140.774 15.6917 140.671 16.1134C140.566 16.5378 140.317 16.8226 139.919 16.969C139.472 17.1318 139.078 17.1209 138.738 16.9324C138.395 16.7453 138.136 16.4158 137.962 15.9425L136.624 12.3301H130.49L129.248 15.7717C128.851 16.9446 128.197 17.3447 127.291 16.969C126.589 16.6599 126.43 15.9927 126.812 14.9675L132.184 1.19572C132.486 0.399734 132.972 0.0010622 133.64 0.0010622ZM100.661 0.122848C102.618 0.122848 104.157 0.558133 105.279 1.4287C106.402 2.29927 106.963 3.66208 106.963 5.51848C106.963 7.40608 106.373 8.83126 105.197 9.79133C104.018 10.7514 102.483 11.2314 100.588 11.2314C99.6813 11.2314 98.9892 11.1907 98.5119 11.1094V15.6019C98.5119 16.0413 98.3846 16.4006 98.1288 16.6772C97.8755 16.9539 97.5242 17.0908 97.0787 17.0908C96.6187 17.0908 96.2634 16.9539 96.0181 16.6772C95.7702 16.4006 95.6469 16.0413 95.6469 15.6019V2.14875C95.6469 1.18869 96.0923 0.619154 96.9833 0.440159C98.0346 0.228618 99.2597 0.122848 100.661 0.122848ZM44.7471 0.12286C46.7041 0.12286 48.2437 0.556454 49.3652 1.42755C50.4878 2.29864 51.0488 3.66192 51.0488 5.51739C51.0488 7.40802 50.459 8.82989 49.2827 9.79083C48.104 10.7518 46.5688 11.2322 44.6743 11.2322C43.7676 11.2322 43.0757 11.1893 42.5981 11.1111V15.6033C42.5981 15.865 42.5532 16.0994 42.4624 16.3025C42.4009 16.4393 42.3184 16.5643 42.2148 16.6775C41.9619 16.9549 41.6106 17.0916 41.165 17.0916C40.7051 17.0916 40.3496 16.9549 40.1045 16.6775C39.8564 16.4002 39.7332 16.0408 39.7332 15.6033V2.1502C39.7332 1.68536 39.8364 1.31427 40.0432 1.03302C40.2659 0.732235 40.6079 0.533016 41.0696 0.439266C41.6392 0.325985 42.2598 0.240047 42.9316 0.18536C43.5 0.142391 44.105 0.12286 44.7471 0.12286ZM13.8691 0.243954C13.3123 0.243954 12.843 0.552547 12.4612 1.17364L7.68701 9.05645L2.81592 1.19708C2.73755 1.06817 2.65454 0.950985 2.56665 0.845516C2.22681 0.443172 1.81689 0.243954 1.33643 0.243954C1.20728 0.243954 1.08618 0.255672 0.9729 0.283016C0.737305 0.337704 0.536377 0.450985 0.369873 0.62286C0.123291 0.87286 0 1.25958 0 1.78302V15.5994C0 15.8299 0.0236816 16.033 0.0712891 16.2088C0.133789 16.4393 0.237061 16.6268 0.380859 16.7674C0.491455 16.8729 0.625977 16.9549 0.784668 17.0096C0.944336 17.0643 1.12817 17.0916 1.33643 17.0916C2.22876 17.0916 2.67407 16.5955 2.67407 15.5994V5.78692L6.20728 11.451C6.55615 12.0213 7.00146 12.3065 7.5437 12.3065C7.72192 12.3065 7.88989 12.2713 8.04785 12.2049C8.18555 12.1463 8.31567 12.0643 8.43799 11.9549C8.58911 11.8182 8.72852 11.6424 8.8562 11.4275L12.3418 5.66583V15.5994L12.3445 15.7049C12.3484 15.7869 12.3574 15.869 12.3713 15.951C12.3882 16.0447 12.4121 16.1346 12.4431 16.2205C12.5066 16.3924 12.5999 16.5447 12.7236 16.6775C12.9783 16.951 13.3281 17.0916 13.7737 17.0916C14.2351 17.0916 14.5891 16.951 14.8357 16.6775C15.0823 16.4002 15.2068 16.0408 15.2068 15.5994V1.75567C15.2068 1.30255 15.0901 0.93536 14.8594 0.661922C14.6289 0.384579 14.2986 0.243954 13.8691 0.243954ZM32.7681 0.243954C32.2432 0.243954 31.7817 0.521297 31.384 1.07208L23.6731 11.99V1.75567C23.6731 1.5213 23.6384 1.31036 23.5688 1.12286C23.5073 0.954891 23.4187 0.802547 23.3032 0.669735C23.0566 0.384579 22.7026 0.243954 22.2412 0.243954C21.7627 0.243954 21.406 0.384579 21.166 0.669735L21.0657 0.806454L20.9822 0.950985C20.8662 1.18145 20.8081 1.45098 20.8081 1.75567V15.5994C20.8081 16.076 20.9275 16.4393 21.166 16.701C21.406 16.9627 21.7402 17.0916 22.1697 17.0916C22.6311 17.0916 23.0752 16.8065 23.5061 16.2361L31.2632 5.3963V15.5994C31.2632 15.8338 31.301 16.0486 31.3765 16.2361C31.4143 16.3338 31.4617 16.4236 31.5183 16.5096L31.6345 16.6619C31.7134 16.7518 31.8042 16.8299 31.9067 16.8924C32.1248 17.0252 32.396 17.0916 32.7205 17.0916L32.9573 17.0799L33.0994 17.0565C33.3784 16.994 33.6021 16.869 33.7703 16.6775L33.887 16.5213C34.0486 16.2713 34.1284 15.9627 34.1284 15.5994V1.75567C34.1284 0.74786 33.6763 0.243954 32.7681 0.243954ZM44.5073 8.69317C44.1616 8.69317 43.8477 8.68927 43.5654 8.67755C43.1855 8.66192 42.8628 8.63458 42.5981 8.59552V2.82989C43.2983 2.73223 43.9902 2.68536 44.6743 2.68536C46.9189 2.68536 48.0405 3.65411 48.0405 5.59161C48.0405 7.65802 46.8618 8.69317 44.5073 8.69317ZM63.0247 0.244212H74.3391C74.7686 0.244212 75.108 0.358118 75.3546 0.585931C75.6012 0.813744 75.7245 1.13105 75.7245 1.53786C75.7245 1.9284 75.6012 2.24707 75.3546 2.48979C75.108 2.73524 74.7686 2.85728 74.3391 2.85728H70.1137V15.6012C70.1137 16.0406 69.9918 16.3999 69.7439 16.6766C69.4986 16.9532 69.1433 17.0915 68.6819 17.0915C68.2205 17.0915 67.8665 16.9532 67.6199 16.6766C67.3733 16.3999 67.25 16.0406 67.25 15.6012V2.85728H63.0247C62.6111 2.85728 62.2796 2.73524 62.0344 2.48979C61.7864 2.24707 61.6631 1.9284 61.6631 1.53786C61.6631 1.13105 61.7864 0.813744 62.0344 0.585931C62.2796 0.358118 62.6111 0.244212 63.0247 0.244212ZM90.9009 0.365985C90.0736 0.0568103 89.4373 0.455483 88.9918 1.56336L85.6256 9.91242L81.1126 1.3925C80.8435 0.870427 80.5253 0.52464 80.158 0.35378C79.7921 0.182921 79.3944 0.212754 78.9648 0.440566C78.5671 0.668379 78.3523 1.01417 78.3205 1.47657C78.2887 1.94169 78.408 2.40138 78.6785 2.85701L84.2892 12.6719C84.0333 13.3554 83.7629 13.8639 83.4765 14.1975C83.1915 14.5311 82.8481 14.6978 82.4503 14.6978C82.2753 14.6978 82.1123 14.6829 81.9611 14.649C81.81 14.6178 81.635 14.5609 81.4348 14.4782C81.2372 14.3982 81.0967 14.3493 81.0185 14.3331C80.2376 14.0714 79.7205 14.2843 79.466 14.9677C79.1796 15.7488 79.458 16.3753 80.3026 16.8471C80.8753 17.1726 81.639 17.3353 82.5935 17.3353C83.6435 17.3353 84.508 16.9326 85.1841 16.1271C85.8589 15.3203 86.5722 14.0225 87.32 12.2326L91.4259 2.41766C91.8555 1.3586 91.6805 0.676515 90.9009 0.365985ZM100.421 8.69293C99.6097 8.69293 98.9733 8.66039 98.5119 8.5953V2.83218C99.2119 2.73455 99.904 2.68573 100.588 2.68573C102.833 2.68573 103.954 3.65393 103.954 5.5917C103.954 7.65828 102.776 8.69293 100.421 8.69293ZM114.356 6.91098C115.12 6.77944 115.932 6.71435 116.792 6.71435C120.771 6.71435 122.759 8.38362 122.759 11.7195C122.759 13.5257 122.226 14.8939 121.16 15.8214C120.093 16.749 118.526 17.2127 116.458 17.2127C115.104 17.2127 113.903 17.1327 112.853 16.97C111.945 16.8222 111.493 16.2933 111.493 15.3821V1.73366C111.493 1.31058 111.619 0.956657 111.875 0.671891C112.128 0.387125 112.471 0.244743 112.901 0.244743H120.395C120.81 0.244743 121.137 0.361361 121.375 0.59731C121.613 0.834615 121.733 1.15464 121.733 1.5628C121.733 1.95334 121.613 2.26658 121.375 2.50389C121.137 2.73848 120.81 2.85645 120.395 2.85645H114.356V6.91098ZM116.386 14.7963C115.605 14.7963 114.929 14.7556 114.356 14.6742V9.30165C114.961 9.18775 115.694 9.13079 116.553 9.13079C117.54 9.13079 118.319 9.35047 118.892 9.79118C119.465 10.2305 119.751 10.914 119.751 11.8415C119.751 13.8104 118.63 14.7963 116.386 14.7963ZM131.253 10.0357L133.497 3.88204L135.811 10.0357H131.253Z" fill="white"/>
<defs>
<linearGradient id="paint0_linear" x1="77.5" y1="30.2649" x2="77.5" y2="-1.32551e-07" gradientUnits="userSpaceOnUse">
<stop offset="0.325079" stop-color="#4BD150"/>
<stop offset="1" stop-color="#47B04B"/>
</linearGradient>
</defs>
</svg>
