<svg width="126" height="15" viewBox="0 0 126 15" fill="none" xmlns="http://www.w3.org/2000/svg">
<path fill-rule="evenodd" clip-rule="evenodd" d="M122.768 7.37675C123.539 7.58507 124.133 7.95614 124.551 8.48996C124.969 9.02378 125.177 9.66935 125.177 10.4245C125.177 11.8828 124.692 12.9602 123.722 13.6578C122.751 14.3544 121.508 14.7027 119.992 14.7027C118.54 14.7027 117.357 14.4618 116.444 13.9801C116.11 13.7978 115.878 13.5699 115.749 13.2965C115.622 13.0231 115.622 12.7171 115.749 12.3775C115.982 11.8578 116.528 11.7591 117.39 12.0846C118.301 12.4372 119.163 12.613 119.972 12.613C120.846 12.613 121.528 12.4296 122.016 12.065C122.505 11.7005 122.748 11.1732 122.748 10.4831C122.748 9.23318 121.823 8.58761 119.972 8.54963H118.527C118.243 8.54963 118.015 8.46717 117.842 8.30442C117.668 8.14167 117.581 7.91708 117.581 7.63064C117.581 7.35722 117.668 7.13588 117.842 6.96662C118.015 6.79627 118.243 6.71164 118.527 6.71164H119.722C120.544 6.71164 121.183 6.54347 121.639 6.20495C122.097 5.86534 122.325 5.37058 122.325 4.71958C122.325 4.17275 122.134 3.73658 121.756 3.41108C121.376 3.08558 120.807 2.92283 120.049 2.92283C119.381 2.92283 118.578 3.08558 117.639 3.41108C116.843 3.6845 116.335 3.59336 116.117 3.13657C115.975 2.85122 115.963 2.57454 116.078 2.30763C116.194 2.04072 116.419 1.81613 116.753 1.63385C117.729 1.09894 118.906 0.832031 120.281 0.832031C121.657 0.832031 122.744 1.13583 123.547 1.74018C124.352 2.34669 124.753 3.22229 124.753 4.36804C124.753 5.00602 124.586 5.60277 124.252 6.15612C123.918 6.70839 123.423 7.11526 122.768 7.37675ZM107.927 0.832898C108.441 0.832898 108.814 1.11174 109.046 1.67269L113.517 12.7885C113.659 13.0749 113.688 13.3874 113.605 13.7249C113.52 14.0645 113.319 14.2923 112.997 14.4095C112.637 14.5397 112.319 14.531 112.043 14.3802C111.767 14.2305 111.557 13.9668 111.417 13.5882L110.337 10.6977H105.383L104.379 13.4514C104.059 14.39 103.531 14.71 102.799 14.4095C102.233 14.1621 102.104 13.6283 102.413 12.808L106.751 1.78878C106.995 1.15189 107.387 0.832898 107.927 0.832898ZM81.2933 0.930335C82.8736 0.930335 84.1167 1.27862 85.0225 1.97519C85.9294 2.67176 86.3823 3.76218 86.3823 5.24755C86.3823 6.75787 85.9059 7.8982 84.9562 8.66638C84.0043 9.43456 82.7644 9.81865 81.2344 9.81865C80.502 9.81865 79.9431 9.7861 79.5577 9.721V13.3156C79.5577 13.6671 79.4549 13.9547 79.2483 14.176C79.0437 14.3974 78.76 14.5069 78.4003 14.5069C78.0287 14.5069 77.7418 14.3974 77.5437 14.176C77.3435 13.9547 77.2439 13.6671 77.2439 13.3156V2.55132C77.2439 1.78314 77.6037 1.32744 78.3232 1.18422C79.1722 1.01496 80.1616 0.930335 81.2933 0.930335ZM36.1376 0.930347C37.718 0.930347 38.961 1.27863 39.8669 1.9752C40.7737 2.67177 41.2267 3.7622 41.2267 5.24756C41.2267 6.75788 40.7502 7.89821 39.8005 8.66639C38.8486 9.43457 37.6087 9.81866 36.0787 9.81866C35.3464 9.81866 34.7874 9.78611 34.402 9.72101V13.3156C34.402 13.6672 34.2992 13.9547 34.0926 14.176C33.8881 14.3974 33.6043 14.5069 33.2446 14.5069C32.873 14.5069 32.5861 14.3974 32.388 14.176C32.1878 13.9547 32.0882 13.6672 32.0882 13.3156V2.55134C32.0882 1.78316 32.448 1.32746 33.1675 1.18424C34.0165 1.01498 35.0059 0.930347 36.1376 0.930347ZM11.2006 1.02746C10.7509 1.02746 10.3719 1.27592 10.0635 1.77068L6.20793 8.07996L2.27417 1.78913C1.96581 1.28135 1.56751 1.02746 1.07927 1.02746C0.758057 1.02746 0.497876 1.12836 0.298726 1.33017C0.0995753 1.53198 0 1.84121 0 2.25893V13.3151C0 14.1104 0.359756 14.5075 1.07927 14.5075C1.79985 14.5075 2.15961 14.1104 2.15961 13.3151V5.46185L5.01302 9.99498C5.29462 10.4507 5.65438 10.6785 6.09229 10.6785C6.51629 10.6785 6.86962 10.4442 7.15229 9.97437L9.96716 5.3642V13.3151C9.96716 13.6666 10.0689 13.9541 10.2755 14.1755C10.4811 14.3968 10.7638 14.5075 11.1235 14.5075C11.4961 14.5075 11.782 14.3968 11.9812 14.1755C12.1803 13.9541 12.2809 13.6666 12.2809 13.3151V2.23832C12.2809 1.87376 12.1867 1.58189 12.0004 1.36055C11.8141 1.13921 11.5475 1.02746 11.2006 1.02746ZM26.4633 1.02746C26.0393 1.02746 25.6667 1.2488 25.3455 1.69148L19.1183 10.4246V2.23832C19.1183 1.88678 19.0187 1.59708 18.8196 1.36923C18.6204 1.14138 18.3345 1.02746 17.9619 1.02746C17.5754 1.02746 17.2874 1.14138 17.0936 1.36923C16.9009 1.59708 16.8045 1.88678 16.8045 2.23832V13.3151C16.8045 13.6937 16.9009 13.9856 17.0936 14.195C17.2874 14.4033 17.5572 14.5075 17.9041 14.5075C18.2767 14.5075 18.6354 14.2796 18.9834 13.8239L25.248 5.14937V13.3151C25.248 13.6547 25.3487 13.9368 25.5478 14.1646C25.747 14.3925 26.0393 14.5075 26.4247 14.5075C26.7973 14.5075 27.08 14.3968 27.2727 14.1755C27.4665 13.9541 27.5618 13.6666 27.5618 13.3151V2.23832C27.5618 1.43108 27.1967 1.02746 26.4633 1.02746ZM35.9438 7.78751C35.2885 7.78751 34.7746 7.76147 34.402 7.70939V3.09814C34.9673 3.02002 35.5262 2.98096 36.0787 2.98096C37.8914 2.98096 38.7972 3.75565 38.7972 5.30612C38.7972 6.95966 37.8453 7.78751 35.9438 7.78751ZM50.8984 1.02745H60.0358C60.3827 1.02745 60.6568 1.11859 60.8559 1.30087C61.0551 1.48315 61.1546 1.73704 61.1546 2.06254C61.1546 2.37502 61.0551 2.62999 60.8559 2.82421C60.6568 3.02059 60.3827 3.11824 60.0358 3.11824H56.6234V13.3151C56.6234 13.6666 56.5249 13.9541 56.3247 14.1755C56.1266 14.3968 55.8397 14.5075 55.4671 14.5075C55.0945 14.5075 54.8086 14.3968 54.6094 14.1755C54.4103 13.9541 54.3107 13.6666 54.3107 13.3151V3.11824H50.8984C50.5643 3.11824 50.2967 3.02059 50.0986 2.82421C49.8984 2.62999 49.7988 2.37502 49.7988 2.06254C49.7988 1.73704 49.8984 1.48315 50.0986 1.30087C50.2967 1.11859 50.5643 1.02745 50.8984 1.02745ZM73.411 1.12488C72.7429 0.877505 72.229 1.19649 71.8692 2.08294L69.1507 8.76328L65.506 1.94623C65.2887 1.5285 65.0317 1.25183 64.7351 1.11512C64.4396 0.97841 64.1184 1.00228 63.7715 1.18456C63.4503 1.36684 63.2768 1.64351 63.2511 2.0135C63.2254 2.38565 63.3218 2.75347 63.5402 3.11803L68.0714 10.9713C67.8648 11.5181 67.6464 11.925 67.4151 12.1919C67.1849 12.4588 66.9076 12.5922 66.5864 12.5922C66.445 12.5922 66.3133 12.5803 66.1913 12.5532C66.0692 12.5282 65.9279 12.4827 65.7662 12.4165C65.6067 12.3525 65.4932 12.3134 65.43 12.3004C64.7994 12.091 64.3818 12.2613 64.1762 12.8082C63.945 13.4331 64.1698 13.9344 64.8518 14.312C65.3144 14.5724 65.9311 14.7026 66.702 14.7026C67.55 14.7026 68.2481 14.3803 68.7942 13.7358C69.3392 13.0903 69.9152 12.0519 70.5191 10.6197L73.835 2.76649C74.1819 1.9191 74.0406 1.37335 73.411 1.12488ZM81.0994 7.7875C80.4442 7.7875 79.9302 7.76146 79.5576 7.70938V3.09813C80.123 3.02001 80.6819 2.98095 81.2344 2.98095C83.0471 2.98095 83.9529 3.75564 83.9529 5.30611C83.9529 6.95965 83.001 7.7875 81.0994 7.7875ZM92.3535 6.36174C92.9702 6.25649 93.6255 6.20441 94.3204 6.20441C97.5335 6.20441 99.1396 7.54005 99.1396 10.2091C99.1396 11.6544 98.7092 12.7491 97.8483 13.4913C96.9864 14.2334 95.7208 14.6045 94.0506 14.6045C92.9574 14.6045 91.9873 14.5405 91.1393 14.4103C90.4059 14.292 90.0408 13.8689 90.0408 13.1397V2.21921C90.0408 1.88069 90.1425 1.5975 90.3491 1.36965C90.5536 1.1418 90.831 1.02788 91.1779 1.02788H97.2305C97.5657 1.02788 97.8291 1.12119 98.0218 1.30998C98.2134 1.49985 98.3109 1.75591 98.3109 2.0825C98.3109 2.39498 98.2134 2.64561 98.0218 2.83549C97.8291 3.02319 97.5657 3.11759 97.2305 3.11759H92.3535V6.36174ZM93.9928 12.671C93.3622 12.671 92.8161 12.6384 92.3536 12.5733V8.27456C92.8418 8.18342 93.4339 8.13785 94.1277 8.13785C94.9243 8.13785 95.5539 8.31362 96.0164 8.66624C96.479 9.01778 96.7103 9.56462 96.7103 10.3068C96.7103 11.8822 95.8045 12.671 93.9928 12.671ZM106 8.86194L107.811 3.93821L109.681 8.86194H106Z" fill="#47B04B"/>
<path fill-rule="evenodd" clip-rule="evenodd" d="M122.768 7.37675C123.539 7.58507 124.133 7.95614 124.551 8.48996C124.969 9.02378 125.177 9.66935 125.177 10.4245C125.177 11.8828 124.692 12.9602 123.722 13.6578C122.751 14.3544 121.508 14.7027 119.992 14.7027C118.54 14.7027 117.357 14.4618 116.444 13.9801C116.11 13.7978 115.878 13.5699 115.749 13.2965C115.622 13.0231 115.622 12.7171 115.749 12.3775C115.982 11.8578 116.528 11.7591 117.39 12.0846C118.301 12.4372 119.163 12.613 119.972 12.613C120.846 12.613 121.528 12.4296 122.016 12.065C122.505 11.7005 122.748 11.1732 122.748 10.4831C122.748 9.23318 121.823 8.58761 119.972 8.54963H118.527C118.243 8.54963 118.015 8.46717 117.842 8.30442C117.668 8.14167 117.581 7.91708 117.581 7.63064C117.581 7.35722 117.668 7.13588 117.842 6.96662C118.015 6.79627 118.243 6.71164 118.527 6.71164H119.722C120.544 6.71164 121.183 6.54347 121.639 6.20495C122.097 5.86534 122.325 5.37058 122.325 4.71958C122.325 4.17275 122.134 3.73658 121.756 3.41108C121.376 3.08558 120.807 2.92283 120.049 2.92283C119.381 2.92283 118.578 3.08558 117.639 3.41108C116.843 3.6845 116.335 3.59336 116.117 3.13657C115.975 2.85122 115.963 2.57454 116.078 2.30763C116.194 2.04072 116.419 1.81613 116.753 1.63385C117.729 1.09894 118.906 0.832031 120.281 0.832031C121.657 0.832031 122.744 1.13583 123.547 1.74018C124.352 2.34669 124.753 3.22229 124.753 4.36804C124.753 5.00602 124.586 5.60277 124.252 6.15612C123.918 6.70839 123.423 7.11526 122.768 7.37675ZM107.927 0.832898C108.441 0.832898 108.814 1.11174 109.046 1.67269L113.517 12.7885C113.659 13.0749 113.688 13.3874 113.605 13.7249C113.52 14.0645 113.319 14.2923 112.997 14.4095C112.637 14.5397 112.319 14.531 112.043 14.3802C111.767 14.2305 111.557 13.9668 111.417 13.5882L110.337 10.6977H105.383L104.379 13.4514C104.059 14.39 103.531 14.71 102.799 14.4095C102.233 14.1621 102.104 13.6283 102.413 12.808L106.751 1.78878C106.995 1.15189 107.387 0.832898 107.927 0.832898ZM81.2933 0.930335C82.8736 0.930335 84.1167 1.27862 85.0225 1.97519C85.9294 2.67176 86.3823 3.76218 86.3823 5.24755C86.3823 6.75787 85.9059 7.8982 84.9562 8.66638C84.0043 9.43456 82.7644 9.81865 81.2344 9.81865C80.502 9.81865 79.9431 9.7861 79.5577 9.721V13.3156C79.5577 13.6671 79.4549 13.9547 79.2483 14.176C79.0437 14.3974 78.76 14.5069 78.4003 14.5069C78.0287 14.5069 77.7418 14.3974 77.5437 14.176C77.3435 13.9547 77.2439 13.6671 77.2439 13.3156V2.55132C77.2439 1.78314 77.6037 1.32744 78.3232 1.18422C79.1722 1.01496 80.1616 0.930335 81.2933 0.930335ZM36.1376 0.930347C37.718 0.930347 38.961 1.27863 39.8669 1.9752C40.7737 2.67177 41.2267 3.7622 41.2267 5.24756C41.2267 6.75788 40.7502 7.89821 39.8005 8.66639C38.8486 9.43457 37.6087 9.81866 36.0787 9.81866C35.3464 9.81866 34.7874 9.78611 34.402 9.72101V13.3156C34.402 13.6672 34.2992 13.9547 34.0926 14.176C33.8881 14.3974 33.6043 14.5069 33.2446 14.5069C32.873 14.5069 32.5861 14.3974 32.388 14.176C32.1878 13.9547 32.0882 13.6672 32.0882 13.3156V2.55134C32.0882 1.78316 32.448 1.32746 33.1675 1.18424C34.0165 1.01498 35.0059 0.930347 36.1376 0.930347ZM11.2006 1.02746C10.7509 1.02746 10.3719 1.27592 10.0635 1.77068L6.20793 8.07996L2.27417 1.78913C1.96581 1.28135 1.56751 1.02746 1.07927 1.02746C0.758057 1.02746 0.497876 1.12836 0.298726 1.33017C0.0995753 1.53198 0 1.84121 0 2.25893V13.3151C0 14.1104 0.359756 14.5075 1.07927 14.5075C1.79985 14.5075 2.15961 14.1104 2.15961 13.3151V5.46185L5.01302 9.99498C5.29462 10.4507 5.65438 10.6785 6.09229 10.6785C6.51629 10.6785 6.86962 10.4442 7.15229 9.97437L9.96716 5.3642V13.3151C9.96716 13.6666 10.0689 13.9541 10.2755 14.1755C10.4811 14.3968 10.7638 14.5075 11.1235 14.5075C11.4961 14.5075 11.782 14.3968 11.9812 14.1755C12.1803 13.9541 12.2809 13.6666 12.2809 13.3151V2.23832C12.2809 1.87376 12.1867 1.58189 12.0004 1.36055C11.8141 1.13921 11.5475 1.02746 11.2006 1.02746ZM26.4633 1.02746C26.0393 1.02746 25.6667 1.2488 25.3455 1.69148L19.1183 10.4246V2.23832C19.1183 1.88678 19.0187 1.59708 18.8196 1.36923C18.6204 1.14138 18.3345 1.02746 17.9619 1.02746C17.5754 1.02746 17.2874 1.14138 17.0936 1.36923C16.9009 1.59708 16.8045 1.88678 16.8045 2.23832V13.3151C16.8045 13.6937 16.9009 13.9856 17.0936 14.195C17.2874 14.4033 17.5572 14.5075 17.9041 14.5075C18.2767 14.5075 18.6354 14.2796 18.9834 13.8239L25.248 5.14937V13.3151C25.248 13.6547 25.3487 13.9368 25.5478 14.1646C25.747 14.3925 26.0393 14.5075 26.4247 14.5075C26.7973 14.5075 27.08 14.3968 27.2727 14.1755C27.4665 13.9541 27.5618 13.6666 27.5618 13.3151V2.23832C27.5618 1.43108 27.1967 1.02746 26.4633 1.02746ZM35.9438 7.78751C35.2885 7.78751 34.7746 7.76147 34.402 7.70939V3.09814C34.9673 3.02002 35.5262 2.98096 36.0787 2.98096C37.8914 2.98096 38.7972 3.75565 38.7972 5.30612C38.7972 6.95966 37.8453 7.78751 35.9438 7.78751ZM50.8984 1.02745H60.0358C60.3827 1.02745 60.6568 1.11859 60.8559 1.30087C61.0551 1.48315 61.1546 1.73704 61.1546 2.06254C61.1546 2.37502 61.0551 2.62999 60.8559 2.82421C60.6568 3.02059 60.3827 3.11824 60.0358 3.11824H56.6234V13.3151C56.6234 13.6666 56.5249 13.9541 56.3247 14.1755C56.1266 14.3968 55.8397 14.5075 55.4671 14.5075C55.0945 14.5075 54.8086 14.3968 54.6094 14.1755C54.4103 13.9541 54.3107 13.6666 54.3107 13.3151V3.11824H50.8984C50.5643 3.11824 50.2967 3.02059 50.0986 2.82421C49.8984 2.62999 49.7988 2.37502 49.7988 2.06254C49.7988 1.73704 49.8984 1.48315 50.0986 1.30087C50.2967 1.11859 50.5643 1.02745 50.8984 1.02745ZM73.411 1.12488C72.7429 0.877505 72.229 1.19649 71.8692 2.08294L69.1507 8.76328L65.506 1.94623C65.2887 1.5285 65.0317 1.25183 64.7351 1.11512C64.4396 0.97841 64.1184 1.00228 63.7715 1.18456C63.4503 1.36684 63.2768 1.64351 63.2511 2.0135C63.2254 2.38565 63.3218 2.75347 63.5402 3.11803L68.0714 10.9713C67.8648 11.5181 67.6464 11.925 67.4151 12.1919C67.1849 12.4588 66.9076 12.5922 66.5864 12.5922C66.445 12.5922 66.3133 12.5803 66.1913 12.5532C66.0692 12.5282 65.9279 12.4827 65.7662 12.4165C65.6067 12.3525 65.4932 12.3134 65.43 12.3004C64.7994 12.091 64.3818 12.2613 64.1762 12.8082C63.945 13.4331 64.1698 13.9344 64.8518 14.312C65.3144 14.5724 65.9311 14.7026 66.702 14.7026C67.55 14.7026 68.2481 14.3803 68.7942 13.7358C69.3392 13.0903 69.9152 12.0519 70.5191 10.6197L73.835 2.76649C74.1819 1.9191 74.0406 1.37335 73.411 1.12488ZM81.0994 7.7875C80.4442 7.7875 79.9302 7.76146 79.5576 7.70938V3.09813C80.123 3.02001 80.6819 2.98095 81.2344 2.98095C83.0471 2.98095 83.9529 3.75564 83.9529 5.30611C83.9529 6.95965 83.001 7.7875 81.0994 7.7875ZM92.3535 6.36174C92.9702 6.25649 93.6255 6.20441 94.3204 6.20441C97.5335 6.20441 99.1396 7.54005 99.1396 10.2091C99.1396 11.6544 98.7092 12.7491 97.8483 13.4913C96.9864 14.2334 95.7208 14.6045 94.0506 14.6045C92.9574 14.6045 91.9873 14.5405 91.1393 14.4103C90.4059 14.292 90.0408 13.8689 90.0408 13.1397V2.21921C90.0408 1.88069 90.1425 1.5975 90.3491 1.36965C90.5536 1.1418 90.831 1.02788 91.1779 1.02788H97.2305C97.5657 1.02788 97.8291 1.12119 98.0218 1.30998C98.2134 1.49985 98.3109 1.75591 98.3109 2.0825C98.3109 2.39498 98.2134 2.64561 98.0218 2.83549C97.8291 3.02319 97.5657 3.11759 97.2305 3.11759H92.3535V6.36174ZM93.9928 12.671C93.3622 12.671 92.8161 12.6384 92.3536 12.5733V8.27456C92.8418 8.18342 93.4339 8.13785 94.1277 8.13785C94.9243 8.13785 95.5539 8.31362 96.0164 8.66624C96.479 9.01778 96.7103 9.56462 96.7103 10.3068C96.7103 11.8822 95.8045 12.671 93.9928 12.671ZM106 8.86194L107.811 3.93821L109.681 8.86194H106Z" fill="url(#paint0_linear)"/>
<path fill-rule="evenodd" clip-rule="evenodd" d="M122.768 7.37675C123.539 7.58507 124.133 7.95614 124.551 8.48996C124.969 9.02378 125.177 9.66935 125.177 10.4245C125.177 11.8828 124.692 12.9602 123.722 13.6578C122.751 14.3544 121.508 14.7027 119.992 14.7027C118.54 14.7027 117.357 14.4618 116.444 13.9801C116.11 13.7978 115.878 13.5699 115.749 13.2965C115.622 13.0231 115.622 12.7171 115.749 12.3775C115.982 11.8578 116.528 11.7591 117.39 12.0846C118.301 12.4372 119.163 12.613 119.972 12.613C120.846 12.613 121.528 12.4296 122.016 12.065C122.505 11.7005 122.748 11.1732 122.748 10.4831C122.748 9.23318 121.823 8.58761 119.972 8.54963H118.527C118.243 8.54963 118.015 8.46717 117.842 8.30442C117.668 8.14167 117.581 7.91708 117.581 7.63064C117.581 7.35722 117.668 7.13588 117.842 6.96662C118.015 6.79627 118.243 6.71164 118.527 6.71164H119.722C120.544 6.71164 121.183 6.54347 121.639 6.20495C122.097 5.86534 122.325 5.37058 122.325 4.71958C122.325 4.17275 122.134 3.73658 121.756 3.41108C121.376 3.08558 120.807 2.92283 120.049 2.92283C119.381 2.92283 118.578 3.08558 117.639 3.41108C116.843 3.6845 116.335 3.59336 116.117 3.13657C115.975 2.85122 115.963 2.57454 116.078 2.30763C116.194 2.04072 116.419 1.81613 116.753 1.63385C117.729 1.09894 118.906 0.832031 120.281 0.832031C121.657 0.832031 122.744 1.13583 123.547 1.74018C124.352 2.34669 124.753 3.22229 124.753 4.36804C124.753 5.00602 124.586 5.60277 124.252 6.15612C123.918 6.70839 123.423 7.11526 122.768 7.37675ZM107.927 0.832898C108.441 0.832898 108.814 1.11174 109.046 1.67269L113.517 12.7885C113.659 13.0749 113.688 13.3874 113.605 13.7249C113.52 14.0645 113.319 14.2923 112.997 14.4095C112.637 14.5397 112.319 14.531 112.043 14.3802C111.767 14.2305 111.557 13.9668 111.417 13.5882L110.337 10.6977H105.383L104.379 13.4514C104.059 14.39 103.531 14.71 102.799 14.4095C102.233 14.1621 102.104 13.6283 102.413 12.808L106.751 1.78878C106.995 1.15189 107.387 0.832898 107.927 0.832898ZM81.2933 0.930335C82.8736 0.930335 84.1167 1.27862 85.0225 1.97519C85.9294 2.67176 86.3823 3.76218 86.3823 5.24755C86.3823 6.75787 85.9059 7.8982 84.9562 8.66638C84.0043 9.43456 82.7644 9.81865 81.2344 9.81865C80.502 9.81865 79.9431 9.7861 79.5577 9.721V13.3156C79.5577 13.6671 79.4549 13.9547 79.2483 14.176C79.0437 14.3974 78.76 14.5069 78.4003 14.5069C78.0287 14.5069 77.7418 14.3974 77.5437 14.176C77.3435 13.9547 77.2439 13.6671 77.2439 13.3156V2.55132C77.2439 1.78314 77.6037 1.32744 78.3232 1.18422C79.1722 1.01496 80.1616 0.930335 81.2933 0.930335ZM36.1376 0.930347C37.718 0.930347 38.961 1.27863 39.8669 1.9752C40.7737 2.67177 41.2267 3.7622 41.2267 5.24756C41.2267 6.75788 40.7502 7.89821 39.8005 8.66639C38.8486 9.43457 37.6087 9.81866 36.0787 9.81866C35.3464 9.81866 34.7874 9.78611 34.402 9.72101V13.3156C34.402 13.6672 34.2992 13.9547 34.0926 14.176C33.8881 14.3974 33.6043 14.5069 33.2446 14.5069C32.873 14.5069 32.5861 14.3974 32.388 14.176C32.1878 13.9547 32.0882 13.6672 32.0882 13.3156V2.55134C32.0882 1.78316 32.448 1.32746 33.1675 1.18424C34.0165 1.01498 35.0059 0.930347 36.1376 0.930347ZM11.2006 1.02746C10.7509 1.02746 10.3719 1.27592 10.0635 1.77068L6.20793 8.07996L2.27417 1.78913C1.96581 1.28135 1.56751 1.02746 1.07927 1.02746C0.758057 1.02746 0.497876 1.12836 0.298726 1.33017C0.0995753 1.53198 0 1.84121 0 2.25893V13.3151C0 14.1104 0.359756 14.5075 1.07927 14.5075C1.79985 14.5075 2.15961 14.1104 2.15961 13.3151V5.46185L5.01302 9.99498C5.29462 10.4507 5.65438 10.6785 6.09229 10.6785C6.51629 10.6785 6.86962 10.4442 7.15229 9.97437L9.96716 5.3642V13.3151C9.96716 13.6666 10.0689 13.9541 10.2755 14.1755C10.4811 14.3968 10.7638 14.5075 11.1235 14.5075C11.4961 14.5075 11.782 14.3968 11.9812 14.1755C12.1803 13.9541 12.2809 13.6666 12.2809 13.3151V2.23832C12.2809 1.87376 12.1867 1.58189 12.0004 1.36055C11.8141 1.13921 11.5475 1.02746 11.2006 1.02746ZM26.4633 1.02746C26.0393 1.02746 25.6667 1.2488 25.3455 1.69148L19.1183 10.4246V2.23832C19.1183 1.88678 19.0187 1.59708 18.8196 1.36923C18.6204 1.14138 18.3345 1.02746 17.9619 1.02746C17.5754 1.02746 17.2874 1.14138 17.0936 1.36923C16.9009 1.59708 16.8045 1.88678 16.8045 2.23832V13.3151C16.8045 13.6937 16.9009 13.9856 17.0936 14.195C17.2874 14.4033 17.5572 14.5075 17.9041 14.5075C18.2767 14.5075 18.6354 14.2796 18.9834 13.8239L25.248 5.14937V13.3151C25.248 13.6547 25.3487 13.9368 25.5478 14.1646C25.747 14.3925 26.0393 14.5075 26.4247 14.5075C26.7973 14.5075 27.08 14.3968 27.2727 14.1755C27.4665 13.9541 27.5618 13.6666 27.5618 13.3151V2.23832C27.5618 1.43108 27.1967 1.02746 26.4633 1.02746ZM35.9438 7.78751C35.2885 7.78751 34.7746 7.76147 34.402 7.70939V3.09814C34.9673 3.02002 35.5262 2.98096 36.0787 2.98096C37.8914 2.98096 38.7972 3.75565 38.7972 5.30612C38.7972 6.95966 37.8453 7.78751 35.9438 7.78751ZM50.8984 1.02745H60.0358C60.3827 1.02745 60.6568 1.11859 60.8559 1.30087C61.0551 1.48315 61.1546 1.73704 61.1546 2.06254C61.1546 2.37502 61.0551 2.62999 60.8559 2.82421C60.6568 3.02059 60.3827 3.11824 60.0358 3.11824H56.6234V13.3151C56.6234 13.6666 56.5249 13.9541 56.3247 14.1755C56.1266 14.3968 55.8397 14.5075 55.4671 14.5075C55.0945 14.5075 54.8086 14.3968 54.6094 14.1755C54.4103 13.9541 54.3107 13.6666 54.3107 13.3151V3.11824H50.8984C50.5643 3.11824 50.2967 3.02059 50.0986 2.82421C49.8984 2.62999 49.7988 2.37502 49.7988 2.06254C49.7988 1.73704 49.8984 1.48315 50.0986 1.30087C50.2967 1.11859 50.5643 1.02745 50.8984 1.02745ZM73.411 1.12488C72.7429 0.877505 72.229 1.19649 71.8692 2.08294L69.1507 8.76328L65.506 1.94623C65.2887 1.5285 65.0317 1.25183 64.7351 1.11512C64.4396 0.97841 64.1184 1.00228 63.7715 1.18456C63.4503 1.36684 63.2768 1.64351 63.2511 2.0135C63.2254 2.38565 63.3218 2.75347 63.5402 3.11803L68.0714 10.9713C67.8648 11.5181 67.6464 11.925 67.4151 12.1919C67.1849 12.4588 66.9076 12.5922 66.5864 12.5922C66.445 12.5922 66.3133 12.5803 66.1913 12.5532C66.0692 12.5282 65.9279 12.4827 65.7662 12.4165C65.6067 12.3525 65.4932 12.3134 65.43 12.3004C64.7994 12.091 64.3818 12.2613 64.1762 12.8082C63.945 13.4331 64.1698 13.9344 64.8518 14.312C65.3144 14.5724 65.9311 14.7026 66.702 14.7026C67.55 14.7026 68.2481 14.3803 68.7942 13.7358C69.3392 13.0903 69.9152 12.0519 70.5191 10.6197L73.835 2.76649C74.1819 1.9191 74.0406 1.37335 73.411 1.12488ZM81.0994 7.7875C80.4442 7.7875 79.9302 7.76146 79.5576 7.70938V3.09813C80.123 3.02001 80.6819 2.98095 81.2344 2.98095C83.0471 2.98095 83.9529 3.75564 83.9529 5.30611C83.9529 6.95965 83.001 7.7875 81.0994 7.7875ZM92.3535 6.36174C92.9702 6.25649 93.6255 6.20441 94.3204 6.20441C97.5335 6.20441 99.1396 7.54005 99.1396 10.2091C99.1396 11.6544 98.7092 12.7491 97.8483 13.4913C96.9864 14.2334 95.7208 14.6045 94.0506 14.6045C92.9574 14.6045 91.9873 14.5405 91.1393 14.4103C90.4059 14.292 90.0408 13.8689 90.0408 13.1397V2.21921C90.0408 1.88069 90.1425 1.5975 90.3491 1.36965C90.5536 1.1418 90.831 1.02788 91.1779 1.02788H97.2305C97.5657 1.02788 97.8291 1.12119 98.0218 1.30998C98.2134 1.49985 98.3109 1.75591 98.3109 2.0825C98.3109 2.39498 98.2134 2.64561 98.0218 2.83549C97.8291 3.02319 97.5657 3.11759 97.2305 3.11759H92.3535V6.36174ZM93.9928 12.671C93.3622 12.671 92.8161 12.6384 92.3536 12.5733V8.27456C92.8418 8.18342 93.4339 8.13785 94.1277 8.13785C94.9243 8.13785 95.5539 8.31362 96.0164 8.66624C96.479 9.01778 96.7103 9.56462 96.7103 10.3068C96.7103 11.8822 95.8045 12.671 93.9928 12.671ZM106 8.86194L107.811 3.93821L109.681 8.86194H106Z" fill="white"/>
<defs>
<linearGradient id="paint0_linear" x1="62.5885" y1="25.0479" x2="62.5885" y2="0.832031" gradientUnits="userSpaceOnUse">
<stop offset="0.325079" stop-color="#4BD150"/>
<stop offset="1" stop-color="#47B04B"/>
</linearGradient>
</defs>
</svg>
