<svg width="155" height="18" viewBox="0 0 155 18" fill="none" xmlns="http://www.w3.org/2000/svg">
<path fill-rule="evenodd" clip-rule="evenodd" d="M152.017 8.17956C152.972 8.43992 153.707 8.90368 154.224 9.57085C154.743 10.238 155 11.0448 155 11.9886C155 13.8111 154.399 15.1577 153.198 16.0296C151.996 16.9002 150.456 17.3355 148.579 17.3355C146.781 17.3355 145.316 17.0344 144.187 16.4323C143.773 16.2045 143.485 15.9198 143.326 15.578C143.169 15.2363 143.169 14.8539 143.326 14.4295C143.614 13.78 144.29 13.6566 145.357 14.0634C146.486 14.5041 147.553 14.7238 148.555 14.7238C149.637 14.7238 150.482 14.4946 151.086 14.039C151.691 13.5833 151.992 12.9243 151.992 12.0619C151.992 10.4997 150.846 9.69289 148.555 9.64543H146.765C146.414 9.64543 146.132 9.54237 145.917 9.33896C145.702 9.13556 145.595 8.85486 145.595 8.49687C145.595 8.15515 145.702 7.87852 145.917 7.66698C146.132 7.45409 146.414 7.34832 146.765 7.34832H148.245C149.263 7.34832 150.055 7.13813 150.62 6.71505C151.186 6.29061 151.468 5.67227 151.468 4.85865C151.468 4.17521 151.232 3.63009 150.764 3.22328C150.293 2.81647 149.589 2.61307 148.651 2.61307C147.823 2.61307 146.829 2.81647 145.666 3.22328C144.68 3.565 144.052 3.45109 143.781 2.8802C143.606 2.52357 143.59 2.17778 143.733 1.8442C143.877 1.51062 144.155 1.22992 144.569 1.0021C145.778 0.333583 147.235 0 148.937 0C150.641 0 151.988 0.379688 152.982 1.135C153.978 1.89302 154.475 2.98733 154.475 4.4193C154.475 5.21664 154.268 5.96246 153.854 6.65403C153.441 7.34425 152.828 7.85276 152.017 8.17956ZM133.64 0.0010622C134.276 0.0010622 134.739 0.349561 135.025 1.05063L140.562 14.9431C140.738 15.3011 140.774 15.6917 140.671 16.1134C140.566 16.5378 140.317 16.8226 139.919 16.969C139.472 17.1318 139.078 17.1209 138.738 16.9324C138.395 16.7453 138.136 16.4158 137.962 15.9425L136.624 12.3301H130.49L129.248 15.7717C128.851 16.9446 128.197 17.3447 127.291 16.969C126.589 16.6599 126.43 15.9927 126.812 14.9675L132.184 1.19572C132.486 0.399734 132.972 0.0010622 133.64 0.0010622ZM100.661 0.122848C102.618 0.122848 104.157 0.558133 105.279 1.4287C106.402 2.29927 106.963 3.66208 106.963 5.51848C106.963 7.40608 106.373 8.83126 105.197 9.79133C104.018 10.7514 102.483 11.2314 100.588 11.2314C99.6813 11.2314 98.9892 11.1907 98.5119 11.1094V15.6019C98.5119 16.0413 98.3846 16.4006 98.1288 16.6772C97.8755 16.9539 97.5242 17.0908 97.0787 17.0908C96.6187 17.0908 96.2634 16.9539 96.0181 16.6772C95.7702 16.4006 95.6469 16.0413 95.6469 15.6019V2.14875C95.6469 1.18869 96.0923 0.619154 96.9833 0.440159C98.0346 0.228618 99.2597 0.122848 100.661 0.122848ZM44.7473 0.12286C46.7042 0.12286 48.2434 0.558145 49.3651 1.42871C50.488 2.29928 51.0488 3.66209 51.0488 5.5185C51.0488 7.40609 50.4588 8.83127 49.2829 9.79134C48.1042 10.7514 46.569 11.2314 44.6744 11.2314C43.7676 11.2314 43.0755 11.1908 42.5982 11.1094V15.6019C42.5982 16.0413 42.4709 16.4006 42.2151 16.6772C41.9618 16.9539 41.6105 17.0908 41.165 17.0908C40.705 17.0908 40.3497 16.9539 40.1044 16.6772C39.8565 16.4006 39.7332 16.0413 39.7332 15.6019V2.14877C39.7332 1.1887 40.1786 0.619166 41.0696 0.44017C42.1209 0.22863 43.346 0.12286 44.7473 0.12286ZM13.8691 0.244224C13.3123 0.244224 12.843 0.554754 12.4611 1.1731L7.68694 9.05841L2.81598 1.19616C2.43415 0.561534 1.94096 0.244224 1.3364 0.244224C0.938661 0.244224 0.616493 0.370334 0.369896 0.622555C0.123299 0.874777 0 1.26124 0 1.78332V15.6012C0 16.5952 0.445466 17.0915 1.3364 17.0915C2.22866 17.0915 2.67412 16.5952 2.67412 15.6012V5.78631L6.20736 11.4518C6.55604 12.0213 7.00151 12.3061 7.54376 12.3061C8.06877 12.3061 8.50628 12.0132 8.85629 11.426L12.3418 5.66427V15.6012C12.3418 16.0406 12.4678 16.3999 12.7236 16.6766C12.9782 16.9532 13.3282 17.0915 13.7737 17.0915C14.235 17.0915 14.589 16.9532 14.8356 16.6766C15.0822 16.3999 15.2068 16.0406 15.2068 15.6012V1.75755C15.2068 1.30193 15.0902 0.937154 14.8595 0.660524C14.6288 0.383894 14.2987 0.244224 13.8691 0.244224ZM32.7682 0.244224C32.2432 0.244224 31.7818 0.520853 31.384 1.07411L23.6732 11.9888V1.75755C23.6732 1.3182 23.5499 0.956138 23.3033 0.671372C23.0567 0.386606 22.7028 0.244224 22.2414 0.244224C21.7628 0.244224 21.4061 0.386606 21.1662 0.671372C20.9275 0.956138 20.8082 1.3182 20.8082 1.75755V15.6012C20.8082 16.0745 20.9275 16.4393 21.1662 16.701C21.4061 16.9613 21.7402 17.0915 22.1698 17.0915C22.6312 17.0915 23.0753 16.8067 23.5062 16.2372L31.2634 5.39577V15.6012C31.2634 16.0257 31.388 16.3782 31.6346 16.663C31.8812 16.9478 32.2432 17.0915 32.7204 17.0915C33.1818 17.0915 33.5318 16.9532 33.7705 16.6766C34.0104 16.3999 34.1284 16.0406 34.1284 15.6012V1.75755C34.1284 0.748666 33.6763 0.244224 32.7682 0.244224ZM44.5073 8.69295C43.6959 8.69295 43.0596 8.6604 42.5982 8.59531V2.83219C43.2982 2.73456 43.9903 2.68574 44.6744 2.68574C46.919 2.68574 48.0406 3.65394 48.0406 5.59171C48.0406 7.6583 46.8619 8.69295 44.5073 8.69295ZM63.0247 0.244212H74.3391C74.7686 0.244212 75.108 0.358118 75.3546 0.585931C75.6012 0.813744 75.7245 1.13105 75.7245 1.53786C75.7245 1.9284 75.6012 2.24707 75.3546 2.48979C75.108 2.73524 74.7686 2.85728 74.3391 2.85728H70.1137V15.6012C70.1137 16.0406 69.9918 16.3999 69.7439 16.6766C69.4986 16.9532 69.1433 17.0915 68.6819 17.0915C68.2205 17.0915 67.8665 16.9532 67.6199 16.6766C67.3733 16.3999 67.25 16.0406 67.25 15.6012V2.85728H63.0247C62.6111 2.85728 62.2796 2.73524 62.0344 2.48979C61.7864 2.24707 61.6631 1.9284 61.6631 1.53786C61.6631 1.13105 61.7864 0.813744 62.0344 0.585931C62.2796 0.358118 62.6111 0.244212 63.0247 0.244212ZM90.9009 0.365985C90.0736 0.0568103 89.4373 0.455483 88.9918 1.56336L85.6256 9.91242L81.1126 1.3925C80.8435 0.870427 80.5253 0.52464 80.158 0.35378C79.7921 0.182921 79.3944 0.212754 78.9648 0.440566C78.5671 0.668379 78.3523 1.01417 78.3205 1.47657C78.2887 1.94169 78.408 2.40138 78.6785 2.85701L84.2892 12.6719C84.0333 13.3554 83.7629 13.8639 83.4765 14.1975C83.1915 14.5311 82.8481 14.6978 82.4503 14.6978C82.2753 14.6978 82.1123 14.6829 81.9611 14.649C81.81 14.6178 81.635 14.5609 81.4348 14.4782C81.2372 14.3982 81.0967 14.3493 81.0185 14.3331C80.2376 14.0714 79.7205 14.2843 79.466 14.9677C79.1796 15.7488 79.458 16.3753 80.3026 16.8471C80.8753 17.1726 81.639 17.3353 82.5935 17.3353C83.6435 17.3353 84.508 16.9326 85.1841 16.1271C85.8589 15.3203 86.5722 14.0225 87.32 12.2326L91.4259 2.41766C91.8555 1.3586 91.6805 0.676515 90.9009 0.365985ZM100.421 8.69293C99.6097 8.69293 98.9733 8.66039 98.5119 8.5953V2.83218C99.2119 2.73455 99.904 2.68573 100.588 2.68573C102.833 2.68573 103.954 3.65393 103.954 5.5917C103.954 7.65828 102.776 8.69293 100.421 8.69293ZM114.356 6.91098C115.12 6.77944 115.932 6.71435 116.792 6.71435C120.771 6.71435 122.759 8.38362 122.759 11.7195C122.759 13.5257 122.226 14.8939 121.16 15.8214C120.093 16.749 118.526 17.2127 116.458 17.2127C115.104 17.2127 113.903 17.1327 112.853 16.97C111.945 16.8222 111.493 16.2933 111.493 15.3821V1.73366C111.493 1.31058 111.619 0.956657 111.875 0.671891C112.128 0.387125 112.471 0.244743 112.901 0.244743H120.395C120.81 0.244743 121.137 0.361361 121.375 0.59731C121.613 0.834615 121.733 1.15464 121.733 1.5628C121.733 1.95334 121.613 2.26658 121.375 2.50389C121.137 2.73848 120.81 2.85645 120.395 2.85645H114.356V6.91098ZM116.386 14.7963C115.605 14.7963 114.929 14.7556 114.356 14.6742V9.30165C114.961 9.18775 115.694 9.13079 116.553 9.13079C117.54 9.13079 118.319 9.35047 118.892 9.79118C119.465 10.2305 119.751 10.914 119.751 11.8415C119.751 13.8104 118.63 14.7963 116.386 14.7963ZM131.253 10.0357L133.497 3.88204L135.811 10.0357H131.253Z" fill="#47B04B"/>
<path fill-rule="evenodd" clip-rule="evenodd" d="M152.017 8.17956C152.972 8.43992 153.707 8.90368 154.224 9.57085C154.743 10.238 155 11.0448 155 11.9886C155 13.8111 154.399 15.1577 153.198 16.0296C151.996 16.9002 150.456 17.3355 148.579 17.3355C146.781 17.3355 145.316 17.0344 144.187 16.4323C143.773 16.2045 143.485 15.9198 143.326 15.578C143.169 15.2363 143.169 14.8539 143.326 14.4295C143.614 13.78 144.29 13.6566 145.357 14.0634C146.486 14.5041 147.553 14.7238 148.555 14.7238C149.637 14.7238 150.482 14.4946 151.086 14.039C151.691 13.5833 151.992 12.9243 151.992 12.0619C151.992 10.4997 150.846 9.69289 148.555 9.64543H146.765C146.414 9.64543 146.132 9.54237 145.917 9.33896C145.702 9.13556 145.595 8.85486 145.595 8.49687C145.595 8.15515 145.702 7.87852 145.917 7.66698C146.132 7.45409 146.414 7.34832 146.765 7.34832H148.245C149.263 7.34832 150.055 7.13813 150.62 6.71505C151.186 6.29061 151.468 5.67227 151.468 4.85865C151.468 4.17521 151.232 3.63009 150.764 3.22328C150.293 2.81647 149.589 2.61307 148.651 2.61307C147.823 2.61307 146.829 2.81647 145.666 3.22328C144.68 3.565 144.052 3.45109 143.781 2.8802C143.606 2.52357 143.59 2.17778 143.733 1.8442C143.877 1.51062 144.155 1.22992 144.569 1.0021C145.778 0.333583 147.235 0 148.937 0C150.641 0 151.988 0.379688 152.982 1.135C153.978 1.89302 154.475 2.98733 154.475 4.4193C154.475 5.21664 154.268 5.96246 153.854 6.65403C153.441 7.34425 152.828 7.85276 152.017 8.17956ZM133.64 0.0010622C134.276 0.0010622 134.739 0.349561 135.025 1.05063L140.562 14.9431C140.738 15.3011 140.774 15.6917 140.671 16.1134C140.566 16.5378 140.317 16.8226 139.919 16.969C139.472 17.1318 139.078 17.1209 138.738 16.9324C138.395 16.7453 138.136 16.4158 137.962 15.9425L136.624 12.3301H130.49L129.248 15.7717C128.851 16.9446 128.197 17.3447 127.291 16.969C126.589 16.6599 126.43 15.9927 126.812 14.9675L132.184 1.19572C132.486 0.399734 132.972 0.0010622 133.64 0.0010622ZM100.661 0.122848C102.618 0.122848 104.157 0.558133 105.279 1.4287C106.402 2.29927 106.963 3.66208 106.963 5.51848C106.963 7.40608 106.373 8.83126 105.197 9.79133C104.018 10.7514 102.483 11.2314 100.588 11.2314C99.6813 11.2314 98.9892 11.1907 98.5119 11.1094V15.6019C98.5119 16.0413 98.3846 16.4006 98.1288 16.6772C97.8755 16.9539 97.5242 17.0908 97.0787 17.0908C96.6187 17.0908 96.2634 16.9539 96.0181 16.6772C95.7702 16.4006 95.6469 16.0413 95.6469 15.6019V2.14875C95.6469 1.18869 96.0923 0.619154 96.9833 0.440159C98.0346 0.228618 99.2597 0.122848 100.661 0.122848ZM44.7473 0.12286C46.7042 0.12286 48.2434 0.558145 49.3651 1.42871C50.488 2.29928 51.0488 3.66209 51.0488 5.5185C51.0488 7.40609 50.4588 8.83127 49.2829 9.79134C48.1042 10.7514 46.569 11.2314 44.6744 11.2314C43.7676 11.2314 43.0755 11.1908 42.5982 11.1094V15.6019C42.5982 16.0413 42.4709 16.4006 42.2151 16.6772C41.9618 16.9539 41.6105 17.0908 41.165 17.0908C40.705 17.0908 40.3497 16.9539 40.1044 16.6772C39.8565 16.4006 39.7332 16.0413 39.7332 15.6019V2.14877C39.7332 1.1887 40.1786 0.619166 41.0696 0.44017C42.1209 0.22863 43.346 0.12286 44.7473 0.12286ZM13.8691 0.244224C13.3123 0.244224 12.843 0.554754 12.4611 1.1731L7.68694 9.05841L2.81598 1.19616C2.43415 0.561534 1.94096 0.244224 1.3364 0.244224C0.938661 0.244224 0.616493 0.370334 0.369896 0.622555C0.123299 0.874777 0 1.26124 0 1.78332V15.6012C0 16.5952 0.445466 17.0915 1.3364 17.0915C2.22866 17.0915 2.67412 16.5952 2.67412 15.6012V5.78631L6.20736 11.4518C6.55604 12.0213 7.00151 12.3061 7.54376 12.3061C8.06877 12.3061 8.50628 12.0132 8.85629 11.426L12.3418 5.66427V15.6012C12.3418 16.0406 12.4678 16.3999 12.7236 16.6766C12.9782 16.9532 13.3282 17.0915 13.7737 17.0915C14.235 17.0915 14.589 16.9532 14.8356 16.6766C15.0822 16.3999 15.2068 16.0406 15.2068 15.6012V1.75755C15.2068 1.30193 15.0902 0.937154 14.8595 0.660524C14.6288 0.383894 14.2987 0.244224 13.8691 0.244224ZM32.7682 0.244224C32.2432 0.244224 31.7818 0.520853 31.384 1.07411L23.6732 11.9888V1.75755C23.6732 1.3182 23.5499 0.956138 23.3033 0.671372C23.0567 0.386606 22.7028 0.244224 22.2414 0.244224C21.7628 0.244224 21.4061 0.386606 21.1662 0.671372C20.9275 0.956138 20.8082 1.3182 20.8082 1.75755V15.6012C20.8082 16.0745 20.9275 16.4393 21.1662 16.701C21.4061 16.9613 21.7402 17.0915 22.1698 17.0915C22.6312 17.0915 23.0753 16.8067 23.5062 16.2372L31.2634 5.39577V15.6012C31.2634 16.0257 31.388 16.3782 31.6346 16.663C31.8812 16.9478 32.2432 17.0915 32.7204 17.0915C33.1818 17.0915 33.5318 16.9532 33.7705 16.6766C34.0104 16.3999 34.1284 16.0406 34.1284 15.6012V1.75755C34.1284 0.748666 33.6763 0.244224 32.7682 0.244224ZM44.5073 8.69295C43.6959 8.69295 43.0596 8.6604 42.5982 8.59531V2.83219C43.2982 2.73456 43.9903 2.68574 44.6744 2.68574C46.919 2.68574 48.0406 3.65394 48.0406 5.59171C48.0406 7.6583 46.8619 8.69295 44.5073 8.69295ZM63.0247 0.244212H74.3391C74.7686 0.244212 75.108 0.358118 75.3546 0.585931C75.6012 0.813744 75.7245 1.13105 75.7245 1.53786C75.7245 1.9284 75.6012 2.24707 75.3546 2.48979C75.108 2.73524 74.7686 2.85728 74.3391 2.85728H70.1137V15.6012C70.1137 16.0406 69.9918 16.3999 69.7439 16.6766C69.4986 16.9532 69.1433 17.0915 68.6819 17.0915C68.2205 17.0915 67.8665 16.9532 67.6199 16.6766C67.3733 16.3999 67.25 16.0406 67.25 15.6012V2.85728H63.0247C62.6111 2.85728 62.2796 2.73524 62.0344 2.48979C61.7864 2.24707 61.6631 1.9284 61.6631 1.53786C61.6631 1.13105 61.7864 0.813744 62.0344 0.585931C62.2796 0.358118 62.6111 0.244212 63.0247 0.244212ZM90.9009 0.365985C90.0736 0.0568103 89.4373 0.455483 88.9918 1.56336L85.6256 9.91242L81.1126 1.3925C80.8435 0.870427 80.5253 0.52464 80.158 0.35378C79.7921 0.182921 79.3944 0.212754 78.9648 0.440566C78.5671 0.668379 78.3523 1.01417 78.3205 1.47657C78.2887 1.94169 78.408 2.40138 78.6785 2.85701L84.2892 12.6719C84.0333 13.3554 83.7629 13.8639 83.4765 14.1975C83.1915 14.5311 82.8481 14.6978 82.4503 14.6978C82.2753 14.6978 82.1123 14.6829 81.9611 14.649C81.81 14.6178 81.635 14.5609 81.4348 14.4782C81.2372 14.3982 81.0967 14.3493 81.0185 14.3331C80.2376 14.0714 79.7205 14.2843 79.466 14.9677C79.1796 15.7488 79.458 16.3753 80.3026 16.8471C80.8753 17.1726 81.639 17.3353 82.5935 17.3353C83.6435 17.3353 84.508 16.9326 85.1841 16.1271C85.8589 15.3203 86.5722 14.0225 87.32 12.2326L91.4259 2.41766C91.8555 1.3586 91.6805 0.676515 90.9009 0.365985ZM100.421 8.69293C99.6097 8.69293 98.9733 8.66039 98.5119 8.5953V2.83218C99.2119 2.73455 99.904 2.68573 100.588 2.68573C102.833 2.68573 103.954 3.65393 103.954 5.5917C103.954 7.65828 102.776 8.69293 100.421 8.69293ZM114.356 6.91098C115.12 6.77944 115.932 6.71435 116.792 6.71435C120.771 6.71435 122.759 8.38362 122.759 11.7195C122.759 13.5257 122.226 14.8939 121.16 15.8214C120.093 16.749 118.526 17.2127 116.458 17.2127C115.104 17.2127 113.903 17.1327 112.853 16.97C111.945 16.8222 111.493 16.2933 111.493 15.3821V1.73366C111.493 1.31058 111.619 0.956657 111.875 0.671891C112.128 0.387125 112.471 0.244743 112.901 0.244743H120.395C120.81 0.244743 121.137 0.361361 121.375 0.59731C121.613 0.834615 121.733 1.15464 121.733 1.5628C121.733 1.95334 121.613 2.26658 121.375 2.50389C121.137 2.73848 120.81 2.85645 120.395 2.85645H114.356V6.91098ZM116.386 14.7963C115.605 14.7963 114.929 14.7556 114.356 14.6742V9.30165C114.961 9.18775 115.694 9.13079 116.553 9.13079C117.54 9.13079 118.319 9.35047 118.892 9.79118C119.465 10.2305 119.751 10.914 119.751 11.8415C119.751 13.8104 118.63 14.7963 116.386 14.7963ZM131.253 10.0357L133.497 3.88204L135.811 10.0357H131.253Z" fill="url(#paint0_linear)"/>
<defs>
<linearGradient id="paint0_linear" x1="77.5" y1="30.2649" x2="77.5" y2="-1.32551e-07" gradientUnits="userSpaceOnUse">
<stop offset="0.325079" stop-color="#4BD150"/>
<stop offset="1" stop-color="#47B04B"/>
</linearGradient>
</defs>
</svg>
