<svg width="18" height="17" viewBox="0 0 18 17" fill="none" xmlns="http://www.w3.org/2000/svg">
<path fill-rule="evenodd" clip-rule="evenodd" d="M5.46447 2.53478C3.51184 4.4874 3.51184 7.65322 5.46447 9.60585L9 13.1414L12.5355 9.60585C14.4882 7.65322 14.4882 4.4874 12.5355 2.53478C10.5829 0.582157 7.41709 0.582157 5.46447 2.53478ZM11 6.07031C11 7.17488 10.1046 8.07031 9 8.07031C7.89543 8.07031 7 7.17488 7 6.07031C7 4.96574 7.89543 4.07031 9 4.07031C10.1046 4.07031 11 4.96574 11 6.07031Z" fill="#333333"/>
<path d="M4.1475 11.0703H3.07375L2 15.0703H16L14.885 11.0703H13.8113" stroke="#333333" stroke-width="2" stroke-linecap="square"/>
</svg>
