<svg width="34" height="46" viewBox="0 0 34 46" fill="none" xmlns="http://www.w3.org/2000/svg">
<path fill-rule="evenodd" clip-rule="evenodd" d="M16.9999 22.4884C13.8721 22.4884 11.3335 19.9299 11.3335 16.7774C11.3335 13.6249 13.8721 11.0664 16.9999 11.0664C20.1278 11.0664 22.6664 13.6249 22.6664 16.7774C22.6664 19.9299 20.1278 22.4884 16.9999 22.4884ZM29.0213 4.98786C22.3803 -1.66262 11.6197 -1.66262 4.97867 4.98786C-1.65956 11.6412 -1.65956 22.4264 4.97867 29.0769L17 45.3333L29.0213 29.0769C35.6596 22.4264 35.6596 11.6412 29.0213 4.98786Z" fill="#FF7A00"/>
<path fill-rule="evenodd" clip-rule="evenodd" d="M16.9999 22.4884C13.8721 22.4884 11.3335 19.9299 11.3335 16.7774C11.3335 13.6249 13.8721 11.0664 16.9999 11.0664C20.1278 11.0664 22.6664 13.6249 22.6664 16.7774C22.6664 19.9299 20.1278 22.4884 16.9999 22.4884ZM29.0213 4.98786C22.3803 -1.66262 11.6197 -1.66262 4.97867 4.98786C-1.65956 11.6412 -1.65956 22.4264 4.97867 29.0769L17 45.3333L29.0213 29.0769C35.6596 22.4264 35.6596 11.6412 29.0213 4.98786Z" fill="url(#paint0_linear)"/>
<defs>
<linearGradient id="paint0_linear" x1="17" y1="0" x2="17" y2="45.3333" gradientUnits="userSpaceOnUse">
<stop stop-color="#FF8372"/>
<stop offset="1" stop-color="white" stop-opacity="0"/>
</linearGradient>
</defs>
</svg>
