<svg width="14" height="14" viewBox="0 0 14 14" fill="none" xmlns="http://www.w3.org/2000/svg">
<path d="M10.4847 9.06263C10.2376 8.91776 9.93384 8.92081 9.68792 9.06689L8.44254 9.80889C8.16376 9.97506 7.81559 9.95558 7.55994 9.75593C7.11803 9.4108 6.40647 8.83011 5.78744 8.21107C5.1684 7.59204 4.58771 6.88048 4.24258 6.43857C4.04293 6.18292 4.02345 5.83475 4.18962 5.55597L4.93162 4.31058C5.07831 4.06467 5.07953 3.7585 4.93466 3.51137L3.10737 0.390008C2.93024 0.0880977 2.57842 -0.0604229 2.23816 0.0229677C1.90764 0.103315 1.47851 0.299313 1.02869 0.749744C-0.379818 2.15825 -1.1279 4.53397 4.16893 9.8308C9.46575 15.1276 11.8409 14.3802 13.25 12.971C13.701 12.52 13.8964 12.0903 13.9774 11.7591C14.0595 11.4195 13.9135 11.0701 13.6122 10.8936C12.8598 10.4535 11.237 9.50332 10.4847 9.06263Z" fill="black"/>
</svg>
