<svg width="16" height="16" viewBox="0 0 16 16" fill="none" xmlns="http://www.w3.org/2000/svg">
<path d="M11.4847 10.0626C11.2376 9.91776 10.9338 9.92081 10.6879 10.0669L9.44254 10.8089C9.16376 10.9751 8.81559 10.9556 8.55994 10.7559C8.11803 10.4108 7.40647 9.83011 6.78744 9.21107C6.1684 8.59204 5.58771 7.88048 5.24258 7.43857C5.04293 7.18292 5.02345 6.83475 5.18962 6.55597L5.93162 5.31058C6.07831 5.06467 6.07953 4.7585 5.93466 4.51137L4.10737 1.39001C3.93024 1.0881 3.57842 0.939577 3.23816 1.02297C2.90764 1.10331 2.47851 1.29931 2.02869 1.74974C0.620182 3.15825 -0.127899 5.53397 5.16893 10.8308C10.4658 16.1276 12.8409 15.3802 14.25 13.971C14.701 13.52 14.8964 13.0903 14.9774 12.7591C15.0595 12.4195 14.9135 12.0701 14.6122 11.8936C13.8598 11.4535 12.237 10.5033 11.4847 10.0626Z" fill="white"/>
</svg>
