<svg width="28" height="27" viewBox="0 0 28 27" fill="none" xmlns="http://www.w3.org/2000/svg">
<path d="M9.42855 5.70642C9.42855 7.75083 7.76821 9.41285 5.71428 9.41285C3.66034 9.41285 2 7.75083 2 5.70642C2 3.66201 3.66034 2 5.71428 2C7.76821 2 9.42855 3.66201 9.42855 5.70642Z" stroke="#FF005C" stroke-width="4"/>
<path d="M25.9998 20.5424C25.9998 22.5868 24.3395 24.2488 22.2856 24.2488C20.2316 24.2488 18.5713 22.5868 18.5713 20.5424C18.5713 18.498 20.2316 16.8359 22.2856 16.8359C24.3395 16.8359 25.9998 18.498 25.9998 20.5424Z" stroke="#FF005C" stroke-width="4"/>
<line x1="2" y1="-2" x2="32.2621" y2="-2" transform="matrix(-0.707593 0.70662 -0.707593 -0.70662 24.292 0.597656)" stroke="#FFD205" stroke-width="4" stroke-linecap="round"/>
</svg>
