<svg width="36" height="36" viewBox="0 0 36 36" fill="none" xmlns="http://www.w3.org/2000/svg">
<path fill-rule="evenodd" clip-rule="evenodd" d="M18 36C27.9411 36 36 27.9411 36 18C36 8.05887 27.9411 0 18 0C8.05887 0 0 8.05887 0 18C0 27.9411 8.05887 36 18 36Z" fill="#FFD500"/>
<path fill-rule="evenodd" clip-rule="evenodd" d="M18 36C27.9411 36 36 27.9411 36 18C36 8.05887 27.9411 0 18 0C8.05887 0 0 8.05887 0 18C0 27.9411 8.05887 36 18 36Z" fill="url(#paint0_linear)"/>
<path fill-rule="evenodd" clip-rule="evenodd" d="M8.18213 23.8991C8.18213 23.0727 11.4549 27.1718 18.0003 27.1718C24.5458 27.1718 27.8185 23.0809 27.8185 23.8991C27.8185 25.5355 24.9005 30.4446 18.0003 30.4446C11.1001 30.4446 8.18213 25.5272 8.18213 23.8991Z" fill="#F5A623"/>
<path fill-rule="evenodd" clip-rule="evenodd" d="M8.18213 22.9108C8.18213 22.0844 11.4549 26.1836 18.0003 26.1836C24.5458 26.1836 27.8185 22.0927 27.8185 22.9108C27.8185 24.5472 24.9005 29.4563 18.0003 29.4563C11.1001 29.4563 8.18213 24.5389 8.18213 22.9108Z" fill="#8C3003"/>
<path d="M3.59053 11.7257C3.42434 10.7283 4.19338 9.82031 5.20452 9.82031H30.7959C31.807 9.82031 32.5761 10.7283 32.4099 11.7257L31.5469 16.9038C31.2841 18.4819 29.9186 19.6385 28.3186 19.6385H23.795C21.3956 19.6385 19.3473 17.9036 18.953 15.5364L18.2731 11.4567H17.7273L17.0474 15.5364C16.6531 17.9036 14.6048 19.6385 12.2054 19.6385H7.68184C6.08183 19.6385 4.71633 18.4819 4.45346 16.9038L3.59053 11.7257Z" fill="black"/>
<path d="M5.0492 12.5811C4.97459 11.9842 5.43998 11.457 6.04147 11.457H15.0825C15.733 11.457 16.2104 12.0684 16.0526 12.6996L14.9162 17.245C14.8049 17.6902 14.405 18.0025 13.9461 18.0025H6.60966C6.10533 18.0025 5.67993 17.6269 5.61738 17.1265L5.0492 12.5811Z" fill="#292929"/>
<path d="M5.0492 12.5811C4.97459 11.9842 5.43998 11.457 6.04147 11.457H15.0825C15.733 11.457 16.2104 12.0684 16.0526 12.6996L14.9162 17.245C14.8049 17.6902 14.405 18.0025 13.9461 18.0025H6.60966C6.10533 18.0025 5.67993 17.6269 5.61738 17.1265L5.0492 12.5811Z" fill="url(#paint1_linear)"/>
<path d="M30.9508 12.5811C31.0254 11.9842 30.56 11.457 29.9585 11.457H20.9175C20.267 11.457 19.7896 12.0684 19.9474 12.6996L21.0838 17.245C21.1951 17.6902 21.595 18.0025 22.0539 18.0025H29.3903C29.8947 18.0025 30.3201 17.6269 30.3826 17.1265L30.9508 12.5811Z" fill="#292929"/>
<path d="M30.9508 12.5811C31.0254 11.9842 30.56 11.457 29.9585 11.457H20.9175C20.267 11.457 19.7896 12.0684 19.9474 12.6996L21.0838 17.245C21.1951 17.6902 21.595 18.0025 22.0539 18.0025H29.3903C29.8947 18.0025 30.3201 17.6269 30.3826 17.1265L30.9508 12.5811Z" fill="url(#paint2_linear)"/>
<defs>
<linearGradient id="paint0_linear" x1="18" y1="0" x2="18" y2="36" gradientUnits="userSpaceOnUse">
<stop stop-color="#FF9595"/>
<stop offset="1" stop-color="white" stop-opacity="0"/>
</linearGradient>
<linearGradient id="paint1_linear" x1="10.636" y1="11.457" x2="10.636" y2="18.0025" gradientUnits="userSpaceOnUse">
<stop stop-color="white" stop-opacity="0.3"/>
<stop offset="0.546961"/>
<stop offset="1"/>
</linearGradient>
<linearGradient id="paint2_linear" x1="25.364" y1="11.457" x2="25.364" y2="18.0025" gradientUnits="userSpaceOnUse">
<stop stop-color="white" stop-opacity="0.3"/>
<stop offset="0.546961"/>
<stop offset="1"/>
</linearGradient>
</defs>
</svg>
