<svg width="80" height="80" viewBox="0 0 80 80" fill="none" xmlns="http://www.w3.org/2000/svg">
<path fill-rule="evenodd" clip-rule="evenodd" d="M40 80C62.0914 80 80 62.0914 80 40C80 17.9086 62.0914 0 40 0C17.9086 0 0 17.9086 0 40C0 62.0914 17.9086 80 40 80Z" fill="#FFD500"/>
<path fill-rule="evenodd" clip-rule="evenodd" d="M40 80C62.0914 80 80 62.0914 80 40C80 17.9086 62.0914 0 40 0C17.9086 0 0 17.9086 0 40C0 62.0914 17.9086 80 40 80Z" fill="url(#paint0_linear)"/>
<path fill-rule="evenodd" clip-rule="evenodd" d="M18.1819 53.1079C18.1819 51.2713 25.4546 60.3806 40.0001 60.3806C54.5455 60.3806 61.8182 51.2897 61.8182 53.1079C61.8182 56.7442 55.3339 67.6533 40.0001 67.6533C24.6663 67.6533 18.1819 56.7259 18.1819 53.1079Z" fill="#F5A623"/>
<path fill-rule="evenodd" clip-rule="evenodd" d="M18.1819 50.9125C18.1819 49.076 25.4546 58.1853 40.0001 58.1853C54.5455 58.1853 61.8182 49.0944 61.8182 50.9125C61.8182 54.5489 55.3339 65.458 40.0001 65.458C24.6663 65.458 18.1819 54.5305 18.1819 50.9125Z" fill="#8C3003"/>
<path d="M7.97834 26.0545C7.60902 23.838 9.318 21.8203 11.565 21.8203H68.4347C70.6816 21.8203 72.3906 23.838 72.0213 26.0545L70.1037 37.5614C69.5195 41.0682 66.4851 43.6385 62.9295 43.6385H52.8771C47.5451 43.6385 42.9934 39.7831 42.1172 34.5228L40.6062 25.4567H39.3935L37.8825 34.5228C37.0062 39.7831 32.4545 43.6385 27.1225 43.6385H17.0701C13.5146 43.6385 10.4801 41.0682 9.89595 37.5614L7.97834 26.0545Z" fill="black"/>
<path d="M11.0492 26.5811C10.9746 25.9842 11.44 25.457 12.0415 25.457H35.0825C35.733 25.457 36.2104 26.0684 36.0526 26.6996L32.9162 39.245C32.8049 39.6902 32.405 40.0025 31.9461 40.0025H13.6097C13.1053 40.0025 12.6799 39.6269 12.6174 39.1265L11.0492 26.5811Z" fill="#292929"/>
<path d="M11.0492 26.5811C10.9746 25.9842 11.44 25.457 12.0415 25.457H35.0825C35.733 25.457 36.2104 26.0684 36.0526 26.6996L32.9162 39.245C32.8049 39.6902 32.405 40.0025 31.9461 40.0025H13.6097C13.1053 40.0025 12.6799 39.6269 12.6174 39.1265L11.0492 26.5811Z" fill="url(#paint1_linear)"/>
<path d="M68.9508 26.5811C69.0254 25.9842 68.56 25.457 67.9585 25.457H44.9175C44.267 25.457 43.7896 26.0684 43.9474 26.6996L47.0838 39.245C47.1951 39.6902 47.595 40.0025 48.0539 40.0025H66.3903C66.8947 40.0025 67.3201 39.6269 67.3826 39.1265L68.9508 26.5811Z" fill="#292929"/>
<path d="M68.9508 26.5811C69.0254 25.9842 68.56 25.457 67.9585 25.457H44.9175C44.267 25.457 43.7896 26.0684 43.9474 26.6996L47.0838 39.245C47.1951 39.6902 47.595 40.0025 48.0539 40.0025H66.3903C66.8947 40.0025 67.3201 39.6269 67.3826 39.1265L68.9508 26.5811Z" fill="url(#paint2_linear)"/>
<defs>
<linearGradient id="paint0_linear" x1="40" y1="0" x2="40" y2="80" gradientUnits="userSpaceOnUse">
<stop stop-color="#FF9595"/>
<stop offset="1" stop-color="white" stop-opacity="0"/>
</linearGradient>
<linearGradient id="paint1_linear" x1="23.636" y1="25.457" x2="23.636" y2="40.0025" gradientUnits="userSpaceOnUse">
<stop stop-color="white" stop-opacity="0.3"/>
<stop offset="0.546961"/>
<stop offset="1"/>
</linearGradient>
<linearGradient id="paint2_linear" x1="56.364" y1="25.457" x2="56.364" y2="40.0025" gradientUnits="userSpaceOnUse">
<stop stop-color="white" stop-opacity="0.3"/>
<stop offset="0.546961"/>
<stop offset="1"/>
</linearGradient>
</defs>
</svg>
