<svg width="29" height="24" viewBox="0 0 29 24" fill="none" xmlns="http://www.w3.org/2000/svg">
<path fill-rule="evenodd" clip-rule="evenodd" d="M28.9733 2.78727C27.9072 3.26009 26.7616 3.57955 25.5593 3.72336C26.7863 2.9876 27.7292 1.8228 28.1727 0.434636C27.0243 1.1158 25.752 1.61051 24.3979 1.87715C23.3138 0.721764 21.769 0 20.0592 0C16.7765 0 14.1151 2.66127 14.1151 5.94402C14.1151 6.40996 14.1675 6.86369 14.2689 7.29871C9.32871 7.05078 4.94862 4.6844 2.01702 1.08793C1.50525 1.96585 1.21227 2.98696 1.21227 4.07629C1.21227 6.13862 2.26164 7.95798 3.85662 9.02402C2.88209 8.99309 1.9656 8.72569 1.16416 8.28062C1.16365 8.30544 1.16365 8.33025 1.16365 8.35533C1.16365 11.2353 3.21249 13.6375 5.93193 14.1839C5.43327 14.3198 4.90789 14.3924 4.36584 14.3924C3.98275 14.3924 3.61047 14.3551 3.24736 14.2859C4.004 16.6471 6.1992 18.3658 8.80027 18.4136C6.76595 20.008 4.2028 20.9584 1.41782 20.9584C0.938127 20.9584 0.464927 20.9301 0 20.8753C2.63047 22.5619 5.75489 23.546 9.11196 23.546C20.0453 23.546 26.0243 14.4885 26.0243 6.63333C26.0243 6.37573 26.0186 6.11927 26.007 5.86422C27.1687 5.02613 28.1763 3.97931 28.9733 2.78727Z" fill="#C2C2C2"/>
</svg>
