<svg width="20" height="20" viewBox="0 0 20 20" fill="none" xmlns="http://www.w3.org/2000/svg">
<mask id="mask0" mask-type="alpha" maskUnits="userSpaceOnUse" x="1" y="2" width="18" height="16">
<path d="M17.3682 7.7858C18.4385 7.7858 18.999 8.60905 18.999 9.42252C18.999 9.84403 18.8486 10.2685 18.5547 10.5795C18.8486 10.8903 18.999 11.3146 18.999 11.7362C18.999 12.463 18.5518 13.1982 17.6924 13.3461C17.7891 13.5671 17.8379 13.809 17.8379 14.0496C17.8379 14.4696 17.6934 14.8648 17.4316 15.162C17.2002 15.4235 16.8877 15.5945 16.5312 15.6584C16.6289 15.8799 16.6777 16.1219 16.6777 16.3633C16.6777 17.1764 16.1172 17.9999 15.0469 17.9999H11.123C9.05273 17.9999 7.69824 17.5352 6.13086 16.9969L5.79199 16.8809V8.97562C5.79199 8.94059 5.79004 8.90629 5.78711 8.87211L6.2334 8.65311C7.18359 8.19035 7.75586 7.91105 8.42578 7.24406C9.2207 6.45194 9.77539 4.22074 9.89941 2.95939C9.94727 2.39249 10.4404 1.9672 11.0098 2.00199L11.0244 2.00321C11.8994 2.05875 12.5762 2.60453 12.9307 3.53995C13.4121 4.81181 13.208 6.54996 12.5156 7.7858H17.3682Z" fill="#F5A623"/>
<path d="M1.50098 8.47636H4.50684C4.78711 8.47636 5.00781 8.69596 5.00781 8.97562V16.9623C5.00781 17.242 4.78711 17.4616 4.50684 17.4616H1.50098C1.2207 17.4616 1 17.242 1 16.9623V8.97562C1 8.69596 1.2207 8.47636 1.50098 8.47636Z" fill="#F5A623"/>
</mask>
<g mask="url(#mask0)">
<rect width="20" height="20" fill="#F5A32F"/>
</g>
</svg>
