<svg width="48" height="36" viewBox="0 0 48 36" fill="none" xmlns="http://www.w3.org/2000/svg">
<path fill-rule="evenodd" clip-rule="evenodd" d="M47.7597 1.04685C48.2851 2.01951 47.9233 3.23435 46.9518 3.75779L37.0419 9.11716C33.4802 11.0429 29.1874 11.0429 25.6257 9.11716L20.4723 6.33201C18.0981 5.04685 15.2363 5.04685 12.8617 6.33201L2.95183 11.6914C1.98016 12.2148 0.766532 11.8554 0.241141 10.8828C-0.0449914 10.3515 -0.0679406 9.74998 0.127372 9.23044C0.290702 8.79294 0.60662 8.41013 1.049 8.17185L10.9589 2.81248C14.5207 0.886695 18.8134 0.886695 22.3752 2.81248L27.5285 5.60154C29.9028 6.88279 32.7646 6.88279 35.1391 5.60154L45.049 0.242164C46.0207 -0.28518 47.2343 0.0781012 47.7597 1.04685ZM47.7597 13.0469C48.2851 14.0195 47.9233 15.2344 46.9518 15.7578L37.0419 21.1172C33.4802 23.0429 29.1874 23.0429 25.6257 21.1172L20.4723 18.332C18.0981 17.0469 15.2363 17.0469 12.8617 18.332L2.95183 23.6914C1.98016 24.2148 0.766532 23.8554 0.241141 22.8828C-0.284249 21.9101 0.0775672 20.6992 1.049 20.1719L10.9589 14.8125C14.5207 12.8867 18.8134 12.8867 22.3752 14.8125L27.5285 17.6015C29.9028 18.8828 32.7646 18.8828 35.1391 17.6015L45.049 12.2422C46.0207 11.7148 47.2343 12.0781 47.7597 13.0469ZM48.0004 26.0312C48.006 25.6992 47.9289 25.3594 47.7597 25.0469C47.2343 24.0781 46.0207 23.7148 45.049 24.2422L35.1391 29.6015C32.7646 30.8828 29.9028 30.8828 27.5285 29.6015L22.3752 26.8125C18.8134 24.8867 14.5207 24.8867 10.9589 26.8125L1.049 32.1719C0.614677 32.4062 0.302177 32.7812 0.136405 33.207C-0.068673 33.7344 -0.0493859 34.3437 0.241141 34.8828C0.766532 35.8554 1.98016 36.2148 2.95183 35.6914L12.8617 30.332C15.2363 29.0469 18.0981 29.0469 20.4723 30.332L25.6257 33.1172C29.1874 35.0429 33.4802 35.0429 37.0419 33.1172L46.9518 27.7578C47.6103 27.4023 47.9887 26.7304 48.0004 26.0312Z" fill="white"/>
</svg>
