<svg width="49" height="36" viewBox="0 0 49 36" fill="none" xmlns="http://www.w3.org/2000/svg">
<mask id="path-1-inside-1" fill="white">
<path fill-rule="evenodd" clip-rule="evenodd" d="M47.7597 1.04685C48.285 2.01951 47.9232 3.23435 46.9515 3.75779L37.0419 9.11716C33.4799 11.0429 29.1874 11.0429 25.6259 9.11716L20.4725 6.33201C18.098 5.04685 15.2362 5.04685 12.8617 6.33201L2.95155 11.6914C1.98036 12.2148 0.766488 11.8554 0.241097 10.8828C-0.284293 9.91013 0.0775233 8.69919 1.0492 8.17185L10.9589 2.81248C14.5209 0.886695 18.8134 0.886695 22.3749 2.81248L27.5282 5.60154C29.9027 6.88279 32.7645 6.88279 35.139 5.60154L45.0492 0.242164C46.0204 -0.28518 47.2343 0.0781012 47.7597 1.04685ZM47.9877 14.2304C47.9144 14.8554 47.5477 15.4375 46.9515 15.7578L37.0419 21.1172C33.4799 23.0429 29.1874 23.0429 25.6259 21.1172L20.4725 18.332C18.098 17.0469 15.2362 17.0469 12.8617 18.332L2.95155 23.6914C2.57264 23.8945 2.15662 23.9648 1.75868 23.9179C1.35584 23.8672 0.971566 23.6992 0.663949 23.4219C0.497445 23.2695 0.353402 23.0898 0.241097 22.8828C-0.284293 21.9101 0.0775233 20.6992 1.0492 20.1719L10.9589 14.8125C14.5209 12.8867 18.8134 12.8867 22.3749 14.8125L27.5282 17.6015C29.9027 18.8828 32.7645 18.8828 35.139 17.6015L45.0492 12.2422C46.0204 11.7148 47.2343 12.0781 47.7597 13.0469C47.9628 13.4219 48.0336 13.8359 47.9877 14.2304ZM46.9515 27.7578C47.9232 27.2344 48.285 26.0195 47.7597 25.0469C47.2343 24.0781 46.0204 23.7148 45.0492 24.2422L35.139 29.6015C32.7645 30.8828 29.9027 30.8828 27.5282 29.6015L22.3749 26.8125C18.8134 24.8867 14.5209 24.8867 10.9589 26.8125L1.0492 32.1719C0.0775233 32.6992 -0.284293 33.9101 0.241097 34.8828C0.766488 35.8554 1.98036 36.2148 2.95155 35.6914L12.8617 30.332C15.2362 29.0469 18.098 29.0469 20.4725 30.332L25.6259 33.1172C29.1874 35.0429 33.4799 35.0429 37.0419 33.1172L46.9515 27.7578Z"/>
</mask>
<path fill-rule="evenodd" clip-rule="evenodd" d="M47.7597 1.04685C48.285 2.01951 47.9232 3.23435 46.9515 3.75779L37.0419 9.11716C33.4799 11.0429 29.1874 11.0429 25.6259 9.11716L20.4725 6.33201C18.098 5.04685 15.2362 5.04685 12.8617 6.33201L2.95155 11.6914C1.98036 12.2148 0.766488 11.8554 0.241097 10.8828C-0.284293 9.91013 0.0775233 8.69919 1.0492 8.17185L10.9589 2.81248C14.5209 0.886695 18.8134 0.886695 22.3749 2.81248L27.5282 5.60154C29.9027 6.88279 32.7645 6.88279 35.139 5.60154L45.0492 0.242164C46.0204 -0.28518 47.2343 0.0781012 47.7597 1.04685ZM47.9877 14.2304C47.9144 14.8554 47.5477 15.4375 46.9515 15.7578L37.0419 21.1172C33.4799 23.0429 29.1874 23.0429 25.6259 21.1172L20.4725 18.332C18.098 17.0469 15.2362 17.0469 12.8617 18.332L2.95155 23.6914C2.57264 23.8945 2.15662 23.9648 1.75868 23.9179C1.35584 23.8672 0.971566 23.6992 0.663949 23.4219C0.497445 23.2695 0.353402 23.0898 0.241097 22.8828C-0.284293 21.9101 0.0775233 20.6992 1.0492 20.1719L10.9589 14.8125C14.5209 12.8867 18.8134 12.8867 22.3749 14.8125L27.5282 17.6015C29.9027 18.8828 32.7645 18.8828 35.139 17.6015L45.0492 12.2422C46.0204 11.7148 47.2343 12.0781 47.7597 13.0469C47.9628 13.4219 48.0336 13.8359 47.9877 14.2304ZM46.9515 27.7578C47.9232 27.2344 48.285 26.0195 47.7597 25.0469C47.2343 24.0781 46.0204 23.7148 45.0492 24.2422L35.139 29.6015C32.7645 30.8828 29.9027 30.8828 27.5282 29.6015L22.3749 26.8125C18.8134 24.8867 14.5209 24.8867 10.9589 26.8125L1.0492 32.1719C0.0775233 32.6992 -0.284293 33.9101 0.241097 34.8828C0.766488 35.8554 1.98036 36.2148 2.95155 35.6914L12.8617 30.332C15.2362 29.0469 18.098 29.0469 20.4725 30.332L25.6259 33.1172C29.1874 35.0429 33.4799 35.0429 37.0419 33.1172L46.9515 27.7578Z" fill="white"/>
<path d="M46.9515 3.75779L45.0545 0.236241L45.0487 0.239378L46.9515 3.75779ZM47.7597 1.04685L51.279 -0.854185L51.2758 -0.860108L47.7597 1.04685ZM37.0419 9.11716L38.9442 12.6358L38.9447 12.6356L37.0419 9.11716ZM25.6259 9.11716L27.5284 5.5986L27.5277 5.59822L25.6259 9.11716ZM20.4725 6.33201L18.5686 9.84982L18.5707 9.85095L20.4725 6.33201ZM12.8617 6.33201L14.7645 9.85046L14.7656 9.84982L12.8617 6.33201ZM2.95155 11.6914L4.84932 15.2125L4.85431 15.2098L2.95155 11.6914ZM1.0492 8.17185L-0.853636 4.65344L-0.858775 4.65623L1.0492 8.17185ZM10.9589 2.81248L9.05652 -0.706197L9.05603 -0.705934L10.9589 2.81248ZM22.3749 2.81248L24.2788 -0.705355L24.2774 -0.706088L22.3749 2.81248ZM27.5282 5.60154L25.6243 9.11937L25.6287 9.12177L27.5282 5.60154ZM35.139 5.60154L37.0385 9.12177L37.0418 9.11999L35.139 5.60154ZM45.0492 0.242164L46.952 3.76062L46.9579 3.75739L45.0492 0.242164ZM46.9515 15.7578L45.0584 12.2341L45.0487 12.2394L46.9515 15.7578ZM47.9877 14.2304L51.9605 14.696L51.9609 14.6927L47.9877 14.2304ZM37.0419 21.1172L38.9442 24.6358L38.9447 24.6356L37.0419 21.1172ZM25.6259 21.1172L27.5284 17.5986L27.5277 17.5982L25.6259 21.1172ZM20.4725 18.332L18.5686 21.8498L18.5707 21.851L20.4725 18.332ZM12.8617 18.332L14.7645 21.8505L14.7656 21.8498L12.8617 18.332ZM2.95155 23.6914L4.84144 27.2168L4.84788 27.2133L4.85431 27.2098L2.95155 23.6914ZM1.75868 23.9179L1.25839 27.8865L1.27456 27.8886L1.29075 27.8905L1.75868 23.9179ZM0.663949 23.4219L-2.03621 26.373L-2.0254 26.3829L-2.01451 26.3927L0.663949 23.4219ZM0.241097 22.8828L-3.27829 24.7838L-3.27491 24.7901L0.241097 22.8828ZM1.0492 20.1719L-0.853636 16.6534L-0.858775 16.6562L1.0492 20.1719ZM10.9589 14.8125L9.05652 11.2938L9.05603 11.2941L10.9589 14.8125ZM22.3749 14.8125L24.2788 11.2946L24.2774 11.2939L22.3749 14.8125ZM27.5282 17.6015L25.6243 21.1194L25.6287 21.1218L27.5282 17.6015ZM35.139 17.6015L37.0385 21.1218L37.0418 21.12L35.139 17.6015ZM45.0492 12.2422L46.952 15.7606L46.9579 15.7574L45.0492 12.2422ZM47.7597 13.0469L51.2768 11.1417L51.2758 11.1399L47.7597 13.0469ZM47.7597 25.0469L51.279 23.1458L51.2758 23.1399L47.7597 25.0469ZM46.9515 27.7578L45.0545 24.2362L45.0487 24.2394L46.9515 27.7578ZM45.0492 24.2422L46.952 27.7606L46.9579 27.7574L45.0492 24.2422ZM35.139 29.6015L37.0385 33.1218L37.0418 33.12L35.139 29.6015ZM27.5282 29.6015L25.6243 33.1194L25.6287 33.1218L27.5282 29.6015ZM22.3749 26.8125L24.2788 23.2946L24.2774 23.2939L22.3749 26.8125ZM10.9589 26.8125L9.05652 23.2938L9.05603 23.2941L10.9589 26.8125ZM1.0492 32.1719L-0.853636 28.6534L-0.858775 28.6562L1.0492 32.1719ZM2.95155 35.6914L4.84932 39.2125L4.85431 39.2098L2.95155 35.6914ZM12.8617 30.332L14.7645 33.8505L14.7656 33.8498L12.8617 30.332ZM20.4725 30.332L18.5686 33.8498L18.5707 33.851L20.4725 30.332ZM25.6259 33.1172L27.5284 29.5986L27.5277 29.5982L25.6259 33.1172ZM37.0419 33.1172L38.9442 36.6358L38.9447 36.6356L37.0419 33.1172ZM48.8486 7.27933C51.7739 5.70349 52.8513 2.05657 51.279 -0.854182L44.2403 2.94788C43.7188 1.98244 44.0726 0.765211 45.0545 0.236245L48.8486 7.27933ZM38.9447 12.6356L48.8544 7.2762L45.0487 0.239378L35.139 5.59875L38.9447 12.6356ZM23.7233 12.6357C28.4721 15.2035 34.1953 15.2033 38.9442 12.6358L35.1395 5.59849C32.7645 6.88255 29.9027 6.88242 27.5284 5.5986L23.7233 12.6357ZM18.5707 9.85095L23.724 12.6361L27.5277 5.59822L22.3744 2.81306L18.5707 9.85095ZM14.7656 9.84982C15.9523 9.20758 17.382 9.20758 18.5686 9.84982L22.3765 2.8142C18.8141 0.886122 14.5202 0.886122 10.9578 2.8142L14.7656 9.84982ZM4.85431 15.2098L14.7645 9.85046L10.9589 2.81356L1.04878 8.17293L4.85431 15.2098ZM-3.27829 12.7838C-1.69892 15.7077 1.94355 16.7786 4.84932 15.2125L1.05378 8.17024C2.01716 7.65101 3.23189 8.00317 3.76048 8.98176L-3.27829 12.7838ZM-0.858775 4.65623C-3.76441 6.23315 -4.85481 9.86521 -3.27829 12.7838L3.76048 8.98176C4.28622 9.95505 3.91945 11.1652 2.95718 11.6875L-0.858775 4.65623ZM9.05603 -0.705934L-0.853634 4.65344L2.95204 11.6903L12.8617 6.33089L9.05603 -0.705934ZM24.2774 -0.706088C19.5287 -3.27383 13.8055 -3.2737 9.05652 -0.706197L12.8612 6.33115C15.2363 5.04709 18.098 5.04722 20.4723 6.33104L24.2774 -0.706088ZM29.4321 2.08371L24.2788 -0.705355L20.471 6.33031L25.6243 9.11937L29.4321 2.08371ZM33.2396 2.08131C32.0506 2.72287 30.6167 2.72287 29.4277 2.08131L25.6287 9.12177C29.1888 11.0427 33.4785 11.0427 37.0385 9.12177L33.2396 2.08131ZM43.1464 -3.27629L33.2363 2.08309L37.0418 9.11999L46.952 3.76061L43.1464 -3.27629ZM51.2758 -0.860108C49.7007 -3.76438 46.0609 -4.85878 43.1405 -3.27306L46.9579 3.75739C45.9799 4.28842 44.7678 3.92058 44.2435 2.95381L51.2758 -0.860108ZM48.8447 19.2814C50.6462 18.3135 51.7425 16.5565 51.9605 14.696L44.0149 13.7649C44.0864 13.1544 44.4492 12.5614 45.0584 12.2341L48.8447 19.2814ZM38.9447 24.6356L48.8544 19.2762L45.0487 12.2394L35.139 17.5988L38.9447 24.6356ZM23.7233 24.6357C28.4721 27.2035 34.1953 27.2033 38.9442 24.6358L35.1395 17.5985C32.7645 18.8825 29.9027 18.8824 27.5284 17.5986L23.7233 24.6357ZM18.5707 21.851L23.724 24.6361L27.5277 17.5982L22.3744 14.8131L18.5707 21.851ZM14.7656 21.8498C15.9523 21.2076 17.382 21.2076 18.5686 21.8498L22.3765 14.8142C18.8141 12.8861 14.5202 12.8861 10.9578 14.8142L14.7656 21.8498ZM4.85431 27.2098L14.7645 21.8505L10.9589 14.8136L1.04878 20.1729L4.85431 27.2098ZM1.29075 27.8905C2.47416 28.0299 3.71667 27.8197 4.84144 27.2168L1.06165 20.166C1.42861 19.9693 1.83909 19.8998 2.22661 19.9454L1.29075 27.8905ZM-2.01451 26.3927C-1.06895 27.2452 0.0868681 27.7389 1.25839 27.8865L2.25896 19.9494C2.62482 19.9955 3.01208 20.1532 3.34241 20.451L-2.01451 26.3927ZM-3.27491 24.7901C-2.93932 25.4087 -2.51292 25.9368 -2.03621 26.373L3.3641 20.4707C3.50781 20.6022 3.64612 20.7709 3.75711 20.9755L-3.27491 24.7901ZM-0.858775 16.6562C-3.76441 18.2332 -4.85481 21.8652 -3.27829 24.7838L3.76048 20.9818C4.28622 21.9551 3.91945 23.1652 2.95718 23.6875L-0.858775 16.6562ZM9.05603 11.2941L-0.853634 16.6534L2.95204 23.6903L12.8617 18.3309L9.05603 11.2941ZM24.2774 11.2939C19.5287 8.72617 13.8055 8.7263 9.05652 11.2938L12.8612 18.3312C15.2363 17.0471 18.098 17.0472 20.4723 18.331L24.2774 11.2939ZM29.4321 14.0837L24.2788 11.2946L20.471 18.3303L25.6243 21.1194L29.4321 14.0837ZM33.2396 14.0813C32.0506 14.7229 30.6167 14.7229 29.4277 14.0813L25.6287 21.1218C29.1888 23.0427 33.4785 23.0427 37.0385 21.1218L33.2396 14.0813ZM43.1464 8.72371L33.2363 14.0831L37.0418 21.12L46.952 15.7606L43.1464 8.72371ZM51.2758 11.1399C49.7007 8.23562 46.0609 7.14122 43.1405 8.72694L46.9579 15.7574C45.9799 16.2884 44.7678 15.9206 44.2435 14.9538L51.2758 11.1399ZM51.9609 14.6927C52.0983 13.5111 51.8861 12.2665 51.2768 11.1417L44.2425 14.952C44.0395 14.5772 43.9688 14.1607 44.0145 13.7682L51.9609 14.6927ZM44.2403 26.9479C43.7188 25.9824 44.0726 24.7652 45.0545 24.2362L48.8486 31.2793C51.7739 29.7035 52.8513 26.0566 51.279 23.1458L44.2403 26.9479ZM46.9579 27.7574C45.9799 28.2884 44.7678 27.9206 44.2435 26.9538L51.2758 23.1399C49.7007 20.2356 46.0609 19.1412 43.1405 20.7269L46.9579 27.7574ZM37.0418 33.12L46.952 27.7606L43.1464 20.7237L33.2363 26.0831L37.0418 33.12ZM25.6287 33.1218C29.1888 35.0427 33.4785 35.0427 37.0385 33.1218L33.2396 26.0813C32.0506 26.7229 30.6167 26.7229 29.4277 26.0813L25.6287 33.1218ZM20.471 30.3303L25.6243 33.1194L29.4321 26.0837L24.2788 23.2946L20.471 30.3303ZM12.8612 30.3312C15.2363 29.0471 18.098 29.0472 20.4723 30.331L24.2774 23.2939C19.5287 20.7262 13.8055 20.7263 9.05652 23.2938L12.8612 30.3312ZM2.95204 35.6903L12.8617 30.3309L9.05603 23.2941L-0.853634 28.6534L2.95204 35.6903ZM3.76048 32.9818C4.28622 33.9551 3.91945 35.1652 2.95718 35.6875L-0.858775 28.6562C-3.76441 30.2332 -4.85481 33.8652 -3.27829 36.7838L3.76048 32.9818ZM1.05378 32.1702C2.01716 31.651 3.23189 32.0032 3.76048 32.9818L-3.27829 36.7838C-1.69892 39.7077 1.94355 40.7786 4.84932 39.2125L1.05378 32.1702ZM10.9589 26.8136L1.04878 32.1729L4.85431 39.2098L14.7645 33.8505L10.9589 26.8136ZM22.3765 26.8142C18.8141 24.8861 14.5202 24.8861 10.9578 26.8142L14.7656 33.8498C15.9523 33.2076 17.382 33.2076 18.5686 33.8498L22.3765 26.8142ZM27.5277 29.5982L22.3744 26.8131L18.5707 33.851L23.724 36.6361L27.5277 29.5982ZM35.1395 29.5985C32.7645 30.8825 29.9027 30.8824 27.5284 29.5986L23.7233 36.6357C28.4721 39.2035 34.1953 39.2033 38.9442 36.6358L35.1395 29.5985ZM45.0487 24.2394L35.139 29.5988L38.9447 36.6356L48.8544 31.2762L45.0487 24.2394Z" fill="#03B5DC" mask="url(#path-1-inside-1)"/>
<path d="M46.9515 3.75779L45.0545 0.236241L45.0487 0.239378L46.9515 3.75779ZM47.7597 1.04685L51.279 -0.854185L51.2758 -0.860108L47.7597 1.04685ZM37.0419 9.11716L38.9442 12.6358L38.9447 12.6356L37.0419 9.11716ZM25.6259 9.11716L27.5284 5.5986L27.5277 5.59822L25.6259 9.11716ZM20.4725 6.33201L18.5686 9.84982L18.5707 9.85095L20.4725 6.33201ZM12.8617 6.33201L14.7645 9.85046L14.7656 9.84982L12.8617 6.33201ZM2.95155 11.6914L4.84932 15.2125L4.85431 15.2098L2.95155 11.6914ZM1.0492 8.17185L-0.853636 4.65344L-0.858775 4.65623L1.0492 8.17185ZM10.9589 2.81248L9.05652 -0.706197L9.05603 -0.705934L10.9589 2.81248ZM22.3749 2.81248L24.2788 -0.705355L24.2774 -0.706088L22.3749 2.81248ZM27.5282 5.60154L25.6243 9.11937L25.6287 9.12177L27.5282 5.60154ZM35.139 5.60154L37.0385 9.12177L37.0418 9.11999L35.139 5.60154ZM45.0492 0.242164L46.952 3.76062L46.9579 3.75739L45.0492 0.242164ZM46.9515 15.7578L45.0584 12.2341L45.0487 12.2394L46.9515 15.7578ZM47.9877 14.2304L51.9605 14.696L51.9609 14.6927L47.9877 14.2304ZM37.0419 21.1172L38.9442 24.6358L38.9447 24.6356L37.0419 21.1172ZM25.6259 21.1172L27.5284 17.5986L27.5277 17.5982L25.6259 21.1172ZM20.4725 18.332L18.5686 21.8498L18.5707 21.851L20.4725 18.332ZM12.8617 18.332L14.7645 21.8505L14.7656 21.8498L12.8617 18.332ZM2.95155 23.6914L4.84144 27.2168L4.84788 27.2133L4.85431 27.2098L2.95155 23.6914ZM1.75868 23.9179L1.25839 27.8865L1.27456 27.8886L1.29075 27.8905L1.75868 23.9179ZM0.663949 23.4219L-2.03621 26.373L-2.0254 26.3829L-2.01451 26.3927L0.663949 23.4219ZM0.241097 22.8828L-3.27829 24.7838L-3.27491 24.7901L0.241097 22.8828ZM1.0492 20.1719L-0.853636 16.6534L-0.858775 16.6562L1.0492 20.1719ZM10.9589 14.8125L9.05652 11.2938L9.05603 11.2941L10.9589 14.8125ZM22.3749 14.8125L24.2788 11.2946L24.2774 11.2939L22.3749 14.8125ZM27.5282 17.6015L25.6243 21.1194L25.6287 21.1218L27.5282 17.6015ZM35.139 17.6015L37.0385 21.1218L37.0418 21.12L35.139 17.6015ZM45.0492 12.2422L46.952 15.7606L46.9579 15.7574L45.0492 12.2422ZM47.7597 13.0469L51.2768 11.1417L51.2758 11.1399L47.7597 13.0469ZM47.7597 25.0469L51.279 23.1458L51.2758 23.1399L47.7597 25.0469ZM46.9515 27.7578L45.0545 24.2362L45.0487 24.2394L46.9515 27.7578ZM45.0492 24.2422L46.952 27.7606L46.9579 27.7574L45.0492 24.2422ZM35.139 29.6015L37.0385 33.1218L37.0418 33.12L35.139 29.6015ZM27.5282 29.6015L25.6243 33.1194L25.6287 33.1218L27.5282 29.6015ZM22.3749 26.8125L24.2788 23.2946L24.2774 23.2939L22.3749 26.8125ZM10.9589 26.8125L9.05652 23.2938L9.05603 23.2941L10.9589 26.8125ZM1.0492 32.1719L-0.853636 28.6534L-0.858775 28.6562L1.0492 32.1719ZM2.95155 35.6914L4.84932 39.2125L4.85431 39.2098L2.95155 35.6914ZM12.8617 30.332L14.7645 33.8505L14.7656 33.8498L12.8617 30.332ZM20.4725 30.332L18.5686 33.8498L18.5707 33.851L20.4725 30.332ZM25.6259 33.1172L27.5284 29.5986L27.5277 29.5982L25.6259 33.1172ZM37.0419 33.1172L38.9442 36.6358L38.9447 36.6356L37.0419 33.1172ZM48.8486 7.27933C51.7739 5.70349 52.8513 2.05657 51.279 -0.854182L44.2403 2.94788C43.7188 1.98244 44.0726 0.765211 45.0545 0.236245L48.8486 7.27933ZM38.9447 12.6356L48.8544 7.2762L45.0487 0.239378L35.139 5.59875L38.9447 12.6356ZM23.7233 12.6357C28.4721 15.2035 34.1953 15.2033 38.9442 12.6358L35.1395 5.59849C32.7645 6.88255 29.9027 6.88242 27.5284 5.5986L23.7233 12.6357ZM18.5707 9.85095L23.724 12.6361L27.5277 5.59822L22.3744 2.81306L18.5707 9.85095ZM14.7656 9.84982C15.9523 9.20758 17.382 9.20758 18.5686 9.84982L22.3765 2.8142C18.8141 0.886122 14.5202 0.886122 10.9578 2.8142L14.7656 9.84982ZM4.85431 15.2098L14.7645 9.85046L10.9589 2.81356L1.04878 8.17293L4.85431 15.2098ZM-3.27829 12.7838C-1.69892 15.7077 1.94355 16.7786 4.84932 15.2125L1.05378 8.17024C2.01716 7.65101 3.23189 8.00317 3.76048 8.98176L-3.27829 12.7838ZM-0.858775 4.65623C-3.76441 6.23315 -4.85481 9.86521 -3.27829 12.7838L3.76048 8.98176C4.28622 9.95505 3.91945 11.1652 2.95718 11.6875L-0.858775 4.65623ZM9.05603 -0.705934L-0.853634 4.65344L2.95204 11.6903L12.8617 6.33089L9.05603 -0.705934ZM24.2774 -0.706088C19.5287 -3.27383 13.8055 -3.2737 9.05652 -0.706197L12.8612 6.33115C15.2363 5.04709 18.098 5.04722 20.4723 6.33104L24.2774 -0.706088ZM29.4321 2.08371L24.2788 -0.705355L20.471 6.33031L25.6243 9.11937L29.4321 2.08371ZM33.2396 2.08131C32.0506 2.72287 30.6167 2.72287 29.4277 2.08131L25.6287 9.12177C29.1888 11.0427 33.4785 11.0427 37.0385 9.12177L33.2396 2.08131ZM43.1464 -3.27629L33.2363 2.08309L37.0418 9.11999L46.952 3.76061L43.1464 -3.27629ZM51.2758 -0.860108C49.7007 -3.76438 46.0609 -4.85878 43.1405 -3.27306L46.9579 3.75739C45.9799 4.28842 44.7678 3.92058 44.2435 2.95381L51.2758 -0.860108ZM48.8447 19.2814C50.6462 18.3135 51.7425 16.5565 51.9605 14.696L44.0149 13.7649C44.0864 13.1544 44.4492 12.5614 45.0584 12.2341L48.8447 19.2814ZM38.9447 24.6356L48.8544 19.2762L45.0487 12.2394L35.139 17.5988L38.9447 24.6356ZM23.7233 24.6357C28.4721 27.2035 34.1953 27.2033 38.9442 24.6358L35.1395 17.5985C32.7645 18.8825 29.9027 18.8824 27.5284 17.5986L23.7233 24.6357ZM18.5707 21.851L23.724 24.6361L27.5277 17.5982L22.3744 14.8131L18.5707 21.851ZM14.7656 21.8498C15.9523 21.2076 17.382 21.2076 18.5686 21.8498L22.3765 14.8142C18.8141 12.8861 14.5202 12.8861 10.9578 14.8142L14.7656 21.8498ZM4.85431 27.2098L14.7645 21.8505L10.9589 14.8136L1.04878 20.1729L4.85431 27.2098ZM1.29075 27.8905C2.47416 28.0299 3.71667 27.8197 4.84144 27.2168L1.06165 20.166C1.42861 19.9693 1.83909 19.8998 2.22661 19.9454L1.29075 27.8905ZM-2.01451 26.3927C-1.06895 27.2452 0.0868681 27.7389 1.25839 27.8865L2.25896 19.9494C2.62482 19.9955 3.01208 20.1532 3.34241 20.451L-2.01451 26.3927ZM-3.27491 24.7901C-2.93932 25.4087 -2.51292 25.9368 -2.03621 26.373L3.3641 20.4707C3.50781 20.6022 3.64612 20.7709 3.75711 20.9755L-3.27491 24.7901ZM-0.858775 16.6562C-3.76441 18.2332 -4.85481 21.8652 -3.27829 24.7838L3.76048 20.9818C4.28622 21.9551 3.91945 23.1652 2.95718 23.6875L-0.858775 16.6562ZM9.05603 11.2941L-0.853634 16.6534L2.95204 23.6903L12.8617 18.3309L9.05603 11.2941ZM24.2774 11.2939C19.5287 8.72617 13.8055 8.7263 9.05652 11.2938L12.8612 18.3312C15.2363 17.0471 18.098 17.0472 20.4723 18.331L24.2774 11.2939ZM29.4321 14.0837L24.2788 11.2946L20.471 18.3303L25.6243 21.1194L29.4321 14.0837ZM33.2396 14.0813C32.0506 14.7229 30.6167 14.7229 29.4277 14.0813L25.6287 21.1218C29.1888 23.0427 33.4785 23.0427 37.0385 21.1218L33.2396 14.0813ZM43.1464 8.72371L33.2363 14.0831L37.0418 21.12L46.952 15.7606L43.1464 8.72371ZM51.2758 11.1399C49.7007 8.23562 46.0609 7.14122 43.1405 8.72694L46.9579 15.7574C45.9799 16.2884 44.7678 15.9206 44.2435 14.9538L51.2758 11.1399ZM51.9609 14.6927C52.0983 13.5111 51.8861 12.2665 51.2768 11.1417L44.2425 14.952C44.0395 14.5772 43.9688 14.1607 44.0145 13.7682L51.9609 14.6927ZM44.2403 26.9479C43.7188 25.9824 44.0726 24.7652 45.0545 24.2362L48.8486 31.2793C51.7739 29.7035 52.8513 26.0566 51.279 23.1458L44.2403 26.9479ZM46.9579 27.7574C45.9799 28.2884 44.7678 27.9206 44.2435 26.9538L51.2758 23.1399C49.7007 20.2356 46.0609 19.1412 43.1405 20.7269L46.9579 27.7574ZM37.0418 33.12L46.952 27.7606L43.1464 20.7237L33.2363 26.0831L37.0418 33.12ZM25.6287 33.1218C29.1888 35.0427 33.4785 35.0427 37.0385 33.1218L33.2396 26.0813C32.0506 26.7229 30.6167 26.7229 29.4277 26.0813L25.6287 33.1218ZM20.471 30.3303L25.6243 33.1194L29.4321 26.0837L24.2788 23.2946L20.471 30.3303ZM12.8612 30.3312C15.2363 29.0471 18.098 29.0472 20.4723 30.331L24.2774 23.2939C19.5287 20.7262 13.8055 20.7263 9.05652 23.2938L12.8612 30.3312ZM2.95204 35.6903L12.8617 30.3309L9.05603 23.2941L-0.853634 28.6534L2.95204 35.6903ZM3.76048 32.9818C4.28622 33.9551 3.91945 35.1652 2.95718 35.6875L-0.858775 28.6562C-3.76441 30.2332 -4.85481 33.8652 -3.27829 36.7838L3.76048 32.9818ZM1.05378 32.1702C2.01716 31.651 3.23189 32.0032 3.76048 32.9818L-3.27829 36.7838C-1.69892 39.7077 1.94355 40.7786 4.84932 39.2125L1.05378 32.1702ZM10.9589 26.8136L1.04878 32.1729L4.85431 39.2098L14.7645 33.8505L10.9589 26.8136ZM22.3765 26.8142C18.8141 24.8861 14.5202 24.8861 10.9578 26.8142L14.7656 33.8498C15.9523 33.2076 17.382 33.2076 18.5686 33.8498L22.3765 26.8142ZM27.5277 29.5982L22.3744 26.8131L18.5707 33.851L23.724 36.6361L27.5277 29.5982ZM35.1395 29.5985C32.7645 30.8825 29.9027 30.8824 27.5284 29.5986L23.7233 36.6357C28.4721 39.2035 34.1953 39.2033 38.9442 36.6358L35.1395 29.5985ZM45.0487 24.2394L35.139 29.5988L38.9447 36.6356L48.8544 31.2762L45.0487 24.2394Z" fill="url(#paint0_linear)" mask="url(#path-1-inside-1)"/>
<defs>
<linearGradient id="paint0_linear" x1="24.0006" y1="0" x2="24.0006" y2="35.9317" gradientUnits="userSpaceOnUse">
<stop stop-color="#1CE3A7"/>
<stop offset="1" stop-color="white" stop-opacity="0"/>
</linearGradient>
</defs>
</svg>
