<svg width="35" height="21" viewBox="0 0 35 21" fill="none" xmlns="http://www.w3.org/2000/svg">
<path fill-rule="evenodd" clip-rule="evenodd" d="M28.7711 9.94293C28.7711 9.94293 33.3346 3.50573 33.7881 1.3902C33.9391 0.634709 33.6067 0.2114 32.8208 0.2114H28.8619C27.9552 0.2114 27.6228 0.604291 27.3508 1.17855C27.3508 1.17855 25.2102 5.73936 22.6059 8.61331C21.7697 9.5424 21.3448 9.82202 20.8832 9.82202C20.5111 9.82202 20.3393 9.51173 20.3393 8.67351V1.32975C20.3393 0.302273 20.2184 0 19.3722 0H13.0256C12.5421 0 12.2398 0.281145 12.2398 0.664745C12.2398 1.6324 13.7208 1.85093 13.7208 4.47275V9.88247C13.7208 10.9704 13.6602 11.3936 13.1465 11.3936C11.7866 11.3936 8.55285 6.70931 6.7396 1.3902C6.37675 0.302273 5.98398 0 4.95638 0H0.997309C0.423182 0 0 0.392764 0 0.966891C0 2.02465 1.23913 6.92071 6.10489 13.4789C9.3688 17.8912 13.6602 20.2787 17.5286 20.2787C19.886 20.2787 20.4601 19.886 20.4601 18.8885V15.5037C20.4601 14.6575 20.7927 14.2949 21.2762 14.2949C21.8201 14.2949 22.7803 14.4696 25.0237 16.6824C27.6832 19.2211 27.8646 20.2787 29.3152 20.2787H33.7578C34.2112 20.2787 34.6342 20.0672 34.6342 19.3117C34.6342 18.3143 33.3346 16.5313 31.34 14.4157C30.5239 13.3277 29.1943 12.1491 28.7711 11.6052C28.1669 10.9704 28.3481 10.6077 28.7711 9.94293Z" fill="#C2C2C2"/>
</svg>
