<svg id="Component_13_1" data-name="Component 13 – 1" xmlns="http://www.w3.org/2000/svg" width="50" height="50" viewBox="0 0 50 50">
  <circle id="Ellipse_13" data-name="Ellipse 13" cx="25" cy="25" r="25" fill="#fed201"/>
  <g id="passport" transform="translate(-26.526 10.51)">
    <path id="Path_45" data-name="Path 45" d="M60.723,0h-18.2A2.53,2.53,0,0,0,40,2.527v23.25A2.53,2.53,0,0,0,42.527,28.3h18.2a2.53,2.53,0,0,0,2.527-2.527V2.527A2.53,2.53,0,0,0,60.723,0Zm1.516,25.777a1.518,1.518,0,0,1-1.516,1.516h-18.2a1.518,1.518,0,0,1-1.516-1.516V2.527a1.518,1.518,0,0,1,1.516-1.516h18.2a1.518,1.518,0,0,1,1.516,1.516Z"/>
    <path id="Path_46" data-name="Path 46" d="M119.076,64a7.076,7.076,0,1,0,7.076,7.076A7.084,7.084,0,0,0,119.076,64Zm5.513,9.6h-1.726a11.981,11.981,0,0,0,.247-2.022h2.01A6.018,6.018,0,0,1,124.589,73.6Zm-11.026-5.054h1.726a11.982,11.982,0,0,0-.247,2.022h-2.01A6.019,6.019,0,0,1,113.563,68.549Zm3.491-1.011h-.423a3.844,3.844,0,0,1,1.939-2.438v5.471h-2.516a10.865,10.865,0,0,1,.275-2.022h.724a.505.505,0,0,0,0-1.011Zm4.466,0h-1.939V65.1A3.844,3.844,0,0,1,121.521,67.538Zm-8.489,4.044h2.01a11.981,11.981,0,0,0,.247,2.022h-1.726A6.019,6.019,0,0,1,113.032,71.582Zm3.023,0h2.516V73.6H116.33A10.871,10.871,0,0,1,116.055,71.582Zm2.516,3.033v2.438a3.844,3.844,0,0,1-1.939-2.438Zm1.011,2.438V74.614h1.939A3.844,3.844,0,0,1,119.582,77.053Zm0-3.449V68.549h2.241a10.872,10.872,0,0,1,.275,2.022h-1a.505.505,0,1,0,0,1.011h1a10.87,10.87,0,0,1-.275,2.022Zm3.528-3.033a11.982,11.982,0,0,0-.247-2.022h1.726a6.02,6.02,0,0,1,.531,2.022Zm.89-3.033h-1.4a7.387,7.387,0,0,0-.938-1.95A6.106,6.106,0,0,1,124,67.538Zm-7.5-1.95a7.386,7.386,0,0,0-.939,1.95h-1.4A6.105,6.105,0,0,1,116.5,65.588Zm-2.343,9.026h1.4a7.386,7.386,0,0,0,.939,1.95A6.105,6.105,0,0,1,114.153,74.614Zm7.5,1.95a7.384,7.384,0,0,0,.938-1.95H124A6.105,6.105,0,0,1,121.656,76.565Z" transform="translate(-67.451 -59.956)"/>
    <path id="Path_47" data-name="Path 47" d="M125.521,328H112.505a.505.505,0,1,0,0,1.011h13.015a.505.505,0,1,0,0-1.011Z" transform="translate(-67.451 -307.277)"/>
    <path id="Path_48" data-name="Path 48" d="M147.1,360h-2.59a.505.505,0,1,0,0,1.011h2.59a.505.505,0,0,0,0-1.011Z" transform="translate(-97.429 -337.255)"/>
    <path id="Path_49" data-name="Path 49" d="M221.054,360h-4.549a.505.505,0,1,0,0,1.011h4.549a.505.505,0,1,0,0-1.011Z" transform="translate(-164.88 -337.255)"/>
  </g>
</svg>
