<svg id="Component_12_1" data-name="Component 12 – 1" xmlns="http://www.w3.org/2000/svg" width="50" height="50" viewBox="0 0 50 50">
  <circle id="Ellipse_14" data-name="Ellipse 14" cx="25" cy="25" r="25" fill="#fed201"/>
  <g id="case" transform="translate(10.415 -17.835)">
    <path id="Path_33" data-name="Path 33" d="M27.2,33.022H20.15v-.5A2.522,2.522,0,0,0,17.631,30H11.586a2.522,2.522,0,0,0-2.519,2.519v.5H2.015A2.017,2.017,0,0,0,0,35.037V52.165A2.017,2.017,0,0,0,2.015,54.18a1.259,1.259,0,1,0,2.519,0h20.15a1.259,1.259,0,1,0,2.519,0,2.017,2.017,0,0,0,2.015-2.015V35.037A2.017,2.017,0,0,0,27.2,33.022Zm-17.127-.5a1.513,1.513,0,0,1,1.511-1.511h6.045a1.513,1.513,0,0,1,1.511,1.511v.5H10.075Zm-6.8,21.913a.252.252,0,0,1-.252-.252h.5A.252.252,0,0,1,3.274,54.432Zm22.668,0a.252.252,0,0,1-.252-.252h.5A.252.252,0,0,1,25.943,54.432Zm2.267-2.267A1.009,1.009,0,0,1,27.2,53.172h-3a4.519,4.519,0,0,1,2.786-3.753.5.5,0,0,0-.384-.932,5.523,5.523,0,0,0-3.414,4.685H6.027a5.523,5.523,0,0,0-3.414-4.685.5.5,0,0,0-.384.932,4.519,4.519,0,0,1,2.786,3.753h-3a1.009,1.009,0,0,1-1.007-1.007V35.037A1.009,1.009,0,0,1,2.015,34.03H5.01a4.519,4.519,0,0,1-2.78,3.69.5.5,0,1,0,.384.932A5.523,5.523,0,0,0,6.021,34.03H23.2A5.523,5.523,0,0,0,26.6,38.652a.5.5,0,0,0,.384-.932,4.519,4.519,0,0,1-2.78-3.69H27.2a1.009,1.009,0,0,1,1.007,1.007Z" transform="translate(0)"/>
    <path id="Path_34" data-name="Path 34" d="M93.242,239.727a.5.5,0,0,0-.313.64,2.013,2.013,0,1,1-1.151-1.214.5.5,0,0,0,.378-.934,3.02,3.02,0,1,0,1.726,1.82A.5.5,0,0,0,93.242,239.727Z" transform="translate(-82.459 -194.903)"/>
    <path id="Path_35" data-name="Path 35" d="M254.623,246.313a.5.5,0,0,0-.655-.279l-.935.376a.5.5,0,0,0,.376.935l.467-.188,1.129,2.8-4.673,1.881-1.129-2.8,2.336-.941a.5.5,0,1,0-.376-.935l-2.8,1.129a.5.5,0,0,0-.279.655l1.505,3.738a.5.5,0,0,0,.655.279l5.607-2.258a.5.5,0,0,0,.279-.655Z" transform="translate(-232.426 -202.396)"/>
    <path id="Path_36" data-name="Path 36" d="M148.624,135.806l7.552,2.815a.5.5,0,0,0,.648-.3l1.056-2.832a.5.5,0,0,0-.3-.648l-.944-.352a.5.5,0,0,0-.352.944l.472.176-.7,1.888-6.608-2.464.7-1.888,4.248,1.584a.5.5,0,0,0,.352-.944l-4.72-1.76a.5.5,0,0,0-.648.3l-1.056,2.832a.5.5,0,0,0,.3.648Z" transform="translate(-138.958 -95.575)"/>
  </g>
</svg>
