<svg width="39" height="39" viewBox="0 0 39 39" fill="none" xmlns="http://www.w3.org/2000/svg">
<path d="M18.369 12.7792C15.21 12.7792 12.675 15.3664 12.675 18.5024C12.675 21.6776 15.249 24.2256 18.369 24.2256C21.528 24.2256 24.063 21.6384 24.063 18.5024C24.063 15.3664 21.528 12.7792 18.369 12.7792Z" fill="black"/>
<path d="M19.539 0.548798C9.04799 0.548798 0.54599 9.0944 0.54599 19.6392C0.54599 30.184 9.04799 38.7296 19.539 38.7296C30.03 38.7296 38.532 30.184 38.532 19.6392C38.532 9.0944 30.03 0.548798 19.539 0.548798ZM28.782 29.4392C28.509 29.7136 28.08 29.8704 27.612 29.8704C27.144 29.8704 26.754 29.7136 26.442 29.4392L22.854 25.8328L22.503 26.0288C21.216 26.7344 19.812 27.1264 18.369 27.1264C13.65 27.1264 9.82799 23.2848 9.82799 18.5416C9.82799 13.7984 13.65 9.9568 18.369 9.9568C23.088 9.9568 26.91 13.7984 26.91 18.5416C26.91 20.2272 26.442 21.8344 25.506 23.2456L25.272 23.6376L28.821 27.2048C29.094 27.5184 29.289 27.9104 29.289 28.3416C29.25 28.7336 29.094 29.1256 28.782 29.4392Z" fill="black"/>
</svg>
