<svg xmlns="http://www.w3.org/2000/svg" xmlns:xlink="http://www.w3.org/1999/xlink" viewBox="0 0 467.77 339.05"><defs><style>.cls-1,.cls-64{opacity:0.3;}.cls-2{fill:url(#Ѕезым_нный_градиент_28);}.cls-3{fill:url(#Ѕезым_нный_градиент_26);}.cls-4{fill:url(#Ѕезым_нный_градиент_23);}.cls-10,.cls-5,.cls-98{fill:#242993;}.cls-5{opacity:0.5;}.cls-6{fill:url(#Ѕезым_нный_градиент_28-2);}.cls-7{fill:url(#Ѕезым_нный_градиент_26-2);}.cls-8{fill:url(#Ѕезым_нный_градиент_23-2);}.cls-9{fill:#162184;}.cls-11{fill:#485dce;}.cls-12{fill:#fce8ee;}.cls-13{fill:#4553c7;}.cls-14{fill:azure;}.cls-15{fill:#aa9aac;}.cls-16{fill:#c4e3ff;}.cls-17{fill:#e2c8cf;}.cls-18{fill:#1b4263;}.cls-19{fill:#938496;}.cls-20{fill:url(#Ѕезым_нный_градиент_21);}.cls-21{fill:url(#Ѕезым_нный_градиент_28-3);}.cls-22{fill:url(#Ѕезым_нный_градиент_28-4);}.cls-23{fill:#fff;}.cls-24{fill:url(#Ѕезым_нный_градиент_28-5);}.cls-25{fill:url(#Ѕезым_нный_градиент_23-3);}.cls-26{fill:url(#Ѕезым_нный_градиент_29);}.cls-27{fill:url(#Ѕезым_нный_градиент_28-6);}.cls-28{fill:url(#Ѕезым_нный_градиент_28-7);}.cls-29{fill:url(#Ѕезым_нный_градиент_28-8);}.cls-30{fill:url(#Ѕезым_нный_градиент_23-4);}.cls-31{fill:url(#Ѕезым_нный_градиент_29-2);}.cls-32{fill:url(#Ѕезым_нный_градиент_28-9);}.cls-33{fill:url(#Ѕезым_нный_градиент_28-10);}.cls-34{fill:url(#Ѕезым_нный_градиент_28-11);}.cls-35{fill:url(#Ѕезым_нный_градиент_23-5);}.cls-36{fill:url(#Ѕезым_нный_градиент_29-3);}.cls-37{fill:url(#Ѕезым_нный_градиент_28-12);}.cls-38{fill:url(#Ѕезым_нный_градиент_28-13);}.cls-39{fill:url(#Ѕезым_нный_градиент_28-14);}.cls-40{fill:url(#Ѕезым_нный_градиент_23-6);}.cls-41{fill:url(#Ѕезым_нный_градиент_29-4);}.cls-42{fill:url(#Ѕезым_нный_градиент_28-15);}.cls-43{fill:url(#Ѕезым_нный_градиент_28-16);}.cls-44{fill:url(#Ѕезым_нный_градиент_28-17);}.cls-45{fill:url(#Ѕезым_нный_градиент_23-7);}.cls-46{fill:url(#Ѕезым_нный_градиент_29-5);}.cls-47{fill:url(#Ѕезым_нный_градиент_28-18);}.cls-48{fill:url(#Ѕезым_нный_градиент_28-19);}.cls-49{fill:url(#Ѕезым_нный_градиент_28-20);}.cls-50{fill:url(#Ѕезым_нный_градиент_23-8);}.cls-51{fill:url(#Ѕезым_нный_градиент_29-6);}.cls-52{fill:url(#Ѕезым_нный_градиент_28-21);}.cls-53{fill:url(#Ѕезым_нный_градиент_28-22);}.cls-54{fill:url(#Ѕезым_нный_градиент_28-23);}.cls-55{fill:url(#Ѕезым_нный_градиент_23-9);}.cls-56{fill:url(#Ѕезым_нный_градиент_29-7);}.cls-57{fill:url(#Ѕезым_нный_градиент_28-24);}.cls-58{fill:url(#Ѕезым_нный_градиент_28-25);}.cls-59{fill:url(#Ѕезым_нный_градиент_28-26);}.cls-60{fill:url(#Ѕезым_нный_градиент_23-10);}.cls-61{fill:url(#Ѕезым_нный_градиент_29-8);}.cls-62{fill:url(#Ѕезым_нный_градиент_28-27);}.cls-63{fill:url(#Ѕезым_нный_градиент_28-28);}.cls-64{fill:url(#Ѕезым_нный_градиент_29-9);}.cls-65{fill:url(#Ѕезым_нный_градиент_28-29);}.cls-66{fill:url(#Ѕезым_нный_градиент_23-11);}.cls-67{fill:url(#Ѕезым_нный_градиент_29-10);}.cls-68{fill:url(#Ѕезым_нный_градиент_28-30);}.cls-69{fill:url(#Ѕезым_нный_градиент_28-31);}.cls-70{fill:url(#Ѕезым_нный_градиент_28-32);}.cls-71{fill:url(#Ѕезым_нный_градиент_23-12);}.cls-72{fill:url(#Ѕезым_нный_градиент_29-11);}.cls-73{fill:url(#Ѕезым_нный_градиент_28-33);}.cls-74{fill:url(#Ѕезым_нный_градиент_28-34);}.cls-75{fill:url(#Ѕезым_нный_градиент_28-35);}.cls-76{fill:url(#Ѕезым_нный_градиент_23-13);}.cls-77{fill:url(#Ѕезым_нный_градиент_29-12);}.cls-78{fill:url(#Ѕезым_нный_градиент_28-36);}.cls-79{fill:url(#Ѕезым_нный_градиент_28-37);}.cls-80{fill:url(#Ѕезым_нный_градиент_28-38);}.cls-81{fill:url(#Ѕезым_нный_градиент_23-14);}.cls-82{fill:url(#Ѕезым_нный_градиент_29-13);}.cls-83{fill:url(#Ѕезым_нный_градиент_28-39);}.cls-84{fill:url(#Ѕезым_нный_градиент_28-40);}.cls-85{fill:url(#Ѕезым_нный_градиент_28-41);}.cls-86{fill:url(#Ѕезым_нный_градиент_23-15);}.cls-87{fill:url(#Ѕезым_нный_градиент_29-14);}.cls-88{fill:url(#Ѕезым_нный_градиент_28-42);}.cls-89{fill:url(#Ѕезым_нный_градиент_28-43);}.cls-90{fill:url(#Ѕезым_нный_градиент_28-44);}.cls-91{fill:url(#Ѕезым_нный_градиент_23-16);}.cls-92{fill:url(#Ѕезым_нный_градиент_29-15);}.cls-93{fill:url(#Ѕезым_нный_градиент_28-45);}.cls-94{fill:url(#Ѕезым_нный_градиент_28-46);}.cls-95{fill:url(#Ѕезым_нный_градиент_28-47);}.cls-96{fill:url(#Ѕезым_нный_градиент_23-17);}.cls-97{fill:url(#Ѕезым_нный_градиент_29-16);}.cls-98{opacity:0.2;}.cls-99{fill:#dd821f;}.cls-100{fill:#ffd85a;}.cls-101{fill:#f9bf30;}.cls-102{fill:#f2b42a;}</style><linearGradient id="Ѕезым_нный_градиент_28" x1="-1186.17" y1="1751.82" x2="-1085.1" y2="1751.82" gradientTransform="matrix(0.87, 0.5, -0.87, 0.5, 2893.75, -94.61)" gradientUnits="userSpaceOnUse"><stop offset="0" stop-color="#c0d6ff"/><stop offset="0.3" stop-color="#c5dbff"/><stop offset="0.65" stop-color="#d3e9ff"/><stop offset="1" stop-color="#e9ffff"/></linearGradient><linearGradient id="Ѕезым_нный_градиент_26" x1="-1941.87" y1="212.69" x2="-1864.8" y2="212.69" gradientTransform="translate(2275.73)" gradientUnits="userSpaceOnUse"><stop offset="0.35" stop-color="#bcd5ff"/><stop offset="0.44" stop-color="#b5cfff"/><stop offset="0.57" stop-color="#a3beff"/><stop offset="0.72" stop-color="#84a2ff"/><stop offset="0.88" stop-color="#5a7bff"/><stop offset="0.89" stop-color="#5778ff"/></linearGradient><linearGradient id="Ѕезым_нный_градиент_23" x1="-1199.11" y1="1740.18" x2="-1095.42" y2="1740.18" gradientTransform="matrix(0.87, 0.5, -0.87, 0.5, 2893.75, -94.61)" gradientUnits="userSpaceOnUse"><stop offset="0" stop-color="#e9ffff"/><stop offset="0.35" stop-color="#d3e9ff"/><stop offset="0.7" stop-color="#c5dbff"/><stop offset="1" stop-color="#c0d6ff"/></linearGradient><linearGradient id="Ѕезым_нный_градиент_28-2" x1="-1217.01" y1="1720.97" x2="-1115.95" y2="1720.97" xlink:href="#Ѕезым_нный_градиент_28"/><linearGradient id="Ѕезым_нный_градиент_26-2" x1="-1941.87" y1="181.84" x2="-1864.8" y2="181.84" xlink:href="#Ѕезым_нный_градиент_26"/><linearGradient id="Ѕезым_нный_градиент_23-2" x1="-1229.96" y1="1709.34" x2="-1126.27" y2="1709.34" xlink:href="#Ѕезым_нный_градиент_23"/><linearGradient id="Ѕезым_нный_градиент_21" x1="422.54" y1="92.87" x2="424.37" y2="92.87" gradientUnits="userSpaceOnUse"><stop offset="0" stop-color="#5778ff"/><stop offset="0.07" stop-color="#5489ff"/><stop offset="0.28" stop-color="#4eb3ff"/><stop offset="0.48" stop-color="#49d4ff"/><stop offset="0.67" stop-color="#45ecff"/><stop offset="0.85" stop-color="#43faff"/><stop offset="1" stop-color="#42ffff"/></linearGradient><linearGradient id="Ѕезым_нный_градиент_28-3" x1="-672.8" y1="132.14" x2="-604.97" y2="132.14" gradientTransform="translate(886.45)" xlink:href="#Ѕезым_нный_градиент_28"/><linearGradient id="Ѕезым_нный_градиент_28-4" x1="10.01" y1="1037.87" x2="67.35" y2="1037.87" gradientTransform="matrix(0.87, 0.5, -0.87, 0.5, 1112.87, -484.27)" xlink:href="#Ѕезым_нный_градиент_28"/><linearGradient id="Ѕезым_нный_градиент_28-5" x1="-647.97" y1="141.94" x2="-614.05" y2="141.94" gradientTransform="translate(886.45)" xlink:href="#Ѕезым_нный_градиент_28"/><linearGradient id="Ѕезым_нный_градиент_23-3" x1="-614.05" y1="129.52" x2="-604.97" y2="129.52" gradientTransform="translate(886.45)" xlink:href="#Ѕезым_нный_градиент_23"/><linearGradient id="Ѕезым_нный_градиент_29" x1="-672.8" y1="137.39" x2="-647.97" y2="137.39" gradientTransform="translate(886.45)" gradientUnits="userSpaceOnUse"><stop offset="0" stop-color="#5778ff"/><stop offset="0.18" stop-color="#5c7dff"/><stop offset="0.39" stop-color="#6a8aff"/><stop offset="0.61" stop-color="#82a0ff"/><stop offset="0.85" stop-color="#a3beff"/><stop offset="1" stop-color="#bcd5ff"/></linearGradient><linearGradient id="Ѕезым_нный_градиент_28-6" x1="-726.21" y1="174.1" x2="-658.38" y2="174.1" gradientTransform="translate(886.45)" xlink:href="#Ѕезым_нный_градиент_28"/><linearGradient id="Ѕезым_нный_градиент_28-7" x1="33.94" y1="1123.48" x2="91.28" y2="1123.48" gradientTransform="matrix(0.87, 0.5, -0.87, 0.5, 1112.87, -484.27)" xlink:href="#Ѕезым_нный_градиент_28"/><linearGradient id="Ѕезым_нный_градиент_28-8" x1="-701.38" y1="183.89" x2="-667.47" y2="183.89" gradientTransform="translate(886.45)" xlink:href="#Ѕезым_нный_градиент_28"/><linearGradient id="Ѕезым_нный_градиент_23-4" x1="-667.47" y1="171.47" x2="-658.38" y2="171.47" gradientTransform="translate(886.45)" xlink:href="#Ѕезым_нный_градиент_23"/><linearGradient id="Ѕезым_нный_градиент_29-2" x1="-726.21" y1="179.34" x2="-701.38" y2="179.34" xlink:href="#Ѕезым_нный_градиент_29"/><linearGradient id="Ѕезым_нный_градиент_28-9" x1="-779.62" y1="218.9" x2="-711.79" y2="218.9" gradientTransform="translate(886.45)" xlink:href="#Ѕезым_нный_градиент_28"/><linearGradient id="Ѕезым_нный_градиент_28-10" x1="61.26" y1="1212.47" x2="118.6" y2="1212.47" gradientTransform="matrix(0.87, 0.5, -0.87, 0.5, 1112.87, -484.27)" xlink:href="#Ѕезым_нный_градиент_28"/><linearGradient id="Ѕезым_нный_градиент_28-11" x1="-754.79" y1="228.7" x2="-720.88" y2="228.7" gradientTransform="translate(886.45)" xlink:href="#Ѕезым_нный_градиент_28"/><linearGradient id="Ѕезым_нный_градиент_23-5" x1="-720.88" y1="216.28" x2="-711.79" y2="216.28" gradientTransform="translate(886.45)" xlink:href="#Ѕезым_нный_градиент_23"/><linearGradient id="Ѕезым_нный_градиент_29-3" x1="-779.62" y1="224.15" x2="-754.79" y2="224.15" xlink:href="#Ѕезым_нный_градиент_29"/><linearGradient id="Ѕезым_нный_градиент_28-12" x1="-833.03" y1="255.54" x2="-765.2" y2="255.54" gradientTransform="translate(886.45)" xlink:href="#Ѕезым_нный_градиент_28"/><linearGradient id="Ѕезым_нный_градиент_28-13" x1="72.23" y1="1285.13" x2="129.58" y2="1285.13" gradientTransform="matrix(0.87, 0.5, -0.87, 0.5, 1112.87, -484.27)" xlink:href="#Ѕезым_нный_градиент_28"/><linearGradient id="Ѕезым_нный_градиент_28-14" x1="-808.21" y1="265.34" x2="-774.29" y2="265.34" gradientTransform="translate(886.45)" xlink:href="#Ѕезым_нный_градиент_28"/><linearGradient id="Ѕезым_нный_градиент_23-6" x1="-774.29" y1="252.92" x2="-765.2" y2="252.92" gradientTransform="translate(886.45)" xlink:href="#Ѕезым_нный_градиент_23"/><linearGradient id="Ѕезым_нный_градиент_29-4" x1="-833.03" y1="260.79" x2="-808.21" y2="260.79" xlink:href="#Ѕезым_нный_градиент_29"/><linearGradient id="Ѕезым_нный_градиент_28-15" x1="-886.45" y1="296.8" x2="-818.61" y2="296.8" gradientTransform="translate(886.45)" xlink:href="#Ѕезым_нный_градиент_28"/><linearGradient id="Ѕезым_нный_градиент_28-16" x1="92.44" y1="1367.01" x2="149.78" y2="1367.01" gradientTransform="matrix(0.87, 0.5, -0.87, 0.5, 1112.87, -484.27)" xlink:href="#Ѕезым_нный_градиент_28"/><linearGradient id="Ѕезым_нный_градиент_28-17" x1="-861.62" y1="306.59" x2="-827.7" y2="306.59" gradientTransform="translate(886.45)" xlink:href="#Ѕезым_нный_градиент_28"/><linearGradient id="Ѕезым_нный_градиент_23-7" x1="-827.7" y1="294.17" x2="-818.61" y2="294.17" gradientTransform="translate(886.45)" xlink:href="#Ѕезым_нный_градиент_23"/><linearGradient id="Ѕезым_нный_градиент_29-5" x1="-886.45" y1="302.04" x2="-861.62" y2="302.04" xlink:href="#Ѕезым_нный_градиент_29"/><linearGradient id="Ѕезым_нный_градиент_28-18" x1="-672.8" y1="84.14" x2="-604.97" y2="84.14" gradientTransform="translate(886.45)" xlink:href="#Ѕезым_нный_градиент_28"/><linearGradient id="Ѕезым_нный_градиент_28-19" x1="-24.42" y1="1003.45" x2="32.92" y2="1003.45" gradientTransform="matrix(0.87, 0.5, -0.87, 0.5, 1112.87, -484.27)" xlink:href="#Ѕезым_нный_градиент_28"/><linearGradient id="Ѕезым_нный_градиент_28-20" x1="-647.97" y1="93.93" x2="-614.05" y2="93.93" gradientTransform="translate(886.45)" xlink:href="#Ѕезым_нный_градиент_28"/><linearGradient id="Ѕезым_нный_градиент_23-8" x1="-614.05" y1="81.52" x2="-604.97" y2="81.52" gradientTransform="translate(886.45)" xlink:href="#Ѕезым_нный_градиент_23"/><linearGradient id="Ѕезым_нный_градиент_29-6" x1="-672.8" y1="89.39" x2="-647.97" y2="89.39" xlink:href="#Ѕезым_нный_градиент_29"/><linearGradient id="Ѕезым_нный_градиент_28-21" x1="-726.21" y1="127.26" x2="-658.38" y2="127.26" gradientTransform="translate(886.45)" xlink:href="#Ѕезым_нный_градиент_28"/><linearGradient id="Ѕезым_нный_градиент_28-22" x1="-0.48" y1="1089.06" x2="56.86" y2="1089.06" gradientTransform="matrix(0.87, 0.5, -0.87, 0.5, 1112.87, -484.27)" xlink:href="#Ѕезым_нный_градиент_28"/><linearGradient id="Ѕезым_нный_градиент_28-23" x1="-701.38" y1="137.05" x2="-667.47" y2="137.05" gradientTransform="translate(886.45)" xlink:href="#Ѕезым_нный_градиент_28"/><linearGradient id="Ѕезым_нный_градиент_23-9" x1="-667.47" y1="124.64" x2="-658.38" y2="124.64" gradientTransform="translate(886.45)" xlink:href="#Ѕезым_нный_градиент_23"/><linearGradient id="Ѕезым_нный_градиент_29-7" x1="-726.21" y1="132.51" x2="-701.38" y2="132.51" xlink:href="#Ѕезым_нный_градиент_29"/><linearGradient id="Ѕезым_нный_градиент_28-24" x1="-779.62" y1="172.07" x2="-711.79" y2="172.07" gradientTransform="translate(886.45)" xlink:href="#Ѕезым_нный_градиент_28"/><linearGradient id="Ѕезым_нный_градиент_28-25" x1="26.83" y1="1178.05" x2="84.17" y2="1178.05" gradientTransform="matrix(0.87, 0.5, -0.87, 0.5, 1112.87, -484.27)" xlink:href="#Ѕезым_нный_градиент_28"/><linearGradient id="Ѕезым_нный_градиент_28-26" x1="-754.79" y1="181.86" x2="-720.88" y2="181.86" gradientTransform="translate(886.45)" xlink:href="#Ѕезым_нный_градиент_28"/><linearGradient id="Ѕезым_нный_градиент_23-10" x1="-720.88" y1="169.44" x2="-711.79" y2="169.44" gradientTransform="translate(886.45)" xlink:href="#Ѕезым_нный_градиент_23"/><linearGradient id="Ѕезым_нный_градиент_29-8" x1="-779.62" y1="177.31" x2="-754.79" y2="177.31" xlink:href="#Ѕезым_нный_градиент_29"/><linearGradient id="Ѕезым_нный_градиент_28-27" x1="-833.03" y1="208.71" x2="-765.2" y2="208.71" gradientTransform="translate(886.45)" xlink:href="#Ѕезым_нный_градиент_28"/><linearGradient id="Ѕезым_нный_градиент_28-28" x1="37.81" y1="1250.7" x2="95.15" y2="1250.7" gradientTransform="matrix(0.87, 0.5, -0.87, 0.5, 1112.87, -484.27)" xlink:href="#Ѕезым_нный_градиент_28"/><linearGradient id="Ѕезым_нный_градиент_29-9" x1="47.24" y1="1250.7" x2="85.73" y2="1250.7" gradientTransform="matrix(0.87, 0.5, -0.87, 0.5, 1112.87, -484.27)" xlink:href="#Ѕезым_нный_градиент_29"/><linearGradient id="Ѕезым_нный_градиент_28-29" x1="-808.21" y1="218.5" x2="-774.29" y2="218.5" gradientTransform="translate(886.45)" xlink:href="#Ѕезым_нный_градиент_28"/><linearGradient id="Ѕезым_нный_градиент_23-11" x1="-774.29" y1="206.08" x2="-765.2" y2="206.08" gradientTransform="translate(886.45)" xlink:href="#Ѕезым_нный_градиент_23"/><linearGradient id="Ѕезым_нный_градиент_29-10" x1="-833.03" y1="213.95" x2="-808.21" y2="213.95" xlink:href="#Ѕезым_нный_градиент_29"/><linearGradient id="Ѕезым_нный_градиент_28-30" x1="-833.03" y1="156.88" x2="-765.2" y2="156.88" gradientTransform="translate(886.45)" xlink:href="#Ѕезым_нный_градиент_28"/><linearGradient id="Ѕезым_нный_градиент_28-31" x1="6.18" y1="1219.07" x2="63.52" y2="1219.07" gradientTransform="matrix(0.87, 0.5, -0.87, 0.5, 1112.87, -484.27)" xlink:href="#Ѕезым_нный_градиент_28"/><linearGradient id="Ѕезым_нный_градиент_28-32" x1="-808.21" y1="166.67" x2="-774.29" y2="166.67" gradientTransform="translate(886.45)" xlink:href="#Ѕезым_нный_градиент_28"/><linearGradient id="Ѕезым_нный_градиент_23-12" x1="-774.29" y1="154.26" x2="-765.2" y2="154.26" gradientTransform="translate(886.45)" xlink:href="#Ѕезым_нный_градиент_23"/><linearGradient id="Ѕезым_нный_градиент_29-11" x1="-833.03" y1="162.13" x2="-808.21" y2="162.13" xlink:href="#Ѕезым_нный_градиент_29"/><linearGradient id="Ѕезым_нный_градиент_28-33" x1="-886.45" y1="249.96" x2="-818.61" y2="249.96" gradientTransform="translate(886.45)" xlink:href="#Ѕезым_нный_градиент_28"/><linearGradient id="Ѕезым_нный_градиент_28-34" x1="58.02" y1="1332.59" x2="115.36" y2="1332.59" gradientTransform="matrix(0.87, 0.5, -0.87, 0.5, 1112.87, -484.27)" xlink:href="#Ѕезым_нный_градиент_28"/><linearGradient id="Ѕезым_нный_градиент_28-35" x1="-861.62" y1="259.75" x2="-827.7" y2="259.75" gradientTransform="translate(886.45)" xlink:href="#Ѕезым_нный_градиент_28"/><linearGradient id="Ѕезым_нный_градиент_23-13" x1="-827.7" y1="247.34" x2="-818.61" y2="247.34" gradientTransform="translate(886.45)" xlink:href="#Ѕезым_нный_градиент_23"/><linearGradient id="Ѕезым_нный_градиент_29-12" x1="-886.45" y1="255.21" x2="-861.62" y2="255.21" xlink:href="#Ѕезым_нный_градиент_29"/><linearGradient id="Ѕезым_нный_градиент_28-36" x1="-718.34" y1="295.11" x2="-650.51" y2="295.11" gradientTransform="translate(886.45)" xlink:href="#Ѕезым_нный_градиент_28"/><linearGradient id="Ѕезым_нный_градиент_28-37" x1="210.63" y1="1291.08" x2="267.97" y2="1291.08" gradientTransform="matrix(0.87, 0.5, -0.87, 0.5, 1112.87, -484.27)" xlink:href="#Ѕезым_нный_градиент_28"/><linearGradient id="Ѕезым_нный_градиент_28-38" x1="-693.51" y1="304.9" x2="-659.59" y2="304.9" gradientTransform="translate(886.45)" xlink:href="#Ѕезым_нный_градиент_28"/><linearGradient id="Ѕезым_нный_градиент_23-14" x1="-659.59" y1="292.49" x2="-650.51" y2="292.49" gradientTransform="translate(886.45)" xlink:href="#Ѕезым_нный_градиент_23"/><linearGradient id="Ѕезым_нный_градиент_29-13" x1="-718.34" y1="300.36" x2="-693.51" y2="300.36" xlink:href="#Ѕезым_нный_градиент_29"/><linearGradient id="Ѕезым_нный_градиент_28-39" x1="-718.34" y1="266.6" x2="-650.51" y2="266.6" gradientTransform="translate(886.45)" xlink:href="#Ѕезым_нный_градиент_28"/><linearGradient id="Ѕезым_нный_градиент_28-40" x1="182.12" y1="1262.57" x2="239.46" y2="1262.57" gradientTransform="matrix(0.87, 0.5, -0.87, 0.5, 1112.87, -484.27)" xlink:href="#Ѕезым_нный_градиент_28"/><linearGradient id="Ѕезым_нный_градиент_28-41" x1="-693.51" y1="276.39" x2="-659.59" y2="276.39" gradientTransform="translate(886.45)" xlink:href="#Ѕезым_нный_градиент_28"/><linearGradient id="Ѕезым_нный_градиент_23-15" x1="-659.59" y1="263.98" x2="-650.51" y2="263.98" gradientTransform="translate(886.45)" xlink:href="#Ѕезым_нный_градиент_23"/><linearGradient id="Ѕезым_нный_градиент_29-14" x1="-718.34" y1="271.85" x2="-693.51" y2="271.85" xlink:href="#Ѕезым_нный_градиент_29"/><linearGradient id="Ѕезым_нный_градиент_28-42" x1="-535.32" y1="317.9" x2="-467.49" y2="317.9" gradientTransform="translate(886.45)" xlink:href="#Ѕезым_нный_градиент_28"/><linearGradient id="Ѕезым_нный_градиент_28-43" x1="339.09" y1="1208.2" x2="396.43" y2="1208.2" gradientTransform="matrix(0.87, 0.5, -0.87, 0.5, 1112.87, -484.27)" xlink:href="#Ѕезым_нный_градиент_28"/><linearGradient id="Ѕезым_нный_градиент_28-44" x1="-510.49" y1="327.69" x2="-476.58" y2="327.69" gradientTransform="translate(886.45)" xlink:href="#Ѕезым_нный_градиент_28"/><linearGradient id="Ѕезым_нный_градиент_23-16" x1="-476.58" y1="315.27" x2="-467.49" y2="315.27" gradientTransform="translate(886.45)" xlink:href="#Ѕезым_нный_градиент_23"/><linearGradient id="Ѕезым_нный_градиент_29-15" x1="-535.32" y1="323.14" x2="-510.49" y2="323.14" xlink:href="#Ѕезым_нный_градиент_29"/><linearGradient id="Ѕезым_нный_градиент_28-45" x1="-535.32" y1="289.39" x2="-467.49" y2="289.39" gradientTransform="translate(886.45)" xlink:href="#Ѕезым_нный_градиент_28"/><linearGradient id="Ѕезым_нный_градиент_28-46" x1="310.58" y1="1179.69" x2="367.92" y2="1179.69" gradientTransform="matrix(0.87, 0.5, -0.87, 0.5, 1112.87, -484.27)" xlink:href="#Ѕезым_нный_градиент_28"/><linearGradient id="Ѕезым_нный_градиент_28-47" x1="-510.49" y1="299.18" x2="-476.58" y2="299.18" gradientTransform="translate(886.45)" xlink:href="#Ѕезым_нный_градиент_28"/><linearGradient id="Ѕезым_нный_градиент_23-17" x1="-476.58" y1="286.77" x2="-467.49" y2="286.77" gradientTransform="translate(886.45)" xlink:href="#Ѕезым_нный_градиент_23"/><linearGradient id="Ѕезым_нный_градиент_29-16" x1="-535.32" y1="294.64" x2="-510.49" y2="294.64" xlink:href="#Ѕезым_нный_градиент_29"/></defs><title>Buissnes</title><g id="Шар_2" data-name="Шар 2"><g id="_лой_1" data-name="—лой_1"><g class="cls-1"><path class="cls-2" d="M404.57,255.06l-83.11-48.27c-1.15-.66-1-1.82.32-2.59l55.62-32.11a5,5,0,0,1,4.48-.19L465,220.18c1.15.66,1,1.82-.32,2.59L409,254.87A5,5,0,0,1,404.57,255.06Z"/><path class="cls-3" d="M467.77,209.93l-19.53-1.27L381.71,170a5.13,5.13,0,0,0-4.62.19l-43,24.83-15.41-1v10.75h0a1.36,1.36,0,0,0,.79,1.16l85.26,49.51a5.13,5.13,0,0,0,4.62-.19l57.29-33.07a1.92,1.92,0,0,0,1.12-1.46h0Z"/><path class="cls-4" d="M404.73,244.57l-85.26-49.51c-1.18-.68-1-1.88.33-2.67l57.29-33.07a5.13,5.13,0,0,1,4.62-.19L467,208.64c1.18.68,1,1.88-.33,2.67l-57.29,33.07A5.13,5.13,0,0,1,404.73,244.57Z"/></g><path class="cls-5" d="M467,199.08l-85.26-49.51a5.13,5.13,0,0,0-4.62.19l-76.4,44c-1.37.79-1.52,2-.33,2.67L327.23,212l-.64.3s-6.1-1.14-14.21,2.57c-2.81,1.28-5,2.32-6.74,3.19h0l-.15.08-.84.42-.22.11-.92.49-.16.09-.64.36-.22.13-.52.31-.17.1-.58.37-.07,0-.42.29-.13.1,0,0a30.24,30.24,0,0,0-6.93-2.87s-4.63-1.65-5.79-.65-8.66,14.35-10.32,15.75-7.5,6.62-7.5,6.62a21.77,21.77,0,0,1-2.91-2.21c-1.47-1.33-10-8.09-10.51-8.64s-10.52-8.68-11.51-10.24a3.25,3.25,0,0,0-3.11-1.2,4.87,4.87,0,0,0-1.85-2.41,7.53,7.53,0,0,1-1.91-2.33c0-.12,0-.5,0-.5a1,1,0,0,0,.33-.81c-.09-.44-1.23-.36-1.42-.47a4.29,4.29,0,0,0-1.06-.47,18.63,18.63,0,0,0-3.49,1.47.71.71,0,0,0-.16.23h0l0,.09a2.47,2.47,0,0,0-.14.52l0,.1,0,.16v.33s0,.07,0,.1,0,.06,0,.08v.1s-2.31-2.17-2.47-2.36-1.13-.41-1.35.21,3.7,4.66,3.7,4.66a5.92,5.92,0,0,0,.62,1.72c.46.77,3.25,2,4,2.59a11.67,11.67,0,0,1,1.86,2.23c1.12,1.82,11.21,12.78,14.4,14.82s6,6,7.57,7.38,2.4,7.45,2.4,7.45l1.43,2.4,0,0-.36.24s-.8-.31-1.18.23-1.16,2.95-1.35,3.25-2.29,1.18-3,2.31a23.67,23.67,0,0,0-1.23,2.54,1,1,0,0,0-.5.15c-1.26.8-1.83,7.58,1.91,10.37s10,3.91,13.33-1.12c.33-.5.62-1,.88-1.44h0l.09-.16.22-.4.2-.38.19-.38.16-.34.16-.36.13-.31.14-.34.1-.28.11-.32.08-.24q.09-.3.16-.56l.05-.2.05-.25,0-.19,0-.21,0-.17,0-.18,0-.15v-.28s0-.08,0-.11,0-.07,0-.11,0-.06,0-.08,0-.06,0-.09v-.12h0v0l4.14-.5s9,3.45,12,4.22c0,0,5.83-.11,8-.1a18.63,18.63,0,0,0,1.77,2C306,276,311,273,312.56,271.09c.36-.43.81-1,1.3-1.52a11.42,11.42,0,0,0,2.5-.58,3.53,3.53,0,0,0,2.28-2.75A4.33,4.33,0,0,0,322,267.9s10-.53,13.94-4.12l0,0q.19-.18.37-.37l.07-.07c.1-.12.19-.24.28-.36l.07-.1a4.33,4.33,0,0,0,.28-.47c.15-.29.32-.59.5-.89l.19-.29c.13-.21.27-.42.41-.64l.25-.36.44-.6.3-.39.47-.6.33-.4.5-.59.35-.41.53-.59.36-.4.55-.59.36-.38.6-.61.82-.81.35-.34.59-.55.29-.27.59-.53.26-.23.59-.51.21-.18.58-.48.16-.13.57-.44.1-.07.56-.4h0a7.68,7.68,0,0,1,1-.61c1.79-.84,7.89-3.46,10.83-4.72l.42-.18.27-.11a3.55,3.55,0,0,0,.43-.22h0a3.53,3.53,0,0,0,1.07-1,2.67,2.67,0,0,1,.65-.63l1.05-.67,1-.62a1.69,1.69,0,0,0,.67-.81,14.19,14.19,0,0,0,.94-4.9L385.62,246a5.13,5.13,0,0,0,4.62-.19l76.4-44C468,201,468.15,199.76,467,199.08Zm-230.51,17c-.47-.22-.87-.39-.87-.39s-.47-.59-.56-.54a.74.74,0,0,0-.34-.76,1.49,1.49,0,0,0,.06-1.27,6.31,6.31,0,0,1,1.07.53,7.65,7.65,0,0,0,.73.78,2.75,2.75,0,0,1,.92,1S236.93,216.33,236.46,216.11ZM311,251.39a16.51,16.51,0,0,0-3.1,1.11s-1.07-.84-1.57-.59-1.82,1.89-2,1.92a6.16,6.16,0,0,0-1.94.46,13.2,13.2,0,0,1,.5-1.54c.54-1.28,3.54-5.13,5.18-7.19a23.12,23.12,0,0,0,3.49.62l-.09.08s.13,2.29.16,5A5,5,0,0,1,311,251.39Zm26-33.64a37.37,37.37,0,0,0-6.18,1.1l-.68.21s2.19-1.45,4.22-2.84Zm-17.4,47.39h-.05l-.33,0h-.07l-.29,0h-.06v0a4,4,0,0,0,1,.13Zm1.05-.12a2.35,2.35,0,0,0,1.39-1.25A2.14,2.14,0,0,1,320.7,265Zm.83-14.68h0q0,.22,0,.43C321.54,250.58,321.53,250.44,321.54,250.34Zm.95,11.44s0-.08,0-.12,0-.33,0-.5v0c0-.08,0-.16,0-.23C322.5,261.2,322.5,261.49,322.48,261.78Zm23.21-37.87,0,0h0c-1.87,1.32-5.74,4.15-6.41,4.72-.88.74-8.12,4.88-11,6.85a21.32,21.32,0,0,0-4.72,4.39,20.67,20.67,0,0,0-1.83,7.69h0A6.4,6.4,0,0,0,320,249a6.66,6.66,0,0,0,0-1.28,5.74,5.74,0,0,0-3.2-1.93h-.06c0-.21-.06-.43-.1-.66V245c-.05-.33-.11-.68-.18-1v0a11.93,11.93,0,0,0-.36-1.53l0-.09.13,0h0a13.71,13.71,0,0,0,1.09-2.17h0a51.71,51.71,0,0,0,8.8-6.39,45.62,45.62,0,0,1,9.39-6.65,35.71,35.71,0,0,0,9.85-4.58l1,.6Z"/><path class="cls-6" d="M404.57,224.22l-83.11-48.27c-1.15-.66-1-1.82.32-2.59l55.62-32.11a5,5,0,0,1,4.48-.19L465,189.33c1.15.66,1,1.82-.32,2.59L409,224A5,5,0,0,1,404.57,224.22Z"/><path class="cls-7" d="M467.77,179.09l-19.53-1.27-66.53-38.69a5.13,5.13,0,0,0-4.62.19l-43,24.83-15.41-1v10.75h0a1.36,1.36,0,0,0,.79,1.16l85.26,49.51a5.13,5.13,0,0,0,4.62-.19l57.29-33.07a1.92,1.92,0,0,0,1.12-1.46h0Z"/><path class="cls-8" d="M404.73,213.73l-85.26-49.51c-1.18-.68-1-1.88.33-2.67l57.29-33.07a5.13,5.13,0,0,1,4.62-.19L467,177.79c1.18.68,1,1.88-.33,2.67l-57.29,33.07A5.13,5.13,0,0,1,404.73,213.73Z"/><path class="cls-9" d="M390.62,151.92l.08.37.11-.25s.57,1.93.08,2.89a22.85,22.85,0,0,1-2.22,3.5c-1,1.35-2.66,4.15-3.09,4.69a10.56,10.56,0,0,1-6.05,3c-3.12.32-3.92-1.47-3.66-2.43a21.63,21.63,0,0,1,3.77-5.62,28,28,0,0,0,3.23-4.78Z"/><path class="cls-9" d="M381.23,143.43a14.39,14.39,0,0,1-.11,2.83c-.21.82-4.8,1.08-6.43,1.29a23.56,23.56,0,0,0-5.36,1.81c-.89.44-6.85,1.07-7.58-1.13s3-4,5.51-4.62,6.64-1.84,6.64-1.84Z"/><path class="cls-10" d="M397.15,103.75a56.12,56.12,0,0,1-1.71,13.38,52.68,52.68,0,0,0-1.65,13.19s2,8.78.24,14.77-3.19,7.67-3.19,7.67a5.17,5.17,0,0,1-8,.47s2.54-8.23,2.84-14.78a44.42,44.42,0,0,1-3-9.11s-.65,6.82-1,9.58c0,0,.39,4.05-.69,5.69s-5.95,2.11-7.5-.73,1.29-1.45.43-14.54c0,0-4.48-5.59-5.13-15.86s-.58-14.35,0-16.35,10.51-9.22,10.51-9.22l5.6,7.15Z"/><path class="cls-9" d="M375,115.22c-1.62-1.94-2.52-8-2.52-8s2.52,5.11,4.33,6.59a12.27,12.27,0,0,1,3.68,6.4c.32,1.94,2.15,9.14,2.15,9.14s-.65,6.82-1,9.58c0,0,.39,4.05-.69,5.69a2.52,2.52,0,0,1-1.06.83c0-.08.27-9,0-12.83S376.66,117.16,375,115.22Z"/><path class="cls-11" d="M412.06,62.3s4.28,8.37,4.71,9,8.45,10.86,9.22,16.76c0,0,.6,2.28-2.15,4.31s-16.68,10.86-17.54,11-5.9-2.33-6.12-7.84c0,0,10.9-5.08,13.27-7.63,0,0-4.24-7.13-6.32-9.23a4.85,4.85,0,0,1-1-2.64,14.34,14.34,0,0,1,4.65-12.58Z"/><path class="cls-10" d="M380.05,42.7s-6.63,2.46-8.89,1.62-7.82-1.55-11.63-3.68S339.06,34.2,336.59,34c0,0,0,.1.37.27a3.11,3.11,0,0,1,2.59,2.26A6.15,6.15,0,0,1,338.7,41c-.28.16-.44-.53-2-1.26a6.21,6.21,0,0,0-2.57-.69l-.6.76-.37.56s.79,2.35,2.92,2.51,15.84,5.88,16.7,6.14,12.37,5.22,14.52,6a25.14,25.14,0,0,1,3.84,1.76s6.72-4.48,6.94-4.48S380.05,42.7,380.05,42.7Z"/><path class="cls-12" d="M320.14,31.25c.28.06,3.75,1.23,3.75,1.23s-1.38.71-1.51,1.34a21.51,21.51,0,0,0,.41,4.35,5,5,0,0,0,1.06.82c.22.13.75,1.34,1.25,1.19a1.14,1.14,0,0,0,.65-.78s.39-.19.51-.27a8.7,8.7,0,0,1,3.41.68,5.62,5.62,0,0,0,3.46.57,15,15,0,0,0,2.14-.94,5.38,5.38,0,0,1,1.33.38c.47.25,2,1.26,2.21,1.35s3.32-6-2.21-7.12a13.48,13.48,0,0,1-3.29-.68c-1-.47-3.79-2.63-4.83-2.67a6.83,6.83,0,0,0-2.09.3s-6.25-1.79-6.77-1.23S319.86,31.19,320.14,31.25Zm4.52,4.16a1.72,1.72,0,0,0,1.26-.76.85.85,0,0,0,1-.07c0,.11.86.27.86.27s.39.32.87.68-.16,1.41-.16,1.41a3.17,3.17,0,0,1-1.48-.41,8.85,8.85,0,0,0-1.19-.32A7.29,7.29,0,0,1,324.66,35.41Z"/><path class="cls-9" d="M368.77,97.12c.58-2,10.51-9.22,10.51-9.22l2.78,3.55,2.39,9.29,12.69,3.95h0s-.67,6.35-11,5.62-11.55-8.75-11.55-8.75-1.15,2.63-6.24,3.32C368.23,100.63,368.39,98.43,368.77,97.12Z"/><path class="cls-13" d="M399.5,47.91l1.75,4.48s8.41,7.28,10.82,9.9a50.76,50.76,0,0,0-4.93,16.37,52.53,52.53,0,0,0-5,4.58c-1.16,1.44-4.1,8.12-5,10.32s1.68,8.82,1.68,8.82-3.58,6.6-9.33,6.39S379.76,105,379,98.8s-.52-7.15-.52-7.15-2.59,7.67-6.51,7.67-10.15-6.66-10.15-6.66-4.2-3.81-3.81-5.54S367.93,70.49,368.45,68s2.65-11.25,2.65-11.25l9-14.09,5.46.26Z"/><path class="cls-14" d="M399.5,47.91a15.48,15.48,0,0,1-1,5.32c-1.06,2.65-4.5,17.58-12.32,22.69l-3,1.91v-9.5s.05-5.85,1.39-9.56a27.49,27.49,0,0,0,1.29-8.23S388,49.93,388,50,399.5,47.91,399.5,47.91Z"/><path class="cls-12" d="M389.86,54.85s-1.39.57-2-.34a6.61,6.61,0,0,1-1.05-3.57s-3.7.18-4.43-1.76.06-2.45.18-3a15.18,15.18,0,0,1,.72-3.34l.05-.5s-.75-.65-.41-1.33,2.37-2.79,2.57-3.15-.05-3,.73-4.28a31.83,31.83,0,0,1,2.31-3.11s7.89-6.15,14.09,0-3.15,17.47-3.15,17.47-.75,3.66-2.56,5.11S389.86,54.85,389.86,54.85Z"/><path class="cls-15" d="M395.63,39.87a1.92,1.92,0,0,1,.1-.67,3.26,3.26,0,0,0-1.27-3.87c-2.37-1.72-6.55-3.28-6.42-5s6.72-6,11.59-3.71,9.44,8.06,6.12,14.18-6.25,7.11-6.25,7.11-1-.2-.1-1.22,2.5-3.59,1.16-4.4-3.67.94-4,1.32a4.87,4.87,0,0,0-.34.51.65.65,0,0,1-.84.26l-.11-.05a.65.65,0,0,1-.34-.82l.58-1.58a2,2,0,0,0,.12-.74Z"/><path class="cls-16" d="M390.06,56.57a9.35,9.35,0,0,1,2.79,3.64,12.58,12.58,0,0,0-2.94-2.33s-2.07,1-2.07,1.62a42.72,42.72,0,0,1-.68,6.61c-.48,2.09-.43,9.41-.43,9.41l-1.31.86-.62-3.21.24-6.85,1.22-6.24s.23-2.36.32-2.49S390.06,56.57,390.06,56.57Z"/><path class="cls-10" d="M390.06,56.57s-2-2.13-3-2.18a1.7,1.7,0,0,0-1.58.63c0,.12-1,3.46-1,3.46a41.79,41.79,0,0,0-1.7,12.61c.19,6.79.36,6.73.36,6.73l2.48-1.58a31.27,31.27,0,0,1,.68-10.48c1.36-5.62.16-6.46.81-7S390.37,57.26,390.06,56.57Z"/><path class="cls-10" d="M402.12,83.24c-1.16,1.44-4,8.11-5,10.31a3.44,3.44,0,0,0-.26,1.38l-.38.25L395.24,94s1.13-4.07,2.94-9.11,9-6.17,9-6.17A52.53,52.53,0,0,0,402.12,83.24Z"/><path class="cls-12" d="M400.19,95.7a23.3,23.3,0,0,0-2.69-3.36s.15.84-1,1.36-7.25,2.88-7.46,3.15,0,.61.4.69a8.25,8.25,0,0,1-1.78.42c-.52,0-1.21.65-.86,1.21s.64.52.64.52-.15.62.23.76a5.77,5.77,0,0,0,1.28.16s-.18.62.32.87a19,19,0,0,0,3,.52s1.93-.2,2.48-.22,3.06.6,4.13.45a32.34,32.34,0,0,0,4.94-1.61C404.13,100.42,400.19,95.7,400.19,95.7Z"/><path class="cls-10" d="M401.64,53.85l-.26,4-2.17.68,1.45,1.2S394.8,73.08,387.3,77.3c0,0,7.15-2.54,13.92-17.45,0,0-.71-.84-.93-1.08l1.51-.67Z"/><path class="cls-10" d="M382.48,53.43S379.82,67,382.08,77.3c0,0-2.72-4.93-.26-23.87Z"/><path class="cls-17" d="M322.53,33.53a4.76,4.76,0,0,1,1.37-1s2.83,1.15,3.32,1.38C327.21,33.86,324.3,33.56,322.53,33.53Z"/><path class="cls-17" d="M338.8,41.17c-.12,0-.57-.33-1-.63h0c1.88-2.53-.19-6.19-.19-6.2C341.73,35.95,339,41.25,338.8,41.17Z"/><path class="cls-17" d="M403.77,100.63a35.34,35.34,0,0,1-3.73,1.31s-.94-3.68-.73-4.91.73-1.52.73-1.52l.14.2S404.13,100.42,403.77,100.63Z"/><path class="cls-11" d="M400.19,95.53A4.3,4.3,0,0,0,401,99.3c1.44,1.65,1.6,1.86,1.6,1.86h1.65a18,18,0,0,0,.73-2.67C404.84,98.43,400.19,95.53,400.19,95.53Z"/><path class="cls-10" d="M384.8,57.4h0s-1.58,9.34-1.23,12.76a59.88,59.88,0,0,1,.23,7.13l-.5.44-.15.09s-.16.05-.36-6.73a41.79,41.79,0,0,1,1.7-12.61Z"/><path class="cls-9" d="M384.29,154.26a7.74,7.74,0,0,1-1.42-1s2.54-8.23,2.84-14.78a44.43,44.43,0,0,1-3-9.11c.21.85,2.82,5.47,4,10.18S384.29,154.26,384.29,154.26Z"/><path class="cls-17" d="M395.85,46.4v0Z"/><path class="cls-17" d="M395.85,46.4c0,.23-.72,3.56-2.06,5.12s-2.46,3.17-2.46,3.17c-.86.11-1.47.15-1.47.15s-1.39.57-2-.34a6.61,6.61,0,0,1-1.05-3.57s5-.52,6.9-1.84A4.78,4.78,0,0,0,395.85,46.4Z"/><path class="cls-18" d="M397.65,92.37s-.27.57-.32.61-.12-.43-.12-.43.22-.46.24-.46S397.65,92.37,397.65,92.37Z"/><path class="cls-10" d="M383.15,77.83S379.67,89,378.51,91.65l.07,2.68S383,80.51,383.15,77.83Z"/><ellipse class="cls-10" cx="380.88" cy="82.12" rx="1.23" ry="1.14" transform="translate(191.49 422.63) rotate(-73.09)"/><ellipse class="cls-10" cx="379.11" cy="86.92" rx="1.23" ry="1.14" transform="translate(185.63 424.34) rotate(-73.08)"/><path class="cls-19" d="M395.53,41.94a2,2,0,0,0,.12-.74l0-1.33a1.92,1.92,0,0,1,.1-.67,3.74,3.74,0,0,0,.18-.83s5.42,3.95,8.86,4.11c-2.9,4.63-5.27,5.43-5.27,5.43s-1-.2-.1-1.22,2.5-3.59,1.16-4.4-3.67.94-4,1.32a4.85,4.85,0,0,0-.34.51.65.65,0,0,1-.84.26l-.11-.05a.65.65,0,0,1-.34-.82Z"/><path class="cls-9" d="M403.92,195.32a30.82,30.82,0,0,1-4.57.15c-2.23-.12-8.34.37-8.33,2.27s2.93,4.86,6.8,5.6,9,.24,11.54.53,4.54-1.74,3.76-3.92S403.92,195.32,403.92,195.32Z"/><path class="cls-9" d="M417.85,191.36s.72,1.24.22,1.91-1.81,2.33-5.25.31-10.22-5.09-10.22-5.09-3.87-2.18-3.47-4.33,4.12-1.5,4.12-1.5Z"/><path class="cls-10" d="M396.68,157.46s.41,15.08,3.32,20.87,2.93,15.7,3.45,17.61a8.28,8.28,0,0,0,5.71,5.58c3.31.85,4.06-1,4-2.18s-.78-3.12-.66-4.38a11.59,11.59,0,0,1,.65-2.4s3.79,1.31,4.68-1.19a6.33,6.33,0,0,1-.24-1.16c0-.39,1.46-9.81,1.69-11a43.79,43.79,0,0,0-.54-10.88c-.76-3.28.37-10.13.37-10.13l-11.55-2.48Z"/><path class="cls-9" d="M415.55,159a10.73,10.73,0,0,1-1.62,4.25s-.8,7.91-2.12,11.76a103.13,103.13,0,0,0,1.32,10.39c.66,2.49,0,7.13,0,7.13a4.4,4.4,0,0,0,1.06.25c.63.08,1.7-9.19.89-10.93s-.77-9.29-.15-11.57,1.21-9,1.85-10.14a1.44,1.44,0,0,0-.44-1.89Z"/><path class="cls-9" d="M411.19,98.5a8.67,8.67,0,0,0-4.09,6.63l2.76-.32S409.48,99.88,411.19,98.5Z"/><path class="cls-9" d="M406.74,161.58c7.68.88,12.16-1.78,12.16-1.78.12-1,.23-1.59.23-1.59l-11.55-2.48-10.9,1.72s.08,3,.44,6.88c1.86.34,4.06-3.58,4.06-3.58l5.25.76S399.06,160.7,406.74,161.58Z"/><path class="cls-13" d="M398.15,157.82s16.17,7.51,25.57-3.31a2,2,0,0,0,.46-1.13l.22-2.76a2.69,2.69,0,0,1,.28-1h0a4.07,4.07,0,0,0,.43-2.2c-.28-3.18-1-12-1.17-14.45-.17-3,3-15.11,6.56-20.28s-2.58-18.32-2.58-18.32a5,5,0,0,0-5.39-2.44s3.28,2.71,1.07,5.06-8.17,3.85-8.17,3.85-11.07,4.34-15.18,10.35a24.61,24.61,0,0,0-1.9,7.19c-.42,4.06-.68,13.68-1,15s-1.49,10.09-1.47,10.5S398.15,157.82,398.15,157.82Z"/><path class="cls-20" d="M424.07,93.91a2.52,2.52,0,0,0,.15-2,5.46,5.46,0,0,0-1.69,0A6.36,6.36,0,0,1,424.07,93.91Z"/><path class="cls-10" d="M403.14,159.51s12.38-23.59,12.84-32.94-16.59,16.87-16.59,16.87l-1.24,14.38A33.39,33.39,0,0,0,403.14,159.51Z"/><path class="cls-11" d="M400.15,129.91a39.2,39.2,0,0,0,1.13-6.3c.35-3.73,2-9.91,9.2-8.17,10.15,2.45,4.41,15.38,3.07,17.56s-6.65,11.89-6.93,12.44-8.09,12.1-10.72,14.76a.64.64,0,0,1-.88,0c-.91-.82-3-2.76-3.18-3.9-.27-1.47,1.53-6.6,1.53-6.6s4.89-13.14,5.27-13.75C398.93,135.49,399.28,133.24,400.15,129.91Z"/><path class="cls-12" d="M411.34,98.83a3.69,3.69,0,0,0-2.59-2.27c-1.92-.36-3-1-3.12-1.69a13.17,13.17,0,0,0-.46-2.64,19.06,19.06,0,0,1-.56-3.76c0-.06-1.44-.63-1.46-1.28s.94-2.88.87-3.07a5.81,5.81,0,0,1-.56-2.77,13.52,13.52,0,0,1,1.18-4c.71-1.32,5.66-9.39,16.31-4s1.26,13.7,1.74,19.59c0,0,.84,1.29-1.15,3.18S414.39,97.94,411.34,98.83Z"/><path class="cls-17" d="M421.53,96.05c2-1.89,1.15-3.18,1.15-3.18A7.82,7.82,0,0,1,423,90.3l-4.35.42s-5.8-6.05-5.62-3.06S411.6,91,411.6,91l1.14,1.71c.29.44.05.9-.26,1.33-2.06,2.82-6.31,1.55-6.32,1.55a6.35,6.35,0,0,0,2.58.94,3.69,3.69,0,0,1,2.59,2.27C414.39,97.94,419.55,97.94,421.53,96.05Z"/><path class="cls-15" d="M404.41,74.12s-.95,2.17.22,3.22,2.21,2,2.21,2l-.24,2.8a2.06,2.06,0,0,0,.24,1.16l1.35,2.48a2.8,2.8,0,0,1,.33,1.56l-.09,1.13a.65.65,0,0,0,.52.69l.4.08a.65.65,0,0,0,.77-.51l.31-1.55s.92-1.19,2.57.47l1.54.78a1.69,1.69,0,0,1,.87,1.07c.33,1.24,1.06,3.67,1.73,4.12.91.61,4.82-.93,5.4-1.71s2.44-6.25,3.52-8.87,1.35-9.38-6.7-11.84S405.74,71.76,404.41,74.12Z"/><path class="cls-19" d="M422.54,91.92c.58-.78,2.44-6.25,3.52-8.87a20.48,20.48,0,0,1-7.48,2c-4.13.25-11.8-5-11.8-5l-.18,2.05a2.06,2.06,0,0,0,.24,1.16l1.35,2.48a2.8,2.8,0,0,1,.33,1.56l-.09,1.13a.65.65,0,0,0,.52.69l.4.08a.65.65,0,0,0,.77-.51l.31-1.55s.92-1.19,2.57.47l2.22,1.13s1,4.23,1.91,4.84S422,92.71,422.54,91.92Z"/><path class="cls-14" d="M422.67,92.2s2.92,2.14,1.08,4.63-13.46,6.14-14.07,6.77c0,0-.09-3.91,1.51-5.1,0,0,8.74-.86,10.3-2.87S422.67,92.2,422.67,92.2Z"/><path class="cls-16" d="M422.67,92.2s.38,1.42-1.18,3.43c-1.18,1.52-6.47,2.38-9,2.71h0s.86.58,2.15,3.2c3.61-1.41,8-3.26,9.09-4.72C425.59,94.33,422.67,92.2,422.67,92.2Z"/><path class="cls-10" d="M423.87,100.77s-5.26,2.3-7.8,3.32-5.33,2.42-5.33,2.42l-.84-1-1.32,2.23a32.87,32.87,0,0,0-5.88,3.46,17.91,17.91,0,0,0-3.65,4.36s5.16-5.41,9-6.83l1-.39.73-1.79.83,1S422.18,102.26,423.87,100.77Z"/><path class="cls-13" d="M404.29,173.18h0a2,2,0,0,0-.53-.9L386.1,156.79c-.47-.42-1-.17-1.12.54l-3.16,15.87a2.37,2.37,0,0,0,.6,2L397,188l-.88,4.28,4.67-1.37h0a.89.89,0,0,0,.46-.7l3.16-15.87A2.45,2.45,0,0,0,404.29,173.18Z"/><path class="cls-13" d="M380.86,158l4.57-1.33.15,0a.68.68,0,0,1,.53.2l17.66,15.49a2,2,0,0,1,.53.9l-.69.22h0l-3.9,1.25L384.26,161h0Z"/><path class="cls-10" d="M377.81,176.6l17.66,15.49c.47.42,1,.17,1.12-.54l3.16-15.87a2.37,2.37,0,0,0-.6-2l-17.66-15.49c-.47-.42-1-.17-1.12.54l-3.16,15.87A2.37,2.37,0,0,0,377.81,176.6Z"/><path class="cls-9" d="M399,190.83,402.11,175a2.37,2.37,0,0,0-.6-2l-17.66-15.49a.74.74,0,0,0-.44-.2.64.64,0,0,1,.6.19l17.66,15.49a2.37,2.37,0,0,1,.6,2l-3.16,15.87c-.1.49-.35.78-.67.76C398.69,191.51,398.87,191.24,399,190.83Z"/><path class="cls-9" d="M394.16,166.36l1-.34a1,1,0,0,1,.62,0l.08,0c.1,0,.14.12.11.25l0,.15-2.84,1,0-.15a.7.7,0,0,1,.24-.37l.1-.08A2.21,2.21,0,0,1,394.16,166.36Z"/><polygon class="cls-9" points="394.35 168.46 393.11 167.37 395.95 166.06 397.18 167.13 394.35 168.46"/><path class="cls-13" d="M395.41,167.45l1-.34a1,1,0,0,1,.62,0l.08,0c.1,0,.14.12.11.25l0,.15-2.84,1,0-.15a.7.7,0,0,1,.24-.37l.1-.08A2.21,2.21,0,0,1,395.41,167.45Z"/><polygon class="cls-9" points="395.96 167.92 396.1 167.22 396.01 167.25 395.87 167.95 395.96 167.92"/><polygon class="cls-9" points="396.1 167.22 394.82 166.14 394.74 166.17 396.01 167.25 396.1 167.22"/><path class="cls-9" d="M388.53,161.43l1-.34a1,1,0,0,1,.62,0l.08,0c.1,0,.14.12.11.25l0,.15-2.84,1,0-.15a.7.7,0,0,1,.24-.37l.1-.08A2.22,2.22,0,0,1,388.53,161.43Z"/><polygon class="cls-9" points="388.72 163.53 387.47 162.44 390.32 161.13 391.54 162.2 388.72 163.53"/><path class="cls-13" d="M389.77,162.52l1-.34a1,1,0,0,1,.62,0l.08,0c.1,0,.14.12.11.25l0,.15-2.84,1,0-.15A.7.7,0,0,1,389,163l.1-.08A2.21,2.21,0,0,1,389.77,162.52Z"/><polygon class="cls-9" points="390.32 162.98 390.46 162.28 390.38 162.31 390.24 163.01 390.32 162.98"/><polygon class="cls-9" points="390.46 162.28 389.18 161.21 389.11 161.23 390.38 162.31 390.46 162.28"/><path class="cls-13" d="M396.89,163.9l-.59,3-.83-.73.57-2.89a1.5,1.5,0,0,0-.44-1.28L392,158.79c-.32-.28-.66-.17-.74.25l-.57,2.89-.83-.73.59-3a.91.91,0,0,1,1.63-.55l3.87,3.39A3.3,3.3,0,0,1,396.89,163.9Z"/><path class="cls-13" d="M390.65,158.47h1.59l4.28,4.17V165l-.24,1.91-1,.36.15-2.39.07-1.65-.85-1.28S393,160.54,393,160.5,390.65,158.47,390.65,158.47Z"/><polygon class="cls-13" points="389.62 162.29 390.67 161.93 391.09 159.8 390.12 159.79 389.82 159.81 389.62 162.29"/><path class="cls-13" d="M390,157.73l1.13-.38s-.33.51-.33.5l-.38.08Z"/><path class="cls-9" d="M395.84,164.25l-.59,3-.83-.73.57-2.89a1.5,1.5,0,0,0-.44-1.28l-3.62-3.18a.41.41,0,0,0-.74.25l-.57,2.89-.83-.73.59-3A.91.91,0,0,1,391,158l3.87,3.39A3.3,3.3,0,0,1,395.84,164.25Z"/><path class="cls-12" d="M392.13,156.21a16.86,16.86,0,0,0-.74,3.7A5.41,5.41,0,0,0,394,162.6c.95.35.63-.7.9-1.33a8.24,8.24,0,0,0,.34-2Z"/><path class="cls-17" d="M395.2,159.25l-3.07-3s-.18.6-.36,1.34a7.79,7.79,0,0,0,3.2,3.4A10.44,10.44,0,0,0,395.2,159.25Z"/><path class="cls-11" d="M391.87,156.41s.93,3.33,3.8,3.88l-.72-3.61s-2.42-.84-2.49-.85S391.87,156.41,391.87,156.41Z"/><g class="cls-1"><polygon class="cls-21" points="270.34 63.81 281.48 48.76 272.39 210.28 238.48 215.53 213.65 59.25 270.34 63.81"/><polygon class="cls-22" points="281.48 48.76 256.65 34.42 222.74 39.67 213.65 59.25 238.48 73.59 272.39 68.34 281.48 48.76"/><polygon class="cls-23" points="280.81 48.38 272.07 67.21 238.16 72.46 213.99 58.51 213.65 59.25 238.48 73.59 272.39 68.34 281.48 48.76 280.81 48.38"/><polygon class="cls-24" points="272.39 68.34 272.39 210.28 238.48 215.53 238.48 73.59 272.39 68.34"/><polygon class="cls-25" points="281.48 48.76 281.48 190.7 272.39 210.28 272.39 68.34 281.48 48.76"/><polygon class="cls-26" points="213.65 59.25 213.65 201.19 238.48 215.53 238.48 73.59 213.65 59.25"/><polygon class="cls-27" points="216.93 118.58 228.07 103.53 218.98 239.42 185.06 244.66 160.24 114.02 216.93 118.58"/><polygon class="cls-28" points="228.07 103.53 203.24 89.19 169.32 94.44 160.24 114.02 185.06 128.36 218.98 123.11 228.07 103.53"/><polygon class="cls-23" points="227.4 103.14 218.66 121.98 184.74 127.23 160.58 113.28 160.24 114.02 185.06 128.36 218.98 123.11 228.07 103.53 227.4 103.14"/><polygon class="cls-29" points="218.98 123.11 218.98 239.42 185.06 244.66 185.06 128.36 218.98 123.11"/><polygon class="cls-30" points="228.07 103.53 228.07 219.84 218.98 239.42 218.98 123.11 228.07 103.53"/><polygon class="cls-31" points="160.24 114.02 160.24 230.33 185.06 244.66 185.06 128.36 160.24 114.02"/><polygon class="cls-32" points="163.51 176.73 174.66 161.68 165.57 270.88 131.65 276.13 106.82 172.18 163.51 176.73"/><polygon class="cls-33" points="174.66 161.68 149.83 147.35 115.91 152.59 106.82 172.18 131.65 186.51 165.57 181.26 174.66 161.68"/><polygon class="cls-23" points="173.99 161.3 165.25 180.14 131.33 185.38 107.17 171.43 106.82 172.18 131.65 186.51 165.57 181.26 174.66 161.68 173.99 161.3"/><polygon class="cls-34" points="165.57 181.26 165.57 270.88 131.65 276.13 131.65 186.51 165.57 181.26"/><polygon class="cls-35" points="174.66 161.68 174.66 251.3 165.57 270.88 165.57 181.26 174.66 161.68"/><polygon class="cls-36" points="106.82 172.18 106.82 261.79 131.65 276.13 131.65 186.51 106.82 172.18"/><polygon class="cls-37" points="110.1 218.55 121.25 203.5 112.16 302.34 78.24 307.59 53.41 213.99 110.1 218.55"/><polygon class="cls-38" points="121.25 203.5 96.42 189.16 62.5 194.41 53.41 213.99 78.24 228.33 112.16 223.08 121.25 203.5"/><polygon class="cls-23" points="120.58 203.12 111.84 221.95 77.92 227.2 53.76 213.25 53.41 213.99 78.24 228.33 112.16 223.08 121.25 203.5 120.58 203.12"/><polygon class="cls-39" points="112.16 223.08 112.16 302.34 78.24 307.59 78.24 228.33 112.16 223.08"/><polygon class="cls-40" points="121.25 203.5 121.25 282.76 112.16 302.34 112.16 223.08 121.25 203.5"/><polygon class="cls-41" points="53.41 213.99 53.41 293.25 78.24 307.59 78.24 228.33 53.41 213.99"/><polygon class="cls-42" points="56.69 269.59 67.83 254.54 58.74 333.8 24.83 339.05 0 265.04 56.69 269.59"/><polygon class="cls-43" points="67.83 254.54 43 240.21 9.09 245.46 0 265.04 24.83 279.37 58.74 274.13 67.83 254.54"/><polygon class="cls-23" points="67.17 254.16 58.42 273 24.51 278.24 0.34 264.29 0 265.04 24.83 279.37 58.74 274.13 67.83 254.54 67.17 254.16"/><polygon class="cls-44" points="58.74 274.13 58.74 333.8 24.83 339.05 24.83 279.37 58.74 274.13"/><polygon class="cls-45" points="67.83 254.54 67.83 314.22 58.74 333.8 58.74 274.13 67.83 254.54"/><polygon class="cls-46" points="0 265.04 0 324.71 24.83 339.05 24.83 279.37 0 265.04"/></g><polygon class="cls-47" points="270.34 29.39 281.48 14.34 272.39 148.71 238.48 153.95 213.65 24.83 270.34 29.39"/><polygon class="cls-48" points="281.48 14.34 256.65 0 222.74 5.25 213.65 24.83 238.48 39.16 272.39 33.92 281.48 14.34"/><polygon class="cls-23" points="280.81 13.95 272.07 32.79 238.16 38.03 213.99 24.08 213.65 24.83 238.48 39.16 272.39 33.92 281.48 14.34 280.81 13.95"/><polygon class="cls-49" points="272.39 33.92 272.39 148.71 238.48 153.95 238.48 39.16 272.39 33.92"/><polygon class="cls-50" points="281.48 14.34 281.48 129.12 272.39 148.71 272.39 33.92 281.48 14.34"/><polygon class="cls-51" points="213.65 24.83 213.65 139.62 238.48 153.95 238.48 39.16 213.65 24.83"/><polygon class="cls-52" points="216.93 84.16 228.07 69.11 218.98 180.17 185.06 185.41 160.24 79.6 216.93 84.16"/><polygon class="cls-53" points="228.07 69.11 203.24 54.77 169.32 60.02 160.24 79.6 185.06 93.93 218.98 88.69 228.07 69.11"/><polygon class="cls-23" points="227.4 68.72 218.66 87.56 184.74 92.81 160.58 78.86 160.24 79.6 185.06 93.93 218.98 88.69 228.07 69.11 227.4 68.72"/><polygon class="cls-54" points="218.98 88.69 218.98 180.17 185.06 185.41 185.06 93.93 218.98 88.69"/><polygon class="cls-55" points="228.07 69.11 228.07 160.59 218.98 180.17 218.98 88.69 228.07 69.11"/><polygon class="cls-56" points="160.24 79.6 160.24 171.08 185.06 185.41 185.06 93.93 160.24 79.6"/><polygon class="cls-57" points="163.51 142.31 174.66 127.26 165.57 211.63 131.65 216.88 106.82 137.75 163.51 142.31"/><polygon class="cls-58" points="174.66 127.26 149.83 112.92 115.91 118.17 106.82 137.75 131.65 152.09 165.57 146.84 174.66 127.26"/><polygon class="cls-23" points="173.99 126.88 165.25 145.71 131.33 150.96 107.17 137.01 106.82 137.75 131.65 152.09 165.57 146.84 174.66 127.26 173.99 126.88"/><polygon class="cls-59" points="165.57 146.84 165.57 211.63 131.65 216.88 131.65 152.09 165.57 146.84"/><polygon class="cls-60" points="174.66 127.26 174.66 192.05 165.57 211.63 165.57 146.84 174.66 127.26"/><polygon class="cls-61" points="106.82 137.75 106.82 202.54 131.65 216.88 131.65 152.09 106.82 137.75"/><polygon class="cls-62" points="110.1 184.13 121.25 169.08 112.16 243.09 78.24 248.34 53.41 179.57 110.1 184.13"/><polygon class="cls-63" points="121.25 169.08 96.42 154.74 62.5 159.99 53.41 179.57 78.24 193.91 112.16 188.66 121.25 169.08"/><polygon class="cls-64" points="110.09 170.8 93.43 161.18 70.66 164.7 64.56 177.84 81.23 187.47 103.99 183.94 110.09 170.8"/><polygon class="cls-23" points="120.58 168.69 111.84 187.53 77.92 192.78 53.76 178.83 53.41 179.57 78.24 193.91 112.16 188.66 121.25 169.08 120.58 168.69"/><polygon class="cls-65" points="112.16 188.66 112.16 243.09 78.24 248.34 78.24 193.91 112.16 188.66"/><polygon class="cls-66" points="121.25 169.08 121.25 223.51 112.16 243.09 112.16 188.66 121.25 169.08"/><polygon class="cls-67" points="53.41 179.57 53.41 234 78.24 248.34 78.24 193.91 53.41 179.57"/><polygon class="cls-68" points="110.1 152.5 121.25 137.45 112.16 171.07 78.24 176.32 53.41 147.94 110.1 152.5"/><polygon class="cls-69" points="121.25 137.45 96.42 123.11 62.5 128.36 53.41 147.94 78.24 162.27 112.16 157.03 121.25 137.45"/><polygon class="cls-23" points="120.58 137.06 111.84 155.9 77.92 161.15 53.76 147.19 53.41 147.94 78.24 162.27 112.16 157.03 121.25 137.45 120.58 137.06"/><polygon class="cls-70" points="112.16 157.03 112.16 171.07 78.24 176.32 78.24 162.27 112.16 157.03"/><polygon class="cls-71" points="121.25 137.45 121.25 151.49 112.16 171.07 112.16 157.03 121.25 137.45"/><polygon class="cls-72" points="53.41 147.94 53.41 161.98 78.24 176.32 78.24 162.27 53.41 147.94"/><polygon class="cls-73" points="56.69 235.17 67.83 220.12 58.74 274.55 24.83 279.8 0 230.61 56.69 235.17"/><polygon class="cls-74" points="67.83 220.12 43 205.78 9.09 211.03 0 230.61 24.83 244.95 58.74 239.7 67.83 220.12"/><polygon class="cls-23" points="67.17 219.74 58.42 238.57 24.51 243.82 0.34 229.87 0 230.61 24.83 244.95 58.74 239.7 67.83 220.12 67.17 219.74"/><polygon class="cls-75" points="58.74 239.7 58.74 274.55 24.83 279.8 24.83 244.95 58.74 239.7"/><polygon class="cls-76" points="67.83 220.12 67.83 254.97 58.74 274.55 58.74 239.7 67.83 220.12"/><polygon class="cls-77" points="0 230.61 0 265.46 24.83 279.8 24.83 244.95 0 230.61"/><g class="cls-1"><polygon class="cls-78" points="224.8 290.72 235.94 275.67 226.85 309.3 192.94 314.55 168.11 286.17 224.8 290.72"/><polygon class="cls-79" points="235.94 275.67 211.11 261.34 177.19 266.58 168.11 286.17 192.94 300.5 226.85 295.25 235.94 275.67"/><polygon class="cls-23" points="235.27 275.29 226.53 294.13 192.62 299.37 168.45 285.42 168.11 286.17 192.94 300.5 226.85 295.25 235.94 275.67 235.27 275.29"/><polygon class="cls-80" points="226.85 295.25 226.85 309.3 192.94 314.55 192.94 300.5 226.85 295.25"/><polygon class="cls-81" points="235.94 275.67 235.94 289.72 226.85 309.3 226.85 295.25 235.94 275.67"/><polygon class="cls-82" points="168.11 286.17 168.11 300.21 192.94 314.55 192.94 300.5 168.11 286.17"/></g><polygon class="cls-83" points="224.8 262.21 235.94 247.16 226.85 280.79 192.94 286.04 168.11 257.66 224.8 262.21"/><polygon class="cls-84" points="235.94 247.16 211.11 232.83 177.19 238.08 168.11 257.66 192.94 271.99 226.85 266.75 235.94 247.16"/><polygon class="cls-23" points="235.27 246.78 226.53 265.62 192.62 270.87 168.45 256.91 168.11 257.66 192.94 271.99 226.85 266.75 235.94 247.16 235.27 246.78"/><polygon class="cls-85" points="226.85 266.75 226.85 280.79 192.94 286.04 192.94 271.99 226.85 266.75"/><polygon class="cls-86" points="235.94 247.16 235.94 261.21 226.85 280.79 226.85 266.75 235.94 247.16"/><polygon class="cls-87" points="168.11 257.66 168.11 271.7 192.94 286.04 192.94 271.99 168.11 257.66"/><g class="cls-1"><polygon class="cls-88" points="407.81 313.51 418.96 298.46 409.87 332.09 375.95 337.33 351.12 308.95 407.81 313.51"/><polygon class="cls-89" points="418.96 298.46 394.13 284.13 360.21 289.37 351.12 308.95 375.95 323.29 409.87 318.04 418.96 298.46"/><polygon class="cls-23" points="418.29 298.08 409.55 316.92 375.63 322.16 351.47 308.21 351.12 308.95 375.95 323.29 409.87 318.04 418.96 298.46 418.29 298.08"/><polygon class="cls-90" points="409.87 318.04 409.87 332.09 375.95 337.33 375.95 323.29 409.87 318.04"/><polygon class="cls-91" points="418.96 298.46 418.96 312.51 409.87 332.09 409.87 318.04 418.96 298.46"/><polygon class="cls-92" points="351.12 308.95 351.12 323 375.95 337.33 375.95 323.29 351.12 308.95"/></g><polygon class="cls-93" points="407.81 285 418.96 269.95 409.87 303.58 375.95 308.83 351.12 280.45 407.81 285"/><polygon class="cls-94" points="418.96 269.95 394.13 255.62 360.21 260.87 351.12 280.45 375.95 294.78 409.87 289.54 418.96 269.95"/><polygon class="cls-23" points="418.29 269.57 409.55 288.41 375.63 293.65 351.47 279.7 351.12 280.45 375.95 294.78 409.87 289.54 418.96 269.95 418.29 269.57"/><polygon class="cls-95" points="409.87 289.54 409.87 303.58 375.95 308.83 375.95 294.78 409.87 289.54"/><polygon class="cls-96" points="418.96 269.95 418.96 284 409.87 303.58 409.87 289.54 418.96 269.95"/><polygon class="cls-97" points="351.12 280.45 351.12 294.49 375.95 308.83 375.95 294.78 351.12 280.45"/><path class="cls-98" d="M212.58,257.76c-5.83,3.37-15.28,3.37-21.11,0s-5.83-8.82,0-12.19,15.28-3.37,21.11,0S218.41,254.4,212.58,257.76Z"/><polygon class="cls-99" points="192.15 246.7 186.19 242.89 187 242.14 189.12 242.64 192.15 246.7"/><path class="cls-100" d="M217.64,206.29l-5.9-3.77s3.47,6.5,3.54,6.55S217.64,206.29,217.64,206.29Z"/><ellipse class="cls-100" cx="199.04" cy="222.76" rx="23.89" ry="19.79" transform="translate(-95.82 270.65) rotate(-57.44)"/><ellipse class="cls-100" cx="205" cy="226.56" rx="23.89" ry="19.79" transform="translate(-96.28 277.43) rotate(-57.44)"/><path class="cls-99" d="M184.15,233.45a18.17,18.17,0,0,0,8,13.25c9.21,5.88,22.43,1.63,29.53-9.48A26.53,26.53,0,0,0,225.9,220Z"/><ellipse class="cls-101" cx="205" cy="226.56" rx="22.82" ry="18.9" transform="translate(-96.28 277.43) rotate(-57.44)"/><ellipse class="cls-102" cx="205" cy="226.56" rx="18.32" ry="15.18" transform="translate(-96.28 277.43) rotate(-57.44)"/><path class="cls-100" d="M214.86,211.12c-.29-.19-.59-.36-.9-.52,6.31,4.79,7.31,14.84,2.09,23s-14.75,11.5-21.75,7.79c.27.21.55.41.84.6,7.06,4.51,17.2,1.25,22.65-7.27S221.93,215.63,214.86,211.12Z"/><path class="cls-100" d="M207.92,224.22l-4.75,1.52c-1.22,3.49-3.48,10-5.26,15.21a14.93,14.93,0,0,0,11.93-3.16Z"/><path class="cls-100" d="M213.29,234.36c.37-.48.72-1,1.05-1.49a18.28,18.28,0,0,0,2.92-11.65l-7.75,2.49Z"/><path class="cls-100" d="M198.09,227.38l-8.94,2.87c.44,3,1.17,6,3.34,7.95Z"/><path class="cls-99" d="M193.27,220.15c5.44-8.53,15.58-11.78,22.65-7.27a12.81,12.81,0,0,1,3.57,3.42,13,13,0,0,0-4.63-5.18c-7.06-4.51-17.2-1.25-22.65,7.27-4.34,6.8-4.38,14.89-.64,20.18C188.94,233.36,189.39,226.24,193.27,220.15Z"/><path class="cls-99" d="M186.19,242.89a16.61,16.61,0,0,0,4.35,2l-2.75-3.18-2.32-3.52-.22-1.9-.17-3.1-7-4.47C178.61,234.57,181.37,239.81,186.19,242.89Z"/><rect class="cls-99" x="210.28" y="200.95" width="0.67" height="4.52" rx="0.29" ry="0.29" transform="translate(-73.99 271.38) rotate(-57.44)"/><rect class="cls-99" x="205.08" y="199.7" width="0.88" height="5.5" rx="0.33" ry="0.33" transform="translate(-75.71 266.72) rotate(-57.44)"/><rect class="cls-99" x="200.31" y="200.14" width="1.12" height="5.52" rx="0.38" ry="0.38" transform="translate(-78.24 263.02) rotate(-57.44)"/><rect class="cls-99" x="195.28" y="201.97" width="1.12" height="5.94" rx="0.38" ry="0.38" transform="translate(-82.29 259.72) rotate(-57.44)"/><rect class="cls-99" x="191.14" y="204.41" width="1.12" height="6.3" rx="0.38" ry="0.38" transform="translate(-86.4 257.44) rotate(-57.44)"/><rect class="cls-99" x="187.86" y="207.62" width="1.12" height="6.19" rx="0.38" ry="0.38" transform="translate(-90.58 256.14) rotate(-57.44)"/><rect class="cls-99" x="185.19" y="211.16" width="1.12" height="6.23" rx="0.38" ry="0.38" transform="matrix(0.54, -0.84, 0.84, 0.54, -94.81, 255.53)"/><rect class="cls-99" x="183.04" y="215.12" width="1.12" height="6.06" rx="0.38" ry="0.38" transform="translate(-99.08 255.5) rotate(-57.44)"/><rect class="cls-99" x="181.54" y="219.46" width="1.12" height="5.98" rx="0.38" ry="0.38" transform="translate(-103.39 256.23) rotate(-57.44)"/><rect class="cls-99" x="180.88" y="224.19" width="1.12" height="6.18" rx="0.38" ry="0.38" transform="matrix(0.54, -0.84, 0.84, 0.54, -107.77, 257.9)"/><path class="cls-98" d="M395.6,280.55c-5.83,3.37-15.28,3.37-21.11,0s-5.83-8.82,0-12.19,15.28-3.37,21.11,0S401.43,277.19,395.6,280.55Z"/><polygon class="cls-99" points="362.31 255.59 360.92 248.65 362.02 248.72 363.14 250.59 362.31 255.59"/><path class="cls-100" d="M409.11,246l-1.37-6.86s-2.29,7-2.27,7.09S409.11,246,409.11,246Z"/><ellipse class="cls-100" cx="384.35" cy="243.98" rx="23.89" ry="19.79" transform="translate(-40.32 79.94) rotate(-11.29)"/><ellipse class="cls-100" cx="385.73" cy="250.92" rx="23.89" ry="19.79" transform="translate(-41.65 80.35) rotate(-11.29)"/><path class="cls-99" d="M366.32,240.64a18.17,18.17,0,0,0-4,14.95c2.14,10.72,14.36,17.31,27.3,14.73a26.53,26.53,0,0,0,15.31-8.85Z"/><ellipse class="cls-101" cx="385.73" cy="250.92" rx="22.82" ry="18.9" transform="translate(-41.65 80.35) rotate(-11.29)"/><ellipse class="cls-102" cx="385.73" cy="250.92" rx="18.32" ry="15.18" transform="translate(-41.65 80.35) rotate(-11.29)"/><path class="cls-100" d="M403.7,247.33c-.07-.34-.15-.67-.25-1,.92,7.87-5.64,15.55-15.15,17.45s-18.51-2.67-20.69-10.29c0,.34.09.68.16,1,1.64,8.22,11,13.28,20.94,11.3S405.34,255.55,403.7,247.33Z"/><path class="cls-100" d="M389.44,251.4,385.06,249c-3.36,1.54-9.62,4.41-14.62,6.74A14.93,14.93,0,0,0,381,262.19Z"/><path class="cls-100" d="M385.85,262.29c.6-.06,1.2-.15,1.8-.27a18.28,18.28,0,0,0,10.42-6l-7.16-3.86Z"/><path class="cls-100" d="M380.35,246.49,372.09,242c-1.89,2.42-3.49,5-3.42,7.91Z"/><path class="cls-99" d="M382.23,238c9.92-2,19.29,3.08,20.94,11.3a12.81,12.81,0,0,1,0,4.95,13,13,0,0,0,.53-6.93c-1.64-8.22-11-13.28-20.94-11.3-7.91,1.58-13.78,7.16-15,13.52C369.71,244,375.15,239.43,382.23,238Z"/><path class="cls-99" d="M360.92,248.65a16.61,16.61,0,0,0,1.6,4.49c.16-1.68.39-4.18.39-4.18l.93-4.11,1.22-1.47,2.11-2.27L365.56,233C361.67,237.42,359.81,243,360.92,248.65Z"/><rect class="cls-99" x="406.13" y="236.53" width="0.67" height="4.52" rx="0.29" ry="0.29" transform="translate(-38.87 84.17) rotate(-11.29)"/><rect class="cls-99" x="403.04" y="231.83" width="0.88" height="5.5" rx="0.33" ry="0.33" transform="translate(-38.11 83.5) rotate(-11.29)"/><rect class="cls-99" x="399.38" y="228.79" width="1.12" height="5.52" rx="0.38" ry="0.38" transform="translate(-37.58 82.75) rotate(-11.29)"/><rect class="cls-99" x="394.42" y="226.36" width="1.12" height="5.94" rx="0.38" ry="0.38" transform="translate(-37.24 81.74) rotate(-11.29)"/><rect class="cls-99" x="389.67" y="225.01" width="1.12" height="6.3" rx="0.38" ry="0.38" transform="translate(-37.11 80.78) rotate(-11.29)"/><rect class="cls-99" x="385.11" y="224.88" width="1.12" height="6.19" rx="0.38" ry="0.38" transform="matrix(0.98, -0.2, 0.2, 0.98, -37.16, 79.89)"/><rect class="cls-99" x="380.7" y="225.4" width="1.12" height="6.23" rx="0.38" ry="0.38" transform="translate(-37.35 79.04) rotate(-11.29)"/><rect class="cls-99" x="376.41" y="226.62" width="1.12" height="6.06" rx="0.38" ry="0.38" transform="translate(-37.66 78.22) rotate(-11.29)"/><rect class="cls-99" x="372.27" y="228.56" width="1.12" height="5.98" rx="0.38" ry="0.38" transform="translate(-38.11 77.45) rotate(-11.29)"/><rect class="cls-99" x="368.33" y="231.33" width="1.12" height="6.18" rx="0.38" ry="0.38" transform="translate(-38.75 76.73) rotate(-11.29)"/></g></g></svg>