<svg xmlns="http://www.w3.org/2000/svg" xmlns:xlink="http://www.w3.org/1999/xlink" viewBox="0 0 67.83 114.57"><defs><style>.cls-1{opacity:0.3;}.cls-2{fill:url(#Ѕезым_нный_градиент_28);}.cls-3{fill:url(#Ѕезым_нный_градиент_28-2);}.cls-4{fill:#fff;}.cls-5{fill:url(#Ѕезым_нный_градиент_28-3);}.cls-6{fill:url(#Ѕезым_нный_градиент_23);}.cls-7{fill:url(#Ѕезым_нный_градиент_29);}.cls-8{fill:url(#Ѕезым_нный_градиент_28-4);}.cls-9{fill:url(#Ѕезым_нный_градиент_28-5);}.cls-10{fill:url(#Ѕезым_нный_градиент_28-6);}.cls-11{fill:url(#Ѕезым_нный_градиент_23-2);}.cls-12{fill:url(#Ѕезым_нный_градиент_29-2);}.cls-13{fill:#242993;opacity:0.2;}.cls-14{fill:#dd821f;}.cls-15{fill:#ffd85a;}.cls-16{fill:#f9bf30;}.cls-17{fill:#f2b42a;}</style><linearGradient id="Ѕезым_нный_градиент_28" x1="-886.45" y1="95.13" x2="-818.61" y2="95.13" gradientTransform="translate(886.45)" gradientUnits="userSpaceOnUse"><stop offset="0" stop-color="#c0d6ff"/><stop offset="0.3" stop-color="#c5dbff"/><stop offset="0.65" stop-color="#d3e9ff"/><stop offset="1" stop-color="#e9ffff"/></linearGradient><linearGradient id="Ѕезым_нный_градиент_28-2" x1="42.52" y1="1091.1" x2="99.86" y2="1091.1" gradientTransform="matrix(0.87, 0.5, -0.87, 0.5, 917.16, -500.21)" xlink:href="#Ѕезым_нный_градиент_28"/><linearGradient id="Ѕезым_нный_градиент_28-3" x1="-861.62" y1="104.92" x2="-827.7" y2="104.92" xlink:href="#Ѕезым_нный_градиент_28"/><linearGradient id="Ѕезым_нный_градиент_23" x1="-827.7" y1="92.51" x2="-818.61" y2="92.51" gradientTransform="translate(886.45)" gradientUnits="userSpaceOnUse"><stop offset="0" stop-color="#e9ffff"/><stop offset="0.35" stop-color="#d3e9ff"/><stop offset="0.7" stop-color="#c5dbff"/><stop offset="1" stop-color="#c0d6ff"/></linearGradient><linearGradient id="Ѕезым_нный_градиент_29" x1="-886.45" y1="100.38" x2="-861.62" y2="100.38" gradientTransform="translate(886.45)" gradientUnits="userSpaceOnUse"><stop offset="0" stop-color="#5778ff"/><stop offset="0.18" stop-color="#5c7dff"/><stop offset="0.39" stop-color="#6a8aff"/><stop offset="0.61" stop-color="#82a0ff"/><stop offset="0.85" stop-color="#a3beff"/><stop offset="1" stop-color="#bcd5ff"/></linearGradient><linearGradient id="Ѕезым_нный_градиент_28-4" x1="-886.45" y1="66.62" x2="-818.61" y2="66.62" xlink:href="#Ѕезым_нный_градиент_28"/><linearGradient id="Ѕезым_нный_градиент_28-5" x1="14.01" y1="1062.59" x2="71.35" y2="1062.59" gradientTransform="matrix(0.87, 0.5, -0.87, 0.5, 917.16, -500.21)" xlink:href="#Ѕезым_нный_градиент_28"/><linearGradient id="Ѕезым_нный_градиент_28-6" x1="-861.62" y1="76.41" x2="-827.7" y2="76.41" xlink:href="#Ѕезым_нный_градиент_28"/><linearGradient id="Ѕезым_нный_градиент_23-2" x1="-827.7" y1="64" x2="-818.61" y2="64" xlink:href="#Ѕезым_нный_градиент_23"/><linearGradient id="Ѕезым_нный_градиент_29-2" x1="-886.45" y1="71.87" x2="-861.62" y2="71.87" xlink:href="#Ѕезым_нный_градиент_29"/></defs><title>coin</title><g id="Шар_2" data-name="Шар 2"><g id="_лой_1" data-name="—лой_1"><g class="cls-1"><polygon class="cls-2" points="56.69 90.74 67.83 75.69 58.74 109.32 24.83 114.57 0 86.19 56.69 90.74"/><polygon class="cls-3" points="67.83 75.69 43 61.36 9.09 66.61 0 86.19 24.83 100.52 58.74 95.28 67.83 75.69"/><polygon class="cls-4" points="67.17 75.31 58.42 94.15 24.51 99.39 0.34 85.44 0 86.19 24.83 100.52 58.74 95.28 67.83 75.69 67.17 75.31"/><polygon class="cls-5" points="58.74 95.28 58.74 109.32 24.83 114.57 24.83 100.52 58.74 95.28"/><polygon class="cls-6" points="67.83 75.69 67.83 89.74 58.74 109.32 58.74 95.28 67.83 75.69"/><polygon class="cls-7" points="0 86.19 0 100.23 24.83 114.57 24.83 100.52 0 86.19"/></g><polygon class="cls-8" points="56.69 62.24 67.83 47.19 58.74 80.81 24.83 86.06 0 57.68 56.69 62.24"/><polygon class="cls-9" points="67.83 47.19 43 32.85 9.09 38.1 0 57.68 24.83 72.02 58.74 66.77 67.83 47.19"/><polygon class="cls-4" points="67.17 46.8 58.42 65.64 24.51 70.89 0.34 56.94 0 57.68 24.83 72.02 58.74 66.77 67.83 47.19 67.17 46.8"/><polygon class="cls-10" points="58.74 66.77 58.74 80.81 24.83 86.06 24.83 72.02 58.74 66.77"/><polygon class="cls-11" points="67.83 47.19 67.83 61.23 58.74 80.81 58.74 66.77 67.83 47.19"/><polygon class="cls-12" points="0 57.68 0 71.72 24.83 86.06 24.83 72.02 0 57.68"/><path class="cls-13" d="M44.47,57.79c-5.83,3.37-15.28,3.37-21.11,0s-5.83-8.82,0-12.19,15.28-3.37,21.11,0S50.3,54.42,44.47,57.79Z"/><polygon class="cls-14" points="24.05 46.72 18.08 42.91 18.89 42.16 21.01 42.66 24.05 46.72"/><path class="cls-15" d="M49.53,6.32l-5.9-3.77s3.47,6.5,3.54,6.55S49.53,6.32,49.53,6.32Z"/><ellipse class="cls-15" cx="30.93" cy="22.78" rx="23.89" ry="19.79" transform="translate(-4.91 36.59) rotate(-57.44)"/><ellipse class="cls-15" cx="36.9" cy="26.59" rx="23.89" ry="19.79" transform="translate(-5.37 43.38) rotate(-57.44)"/><path class="cls-14" d="M16,33.47a18.17,18.17,0,0,0,8,13.25c9.21,5.88,22.43,1.63,29.53-9.48A26.53,26.53,0,0,0,57.8,20.06Z"/><ellipse class="cls-16" cx="36.9" cy="26.59" rx="22.82" ry="18.9" transform="translate(-5.37 43.38) rotate(-57.44)"/><ellipse class="cls-17" cx="36.9" cy="26.59" rx="18.32" ry="15.18" transform="translate(-5.37 43.38) rotate(-57.44)"/><path class="cls-15" d="M46.76,11.15c-.29-.19-.59-.36-.9-.52,6.31,4.79,7.31,14.84,2.09,23S33.2,45.14,26.2,41.43c.27.21.55.41.84.6,7.06,4.51,17.2,1.25,22.65-7.27S53.82,15.66,46.76,11.15Z"/><path class="cls-15" d="M39.82,24.24l-4.75,1.52c-1.22,3.49-3.48,10-5.26,15.21a14.93,14.93,0,0,0,11.93-3.16Z"/><path class="cls-15" d="M45.18,34.38c.37-.48.72-1,1.05-1.49a18.28,18.28,0,0,0,2.92-11.65l-7.75,2.49Z"/><path class="cls-15" d="M30,27.4,21,30.28c.44,3,1.17,6,3.34,7.95Z"/><path class="cls-14" d="M25.16,20.18c5.44-8.53,15.58-11.78,22.65-7.27a12.81,12.81,0,0,1,3.57,3.42,13,13,0,0,0-4.63-5.18c-7.06-4.51-17.2-1.25-22.65,7.27-4.34,6.8-4.38,14.89-.64,20.18C20.84,33.38,21.28,26.26,25.16,20.18Z"/><path class="cls-14" d="M18.08,42.91a16.61,16.61,0,0,0,4.35,2l-2.75-3.18-2.32-3.52-.22-1.9L17,33.17,10,28.7C10.5,34.59,13.26,39.83,18.08,42.91Z"/><rect class="cls-14" x="42.18" y="0.97" width="0.67" height="4.52" rx="0.29" ry="0.29" transform="translate(16.92 37.32) rotate(-57.44)"/><rect class="cls-14" x="36.97" y="-0.28" width="0.88" height="5.5" rx="0.33" ry="0.33" transform="translate(15.2 32.67) rotate(-57.44)"/><rect class="cls-14" x="32.21" y="0.16" width="1.12" height="5.52" rx="0.38" ry="0.38" transform="translate(12.67 28.97) rotate(-57.44)"/><rect class="cls-14" x="27.17" y="2" width="1.12" height="5.94" rx="0.38" ry="0.38" transform="translate(8.62 25.67) rotate(-57.44)"/><rect class="cls-14" x="23.04" y="4.43" width="1.12" height="6.3" rx="0.38" ry="0.38" transform="translate(4.51 23.39) rotate(-57.44)"/><rect class="cls-14" x="19.75" y="7.65" width="1.12" height="6.19" rx="0.38" ry="0.38" transform="translate(0.33 22.08) rotate(-57.44)"/><rect class="cls-14" x="17.09" y="11.18" width="1.12" height="6.23" rx="0.38" ry="0.38" transform="matrix(0.54, -0.84, 0.84, 0.54, -3.9, 21.48)"/><rect class="cls-14" x="14.93" y="15.14" width="1.12" height="6.06" rx="0.38" ry="0.38" transform="translate(-8.16 21.45) rotate(-57.44)"/><rect class="cls-14" x="13.43" y="19.48" width="1.12" height="5.98" rx="0.38" ry="0.38" transform="translate(-12.48 22.17) rotate(-57.44)"/><rect class="cls-14" x="12.77" y="24.22" width="1.12" height="6.18" rx="0.38" ry="0.38" transform="matrix(0.54, -0.84, 0.84, 0.54, -16.86, 23.85)"/></g></g></svg>