<svg xmlns="http://www.w3.org/2000/svg" xmlns:xlink="http://www.w3.org/1999/xlink" viewBox="0 0 67.83 93.6"><defs><style>.cls-1{fill:url(#Ѕезым_нный_градиент_28);}.cls-2{fill:url(#Ѕезым_нный_градиент_28-2);}.cls-3{fill:#fff;}.cls-4{fill:url(#Ѕезым_нный_градиент_28-3);}.cls-5{fill:url(#Ѕезым_нный_градиент_23);}.cls-6{fill:url(#Ѕезым_нный_градиент_29);}</style><linearGradient id="Ѕезым_нный_градиент_28" x1="-886.45" y1="53.97" x2="-818.61" y2="53.97" gradientTransform="translate(886.45)" gradientUnits="userSpaceOnUse"><stop offset="0" stop-color="#c0d6ff"/><stop offset="0.3" stop-color="#c5dbff"/><stop offset="0.65" stop-color="#d3e9ff"/><stop offset="1" stop-color="#e9ffff"/></linearGradient><linearGradient id="Ѕезым_нный_градиент_28-2" x1="-15.6" y1="1095.96" x2="41.74" y2="1095.96" gradientTransform="matrix(0.87, 0.5, -0.87, 0.5, 971.7, -534.93)" xlink:href="#Ѕезым_нный_градиент_28"/><linearGradient id="Ѕезым_нный_градиент_28-3" x1="-861.62" y1="63.76" x2="-827.7" y2="63.76" xlink:href="#Ѕезым_нный_градиент_28"/><linearGradient id="Ѕезым_нный_градиент_23" x1="-827.7" y1="51.34" x2="-818.61" y2="51.34" gradientTransform="translate(886.45)" gradientUnits="userSpaceOnUse"><stop offset="0" stop-color="#e9ffff"/><stop offset="0.35" stop-color="#d3e9ff"/><stop offset="0.7" stop-color="#c5dbff"/><stop offset="1" stop-color="#c0d6ff"/></linearGradient><linearGradient id="Ѕезым_нный_градиент_29" x1="-886.45" y1="59.21" x2="-861.62" y2="59.21" gradientTransform="translate(886.45)" gradientUnits="userSpaceOnUse"><stop offset="0" stop-color="#5778ff"/><stop offset="0.18" stop-color="#5c7dff"/><stop offset="0.39" stop-color="#6a8aff"/><stop offset="0.61" stop-color="#82a0ff"/><stop offset="0.85" stop-color="#a3beff"/><stop offset="1" stop-color="#bcd5ff"/></linearGradient></defs><title>col2</title><g id="Шар_2" data-name="Шар 2"><g id="_лой_1" data-name="—лой_1"><polygon class="cls-1" points="56.69 29.39 67.83 14.34 58.74 88.35 24.83 93.59 0 24.83 56.69 29.39"/><polygon class="cls-2" points="67.83 14.34 43 0 9.09 5.25 0 24.83 24.83 39.16 58.74 33.92 67.83 14.34"/><polygon class="cls-3" points="67.17 13.95 58.42 32.79 24.51 38.03 0.34 24.08 0 24.83 24.83 39.16 58.74 33.92 67.83 14.34 67.17 13.95"/><polygon class="cls-4" points="58.74 33.92 58.74 88.35 24.83 93.59 24.83 39.16 58.74 33.92"/><polygon class="cls-5" points="67.83 14.34 67.83 68.77 58.74 88.35 58.74 33.92 67.83 14.34"/><polygon class="cls-6" points="0 24.83 0 79.26 24.83 93.59 24.83 39.16 0 24.83"/></g></g></svg>