<svg xmlns="http://www.w3.org/2000/svg" xmlns:xlink="http://www.w3.org/1999/xlink" viewBox="0 0 369.74 274.64"><defs><style>.cls-1{fill:url(#linear-gradient);}.cls-2{fill:url(#linear-gradient-2);}.cls-3{fill:#eea886;}.cls-4{fill:#202338;}.cls-5{fill:#81807e;}.cls-6{fill:#292c47;}.cls-7{fill:#dbd8e3;}.cls-8{fill:#1d2033;}.cls-9{fill:#323657;}.cls-10{fill:#eea987;}.cls-11{fill:#ff9942;}.cls-12{fill:#c4c1cc;}.cls-13{fill:#3a4066;}.cls-14{fill:#d88a51;}.cls-15{fill:#a77860;}.cls-16{fill:url(#linear-gradient-3);}.cls-17{fill:url(#linear-gradient-4);}.cls-18{fill:url(#linear-gradient-5);}.cls-19{fill:url(#linear-gradient-6);}.cls-20{fill:url(#linear-gradient-7);}.cls-21{fill:url(#linear-gradient-8);}.cls-22{fill:#79fdaa;}.cls-23{fill:url(#linear-gradient-9);}.cls-24{fill:url(#linear-gradient-10);}.cls-25{fill:url(#linear-gradient-11);}.cls-26{fill:#181929;}.cls-27{fill:#22243b;}.cls-28{fill:#cfbeb6;}.cls-29{fill:#3a3f47;}.cls-30{fill:#23263d;}.cls-31{fill:#ffc444;}.cls-32{fill:#d44040;}.cls-33{fill:#eddad3;}.cls-34{fill:#64656e;}.cls-35{fill:url(#linear-gradient-12);}.cls-36{fill:url(#linear-gradient-13);}.cls-37{fill:url(#linear-gradient-14);}.cls-38{fill:url(#linear-gradient-15);}.cls-39{fill:url(#linear-gradient-16);}.cls-40{fill:url(#linear-gradient-17);}.cls-41{fill:url(#linear-gradient-18);}.cls-42{fill:url(#linear-gradient-19);}.cls-43{fill:#3692d6;}.cls-44{fill:#214a94;}.cls-45{fill:#e3edf4;}.cls-46{fill:#0b1b36;}.cls-47{fill:#026bba;}.cls-48{fill:#013963;}.cls-49{fill:#0270c2;}.cls-50{fill:url(#linear-gradient-20);}</style><linearGradient id="linear-gradient" x1="196.24" y1="130.01" x2="250.19" y2="44.62" gradientUnits="userSpaceOnUse"><stop offset="0" stop-color="#1a2b69"/><stop offset="1" stop-color="#296cc4"/></linearGradient><linearGradient id="linear-gradient-2" x1="236.1" y1="188.8" x2="338.86" y2="78.54" xlink:href="#linear-gradient"/><linearGradient id="linear-gradient-3" x1="113.38" y1="265.18" x2="166.67" y2="265.18" gradientUnits="userSpaceOnUse"><stop offset="0" stop-color="#f58631"/><stop offset="1" stop-color="#f2c23f"/></linearGradient><linearGradient id="linear-gradient-4" x1="112.19" y1="258.71" x2="165.48" y2="258.71" gradientUnits="userSpaceOnUse"><stop offset="0" stop-color="#ff9340"/><stop offset="1" stop-color="#ffce45"/></linearGradient><linearGradient id="linear-gradient-5" x1="114.37" y1="252.24" x2="167.66" y2="252.24" xlink:href="#linear-gradient-3"/><linearGradient id="linear-gradient-6" x1="870.41" y1="-1273.18" x2="923.93" y2="-1273.18" gradientTransform="translate(-984.5 1317.53) rotate(11.36)" xlink:href="#linear-gradient-4"/><linearGradient id="linear-gradient-7" x1="48.4" y1="169.76" x2="299.89" y2="169.76" gradientUnits="userSpaceOnUse"><stop offset="0" stop-color="#43f27a"/><stop offset="0.34" stop-color="#34d969"/><stop offset="0.37" stop-color="#43dd76"/><stop offset="0.44" stop-color="#5ae38b"/><stop offset="0.52" stop-color="#6de79b"/><stop offset="0.61" stop-color="#79eba6"/><stop offset="0.74" stop-color="#81ecad"/><stop offset="1" stop-color="#83edaf"/></linearGradient><linearGradient id="linear-gradient-8" x1="151.19" y1="169.76" x2="203.67" y2="169.76" gradientUnits="userSpaceOnUse"><stop offset="0" stop-color="#2b9c27"/><stop offset="1" stop-color="#2eb64d"/></linearGradient><linearGradient id="linear-gradient-9" x1="48.4" y1="169.76" x2="299.89" y2="169.76" xlink:href="#linear-gradient-8"/><linearGradient id="linear-gradient-10" x1="96.42" y1="165.9" x2="118.62" y2="165.9" xlink:href="#linear-gradient-8"/><linearGradient id="linear-gradient-11" x1="222.25" y1="165.9" x2="244.46" y2="165.9" xlink:href="#linear-gradient-8"/><linearGradient id="linear-gradient-12" x1="188.93" y1="258.53" x2="242.23" y2="258.53" xlink:href="#linear-gradient-4"/><linearGradient id="linear-gradient-13" x1="190.88" y1="252.06" x2="244.17" y2="252.06" xlink:href="#linear-gradient-3"/><linearGradient id="linear-gradient-14" x1="189.79" y1="245.59" x2="243.08" y2="245.59" xlink:href="#linear-gradient-4"/><linearGradient id="linear-gradient-15" x1="190.88" y1="226.18" x2="244.17" y2="226.18" xlink:href="#linear-gradient-3"/><linearGradient id="linear-gradient-16" x1="193.16" y1="219.71" x2="246.45" y2="219.71" xlink:href="#linear-gradient-4"/><linearGradient id="linear-gradient-17" x1="190.88" y1="239.12" x2="244.17" y2="239.12" xlink:href="#linear-gradient-3"/><linearGradient id="linear-gradient-18" x1="191.79" y1="232.65" x2="245.08" y2="232.65" xlink:href="#linear-gradient-4"/><linearGradient id="linear-gradient-19" x1="193.16" y1="264.73" x2="246.45" y2="264.73" xlink:href="#linear-gradient-3"/><linearGradient id="linear-gradient-20" x1="40.53" y1="113.04" x2="80.15" y2="113.04" xlink:href="#linear-gradient-8"/></defs><title>Grow</title><g id="Шар_2" data-name="Шар 2"><g id="Слой_1" data-name="Слой 1"><path class="cls-1" d="M339.07,45.85,313,0,287,45.85H303.5c-57.63,163.14-242,144.88-242,144.88v28.81h51.38c176.78,0,205.25-141.08,209.47-173.69Z"/><path class="cls-2" d="M369.74,85.7,351.21,53.08,332.68,85.7h11.75c-41,116.07-172.15,103.08-172.15,103.08v20.5h36.55c125.77,0,146-100.38,149-123.58Z"/><path class="cls-3" d="M301.57,161.74s-1.6-.63-1.71-1.64a6.11,6.11,0,0,0-1-2.25c-.29-.44-.73-2.11-1.24-1.76s.59,2.79.73,3.35-2-.63-2.59-.52-2,3.93-.45,4.57,3.61.23,3.87.4a10.22,10.22,0,0,0,1.13.51Z"/><path class="cls-4" d="M343.09,263.92a21.33,21.33,0,0,0,1.84,2.87c.73.82,3.51,2.27,3.52,4.7,0,2.63-4.69,1.9-6.53,1.8s-2-1.5-2.75-3-1.55-1.24-1.7-2.43a14.11,14.11,0,0,1,.75-3.95Z"/><path class="cls-4" d="M315.09,263.68s-2.27,2.51-4.57,3-3.91,1.2-3.93,2.63,6.62,2.39,9.25.94c3.93-2.17,4.33-1.51,4.77-2.59s-.52-4-.5-4.32S315.09,263.68,315.09,263.68Z"/><path class="cls-5" d="M315.35,262.48a10.45,10.45,0,0,0-.25,1.2s5.18.63,5-.31c-.13-.76-.31-1.6-.31-1.6Z"/><path class="cls-5" d="M338.28,263.13a10.08,10.08,0,0,0-.17,1.15s5.21.94,5.18,0a4.44,4.44,0,0,0-.48-1.6Z"/><path class="cls-6" d="M320,192.16s-1.87,18-2.84,24.15c-1.14,7.2-1.52,13.15-1.84,16.88-.4,4.69-.48,27.75-.75,29.12s6.19.38,6.19.38,3.18-30.13,4.37-35.12c1.11-4.65,5.21-24.66,6.22-23.39s2.26,23.36,3,27,3,32.37,3,32.37,5.15,1,6.52-.13c0,0,.62-24.74.15-31.61-.18-2.62,3.1-31.41-1.11-43C340.73,182.69,320,192.16,320,192.16Z"/><path class="cls-7" d="M354.64,172.45c1.09,3-8.88,10.4-7.64,10.63s1.19,2.58,1.19,2.58,9.38-8.17,9.19-10.58c-.11-1.34-7.45-20.77-8.58-21.58a80.38,80.38,0,0,0-8.06-3.42,18,18,0,0,0-2.21-.76c-.57,0-7.6.64-7.6.64s-1,.34-2,.82c-1.76.81-4.5,2.07-6.47,3-.64.3-1.43.71-2.09,1.06q.12,3.58.42,7.69s.37,6,.4,12a27.75,27.75,0,0,1,.26,4.55c.09,3-.25,6.11-.34,7.84-.14,2.72-.51,6.59-.51,6.59l3.42,1.39,15-.14,4.69-1.25s-.28-12-.21-15.54.77-12.13.91-12.64C344.35,165.35,349.37,158.06,354.64,172.45Z"/><path class="cls-8" d="M321,192.25a124.65,124.65,0,0,0,19.29,0v3s-13.42,1.28-19.75-.56Z"/><path class="cls-9" d="M329.74,150.42l-.1,0c-.65.25-2.73,1.22-4.77,2.18l-2.45,1.15L322,154l-.12.05-.9.44-.62.29,0,0c.08,2.42.09,5,.3,7.81,0,0,0,1.56.14,3.89v.12c.09,2.53.25,5.94.45,9.26a13.22,13.22,0,0,1,.12,2.84c-.1,1.26-.23,2.64-.4,4.08v.05c0,.34-.09.69-.12,1v0a149.51,149.51,0,0,1-3.13,18c-.16.52.4,1,.8,1.37l.37.23,2.45,1.54,1.08-10c0-.27.05-.52.09-.77.07-.69.14-1.32.2-1.91s.1-1,.14-1.37c0-.09,0-.19,0-.27.37-3.5,1.54-8.19,2.06-12.75h0c.65-5.79,1.54-11.47,2-14.85.25-1.75.51-3.3.78-4.66a45.78,45.78,0,0,1,2.14-8Z"/><path class="cls-9" d="M353.66,171.68c1.22,2.67-7.73,10.85-7.63,11.12a25.78,25.78,0,0,0,2.94,4.55s13.86-14.89,13.68-16.72c-.13-1.34-11.75-16.17-12.88-17-.65-.47-5.45-2.17-7.8-3.09l-2.22-.85c-.5.56-4,4.33-5.23,18.69-.21,2.42.44,7.55.87,11.73.46,4.46,1,7.95,1.35,11.68.74,7.35,1.25,13.2,1.25,13.2l7.32-3.26c1.18-.59,3.23-2.14,2.79-3.39-1.69-4.74-4.23-13.72-4.23-17.88,0,0,1.93-13.89,2.58-16.13C346.45,164.37,352.29,168.69,353.66,171.68Z"/><path class="cls-10" d="M337.88,150.08a49.3,49.3,0,0,1,1-7.3c.25-1.31-7.59,3.44-7.59,3.44s0,.46,0,1.08c0,.33,0,.7,0,1.07,0,.13,0,.26,0,.39,0,.35,0,.68-.05,1a4.42,4.42,0,0,1-.26.94C330.68,151.4,335.24,152,337.88,150.08Z"/><path class="cls-11" d="M333,152.6l-1.3,1.75a1.57,1.57,0,0,0,2.11.27Z"/><path class="cls-11" d="M332,154.42s-4.93,19-3.91,33.72l1.66,2.92,1.55-3.06s.42-26.4,1.78-33.63Z"/><path class="cls-10" d="M331.6,151,333,152.6s2.23-.43,2.89-1.6S331.6,151,331.6,151Z"/><path class="cls-12" d="M331.28,149.55a6.69,6.69,0,0,0,1.71,3l-1.69,2.27-.92-4.71Z"/><path class="cls-12" d="M338,148.37s-2.76,3.34-5,4.23l1,2.6,5.25-5.65Z"/><path class="cls-9" d="M297.42,164.45s11.9,12.93,14.71,12.24c1.3-.32,3.27-2.56,4.89-4.67.54-.69,1.06-1.42,1.56-2.14h0c2-2.88,3.56-5.64,3.56-5.64s5.89-6.91,1.16-10a5.34,5.34,0,0,0-3.13.63c-1,.77-3.59,5.64-4,6.54s-3.63,7.26-3.93,7.44-3.46-1.71-5.15-2.84a62.33,62.33,0,0,1-6.16-5Z"/><rect class="cls-13" x="328.61" y="192.41" width="4.81" height="3.65" transform="translate(662.02 388.47) rotate(180)"/><path class="cls-3" d="M327.14,134.21s-1.72,3.19-.87,3.69-.83,3.54-1,4.05,1.28.88,1.59,1.21,1.24,4.38,2.46,4.5,6.7-1.78,8.19-3.33,2.72-8.56,1.72-11.52S330.18,128.63,327.14,134.21Z"/><path class="cls-14" d="M326.8,134.9a4.9,4.9,0,0,1,1.44-6c3.19-2.56,9.08,1.93,9.74,2.1s4.43.43,2.53,7c-1.63,5.67-1.86,5.91-1.86,5.91s-1.22-3.29-1.91-3.79c-1.08-.78-3.44-.6-3.44-.6s1.13-3-.63-3.41S328.58,134.24,326.8,134.9Z"/><path class="cls-3" d="M335.17,137.85c.16-.41.66-2.17,2.17-1.14s-.94,4.36-1.21,4.4S333.86,141.3,335.17,137.85Z"/><path class="cls-15" d="M331.32,148.36c0,.13,0,.26,0,.39,4.48-1.5,5.35-3.77,5.35-3.77a30.56,30.56,0,0,1-5.36,2.31C331.32,147.62,331.32,148,331.32,148.36Z"/><path class="cls-3" d="M347.65,182.76a1.57,1.57,0,0,1-.87.35c-.78,0-1.66-.85-2.47-.08s.9,4,1.51,4.41,2-.3,3.51-2.11S347.65,182.76,347.65,182.76Z"/><path class="cls-3" d="M344.62,182.81a32.29,32.29,0,0,0-3.24,1.36c-1.47.71-3.19,1.81-3,2.18.27.56,1.57-.49,3.08-1.1s1.21-.22,1.21-.22,0-.1-1.34.81-3.05,2.09-2.92,2.4.22.41.82.15c-.31.23-.29.35-.21.49.43.73,2.85-.36,3.8-.8-.73.34-1.24.66-.69.94s4-1.38,5.23-1.88S344.62,182.81,344.62,182.81Z"/><path class="cls-9" d="M346,182.81s.34,2,2.94,4.55c0,0,6-6.57,7-7.8l-4.66-2.7Z"/><rect class="cls-16" x="113.38" y="261.94" width="53.29" height="6.47"/><rect class="cls-17" x="112.19" y="255.47" width="53.29" height="6.47"/><rect class="cls-18" x="114.37" y="249" width="53.29" height="6.47"/><rect class="cls-19" x="119.24" y="242.81" width="53.29" height="6.47" transform="translate(5.93 -3.42) rotate(1.37)"/><path class="cls-20" d="M299.89,107.95V223.85h-76c-23,0-32.84,8.75-64.75,8.75s-4.22-9.78-36.13-9.78H48.4V106.92H123c31.9,0,4.22,9.78,36.13,9.78s41.76-8.76,64.75-8.76Z"/><ellipse class="cls-21" cx="177.43" cy="169.76" rx="26.24" ry="31.25"/><path class="cls-22" d="M188.55,171.21a9.11,9.11,0,0,0-.69-1.43,8.3,8.3,0,0,0-1.24-1.61,10.49,10.49,0,0,0-3.06-2.11,38.14,38.14,0,0,0-4-1.58l-1.07-.31v-9.11a9.49,9.49,0,0,1,2.38.61,15.41,15.41,0,0,1,2.11,1,16.87,16.87,0,0,1,1.65,1.08,4.75,4.75,0,0,1,1,.9l2.59-5.89a19.8,19.8,0,0,0-4.14-2.69,14.68,14.68,0,0,0-5.16-1.42v-5.32h-2.54v5.37a11.66,11.66,0,0,0-3.82,1.05,9.45,9.45,0,0,0-3.08,2.32,10.83,10.83,0,0,0-2,3.55,13.87,13.87,0,0,0-.74,4.72,11.42,11.42,0,0,0,.53,3.71,7.75,7.75,0,0,0,1.59,2.74,9.88,9.88,0,0,0,2.65,2.06,24.14,24.14,0,0,0,3.76,1.61c.26.1.51.2.76.29l.76.23V180a11.75,11.75,0,0,1-3-.79,21.4,21.4,0,0,1-2.59-1.24,13.29,13.29,0,0,1-1.82-1.2l-.17-.14a8.36,8.36,0,0,1-1.17-1.11l-.8,1.95-1.79,4.32a19.85,19.85,0,0,0,5.11,3.24,18.21,18.21,0,0,0,5.79,1.5v5.85h2.54v-5.79a14.18,14.18,0,0,0,4-.76,9.37,9.37,0,0,0,3.31-2,9.12,9.12,0,0,0,2.25-3.37,13.2,13.2,0,0,0,.83-5A12.14,12.14,0,0,0,188.55,171.21Zm-14.87-9.32a3.49,3.49,0,0,1-1-2.71q0-3.85,4-4.16v8.54A9,9,0,0,1,173.68,161.89Zm4.81,18.25v-8.48a15.43,15.43,0,0,1,2.18,1.05,8.86,8.86,0,0,1,1.13.79,3.43,3.43,0,0,1,1.18,2.79Q183,180,178.49,180.14Z"/><path class="cls-23" d="M223.88,107.95c-23,0-32.85,8.75-64.75,8.75s-4.23-9.78-36.13-9.78H48.4v115.9H123c31.9,0,4.22,9.78,36.13,9.78a139.1,139.1,0,0,0,24.8-2.08c2.44-.43,4.74-.9,6.95-1.39,1.75-.39,3.45-.79,5.12-1.18,8.25-1.95,15.75-3.83,25.64-4.09l2.25,0h76V107.95Zm67.32,28.9v57.31a30,30,0,0,0-20.21,21h-47.1a86.19,86.19,0,0,0-15.07,1.32c-5.32.92-10.27,2.21-15.66,3.45-3.46.8-7.12,1.58-11.16,2.23a140.47,140.47,0,0,1-22.86,1.75c-17.53,0-17.07-3-18.39-5.61-1.09-2.18-3.37-4.17-17.74-4.17H78.11a30,30,0,0,0-21-20.21V136.63a30,30,0,0,0,20.21-21H123c31.9,0,4.22,9.78,36.13,9.78s41.75-8.75,64.75-8.75h46.3a29.93,29.93,0,0,0,18.48,19.42C289.49,136.36,290.34,136.62,291.2,136.84Z"/><circle class="cls-24" cx="98.14" cy="165.9" r="11.1"/><circle class="cls-25" cx="247.43" cy="165.9" r="11.1"/><path class="cls-3" d="M44.55,149.19a7.32,7.32,0,0,1,0-1.68c.23-.92-.11-2.41,1-3.14s4.49,2.31,4.75,3.16-1,2.29-3.59,3.5S44.55,149.19,44.55,149.19Z"/><path class="cls-3" d="M45.28,144.68a39.38,39.38,0,0,1,2.61-3.42c1.3-1.52,3.13-3.22,3.52-2.9.59.49-1.07,1.72-2.26,3.31s-.63,1.36-.63,1.36-.13,0,1.37-1.34,3.42-3,3.75-2.71.42.4-.08,1c.37-.3.5-.24.64-.1.73.73-1.31,3.26-2.12,4.26.63-.77,1.17-1.26,1.33-.52s-2.87,4.28-3.84,5.62S45.28,144.68,45.28,144.68Z"/><path class="cls-26" d="M6.3,266.26s3.17,1.88,4.61,2.57,7,.9,7.57,1.42.35,2.19-.57,2.36-7.71.78-10,.26-6.49.36-7.43,0-.33-5.37,0-6.5S6.3,266.26,6.3,266.26Z"/><path class="cls-27" d="M6.57,264.2l-.26,2.07s-4.24.79-5.52.14l.32-2.15Z"/><path class="cls-6" d="M23.57,193.64c0,1.43-.3,4.54-.61,7.79-.07.72-.14,1.46-.21,2.18-.42,4.39-.85,8.44-.85,8.44-.54,3.49-1.64,9.55-2.88,14.13h0c-.36,1.32-.72,2.52-1.09,3.5a8.64,8.64,0,0,1-1.07,2.14c-2.63,3.36-8.65,33.11-8.65,33.11L0,264.88s1.81-20.15,3.62-25.25c2-5.7,5.55-13.39,4.68-18.89C7.76,217.28,7,206.3,7,206.3s-.69-12.35,2.54-21.39C10.4,182.64,23.57,193.64,23.57,193.64Z"/><path class="cls-26" d="M29.41,267s3.15,1.91,4.58,2.63,7,1,7.55,1.51.32,2.19-.6,2.35-7.71.69-10,.13-6.5.28-7.43,0-.27-5.37.11-6.5S29.41,267,29.41,267Z"/><path class="cls-27" d="M29.7,265,29.41,267s-4.25.74-5.53.07l.34-2.14Z"/><path class="cls-6" d="M19.87,235.47c-.21-6.58-.8-11-2.49-14.75-1.42-3.19-2.64-13.22-2.64-13.22s-3.85-11.75-3.07-21.32c.2-2.39,15.09,3.62,15.09,3.62a88.22,88.22,0,0,1,1.68,9,199.6,199.6,0,0,1,1.26,30.7c-1.15,4.1,1.76,36.39,1.76,36.39H23.07s-2.2-11.49-2.43-18.63C20.64,247.28,19.79,236.6,19.87,235.47Z"/><path class="cls-28" d="M19.68,150.31s3.91,6.41,5,10,.22,14,.42,16.05c.63,6.48,1.54,13.61,1.54,13.61l-13.1,8.37A129.36,129.36,0,0,1,9.19,186,57.55,57.55,0,0,1,7,168.89c.06-12.9,7-20.19,7-20.19Z"/><path class="cls-3" d="M24.5,133.13s2.69,2.87,1.93,3.63,1.84,3.49,2.19,4-1.1,1.28-1.33,1.71-.1,4.94-1.34,5.4-7.52,0-9.51-1.24-5.21-8.23-5-11.61S19.77,128.12,24.5,133.13Z"/><path class="cls-3" d="M22,146.87c-.12,1-.29,2.81-.36,4.16a14,14,0,0,0,.06,2.85c.33,1.67-6.86-5.38-6.86-5.38a82.43,82.43,0,0,0,.31-11.61C14.8,130.75,22,146.87,22,146.87Z"/><path class="cls-29" d="M25,133.76s1.27-3-2.65-5.08c-4.61-2.45-9.5,3.7-10.15,4.06s-3.6,3.68-.71,8.08c3.64,5.55,3.45,5.37,3.45,5.37s.37-4.09.34-4.89c0-1.44,3.74-1.61,3.74-1.61s-1.56-2.07.17-3S23,133.56,25,133.76Z"/><path class="cls-3" d="M17.08,139.17c-.28-.39-1.29-2.1-2.59-.6s2.19,4.31,2.48,4.28S19.4,142.43,17.08,139.17Z"/><path class="cls-30" d="M27.41,192.71s-.65-3.06-.78-3.52L7.48,192.38l.2,2.48S21.47,194,27.41,192.71Z"/><path class="cls-31" d="M5.77,179.22a57.92,57.92,0,0,1-1.67,27.53c-.56,1.81,12.75-.28,12.75-.28Z"/><path class="cls-31" d="M22.69,205.54s-9.46,2.08-12.12,1.14a189.92,189.92,0,0,1-5.21-28.34c-.1-1.1-.19-2.21-.26-3.3h0c-.75-11.61,2.2-23.4,8.94-26.33.19.13,9.68,8.49,9.5,16.15q0,.78,0,1.56c0,.94,0,1.88,0,2.83h0c.09,4.25.43,8.56.94,12.78A63.2,63.2,0,0,1,22.69,205.54Z"/><path class="cls-32" d="M22.3,155.9a105.26,105.26,0,0,1,2.46,15.93c.57,7.43,1.33,12.68,1.33,12.68l1.14,3.68.47-3.55s-.42-9.59-1-13.48-.81-8.92-3.95-15.4Z"/><path class="cls-32" d="M22.1,155.91a1.06,1.06,0,0,0,.52.25c.3,0,.74-.44-.82-2.49Z"/><path class="cls-33" d="M14.87,147.64s4.41,4.15,7,5.06l.5,4-8.37-8Z"/><path class="cls-31" d="M17.83,163.7c-1.74-.62-9-4.12-7-8.21s6.87-1.91,10.59-.25c3.9,1.74,13.09,7.09,13.82,6.59s3.91-5.05,4.48-6.07,4-7.5,4.37-8,5.37,3.76,5.37,3.76-9.06,16.09-11.5,18.65S17.83,163.7,17.83,163.7Z"/><path class="cls-26" d="M19,226.19h0c-.36,1.32-.72,2.52-1.09,3.5h0l-2.87-17.11C15.8,214.2,19,226.19,19,226.19Z"/><path class="cls-34" d="M23.52,169.23l-8.3-6.78c2.2,1.18,7.6,3.65,8.28,4C23.5,167.35,23.51,168.29,23.52,169.23Z"/><path class="cls-15" d="M21.84,147.89l-.13,1.42a8.53,8.53,0,0,1-5-2.55C17.83,147.65,21.84,147.89,21.84,147.89Z"/><rect class="cls-35" x="188.93" y="255.29" width="53.29" height="6.47"/><rect class="cls-36" x="190.88" y="248.82" width="53.29" height="6.47"/><rect class="cls-37" x="189.79" y="242.35" width="53.29" height="6.47"/><rect class="cls-38" x="190.88" y="222.94" width="53.29" height="6.47"/><rect class="cls-39" x="193.16" y="216.47" width="53.29" height="6.47"/><rect class="cls-40" x="190.88" y="235.88" width="53.29" height="6.47"/><rect class="cls-41" x="191.79" y="229.41" width="53.29" height="6.47"/><rect class="cls-42" x="193.16" y="261.5" width="53.29" height="6.47"/><path class="cls-43" d="M216,260.75a26.27,26.27,0,0,0,.81,4.1c.46,1.26,3,4.15,1.91,6.94-1.15,3-6.17.11-8.22-.81s-1.58-2.59-1.8-4.64-1.22-2.1-.85-3.54,2.61-4.19,2.61-4.19Z"/><path class="cls-3" d="M211.47,257.12s-1.29,1.8-1.25,1.85,5.5,3.38,5.89,2.3a11.11,11.11,0,0,0,.43-2.1Z"/><path class="cls-43" d="M192.92,262.77a20.72,20.72,0,0,0-3.17,3.71c-1.5,2.25-5.48,2.37-5.65,5.44s5.41,3.16,8.34,2.16,3.37-4,5.14-4.74,2.69-1.36,2.55-2.82a17.81,17.81,0,0,0-1.12-3.84,12,12,0,0,1-1.75.42A14.47,14.47,0,0,1,192.92,262.77Z"/><path class="cls-44" d="M213,179.64s-1.12,6.68-2,11.08h0a26.31,26.31,0,0,1-.9,3.65,51.17,51.17,0,0,1-4.94,5.48c-4.52,4.66-10.5,10.52-10.5,10.52l-2.34-4.44s5.31-6.23,8.91-10.38c1.67-1.92,3-3.4,3.2-3.61.75-.67,1.63-7.31,2.85-12.77a22,22,0,0,1,3.69-8.49Z"/><path class="cls-3" d="M205.12,199.85c-4.52,4.66-10.5,10.52-10.5,10.52l-2.34-4.44s5.31-6.23,8.91-10.38A7.55,7.55,0,0,1,205.12,199.85Z"/><path class="cls-3" d="M193.19,260.72l-.26,2a10.08,10.08,0,0,0,6.1-.09l.07-1.82Z"/><path class="cls-44" d="M234.41,209.47c.17.59-30.76,0-30.76,0s8.55-6.23,9.11-7.89-2.18-11.64-2.54-14.89c-.29-2.6-1-14.23.71-16s8.24-3.8,8.24-3.8l9.4.35a14.82,14.82,0,0,1,2.66.84c1.11.51,7.45,2.77,8.48,5.94s-6.33,13.36-6.33,13.36,0,.46,0,1.21h0c0,1-.07,2.52-.11,4.17,0,2.13-.09,4.49-.09,6.21A61.2,61.2,0,0,0,234.41,209.47Z"/><path class="cls-45" d="M234.41,209.47s4.21,6.18,4.27,10.4-7.46,18.34-8.6,20.37c-3.42,6.07-12.81,19.18-12.81,19.18s-1.62,0-6.67-2c0,0,6.24-17.31,7-19.11,3.36-7.62,5.23-13,4.1-14.34s-4.21-2.62-5.1-3.39-16.41,2.93-18,3.35c-4.21,1.09-2.29,8.42-1.36,11.71,1.56,5.5,2.92,25.35,2.92,25.35s-3,1.28-8,.2c0,0-9.87-35.84-10.19-39.41s-.47-9.44,23.84-13.91Z"/><path class="cls-3" d="M221.76,146.46s-8.16-1.84-6.29,8.43,3.83,11.08,8.75,9,4.48-8.71,4.73-11.93S224.36,146.58,221.76,146.46Z"/><path class="cls-3" d="M219.6,169.52s3.61,3.83,9.33.35c0,0-1.28-8.3-.6-12.35s-7.45,6.27-7.45,6.27.18.44.19,1a11.18,11.18,0,0,1-.09,1.65C220.81,167.77,220.39,169.19,219.6,169.52Z"/><path class="cls-29" d="M228.54,157.18s-.21-3.23-1.39-3.34-1.36,1.2-1.36,1.2l-1.19.23s.38-2.84-.8-3.33-7.65,1.56-8.59.73-.5-6.58,1.21-7.37,6.44-2.55,9.91-.21c0,0,2.7-.31,3.1,1.87S229.28,155.56,228.54,157.18Z"/><path class="cls-15" d="M221,166.43c5.89-1.82,6.34-5.37,6.34-5.42-1.94,3.33-6.26,3.77-6.26,3.77A11.18,11.18,0,0,1,221,166.43Z"/><path class="cls-3" d="M231.33,168.12s-4.32,8.59-11.29,8-1.19-9.19-.87-9.27S226.33,165.1,231.33,168.12Z"/><path class="cls-45" d="M200.11,209s21.36,2.63,34.3.43l-24.72-3.09S209.54,207,200.11,209Z"/><path class="cls-3" d="M216.09,205.41l-1.59.81s.36,2.53,1.23,3.29l1.79-.46S217.14,206.28,216.09,205.41Z"/><path class="cls-44" d="M240.8,200.24c-.32.37-4.52,2.06-9.26,3.88h0c-6.48,2.5-13.79,4.86-13.79,4.86l-1.66-3.57s7.66-4.16,12.83-7.08c2.44-1.38,4.33-2.48,4.6-2.73.83-.79,1-2.06.44-4.28s-2-12.4-2.18-13.59.4-4.36,3.37-4.51a8.91,8.91,0,0,1,4.48.68s.75.31,1.3,7.52S241.55,199.36,240.8,200.24Z"/><path class="cls-46" d="M233.35,188.58h0c0,1-.07,2.52-.11,4.17a20.85,20.85,0,0,1-1.2-12.87C231.74,181.81,233.33,188.49,233.35,188.58Z"/><path class="cls-46" d="M211,190.72h0a26.31,26.31,0,0,1-.9,3.65,37.71,37.71,0,0,1-.1-10.93A61.57,61.57,0,0,0,211,190.72Z"/><path class="cls-3" d="M231.54,204.12h0c-6.48,2.5-14,4.94-14,4.94l-1.43-3.64s7.66-4.16,12.83-7.08C228.92,198.34,230.8,199.25,231.54,204.12Z"/><polygon class="cls-47" points="215.63 209.27 185.27 208.82 200.6 216.6 215.63 209.27"/><polygon class="cls-48" points="200.6 216.6 215.63 210.78 215.63 209.27 199.41 215.12 200.6 216.6"/><path class="cls-3" d="M214.84,206.27s-1.9-.29-3.21-.6c-1-.24-3.54.09-4.18.74s-2.69,5.19-3.07,5.46.2.92.88.59c0,0,.62,2,2.16,1.24s2.58-2.37,3.39-2.65,5.49-1.73,5.49-1.73S216,205.79,214.84,206.27Z"/><path class="cls-3" d="M207.92,206.11a13.27,13.27,0,0,0-1.54.85c-.32.26-1.61,1.23-1.92,1.46s.47.87,2.77-.13S207.92,206.11,207.92,206.11Z"/><polygon class="cls-48" points="200.6 216.6 191.57 191.95 162.46 192.42 171.06 215.14 200.6 216.6"/><ellipse class="cls-49" cx="180.05" cy="203.96" rx="2.47" ry="3.6" transform="translate(-72.21 102.07) rotate(-26.57)"/><path class="cls-3" d="M225.81,153.68a1,1,0,0,1,2,.12c.14,1.36-.81,3.74-1.49,3.51S225.66,154.93,225.81,153.68Z"/><polygon class="cls-50" points="41.46 126.7 40.53 126.7 40.53 99.37 80.15 99.37 80.15 100.31 41.46 100.31 41.46 126.7"/></g></g></svg>