<svg xmlns="http://www.w3.org/2000/svg" xmlns:xlink="http://www.w3.org/1999/xlink" viewBox="0 0 239.4 311.37"><defs><style>.cls-1{opacity:0.3;}.cls-2{fill:url(#Ѕезым_нный_градиент_28);}.cls-3{fill:url(#Ѕезым_нный_градиент_26);}.cls-4{fill:url(#Ѕезым_нный_градиент_23);}.cls-10,.cls-32,.cls-5{fill:#242993;}.cls-5{opacity:0.5;}.cls-6{fill:url(#Ѕезым_нный_градиент_28-2);}.cls-7{fill:url(#Ѕезым_нный_градиент_26-2);}.cls-8{fill:url(#Ѕезым_нный_градиент_23-2);}.cls-9{fill:#162184;}.cls-11{fill:#485dce;}.cls-12{fill:#fce8ee;}.cls-13{fill:#4553c7;}.cls-14{fill:azure;}.cls-15{fill:#aa9aac;}.cls-16{fill:#c4e3ff;}.cls-17{fill:#e2c8cf;}.cls-18{fill:#1b4263;}.cls-19{fill:#938496;}.cls-20{fill:url(#Ѕезым_нный_градиент_21);}.cls-21{fill:url(#Ѕезым_нный_градиент_28-3);}.cls-22{fill:url(#Ѕезым_нный_градиент_28-4);}.cls-23{fill:#fff;}.cls-24{fill:url(#Ѕезым_нный_градиент_28-5);}.cls-25{fill:url(#Ѕезым_нный_градиент_23-3);}.cls-26{fill:url(#Ѕезым_нный_градиент_29);}.cls-27{fill:url(#Ѕезым_нный_градиент_28-6);}.cls-28{fill:url(#Ѕезым_нный_градиент_28-7);}.cls-29{fill:url(#Ѕезым_нный_градиент_28-8);}.cls-30{fill:url(#Ѕезым_нный_градиент_23-4);}.cls-31{fill:url(#Ѕезым_нный_градиент_29-2);}.cls-32{opacity:0.2;}.cls-33{fill:#dd821f;}.cls-34{fill:#ffd85a;}.cls-35{fill:#f9bf30;}.cls-36{fill:#f2b42a;}</style><linearGradient id="Ѕезым_нный_градиент_28" x1="-1414.53" y1="1725.85" x2="-1313.47" y2="1725.85" gradientTransform="matrix(0.87, 0.5, -0.87, 0.5, 2840.67, 6.59)" gradientUnits="userSpaceOnUse"><stop offset="0" stop-color="#c0d6ff"/><stop offset="0.3" stop-color="#c5dbff"/><stop offset="0.65" stop-color="#d3e9ff"/><stop offset="1" stop-color="#e9ffff"/></linearGradient><linearGradient id="Ѕезым_нный_градиент_26" x1="-2170.24" y1="186.72" x2="-2093.17" y2="186.72" gradientTransform="translate(2275.73)" gradientUnits="userSpaceOnUse"><stop offset="0.35" stop-color="#bcd5ff"/><stop offset="0.44" stop-color="#b5cfff"/><stop offset="0.57" stop-color="#a3beff"/><stop offset="0.72" stop-color="#84a2ff"/><stop offset="0.88" stop-color="#5a7bff"/><stop offset="0.89" stop-color="#5778ff"/></linearGradient><linearGradient id="Ѕезым_нный_градиент_23" x1="-1427.48" y1="1714.22" x2="-1323.79" y2="1714.22" gradientTransform="matrix(0.87, 0.5, -0.87, 0.5, 2840.67, 6.59)" gradientUnits="userSpaceOnUse"><stop offset="0" stop-color="#e9ffff"/><stop offset="0.35" stop-color="#d3e9ff"/><stop offset="0.7" stop-color="#c5dbff"/><stop offset="1" stop-color="#c0d6ff"/></linearGradient><linearGradient id="Ѕезым_нный_градиент_28-2" x1="-1445.38" y1="1695.01" x2="-1344.32" y2="1695.01" xlink:href="#Ѕезым_нный_градиент_28"/><linearGradient id="Ѕезым_нный_градиент_26-2" x1="-2170.24" y1="155.88" x2="-2093.17" y2="155.88" xlink:href="#Ѕезым_нный_градиент_26"/><linearGradient id="Ѕезым_нный_градиент_23-2" x1="-1458.33" y1="1683.37" x2="-1354.64" y2="1683.37" xlink:href="#Ѕезым_нный_градиент_23"/><linearGradient id="Ѕезым_нный_градиент_21" x1="194.17" y1="66.91" x2="196" y2="66.91" gradientUnits="userSpaceOnUse"><stop offset="0" stop-color="#5778ff"/><stop offset="0.07" stop-color="#5489ff"/><stop offset="0.28" stop-color="#4eb3ff"/><stop offset="0.48" stop-color="#49d4ff"/><stop offset="0.67" stop-color="#45ecff"/><stop offset="0.85" stop-color="#43faff"/><stop offset="1" stop-color="#42ffff"/></linearGradient><linearGradient id="Ѕезым_нный_градиент_28-3" x1="-763.69" y1="291.93" x2="-695.86" y2="291.93" gradientTransform="translate(886.45)" xlink:href="#Ѕезым_нный_градиент_28"/><linearGradient id="Ѕезым_нный_градиент_28-4" x1="110.72" y1="1182.23" x2="168.06" y2="1182.23" gradientTransform="matrix(0.87, 0.5, -0.87, 0.5, 1059.78, -383.07)" xlink:href="#Ѕезым_нный_градиент_28"/><linearGradient id="Ѕезым_нный_градиент_28-5" x1="-738.86" y1="301.72" x2="-704.94" y2="301.72" gradientTransform="translate(886.45)" xlink:href="#Ѕезым_нный_градиент_28"/><linearGradient id="Ѕезым_нный_градиент_23-3" x1="-704.94" y1="289.31" x2="-695.86" y2="289.31" gradientTransform="translate(886.45)" xlink:href="#Ѕезым_нный_градиент_23"/><linearGradient id="Ѕезым_нный_градиент_29" x1="-763.69" y1="297.18" x2="-738.86" y2="297.18" gradientTransform="translate(886.45)" gradientUnits="userSpaceOnUse"><stop offset="0" stop-color="#5778ff"/><stop offset="0.18" stop-color="#5c7dff"/><stop offset="0.39" stop-color="#6a8aff"/><stop offset="0.61" stop-color="#82a0ff"/><stop offset="0.85" stop-color="#a3beff"/><stop offset="1" stop-color="#bcd5ff"/></linearGradient><linearGradient id="Ѕезым_нный_градиент_28-6" x1="-763.69" y1="263.42" x2="-695.86" y2="263.42" gradientTransform="translate(886.45)" xlink:href="#Ѕезым_нный_градиент_28"/><linearGradient id="Ѕезым_нный_градиент_28-7" x1="82.21" y1="1153.73" x2="139.55" y2="1153.73" gradientTransform="matrix(0.87, 0.5, -0.87, 0.5, 1059.78, -383.07)" xlink:href="#Ѕезым_нный_градиент_28"/><linearGradient id="Ѕезым_нный_градиент_28-8" x1="-738.86" y1="273.22" x2="-704.94" y2="273.22" gradientTransform="translate(886.45)" xlink:href="#Ѕезым_нный_градиент_28"/><linearGradient id="Ѕезым_нный_градиент_23-4" x1="-704.94" y1="260.8" x2="-695.86" y2="260.8" gradientTransform="translate(886.45)" xlink:href="#Ѕезым_нный_градиент_23"/><linearGradient id="Ѕезым_нный_градиент_29-2" x1="-763.69" y1="268.67" x2="-738.86" y2="268.67" xlink:href="#Ѕезым_нный_градиент_29"/></defs><title>mans</title><g id="Шар_2" data-name="Шар 2"><g id="_лой_1" data-name="—лой_1"><g class="cls-1"><path class="cls-2" d="M176.2,229.1,93.08,180.83c-1.15-.66-1-1.82.32-2.59L149,146.13a5,5,0,0,1,4.48-.19l83.11,48.27c1.15.66,1,1.82-.32,2.59l-55.62,32.11A5,5,0,0,1,176.2,229.1Z"/><path class="cls-3" d="M239.4,184l-19.53-1.27L153.34,144a5.13,5.13,0,0,0-4.62.19l-43,24.83L90.3,168v10.75h0a1.36,1.36,0,0,0,.79,1.16l85.26,49.51a5.13,5.13,0,0,0,4.62-.19l57.29-33.07a1.92,1.92,0,0,0,1.12-1.46h0Z"/><path class="cls-4" d="M176.37,218.61,91.1,169.1c-1.18-.68-1-1.88.33-2.67l57.29-33.07a5.13,5.13,0,0,1,4.62-.19l85.26,49.51c1.18.68,1,1.88-.33,2.67L181,218.41A5.13,5.13,0,0,1,176.37,218.61Z"/></g><path class="cls-5" d="M238.6,173.11l-85.26-49.51a5.13,5.13,0,0,0-4.62.19l-76.4,44c-1.37.79-1.52,2-.33,2.67l26.87,15.6-.64.3S92.12,185.24,84,189c-2.81,1.28-5,2.32-6.73,3.19h0l-.15.08-.84.42-.22.11-.92.49-.16.09-.64.36-.22.13-.52.31-.17.1-.58.37-.07,0-.42.29-.13.1,0,0a30.24,30.24,0,0,0-6.93-2.87s-4.63-1.65-5.79-.65-8.66,14.35-10.32,15.75-7.5,6.62-7.5,6.62a21.77,21.77,0,0,1-2.91-2.21c-1.47-1.33-10-8.09-10.51-8.64s-10.52-8.68-11.51-10.24a3.25,3.25,0,0,0-3.11-1.2,4.87,4.87,0,0,0-1.85-2.41,7.53,7.53,0,0,1-1.91-2.33c0-.12,0-.5,0-.5a1,1,0,0,0,.33-.81c-.09-.44-1.23-.36-1.42-.47a4.29,4.29,0,0,0-1.06-.47,18.63,18.63,0,0,0-3.49,1.47.71.71,0,0,0-.16.23h0l0,.09a2.47,2.47,0,0,0-.14.52l0,.1,0,.16v.33s0,.07,0,.1,0,.06,0,.08v.1s-2.31-2.17-2.47-2.36S.23,185,0,185.64s3.7,4.66,3.7,4.66A5.92,5.92,0,0,0,4.34,192c.46.77,3.25,2,4,2.59a11.67,11.67,0,0,1,1.86,2.23c1.12,1.82,11.21,12.78,14.4,14.82s6,6,7.57,7.38,2.4,7.45,2.4,7.45l1.43,2.4,0,0-.36.24s-.8-.31-1.18.23-1.16,2.95-1.35,3.25-2.29,1.18-3,2.31a23.67,23.67,0,0,0-1.23,2.54,1,1,0,0,0-.5.15c-1.26.8-1.83,7.58,1.91,10.37s10,3.91,13.33-1.12c.33-.5.62-1,.88-1.44h0l.09-.16.22-.4.2-.38.19-.38.16-.34.16-.36.13-.31.14-.34.1-.28.11-.32.08-.24q.09-.3.16-.56l.05-.2.05-.25,0-.19,0-.21,0-.17,0-.18,0-.15v-.28s0-.08,0-.11,0-.07,0-.11,0-.06,0-.08,0-.06,0-.09v-.12h0v0l4.14-.5s9,3.45,12,4.22c0,0,5.83-.11,8-.1a18.63,18.63,0,0,0,1.77,2c5.17,5.14,10.22,2.17,11.78.27.36-.43.81-1,1.3-1.52A11.42,11.42,0,0,0,88,243a3.53,3.53,0,0,0,2.28-2.75,4.33,4.33,0,0,0,3.32,1.65s10-.53,13.94-4.12l0,0q.19-.18.37-.37l.07-.07c.1-.12.19-.24.28-.36l.07-.1a4.33,4.33,0,0,0,.28-.47c.15-.29.32-.59.5-.89l.19-.29c.13-.21.27-.42.41-.64l.25-.36.44-.6.3-.39.47-.6.33-.4.5-.59.35-.41.53-.59.36-.4.55-.59.36-.38.6-.61.82-.81.35-.34.59-.55.29-.27.59-.53.26-.23.59-.51.21-.18.58-.48.16-.13.57-.44.09-.07.56-.4h0a7.68,7.68,0,0,1,1-.61c1.79-.83,7.89-3.46,10.83-4.72l.42-.18.27-.11a3.55,3.55,0,0,0,.43-.22h0a3.53,3.53,0,0,0,1.07-1,2.67,2.67,0,0,1,.65-.63l1.05-.67,1-.62a1.69,1.69,0,0,0,.67-.81,14.19,14.19,0,0,0,.94-4.9L157.25,220a5.13,5.13,0,0,0,4.62-.19l76.4-44C239.64,175,239.78,173.8,238.6,173.11Zm-230.51,17c-.47-.22-.87-.39-.87-.39s-.47-.59-.56-.54a.74.74,0,0,0-.34-.76,1.49,1.49,0,0,0,.06-1.27,6.31,6.31,0,0,1,1.07.53,7.65,7.65,0,0,0,.73.78,2.75,2.75,0,0,1,.92,1S8.56,190.37,8.09,190.14Zm74.57,35.28a16.51,16.51,0,0,0-3.1,1.11s-1.07-.84-1.57-.59-1.82,1.89-2,1.92a6.16,6.16,0,0,0-1.94.46,13.2,13.2,0,0,1,.5-1.54c.54-1.28,3.54-5.13,5.18-7.19a23.12,23.12,0,0,0,3.49.62l-.09.08s.13,2.29.16,5A5,5,0,0,1,82.66,225.43Zm26-33.64a37.37,37.37,0,0,0-6.18,1.1l-.68.21s2.19-1.45,4.22-2.84Zm-17.4,47.39h-.05l-.33,0h-.07l-.29,0h-.06v0a4,4,0,0,0,1,.13Zm1.05-.12a2.35,2.35,0,0,0,1.39-1.25A2.14,2.14,0,0,1,92.34,239.05Zm.83-14.68h0q0,.22,0,.43C93.17,224.62,93.16,224.47,93.17,224.37Zm.95,11.44s0-.08,0-.12,0-.33,0-.5v0c0-.08,0-.16,0-.23C94.13,235.23,94.13,235.52,94.11,235.81Zm23.21-37.87,0,0h0c-1.87,1.32-5.74,4.15-6.41,4.72-.88.74-8.12,4.88-11,6.85a21.32,21.32,0,0,0-4.72,4.39,20.67,20.67,0,0,0-1.83,7.69h0A6.4,6.4,0,0,0,91.66,223a6.66,6.66,0,0,0,0-1.28,5.74,5.74,0,0,0-3.2-1.93h-.06c0-.21-.06-.43-.1-.66v-.06c-.05-.33-.11-.68-.18-1v0a11.93,11.93,0,0,0-.36-1.53l0-.09.13,0h0a13.71,13.71,0,0,0,1.09-2.17h0a51.71,51.71,0,0,0,8.8-6.39,45.62,45.62,0,0,1,9.39-6.65,35.71,35.71,0,0,0,9.85-4.58l1,.6Z"/><path class="cls-6" d="M176.2,198.25,93.08,150c-1.15-.66-1-1.82.32-2.59L149,115.28a5,5,0,0,1,4.48-.19l83.11,48.27c1.15.66,1,1.82-.32,2.59l-55.62,32.11A5,5,0,0,1,176.2,198.25Z"/><path class="cls-7" d="M239.4,153.12l-19.53-1.27-66.53-38.69a5.13,5.13,0,0,0-4.62.19l-43,24.83-15.41-1v10.75h0a1.36,1.36,0,0,0,.79,1.16l85.26,49.51a5.13,5.13,0,0,0,4.62-.19l57.29-33.07a1.92,1.92,0,0,0,1.12-1.46h0Z"/><path class="cls-8" d="M176.37,187.76,91.1,138.25c-1.18-.68-1-1.88.33-2.67l57.29-33.07a5.13,5.13,0,0,1,4.62-.19l85.26,49.51c1.18.68,1,1.88-.33,2.67L181,187.57A5.13,5.13,0,0,1,176.37,187.76Z"/><path class="cls-9" d="M162.25,126l.08.37.11-.25s.57,1.93.08,2.89a22.85,22.85,0,0,1-2.22,3.5c-1,1.35-2.66,4.15-3.09,4.69a10.56,10.56,0,0,1-6.05,3c-3.12.32-3.92-1.47-3.66-2.43a21.63,21.63,0,0,1,3.77-5.62,28,28,0,0,0,3.23-4.78Z"/><path class="cls-9" d="M152.86,117.47a14.39,14.39,0,0,1-.11,2.83c-.21.82-4.8,1.08-6.43,1.29A23.56,23.56,0,0,0,141,123.4c-.89.44-6.85,1.07-7.58-1.13s3-4,5.51-4.62,6.64-1.84,6.64-1.84Z"/><path class="cls-10" d="M168.78,77.78a56.12,56.12,0,0,1-1.71,13.38,52.68,52.68,0,0,0-1.65,13.19s2,8.78.24,14.77-3.19,7.67-3.19,7.67a5.17,5.17,0,0,1-8,.47s2.54-8.23,2.84-14.78a44.42,44.42,0,0,1-3-9.11s-.65,6.82-1,9.58c0,0,.39,4.05-.69,5.69s-5.95,2.11-7.5-.73,1.29-1.45.43-14.54c0,0-4.48-5.59-5.13-15.86s-.58-14.35,0-16.35,10.51-9.22,10.51-9.22l5.6,7.15Z"/><path class="cls-9" d="M146.67,89.25c-1.62-1.94-2.52-8-2.52-8s2.52,5.11,4.33,6.59a12.27,12.27,0,0,1,3.68,6.4c.32,1.94,2.15,9.14,2.15,9.14s-.65,6.82-1,9.58c0,0,.39,4.05-.69,5.69a2.52,2.52,0,0,1-1.06.83c0-.08.27-9,0-12.83S148.29,91.19,146.67,89.25Z"/><path class="cls-11" d="M183.7,36.33s4.28,8.37,4.71,9,8.45,10.86,9.22,16.76c0,0,.6,2.28-2.15,4.31s-16.68,10.86-17.54,11-5.9-2.33-6.12-7.84c0,0,10.9-5.08,13.27-7.63,0,0-4.24-7.13-6.32-9.23a4.85,4.85,0,0,1-1-2.64,14.34,14.34,0,0,1,4.65-12.58Z"/><path class="cls-10" d="M151.68,16.73s-6.63,2.46-8.89,1.62S135,16.8,131.16,14.66s-20.47-6.43-22.94-6.58c0,0,0,.1.37.27a3.11,3.11,0,0,1,2.59,2.26,6.15,6.15,0,0,1-.84,4.43c-.28.16-.44-.53-2-1.26a6.21,6.21,0,0,0-2.57-.69l-.6.76-.37.56s.79,2.35,2.92,2.51,15.84,5.88,16.7,6.14,12.37,5.22,14.52,6a25.14,25.14,0,0,1,3.84,1.76s6.72-4.48,6.94-4.48S151.68,16.73,151.68,16.73Z"/><path class="cls-12" d="M91.78,5.29c.28.06,3.75,1.23,3.75,1.23S94.15,7.23,94,7.85a21.51,21.51,0,0,0,.41,4.35,5,5,0,0,0,1.06.82c.22.13.75,1.34,1.25,1.18a1.14,1.14,0,0,0,.65-.78s.39-.19.51-.27a8.7,8.7,0,0,1,3.41.68,5.62,5.62,0,0,0,3.46.57,15,15,0,0,0,2.14-.94,5.38,5.38,0,0,1,1.33.38c.47.25,2,1.26,2.21,1.35s3.32-6-2.21-7.12a13.48,13.48,0,0,1-3.29-.68c-1-.47-3.79-2.63-4.83-2.67A6.83,6.83,0,0,0,98,5S91.78,3.24,91.26,3.8,91.5,5.22,91.78,5.29ZM96.3,9.45a1.72,1.72,0,0,0,1.26-.76.85.85,0,0,0,1-.07c0,.11.86.27.86.27s.39.32.87.68-.16,1.41-.16,1.41a3.17,3.17,0,0,1-1.48-.41,8.85,8.85,0,0,0-1.19-.32A7.29,7.29,0,0,1,96.3,9.45Z"/><path class="cls-9" d="M140.4,71.16c.58-2,10.51-9.22,10.51-9.22l2.78,3.55,2.39,9.29,12.69,3.95h0s-.67,6.35-11,5.62-11.55-8.75-11.55-8.75-1.15,2.63-6.24,3.32C139.86,74.67,140,72.47,140.4,71.16Z"/><path class="cls-13" d="M171.13,21.94l1.75,4.48s8.41,7.28,10.82,9.9a50.76,50.76,0,0,0-4.93,16.37,52.53,52.53,0,0,0-5,4.58c-1.16,1.44-4.1,8.12-5,10.32s1.68,8.82,1.68,8.82-3.58,6.6-9.33,6.39-9.67-3.73-10.41-10-.52-7.15-.52-7.15-2.59,7.67-6.51,7.67-10.15-6.66-10.15-6.66-4.2-3.81-3.81-5.54,9.89-16.63,10.41-19.09,2.65-11.25,2.65-11.25l9-14.09,5.46.26Z"/><path class="cls-14" d="M171.13,21.94a15.48,15.48,0,0,1-1,5.32c-1.06,2.65-4.5,17.58-12.32,22.69l-3,1.91v-9.5s.05-5.85,1.39-9.56a27.49,27.49,0,0,0,1.29-8.23s2.19-.6,2.19-.56S171.13,21.94,171.13,21.94Z"/><path class="cls-12" d="M161.49,28.88s-1.39.57-2-.34A6.61,6.61,0,0,1,158.45,25s-3.7.18-4.43-1.76.06-2.45.18-3a15.18,15.18,0,0,1,.72-3.34l.05-.5s-.75-.65-.41-1.33,2.37-2.79,2.57-3.15-.05-3,.73-4.28a31.83,31.83,0,0,1,2.31-3.11s7.89-6.15,14.09,0-3.15,17.47-3.15,17.47-.75,3.66-2.56,5.11S161.49,28.88,161.49,28.88Z"/><path class="cls-15" d="M167.26,13.9a1.92,1.92,0,0,1,.1-.67,3.26,3.26,0,0,0-1.27-3.87c-2.37-1.72-6.55-3.27-6.42-5s6.72-6,11.59-3.71,9.44,8.06,6.12,14.18-6.25,7.11-6.25,7.11-1-.2-.1-1.22,2.5-3.59,1.16-4.4-3.67.94-4,1.32a4.87,4.87,0,0,0-.34.51.65.65,0,0,1-.84.26l-.11-.05a.65.65,0,0,1-.34-.82l.58-1.58a2,2,0,0,0,.12-.74Z"/><path class="cls-16" d="M161.69,30.61a9.35,9.35,0,0,1,2.79,3.64,12.58,12.58,0,0,0-2.94-2.33s-2.07,1-2.07,1.62a42.72,42.72,0,0,1-.68,6.61c-.48,2.09-.43,9.41-.43,9.41l-1.31.86-.62-3.21.24-6.85,1.22-6.24s.23-2.36.32-2.49S161.69,30.61,161.69,30.61Z"/><path class="cls-10" d="M161.69,30.61s-2-2.13-3-2.18a1.7,1.7,0,0,0-1.58.63c0,.12-1,3.46-1,3.46a41.79,41.79,0,0,0-1.7,12.61c.19,6.79.36,6.73.36,6.73l2.48-1.58A31.27,31.27,0,0,1,158,39.81c1.36-5.62.16-6.46.81-7S162,31.3,161.69,30.61Z"/><path class="cls-10" d="M173.76,57.28c-1.16,1.44-4,8.11-5,10.31a3.44,3.44,0,0,0-.26,1.38l-.38.25L166.88,68s1.13-4.07,2.94-9.11,9-6.17,9-6.17A52.53,52.53,0,0,0,173.76,57.28Z"/><path class="cls-12" d="M171.82,69.73a23.3,23.3,0,0,0-2.69-3.36s.15.84-1,1.36-7.25,2.88-7.46,3.15,0,.61.4.69a8.25,8.25,0,0,1-1.78.42c-.52,0-1.21.65-.86,1.21s.64.52.64.52-.15.62.23.76a5.77,5.77,0,0,0,1.28.16s-.18.62.32.87a19,19,0,0,0,3,.52s1.93-.2,2.48-.22,3.06.6,4.13.45a32.34,32.34,0,0,0,4.94-1.61C175.76,74.45,171.82,69.73,171.82,69.73Z"/><path class="cls-10" d="M173.27,27.88l-.26,4-2.17.68,1.45,1.2s-5.87,13.35-13.37,17.57c0,0,7.15-2.54,13.92-17.45,0,0-.71-.84-.93-1.08l1.51-.67Z"/><path class="cls-10" d="M154.11,27.46s-2.66,13.62-.39,23.87c0,0-2.72-4.93-.26-23.87Z"/><path class="cls-17" d="M94.16,7.56a4.76,4.76,0,0,1,1.37-1s2.83,1.15,3.32,1.38C98.84,7.9,95.94,7.59,94.16,7.56Z"/><path class="cls-17" d="M110.43,15.2c-.12,0-.57-.33-1-.63h0c1.88-2.53-.19-6.19-.19-6.2C113.36,10,110.65,15.28,110.43,15.2Z"/><path class="cls-17" d="M175.41,74.66A35.34,35.34,0,0,1,171.68,76s-.94-3.68-.73-4.91.73-1.52.73-1.52l.14.2S175.76,74.45,175.41,74.66Z"/><path class="cls-11" d="M171.82,69.56a4.3,4.3,0,0,0,.81,3.78c1.44,1.65,1.6,1.86,1.6,1.86h1.65a18,18,0,0,0,.73-2.67C176.47,72.46,171.82,69.56,171.82,69.56Z"/><path class="cls-10" d="M156.43,31.44h0s-1.58,9.34-1.23,12.76a59.88,59.88,0,0,1,.23,7.13l-.5.44-.15.09s-.16.05-.36-6.73a41.79,41.79,0,0,1,1.7-12.61Z"/><path class="cls-9" d="M155.92,128.29a7.74,7.74,0,0,1-1.42-1s2.54-8.23,2.84-14.78a44.43,44.43,0,0,1-3-9.11c.21.85,2.82,5.47,4,10.18S155.92,128.29,155.92,128.29Z"/><path class="cls-17" d="M167.48,20.44v0Z"/><path class="cls-17" d="M167.48,20.44c0,.23-.72,3.56-2.06,5.12S163,28.73,163,28.73c-.86.11-1.47.15-1.47.15s-1.39.57-2-.34A6.61,6.61,0,0,1,158.45,25s5-.52,6.9-1.84A4.78,4.78,0,0,0,167.48,20.44Z"/><path class="cls-18" d="M169.29,66.4S169,67,169,67s-.12-.43-.12-.43.22-.46.24-.46S169.29,66.4,169.29,66.4Z"/><path class="cls-10" d="M154.79,51.86S151.3,63,150.14,65.68l.07,2.68S154.65,54.54,154.79,51.86Z"/><ellipse class="cls-10" cx="152.51" cy="56.16" rx="1.23" ry="1.14" transform="translate(54.41 185.73) rotate(-73.09)"/><ellipse class="cls-10" cx="150.74" cy="60.96" rx="1.23" ry="1.14" transform="translate(48.56 187.44) rotate(-73.08)"/><path class="cls-19" d="M167.16,16a2,2,0,0,0,.12-.74l0-1.33a1.92,1.92,0,0,1,.1-.67,3.74,3.74,0,0,0,.18-.83s5.42,3.95,8.86,4.11c-2.9,4.63-5.27,5.43-5.27,5.43s-1-.2-.1-1.22,2.5-3.59,1.16-4.4-3.67.94-4,1.32a4.85,4.85,0,0,0-.34.51.65.65,0,0,1-.84.26l-.11-.05a.65.65,0,0,1-.34-.82Z"/><path class="cls-9" d="M175.55,169.36a30.82,30.82,0,0,1-4.57.15c-2.23-.12-8.34.37-8.33,2.27s2.93,4.86,6.8,5.6,9,.24,11.54.53,4.54-1.74,3.76-3.92S175.55,169.36,175.55,169.36Z"/><path class="cls-9" d="M189.48,165.39s.72,1.24.22,1.91-1.81,2.33-5.25.31-10.22-5.09-10.22-5.09-3.87-2.18-3.47-4.33,4.12-1.5,4.12-1.5Z"/><path class="cls-10" d="M168.31,131.5s.41,15.08,3.32,20.87,2.93,15.7,3.45,17.61a8.28,8.28,0,0,0,5.71,5.58c3.31.85,4.06-1,4-2.18s-.78-3.12-.66-4.38a11.59,11.59,0,0,1,.65-2.4s3.79,1.31,4.68-1.19a6.33,6.33,0,0,1-.24-1.16c0-.39,1.46-9.81,1.69-11a43.79,43.79,0,0,0-.54-10.88c-.76-3.28.37-10.13.37-10.13l-11.55-2.48Z"/><path class="cls-9" d="M187.18,133.06a10.73,10.73,0,0,1-1.62,4.25s-.8,7.91-2.12,11.76a103.13,103.13,0,0,0,1.32,10.39c.66,2.49,0,7.13,0,7.13a4.4,4.4,0,0,0,1.06.25c.63.08,1.7-9.19.89-10.93s-.77-9.29-.15-11.57,1.21-9,1.85-10.14a1.44,1.44,0,0,0-.44-1.89Z"/><path class="cls-9" d="M182.82,72.53a8.67,8.67,0,0,0-4.09,6.63l2.76-.32S181.11,73.91,182.82,72.53Z"/><path class="cls-9" d="M178.37,135.62c7.68.88,12.16-1.78,12.16-1.78.12-1,.23-1.59.23-1.59l-11.55-2.48-10.9,1.72s.08,3,.44,6.88c1.86.34,4.06-3.58,4.06-3.58l5.25.76S170.69,134.74,178.37,135.62Z"/><path class="cls-13" d="M169.79,131.85s16.17,7.51,25.57-3.31a2,2,0,0,0,.46-1.13l.22-2.76a2.69,2.69,0,0,1,.28-1h0a4.07,4.07,0,0,0,.43-2.2c-.28-3.18-1-12-1.17-14.45-.17-3,3-15.11,6.56-20.28s-2.58-18.32-2.58-18.32A5,5,0,0,0,194.17,66s3.28,2.71,1.07,5.06-8.17,3.85-8.17,3.85S176,79.2,171.9,85.21A24.61,24.61,0,0,0,170,92.4c-.42,4.06-.68,13.68-1,15s-1.49,10.09-1.47,10.5S169.79,131.85,169.79,131.85Z"/><path class="cls-20" d="M195.71,67.95a2.52,2.52,0,0,0,.15-2,5.46,5.46,0,0,0-1.69,0A6.36,6.36,0,0,1,195.71,67.95Z"/><path class="cls-10" d="M174.77,133.54S187.15,110,187.61,100.6,171,117.47,171,117.47l-1.24,14.38A33.39,33.39,0,0,0,174.77,133.54Z"/><path class="cls-11" d="M171.78,103.94a39.2,39.2,0,0,0,1.13-6.3c.35-3.73,2-9.91,9.2-8.17,10.15,2.45,4.41,15.38,3.07,17.56s-6.65,11.89-6.93,12.44-8.09,12.1-10.72,14.76a.64.64,0,0,1-.88,0c-.91-.82-3-2.76-3.18-3.9-.27-1.47,1.53-6.6,1.53-6.6s4.89-13.14,5.27-13.75C170.56,109.53,170.91,107.27,171.78,103.94Z"/><path class="cls-12" d="M183,72.87a3.69,3.69,0,0,0-2.59-2.27c-1.92-.36-3-1-3.12-1.69a13.17,13.17,0,0,0-.46-2.64,19.06,19.06,0,0,1-.56-3.76c0-.06-1.44-.63-1.46-1.28s.94-2.88.87-3.07a5.81,5.81,0,0,1-.56-2.77,13.52,13.52,0,0,1,1.18-4c.71-1.32,5.66-9.39,16.31-4s1.26,13.7,1.74,19.59c0,0,.84,1.29-1.15,3.18S186,72,183,72.87Z"/><path class="cls-17" d="M193.17,70.09c2-1.89,1.15-3.18,1.15-3.18a7.82,7.82,0,0,1,.29-2.57l-4.35.42s-5.8-6.05-5.62-3.06-1.4,3.37-1.4,3.37l1.14,1.71c.29.44.05.9-.26,1.33-2.06,2.82-6.31,1.55-6.32,1.55a6.35,6.35,0,0,0,2.58.94A3.69,3.69,0,0,1,183,72.87C186,72,191.18,72,193.17,70.09Z"/><path class="cls-15" d="M176,48.15s-.95,2.17.22,3.22,2.21,2,2.21,2l-.24,2.8a2.06,2.06,0,0,0,.24,1.16l1.35,2.48a2.8,2.8,0,0,1,.33,1.56l-.09,1.13a.65.65,0,0,0,.52.69l.4.08a.65.65,0,0,0,.77-.51l.31-1.55s.92-1.19,2.57.47l1.54.78a1.69,1.69,0,0,1,.87,1.07c.33,1.24,1.06,3.67,1.73,4.12.91.61,4.82-.93,5.4-1.71s2.44-6.25,3.52-8.87S199,47.7,191,45.25,177.37,45.8,176,48.15Z"/><path class="cls-19" d="M194.17,66c.58-.78,2.44-6.25,3.52-8.87a20.48,20.48,0,0,1-7.48,2c-4.13.25-11.8-5-11.8-5l-.18,2.05a2.06,2.06,0,0,0,.24,1.16l1.35,2.48a2.8,2.8,0,0,1,.33,1.56l-.09,1.13a.65.65,0,0,0,.52.69l.4.08a.65.65,0,0,0,.77-.51l.31-1.55s.92-1.19,2.57.47l2.22,1.13s1,4.23,1.91,4.84S193.59,66.74,194.17,66Z"/><path class="cls-14" d="M194.3,66.23s2.92,2.14,1.08,4.63S181.92,77,181.31,77.63c0,0-.09-3.91,1.51-5.1,0,0,8.74-.86,10.3-2.87S194.3,66.23,194.3,66.23Z"/><path class="cls-16" d="M194.3,66.23s.38,1.42-1.18,3.43c-1.18,1.52-6.47,2.38-9,2.71h0s.86.58,2.15,3.2c3.61-1.41,8-3.26,9.09-4.72C197.22,68.37,194.3,66.23,194.3,66.23Z"/><path class="cls-10" d="M195.5,74.8s-5.26,2.3-7.8,3.32-5.33,2.42-5.33,2.42l-.84-1-1.32,2.23a32.87,32.87,0,0,0-5.88,3.46,17.91,17.91,0,0,0-3.65,4.36s5.16-5.41,9-6.83l1-.39.73-1.79.83,1S193.81,76.3,195.5,74.8Z"/><path class="cls-13" d="M175.93,147.21h0a2,2,0,0,0-.53-.9l-17.66-15.49c-.47-.42-1-.17-1.12.54l-3.16,15.87a2.37,2.37,0,0,0,.6,2L168.59,162l-.88,4.28,4.67-1.37h0a.89.89,0,0,0,.46-.7L176,148.36A2.45,2.45,0,0,0,175.93,147.21Z"/><path class="cls-13" d="M152.49,132l4.57-1.33.15,0a.68.68,0,0,1,.53.2l17.66,15.49a2,2,0,0,1,.53.9l-.69.22h0l-3.9,1.25L155.89,135h0Z"/><path class="cls-10" d="M149.44,150.63l17.66,15.49c.47.42,1,.17,1.12-.54l3.16-15.87a2.37,2.37,0,0,0-.6-2l-17.66-15.49c-.47-.42-1-.17-1.12.54l-3.16,15.87A2.37,2.37,0,0,0,149.44,150.63Z"/><path class="cls-9" d="M170.59,164.86,173.74,149a2.37,2.37,0,0,0-.6-2l-17.66-15.49a.74.74,0,0,0-.44-.2.64.64,0,0,1,.6.19l17.66,15.49a2.37,2.37,0,0,1,.6,2l-3.16,15.87c-.1.49-.35.78-.67.76C170.32,165.55,170.51,165.27,170.59,164.86Z"/><path class="cls-9" d="M165.8,140.4l1-.34a1,1,0,0,1,.62,0l.08,0c.1,0,.14.12.11.25l0,.15-2.84,1,0-.15a.7.7,0,0,1,.24-.37l.1-.08A2.21,2.21,0,0,1,165.8,140.4Z"/><polygon class="cls-9" points="165.99 142.5 164.74 141.41 167.59 140.1 168.81 141.17 165.99 142.5"/><path class="cls-13" d="M167,141.49l1-.34a1,1,0,0,1,.62,0l.08,0c.1,0,.14.12.11.25l0,.15-2.84,1,0-.15a.7.7,0,0,1,.24-.37l.1-.08A2.21,2.21,0,0,1,167,141.49Z"/><polygon class="cls-9" points="167.59 141.95 167.73 141.25 167.65 141.28 167.51 141.98 167.59 141.95"/><polygon class="cls-9" points="167.73 141.25 166.45 140.18 166.38 140.2 167.65 141.28 167.73 141.25"/><path class="cls-9" d="M160.16,135.46l1-.34a1,1,0,0,1,.62,0l.08,0c.1,0,.14.12.11.25l0,.15-2.84,1,0-.15a.7.7,0,0,1,.24-.37l.1-.08A2.22,2.22,0,0,1,160.16,135.46Z"/><polygon class="cls-9" points="160.35 137.56 159.11 136.47 161.95 135.16 163.18 136.23 160.35 137.56"/><path class="cls-13" d="M161.4,136.55l1-.34a1,1,0,0,1,.62,0l.08,0c.1,0,.14.12.11.25l0,.15-2.84,1,0-.15a.7.7,0,0,1,.24-.37l.1-.08A2.21,2.21,0,0,1,161.4,136.55Z"/><polygon class="cls-9" points="161.96 137.02 162.09 136.32 162.01 136.35 161.87 137.05 161.96 137.02"/><polygon class="cls-9" points="162.09 136.32 160.81 135.24 160.74 135.27 162.01 136.35 162.09 136.32"/><path class="cls-13" d="M168.52,137.93l-.59,3-.83-.73.57-2.89a1.5,1.5,0,0,0-.44-1.28l-3.62-3.18c-.32-.28-.66-.17-.74.25L162.3,136l-.83-.73.59-3a.91.91,0,0,1,1.63-.55l3.87,3.39A3.3,3.3,0,0,1,168.52,137.93Z"/><path class="cls-13" d="M162.29,132.5h1.59l4.28,4.17V139l-.24,1.91-1,.36.15-2.39.07-1.65-.85-1.28s-1.62-1.37-1.63-1.41S162.29,132.5,162.29,132.5Z"/><polygon class="cls-13" points="161.25 136.32 162.3 135.97 162.73 133.84 161.75 133.82 161.46 133.84 161.25 136.32"/><path class="cls-13" d="M161.61,131.77l1.13-.38s-.33.51-.33.5L162,132Z"/><path class="cls-9" d="M167.48,138.29l-.59,3-.83-.73.57-2.89a1.5,1.5,0,0,0-.44-1.28l-3.62-3.18a.41.41,0,0,0-.74.25l-.57,2.89-.83-.73.59-3a.91.91,0,0,1,1.63-.55l3.87,3.39A3.3,3.3,0,0,1,167.48,138.29Z"/><path class="cls-12" d="M163.76,130.24a16.86,16.86,0,0,0-.74,3.7,5.41,5.41,0,0,0,2.57,2.69c.95.35.63-.7.9-1.33a8.24,8.24,0,0,0,.34-2Z"/><path class="cls-17" d="M166.83,133.28l-3.07-3s-.18.6-.36,1.34a7.79,7.79,0,0,0,3.2,3.4A10.44,10.44,0,0,0,166.83,133.28Z"/><path class="cls-11" d="M163.5,130.44s.93,3.33,3.8,3.88l-.72-3.61s-2.42-.84-2.49-.85S163.5,130.44,163.5,130.44Z"/><g class="cls-1"><polygon class="cls-21" points="179.45 287.55 190.59 272.5 181.5 306.12 147.59 311.37 122.76 282.99 179.45 287.55"/><polygon class="cls-22" points="190.59 272.5 165.76 258.16 131.84 263.41 122.76 282.99 147.59 297.32 181.5 292.08 190.59 272.5"/><polygon class="cls-23" points="189.92 272.11 181.18 290.95 147.27 296.2 123.1 282.25 122.76 282.99 147.59 297.32 181.5 292.08 190.59 272.5 189.92 272.11"/><polygon class="cls-24" points="181.5 292.08 181.5 306.12 147.59 311.37 147.59 297.32 181.5 292.08"/><polygon class="cls-25" points="190.59 272.5 190.59 286.54 181.5 306.12 181.5 292.08 190.59 272.5"/><polygon class="cls-26" points="122.76 282.99 122.76 297.03 147.59 311.37 147.59 297.32 122.76 282.99"/></g><polygon class="cls-27" points="179.45 259.04 190.59 243.99 181.5 277.62 147.59 282.86 122.76 254.48 179.45 259.04"/><polygon class="cls-28" points="190.59 243.99 165.76 229.65 131.84 234.9 122.76 254.48 147.59 268.82 181.5 263.57 190.59 243.99"/><polygon class="cls-23" points="189.92 243.6 181.18 262.44 147.27 267.69 123.1 253.74 122.76 254.48 147.59 268.82 181.5 263.57 190.59 243.99 189.92 243.6"/><polygon class="cls-29" points="181.5 263.57 181.5 277.62 147.59 282.86 147.59 268.82 181.5 263.57"/><polygon class="cls-30" points="190.59 243.99 190.59 258.03 181.5 277.62 181.5 263.57 190.59 243.99"/><polygon class="cls-31" points="122.76 254.48 122.76 268.53 147.59 282.86 147.59 268.82 122.76 254.48"/><path class="cls-32" d="M167.23,254.59c-5.83,3.37-15.28,3.37-21.11,0s-5.83-8.82,0-12.19,15.28-3.37,21.11,0S173.06,251.22,167.23,254.59Z"/><polygon class="cls-33" points="133.94 229.63 132.56 222.69 133.66 222.75 134.77 224.63 133.94 229.63"/><path class="cls-34" d="M180.74,220l-1.37-6.86s-2.29,7-2.27,7.09S180.74,220,180.74,220Z"/><ellipse class="cls-34" cx="155.98" cy="218.01" rx="23.89" ry="19.79" transform="translate(-39.65 34.74) rotate(-11.29)"/><ellipse class="cls-34" cx="157.37" cy="224.95" rx="23.89" ry="19.79" transform="translate(-40.98 35.15) rotate(-11.29)"/><path class="cls-33" d="M138,214.68a18.17,18.17,0,0,0-4,14.95c2.14,10.72,14.36,17.31,27.3,14.73a26.53,26.53,0,0,0,15.31-8.85Z"/><ellipse class="cls-35" cx="157.37" cy="224.95" rx="22.82" ry="18.9" transform="translate(-40.98 35.15) rotate(-11.29)"/><ellipse class="cls-36" cx="157.37" cy="224.95" rx="18.32" ry="15.18" transform="translate(-40.98 35.15) rotate(-11.29)"/><path class="cls-34" d="M175.33,221.37c-.07-.34-.15-.67-.25-1,.92,7.87-5.64,15.55-15.15,17.45s-18.51-2.67-20.69-10.29c0,.34.09.68.16,1,1.64,8.22,11,13.28,20.94,11.3S177,229.59,175.33,221.37Z"/><path class="cls-34" d="M161.08,225.44l-4.39-2.37c-3.36,1.54-9.62,4.41-14.62,6.74a14.93,14.93,0,0,0,10.55,6.41Z"/><path class="cls-34" d="M157.48,236.33c.6-.06,1.2-.15,1.8-.27a18.28,18.28,0,0,0,10.42-6l-7.16-3.86Z"/><path class="cls-34" d="M152,220.53l-8.26-4.46c-1.89,2.42-3.49,5-3.42,7.91Z"/><path class="cls-33" d="M153.86,212c9.92-2,19.29,3.08,20.94,11.3a12.81,12.81,0,0,1,0,4.95,13,13,0,0,0,.53-6.93c-1.64-8.22-11-13.28-20.94-11.3-7.91,1.58-13.78,7.16-15,13.52C141.34,218.08,146.78,213.46,153.86,212Z"/><path class="cls-33" d="M132.56,222.69a16.61,16.61,0,0,0,1.6,4.49c.16-1.68.39-4.18.39-4.18l.93-4.11,1.22-1.47,2.11-2.27L137.19,207C133.3,211.46,131.44,217.08,132.56,222.69Z"/><rect class="cls-33" x="177.77" y="210.56" width="0.67" height="4.52" rx="0.29" ry="0.29" transform="translate(-38.21 38.97) rotate(-11.29)"/><rect class="cls-33" x="174.68" y="205.86" width="0.88" height="5.5" rx="0.33" ry="0.33" transform="translate(-37.44 38.3) rotate(-11.29)"/><rect class="cls-33" x="171.01" y="202.82" width="1.12" height="5.52" rx="0.38" ry="0.38" transform="translate(-36.92 37.55) rotate(-11.29)"/><rect class="cls-33" x="166.05" y="200.39" width="1.12" height="5.94" rx="0.38" ry="0.38" transform="translate(-36.58 36.54) rotate(-11.29)"/><rect class="cls-33" x="161.3" y="199.04" width="1.12" height="6.3" rx="0.38" ry="0.38" transform="translate(-36.44 35.59) rotate(-11.29)"/><rect class="cls-33" x="156.75" y="198.92" width="1.12" height="6.19" rx="0.38" ry="0.38" transform="matrix(0.98, -0.2, 0.2, 0.98, -36.49, 34.69)"/><rect class="cls-33" x="152.34" y="199.44" width="1.12" height="6.23" rx="0.38" ry="0.38" transform="translate(-36.69 33.84) rotate(-11.29)"/><rect class="cls-33" x="148.04" y="200.65" width="1.12" height="6.06" rx="0.38" ry="0.38" transform="translate(-36.99 33.02) rotate(-11.29)"/><rect class="cls-33" x="143.91" y="202.59" width="1.12" height="5.98" rx="0.38" ry="0.38" transform="translate(-37.44 32.25) rotate(-11.29)"/><rect class="cls-33" x="139.96" y="205.36" width="1.12" height="6.18" rx="0.38" ry="0.38" transform="translate(-38.08 31.53) rotate(-11.29)"/></g></g></svg>