<svg xmlns="http://www.w3.org/2000/svg" xmlns:xlink="http://www.w3.org/1999/xlink" viewBox="0 0 208.64 186.1"><defs><style>.cls-1{isolation:isolate;}.cls-2{opacity:0.82;}.cls-13,.cls-2,.cls-4,.cls-5,.cls-6,.cls-7{mix-blend-mode:screen;}.cls-3{fill:#782eed;}.cls-4{fill:#8627f4;}.cls-4,.cls-5{opacity:0.14;}.cls-13,.cls-17,.cls-19,.cls-23,.cls-5,.cls-6,.cls-7,.cls-8,.cls-9{fill:none;}.cls-5,.cls-6,.cls-7{stroke:#45a5f4;}.cls-13,.cls-17,.cls-19,.cls-5,.cls-6,.cls-7{stroke-miterlimit:10;}.cls-5{stroke-width:4px;}.cls-6{stroke-width:3.87px;}.cls-6,.cls-7{opacity:0.2;}.cls-7{stroke-width:6px;}.cls-8{stroke:#3b6be2;}.cls-17,.cls-23,.cls-8,.cls-9{stroke-linecap:round;}.cls-23,.cls-8,.cls-9{stroke-linejoin:round;stroke-width:1.44px;}.cls-8,.cls-9{opacity:0.29;}.cls-23,.cls-9{stroke:#9f39f7;}.cls-10{opacity:0.8;}.cls-11{fill:#4410c4;}.cls-12{fill:url(#linear-gradient);}.cls-13{stroke:#428a9b;opacity:0.39;}.cls-13,.cls-17{stroke-width:1.04px;}.cls-14{opacity:0.75;fill:url(#radial-gradient);}.cls-15{fill:#fff;}.cls-16{fill:url(#linear-gradient-2);}.cls-17{stroke:#fff;}.cls-18{fill:#cac6fc;mix-blend-mode:multiply;}.cls-19{stroke:#00d7ff;stroke-width:0.5px;}.cls-20{fill:#00d7ff;}.cls-21{fill:#532498;}.cls-22{fill:#33318d;}.cls-23{opacity:0.1;}</style><linearGradient id="linear-gradient" x1="154.56" y1="75.28" x2="67.11" y2="151.25" gradientUnits="userSpaceOnUse"><stop offset="0" stop-color="#00d7ff"/><stop offset="0.15" stop-color="#1e9ef5"/><stop offset="0.29" stop-color="#376cec"/><stop offset="0.42" stop-color="#4a48e5"/><stop offset="0.53" stop-color="#5632e1"/><stop offset="0.59" stop-color="#5a2ae0"/></linearGradient><radialGradient id="radial-gradient" cx="110.29" cy="113.74" r="24.92" gradientUnits="userSpaceOnUse"><stop offset="0" stop-color="#202368"/><stop offset="0.1" stop-color="#251f70"/><stop offset="0.69" stop-color="#42099c"/><stop offset="0.98" stop-color="#4d00ad"/></radialGradient><linearGradient id="linear-gradient-2" x1="119.39" y1="103.39" x2="101.13" y2="124.73" gradientUnits="userSpaceOnUse"><stop offset="0" stop-color="#00d7ff"/><stop offset="0.13" stop-color="#259ef0"/><stop offset="0.25" stop-color="#466ce2"/><stop offset="0.37" stop-color="#5d48d8"/><stop offset="0.46" stop-color="#6c32d2"/><stop offset="0.52" stop-color="#712ad0"/><stop offset="0.66" stop-color="#612cc1"/><stop offset="0.95" stop-color="#363098"/><stop offset="1" stop-color="#2e3191"/></linearGradient></defs><title>Safe2</title><g class="cls-1"><g id="Шар_2" data-name="Шар 2"><g id="OBJECTS"><g class="cls-2"><circle class="cls-3" cx="96.59" cy="28.92" r="0.99"/><circle class="cls-3" cx="96.59" cy="35.07" r="0.99"/><circle class="cls-3" cx="144.54" cy="35.07" r="0.99"/><circle class="cls-3" cx="69.19" cy="41.21" r="0.99"/><circle class="cls-3" cx="89.74" cy="41.21" r="0.99"/><circle class="cls-3" cx="96.59" cy="41.21" r="0.99"/><circle class="cls-3" cx="117.14" cy="41.21" r="0.99"/><circle class="cls-3" cx="130.84" cy="41.21" r="0.99"/><circle class="cls-3" cx="144.54" cy="41.21" r="0.99"/><circle class="cls-3" cx="158.24" cy="41.21" r="0.99"/><circle class="cls-3" cx="69.19" cy="47.36" r="0.99"/><circle class="cls-3" cx="82.89" cy="47.36" r="0.99"/><circle class="cls-3" cx="89.74" cy="47.36" r="0.99"/><circle class="cls-3" cx="96.59" cy="47.36" r="0.99"/><circle class="cls-3" cx="103.44" cy="47.36" r="0.99"/><circle class="cls-3" cx="117.14" cy="47.36" r="0.99"/><circle class="cls-3" cx="130.84" cy="47.36" r="0.99"/><circle class="cls-3" cx="137.69" cy="47.36" r="0.99"/><circle class="cls-3" cx="144.54" cy="47.36" r="0.99"/><circle class="cls-3" cx="151.39" cy="47.36" r="0.99"/><circle class="cls-3" cx="158.24" cy="47.36" r="0.99"/><circle class="cls-3" cx="62.34" cy="53.5" r="0.99"/><circle class="cls-3" cx="69.19" cy="53.5" r="0.99"/><circle class="cls-3" cx="82.89" cy="53.5" r="0.99"/><circle class="cls-3" cx="89.74" cy="53.5" r="0.99"/><circle class="cls-3" cx="96.59" cy="53.5" r="0.99"/><circle class="cls-3" cx="103.44" cy="53.5" r="0.99"/><circle class="cls-3" cx="110.29" cy="53.5" r="0.99"/><circle class="cls-3" cx="117.14" cy="53.5" r="0.99"/><circle class="cls-3" cx="123.99" cy="53.5" r="0.99"/><circle class="cls-3" cx="130.84" cy="53.5" r="0.99"/><circle class="cls-3" cx="137.69" cy="53.5" r="0.99"/><circle class="cls-3" cx="144.54" cy="53.5" r="0.99"/><circle class="cls-3" cx="151.39" cy="53.5" r="0.99"/><circle class="cls-3" cx="158.24" cy="53.5" r="0.99"/><circle class="cls-3" cx="62.34" cy="59.65" r="0.99"/><circle class="cls-3" cx="69.19" cy="59.65" r="0.99"/><circle class="cls-3" cx="76.04" cy="59.65" r="0.99"/><circle class="cls-3" cx="82.89" cy="59.65" r="0.99"/><circle class="cls-3" cx="89.74" cy="59.65" r="0.99"/><circle class="cls-3" cx="96.59" cy="59.65" r="0.99"/><circle class="cls-3" cx="103.44" cy="59.65" r="0.99"/><circle class="cls-3" cx="110.29" cy="59.65" r="0.99"/><circle class="cls-3" cx="117.14" cy="59.65" r="0.99"/><circle class="cls-3" cx="123.99" cy="59.65" r="0.99"/><circle class="cls-3" cx="130.84" cy="59.65" r="0.99"/><circle class="cls-3" cx="137.69" cy="59.65" r="0.99"/><circle class="cls-3" cx="144.54" cy="59.65" r="0.99"/><circle class="cls-3" cx="151.39" cy="59.65" r="0.99"/><circle class="cls-3" cx="158.24" cy="59.65" r="0.99"/><circle class="cls-3" cx="62.34" cy="65.79" r="0.99"/><circle class="cls-3" cx="69.19" cy="65.79" r="0.99"/><circle class="cls-3" cx="76.04" cy="65.79" r="0.99"/><circle class="cls-3" cx="82.89" cy="65.79" r="0.99"/><circle class="cls-3" cx="89.74" cy="65.79" r="0.99"/><circle class="cls-3" cx="96.59" cy="65.79" r="0.99"/><circle class="cls-3" cx="103.44" cy="65.79" r="0.99"/><circle class="cls-3" cx="110.29" cy="65.79" r="0.99"/><circle class="cls-3" cx="117.14" cy="65.79" r="0.99"/><circle class="cls-3" cx="123.99" cy="65.79" r="0.99"/><circle class="cls-3" cx="130.84" cy="65.79" r="0.99"/><circle class="cls-3" cx="137.69" cy="65.79" r="0.99"/><circle class="cls-3" cx="144.54" cy="65.79" r="0.99"/><circle class="cls-3" cx="151.39" cy="65.79" r="0.99"/><circle class="cls-3" cx="158.24" cy="65.79" r="0.99"/><circle class="cls-3" cx="62.34" cy="71.94" r="0.99"/><circle class="cls-3" cx="69.19" cy="71.94" r="0.99"/><circle class="cls-3" cx="76.04" cy="71.94" r="0.99"/><circle class="cls-3" cx="82.89" cy="71.94" r="0.99"/><circle class="cls-3" cx="89.74" cy="71.94" r="0.99"/><circle class="cls-3" cx="96.59" cy="71.94" r="0.99"/><circle class="cls-3" cx="103.44" cy="71.94" r="0.99"/><circle class="cls-3" cx="110.29" cy="71.94" r="0.99"/><circle class="cls-3" cx="117.14" cy="71.94" r="0.99"/><circle class="cls-3" cx="123.99" cy="71.94" r="0.99"/><circle class="cls-3" cx="130.84" cy="71.94" r="0.99"/><circle class="cls-3" cx="137.69" cy="71.94" r="0.99"/><circle class="cls-3" cx="144.54" cy="71.94" r="0.99"/><circle class="cls-3" cx="151.39" cy="71.94" r="0.99"/><circle class="cls-3" cx="158.24" cy="71.94" r="0.99"/><circle class="cls-3" cx="62.34" cy="78.09" r="0.99"/><circle class="cls-3" cx="69.19" cy="78.09" r="0.99"/><circle class="cls-3" cx="76.04" cy="78.09" r="0.99"/><circle class="cls-3" cx="82.89" cy="78.09" r="0.99"/><circle class="cls-3" cx="89.74" cy="78.09" r="0.99"/><circle class="cls-3" cx="96.59" cy="78.09" r="0.99"/><circle class="cls-3" cx="103.44" cy="78.09" r="0.99"/><circle class="cls-3" cx="110.29" cy="78.09" r="0.99"/><circle class="cls-3" cx="117.14" cy="78.09" r="0.99"/><circle class="cls-3" cx="123.99" cy="78.09" r="0.99"/><circle class="cls-3" cx="130.84" cy="78.09" r="0.99"/><circle class="cls-3" cx="137.69" cy="78.09" r="0.99"/><circle class="cls-3" cx="144.54" cy="78.09" r="0.99"/><circle class="cls-3" cx="151.39" cy="78.09" r="0.99"/><circle class="cls-3" cx="158.24" cy="78.09" r="0.99"/><circle class="cls-3" cx="62.34" cy="84.23" r="0.99"/><circle class="cls-3" cx="69.19" cy="84.23" r="0.99"/><circle class="cls-3" cx="76.04" cy="84.23" r="0.99"/><circle class="cls-3" cx="82.89" cy="84.23" r="0.99"/><circle class="cls-3" cx="89.74" cy="84.23" r="0.99"/><circle class="cls-3" cx="96.59" cy="84.23" r="0.99"/><circle class="cls-3" cx="103.44" cy="84.23" r="0.99"/><circle class="cls-3" cx="110.29" cy="84.23" r="0.99"/><circle class="cls-3" cx="117.14" cy="84.23" r="0.99"/><circle class="cls-3" cx="123.99" cy="84.23" r="0.99"/><circle class="cls-3" cx="130.84" cy="84.23" r="0.99"/><circle class="cls-3" cx="137.69" cy="84.23" r="0.99"/><circle class="cls-3" cx="144.54" cy="84.23" r="0.99"/><circle class="cls-3" cx="151.39" cy="84.23" r="0.99"/><circle class="cls-3" cx="158.24" cy="84.23" r="0.99"/><circle class="cls-3" cx="62.34" cy="90.38" r="0.99"/><circle class="cls-3" cx="69.19" cy="90.38" r="0.99"/><circle class="cls-3" cx="76.04" cy="90.38" r="0.99"/><circle class="cls-3" cx="82.89" cy="90.38" r="0.99"/><circle class="cls-3" cx="89.74" cy="90.38" r="0.99"/><circle class="cls-3" cx="96.59" cy="90.38" r="0.99"/><circle class="cls-3" cx="103.44" cy="90.38" r="0.99"/><circle class="cls-3" cx="110.29" cy="90.38" r="0.99"/><circle class="cls-3" cx="117.14" cy="90.38" r="0.99"/><circle class="cls-3" cx="123.99" cy="90.38" r="0.99"/><circle class="cls-3" cx="130.84" cy="90.38" r="0.99"/><circle class="cls-3" cx="137.69" cy="90.38" r="0.99"/><circle class="cls-3" cx="144.54" cy="90.38" r="0.99"/><circle class="cls-3" cx="151.39" cy="90.38" r="0.99"/><circle class="cls-3" cx="158.24" cy="90.38" r="0.99"/><circle class="cls-3" cx="62.34" cy="96.52" r="0.99"/><circle class="cls-3" cx="69.19" cy="96.52" r="0.99"/><circle class="cls-3" cx="76.04" cy="96.52" r="0.99"/><circle class="cls-3" cx="82.89" cy="96.52" r="0.99"/><circle class="cls-3" cx="89.74" cy="96.52" r="0.99"/><circle class="cls-3" cx="96.59" cy="96.52" r="0.99"/><circle class="cls-3" cx="103.44" cy="96.52" r="0.99"/><circle class="cls-3" cx="110.29" cy="96.52" r="0.99"/><circle class="cls-3" cx="117.14" cy="96.52" r="0.99"/><circle class="cls-3" cx="123.99" cy="96.52" r="0.99"/><circle class="cls-3" cx="130.84" cy="96.52" r="0.99"/><circle class="cls-3" cx="137.69" cy="96.52" r="0.99"/><circle class="cls-3" cx="144.54" cy="96.52" r="0.99"/><circle class="cls-3" cx="151.39" cy="96.52" r="0.99"/><circle class="cls-3" cx="158.24" cy="96.52" r="0.99"/><circle class="cls-3" cx="62.34" cy="102.67" r="0.99"/><circle class="cls-3" cx="69.19" cy="102.67" r="0.99"/><circle class="cls-3" cx="76.04" cy="102.67" r="0.99"/><circle class="cls-3" cx="82.89" cy="102.67" r="0.99"/><circle class="cls-3" cx="89.74" cy="102.67" r="0.99"/><circle class="cls-3" cx="96.59" cy="102.67" r="0.99"/><circle class="cls-3" cx="103.44" cy="102.67" r="0.99"/><circle class="cls-3" cx="110.29" cy="102.67" r="0.99"/><circle class="cls-3" cx="117.14" cy="102.67" r="0.99"/><circle class="cls-3" cx="123.99" cy="102.67" r="0.99"/><circle class="cls-3" cx="130.84" cy="102.67" r="0.99"/><circle class="cls-3" cx="137.69" cy="102.67" r="0.99"/><circle class="cls-3" cx="144.54" cy="102.67" r="0.99"/><circle class="cls-3" cx="151.39" cy="102.67" r="0.99"/><circle class="cls-3" cx="158.24" cy="102.67" r="0.99"/><circle class="cls-3" cx="62.34" cy="108.81" r="0.99"/><circle class="cls-3" cx="69.19" cy="108.81" r="0.99"/><circle class="cls-3" cx="76.04" cy="108.81" r="0.99"/><circle class="cls-3" cx="82.89" cy="108.81" r="0.99"/><circle class="cls-3" cx="89.74" cy="108.81" r="0.99"/><circle class="cls-3" cx="96.59" cy="108.81" r="0.99"/><circle class="cls-3" cx="103.44" cy="108.81" r="0.99"/><circle class="cls-3" cx="110.29" cy="108.81" r="0.99"/><circle class="cls-3" cx="117.14" cy="108.81" r="0.99"/><circle class="cls-3" cx="123.99" cy="108.81" r="0.99"/><circle class="cls-3" cx="130.84" cy="108.81" r="0.99"/><circle class="cls-3" cx="137.69" cy="108.81" r="0.99"/><circle class="cls-3" cx="144.54" cy="108.81" r="0.99"/><circle class="cls-3" cx="151.39" cy="108.81" r="0.99"/><circle class="cls-3" cx="158.24" cy="108.81" r="0.99"/><circle class="cls-3" cx="62.34" cy="114.96" r="0.99"/><circle class="cls-3" cx="69.19" cy="114.96" r="0.99"/><circle class="cls-3" cx="76.04" cy="114.96" r="0.99"/><circle class="cls-3" cx="82.89" cy="114.96" r="0.99"/><circle class="cls-3" cx="89.74" cy="114.96" r="0.99"/><circle class="cls-3" cx="96.59" cy="114.96" r="0.99"/><circle class="cls-3" cx="103.44" cy="114.96" r="0.99"/><circle class="cls-3" cx="110.29" cy="114.96" r="0.99"/><circle class="cls-3" cx="117.14" cy="114.96" r="0.99"/><circle class="cls-3" cx="123.99" cy="114.96" r="0.99"/><circle class="cls-3" cx="130.84" cy="114.96" r="0.99"/><circle class="cls-3" cx="137.69" cy="114.96" r="0.99"/><circle class="cls-3" cx="144.54" cy="114.96" r="0.99"/><circle class="cls-3" cx="151.39" cy="114.96" r="0.99"/><circle class="cls-3" cx="158.24" cy="114.96" r="0.99"/><circle class="cls-3" cx="62.34" cy="121.1" r="0.99"/><circle class="cls-3" cx="69.19" cy="121.1" r="0.99"/><circle class="cls-3" cx="76.04" cy="121.1" r="0.99"/><circle class="cls-3" cx="82.89" cy="121.1" r="0.99"/><circle class="cls-3" cx="89.74" cy="121.1" r="0.99"/><circle class="cls-3" cx="96.59" cy="121.1" r="0.99"/><circle class="cls-3" cx="103.44" cy="121.1" r="0.99"/><circle class="cls-3" cx="110.29" cy="121.1" r="0.99"/><circle class="cls-3" cx="117.14" cy="121.1" r="0.99"/><circle class="cls-3" cx="123.99" cy="121.1" r="0.99"/><circle class="cls-3" cx="130.84" cy="121.1" r="0.99"/><circle class="cls-3" cx="137.69" cy="121.1" r="0.99"/><circle class="cls-3" cx="144.54" cy="121.1" r="0.99"/><circle class="cls-3" cx="151.39" cy="121.1" r="0.99"/><circle class="cls-3" cx="158.24" cy="121.1" r="0.99"/><circle class="cls-3" cx="62.34" cy="127.25" r="0.99"/><circle class="cls-3" cx="69.19" cy="127.25" r="0.99"/><circle class="cls-3" cx="76.04" cy="127.25" r="0.99"/><circle class="cls-3" cx="82.89" cy="127.25" r="0.99"/><circle class="cls-3" cx="89.74" cy="127.25" r="0.99"/><circle class="cls-3" cx="96.59" cy="127.25" r="0.99"/><circle class="cls-3" cx="103.44" cy="127.25" r="0.99"/><circle class="cls-3" cx="110.29" cy="127.25" r="0.99"/><circle class="cls-3" cx="117.14" cy="127.25" r="0.99"/><circle class="cls-3" cx="123.99" cy="127.25" r="0.99"/><circle class="cls-3" cx="130.84" cy="127.25" r="0.99"/><circle class="cls-3" cx="137.69" cy="127.25" r="0.99"/><circle class="cls-3" cx="144.54" cy="127.25" r="0.99"/><circle class="cls-3" cx="151.39" cy="127.25" r="0.99"/><circle class="cls-3" cx="158.24" cy="127.25" r="0.99"/></g><g class="cls-2"><circle class="cls-3" cx="96.59" cy="28.92" r="0.99"/><circle class="cls-3" cx="96.59" cy="35.07" r="0.99"/><circle class="cls-3" cx="144.54" cy="35.07" r="0.99"/><circle class="cls-3" cx="69.19" cy="41.21" r="0.99"/><circle class="cls-3" cx="89.74" cy="41.21" r="0.99"/><circle class="cls-3" cx="96.59" cy="41.21" r="0.99"/><circle class="cls-3" cx="117.14" cy="41.21" r="0.99"/><circle class="cls-3" cx="130.84" cy="41.21" r="0.99"/><circle class="cls-3" cx="144.54" cy="41.21" r="0.99"/><circle class="cls-3" cx="158.24" cy="41.21" r="0.99"/><circle class="cls-3" cx="69.19" cy="47.36" r="0.99"/><circle class="cls-3" cx="82.89" cy="47.36" r="0.99"/><circle class="cls-3" cx="89.74" cy="47.36" r="0.99"/><circle class="cls-3" cx="96.59" cy="47.36" r="0.99"/><circle class="cls-3" cx="103.44" cy="47.36" r="0.99"/><circle class="cls-3" cx="117.14" cy="47.36" r="0.99"/><circle class="cls-3" cx="130.84" cy="47.36" r="0.99"/><circle class="cls-3" cx="137.69" cy="47.36" r="0.99"/><circle class="cls-3" cx="144.54" cy="47.36" r="0.99"/><circle class="cls-3" cx="151.39" cy="47.36" r="0.99"/><circle class="cls-3" cx="158.24" cy="47.36" r="0.99"/><circle class="cls-3" cx="62.34" cy="53.5" r="0.99"/><circle class="cls-3" cx="69.19" cy="53.5" r="0.99"/><circle class="cls-3" cx="82.89" cy="53.5" r="0.99"/><circle class="cls-3" cx="89.74" cy="53.5" r="0.99"/><circle class="cls-3" cx="96.59" cy="53.5" r="0.99"/><circle class="cls-3" cx="103.44" cy="53.5" r="0.99"/><circle class="cls-3" cx="110.29" cy="53.5" r="0.99"/><circle class="cls-3" cx="117.14" cy="53.5" r="0.99"/><circle class="cls-3" cx="123.99" cy="53.5" r="0.99"/><circle class="cls-3" cx="130.84" cy="53.5" r="0.99"/><circle class="cls-3" cx="137.69" cy="53.5" r="0.99"/><circle class="cls-3" cx="144.54" cy="53.5" r="0.99"/><circle class="cls-3" cx="151.39" cy="53.5" r="0.99"/><circle class="cls-3" cx="158.24" cy="53.5" r="0.99"/><circle class="cls-3" cx="62.34" cy="59.65" r="0.99"/><circle class="cls-3" cx="69.19" cy="59.65" r="0.99"/><circle class="cls-3" cx="76.04" cy="59.65" r="0.99"/><circle class="cls-3" cx="82.89" cy="59.65" r="0.99"/><circle class="cls-3" cx="89.74" cy="59.65" r="0.99"/><circle class="cls-3" cx="96.59" cy="59.65" r="0.99"/><circle class="cls-3" cx="103.44" cy="59.65" r="0.99"/><circle class="cls-3" cx="110.29" cy="59.65" r="0.99"/><circle class="cls-3" cx="117.14" cy="59.65" r="0.99"/><circle class="cls-3" cx="123.99" cy="59.65" r="0.99"/><circle class="cls-3" cx="130.84" cy="59.65" r="0.99"/><circle class="cls-3" cx="137.69" cy="59.65" r="0.99"/><circle class="cls-3" cx="144.54" cy="59.65" r="0.99"/><circle class="cls-3" cx="151.39" cy="59.65" r="0.99"/><circle class="cls-3" cx="158.24" cy="59.65" r="0.99"/><circle class="cls-3" cx="62.34" cy="65.79" r="0.99"/><circle class="cls-3" cx="69.19" cy="65.79" r="0.99"/><circle class="cls-3" cx="76.04" cy="65.79" r="0.99"/><circle class="cls-3" cx="82.89" cy="65.79" r="0.99"/><circle class="cls-3" cx="89.74" cy="65.79" r="0.99"/><circle class="cls-3" cx="96.59" cy="65.79" r="0.99"/><circle class="cls-3" cx="103.44" cy="65.79" r="0.99"/><circle class="cls-3" cx="110.29" cy="65.79" r="0.99"/><circle class="cls-3" cx="117.14" cy="65.79" r="0.99"/><circle class="cls-3" cx="123.99" cy="65.79" r="0.99"/><circle class="cls-3" cx="130.84" cy="65.79" r="0.99"/><circle class="cls-3" cx="137.69" cy="65.79" r="0.99"/><circle class="cls-3" cx="144.54" cy="65.79" r="0.99"/><circle class="cls-3" cx="151.39" cy="65.79" r="0.99"/><circle class="cls-3" cx="158.24" cy="65.79" r="0.99"/><circle class="cls-3" cx="62.34" cy="71.94" r="0.99"/><circle class="cls-3" cx="69.19" cy="71.94" r="0.99"/><circle class="cls-3" cx="76.04" cy="71.94" r="0.99"/><circle class="cls-3" cx="82.89" cy="71.94" r="0.99"/><circle class="cls-3" cx="89.74" cy="71.94" r="0.99"/><circle class="cls-3" cx="96.59" cy="71.94" r="0.99"/><circle class="cls-3" cx="103.44" cy="71.94" r="0.99"/><circle class="cls-3" cx="110.29" cy="71.94" r="0.99"/><circle class="cls-3" cx="117.14" cy="71.94" r="0.99"/><circle class="cls-3" cx="123.99" cy="71.94" r="0.99"/><circle class="cls-3" cx="130.84" cy="71.94" r="0.99"/><circle class="cls-3" cx="137.69" cy="71.94" r="0.99"/><circle class="cls-3" cx="144.54" cy="71.94" r="0.99"/><circle class="cls-3" cx="151.39" cy="71.94" r="0.99"/><circle class="cls-3" cx="158.24" cy="71.94" r="0.99"/><circle class="cls-3" cx="62.34" cy="78.09" r="0.99"/><circle class="cls-3" cx="69.19" cy="78.09" r="0.99"/><circle class="cls-3" cx="76.04" cy="78.09" r="0.99"/><circle class="cls-3" cx="82.89" cy="78.09" r="0.99"/><circle class="cls-3" cx="89.74" cy="78.09" r="0.99"/><circle class="cls-3" cx="96.59" cy="78.09" r="0.99"/><circle class="cls-3" cx="103.44" cy="78.09" r="0.99"/><circle class="cls-3" cx="110.29" cy="78.09" r="0.99"/><circle class="cls-3" cx="117.14" cy="78.09" r="0.99"/><circle class="cls-3" cx="123.99" cy="78.09" r="0.99"/><circle class="cls-3" cx="130.84" cy="78.09" r="0.99"/><circle class="cls-3" cx="137.69" cy="78.09" r="0.99"/><circle class="cls-3" cx="144.54" cy="78.09" r="0.99"/><circle class="cls-3" cx="151.39" cy="78.09" r="0.99"/><circle class="cls-3" cx="158.24" cy="78.09" r="0.99"/><circle class="cls-3" cx="62.34" cy="84.23" r="0.99"/><circle class="cls-3" cx="69.19" cy="84.23" r="0.99"/><circle class="cls-3" cx="76.04" cy="84.23" r="0.99"/><circle class="cls-3" cx="82.89" cy="84.23" r="0.99"/><circle class="cls-3" cx="89.74" cy="84.23" r="0.99"/><circle class="cls-3" cx="96.59" cy="84.23" r="0.99"/><circle class="cls-3" cx="103.44" cy="84.23" r="0.99"/><circle class="cls-3" cx="110.29" cy="84.23" r="0.99"/><circle class="cls-3" cx="117.14" cy="84.23" r="0.99"/><circle class="cls-3" cx="123.99" cy="84.23" r="0.99"/><circle class="cls-3" cx="130.84" cy="84.23" r="0.99"/><circle class="cls-3" cx="137.69" cy="84.23" r="0.99"/><circle class="cls-3" cx="144.54" cy="84.23" r="0.99"/><circle class="cls-3" cx="151.39" cy="84.23" r="0.99"/><circle class="cls-3" cx="158.24" cy="84.23" r="0.99"/><circle class="cls-3" cx="62.34" cy="90.38" r="0.99"/><circle class="cls-3" cx="69.19" cy="90.38" r="0.99"/><circle class="cls-3" cx="76.04" cy="90.38" r="0.99"/><circle class="cls-3" cx="82.89" cy="90.38" r="0.99"/><circle class="cls-3" cx="89.74" cy="90.38" r="0.99"/><circle class="cls-3" cx="96.59" cy="90.38" r="0.99"/><circle class="cls-3" cx="103.44" cy="90.38" r="0.99"/><circle class="cls-3" cx="110.29" cy="90.38" r="0.99"/><circle class="cls-3" cx="117.14" cy="90.38" r="0.99"/><circle class="cls-3" cx="123.99" cy="90.38" r="0.99"/><circle class="cls-3" cx="130.84" cy="90.38" r="0.99"/><circle class="cls-3" cx="137.69" cy="90.38" r="0.99"/><circle class="cls-3" cx="144.54" cy="90.38" r="0.99"/><circle class="cls-3" cx="151.39" cy="90.38" r="0.99"/><circle class="cls-3" cx="158.24" cy="90.38" r="0.99"/><circle class="cls-3" cx="62.34" cy="96.52" r="0.99"/><circle class="cls-3" cx="69.19" cy="96.52" r="0.99"/><circle class="cls-3" cx="76.04" cy="96.52" r="0.99"/><circle class="cls-3" cx="82.89" cy="96.52" r="0.99"/><circle class="cls-3" cx="89.74" cy="96.52" r="0.99"/><circle class="cls-3" cx="96.59" cy="96.52" r="0.99"/><circle class="cls-3" cx="103.44" cy="96.52" r="0.99"/><circle class="cls-3" cx="110.29" cy="96.52" r="0.99"/><circle class="cls-3" cx="117.14" cy="96.52" r="0.99"/><circle class="cls-3" cx="123.99" cy="96.52" r="0.99"/><circle class="cls-3" cx="130.84" cy="96.52" r="0.99"/><circle class="cls-3" cx="137.69" cy="96.52" r="0.99"/><circle class="cls-3" cx="144.54" cy="96.52" r="0.99"/><circle class="cls-3" cx="151.39" cy="96.52" r="0.99"/><circle class="cls-3" cx="158.24" cy="96.52" r="0.99"/><circle class="cls-3" cx="62.34" cy="102.67" r="0.99"/><circle class="cls-3" cx="69.19" cy="102.67" r="0.99"/><circle class="cls-3" cx="76.04" cy="102.67" r="0.99"/><circle class="cls-3" cx="82.89" cy="102.67" r="0.99"/><circle class="cls-3" cx="89.74" cy="102.67" r="0.99"/><circle class="cls-3" cx="96.59" cy="102.67" r="0.99"/><circle class="cls-3" cx="103.44" cy="102.67" r="0.99"/><circle class="cls-3" cx="110.29" cy="102.67" r="0.99"/><circle class="cls-3" cx="117.14" cy="102.67" r="0.99"/><circle class="cls-3" cx="123.99" cy="102.67" r="0.99"/><circle class="cls-3" cx="130.84" cy="102.67" r="0.99"/><circle class="cls-3" cx="137.69" cy="102.67" r="0.99"/><circle class="cls-3" cx="144.54" cy="102.67" r="0.99"/><circle class="cls-3" cx="151.39" cy="102.67" r="0.99"/><circle class="cls-3" cx="158.24" cy="102.67" r="0.99"/><circle class="cls-3" cx="62.34" cy="108.81" r="0.99"/><circle class="cls-3" cx="69.19" cy="108.81" r="0.99"/><circle class="cls-3" cx="76.04" cy="108.81" r="0.99"/><circle class="cls-3" cx="82.89" cy="108.81" r="0.99"/><circle class="cls-3" cx="89.74" cy="108.81" r="0.99"/><circle class="cls-3" cx="96.59" cy="108.81" r="0.99"/><circle class="cls-3" cx="103.44" cy="108.81" r="0.99"/><circle class="cls-3" cx="110.29" cy="108.81" r="0.99"/><circle class="cls-3" cx="117.14" cy="108.81" r="0.99"/><circle class="cls-3" cx="123.99" cy="108.81" r="0.99"/><circle class="cls-3" cx="130.84" cy="108.81" r="0.99"/><circle class="cls-3" cx="137.69" cy="108.81" r="0.99"/><circle class="cls-3" cx="144.54" cy="108.81" r="0.99"/><circle class="cls-3" cx="151.39" cy="108.81" r="0.99"/><circle class="cls-3" cx="158.24" cy="108.81" r="0.99"/><circle class="cls-3" cx="62.34" cy="114.96" r="0.99"/><circle class="cls-3" cx="69.19" cy="114.96" r="0.99"/><circle class="cls-3" cx="76.04" cy="114.96" r="0.99"/><circle class="cls-3" cx="82.89" cy="114.96" r="0.99"/><circle class="cls-3" cx="89.74" cy="114.96" r="0.99"/><circle class="cls-3" cx="96.59" cy="114.96" r="0.99"/><circle class="cls-3" cx="103.44" cy="114.96" r="0.99"/><circle class="cls-3" cx="110.29" cy="114.96" r="0.99"/><circle class="cls-3" cx="117.14" cy="114.96" r="0.99"/><circle class="cls-3" cx="123.99" cy="114.96" r="0.99"/><circle class="cls-3" cx="130.84" cy="114.96" r="0.99"/><circle class="cls-3" cx="137.69" cy="114.96" r="0.99"/><circle class="cls-3" cx="144.54" cy="114.96" r="0.99"/><circle class="cls-3" cx="151.39" cy="114.96" r="0.99"/><circle class="cls-3" cx="158.24" cy="114.96" r="0.99"/><circle class="cls-3" cx="62.34" cy="121.1" r="0.99"/><circle class="cls-3" cx="69.19" cy="121.1" r="0.99"/><circle class="cls-3" cx="76.04" cy="121.1" r="0.99"/><circle class="cls-3" cx="82.89" cy="121.1" r="0.99"/><circle class="cls-3" cx="89.74" cy="121.1" r="0.99"/><circle class="cls-3" cx="96.59" cy="121.1" r="0.99"/><circle class="cls-3" cx="103.44" cy="121.1" r="0.99"/><circle class="cls-3" cx="110.29" cy="121.1" r="0.99"/><circle class="cls-3" cx="117.14" cy="121.1" r="0.99"/><circle class="cls-3" cx="123.99" cy="121.1" r="0.99"/><circle class="cls-3" cx="130.84" cy="121.1" r="0.99"/><circle class="cls-3" cx="137.69" cy="121.1" r="0.99"/><circle class="cls-3" cx="144.54" cy="121.1" r="0.99"/><circle class="cls-3" cx="151.39" cy="121.1" r="0.99"/><circle class="cls-3" cx="158.24" cy="121.1" r="0.99"/><circle class="cls-3" cx="62.34" cy="127.25" r="0.99"/><circle class="cls-3" cx="69.19" cy="127.25" r="0.99"/><circle class="cls-3" cx="76.04" cy="127.25" r="0.99"/><circle class="cls-3" cx="82.89" cy="127.25" r="0.99"/><circle class="cls-3" cx="89.74" cy="127.25" r="0.99"/><circle class="cls-3" cx="96.59" cy="127.25" r="0.99"/><circle class="cls-3" cx="103.44" cy="127.25" r="0.99"/><circle class="cls-3" cx="110.29" cy="127.25" r="0.99"/><circle class="cls-3" cx="117.14" cy="127.25" r="0.99"/><circle class="cls-3" cx="123.99" cy="127.25" r="0.99"/><circle class="cls-3" cx="130.84" cy="127.25" r="0.99"/><circle class="cls-3" cx="137.69" cy="127.25" r="0.99"/><circle class="cls-3" cx="144.54" cy="127.25" r="0.99"/><circle class="cls-3" cx="151.39" cy="127.25" r="0.99"/><circle class="cls-3" cx="158.24" cy="127.25" r="0.99"/></g><circle class="cls-4" cx="114.96" cy="93.92" r="57.14"/><path class="cls-5" d="M127.8,49.87a45.89,45.89,0,0,1,33,44"/><path class="cls-6" d="M94.84,62a37.71,37.71,0,0,1,57.82,31.89"/><path class="cls-7" d="M69.08,93.92A45.89,45.89,0,0,1,115,48"/><path class="cls-5" d="M127.8,49.87a45.89,45.89,0,0,1,33,44"/><path class="cls-6" d="M94.84,62a37.71,37.71,0,0,1,57.82,31.89"/><path class="cls-7" d="M69.08,93.92A45.89,45.89,0,0,1,115,48"/><path class="cls-8" d="M73,48.8A61.59,61.59,0,0,1,176.55,93.92"/><path class="cls-9" d="M172.11,116.92A61.6,61.6,0,1,1,58.4,69.51"/><path class="cls-9" d="M46.21,51.42A80.82,80.82,0,0,1,195.78,93.92"/><path class="cls-8" d="M184.92,134.41A80.82,80.82,0,0,1,34.15,93.92"/><g class="cls-10"><polyline class="cls-9" points="117.79 26.11 113.73 22.05 117.79 17.99"/><polyline class="cls-9" points="100.14 27.67 95.16 24.8 98.03 19.82"/><polyline class="cls-9" points="83.49 33.74 77.94 32.26 79.43 26.71"/><polyline class="cls-9" points="68.99 43.92 63.24 43.92 63.24 38.17"/><polyline class="cls-9" points="57.61 57.5 52.06 58.99 50.57 53.44"/><polyline class="cls-9" points="50.13 73.57 45.16 76.44 42.29 71.47"/><polyline class="cls-9" points="47.07 91.02 43.01 95.08 38.95 91.02"/><polyline class="cls-9" points="48.63 108.67 45.76 113.65 40.78 110.77"/><polyline class="cls-9" points="54.7 125.32 53.22 130.87 47.67 129.38"/><polyline class="cls-9" points="64.88 139.82 64.88 145.57 59.13 145.57"/><polyline class="cls-9" points="78.46 151.2 79.95 156.75 74.4 158.24"/><polyline class="cls-9" points="94.53 158.68 97.4 163.65 92.42 166.52"/><polyline class="cls-9" points="111.98 161.74 116.04 165.8 111.98 169.86"/><polyline class="cls-9" points="129.63 160.18 134.61 163.05 131.73 168.03"/><polyline class="cls-9" points="146.28 154.1 151.82 155.59 150.34 161.14"/><polyline class="cls-9" points="160.78 143.93 166.53 143.93 166.53 149.67"/><polyline class="cls-9" points="172.16 130.35 177.71 128.86 179.2 134.41"/><polyline class="cls-9" points="179.63 114.28 184.61 111.41 187.48 116.38"/><polyline class="cls-9" points="182.7 96.83 186.76 92.77 190.82 96.83"/><polyline class="cls-9" points="181.14 79.18 184.01 74.2 188.99 77.08"/><polyline class="cls-9" points="175.06 62.53 176.55 56.98 182.1 58.47"/><polyline class="cls-9" points="164.89 48.03 164.89 42.28 170.63 42.28"/><polyline class="cls-9" points="151.31 36.65 149.82 31.1 155.37 29.61"/><polyline class="cls-9" points="135.24 29.17 132.37 24.2 137.34 21.33"/></g><path class="cls-11" d="M155.13,65.89H80.23a9.18,9.18,0,0,0-6.65,2.85l-6.73,6.21H71c0,.05,0,.1,0,.15v63.54a9.21,9.21,0,0,0,9.21,9.21h72.89l1.32,4,6.89-6.36h0a9.18,9.18,0,0,0,3-6.8V75.1A9.21,9.21,0,0,0,155.13,65.89Z"/><rect class="cls-12" x="63.63" y="72.75" width="93.32" height="81.96" rx="8.88" ry="8.88"/><rect class="cls-13" x="74.49" y="72.26" width="71.59" height="82.94" rx="3.88" ry="3.88" transform="translate(224.02 3.45) rotate(90)"/><path class="cls-14" d="M125.39,92.3a25.15,25.15,0,0,1-14.52-4.61,1,1,0,0,0-1.14,0A25.28,25.28,0,0,1,88,91.27a1,1,0,0,0-1.26,1v20c0,.41,0,.81,0,1.21.61,12.35,10.49,22.45,23.21,26.47a1.05,1.05,0,0,0,.63,0c12.71-4,22.59-14.11,23.19-26.47,0-.4,0-.8,0-1.21v-20a1,1,0,0,0-1.26-1A25.25,25.25,0,0,1,125.39,92.3Z"/><path class="cls-15" d="M110.29,134c-10.31-3.75-17.43-12-17.87-20.88,0-.34,0-.64,0-.93V97.83q1.39.12,2.79.12A30.7,30.7,0,0,0,110.29,94,30.69,30.69,0,0,0,125.39,98q1.4,0,2.79-.12v14.4c0,.3,0,.59,0,.88C127.72,122.05,120.61,130.3,110.29,134Z"/><circle class="cls-16" cx="110.29" cy="114.03" r="12.05"/><path class="cls-15" d="M109.67,120.06a1.31,1.31,0,0,1-.89-.35l-5.44-5a1.31,1.31,0,0,1,1.78-1.94l4.56,4.19,7.33-6.64a1.31,1.31,0,0,1,1.77,1.95l-8.22,7.44A1.31,1.31,0,0,1,109.67,120.06Z"/><path class="cls-15" d="M140.89,56.29V68.53c0,.63-1.16,1.15-2.59,1.15a5.16,5.16,0,0,1-1.33-.17c-.76-.2-1.27-.57-1.27-1V56.29a23.19,23.19,0,0,0-46.37,0V68.53c0,.42-.51.79-1.27,1a5.16,5.16,0,0,1-1.33.17c-1.43,0-2.59-.52-2.59-1.15V56.29a28.37,28.37,0,0,1,56.75,0Z"/><path class="cls-17" d="M112.84,29.56A26,26,0,0,1,138.78,55.5"/><path class="cls-18" d="M137,56V69.51c-.76-.2-1.27-.57-1.27-1V56.29a23.19,23.19,0,0,0-46.37,0V68.53c0,.42-.51.79-1.27,1V56A24.45,24.45,0,1,1,137,56Z"/><circle class="cls-19" cx="173.06" cy="84.93" r="2.01"/><circle class="cls-20" cx="77.94" cy="38.17" r="1.42"/><circle class="cls-20" cx="46.21" cy="22.05" r="1.42"/><circle class="cls-19" cx="146.55" cy="21.33" r="2.01"/><circle class="cls-19" cx="34.15" cy="64.8" r="2.01"/><circle class="cls-20" cx="179.2" cy="69.68" r="1.42"/><circle class="cls-20" cx="57.82" cy="91.37" r="0.99"/><circle class="cls-20" cx="44" cy="86.21" r="0.99"/><circle class="cls-20" cx="150.4" cy="41.05" r="0.99"/><circle class="cls-20" cx="195.78" cy="108.85" r="0.99"/><circle class="cls-20" cx="38.95" cy="130.42" r="0.99"/><path class="cls-21" d="M207.68,9.75a2.3,2.3,0,1,0-3.06,2.16l0,9.22h-24.3a.72.72,0,0,0-.66.43l-7,16.13a.72.72,0,1,0,1.32.58l6.85-15.69h24.55a.72.72,0,0,0,.72-.72l0-9.91A2.29,2.29,0,0,0,207.68,9.75Z"/><path class="cls-22" d="M38,117.76H15.49l-5.3-27.52a.72.72,0,0,0-.71-.58h-5a2.3,2.3,0,1,0,0,1.44H8.89l5.3,27.52a.72.72,0,0,0,.71.58H38a.72.72,0,0,0,0-1.44Z"/><path class="cls-21" d="M199.8,49.87a2.3,2.3,0,0,0-2.23,1.76H184.23a.54.54,0,1,0,0,1.08h13.34a2.3,2.3,0,1,0,2.23-2.84Z"/><path class="cls-22" d="M199.8,167.56a2.3,2.3,0,0,0-.41,0l-6.75-12.44a.72.72,0,0,0-.63-.38H167.76a.72.72,0,1,0,0,1.44h23.83l6.54,12.07a2.3,2.3,0,1,0,1.67-.73Z"/><circle class="cls-23" cx="115.59" cy="93.05" r="92.33"/></g></g></g></svg>