<svg xmlns="http://www.w3.org/2000/svg" width="1795.542" height="564.927" viewBox="0 0 1795.542 564.927"><path d="M2276.555,398.231c-2.585-5.64-12.885,1.1-10.243,6.718s10.445,6.952,17.03,7.212c97.439,3.856,191.725-67.892,206.965-157.494,5.968-35.076,1.1-71,4.674-106.354,4.853-48,25.7-94.491,58.941-131.478,21.3-23.7,50.734-44.592,83.936-43.8,30.955.743,57.937,20.26,77.423,42.643s33.944,48.36,54.48,69.916c26.944,28.288,63.79,48.382,85.559,80.295,33.465,49.059,23.543,113.48,45.029,168.037,17.993,45.682,57.5,81.987,102.7,106.458s96.1,38.243,146.927,49.722a1939.556,1939.556,0,0,0,608.727,38.673c60.481-5.747,122.179-14.81,175.244-42.4C3999.884,452.1,4047.8,389.269,4060.8,320.057" transform="translate(-2265.504 27.232)" fill="none" stroke="#1d1d1b" stroke-miterlimit="10" stroke-width="0.5" stroke-dasharray="5" opacity="0.8"/></svg>