<svg xmlns="http://www.w3.org/2000/svg" width="10.492" height="12.708" viewBox="0 0 10.492 12.708"><g transform="translate(-43.937 0)"><g transform="translate(43.937 0)"><path d="M52.815,1.469A5.194,5.194,0,0,0,48.969,0a5.282,5.282,0,0,0-5.032,4.947v.4a4.685,4.685,0,0,0,1.142,2.9l4.1,4.455L53.364,8.16a4.56,4.56,0,0,0,1.065-2.91A5.2,5.2,0,0,0,52.815,1.469Zm0,6.2-3.632,3.959L45.62,7.749a3.935,3.935,0,0,1-.956-2.421V4.98A4.552,4.552,0,0,1,49,.715h.186a4.524,4.524,0,0,1,4.524,4.524s0,.008,0,.012A3.81,3.81,0,0,1,52.815,7.672Z" transform="translate(-43.937 0)"/></g><g transform="translate(47.569 3.233)"><path d="M189.551,128.194a1.614,1.614,0,1,0,1.614,1.614A1.614,1.614,0,0,0,189.551,128.194Zm0,2.554a.94.94,0,1,1,.94-.94A.94.94,0,0,1,189.551,130.748Z" transform="translate(-187.937 -128.194)"/></g></g></svg>