<?xml version="1.0" encoding="utf-8"?>
<!-- Generator: Adobe Illustrator 19.0.1, SVG Export Plug-In . SVG Version: 6.00 Build 0)  -->
<svg version="1.1" id="Слой_1" xmlns="http://www.w3.org/2000/svg" xmlns:xlink="http://www.w3.org/1999/xlink" x="0px" y="0px"
	 viewBox="0 0 415.5 75.7" style="enable-background:new 0 0 415.5 75.7;" xml:space="preserve">
<style type="text/css">
	.st0{clip-path:url(#SVGID_2_);fill:#1B1E25;}
</style>
<g>
	<defs>
		<rect id="SVGID_1_" y="0" width="415.5" height="75.7"/>
	</defs>
	<clipPath id="SVGID_2_">
		<use xlink:href="#SVGID_1_"  style="overflow:visible;"/>
	</clipPath>
	<path class="st0" d="M241.6,75.3c-1.9-0.8-1.1,1.1-2.4-2.2C241.6,73.6,240.3,72.9,241.6,75.3 M109,44.5c0.5-0.7,1.9,1.6,0.4-2.7
		c-1.8,1.5-0.5-0.3-1,1.7C107.7,46.4,108,43.3,109,44.5 M295,24.9c1.7,1.3,0.1,0.5,2.9,1l-1.8-3.2L295,24.9z M3.5,24.1
		c-1.1-1-2-0.7-2.5-5.3c0-0.3-0.2-0.3-0.3-0.5c-0.7,1.8-1,2.5-0.4,5L3.5,24.1z M302.1,22c-0.6-3.7,1.3-4.4-3.3-5
		c0.6,1.3,0.8,1.8,1.2,2.7C301.3,22.3,299.6,20.5,302.1,22 M96,14.7c1.9-1.2,2.3-3.4,4.6-2c2.1,1.2-0.2,3.4-0.9,4.7
		c-0.1,0.1-0.2,0.4-0.3,0.6c0.9-0.6,2.2-1.5,2.8-2.1C106.1,10.7,97.5,10.4,96,14.7 M12.3,44.6c-1.6-0.6-1.2-0.5-2.1-1.6l-1.4-1.8
		c-0.1,5.4,3.5,5.4,8.6,4.2C15.8,45,13.8,45.2,12.3,44.6 M121.2,57.6c-1.8,1.4-4.1,1.7-6.2,3.3c1.6,0.1,2.2,0.2,3.8-0.1
		c4.3-0.6,12.5-7.3,14.1-11.1C128.6,51.4,127.5,56.3,121.2,57.6c2.3-2.6,4.2-3.1,7.7-7.7c5.4-6.9,12.6-22.6,14.8-31.1
		c4.1-0.9,3.8-1.8,5.4-5.4c1-2.3,2.8-5.2,3.4-7.3c-7.4,0-5.4,3.2-9.9,3.3c-14.9,0.5-16-10-31.3-9.4C103.6,0.3,96,3.9,91.7,7.6
		c-4.3,3.7-11.6,14.3,1.3,13.4c-2.8-1.1-5.3-0.3-5.4-4c-0.2-6.6,9-11.5,14.4-13.5c6.6-2.4,8.9-2.4,15.4-0.1
		c4.7,1.6,9.5,3.4,13.4,5.5c-2.6,0.1-24.4-0.5-21.8,6.7c2.4,2.8,4.8,1.5,8.7,0c-1.1-2.6-5.8-3.9,7.3-3.9c4.4,0,10.5,0.1,15.1,0.7
		l-4.4,10.9c-3.3-4.4-3.3-7.2-10.3-8.1c0.7,0.7,0.3,0.5,1.4,1.3c3,2.3,10.7,6.4,6,13.9l-2.4-2.8l1-3.8c-3.2,0.9-1.6-0.1-3.4,2.4
		l-5,0.7l4.4,0.9c-0.8,3.6-2.1,7.6-3.9,10.2l1.3-6.3c-2.1,1.1-2.9,4.8-3.5,7.5l-2.1,0.6c-0.1-0.1-0.3,0.2-0.4,0.3
		c3.1,1.7,0.7,0.2,1.8,1.6c-2.1,4-3.2,8.1-6,12.2l-3-5.1c-2.7,0.1-4.8,0.7-6.8,2.2c3.5,8.3,5.4,6.6,14.5,5.4
		c-10.9,5.4-15.7-0.7-21.3-5.8c-9-8.3-13-3.9-18.1,2.2c2.9-1.4,5-5.2,9.7-4.9c9.2,0.4,10.8,15.5,26.4,11.5
		C118.7,58.6,118.6,58,121.2,57.6 M17.7,20.7c2.1-2.8,23-14.1,24.2-14.3c-3.8,0.8-12,5.8-16.2,7.8l-8.9,5c-4.4-1.4-5.8-4-12.3-2.8
		c11.4,3.9,3-0.9,11.7,5.5c4.6,3.4,6.9,7.4,13.2,8.2c-2.2-2.2-4.9-3.2-6.6-4.8c-1.1-1-1-1.4-2.4-2.6C19.1,21.6,19,21.9,17.7,20.7
		 M277.3,12.4c6.6-2.3,15.8-8.7,28.4-9.8c7-0.7,6.5,1,10.9,2.3C312.4-5.3,281.9,6.1,277.3,12.4 M281.3,22.4c-1.1-6.1,1-7,2.7-11.5
		c-5.2,1.3-5.8,6.6-5.8,12.1l-0.8-2.5c-0.1-0.3-0.2-1.1-0.3-1.3l-0.4-1.1c-0.1,0.2-0.3,0.3-0.3,0.5c-1,2.9-0.4,4.3-0.4,4.3l-3.5,0.9
		l3.8,0.9c1.5,4.4,2.8,8.9,7.3,10.8c-0.8-2.2-2.5-4.7-3.8-6.4l2.4-1.9L281.3,22.4z M180.2,20.6c7.8-0.1,13.6-8.4,14.7-15.7
		c-1.4,0.3-5.4,1.2-6.1,1.8c-2.3,2,1.2,0.6-3.4,3.8C184.1,11.5,180.9,18.9,180.2,20.6 M111.2,31.4c-0.7,1.5,2.1,0.6-2,1.2
		L111.2,31.4z M111.9,33.5c1.7-2.1,5.3-4.1,8.4-5.1C118.8,32.4,116.6,32.3,111.9,33.5 M111.2,31.4c0.5-1.3-0.4-0.5,1.5-2.2
		c0.1,0,1.9-1.4,2.1-1.5c1.8-1.1,2.9-1.9,4.8-0.6C119.1,27.5,111.9,31.2,111.2,31.4 M108.6,31c0.2-5.5,3.9-8.2,6.9-11.2
		c0.8-0.8,0.8-0.7,1.5-1.4l1.6-1.8c-2.9,1.1-6.9,4.1-8.2,6c-2,2.8-2.9,5.3-3.3,9c-0.2,2.1-10.1,11.7-15.9,8.8
		c-1.4-4.6-0.1-5.9,2.1-9c-3.1,1.7-7.3,11.3-0.3,11c1.4-0.1,1.9-0.5,2.9-1l8.7-5.1c2-1.6,1.5-1.9,3.7-2.7c-0.6,3.9-1.2,1-4,6
		c-6.9,12.4,14.3,9.6,9.5,0.4l-3.4,0.3l2.9,1.9c-0.5,4.4-4.3,6.8-8.5,3.5c-0.3-3.5,0-4.9,1.9-7.3c5.3-6.9,6.1-1.7,12.5-6.3
		c5.8-4.2,1.9-5.5,1.9-5.5C117.6,23,114.8,28.2,108.6,31 M60.8,62c-2.8-2.2-3.8-1-6.6-4.1c-1.5-1.6-2.4-4.5-2.8-6.5
		c-1,6.3,1.7,8,5.6,10.5c-1.9,1.8,2.1-0.1-1.9,1.5c-2.3,0.9-4.6,0-7.1-0.2c-3.1-0.3-6.4-0.2-9.5,0.1c-6.3,0.5-12.7,1.2-11.1,6.9
		c3,1,6.6,1.6,9.2-0.7c-6.3,0.2-6.1,0.8-7.9-1.7c5.3-7,25.2-2.5,34.6-1.4c13.9,1.6,23.3,1.8,37.3,1l-0.8,0.9
		c-6,7.2,10.8,7.1,16.1,5.4c0.2-0.1,1-0.4,1.1-0.4l1.1-0.6c-6.4,0.3-13.8,1.5-18.5-1.6l1-3.1c11.1-4,16.2-4,29.5-2.4l-1.7,2.9
		c2.1-0.7,2.5-1.5,3.9-2.7l7.7,0.6c-2.3-1.2-4.5-1.4-7.5-1.6c-0.6-3.2-0.4-3.4-2.9-4.4l0.7,2c0.3,0.7,0.1-1,0.5,1.6
		c-6.5,0.5-11.8-1.6-19-0.1c-3.6,0.7-4.5,1.4-8.5,1.7c-11.4,0.7-38.6,1.7-47.4-1.5L60.8,62z M166,58.6c4.9,0.9,6.3-2,8.7-4.4
		c2.2-2.2,4.2-15.7,6.1-21.5c1.2-3.5,3-6.1,3.9-9.5c-3,0.5-6,1.2-7.3,3.2c-0.8,1.2-2.7,5.1-3.4,6.8c-1.6,4.1-3.1,11.3-4.1,16.2
		l-3.5,1.6C165.5,53.8,165.3,56,166,58.6 M147.5,48.6c3-3.4,5.8-19.8,14.5-23.7c0.8,1.9,0.3,2.6,0.1,5.1c2.4,2.2,1.9,2.7,1.9,2.7
		c0-0.1,0.1,0.4,0.2,0.6l6.1-1.6c0.9-3,2-6,1.9-9.9c-7-1.4-11.1,1.1-15.7,5.1l0.1-3c-2.8,0.2-1.6,0.6-3.3-1l-6.5,0.6
		c-0.1,4.5-0.9,7.7-2.3,11.6l1.9,1.2c0.1-0.1,0.3,0.2,0.4,0.3c-2.6,6.9-5.4,13.9-8.3,20.3c0.7,0.7-1,0.9,2.6,0.7
		c-0.6,2.2-0.9,1.4,0,2.8c5.6-1.7,6.3-1,9.1-10C144.8,47.1,150.9,52.4,147.5,48.6 M210.5,49.5c2.7-9.8-0.9-0.1-0.4-6.2
		c0,0,0.7-3.2,0.8-3.6c0.5-2.6,0.7-5,1.2-7.5c1.6-8.2,5.2-7.7,7.2-10.8c-7.1,1.2-14.7,6.4-20.9,9c0.3-2.3,1.2-3.6,2-5.6
		c-3-2.4-0.7-1.6-2.1-3.7c-6,2.5-4.8-0.3-7.3,5.8c-1.2,2.8-2.9,5.7-3.8,8.8l1.4,0.9c0.1,0.1,0.6,0.2,0.8,0.3
		c-1.8,3.3-3.1,7.8-4.2,11.8c-0.4,1.4-1.7,4.8-1.5,6c0.4,3.3,1.8-1.8-0.2,4c7.5,1,10.2-6,11.6-12.1c-0.2-0.1-0.4-0.3-0.5-0.4
		l-0.9-0.7c-1.8-1.5,3.9-12.1,3.9-12.1c2-1.7,8-4,10-5.4c-4.5,6.8-2.3,10.5-4,18.6c-1.4,6.5-6,8.2-10.9,11.5c0.7,0.4-0.1,1,2.9,0.2
		c2-0.5,0.3-0.4,2.6-0.7c-1.1,1.6-2,2.1-3.1,3.9c2-0.3,7.8-3.5,9.3-4.8c1.3-1.1,2.6-2.7,3.6-3.7C209.6,51.3,209.3,51.7,210.5,49.5
		c-0.7,4-1.8,5.9,0.4,9.2c8.6-0.5,9-0.4,16.4-3.4c0.1,0.1,0.2,0.4,0.3,0.5l1.5,3.8l3.7-0.9c-2.2,10,0.1,9.4,3.9,12.7
		c1.5,1.3,1.9,3.5,2.6,3.9c2.8,0.6,1.5-0.1,3.9,0.3c-0.5-5.4-0.8-0.8-3.1-5.3c7-3.1,5.7-0.4,12.1,0.7c3.9,0.7,2.4-0.6,6,1.2
		c5.8,3,11.9,0.1,16.4-3.2c3.8-2.8,6.6-2.7,8.5-6c3.4-0.4,20,2.6,25.9,3.4c8.8,1.3,6.5,1.4,7.5-0.6c-7.1-2.6-23.6-1.4-29.9-4.7
		c1.4-0.5,3.7-1.3,4.1-2.5l-0.3-0.9c2.4-1.4,4.5-2.6,6.5-4.8c1.3-1.4,1.2-1.1,2.6-2.5c4.6-4.6,6.1-3.3,6.3-9.1
		c0.2-5.8-1.2-3.8-5.2-3.5c-2-4.3-3.4-3.6-0.1-9.7c1.7-3.1,3.3-6.1,7.4-5.5l-1.3,2.6c2.5-0.1,2-0.1,3.5-2.7
		c3.2-5.4,7.8-8.8,5.8-12.5c-9.8,21.1-10.6,2.7-18.9,22.5c-8.6-2.5-0.9-14.9-0.9-14.9c-2.9,1.2-3.6,2.5-4.6,6.4
		c-3.4-3.2-4.1-15.5,3.8-13.7c2.5,0.6,2.6,1.7,3.9,3.4l4.4-1.2l-1,7.1c1.6-0.2,2.4-0.2,3.9-0.7c0.8-0.3,0.8-0.2,1.5-0.7
		c3.5-2.2,3-9.3,1.5-12.6c-4.6-0.8-5.7,1.6-9.5,1.4c-17.8-0.9-16,8.8-17.8,16.1c2,2.6,12.3,19.2,7.5,25.4c-2.2,2.9-4.3,3.3-9,2.9
		c-1.4-3.4-1.4-2.8,0.5-6.3c2.4,1.1-0.2,0.9,3.7,2.2c-0.1-0.2-0.2-0.5-0.3-0.7c-0.1-0.1-0.2-0.4-0.3-0.6l-0.7-3.6
		c3.6,1.9,1.4,1.6,2.4,4.1c0.9-0.9,0.5,1.2,1.2-1.7c0.2-0.7-0.1-1.6-0.3-2.3c-3.5-1.2-1.6,0.5-4.7-1.9c-4.4-3.4-8.5-4.7-14.3-4.4
		c-0.3-4.6,5.5-11.2,0.4-15.8c-3-2.8-10.6-2.6-13.8-1c-2.4,1.1-0.1,0-1.4,1c5.6-0.5,12.6-2.4,15.1,2.4c2.3,4.4-1.6,10.3-2.6,13.7
		c-7.7,0.6-13,2.7-18.2,6.3c-10.2,7.2-7.5,6.7-12.1,11.4c-0.2-4.3,2.4-10.1,3.7-13.9c5.6-0.7,9.2,0.8,12.6-4.1c1.2-1.7,2-4.8,0.7-7
		c-1.8-3-3.7-1.1-5.6-0.2c0.5-12.8,7.1-16.2,13.9-21.7c-8.5,3.2-11.2,11.8-17.1,14.1c-0.7-0.5-1.2-0.9-2-1.5
		c-18.1,3.7-20.9,8.4-25.1,21.1C214.3,48.9,216.2,46,210.5,49.5 M116.1,54.6c0.8-1.8,1.5-3,2.4-4.2c-0.3,0.9-0.2,1.2-0.6,2.2
		C116.9,54.6,117.4,53.8,116.1,54.6 M121.3,43.7l-1,3.5L121.3,43.7z M119.8,54.8c0.6-3.6,2-5.2,3.3-8.5c1.4-3.5,1.2-6,5.8-6.5
		C127.2,45,123.8,52.3,119.8,54.8 M121.3,43.7l1.2-3L121.3,43.7z M126.1,39.7c0.5-3.4,2-7.5,3.6-10.1c2,1.8,2.4,2.8,1.3,6.4
		C129.9,39.8,130,39.5,126.1,39.7 M36.2,40.2c0.9-3.2,2.2-3.7,3.5-6.3C39.3,37,39.2,39.1,36.2,40.2 M40,40.2c-0.6-1.1-1,1.9-0.3-1.8
		c0-0.1,0.5-1.3,0.6-1.5c1.6-3.8,2-7,4.5-9.7C44.4,30.6,42.2,38.2,40,40.2 M70.3,2.9c-3,0.2-0.7,1.6-0.1,4.1c2,8.8-3.7,12-9.4,16.2
		c-2.9,2.2-2.6,3.1-5.6,4.8c2.1-7.9,8.9-17.9,9-19.2c-1.9-0.4-17.5-1.1-19.5-0.9c-5.9,0.7-10.2,4.8-12.1,9.6
		c3.9-1.9,5.3-4.9,10.1-5.8c3.8-0.7,9.3,0.2,13.8-0.2c-0.4,2.1-2,4.3-3.4,6.3c-1.9-0.6-0.1,0.1-1.5-0.7c-8.2-4.5-14.7,2.6-16.9,10.5
		c-0.6,2.2-2.1,16.8-10.1,18.4c-1.9,0.4-0.7,0.1-1.8-0.1l-1.1-0.6c0-1.1-0.6-0.4,1.9-1.9c0.9-0.5,1.6-0.9,2.6-1.7
		c6.1-4.5,2.2-6.2,2.2-6.2l-0.9,1.3c1.9,2.8-4.8,6.5-7.1,7.2c-0.5-3.2-0.2-2.8,1.1-5.6c-5.6,3.1-3.2,9.7,2.8,8.6
		c4.2-0.7,8.2-5,9.3-8.8c2.9-10.5,3.7-21,15.3-22.1c4,6.1,2.8,4.7,0.1,11.9c-1.4,3.5-3.1,9.3-5.5,11.8l6.2-18.1
		C35.8,27,35.6,52.9,9.7,59.9c-3.9,1-5.2,1.4-8.3,0.1l-0.9-0.5c0.2,2-1.4,1.7,1.8,2.4c5.7,1.3,14.8-3.6,19.2-6.9
		c1.9-1.4,2.7-2.4,4.3-3.7c1.3-1.1,2.8-2,4-3.3c4.3-4.5,4-6.6,7-7c-1,4.5-3.6,6.5-5.5,9.9c3.7-1.3,5.9-6.2,7-10
		c0.1,0.2,2.9-0.7,0.2,4.1c-1.5,2.7-5.3,7.1-6,9.5c5.3-1.6,7.4-8.5,10.1-13.5c0.1,0.3,1.4-0.7-0.9,4.2C34,61.3,28.1,55.1,19.3,60.9
		c3.7,0.2,6.9-0.5,10.2-1.6c2.9-0.9,6.6-2.6,8.8-3.1c-3.3,3.6-2.4,1.2-4.4,4.3c7.2-1.1,13.5-6,15.5-12.5l-4,0.5l6.9-12.1
		c4.1,5.1-1.4,17.2,3.3,20.9c4.1,3.2,15.5-1.6,17.6-3.9c-9,2.6-13.5,6.2-12.8-11c0.5-10.9-1.3-6.9-3.2-11.8L72,18.3l2.3,1.5
		c5.4-3.6,3.4,0.7,8.1-6.2c1.6-2.4,4.9-5.4,5.8-8.1c-1.9,0.3-3.7,0.5-5.4,1.3l-11.3,7.8C71.7,6.8,71.5,8.8,70.3,2.9 M261.3,66.3
		c6,3,6.8,1.8,13.7,1.4c-7.9,6.6-19.5,5.6-17.2-0.8c1.6,0.7,0.5,0.3,1.7,1.3c1.2,1.1-0.4,0.2,1.4,1L261.3,66.3z M283.1,63.2
		c-6.4,2-16.2,5.7-21.4,0.7C264.8,62.3,279.7,61.5,283.1,63.2 M261.3,66.3l-4.3,0.1l-1.4,3.9c-6.5-0.3-11.9-5.6-16.4,0.4
		c-14.7-3.4-0.1-26.7,25.4-32.9c-1.3,4.3-5.7,8.7-8.7,12.2c-2.4,2.7-10.1,5.6-2.7,8.1c-1-3.4-1.6-2.9,0.9-5.5c1.3-1.4,2-2.2,4.2-2.6
		c0.5,2.9-0.5,4.1-1.2,6.1c4.2-1.9,3.9-4.3,2.3-7.9l7.9-10.5c7-0.2,10.5,1.6,14.4,5.3c0,0-8.7,9.6,1.5,10.4c10.1,0.8,9.6-8.8,9.6-14
		c9.6,13.4-17.7,30-19.6,6.7c-0.2-0.1-0.4-0.2-0.5-0.3l-2.7-2.4l-6.6,0.4c0.2,6.3,0.3,9.4-2.7,13.9c-8.4,12.4-20.2,8.1-14.9-1.9
		c1.8-3.5,4.5-5.4,8.2-7.4c-5.1-0.4-8.6,3.4-10.1,6.9c-4.3,9.7,4.5,18.3,15.1,6.4c4.6-5.1,8-0.4,9.4-5.8c10.1,5.8,9,2.9,20,2
		c-9.7,5.5-17.4,1.9-28.7,4.9L261.3,66.3z M240.7,37.6c0.9-4.6,0.9-3.1,4.2-5.2c1.9-1.2,3.4-3,5.8-2.6c2.3,4.1-0.8,7.9-3,9.8
		C244.5,39.5,242.5,39.2,240.7,37.6 M220.3,55.1c-1.4-6.4,2.8-14.5,4.8-19.4c1.9-4.7,5.2-12.6,11.2-11.8c2.4,4.6-2,14.5-3.7,19.2
		C231.1,47.1,228.6,56.5,220.3,55.1"/>
	<path class="st0" d="M319.7,49.5L319.7,49.5c-0.8,4.1-1.8,6,0.4,9.2c8.5-0.5,9-0.4,16.4-3.4c0.1,0.1,0.2,0.4,0.3,0.5l1.5,3.8
		l3.7-0.9l3.9-3.3l-1.1-1.1c-0.3-6.5,3.7-18.5,9.4-22c0.7-0.4,1.4-1,2-1.4l1.4-8.9c0.1-0.6,0.5-1.7-0.1-1.5l-4.6,1.2
		c-1.6-1.2-1.3-1.7-3.1-1.3c-17,3.7-19.8,8.4-23.9,20.9C323.5,48.9,325.4,46.1,319.7,49.5L319.7,49.5z M329.5,55.1
		c-1.5-6.4,2.8-14.5,4.8-19.4c1.9-4.7,5.2-12.6,11.2-11.8c2.4,4.6-2,14.5-3.7,19.2C340.3,47.1,337.8,56.5,329.5,55.1 M363.3,48.6
		c3-3.4,5.8-19.8,14.5-23.7c0.8,1.9,0.3,2.6,0.1,5.1c2.4,2.2,1.9,2.7,1.9,2.7c0-0.1,0.1,0.4,0.2,0.6l6.1-1.6c0.9-3,2-6,1.9-9.9
		c-7-1.4-11.1,1.1-15.7,5.1l0.1-3c-2.8,0.2-1.6,0.6-3.3-1l-6.5,0.6c-0.1,4.5-0.9,7.7-2.3,11.6l1.9,1.2c0.1-0.1,0.3,0.2,0.4,0.3
		c-2.6,6.9-5.4,13.9-8.3,20.3c0.7,0.7-1,0.9,2.6,0.7c-0.6,2.2-0.9,1.4,0,2.8c5.6-1.7,6.4-1,9.1-10L363.3,48.6z M413.8,11.3
		c-2-1.8-7,1-9,1.6c0,0-5.2,11-5.3,11.3l-6.5,0.1c-1-0.9-1.8,2-2.4,2.9c2.4,0.6,6.9-1.1,6.7,0.1c-2.2,10.6-18.9,30.3,1.3,32.1
		c3.2,0.3,9.1-8.4,10.2-10.5l-0.5-0.6c-2,0-4.8,6.3-7,8c-3,2.4-5.6,0.5-5.6-2.4c0.1-8.8,6.7-19,10.1-26.4l8.3-0.8
		c0.8-0.9,1.6-1.2,1.3-3.3c-2,0-9,0.6-8.1,0.6C408.6,21.8,413.9,11.8,413.8,11.3"/>
</g>
</svg>
