<svg width="33" height="33" viewBox="0 0 33 33" fill="none" xmlns="http://www.w3.org/2000/svg">
<path d="M28.4243 6.8065C26.2042 6.8065 24.5128 5.78517 23.3969 3.77102C22.5283 2.20307 22.3415 0.595288 22.3392 0.574792C22.3036 0.247822 22.0275 0 21.6985 0H11.3014C10.966 0 10.6865 0.258392 10.659 0.59271C10.6576 0.608759 10.5172 2.21409 9.67195 3.77849C8.58649 5.78769 6.87185 6.8065 4.57571 6.8065C4.21974 6.8065 3.93118 7.09505 3.93118 7.45103V15.0834C3.93118 19.0157 5.10481 22.7943 7.32521 26.0107C9.54717 29.2293 12.6432 31.6332 16.2787 32.9621C16.4126 33.0111 16.5793 33.0141 16.7213 32.9621C20.3568 31.6331 23.4528 29.2294 25.6749 26.0107C27.8952 22.7943 29.0689 19.0157 29.0689 15.0834V7.45109C29.0689 7.09512 28.7803 6.8065 28.4243 6.8065ZM27.7798 15.0835C27.7798 22.4583 23.257 29.0925 16.5 31.6688C9.74297 29.0925 5.22024 22.4582 5.22024 15.0835V8.07171C7.69317 7.88492 9.62335 6.60824 10.8277 4.35129C11.4639 3.15884 11.7446 1.97452 11.8633 1.28912H21.1508C21.2848 1.96962 21.5919 3.15949 22.2483 4.35747C23.4795 6.60508 25.3831 7.8788 27.7798 8.07029V15.0835H27.7798Z" fill="#2A2A2A"/>
<path d="M25.8461 9.05152C23.9649 9.05146 22.4476 8.08099 21.3365 6.16699C20.464 4.66433 20.1805 3.125 20.1779 3.11037C20.1233 2.80254 19.8558 2.57825 19.5432 2.57825H13.4568C13.1558 2.57825 12.8948 2.78662 12.8282 3.08014C12.8147 3.13989 11.424 9.05146 7.1539 9.05146C6.79793 9.05146 6.50937 9.34001 6.50937 9.69598C6.50937 10.052 6.79793 10.3405 7.1539 10.3405C9.36915 10.3405 11.2769 9.11314 12.6708 6.79109C13.3612 5.64092 13.7603 4.49966 13.9495 3.86731H19.0286C19.1933 4.50855 19.5462 5.64054 20.2023 6.78084C21.5423 9.10959 23.4939 10.3406 25.8462 10.3406C26.2021 10.3406 26.4907 10.052 26.4907 9.69605C26.4906 9.34008 26.2021 9.05152 25.8461 9.05152Z" fill="#2A2A2A"/>
<path d="M23.4116 23.2711C23.1187 23.0748 22.7136 23.1554 22.5176 23.4483C20.9307 25.8203 18.8494 27.5909 16.4987 28.5687C15.0324 27.9635 13.6615 27.0134 12.4239 25.745C12.1821 25.4971 11.7593 25.4929 11.5123 25.7332C11.2599 25.9788 11.2538 26.3923 11.5007 26.6447C12.9336 28.1136 14.5379 29.1971 16.2679 29.8642C16.4188 29.9224 16.5843 29.9217 16.7345 29.8629C18.1042 29.328 19.4004 28.548 20.587 27.5452C21.7163 26.5912 22.7263 25.4542 23.5887 24.1658C23.7866 23.8699 23.7068 23.469 23.4116 23.2711Z" fill="#2A2A2A"/>
<path d="M22.9685 14.5186L21.1454 12.6955C20.8937 12.4438 20.4856 12.4438 20.2338 12.6955L15.0819 17.8474L12.7662 15.5316C12.5145 15.2799 12.1063 15.2799 11.8545 15.5316L10.0315 17.3546C9.78069 17.6055 9.77966 18.0118 10.0292 18.2639C10.0292 18.2639 14.5775 22.8581 14.6007 22.8815C14.7193 23.0014 14.8881 23.0625 15.0573 23.0631C15.2254 23.0637 15.394 23.0046 15.5147 22.884C15.5147 22.884 22.9621 15.4366 22.9685 15.4302C23.2175 15.1812 23.2172 14.7674 22.9685 14.5186ZM15.0612 21.5144L11.3966 17.8128L12.3105 16.8989L14.6263 19.2147C14.878 19.4664 15.2861 19.4664 15.5379 19.2147L20.6897 14.0629L21.6013 14.9744L15.0612 21.5144Z" fill="#2A2A2A"/>
<path d="M24.2992 22.2372C24.6552 22.2372 24.9437 21.9486 24.9437 21.5927C24.9437 21.2367 24.6552 20.9482 24.2992 20.9482C23.9432 20.9482 23.6547 21.2367 23.6547 21.5927C23.6547 21.9486 23.9432 22.2372 24.2992 22.2372Z" fill="#2A2A2A"/>
</svg>
