<svg width="28" height="28" viewBox="0 0 28 28" fill="none" xmlns="http://www.w3.org/2000/svg">
<g clip-path="url(#clip0)">
<path d="M26.5596 10.7535L24.1509 10.5213C23.8953 9.49584 23.4826 8.51592 22.9279 7.6162L24.4632 5.7627C24.614 5.58084 24.6015 5.31429 24.4346 5.1474L21.8293 2.54186C21.6624 2.37497 21.3959 2.36268 21.214 2.51326L19.3592 4.04906C18.4579 3.49833 17.4791 3.08589 16.4554 2.82561L16.223 0.413553C16.2005 0.17896 16.0032 0 15.7675 0H12.2068C11.9711 0 11.774 0.17896 11.7515 0.413553L11.5189 2.82561C10.4952 3.08567 9.51637 3.49833 8.61509 4.04906L6.76025 2.51282C6.5786 2.36223 6.31206 2.37452 6.14494 2.54142L3.53963 5.14718C3.37274 5.31429 3.36022 5.58084 3.51103 5.7627L5.04594 7.61598C4.49073 8.5157 4.07785 9.49584 3.82204 10.5216L1.41467 10.7539C1.18053 10.7767 1.00246 10.974 1.00358 11.2093V14.9029C1.00224 15.1379 1.1803 15.3354 1.41445 15.3582L3.82472 15.5905C4.08455 16.614 4.49677 17.5931 5.04728 18.4944L3.51081 20.349C3.3533 20.5391 3.37497 20.8199 3.55996 20.9837L5.53612 22.7315C5.63376 22.818 5.76379 22.8587 5.8936 22.8432C6.02318 22.8276 6.14003 22.7575 6.21465 22.6504L9.05478 18.5752C9.18146 18.3934 9.15957 18.1467 9.00272 17.9899C6.27788 15.265 6.27766 10.8469 9.00272 8.12181C11.7278 5.39674 16.1459 5.39674 18.871 8.12181C21.5961 10.8469 21.5961 15.265 18.871 17.9899C18.7122 18.1487 18.692 18.3992 18.8234 18.5813L21.7634 22.6562C21.8389 22.761 21.9553 22.8289 22.0838 22.8432C22.2123 22.8575 22.3407 22.8169 22.4375 22.7313L24.4143 20.9842C24.5993 20.8206 24.6212 20.5396 24.4635 20.3492L22.9274 18.4944C23.4782 17.5931 23.8906 16.6143 24.1507 15.5905L26.5596 15.3582C26.7937 15.3354 26.9718 15.1379 26.9705 14.9029V11.2088C26.9716 10.9738 26.7937 10.7763 26.5596 10.7535ZM26.0553 14.4871L23.7347 14.7109C23.5376 14.7299 23.3754 14.874 23.3332 15.0675C23.0809 16.2117 22.6222 17.3002 21.9799 18.2801C21.87 18.4481 21.8825 18.6682 22.0105 18.8226L23.4762 20.5918L22.21 21.7112L19.7877 18.3536C22.5925 15.2594 22.5027 10.4592 19.518 7.47455C16.4406 4.39715 11.4331 4.39715 8.3557 7.47455C5.36945 10.4608 5.2812 15.2646 8.09027 18.3583L5.75753 21.7056L4.49788 20.5916L5.9633 18.8223C6.09132 18.6675 6.10361 18.4477 5.99369 18.2796C5.35113 17.2999 4.89222 16.2114 4.63931 15.0675C4.59775 14.8743 4.436 14.7302 4.23939 14.7109L1.91871 14.4871V11.6248L4.23939 11.4007C4.43734 11.3815 4.59999 11.2365 4.64132 11.0419C4.88753 9.89756 5.34621 8.80972 5.99324 7.83426C6.10451 7.66603 6.09244 7.44484 5.96375 7.28956L4.48135 5.49973L6.4975 3.48336L8.28733 4.96553C8.44194 5.09378 8.66201 5.10607 8.8298 4.99592C9.8095 4.35336 10.898 3.89445 12.0419 3.64176C12.2356 3.59887 12.3795 3.43622 12.3985 3.23894L12.6224 0.915356H15.3519L15.576 3.23894C15.595 3.43622 15.7389 3.59887 15.9324 3.64176C17.0765 3.89445 18.165 4.35358 19.1447 4.99614C19.3125 5.10629 19.5326 5.094 19.6872 4.96576L21.4768 3.48358L23.4929 5.49973L22.0107 7.28956C21.8823 7.44484 21.8704 7.66603 21.9817 7.83404C22.629 8.80949 23.0876 9.89756 23.3341 11.0419C23.3747 11.2363 23.5369 11.3815 23.7344 11.4007L26.0553 11.6246V14.4871Z" fill="#2A2A2A"/>
<path d="M15.5827 21.1082V14.1604C16.736 13.4944 17.4932 12.2301 17.4932 10.9271C17.4932 9.14664 16.4751 7.8499 14.7697 7.45869C14.6276 7.42607 14.4788 7.46294 14.3684 7.55789C14.2583 7.65307 14.1997 7.79494 14.2109 7.94016L14.3622 9.88192C13.9801 10.0823 13.5243 10.0826 13.1421 9.88237L13.3047 7.92989C13.3172 7.77975 13.2551 7.63318 13.1385 7.53778C13.0219 7.44238 12.8659 7.41043 12.7214 7.45244C11.1617 7.90419 10.19 9.24562 10.19 10.9537C10.19 12.5214 11.0126 13.7896 12.3853 14.3392V21.2601C11.413 21.8341 10.4762 22.9988 10.491 24.4807C10.491 26.2466 11.4977 27.5521 13.1809 27.9732C13.3239 28.009 13.4752 27.9739 13.5878 27.8789C13.7004 27.784 13.7605 27.6408 13.7493 27.494L13.5987 25.5525C13.9806 25.3521 14.4366 25.3518 14.8188 25.5518L14.6562 27.5045C14.6437 27.6546 14.7058 27.8012 14.8224 27.8966C14.939 27.992 15.095 28.0239 15.2395 27.9819C16.7916 27.5322 17.7653 26.1975 17.781 24.4937C17.7812 22.9257 16.9478 21.6578 15.5827 21.1082ZM15.6316 26.8193L15.7534 25.3561C15.7664 25.2003 15.6991 25.0489 15.5749 24.9541L15.5577 24.941C14.752 24.3295 13.6358 24.3368 12.8384 24.9588C12.7187 25.0533 12.6539 25.2015 12.6657 25.3536L12.7826 26.8588C11.9016 26.4198 11.409 25.5811 11.409 24.4762C11.3971 23.2724 12.2448 22.3236 13.04 21.9509C13.2002 21.8754 13.3018 21.7136 13.3007 21.5365V14.015C13.3018 13.8137 13.1707 13.6356 12.9781 13.5769C11.8228 13.2281 11.1067 12.2229 11.1067 10.9532C11.1067 9.93062 11.5616 9.0852 12.3286 8.61467L12.2073 10.0779C12.1943 10.2338 12.2618 10.3855 12.3865 10.48L12.4034 10.493C13.208 11.1043 14.3231 11.0978 15.1202 10.4773C15.1243 10.4742 15.1287 10.4706 15.1325 10.4675C15.2465 10.3726 15.3072 10.2282 15.2958 10.0803L15.1774 8.55904C16.076 8.98019 16.5785 9.81512 16.5785 10.9273C16.5785 11.964 15.9004 13.01 14.9294 13.4712C14.7699 13.5469 14.6683 13.7078 14.6683 13.8845V21.4321C14.6683 21.6339 14.8005 21.8117 14.9936 21.87C16.1491 22.219 16.8665 23.2242 16.8665 24.4896C16.8567 25.5078 16.398 26.3503 15.6319 26.8193H15.6316Z" fill="#2A2A2A"/>
</g>
<defs>
<clipPath id="clip0">
<rect width="28" height="28" fill="white"/>
</clipPath>
</defs>
</svg>
