<svg width="31" height="31" viewBox="0 0 31 31" fill="none" xmlns="http://www.w3.org/2000/svg">
<g clip-path="url(#clip0)">
<path d="M28.9525 11.7446L29.8606 10.8365C30.1232 10.574 30.2677 10.225 30.2677 9.85377C30.2677 9.48256 30.1232 9.13351 29.8606 8.87104L28.8205 7.8309C28.558 7.56843 28.209 7.42385 27.8378 7.42385C27.4666 7.42385 27.1176 7.56843 26.8551 7.8309L25.9469 8.73904C24.7484 7.91349 23.3883 7.30657 21.9243 6.97641V5.63415H22.4769C23.2251 5.63415 23.8338 5.02541 23.8338 4.27723V2.38951C23.8338 1.64127 23.2251 1.03253 22.4769 1.03253H16.2298C15.4816 1.03253 14.8729 1.64127 14.8729 2.38951V4.27717C14.8729 5.02535 15.4816 5.63408 16.2298 5.63408H16.7823V6.9801C15.325 7.31117 13.971 7.9167 12.7772 8.73898L11.8691 7.83084C11.6066 7.56837 11.2576 7.42379 10.8864 7.42379C10.5152 7.42379 10.1662 7.56837 9.90369 7.83084L8.86356 8.87097C8.32173 9.41287 8.32173 10.2945 8.86356 10.8364L9.02455 10.9974H4.73276C4.39842 10.9974 4.12729 11.2685 4.12729 11.6029C4.12729 11.9373 4.39842 12.2084 4.73276 12.2084H9.46818C9.01705 12.935 8.64353 13.7145 8.35963 14.5356H0.605468C0.271128 14.5356 0 14.8067 0 15.1411C0 15.4755 0.271128 15.7465 0.605468 15.7465H8.01348C7.84268 16.4976 7.74472 17.2758 7.7274 18.0738H3.87499C3.54065 18.0738 3.26952 18.3448 3.26952 18.6792C3.26952 19.0136 3.54065 19.2847 3.87499 19.2847H7.76361C7.82906 20.086 7.97613 20.8644 8.19627 21.6119H3.02734C2.693 21.6119 2.42187 21.883 2.42187 22.2174C2.42187 22.5518 2.693 22.8229 3.02734 22.8229H8.62694C10.3884 27.0155 14.5369 29.9674 19.3621 29.9674C25.7792 29.9674 31 24.7466 31 18.3295C31 15.8871 30.2431 13.6184 28.9525 11.7446ZM27.7113 8.68716C27.7546 8.64386 27.804 8.63478 27.8378 8.63478C27.8716 8.63478 27.921 8.64386 27.9643 8.68716L29.0044 9.72729C29.0477 9.77058 29.0568 9.81998 29.0568 9.85377C29.0568 9.88755 29.0477 9.93696 29.0044 9.98025L28.2084 10.7763C27.8117 10.3124 27.3792 9.87993 26.9153 9.48322L27.7113 8.68716ZM16.0838 4.27723V2.38951C16.0838 2.30898 16.1493 2.24347 16.2298 2.24347H22.4769C22.5574 2.24347 22.6229 2.30898 22.6229 2.38951V4.27717C22.6229 4.3577 22.5574 4.42315 22.4769 4.42315H21.3189H17.3878H16.2298C16.1493 4.42321 16.0838 4.3577 16.0838 4.27723ZM17.9932 5.63415H20.7134V6.77043C20.2699 6.7189 19.8192 6.69153 19.3621 6.69153C18.899 6.69153 18.4424 6.71957 17.9933 6.77242V5.63415H17.9932ZM9.71975 9.72723L10.7599 8.68709C10.8032 8.6438 10.8525 8.63472 10.8864 8.63472C10.9202 8.63472 10.9696 8.6438 11.0128 8.68709L11.8089 9.48316C11.3449 9.87987 10.9125 10.3123 10.5158 10.7762L9.71975 9.98019C9.65 9.9105 9.65 9.79698 9.71975 9.72723ZM19.3621 28.7564C13.6126 28.7564 8.93507 24.0789 8.93507 18.3294C8.93507 12.5799 13.6126 7.90241 19.3621 7.90241C25.1115 7.90241 29.7891 12.5799 29.7891 18.3294C29.7891 24.0789 25.1115 28.7564 19.3621 28.7564Z" fill="#2A2A2A"/>
<path d="M23.3584 13.4769L20.4963 16.339C20.1616 16.1475 19.7745 16.0374 19.3621 16.0374C18.0983 16.0374 17.0702 17.0656 17.0702 18.3294C17.0702 19.5932 18.0983 20.6214 19.3621 20.6214C20.6259 20.6214 21.654 19.5932 21.654 18.3294C21.654 17.917 21.544 17.53 21.3525 17.1953L24.2146 14.3332C24.4511 14.0967 24.4511 13.7134 24.2146 13.4769C23.9781 13.2404 23.5949 13.2404 23.3584 13.4769ZM19.3621 19.4105C18.766 19.4105 18.2811 18.9256 18.2811 18.3295C18.2811 17.7334 18.7661 17.2484 19.3621 17.2484C19.9581 17.2484 20.4431 17.7334 20.4431 18.3295C20.4431 18.9256 19.9582 19.4105 19.3621 19.4105Z" fill="#2A2A2A"/>
<path d="M19.3623 10.4795C19.5215 10.4795 19.6777 10.4147 19.7903 10.3021C19.9029 10.1894 19.9678 10.0332 19.9678 9.87399C19.9678 9.71475 19.903 9.55854 19.7903 9.44593C19.6777 9.33331 19.5215 9.26852 19.3623 9.26852C19.2031 9.26852 19.0468 9.33331 18.9342 9.44593C18.8216 9.55854 18.7568 9.71475 18.7568 9.87399C18.7568 10.0338 18.8215 10.1894 18.9342 10.3021C19.0469 10.4147 19.2031 10.4795 19.3623 10.4795Z" fill="#2A2A2A"/>
<path d="M19.3623 26.1792C19.2031 26.1792 19.0468 26.244 18.9342 26.3566C18.8216 26.4692 18.7568 26.6255 18.7568 26.7847C18.7568 26.9445 18.8215 27.1001 18.9342 27.2128C19.0468 27.326 19.2031 27.3902 19.3623 27.3902C19.5215 27.3902 19.6777 27.326 19.7903 27.2128C19.9029 27.1001 19.9678 26.9439 19.9678 26.7847C19.9678 26.6255 19.903 26.4692 19.7903 26.3566C19.6777 26.244 19.5215 26.1792 19.3623 26.1792Z" fill="#2A2A2A"/>
<path d="M13.3833 11.7449C13.224 11.7449 13.0678 11.8097 12.9552 11.9223C12.8426 12.0349 12.7778 12.1911 12.7778 12.3503C12.7778 12.5102 12.8425 12.6658 12.9552 12.779C13.0678 12.8916 13.224 12.9558 13.3833 12.9558C13.5425 12.9558 13.6987 12.8916 13.8113 12.779C13.9239 12.6658 13.9887 12.5102 13.9887 12.3503C13.9887 12.1911 13.924 12.0355 13.8113 11.9223C13.6987 11.8097 13.5425 11.7449 13.3833 11.7449Z" fill="#2A2A2A"/>
<path d="M25.3413 23.7029C25.1814 23.7029 25.0258 23.7677 24.9126 23.8803C24.8 23.9929 24.7358 24.1491 24.7358 24.3083C24.7358 24.4676 24.8 24.6238 24.9126 24.7364C25.0258 24.849 25.1814 24.9138 25.3413 24.9138C25.5005 24.9138 25.6567 24.849 25.7693 24.7364C25.8819 24.6238 25.9467 24.4676 25.9467 24.3083C25.9467 24.1491 25.882 23.9929 25.7693 23.8803C25.6567 23.7677 25.5005 23.7029 25.3413 23.7029Z" fill="#2A2A2A"/>
<path d="M13.3833 23.7029C13.224 23.7029 13.0678 23.7677 12.9552 23.8803C12.8426 23.9929 12.7778 24.1491 12.7778 24.3083C12.7778 24.4676 12.8425 24.6238 12.9552 24.7364C13.0679 24.849 13.224 24.9138 13.3833 24.9138C13.5425 24.9138 13.6987 24.849 13.8113 24.7364C13.9239 24.6238 13.9887 24.4676 13.9887 24.3083C13.9887 24.1491 13.924 23.9929 13.8113 23.8803C13.6987 23.7677 13.5425 23.7029 13.3833 23.7029Z" fill="#2A2A2A"/>
<path d="M10.9069 17.7239C10.7471 17.7239 10.5915 17.7887 10.4789 17.9013C10.3657 18.0139 10.3015 18.1701 10.3015 18.3293C10.3015 18.4886 10.3657 18.6448 10.4789 18.7574C10.5915 18.8706 10.7471 18.9348 10.9069 18.9348C11.0662 18.9348 11.2224 18.8706 11.335 18.7574C11.4475 18.6448 11.5124 18.4886 11.5124 18.3293C11.5124 18.1701 11.4476 18.0139 11.335 17.9013C11.2224 17.7887 11.0662 17.7239 10.9069 17.7239Z" fill="#2A2A2A"/>
<path d="M28.2457 17.9013C28.1331 17.7887 27.9769 17.7239 27.8177 17.7239C27.6578 17.7239 27.5022 17.7887 27.3897 17.9013C27.277 18.0139 27.2122 18.1701 27.2122 18.3293C27.2122 18.4892 27.277 18.6448 27.3897 18.7574C27.5022 18.87 27.6584 18.9348 27.8177 18.9348C27.9769 18.9348 28.1331 18.87 28.2457 18.7574C28.3583 18.6448 28.4231 18.4886 28.4231 18.3293C28.4231 18.1701 28.3583 18.014 28.2457 17.9013Z" fill="#2A2A2A"/>
<path d="M0.605469 21.6122C0.44623 21.6122 0.29002 21.6764 0.177402 21.789C0.0647852 21.9022 0 22.0578 0 22.2177C0 22.3769 0.0647246 22.5325 0.177402 22.6457C0.29002 22.7583 0.44623 22.8231 0.605469 22.8231C0.764707 22.8231 0.920918 22.7583 1.03347 22.6457C1.14609 22.5331 1.21094 22.3769 1.21094 22.2177C1.21094 22.0578 1.14615 21.9016 1.03347 21.789C0.920918 21.6764 0.764707 21.6122 0.605469 21.6122Z" fill="#2A2A2A"/>
<path d="M27.6395 16.491C27.9599 16.3955 28.1423 16.0583 28.0468 15.7378C27.6188 14.3016 26.8287 12.9798 25.7622 11.9155C24.6955 10.8511 23.3719 10.0639 21.9344 9.63908C21.6138 9.54426 21.277 9.72741 21.1821 10.0481C21.0873 10.3687 21.2705 10.7056 21.5912 10.8003C24.1459 11.5554 26.1254 13.5305 26.8863 16.0836C26.9646 16.3464 27.2055 16.5163 27.4663 16.5163C27.5235 16.5164 27.5818 16.5081 27.6395 16.491Z" fill="#2A2A2A"/>
</g>
<defs>
<clipPath id="clip0">
<rect width="31" height="31" fill="white"/>
</clipPath>
</defs>
</svg>
