<svg width="32" height="32" viewBox="0 0 32 32" fill="none" xmlns="http://www.w3.org/2000/svg">
<path d="M26.3928 12.2214C26.1487 11.9774 25.7529 11.9774 25.5089 12.2214C25.2648 12.4655 25.2648 12.8613 25.5089 13.1053C25.5185 13.115 25.5285 13.1248 25.5382 13.1338C25.6588 13.2467 25.8122 13.3026 25.9653 13.3026C26.1321 13.3026 26.2986 13.2361 26.4216 13.1048C26.6576 12.853 26.6447 12.4574 26.3928 12.2214Z" fill="#2A2A2A"/>
<path d="M25.123 11.1949C24.7653 10.952 24.398 10.7353 24.0313 10.5507C21.9572 9.50705 19.7593 9.29755 17.675 9.9448C17.3454 10.0472 17.1611 10.3974 17.2635 10.727C17.3659 11.0567 17.716 11.2409 18.0458 11.1385C19.8148 10.5891 21.6902 10.772 23.4693 11.6672C23.7831 11.8253 24.1122 12.0197 24.4209 12.2291C24.5285 12.3021 24.6506 12.3372 24.7714 12.3372C24.9715 12.3372 25.1682 12.2412 25.2891 12.0631C25.4829 11.7775 25.4086 11.3888 25.123 11.1949Z" fill="#2A2A2A"/>
<path d="M30.809 19.283C30.5528 18.7455 30.1285 17.8553 30.1208 17.5609C30.8517 15.7594 30.5851 13.7659 29.3677 11.9423C27.4957 9.13776 23.6588 7.10214 20.2446 7.10214C18.4399 7.10214 16.6776 7.53252 15.0921 8.35408C14.6372 5.86177 12.4515 3.96609 9.82985 3.96609C6.87949 3.96609 4.47925 6.36633 4.47925 9.31664C4.47925 11.1937 5.43587 12.9004 7.03799 13.8819C7.49986 14.1649 7.60436 14.4096 7.64149 14.8104V16.9443V18.4676C7.64149 19.1655 8.20911 19.7332 8.90679 19.7332H9.11929C9.4626 22.4692 10.7867 24.9533 12.8886 26.7812C12.9084 26.8429 12.9662 27.1324 12.7178 27.9959C12.5244 28.6687 12.2275 29.416 11.9657 30.0754C11.7905 30.5165 11.6391 30.8976 11.5476 31.1857C11.4873 31.3757 11.5212 31.583 11.6388 31.744C11.7566 31.9049 11.944 32 12.1433 32H21.0648C21.3579 32 21.7606 31.8687 22.014 31.2434C22.1243 30.9713 22.1963 30.6439 22.2726 30.2972C22.3469 29.9595 22.521 29.1684 22.6941 29.0729C22.6942 29.0729 22.7044 29.0712 22.7288 29.0749C22.7609 29.0801 22.7933 29.0825 22.8258 29.0825C23.7601 29.0825 24.5235 29.1249 25.1971 29.1622C27.1727 29.2718 28.3652 29.338 29.4112 27.8312C29.9432 27.0649 29.8829 25.9472 29.8191 24.7639C29.7862 24.154 29.7523 23.5245 29.8125 23.0012C29.9216 22.8938 30.1947 22.7063 30.366 22.5887C30.9551 22.184 31.5116 21.802 31.5116 21.221C31.5118 20.7795 31.2447 20.1969 30.809 19.283ZM7.69111 12.8159C6.46268 12.0634 5.72931 10.7553 5.72931 9.31657C5.72931 7.05546 7.56886 5.21603 9.82992 5.21603C12.091 5.21603 13.9305 7.05552 13.9305 9.31657C13.9305 10.7553 13.1972 12.0635 11.9687 12.8161C11.3849 13.1739 11.0379 13.5912 10.8732 14.1551L9.82973 14.1547L8.78673 14.1551C8.62192 13.5912 8.27498 13.1739 7.69111 12.8159ZM10.7683 15.4052V16.3192H8.89161V15.4052H10.7683ZM8.90692 18.4832C8.89998 18.4832 8.89161 18.4745 8.89161 18.4675V17.5692H10.7683V18.4675C10.7683 18.4746 10.7599 18.4832 10.7528 18.4832H8.90692ZM29.6585 21.5581C29.1206 21.9276 28.656 22.2466 28.5875 22.7294C28.4933 23.3916 28.5328 24.1234 28.571 24.8311C28.6183 25.709 28.672 26.7041 28.3845 27.1183C27.7626 28.0142 27.2247 28.0229 25.2664 27.9141C24.6203 27.8782 23.8185 27.8337 22.868 27.8324C22.5029 27.7894 21.8852 27.8579 21.4731 28.6592C21.2637 29.0661 21.1512 29.5774 21.0519 30.0284C21.0021 30.2551 20.932 30.5736 20.8664 30.7499H13.043C13.0704 30.6808 13.0987 30.6096 13.1277 30.5366C14.028 28.2696 14.5983 26.6068 13.7303 25.8564C11.8905 24.2653 10.7173 22.1106 10.3808 19.7332H10.7529C11.4507 19.7332 12.0184 19.1654 12.0184 18.4675V16.9442V14.8115C12.0555 14.41 12.1597 14.1652 12.6219 13.8819C14.1013 12.9755 15.0296 11.4507 15.1632 9.74451C16.6972 8.83295 18.4469 8.35208 20.2447 8.35208C23.2227 8.35208 26.6978 10.1939 28.3282 12.6362C29.0269 13.683 29.7018 15.3114 28.9488 17.1245C28.7036 17.715 29.0672 18.5338 29.6807 19.8208C29.8793 20.2375 30.1668 20.8406 30.243 21.1223C30.1138 21.2455 29.8362 21.4361 29.6585 21.5581Z" fill="#2A2A2A"/>
<path d="M12.8956 8.43357C12.7111 7.74951 12.2522 7.20163 11.5687 6.84895C11.2619 6.69088 10.885 6.81113 10.7267 7.11801C10.5685 7.42482 10.6889 7.80176 10.9957 7.95994C11.3689 8.15244 11.5956 8.41394 11.6887 8.75913C11.8362 9.30562 11.6132 9.89694 11.5153 10.0505C11.3297 10.3416 11.4153 10.728 11.7064 10.9136C11.8105 10.98 11.9268 11.0116 12.0417 11.0116C12.2482 11.0116 12.4502 10.9095 12.5693 10.7225C12.8359 10.3044 13.1428 9.34969 12.8956 8.43357Z" fill="#2A2A2A"/>
<path d="M9.82989 0C9.48471 0 9.2049 0.279936 9.2049 0.624998V2.40674C9.2049 2.7518 9.48471 3.03174 9.82989 3.03174C10.175 3.03174 10.4549 2.7518 10.4549 2.40674V0.624998C10.4549 0.279936 10.175 0 9.82989 0Z" fill="#2A2A2A"/>
<path d="M2.89521 8.71655H1.11346C0.768276 8.71655 0.488464 8.99649 0.488464 9.34155C0.488464 9.68674 0.768276 9.96655 1.11346 9.96655H2.89527C3.24039 9.96655 3.5202 9.68674 3.5202 9.34155C3.5202 8.99649 3.24033 8.71655 2.89521 8.71655Z" fill="#2A2A2A"/>
<path d="M6.90354 3.02268L6.01291 1.48031C5.84029 1.18137 5.45798 1.07906 5.15911 1.25156C4.86023 1.42418 4.75779 1.80637 4.93042 2.10531L5.82104 3.64767C5.93685 3.84824 6.14685 3.9603 6.36285 3.9603C6.46891 3.9603 6.57641 3.9333 6.67479 3.87642C6.97372 3.7038 7.07616 3.32161 6.90354 3.02268Z" fill="#2A2A2A"/>
<path d="M4.13611 5.33277L2.59355 4.44214C2.29468 4.26964 1.91237 4.37208 1.7398 4.67089C1.56718 4.96983 1.66962 5.35202 1.96855 5.52464L3.51111 6.41526C3.60948 6.47214 3.71698 6.49914 3.82298 6.49914C4.03898 6.49914 4.24904 6.38707 4.36486 6.18651C4.53748 5.8877 4.43504 5.50539 4.13611 5.33277Z" fill="#2A2A2A"/>
<path d="M17.9202 4.67085C17.7475 4.37192 17.3653 4.26948 17.0665 4.4421L15.5239 5.33273C15.225 5.50535 15.1225 5.88766 15.2952 6.18647C15.4109 6.38703 15.621 6.4991 15.837 6.4991C15.943 6.4991 16.0505 6.4721 16.1489 6.41522L17.6915 5.5246C17.9904 5.35198 18.0928 4.96979 17.9202 4.67085Z" fill="#2A2A2A"/>
<path d="M4.36517 12.4966C4.19267 12.1977 3.81055 12.0954 3.51155 12.2678L1.96862 13.1584C1.66968 13.3309 1.56718 13.7132 1.73974 14.0121C1.85549 14.2127 2.06562 14.3248 2.28162 14.3248C2.38762 14.3248 2.49505 14.2978 2.59349 14.241L4.13636 13.3504C4.4353 13.1779 4.5378 12.7956 4.36517 12.4966Z" fill="#2A2A2A"/>
<path d="M6.54624 15.0291C6.24743 14.8566 5.86512 14.9591 5.69249 15.2579L4.93037 16.5781C4.75781 16.877 4.86025 17.2593 5.15918 17.4318C5.25762 17.4887 5.36506 17.5157 5.47106 17.5157C5.68706 17.5157 5.89718 17.4036 6.01293 17.2031L6.77505 15.8829C6.94768 15.5839 6.84524 15.2017 6.54624 15.0291Z" fill="#2A2A2A"/>
<path d="M14.5009 1.25158C14.2019 1.07896 13.8197 1.1814 13.6471 1.48033L12.7565 3.0227C12.5839 3.32164 12.6862 3.70389 12.9852 3.87645C13.0836 3.93332 13.1911 3.96032 13.2971 3.96032C13.5131 3.96032 13.7232 3.84826 13.839 3.6477L14.7296 2.10533C14.9022 1.80639 14.7998 1.42421 14.5009 1.25158Z" fill="#2A2A2A"/>
</svg>
