<svg width="35" height="35" viewBox="0 0 35 35" fill="none" xmlns="http://www.w3.org/2000/svg">
<path d="M30.8617 13.7836L30.8561 13.7607C30.7654 13.3942 30.3948 13.1707 30.0284 13.2614C29.662 13.3521 29.4384 13.7226 29.5291 14.0891L29.5332 14.1058C29.609 14.4186 29.8887 14.6284 30.1969 14.6284C30.2503 14.6284 30.3045 14.6221 30.3585 14.6089C30.7253 14.5199 30.9507 14.1505 30.8617 13.7836Z" fill="#2A2A2A"/>
<path d="M12.7619 22.3025C11.0625 21.2771 10.0479 19.4815 10.0479 17.4995C10.0479 16.8869 10.146 16.2849 10.3394 15.7104C10.4598 15.3527 10.2674 14.965 9.90965 14.8446C9.55192 14.7243 9.16426 14.9166 9.04381 15.2744C8.80304 15.9897 8.68095 16.7384 8.68095 17.4996C8.68095 19.9648 9.9426 22.1979 12.0557 23.4731C12.1663 23.5397 12.2879 23.5714 12.4082 23.5714C12.6398 23.5714 12.8656 23.4536 12.994 23.2408C13.1891 22.9176 13.0851 22.4976 12.7619 22.3025Z" fill="#2A2A2A"/>
<path d="M20.4314 12.4227C19.1335 11.2007 17.4364 10.5276 15.6529 10.5276C14.8176 10.5276 14.0003 10.674 13.2237 10.9627C12.8699 11.0942 12.6897 11.4877 12.8212 11.8416C12.9527 12.1954 13.3461 12.3756 13.7001 12.2441C14.3238 12.0122 14.9807 11.8946 15.6529 11.8946C17.0868 11.8946 18.451 12.4356 19.4943 13.418C19.6263 13.5423 19.7947 13.6039 19.9627 13.6039C20.1445 13.6039 20.326 13.5318 20.4605 13.3889C20.7192 13.1141 20.7062 12.6815 20.4314 12.4227Z" fill="#2A2A2A"/>
<path d="M34.3165 17.7055H29.1741V16.2914C29.1741 15.604 28.6148 15.0448 27.9275 15.0448H27.0099C26.54 12.8607 25.4578 10.8715 23.8695 9.28306C21.1742 6.58785 17.3234 5.38589 13.5682 6.06723C13.1968 6.13463 12.9503 6.49037 13.0177 6.86184C13.0851 7.2333 13.4409 7.47953 13.8123 7.41233C17.1263 6.81091 20.5247 7.87157 22.9028 10.2498C24.2344 11.5814 25.1631 13.2317 25.608 15.0449H21.8766C21.1892 15.0449 20.63 15.6041 20.63 16.2915V17.7055H15.4876C15.1101 17.7055 14.804 18.0117 14.804 18.3891V22.5822C14.804 23.2238 15.0539 23.8078 15.4608 24.2432V27.751C12.7943 27.7055 10.304 26.6506 8.40301 24.7496C5.96292 22.3095 4.91757 18.8312 5.6067 15.4449C5.68196 15.075 5.44312 14.7141 5.07322 14.6388C4.70319 14.5635 4.34239 14.8024 4.26713 15.1723C3.48633 19.0092 4.671 22.9508 7.43627 25.7162C9.56402 27.8439 12.462 29.0654 15.4608 29.117V31.5938C15.4608 31.658 15.4651 31.721 15.4727 31.7831C7.67826 31.6861 1.36698 25.3166 1.36698 17.4996C1.36698 15.0553 1.98871 12.666 3.16962 10.5487L5.47586 12.8658C5.60417 12.9948 5.77855 13.0672 5.96032 13.0672H10.2594L14.474 17.2818C14.6075 17.4153 14.7824 17.482 14.9573 17.482C15.1322 17.482 15.3072 17.4153 15.4406 17.2818C15.7075 17.0148 15.7075 16.5821 15.4406 16.315L11.226 12.1005V7.80137C11.226 7.6198 11.1537 7.44569 11.0251 7.31745L8.71247 5.01046C10.8271 3.83352 13.2124 3.21391 15.6526 3.21391C21.1976 3.21391 26.2879 6.46597 28.621 11.499C28.7366 11.7485 28.9836 11.8952 29.2415 11.8952C29.3378 11.8952 29.4355 11.8748 29.5286 11.8316C29.8711 11.6728 30.02 11.2665 29.8613 10.924C28.6227 8.25199 26.6606 5.98772 24.187 4.37608C21.6477 2.72145 18.6965 1.84692 15.6527 1.84692C12.8484 1.84692 10.1095 2.59402 7.70943 4.00988L5.74226 2.04729C5.54654 1.85212 5.25273 1.79388 4.99755 1.89983C4.7423 2.00572 4.57605 2.25482 4.57605 2.53113V6.40485H0.690361C0.414121 6.40485 0.165156 6.57104 0.0591992 6.82602C-0.0467578 7.08106 0.0110742 7.37474 0.205898 7.57052L2.17007 9.54398C0.749561 11.9473 0 14.6905 0 17.4996C0 21.6806 1.62818 25.6114 4.58459 28.5678C7.541 31.5243 11.4718 33.1524 15.6528 33.1524L32.7839 33.1531C33.6437 33.1531 34.3432 32.4537 34.3432 31.5938V24.2435C34.767 23.791 35 23.204 35 22.5809V18.3889C35 18.0115 34.694 17.7055 34.3165 17.7055ZM5.94303 4.17853L9.85906 8.08485V10.7306L5.94303 6.80578V4.17853ZM4.97595 7.77197L8.89239 11.6999H6.24442L2.33502 7.77197H4.97595ZM21.997 16.4118H27.8069V17.7055H21.997V16.4118ZM32.9761 28.5046H28.4905C28.113 28.5046 27.807 28.8107 27.807 29.1881C27.807 29.5656 28.113 29.8717 28.4905 29.8717H32.9761V31.5937C32.9761 31.6998 32.8899 31.7861 32.7839 31.7861H17.858C17.8531 31.786 17.8484 31.7853 17.8434 31.7853H17.0127C16.9101 31.7814 16.8278 31.6973 16.8278 31.5938V24.9817C16.9615 25.0045 17.0988 25.0171 17.2389 25.0171H22.8761C22.9973 26.0275 23.8593 26.8135 24.902 26.8135C25.9461 26.8135 26.8092 26.0251 26.9283 25.0123L32.5633 25.0159C32.5639 25.0159 32.5644 25.0159 32.5649 25.0159C32.7042 25.0159 32.8415 25.0036 32.976 24.9808V28.5046H32.9761ZM24.2281 24.7726V23.5711H25.5759V24.7726C25.5759 25.1442 25.2736 25.4465 24.902 25.4465C24.5305 25.4465 24.2281 25.1442 24.2281 24.7726ZM33.6329 22.5809C33.6329 22.8663 33.5218 23.1346 33.3199 23.3363C33.1181 23.5379 32.8501 23.6489 32.5649 23.6489C32.5647 23.6489 32.5645 23.6489 32.5642 23.6489L26.9429 23.6454V23.0189C26.9429 22.5696 26.5774 22.204 26.128 22.204H23.6759C23.2265 22.204 22.8609 22.5695 22.8609 23.0189V23.65H17.2389C16.65 23.65 16.171 23.1709 16.171 22.582V19.0725H33.6329V22.5809H33.6329Z" fill="#2A2A2A"/>
<path d="M25.6248 28.7049C25.4976 28.5778 25.3213 28.5046 25.1416 28.5046C24.9611 28.5046 24.7855 28.5777 24.6576 28.7049C24.5305 28.8321 24.458 29.0084 24.458 29.1882C24.458 29.368 24.5305 29.5443 24.6576 29.6713C24.7855 29.7985 24.9612 29.8717 25.1416 29.8717C25.3213 29.8717 25.497 29.7985 25.6248 29.6713C25.7519 29.5443 25.8251 29.3679 25.8251 29.1882C25.8251 29.0084 25.7519 28.8321 25.6248 28.7049Z" fill="#2A2A2A"/>
</svg>
