<svg width="34" height="34" viewBox="0 0 34 34" fill="none" xmlns="http://www.w3.org/2000/svg">
<path d="M12.2 32.2306C12.2 32.2306 22.5177 4.96234 23.8173 31.1248M2.19896 22.9568C13 21 21.4173 8.96939 12.2 1.76939M25 3.22573C29.739 6.04258 33 11.2283 33 17C33 17.268 32.993 17.5347 32.9791 17.8M25 3.22573C22.6289 1.81635 19.8878 1 17 1C8.34055 1 1 8.34055 1 17C1 25.6594 8.34055 33 17 33C25.3915 33 32.5444 26.1068 32.9791 17.8M25 3.22573C20.2 9 24.9582 17.8 32.9791 17.8" stroke="#FAFAFA" stroke-width="2" stroke-linecap="round" stroke-linejoin="round"/>
</svg>
