<svg width="32" height="29" viewBox="0 0 32 29" fill="none" xmlns="http://www.w3.org/2000/svg">
<path d="M30.9537 1L31.9515 0.933846C31.9249 0.532703 31.6607 0.186489 31.2808 0.0549994C30.9009 -0.0764898 30.4791 0.0323145 30.2103 0.331193L30.9537 1ZM29.8141 7.34051C29.8141 6.78822 29.3664 6.34051 28.8141 6.34051C28.2619 6.34051 27.8141 6.78822 27.8141 7.34051H29.8141ZM16 9.25V10.25H17V9.25H16ZM3.13955 1L4.07606 0.649352C3.93652 0.27668 3.5893 0.0222076 3.19191 0.00137168C2.79452 -0.0194641 2.42259 0.197302 2.24485 0.553339L3.13955 1ZM11.5 20.5L12.2077 21.2066C12.4524 20.9615 12.5528 20.6072 12.4732 20.2701C12.3936 19.933 12.1452 19.6611 11.8167 19.5515L11.5 20.5ZM1 24.5714V23.5714C0.559465 23.5714 0.170822 23.8597 0.0430113 24.2813C-0.0847992 24.7029 0.0783335 25.1585 0.444707 25.4031L1 24.5714ZM27.1773 3.08582L26.4355 3.7565L26.7958 4.15499L27.327 4.07454L27.1773 3.08582ZM29.9559 1.06615C30.0666 2.73646 29.965 3.75984 29.69 4.53507C29.4224 5.2894 28.9558 5.90788 28.1223 6.70655L29.506 8.15059C30.4405 7.2551 31.1577 6.37986 31.5749 5.20372C31.9847 4.04849 32.0689 2.70466 31.9515 0.933846L29.9559 1.06615ZM29.8141 8.90177V7.42857H27.8141V8.90177H29.8141ZM29.8141 7.42857V7.34051H27.8141V7.42857H29.8141ZM15 7.75V9.25H17V7.75H15ZM22.4834 0C18.2868 0 15 3.65098 15 7.75H17C17 4.65095 19.4931 2 22.4834 2V0ZM27.8141 8.90177C27.8141 18.2068 20.0006 26.25 10.75 26.25V28.25C21.1442 28.25 29.8141 19.2719 29.8141 8.90177H27.8141ZM2.20304 1.35065C3.37632 4.48422 7.77068 10.25 16 10.25V8.25C8.82456 8.25 5.04233 3.23007 4.07606 0.649352L2.20304 1.35065ZM2.24485 0.553339C0.0110972 5.02774 -0.37918 9.40859 1.18194 13.1445C2.74308 16.8804 6.174 19.7762 11.1833 21.4485L11.8167 19.5515C7.19802 18.0095 4.30917 15.441 3.0273 12.3734C1.74542 9.3057 1.9889 5.54368 4.03425 1.44666L2.24485 0.553339ZM10.7923 19.7934C9.50838 21.0794 5.81166 23.5714 1 23.5714V25.5714C6.45818 25.5714 10.6389 22.7777 12.2077 21.2066L10.7923 19.7934ZM27.919 2.41513C26.5792 0.933431 24.6397 0 22.4834 0V2C24.0503 2 25.4586 2.67604 26.4355 3.7565L27.919 2.41513ZM27.327 4.07454C28.9397 3.83029 30.5149 2.98293 31.6971 1.66881L30.2103 0.331193C29.3256 1.31452 28.1646 1.92488 27.0275 2.09709L27.327 4.07454ZM0.444707 25.4031C3.87054 27.6905 7.1687 28.25 10.75 28.25V26.25C7.4167 26.25 4.54811 25.7381 1.55529 23.7398L0.444707 25.4031Z" fill="#FFC01C"/>
</svg>
