<svg width="34" height="34" viewBox="0 0 34 34" fill="none" xmlns="http://www.w3.org/2000/svg">
<path d="M26.486 15.895C26.656 15.9205 26.673 15.929 26.6985 15.9205C27.6675 15.6825 27.9225 15.096 27.7865 13.3705C27.7185 12.5205 27.2935 12.0955 26.4435 12.019C25.1515 11.9085 25.1175 11.9085 25.16 10.574C25.3045 5.91598 22.134 2.94948 18.8785 2.26948C13.9995 1.24948 9.4095 4.86198 9.299 9.85148C9.2565 11.9765 9.2905 14.1015 9.282 16.2265C9.282 17.102 9.0695 17.2975 8.1855 17.289C6.392 17.2635 5.3295 16.2095 5.3125 14.416C5.3125 14.2715 5.3125 14.1355 5.3125 13.991C5.3125 11.883 5.865 11.1605 7.939 10.6165C7.8795 7.56498 8.925 4.95548 11.288 2.94098C13.022 1.47048 15.045 0.79898 17.2975 0.76498C21.1905 0.70548 26.622 3.88448 26.554 10.625C28.9255 11.271 29.954 13.617 28.8235 15.8525C28.4495 16.592 27.8545 17.085 27.03 17.2125C26.639 17.272 26.4775 17.408 26.4435 17.8245C26.0695 21.8535 22.8905 24.6585 18.836 24.5735C18.326 24.565 18.02 24.4035 17.8415 23.8765C17.7565 23.6215 17.4165 23.273 17.119 23.307C16.7365 23.3495 16.6175 23.6895 16.643 23.8425C16.694 24.106 16.9405 24.4375 17.1785 24.5225C17.6545 24.6925 17.9605 24.905 17.8075 25.432C17.663 25.942 17.221 25.908 16.813 25.8315C15.9885 25.6785 15.3085 24.8965 15.2405 24.0465C15.181 23.222 15.6995 22.3805 16.473 22.0745C17.3145 21.743 18.2835 21.947 18.751 22.6865C19.0655 23.1795 19.4055 23.239 19.9155 23.188C22.763 22.882 25.058 20.4085 25.143 17.4845C25.177 16.422 25.1515 15.3595 25.1515 14.297C25.1515 13.804 25.2365 13.3535 25.84 13.3535C26.4095 13.3535 26.486 13.804 26.486 14.263C26.4945 14.7985 26.486 15.334 26.486 15.895ZM7.9135 12.104C6.902 12.172 6.6555 12.5715 6.6555 14.059C6.6555 15.3765 6.9445 15.81 7.9135 15.8695C7.9135 14.62 7.9135 13.362 7.9135 12.104Z" fill="#2A2A2A"/>
<path d="M7.48848 30.1495C8.27048 29.342 9.01848 28.492 9.84298 27.7355C10.1575 27.4465 10.6505 27.2255 11.067 27.217C17.2975 27.183 23.528 27.1915 29.7585 27.1915C31.416 27.1915 31.756 26.8515 31.756 25.211C31.7475 19.431 31.756 13.6425 31.7475 7.86249C31.7475 6.42599 31.365 6.05199 29.9455 6.05199C29.07 6.05199 28.203 6.06049 27.3275 6.05199C26.877 6.05199 26.503 5.89899 26.52 5.37199C26.5285 4.86199 26.894 4.70899 27.3445 4.71749C28.3815 4.71749 29.4185 4.69199 30.464 4.72599C31.96 4.77699 33.0735 5.84799 33.082 7.34399C33.1075 13.532 33.1075 19.7115 33.082 25.8995C33.0735 27.506 31.9005 28.5175 30.175 28.5175C24.225 28.526 18.275 28.543 12.3335 28.492C11.271 28.4835 10.5145 28.764 9.83447 29.563C9.06947 30.4555 8.19397 31.263 7.32697 32.062C7.10597 32.266 6.65548 32.4615 6.42598 32.368C6.20498 32.2745 6.01797 31.824 6.00947 31.518C5.95847 30.3875 5.98398 29.257 5.98398 28.118C5.98398 27.659 6.07748 27.2255 6.63848 27.217C7.19948 27.2085 7.31848 27.625 7.31848 28.101C7.31848 28.7385 7.31848 29.376 7.31848 30.0135C7.37798 30.0645 7.42898 30.107 7.48848 30.1495Z" fill="#2A2A2A"/>
<path d="M1.36 16.558C1.36 13.634 1.36 10.7015 1.36 7.77751C1.36 5.77151 2.4055 4.73451 4.42 4.73451C5.2955 4.73451 6.171 4.73451 7.038 4.72601C7.514 4.72601 7.922 4.83651 7.9305 5.39751C7.939 5.96701 7.5055 6.06051 7.0465 6.06051C6.103 6.06051 5.1595 6.05201 4.216 6.06901C3.162 6.08601 2.703 6.54501 2.703 7.59901C2.6945 13.617 2.703 19.635 2.7115 25.6615C2.7115 26.6645 2.975 26.9535 4.0035 27.2C4.4285 27.302 4.7175 27.506 4.641 27.9735C4.5645 28.441 4.216 28.5515 3.791 28.5175C2.414 28.424 1.3855 27.285 1.377 25.772C1.3515 22.695 1.36 19.6265 1.36 16.558Z" fill="#2A2A2A"/>
<path d="M16.864 3.41698C20.6635 3.39998 23.528 6.05198 23.8085 9.51998C23.851 10.03 23.902 10.608 23.205 10.6505C22.5505 10.693 22.542 10.1235 22.491 9.63898C22.253 7.38648 21.0885 5.78848 18.9465 5.04898C16.8045 4.30948 14.892 4.82798 13.328 6.46848C12.5205 7.30998 12.0785 8.33848 11.968 9.51148C11.951 9.65598 11.951 9.79198 11.934 9.93648C11.8915 10.3615 11.713 10.693 11.237 10.659C10.7695 10.625 10.625 10.285 10.625 9.85998C10.6505 8.36398 11.135 7.02948 12.0785 5.88198C13.4045 4.27548 15.1215 3.45948 16.864 3.41698Z" fill="#2A2A2A"/>
<path d="M14.2715 18.8955C14.6377 18.8955 14.9345 18.5986 14.9345 18.2325C14.9345 17.8663 14.6377 17.5695 14.2715 17.5695C13.9054 17.5695 13.6085 17.8663 13.6085 18.2325C13.6085 18.5986 13.9054 18.8955 14.2715 18.8955Z" fill="#2A2A2A"/>
<path d="M17.2125 18.8955C17.5787 18.8955 17.8755 18.5986 17.8755 18.2325C17.8755 17.8663 17.5787 17.5695 17.2125 17.5695C16.8463 17.5695 16.5495 17.8663 16.5495 18.2325C16.5495 18.5986 16.8463 18.8955 17.2125 18.8955Z" fill="#2A2A2A"/>
<path d="M20.1535 18.8955C20.5196 18.8955 20.8165 18.5986 20.8165 18.2325C20.8165 17.8663 20.5196 17.5695 20.1535 17.5695C19.7873 17.5695 19.4905 17.8663 19.4905 18.2325C19.4905 18.5986 19.7873 18.8955 20.1535 18.8955Z" fill="#2A2A2A"/>
</svg>
