<svg width="30" height="30" viewBox="0 0 30 30" fill="none" xmlns="http://www.w3.org/2000/svg">
<g clip-path="url(#clip0)">
<path d="M8.81527 18.2815C9.25332 18.0605 9.77902 18.2255 10.0122 18.6572L11.6668 21.7211C11.7943 21.9572 12.0659 22.0764 12.326 22.0107C12.5861 21.945 12.7683 21.711 12.7683 21.4427V16.969C12.7682 16.6454 12.5059 16.3831 12.1823 16.3831C11.8587 16.3831 11.5964 16.6455 11.5964 16.969V19.1247L11.0432 18.1005C10.5064 17.1065 9.2958 16.7263 8.2874 17.2353C7.42437 17.6707 6.97994 18.631 7.20664 19.5707L8.27931 24.0169C8.53004 25.0562 8.97705 26.0209 9.60787 26.8842L11.7093 29.7598C11.824 29.9168 12.0022 30.0001 12.1828 30.0001C12.3028 30.0001 12.4238 29.9633 12.5281 29.8872C12.7893 29.6962 12.8464 29.3296 12.6555 29.0683L10.554 26.1927C10.0149 25.4549 9.63283 24.6304 9.41855 23.7421L8.34588 19.2958C8.24738 18.8877 8.44045 18.4706 8.81527 18.2815Z" fill="#2A2A2A"/>
<path d="M22.0445 15.784C21.6987 15.784 21.3732 15.8725 21.0894 16.028C20.8019 15.2791 20.0756 14.7458 19.2266 14.7458C18.8605 14.7458 18.5174 14.8454 18.2221 15.0183C17.9065 14.3316 17.2127 13.8534 16.4089 13.8534C16.1155 13.8534 15.837 13.9176 15.5859 14.0318V11.2303C15.5859 10.1304 14.6911 9.2355 13.5911 9.2355C12.4911 9.2355 11.5963 10.1303 11.5963 11.2303V12.246C11.5963 12.5696 11.8586 12.8319 12.1822 12.8319C12.5058 12.8319 12.7681 12.5696 12.7681 12.246V11.2304C12.7681 10.7766 13.1373 10.4074 13.5911 10.4074C14.0448 10.4074 14.414 10.7766 14.414 11.2304V19.4984C14.414 19.822 14.6764 20.0843 15 20.0843C15.3236 20.0843 15.5859 19.822 15.5859 19.4984V15.8482C15.5859 15.3944 15.955 15.0252 16.4089 15.0252C16.8627 15.0252 17.2318 15.3944 17.2318 15.8482V19.4984C17.2318 19.822 17.4941 20.0843 17.8177 20.0843C18.1414 20.0843 18.4037 19.822 18.4037 19.4984V16.7406C18.4037 16.2868 18.7728 15.9176 19.2266 15.9176C19.6804 15.9176 20.0496 16.2868 20.0496 16.7406V19.4984C20.0496 19.822 20.3119 20.0843 20.6355 20.0843C20.9591 20.0843 21.2215 19.822 21.2215 19.4984V17.7787C21.2215 17.325 21.5907 16.9558 22.0444 16.9558C22.4982 16.9558 22.8674 17.325 22.8674 17.7787V22.7228C22.8674 24.0402 22.6674 25.3457 22.2732 26.6028L21.4467 29.2385C21.3499 29.5472 21.5217 29.8761 21.8305 29.9729C21.8888 29.9912 21.9479 29.9999 22.006 29.9999C22.2552 29.9998 22.4864 29.8395 22.5649 29.5891L23.3914 26.9534C23.8213 25.5827 24.0392 24.1592 24.0392 22.7228V17.7787C24.0393 16.6789 23.1445 15.784 22.0445 15.784Z" fill="#2A2A2A"/>
<path d="M29.9509 3.10717C29.8339 2.74747 29.5287 2.4903 29.1544 2.43598L27.3597 2.17577L26.5567 0.549669C26.3893 0.210586 26.0504 0 25.6723 0C25.6722 0 25.6721 0 25.672 0C25.2937 5.85939e-05 24.9548 0.210879 24.7875 0.550138L23.9854 2.17659L22.1908 2.43786C21.8165 2.49235 21.5114 2.74969 21.3947 3.10952C21.2779 3.46928 21.3737 3.85671 21.6446 4.12061L22.9436 5.38612L22.6375 7.17359C22.5737 7.54642 22.7242 7.91609 23.0302 8.13828C23.2031 8.26384 23.4053 8.32754 23.6088 8.32754C23.7657 8.32754 23.9233 8.28968 24.069 8.2131L25.674 7.36876L27.2794 8.21228C27.6142 8.3883 28.0123 8.35935 28.3182 8.13687C28.6241 7.91445 28.7744 7.54478 28.7103 7.17195L28.4033 5.38466L29.7015 4.1185C29.9723 3.85436 30.0679 3.46682 29.9509 3.10717ZM27.5153 4.61374C27.2828 4.84044 27.1768 5.16692 27.2319 5.48696L27.4918 7.00003L26.1327 6.28601C25.8452 6.13484 25.502 6.13501 25.2146 6.28618L23.8559 7.00097L24.1151 5.48767C24.1698 5.16763 24.0637 4.84132 23.8311 4.61468L22.7314 3.54335L24.2507 3.32221C24.572 3.2754 24.8496 3.0736 24.9932 2.78233L25.6723 1.40549L26.3521 2.78192C26.4959 3.07313 26.7736 3.27475 27.095 3.32145L28.6144 3.54182L27.5153 4.61374Z" fill="#2A2A2A"/>
<path d="M19.278 3.10717C19.161 2.74747 18.8559 2.49024 18.4815 2.43598L16.6868 2.17577L15.8838 0.549669C15.7163 0.210586 15.3775 0 14.9993 0C14.9993 0 14.9991 0 14.999 0C14.6208 5.85939e-05 14.2819 0.210879 14.1146 0.550138L13.3125 2.17659L11.5179 2.43786C11.1436 2.49235 10.8385 2.74969 10.7218 3.10952C10.605 3.46928 10.7008 3.85671 10.9717 4.12061L12.2706 5.38607L11.9645 7.17353C11.9007 7.54636 12.0512 7.91603 12.3572 8.13822C12.5301 8.26379 12.7323 8.32748 12.9358 8.32748C13.0927 8.32748 13.2504 8.28963 13.396 8.21304L15.001 7.36876L16.6064 8.21222C16.9412 8.38824 17.3393 8.35929 17.6452 8.13681C17.9512 7.91439 18.1015 7.54472 18.0374 7.17189L17.7303 5.3846L19.0286 4.11845C19.2993 3.85436 19.3949 3.46688 19.278 3.10717ZM16.8425 4.61374C16.61 4.84038 16.504 5.16681 16.559 5.48696L16.8189 7.00003L15.4599 6.28601C15.1723 6.13489 14.829 6.13495 14.5417 6.28618L13.183 7.00097L13.4421 5.48767C13.4969 5.16757 13.3907 4.84126 13.1581 4.61468L12.0585 3.54335L13.5778 3.32221C13.899 3.2754 14.1767 3.0736 14.3203 2.78233L14.9994 1.40543L15.6792 2.78192C15.823 3.07307 16.1007 3.27475 16.4222 3.32145L17.9415 3.54182L16.8425 4.61374Z" fill="#2A2A2A"/>
<path d="M8.60485 3.10717C8.4879 2.74747 8.18268 2.4903 7.80833 2.43598L6.01366 2.17577L5.21069 0.549669C5.04322 0.210586 4.70438 0 4.32621 0C4.32615 0 4.32604 0 4.32592 0C3.9477 5.85939e-05 3.60879 0.210879 3.4415 0.550138L2.63935 2.17659L0.844798 2.43786C0.470501 2.49235 0.165461 2.74969 0.0486834 3.10946C-0.0680941 3.46923 0.0275896 3.85665 0.298528 4.12061L1.5975 5.38612L1.2914 7.17359C1.22759 7.54642 1.37806 7.91609 1.6841 8.13834C1.85701 8.26384 2.05916 8.32759 2.26277 8.32754C2.41963 8.32754 2.5773 8.28968 2.72297 8.2131L4.32797 7.36882L5.93338 8.21228C6.26825 8.38818 6.66628 8.35929 6.97219 8.13693C7.27811 7.91445 7.42835 7.54466 7.3643 7.17189L7.05727 5.3846L8.35554 4.11845C8.62624 3.85436 8.72181 3.46688 8.60485 3.10717ZM6.16934 4.61368C5.93678 4.84032 5.83079 5.16681 5.88581 5.48696L6.14573 7.00003L4.78676 6.28601C4.49924 6.13489 4.15594 6.13495 3.86859 6.28618L2.5098 7.00103L2.7689 5.48784C2.82375 5.1678 2.71763 4.84144 2.48496 4.61474L1.38539 3.54335L2.90467 3.32221C3.22594 3.2754 3.50355 3.0736 3.64717 2.78233L4.32627 1.40543L5.00608 2.78192C5.14981 3.07307 5.42748 3.27475 5.74899 3.32145L7.26839 3.54182L6.16934 4.61368Z" fill="#2A2A2A"/>
<path d="M12.5966 14.2459C12.4876 14.1369 12.3365 14.0742 12.1823 14.0742C12.0282 14.0742 11.877 14.1369 11.7681 14.2459C11.6591 14.355 11.5964 14.506 11.5964 14.6602C11.5964 14.8143 11.6591 14.9655 11.7681 15.0744C11.877 15.1834 12.0282 15.2461 12.1823 15.2461C12.3364 15.2461 12.4876 15.1834 12.5966 15.0744C12.7056 14.9655 12.7683 14.8143 12.7683 14.6602C12.7683 14.506 12.7056 14.3549 12.5966 14.2459Z" fill="#2A2A2A"/>
</g>
<defs>
<clipPath id="clip0">
<rect width="30" height="30" fill="white"/>
</clipPath>
</defs>
</svg>
