<svg width="31" height="32" viewBox="0 0 31 32" fill="none" xmlns="http://www.w3.org/2000/svg">
<g clip-path="url(#clip0)">
<path d="M24.9907 0H6.00933C5.75806 0 5.55432 0.210312 5.55432 0.469687V18.5613C5.55432 18.8206 5.75806 19.0309 6.00933 19.0309C6.2606 19.0309 6.46434 18.8207 6.46434 18.5613V0.939313H24.5357V31.0606H23.509V24.7113C23.509 24.4519 23.3052 24.2416 23.0539 24.2416C22.8027 24.2416 22.5989 24.4519 22.5989 24.7113V31.0606H8.40105V2.93856H22.5989V22.8326C22.5989 23.092 22.8026 23.3023 23.0539 23.3023C23.3052 23.3023 23.509 23.092 23.509 22.8326V2.46887C23.509 2.2095 23.3052 1.99919 23.0539 1.99919H7.94604C7.69477 1.99919 7.49103 2.20944 7.49103 2.46887V31.0607H6.46428V20.4399C6.46428 20.1806 6.26054 19.9702 6.00927 19.9702C5.758 19.9702 5.55426 20.1805 5.55426 20.4399V31.5303C5.55426 31.7897 5.758 32 6.00927 32H24.9906C25.2419 32 25.4456 31.7897 25.4456 31.5303V0.469687C25.4457 0.210312 25.2419 0 24.9907 0V0Z" fill="#2A2A2A"/>
<path d="M10.4743 10.475C10.223 10.475 10.0193 10.6853 10.0193 10.9447V15.4379C10.0193 15.6973 10.223 15.9076 10.4743 15.9076H20.5257C20.777 15.9076 20.9808 15.6973 20.9808 15.4379V5.01656C20.9808 4.75719 20.777 4.54688 20.5257 4.54688H10.4743C10.223 4.54688 10.0193 4.75712 10.0193 5.01656V9.066C10.0193 9.32537 10.223 9.53569 10.4743 9.53569C10.7256 9.53569 10.9293 9.32537 10.9293 9.066V5.48625H20.0707V14.9682H10.9292V10.9446C10.9292 10.6852 10.7256 10.475 10.4743 10.475Z" fill="#2A2A2A"/>
<path d="M10.0193 28.9826C10.0193 29.242 10.223 29.4523 10.4743 29.4523H20.5257C20.777 29.4523 20.9808 29.2421 20.9808 28.9826V18.5613C20.9808 18.3019 20.777 18.0916 20.5257 18.0916H10.4743C10.223 18.0916 10.0193 18.3018 10.0193 18.5613V28.9826ZM10.9292 19.031H20.0707V28.513H10.9292V19.031Z" fill="#2A2A2A"/>
<path d="M22.1794 16.9996C22.1794 16.5107 21.7941 16.113 21.3205 16.113C21.0141 16.113 20.7454 16.28 20.5933 16.5299H19.5076C19.2563 16.5299 19.0526 16.7402 19.0526 16.9996C19.0526 17.259 19.2563 17.4693 19.5076 17.4693H20.5933C20.7454 17.7192 21.0141 17.8862 21.3205 17.8862C21.7941 17.8862 22.1794 17.4885 22.1794 16.9996Z" fill="#2A2A2A"/>
</g>
<defs>
<clipPath id="clip0">
<rect width="31" height="32" fill="white"/>
</clipPath>
</defs>
</svg>
