<svg width="37" height="37" viewBox="0 0 37 37" fill="none" xmlns="http://www.w3.org/2000/svg">
<path d="M21.4829 36.7593C21.3288 36.7844 21.1741 36.8075 21.0188 36.8287C21.1741 36.8075 21.3288 36.7844 21.4829 36.7593Z" fill="#2A2A2A"/>
<path d="M21.8529 36.696C21.7792 36.7096 21.7055 36.722 21.6318 36.7347C21.7055 36.722 21.7792 36.7096 21.8529 36.696Z" fill="#2A2A2A"/>
<path d="M20.6057 36.88C20.4254 36.9003 20.2438 36.9184 20.0618 36.9336C20.2438 36.9184 20.4254 36.9003 20.6057 36.88Z" fill="#2A2A2A"/>
<path d="M20.961 36.8365C20.8744 36.8481 20.7871 36.8588 20.7002 36.869C20.7871 36.8588 20.8744 36.8481 20.961 36.8365Z" fill="#2A2A2A"/>
<path d="M22.3565 36.5961C22.2915 36.6099 22.2263 36.6237 22.1611 36.637C22.2263 36.6237 22.2915 36.6099 22.3565 36.5961Z" fill="#2A2A2A"/>
<path d="M23.6067 36.2855C23.5542 36.3005 23.5017 36.3146 23.4492 36.3293C23.5017 36.3146 23.5542 36.3005 23.6067 36.2855Z" fill="#2A2A2A"/>
<path d="M23.2288 36.3889C23.1717 36.4039 23.1144 36.4191 23.0571 36.4335C23.1144 36.4191 23.1717 36.4042 23.2288 36.3889Z" fill="#2A2A2A"/>
<path d="M22.7339 36.5126C22.6735 36.5267 22.6125 36.54 22.5515 36.5535C22.6125 36.54 22.6735 36.5267 22.7339 36.5126Z" fill="#2A2A2A"/>
<path d="M20.0556 36.9342C19.9582 36.9424 19.8609 36.9497 19.7632 36.9562C19.8609 36.9497 19.9582 36.9424 20.0556 36.9342Z" fill="#2A2A2A"/>
<path d="M37 18.5C37 8.28429 28.7157 0 18.5 0C8.28429 0 0 8.28429 0 18.5C0 28.7157 8.28429 37 18.5 37C18.6087 37 18.7168 36.9977 18.8252 36.9958V22.5943H14.8506V17.9622H18.8252V14.5536C18.8252 10.6005 21.2385 8.44887 24.7648 8.44887C26.4535 8.44887 27.905 8.57477 28.3281 8.63094V12.7625H25.8965C23.9781 12.7625 23.6066 13.6743 23.6066 15.0121V17.9622H28.1938L27.5959 22.5943H23.6066V36.2852C31.3393 34.0684 37 26.9444 37 18.5Z" fill="#2A2A2A"/>
<path d="M19.7222 36.9589C19.5296 36.9713 19.3363 36.9812 19.1423 36.9877C19.3363 36.9812 19.5296 36.9713 19.7222 36.9589Z" fill="#2A2A2A"/>
<path d="M19.1326 36.9882C19.0304 36.9915 18.9279 36.9941 18.8254 36.9958C18.9279 36.9941 19.0304 36.9915 19.1326 36.9882Z" fill="#2A2A2A"/>
</svg>
