<svg width="37" height="37" viewBox="0 0 37 37" fill="none" xmlns="http://www.w3.org/2000/svg">
<path d="M18.5 0C8.28429 0 0 8.28429 0 18.5C0 28.7157 8.28429 37 18.5 37C28.7157 37 37 28.7157 37 18.5C37 8.28429 28.7157 0 18.5 0ZM13.1241 27.9668H8.61852V14.4116H13.1241V27.9668ZM10.8715 12.5607H10.8421C9.33017 12.5607 8.35233 11.5199 8.35233 10.2191C8.35233 8.88895 9.36009 7.87695 10.9014 7.87695C12.4427 7.87695 13.3912 8.88895 13.4205 10.2191C13.4205 11.5199 12.4427 12.5607 10.8715 12.5607ZM29.3703 27.9668H24.8653V20.7151C24.8653 18.8927 24.2129 17.6497 22.5827 17.6497C21.3381 17.6497 20.5968 18.4881 20.2711 19.2975C20.1519 19.5871 20.1229 19.9919 20.1229 20.397V27.9668H15.6176C15.6176 27.9668 15.6766 15.6833 15.6176 14.4116H20.1229V16.3309C20.7216 15.4073 21.7929 14.0935 24.1833 14.0935C27.1476 14.0935 29.3703 16.0308 29.3703 20.1943V27.9668Z" fill="#2A2A2A"/>
</svg>
