<svg width="13" height="10" viewBox="0 0 13 10" fill="none" xmlns="http://www.w3.org/2000/svg">
<path d="M1.16921 2.95027C1.32331 3.05901 1.78782 3.38196 2.56276 3.91897C3.33773 4.45598 3.9314 4.86947 4.34382 5.15945C4.38913 5.19124 4.48539 5.26033 4.63265 5.36683C4.77994 5.47341 4.90233 5.55953 4.99971 5.62522C5.09716 5.69089 5.21497 5.76455 5.35326 5.8461C5.4915 5.92758 5.62182 5.98887 5.74417 6.02944C5.86656 6.07035 5.97985 6.09061 6.08406 6.09061H6.0909H6.09775C6.20197 6.09061 6.3153 6.07032 6.43769 6.02944C6.56 5.98887 6.69043 5.92751 6.82855 5.8461C6.96674 5.76446 7.08456 5.69086 7.18201 5.62522C7.27946 5.55953 7.40175 5.47341 7.54909 5.36683C7.69633 5.26024 7.79271 5.19124 7.83802 5.15945C8.25489 4.86947 9.31545 4.133 11.0194 2.95012C11.3502 2.7191 11.6266 2.44033 11.8486 2.11401C12.0708 1.78784 12.1818 1.44567 12.1818 1.08769C12.1818 0.788538 12.0741 0.532462 11.8588 0.319482C11.6435 0.106454 11.3886 0 11.0941 0H1.08761C0.73868 0 0.470151 0.117812 0.282076 0.353435C0.0940255 0.589106 0 0.883682 0 1.23714C0 1.52265 0.124669 1.83203 0.373888 2.16511C0.623083 2.49821 0.888278 2.75995 1.16921 2.95027Z" fill="#FFED10"/>
<path d="M11.5019 3.67757C10.0156 4.68357 8.88701 5.46539 8.11669 6.02288C7.85837 6.21314 7.64882 6.36167 7.48789 6.4681C7.32696 6.5746 7.11293 6.68336 6.8455 6.79434C6.57816 6.90549 6.32901 6.96089 6.09784 6.96089H6.09091H6.08408C5.85296 6.96089 5.60367 6.90549 5.33633 6.79434C5.06899 6.68336 4.85482 6.5746 4.69394 6.4681C4.5331 6.36167 4.32348 6.21314 4.06519 6.02288C3.45335 5.57425 2.32718 4.79238 0.686655 3.67757C0.428269 3.50547 0.199408 3.30821 0 3.08618V8.48354C0 8.78283 0.106454 9.03876 0.319482 9.25177C0.532462 9.46484 0.788561 9.57134 1.08769 9.57134H11.0942C11.3932 9.57134 11.6493 9.46484 11.8623 9.25177C12.0754 9.03869 12.1818 8.78285 12.1818 8.48354V3.08618C11.9869 3.30361 11.7604 3.50088 11.5019 3.67757Z" fill="#FFED10"/>
</svg>
