<svg height="512pt" viewBox="0 0 512 512.128" width="512pt" xmlns="http://www.w3.org/2000/svg"><path d="m472.101562 312.015625h-135.976562c-4.425781 0-8-3.574219-8-8v-31.992187c0-4.421876 3.574219-8 8-8h135.976562c4.421876 0 8 3.578124 8 8v31.992187c0 4.425781-3.578124 8-8 8zm-127.976562-16h119.976562v-15.992187h-119.976562zm0 0"/><path d="m460.027344 480.128906c-11.03125 0-20-8.96875-20-20s8.96875-20 20-20 20 8.96875 20 20-8.96875 20-20 20zm0-24c-2.199219 0-4 1.800782-4 4 0 2.199219 1.800781 4 4 4 2.199218 0 4-1.800781 4-4 0-2.199218-1.800782-4-4-4zm0 0"/><path d="m460.027344 423.976562c-11.03125 0-20-8.96875-20-20s8.96875-20 20-20 20 8.96875 20 20-8.96875 20-20 20zm0-24c-2.199219 0-4 1.800782-4 4 0 2.199219 1.800781 4 4 4 2.199218 0 4-1.800781 4-4 0-2.199218-1.800782-4-4-4zm0 0"/><path d="m460.027344 367.910156c-11.03125 0-20-8.964844-20-20 0-11.03125 8.96875-20 20-20s20 8.96875 20 20c0 11.035156-8.96875 20-20 20zm0-24c-2.199219 0-4 1.800782-4 4 0 2.203125 1.800781 4 4 4 2.199218 0 4-1.796875 4-4 0-2.199218-1.800782-4-4-4zm0 0"/><path d="m403.972656 480.128906c-11.03125 0-20-8.96875-20-20s8.96875-20 20-20 20 8.96875 20 20-8.96875 20-20 20zm0-24c-2.199218 0-4 1.800782-4 4 0 2.199219 1.800782 4 4 4 2.199219 0 4-1.800781 4-4 0-2.199218-1.792968-4-4-4zm0 0"/><path d="m403.972656 423.976562c-11.03125 0-20-8.96875-20-20s8.96875-20 20-20 20 8.96875 20 20-8.96875 20-20 20zm0-24c-2.199218 0-4 1.800782-4 4 0 2.199219 1.800782 4 4 4 2.199219 0 4-1.800781 4-4 0-2.199218-1.792968-4-4-4zm0 0"/><path d="m403.972656 367.910156c-11.03125 0-20-8.964844-20-20 0-11.03125 8.96875-20 20-20s20 8.96875 20 20c0 11.035156-8.96875 20-20 20zm0-24c-2.199218 0-4 1.800782-4 4 0 2.203125 1.800782 4 4 4 2.199219 0 4-1.796875 4-4 0-2.199218-1.792968-4-4-4zm0 0"/><path d="m347.914062 480.128906c-11.03125 0-20-8.96875-20-20s8.96875-20 20-20c11.035157 0 20 8.96875 20 20s-8.964843 20-20 20zm0-24c-2.199218 0-4 1.800782-4 4 0 2.199219 1.800782 4 4 4 2.203126 0 4-1.800781 4-4 0-2.199218-1.789062-4-4-4zm0 0"/><path d="m347.914062 423.976562c-11.03125 0-20-8.96875-20-20s8.96875-20 20-20c11.035157 0 20 8.96875 20 20s-8.964843 20-20 20zm0-24c-2.199218 0-4 1.800782-4 4 0 2.199219 1.800782 4 4 4 2.203126 0 4-1.800781 4-4 0-2.199218-1.789062-4-4-4zm0 0"/><path d="m347.914062 367.910156c-11.03125 0-20-8.964844-20-20 0-11.03125 8.96875-20 20-20 11.035157 0 20 8.96875 20 20 0 11.035156-8.964843 20-20 20zm0-24c-2.199218 0-4 1.800782-4 4 0 2.203125 1.800782 4 4 4 2.203126 0 4-1.796875 4-4 0-2.199218-1.789062-4-4-4zm0 0"/><path d="m503.972656 512.128906h-199.960937c-4.421875 0-8-3.578125-8-8v-264.066406c0-4.421875 3.578125-8 8-8h199.960937c4.421875 0 8 3.578125 8 8v264.066406c0 4.421875-3.578125 8-8 8zm-191.960937-16h183.960937v-248.066406h-183.960937zm0 0"/><path d="m168.09375 352.070312c-4.425781 0-8-3.574218-8-8v-23.992187c0-4.421875 3.574219-8 8-8 4.421875 0 8 3.578125 8 8v23.992187c0 4.425782-3.578125 8-8 8zm0 0"/><path d="m272.109375 352.070312c-4.425781 0-8-3.574218-8-8v-23.992187c0-4.421875 3.574219-8 8-8 4.421875 0 8 3.578125 8 8v23.992187c0 4.425782-3.585937 8-8 8zm0 0"/><path d="m272.109375 328.078125h-104.015625c-4.425781 0-8-3.574219-8-8 0-4.421875 3.574219-8 8-8h104.015625c4.421875 0 8 3.578125 8 8 0 4.425781-3.585937 8-8 8zm0 0"/><path d="m204.148438 328.078125c-4.425782 0-8-3.574219-8-8v-240c0-4.421875 3.574218-8 8-8 4.421874 0 8 3.578125 8 8v240c0 4.425781-3.585938 8-8 8zm0 0"/><path d="m236.011719 328.078125c-4.421875 0-8-3.574219-8-8v-240c0-4.421875 3.578125-8 8-8 4.425781 0 8 3.578125 8 8v240c0 4.425781-3.574219 8-8 8zm0 0"/><path d="m236.011719 31.9375c-4.421875 0-8-3.578125-8-8 0-4.378906-3.550781-7.9375-7.925781-7.9375-4.378907 0-7.9375 3.558594-7.9375 7.9375 0 4.421875-3.578126 8-8 8-4.425782 0-8-3.578125-8-8 0-13.195312 10.742187-23.9375 23.9375-23.9375 13.191406 0 23.925781 10.742188 23.925781 23.9375 0 4.421875-3.574219 8-8 8zm0 0"/><path d="m368.308594 87.96875c-4.425782 0-8-3.578125-8-8 0-4.425781 3.574218-8 8-8 4.375 0 7.933594-3.5625 7.933594-7.9375s-3.558594-7.933594-7.933594-7.933594c-4.425782 0-8-3.578125-8-8 0-4.425781 3.574218-8 8-8 13.191406 0 23.933594 10.742188 23.933594 23.933594s-10.734376 23.9375-23.933594 23.9375zm0 0"/><path d="m368.308594 56.097656h-296.320313c-4.425781 0-8-3.578125-8-8 0-4.425781 3.574219-8 8-8h296.320313c4.421875 0 8 3.574219 8 8 0 4.421875-3.578125 8-8 8zm0 0"/><path d="m368.308594 87.96875h-296.457032c-4.421874 0-8-3.578125-8-8 0-4.425781 3.578126-8 8-8h296.457032c4.421875 0 8 3.574219 8 8 0 4.421875-3.578125 8-8 8zm0 0"/><path d="m72.074219 87.96875c-13.191407 0-23.933594-10.746094-23.933594-23.9375s10.742187-23.933594 23.933594-23.933594c4.425781 0 8 3.574219 8 8 0 4.421875-3.574219 8-8 8-4.375 0-7.933594 3.558594-7.933594 7.933594s3.558594 7.9375 7.933594 7.9375c4.425781 0 8 3.574219 8 8 0 4.421875-3.574219 8-8 8zm0 0"/><path d="m204.148438 56.097656c-4.425782 0-8-3.578125-8-8v-24.160156c0-4.425781 3.574218-8 8-8 4.421874 0 8 3.574219 8 8v24.160156c0 4.421875-3.585938 8-8 8zm0 0"/><path d="m236.011719 56.097656c-4.421875 0-8-3.578125-8-8v-24.160156c0-4.425781 3.578125-8 8-8 4.425781 0 8 3.574219 8 8v24.160156c0 4.421875-3.574219 8-8 8zm0 0"/><path d="m72.066406 312.0625c-39.703125 0-71.9999998-32.292969-71.9999998-72 0-4.421875 3.5781248-8 7.9999998-8 4.425782 0 8 3.578125 8 8 0 30.875 25.128906 56 56 56 30.875 0 56-25.125 56-56 0-4.421875 3.578125-8 8-8 4.425782 0 8 3.578125 8 8 0 39.707031-32.292968 72-72 72zm0 0"/><path d="m136.066406 248.0625h-128c-4.421875 0-7.9999998-3.574219-7.9999998-8 0-4.421875 3.5781248-8 7.9999998-8h128c4.425782 0 8 3.578125 8 8 0 4.425781-3.574218 8-8 8zm0 0"/><path d="m136.066406 248.0625c-3.167968 0-6.167968-1.894531-7.421875-5.023438l-64.207031-160.09375c-1.648438-4.105468.34375-8.761718 4.445312-10.402343 4.105469-1.671875 8.761719.34375 10.402344 4.449219l64.207032 160.097656c1.648437 4.101562-.34375 8.757812-4.449219 10.398437-.976563.398438-1.984375.574219-2.976563.574219zm0 0"/><path d="m8.066406 248.0625c-.980468 0-1.992187-.175781-2.957031-.566406-4.105469-1.632813-6.113281-6.289063-4.472656-10.390625l63.792969-160.097657c1.636718-4.105468 6.292968-6.113281 10.390624-4.464843 4.105469 1.632812 6.113282 6.289062 4.472657 10.394531l-63.792969 160.085938c-1.257812 3.136718-4.257812 5.039062-7.433594 5.039062zm0 0"/><path d="m432.140625 248.0625c-3.167969 0-6.167969-1.894531-7.425781-5.023438l-64.207032-160.09375c-1.648437-4.105468.34375-8.761718 4.449219-10.402343 4.109375-1.671875 8.757813.34375 10.398438 4.449219l64.207031 160.097656c1.648438 4.101562-.34375 8.757812-4.445312 10.398437-.976563.398438-1.984376.574219-2.976563.574219zm0 0"/><path d="m304.140625 248.0625c-.984375 0-1.992187-.175781-2.960937-.566406-4.105469-1.632813-6.113282-6.289063-4.472657-10.390625l63.792969-160.097657c1.632812-4.105468 6.28125-6.121093 10.390625-4.472656 4.105469 1.632813 6.113281 6.289063 4.472656 10.394532l-63.800781 160.09375c-1.246094 3.136718-4.246094 5.039062-7.421875 5.039062zm0 0"/><path d="m304.058594 352.265625h-223.964844c-4.425781 0-8-3.578125-8-8 0-4.425781 3.574219-8 8-8h223.964844c4.425781 0 8 3.574219 8 8 0 4.421875-3.574219 8-8 8zm0 0"/><path d="m304.058594 432.265625h-223.964844c-4.425781 0-8-3.578125-8-8 0-4.425781 3.574219-8 8-8h223.964844c4.425781 0 8 3.574219 8 8 0 4.421875-3.574219 8-8 8zm0 0"/><path d="m80.109375 432.128906c-13.234375 0-24-10.769531-24-24 0-4.425781 3.574219-8 8-8 4.421875 0 8 3.574219 8 8 0 4.414063 3.582031 8 8 8 4.421875 0 8 3.574219 8 8 0 4.421875-3.585937 8-8 8zm0 0"/><path d="m64.109375 367.910156c-4.425781 0-8-3.574218-8-8 0-13.230468 10.765625-24 24-24 4.421875 0 8 3.578125 8 8 0 4.425782-3.578125 8-8 8-4.417969 0-8 3.585938-8 8 0 4.425782-3.585937 8-8 8zm0 0"/><path d="m64.109375 416.128906c-4.425781 0-8-3.578125-8-8v-48.207031c0-4.425781 3.574219-8 8-8 4.421875 0 8 3.574219 8 8v48.207031c0 4.421875-3.585937 8-8 8zm0 0"/><path d="m96.109375 456.128906c-4.425781 0-8-3.578125-8-8v-23.855468c0-4.425782 3.574219-8 8-8 4.421875 0 8 3.574218 8 8v23.855468c0 4.421875-3.585937 8-8 8zm0 0"/><path d="m168.117188 456.128906h-72.007813c-4.425781 0-8-3.578125-8-8 0-4.425781 3.574219-8 8-8h72.007813c4.421874 0 8 3.574219 8 8 0 4.421875-3.585938 8-8 8zm0 0"/><path d="m168.117188 456.128906c-4.425782 0-8-3.578125-8-8v-23.855468c0-4.425782 3.574218-8 8-8 4.421874 0 8 3.574218 8 8v23.855468c0 4.421875-3.585938 8-8 8zm0 0"/></svg>