<svg id="Capa_1" enable-background="new 0 0 511.875 511.875" height="512" viewBox="0 0 511.875 511.875" width="512" xmlns="http://www.w3.org/2000/svg"><path d="m386.784 190.016c-10.592-29.671-30.833-55.382-58.418-72.893-3.498-2.219-8.131-1.183-10.352 2.313-2.22 3.497-1.185 8.132 2.313 10.352 22.759 14.448 39.932 35.128 49.917 59.067 0 0-35.447 0-35.448 0-.799 0-5.332-8.003-6.114-9.03-2.294-3.01-4.762-5.887-7.389-8.612-5.147-5.339-10.901-10.09-17.12-14.13-13.923-9.045-30.135-14.4-46.688-15.417-.027-.002-.055-.004-.082-.005-4.906-.299-9.904-.225-14.789.217-.086.008-.172.015-.258.023-4.704.439-10.158 1.352-14.587 2.481-.054.014-.102.039-.155.053-28.9 7.955-53.11 27.725-65.191 55.414-4.264 9.772-6.718 19.487-7.656 29.975-.956 10.686-.106 21.996 2.523 32.389.005.021.015.039.021.06 7.48 28.889 27.976 53.282 55.377 65.26 8.013 3.503 16.527 5.849 25.182 7.073 10.99 1.554 21.242 1.327 32.117-.78 26.687-5.17 50.736-22.072 64.813-45.603h35.368c-19.48 46.375-65.355 79.031-118.725 79.031-70.974 0-128.716-57.741-128.716-128.715 0-70.975 57.742-128.716 128.716-128.716 13.361 0 26.524 2.036 39.125 6.052 3.945 1.262 8.165-.921 9.423-4.868 1.258-3.946-.922-8.165-4.869-9.423-14.075-4.486-28.771-6.761-43.68-6.761-79.245 0-143.716 64.471-143.716 143.716s64.471 143.715 143.716 143.715c62.217 0 115.319-39.744 135.27-95.176 22.331-4.862 39.109-24.773 39.109-48.54-.001-23.74-16.742-43.633-39.037-48.522zm-58.723 19.174h-33.925c-3.599-5.219-8.127-9.747-13.346-13.346v-33.925c21.675 8.331 38.94 25.597 47.271 47.271zm-76.622 66.189c-20.313 0-36.838-16.525-36.838-36.838s16.525-36.838 36.838-36.838 36.838 16.525 36.838 36.838-16.525 36.838-36.838 36.838zm-5.003-118.74c1.653-.1 19.355-.337 19.355 1.115v30.986c-4.561-1.316-9.372-2.036-14.351-2.036-4.975 0-9.783.719-14.341 2.034 0-15.222 0-30.986 0-30.986.051-.592 8.781-1.08 9.337-1.113zm-24.338 5.276v33.922c-5.223 3.6-9.755 8.131-13.356 13.353h-33.925c8.333-21.678 25.602-38.945 47.281-47.275zm-51.632 89.939c-1.431-8.73-1.432-17.857-.01-26.572.06-.366.131-.727.195-1.092h30.985c-1.316 4.561-2.036 9.372-2.036 14.351 0 4.976.719 9.784 2.034 14.342h-30.984c-.06-.343-.127-.684-.184-1.029zm4.348 16.029h33.922c3.602 5.226 8.136 9.76 13.362 13.362v33.922c-21.682-8.331-38.953-25.602-47.284-47.284zm78.891 52.67c-5.2.141-10.447-.2-15.575-1.038-.346-.057-.688-.124-1.032-.185v-30.985c4.558 1.315 9.366 2.034 14.341 2.034 4.979 0 9.79-.72 14.351-2.036v30.986c-3.876.687-8.275 1.12-12.085 1.224zm27.086-5.39v-33.925c5.222-3.601 9.752-8.132 13.352-13.355h33.922c-8.33 21.679-25.597 38.948-47.274 47.28zm51.437-62.28h-30.984c1.315-4.558 2.034-9.366 2.034-14.342 0-4.979-.72-9.79-2.036-14.351 0 0 30.857-.037 30.978-.044 1.927-.121 2.026 28.359.008 28.737zm43.908 20.34h-34.038c1.352-3.522 2.506-7.14 3.445-10.844.016-.057.042-.108.057-.166 2.314-9.201 3.317-20.721 2.652-30.212-.404-5.766-1.238-11.532-2.652-17.141-.016-.065-.046-.123-.064-.187-.938-3.695-2.091-7.305-3.439-10.818h34.04c19.125 0 34.684 15.56 34.684 34.685s-15.56 34.683-34.685 34.683z"/><path d="m503.187 287.934c-4.142 0-7.5 3.357-7.5 7.5v156.889c0 5.379-4.376 9.755-9.755 9.755h-52.352-74.85-139.769c-4.142 0-7.5 3.357-7.5 7.5s3.358 7.5 7.5 7.5h132.269v14.075c0 11.427 9.296 20.723 20.723 20.723h48.404c11.426 0 20.723-9.296 20.723-20.723v-14.075h44.852c13.65 0 24.755-11.104 24.755-24.755v-156.889c0-4.143-3.358-7.5-7.5-7.5zm-77.107 203.218c0 3.155-2.567 5.723-5.723 5.723h-48.404c-3.155 0-5.723-2.567-5.723-5.723v-14.075h59.849v14.075z"/><path d="m485.932 0h-459.989c-13.65 0-24.755 11.104-24.755 24.755v98.421 56.533 117.659 56.533 98.421c0 13.649 11.105 24.755 24.755 24.755h44.852v14.075c0 11.427 9.296 20.723 20.723 20.723h48.404c11.427 0 20.723-9.296 20.723-20.723v-14.075h23.126c4.142 0 7.5-3.357 7.5-7.5s-3.358-7.5-7.5-7.5h-157.828c-5.379 0-9.755-4.376-9.755-9.755v-90.921h23.909v53.311c0 11.271 9.17 20.441 20.442 20.441h390.798c11.271 0 20.442-9.17 20.442-20.441v-352.347c0-11.271-9.17-20.441-20.442-20.441h-390.798c-11.271 0-20.442 9.17-20.442 20.441v53.311h-23.909v-90.921c0-5.379 4.376-9.755 9.755-9.755h459.988c5.379 0 9.755 4.376 9.755 9.755v236.016c0 4.143 3.358 7.5 7.5 7.5s7.5-3.357 7.5-7.5v-236.016c.001-13.651-11.104-24.755-24.754-24.755zm-340.287 477.077v14.075c0 3.155-2.567 5.723-5.723 5.723h-48.404c-3.155 0-5.723-2.567-5.723-5.723v-14.075zm-129.457-289.868h23.909v102.659h-23.909zm0 159.192v-41.533h39.977c11.451 0 20.767 9.315 20.767 20.767s-9.316 20.767-20.767 20.767h-39.977zm38.909-284.036c0-3 2.441-5.441 5.442-5.441h390.798c3 0 5.442 2.441 5.442 5.441v352.347c0 3-2.441 5.441-5.442 5.441h-390.798c-3 0-5.442-2.441-5.442-5.441v-53.311h1.068c19.722 0 35.767-16.045 35.767-35.767s-16.045-35.767-35.767-35.767h-1.068v-102.658h1.068c19.722 0 35.767-16.045 35.767-35.767s-16.045-35.767-35.767-35.767h-1.068zm1.068 68.311c11.451 0 20.767 9.315 20.767 20.767s-9.316 20.767-20.767 20.767h-39.977v-41.533h39.977z"/><circle cx="80.365" cy="80.399" r="8.483"/><circle cx="431.51" cy="80.399" r="8.483"/><circle cx="80.365" cy="396.678" r="8.483"/><circle cx="431.51" cy="396.678" r="8.483"/></svg>