<?xml version="1.0" encoding="iso-8859-1"?>
<!-- Generator: Adobe Illustrator 19.0.0, SVG Export Plug-In . SVG Version: 6.00 Build 0)  -->
<svg version="1.1" id="Capa_1" xmlns="http://www.w3.org/2000/svg" xmlns:xlink="http://www.w3.org/1999/xlink" x="0px" y="0px"
	 viewBox="0 0 512.001 512.001" style="enable-background:new 0 0 512.001 512.001;" xml:space="preserve">
<g>
	<g>
		<path d="M275.138,345.48l-38.529-16.819l-5.114-5.114c26.681-8.292,46.394-18.08,47.325-18.545
			c1.779-0.89,3.132-2.449,3.761-4.337c0.629-1.887,0.482-3.946-0.407-5.726c-0.138-0.275-13.785-28.299-13.785-91.394v-29.153
			c0-56.379-45.868-102.247-102.248-102.247c-56.379,0-102.248,45.868-102.248,102.247v29.153c0,62.553-13.66,91.139-13.785,91.394
			c-0.89,1.779-1.036,3.839-0.407,5.726c0.629,1.888,1.982,3.447,3.761,4.337c0.922,0.461,20.542,10.202,47.128,18.484l-5.175,5.175
			L56.886,345.48c-19.429,8.481-31.879,28.409-30.981,49.589l4.651,109.749c0.171,4.03,3.492,7.183,7.488,7.183
			c0.107,0,0.215-0.002,0.323-0.007c4.139-0.175,7.351-3.672,7.176-7.811l-4.651-109.749c-0.311-7.331,1.645-14.442,5.315-20.512
			l21.021,25.226c6.59,7.907,10.219,17.931,10.219,28.224V504.5c0,4.142,3.358,7.5,7.5,7.5c4.142,0,7.5-3.358,7.5-7.5v-77.128
			c0-13.795-4.864-27.229-13.695-37.827l-22.244-26.692c1.984-1.401,4.107-2.633,6.38-3.625l33.821-14.764l23.86,38.73
			c2.281,3.702,6.053,6.213,10.348,6.89c0.773,0.122,1.548,0.182,2.318,0.182c3.512,0,6.933-1.245,9.646-3.56l15.632-13.339V504.5
			c0,4.142,3.358,7.5,7.5,7.5c4.142,0,7.5-3.358,7.5-7.5V373.366l15.631,13.339c2.713,2.315,6.133,3.56,9.646,3.56
			c0.771,0,1.546-0.06,2.318-0.182c4.295-0.676,8.067-3.188,10.348-6.89l23.86-38.73l33.821,14.764
			c2.273,0.992,4.396,2.224,6.38,3.625l-22.244,26.692c-8.832,10.598-13.695,24.032-13.695,37.827V504.5c0,4.142,3.358,7.5,7.5,7.5
			c4.142,0,7.5-3.358,7.5-7.5v-77.128c0-10.292,3.629-20.316,10.219-28.224l21.021-25.226c3.67,6.07,5.625,13.181,5.315,20.512
			l-4.651,109.749c-0.175,4.138,3.037,7.635,7.176,7.811c0.108,0.005,0.215,0.007,0.323,0.007c3.996,0,7.317-3.153,7.488-7.183
			l4.651-109.749C307.017,373.889,294.567,353.961,275.138,345.48z M78.892,174.393c0.002-48.109,39.141-87.247,87.25-87.247
			c48.108,0,87.248,39.139,87.248,87.247v29.153c0,49.084,8.007,78.423,12.47,90.962c-8.825,3.972-26.145,11.231-46.431,16.972
			l-3.895-3.895c-1.375-1.375-3.231-2.156-5.173-2.19v-12.901c12.613-8.328,22.894-20.205,29.254-34.61
			c3.784-8.57,5.913-18.093,6.154-27.537c0.802-31.277-25.827-39.139-54.02-47.462c-23.327-6.887-49.766-14.692-71.396-35.733
			c-2.969-2.888-7.717-2.823-10.605,0.147c-2.888,2.969-2.823,7.717,0.146,10.605c24.288,23.625,53.853,32.354,77.608,39.367
			c29.567,8.729,43.757,13.764,43.272,32.692c-0.192,7.506-1.88,15.065-4.881,21.862c-10.452,23.673-33.906,38.969-59.752,38.969
			c-31.52,0-58.529-22.494-64.221-53.485c-1.348-7.338-8.134-12.666-15.469-12.127c-0.688,0.05-1.405-0.01-2.124-0.18
			c-3.098-0.733-5.434-4.102-5.434-7.835v-5.594c0-3.75,2.521-7.131,5.737-7.695c2.706-0.476,5.304,0.52,6.945,2.659
			c1.393,1.817,3.251,3.117,5.372,3.757c3.106,0.939,6.53,0.388,9.163-1.47c6.038-4.262,11.155-9.667,15.209-16.065
			c2.217-3.499,1.179-8.132-2.32-10.35c-3.499-2.216-8.133-1.179-10.35,2.32c-2.291,3.614-5.028,6.792-8.166,9.484
			c-4.982-4.357-11.72-6.291-18.447-5.11c-1.083,0.19-2.128,0.479-3.144,0.825V174.393z M66.424,294.506
			c3.281-9.219,8.472-27.528,10.995-56.069c1.106,0.484,2.258,0.878,3.453,1.161c2.093,0.496,4.217,0.687,6.322,0.566
			c4.081,21.993,16.904,40.479,34.47,52.174v13.057c-1.876,0.033-3.742,0.76-5.173,2.191l-3.837,3.837
			C92.494,305.701,75.232,298.468,66.424,294.506z M133.259,375.196l-24.08-39.086l12.615-12.615l33.175,33.175L133.259,375.196z
			 M166.012,346.5l-29.349-29.348v-16.97c9.17,3.621,19.122,5.612,29.478,5.612c10.187,0,20.067-1.94,29.219-5.524v16.882
			L166.012,346.5z M198.765,375.196l-21.709-18.526l33.175-33.175l12.615,12.615L198.765,375.196z"/>
	</g>
</g>
<g>
	<g>
		<path d="M136.533,423.303h-22.109c-4.142,0-7.5,3.358-7.5,7.5c0,4.142,3.358,7.5,7.5,7.5h22.109c4.142,0,7.5-3.358,7.5-7.5
			C144.033,426.661,140.675,423.303,136.533,423.303z"/>
	</g>
</g>
<g>
	<g>
		<path d="M476.261,84.824c-1.556-3.84-5.928-5.691-9.767-4.136s-5.691,5.928-4.136,9.767c5.829,14.39,8.784,29.632,8.784,45.303
			c0,66.586-54.172,120.758-120.758,120.758c-18.652,0-36.532-4.135-53.145-12.291c-3.718-1.825-8.212-0.291-10.038,3.427
			c-1.825,3.719-0.291,8.212,3.427,10.038c18.687,9.174,38.792,13.826,59.755,13.826c74.857,0,135.758-60.901,135.758-135.758
			C486.141,118.148,482.817,101.011,476.261,84.824z"/>
	</g>
</g>
<g>
	<g>
		<path d="M401.422,9.922C385.204,3.338,368.032,0,350.383,0c-48.414,0-93.519,26.087-117.711,68.082
			c-2.068,3.589-0.835,8.174,2.755,10.242c1.179,0.68,2.466,1.002,3.737,1.002c2.594,0,5.118-1.348,6.505-3.757
			C267.192,38.209,307.316,15,350.383,15c15.706,0,30.979,2.968,45.396,8.821c3.839,1.558,8.212-0.29,9.771-4.128
			C407.109,15.855,405.26,11.48,401.422,9.922z"/>
	</g>
</g>
<g>
	<g>
		<path d="M477.683,36.694c-1.161-2.803-3.896-4.63-6.929-4.63h-16.549V15.516c0-3.034-1.827-5.768-4.63-6.929
			c-2.801-1.16-6.028-0.519-8.173,1.626l-40.081,40.081c-1.406,1.406-2.196,3.313-2.196,5.303v20.942l-53.916,53.916
			c-2.929,2.929-2.929,7.677,0,10.606c1.464,1.464,3.384,2.196,5.303,2.196s3.839-0.732,5.303-2.196l53.916-53.916h20.942
			c1.989,0,3.897-0.791,5.303-2.197l40.081-40.081C478.202,42.722,478.844,39.496,477.683,36.694z M427.567,72.145h-13.442V58.703
			l25.081-25.08v5.941c0,4.142,3.358,7.5,7.5,7.5h5.942L427.567,72.145z"/>
	</g>
</g>
<g>
	<g>
		<path d="M419.325,115.811c-1.151-3.979-5.309-6.27-9.29-5.119c-3.979,1.152-6.271,5.311-5.119,9.29
			c1.476,5.1,2.225,10.408,2.225,15.776c0,31.226-25.404,56.629-56.629,56.629c-31.225,0-56.629-25.404-56.629-56.629
			s25.404-56.629,56.629-56.629c5.393,0,10.723,0.755,15.844,2.244c3.979,1.157,8.139-1.13,9.296-5.107s-1.13-8.139-5.107-9.296
			c-6.482-1.885-13.223-2.841-20.033-2.841c-39.496,0-71.629,32.133-71.629,71.629c0,39.497,32.133,71.629,71.629,71.629
			c39.496,0,71.629-32.133,71.629-71.629C422.141,128.979,421.193,122.267,419.325,115.811z"/>
	</g>
</g>
<g>
</g>
<g>
</g>
<g>
</g>
<g>
</g>
<g>
</g>
<g>
</g>
<g>
</g>
<g>
</g>
<g>
</g>
<g>
</g>
<g>
</g>
<g>
</g>
<g>
</g>
<g>
</g>
<g>
</g>
</svg>
