<svg xmlns="http://www.w3.org/2000/svg" xmlns:xlink="http://www.w3.org/1999/xlink" viewBox="0 0 319.12 361.02"><defs><style>.cls-1{fill:#fff;}.cls-2{mask:url(#mask);}.cls-3{fill:url(#Blau_7);}.cls-4{mask:url(#mask-2);}.cls-5{fill:url(#Blau_7-2);}.cls-6{fill:url(#Unbenannter_Verlauf_2);}.cls-7{fill:url(#Unbenannter_Verlauf_2-2);}.cls-8{fill:none;}</style><mask id="mask" x="118.23" y="0" width="134.67" height="242.9" maskUnits="userSpaceOnUse"><polygon class="cls-1" points="164.18 70.87 124.29 219.38 139.17 219.38 148.55 181.95 170.3 95.14 164.18 70.87"/><path class="cls-1" d="M219,117.71l-1.45-5.43L198.33,40.22l-.78-2.93c-10.45-.68-14.41-2.94-22.8-5.76L174,34.28l-6,22.25L173.85,78v0l.52,2.13,3.4,13.7L195,163H160.44l-5.08,19.91,37.1.1h7.17l.46,1.84,8.72,34.52h37.38Z"/></mask><linearGradient id="Blau_7" x1="329.74" y1="121.45" x2="116.74" y2="121.45" gradientUnits="userSpaceOnUse"><stop offset="0" stop-color="#5f5f5e"/><stop offset="0.5" stop-color="#5d5c5c"/><stop offset="0.54" stop-color="#545353"/><stop offset="0.85" stop-color="#181717"/><stop offset="1"/></linearGradient><mask id="mask-2" x="0" y="240.14" width="319.12" height="120.89" maskUnits="userSpaceOnUse"><rect class="cls-1" y="245.13" width="319.12" height="0.78"/><path class="cls-1" d="M28,306.46h8.54v-3l-7.19-1,4.09-12H50.51l4.07,12.15-7.24.86v3h20v-3l-5.59-.67-15.67-46h-4.6L25.81,302.53l-6.18.92v3H28ZM49.36,287H34.58L42,265.1Z"/><path class="cls-1" d="M84.81,306.46h6.75v-3l-6.84-.78c-.11-5.3-.13-10.42-.13-15.67h3.86c15.08,0,20.74-6.93,20.74-15.18,0-8.63-6.26-14.65-18.66-14.65H70.71v3l6.76.77c.13,6.35.16,12.73.16,19.06v3.63c0,6.44,0,12.8-.16,19.05l-6.76.77v3h14.1Zm4.4-45.86c8.77,0,12.72,4.09,12.72,11.21s-3.52,11.76-12.43,11.76H84.58V280c0-6.56,0-13,.17-19.4Z"/><path class="cls-1" d="M153.14,291.86c0-8-6.07-14-18.56-14-2.3,0-4.82.14-7.35.37,0-5.83,0-11.63.16-17.35h16.23l1.64,9.43h4.22L149,257.17H113.36v3l6.77.77c.13,6.36.15,12.74.15,19.08v3.59c0,6.45,0,12.81-.15,19.07l-6.77.77v3h19.78C148.46,306.46,153.14,299.07,153.14,291.86ZM127.39,303c-.13-6.46-.16-13-.16-19.41V281.8c1.71-.16,3.54-.23,5.68-.23,10,0,12.93,3.67,12.93,10.44,0,7.48-3.89,11-13.62,11Z"/><path class="cls-1" d="M209.32,303.45l-6.76-.77c-.13-6.35-.16-12.72-.16-19.05V280c0-6.44,0-12.8.16-19.06l6.76-.77v-3H188.55v3l6.94.8v3L171,294.19V280c0-6.44,0-12.8.16-19.06l6.76-.77v-3H157.15v3l6.76.78c.13,6.34.15,12.72.15,19.05v3.63c0,6.44,0,12.8-.15,19.05l-6.76.77v3h20.77v-3l-6.94-.79v-3.14l24.5-30,0,12.73c0,7.61,0,14.19-.12,20.47l-6.79.77v3h20.77Z"/><path class="cls-1" d="M238.56,257.17H214.67l-.57,13.14h4.24l1.67-9.43h11.21c.13,6.37.16,12.77.16,19.12v3.63c0,6.43,0,12.78-.15,19l-7.51.8v3H246v-3l-7.5-.79c-.13-6.34-.16-12.71-.16-19V280c0-6.46,0-12.85.16-19.12h11.21l1.67,9.43h4.24l-.57-13.14Z"/><path class="cls-1" d="M278.14,287c15.08,0,20.74-6.93,20.74-15.18,0-8.63-6.26-14.65-18.66-14.65H260.4v3l6.76.77c.13,6.35.16,12.73.16,19.06v3.63c0,6.44,0,12.8-.16,19.05l-6.76.77v3h20.85v-3l-6.84-.78c-.11-5.3-.13-10.42-.13-15.67Zm.76-26.4c8.77,0,12.72,4.09,12.72,11.21s-3.52,11.76-12.43,11.76h-4.92V280c0-6.56,0-13,.17-19.4Z"/><path class="cls-1" d="M188.37,324.17H164V326l4.1.47c.07,3.85.09,7.72.09,11.55v2.2c0,3.91,0,7.76-.09,11.55l-4.1.47v1.82h12.59v-1.82l-4.09-.47c-.07-3.84-.09-7.71-.09-11.55V338c0-4,0-7.9.1-11.75h13.62c.08,3.91.1,7.85.1,11.75v2.2c0,3.91,0,7.76-.1,11.55l-4.08.47v1.82h12.59v-1.82l-4.1-.47c-.08-3.85-.1-7.71-.1-11.55V338c0-3.9,0-7.76.1-11.55l4.1-.47v-1.82h-6.3Z"/><path class="cls-1" d="M219.25,324.17H203.57V326l3.92.58a95,95,0,0,1-2.23,18.15,20.88,20.88,0,0,1-2.58,6,4.45,4.45,0,0,0-2.83-1,2.65,2.65,0,0,0-2.78,1.61c0,2.45,1.44,3.45,3.31,3.45,3.05,0,5.5-2.77,7.27-9.41,1.25-4.7,1.83-10.49,2.16-18.88h7.24c.07,3.8.09,7.67.09,11.58v2.2c0,3.84,0,7.71-.09,11.55l-4.1.47v1.82h12.6v-1.82l-4.1-.47c-.07-3.79-.09-7.65-.09-11.55V338c0-3.84,0-7.7.09-11.55l4.1-.47v-1.82h-6.3Z"/><path class="cls-1" d="M257.07,323.49c-6.56,0-12.25,5.05-12.78,14.22h-6.55c0-3.8,0-7.55.1-11.23l4.09-.49v-1.82H229.52V326l4.1.47c.08,3.85.09,7.72.09,11.55v2.2c0,3.91,0,7.76-.09,11.55l-4.1.47v1.82h12.41v-1.82l-4.11-.48c-.07-3.74-.08-7.59-.08-12h6.52c.26,9.63,6,14.94,12.81,14.94,6.94,0,12.81-5.15,12.81-15.62S264,323.49,257.07,323.49Zm0,29c-5.75,0-8.2-6.63-8.2-13.37s2.45-13.37,8.2-13.37,8.17,6.64,8.17,13.37S262.83,352.48,257.07,352.48Z"/><path class="cls-1" d="M295.23,351.25a12.2,12.2,0,0,1-5.34,1.23c-6.12,0-10.47-4.64-10.47-13.37s4.82-13.37,10.78-13.37a9.39,9.39,0,0,1,4.59,1.25l.89,5.15h2.76l-.18-6.5a17.22,17.22,0,0,0-8.63-2.15c-8.68,0-15.09,6.6-15.09,15.62,0,9.19,6.13,15.62,15.12,15.62a18.78,18.78,0,0,0,9-2.15l.18-6.49h-2.76Z"/></mask><linearGradient id="Blau_7-2" x1="319.12" y1="300.58" x2="0" y2="300.58" xlink:href="#Blau_7"/><linearGradient id="Unbenannter_Verlauf_2" x1="167.86" y1="116.9" x2="53.97" y2="116.9" gradientUnits="userSpaceOnUse"><stop offset="0" stop-color="#5f5f5e"/><stop offset="0.38" stop-color="#5d5c5c"/><stop offset="0.43" stop-color="#545353"/><stop offset="0.82" stop-color="#181717"/><stop offset="1"/></linearGradient><linearGradient id="Unbenannter_Verlauf_2-2" x1="167.12" y1="117.09" x2="56.41" y2="117.09" xlink:href="#Unbenannter_Verlauf_2"/></defs><title>Ebene 1</title><g id="Шар_2" data-name="Шар 2"><g id="Ebene_1" data-name="Ebene 1"><g class="cls-2"><rect class="cls-3" x="118.23" width="134.67" height="242.9"/></g><g class="cls-4"><rect class="cls-5" y="240.14" width="319.12" height="120.89"/></g><path class="cls-6" d="M61.24,59.34c0-1.53-.3-2.69,1.23-2.69l6.37-.95a4,4,0,0,0,3.33-3.48l.31-7c0-1.58,8.71,2.77,10.29,2.85,35,1.84,47,7,53.82,2.38.94-.63,6.19-4.75,7.13-4.12,3.28,2.22,6.68-.51,18.35,4.13L167.86,29a120,120,0,0,1-24.47-13l-.65-.49-.65.49c-.29.21-29.28,21.45-66.18,21.46-2.65,0-5.31-.11-7.92-.33l-1.31-.11V48.12H54l0,1.4c0,.4-.71,39.66,9.75,81.16,6.16,24.44,14.93,44.87,26.06,60.75A99.28,99.28,0,0,0,117,218.26l2.23-8.39C60,171.47,61.31,78,61.24,59.34Z"/><path class="cls-7" d="M75.91,40.29c-2.26,0-4.54-.08-6.79-.23V50.92H56.41c0,7.34.43,42.26,9.68,78.93,7.58,30,22.5,66.22,51.7,85.47l45.5-169.39A105.81,105.81,0,0,1,144,35.41a2.21,2.21,0,0,0-2.56,0c-4.8,3.4-30.29,20.28-61.33,18.31a2.19,2.19,0,0,0-2.36,2.22v4.9c0,1.36-1.82,2.5-2.5,2.5H71.63a4.8,4.8,0,0,0-4.8,4.85,320.86,320.86,0,0,0,9.51,70.42c4.45,17.23,10.25,32.28,17.27,44.74a110.35,110.35,0,0,0,12.77,18.35c-14.61-15.23-25.88-37.34-33.65-66A316.75,316.75,0,0,1,62.47,62.77,3.72,3.72,0,0,1,66.18,59H72A2.22,2.22,0,0,0,74.2,56.8V50.16a1.09,1.09,0,0,1,.35-.82A1.11,1.11,0,0,1,75.4,49c1.9.12,3.77.18,5.63.18,31.22,0,56.16-16.05,61.07-19.44a1.11,1.11,0,0,1,1.28,0A115.65,115.65,0,0,0,164.62,41l2.5-9.32a126.66,126.66,0,0,1-24.38-12.82C138.19,22,110.45,40.29,75.91,40.29Z"/><path class="cls-1" d="M143.38,29.77a1.11,1.11,0,0,0-1.28,0C137.19,33.16,112.25,49.21,81,49.21c-1.86,0-3.73-.06-5.63-.18a1.11,1.11,0,0,0-.85.31,1.09,1.09,0,0,0-.35.82V56.8A2.22,2.22,0,0,1,72,59h-5.8a3.72,3.72,0,0,0-3.71,3.75,316.75,316.75,0,0,0,10.26,72.89c7.77,28.7,19,50.81,33.65,66a110.35,110.35,0,0,1-12.77-18.35c-7-12.46-12.82-27.51-17.27-44.74a320.86,320.86,0,0,1-9.51-70.42,4.8,4.8,0,0,1,4.8-4.85h3.64c.68,0,2.49-1.14,2.5-2.5v-4.9a2.19,2.19,0,0,1,2.36-2.22c31,2,56.53-14.91,61.33-18.31a2.21,2.21,0,0,1,2.56,0,105.81,105.81,0,0,0,19.27,10.52L164.62,41A115.65,115.65,0,0,1,143.38,29.77Z"/><path class="cls-1" d="M145.45,72c-3.76,1.94-7.64,4-13.89,4.16-6.72.22-12.59-2.51-16.16-7.51l0,0a4.52,4.52,0,0,0-7.79,2.64L87.32,121.45c.25,12.6,11.31,22.74,24.92,22.74,13.23,0,24-9.6,24.84-21.71a1.78,1.78,0,0,0,.07-1L118.26,75.3A22.12,22.12,0,0,0,131.64,79c6.85-.23,11.2-2.47,15-4.45,3.44-1.78,6.41-3.31,10.53-2.9l.26-2.91C152.58,68.3,149.11,70.08,145.45,72Zm-56.1,49.48,19.23-46.79a4.5,4.5,0,0,0,7,0l19.22,46.78Z"/><path class="cls-8" d="M139.17,219.38H124.29L164.18,70.87l6.12,24.26L148.55,182Z"/></g></g></svg>