<svg width="63" height="63" viewBox="0 0 63 63" fill="none" xmlns="http://www.w3.org/2000/svg">
<g clip-path="url(#clip0)">
<path d="M53.2654 -0.000445272C51.0189 -0.00813403 48.8925 1.01543 47.4979 2.77712C46.1034 4.53833 45.5945 6.84255 46.1173 9.0276C43.0841 7.15827 39.1993 7.4144 36.4376 9.66577L29.2174 15.5318L17.4599 9.93151L17.9933 8.8671C18.2523 8.34811 18.0418 7.71763 17.5228 7.45813C17.0038 7.19912 16.3733 7.4096 16.1138 7.92859L15.5607 9.0276L12.2507 7.45285C11.9091 7.25871 11.4876 7.2712 11.1584 7.486C10.8293 7.70081 10.6476 8.08092 10.6875 8.47209C10.7274 8.86277 10.9821 9.19868 11.3483 9.34236L14.6213 10.9013L14.009 12.1242C13.75 12.6432 13.9605 13.2742 14.4795 13.5332C14.9985 13.7922 15.629 13.5817 15.8885 13.0628L16.518 11.8032L27.4115 16.9956L25.5777 18.4853C24.9381 19.0076 24.397 19.6405 23.9809 20.3536C22.5128 23.4469 23.5325 27.149 26.3774 29.0539L36.3507 35.4409L26.003 40.0421C24.2807 40.7836 23.2293 42.5458 23.3941 44.4132L10.2468 36.3962C9.92632 36.1963 9.52362 36.1838 9.19156 36.3635C8.8595 36.5433 8.6495 36.8873 8.64133 37.2646C8.63364 37.6423 8.82875 37.9945 9.15312 38.1882L47.7132 61.7033C50.7825 63.5909 54.6951 63.4035 57.5697 61.2309C58.0334 60.883 58.1271 60.2246 57.7792 59.7609C57.4318 59.2972 56.7734 59.203 56.3097 59.5509C54.1203 61.203 51.1429 61.3453 48.806 59.9099L29.043 47.8568C29.1112 47.8304 29.1847 47.8188 29.253 47.7886L44.0192 41.2219C46.9357 39.9076 48.2783 36.5125 47.0505 33.5586C46.595 32.4644 45.8141 31.536 44.8136 30.8997L36.9278 25.3359L39.6573 23.9712L43.3493 26.5388L46.6036 28.8055C48.1957 29.9478 50.3553 29.8824 51.8757 28.646L55.4447 30.3432C55.7835 30.5047 56.1824 30.473 56.4914 30.2601C56.8004 30.0477 56.9724 29.6863 56.9426 29.3125C56.9133 28.9381 56.686 28.6085 56.3477 28.4475L53.0795 26.8915C53.3289 26.2326 53.4058 25.5214 53.3034 24.8246C53.1275 23.6867 52.4942 22.6703 51.5499 22.011L48.7512 20.0682L49.0664 20.0019C50.1996 19.7568 50.9194 18.64 50.6743 17.5069L50.0448 14.6039C49.9881 14.3415 49.8997 14.0906 49.8199 13.8364C52.5206 15.2723 55.8277 14.885 58.1238 12.8648C60.4198 10.8441 61.2243 7.61287 60.1435 4.75169C59.0633 1.89099 56.3237 -0.00188692 53.2654 -0.000445272ZM50.3452 23.7328C50.8185 24.062 51.1357 24.5719 51.2222 25.1423C51.3082 25.7122 51.1563 26.2932 50.8017 26.7478C50.0434 27.6229 48.7401 27.769 47.8064 27.0837L45.2576 25.3095L43.7189 24.2389L40.3406 21.8895H40.3354L39.3728 21.2196C38.936 20.9163 38.6304 20.4579 38.5184 19.938L38.1162 18.0725C37.9975 17.528 38.1003 16.9586 38.4021 16.49C38.7034 16.0215 39.1787 15.6918 39.7231 15.5741L41.8534 15.1133C42.42 14.9907 42.7804 14.4323 42.6578 13.8658C42.5358 13.2987 41.9769 12.9383 41.4103 13.0608L39.2806 13.5217C37.0153 14.0138 35.5755 16.2459 36.0618 18.5122L36.4636 20.3786C36.6515 21.2263 37.0979 21.9942 37.7414 22.5771L35.5885 23.655C35.465 23.717 35.355 23.802 35.2641 23.9058C34.8629 24.3696 34.6841 24.9847 34.7749 25.5911C34.8581 26.1783 35.1901 26.7017 35.6861 27.027L43.6497 32.6475C44.3056 33.0579 44.8189 33.6609 45.1192 34.3746C45.9073 36.2732 45.0442 38.4549 43.1696 39.2997L28.3995 45.8745C27.8724 46.1086 27.2726 46.1158 26.7402 45.8942C26.2077 45.6727 25.7901 45.2421 25.585 44.703C25.2289 43.5987 25.7829 42.4064 26.8565 41.9662L37.2041 37.3588C37.9091 37.045 38.3848 36.3688 38.443 35.599C38.5011 34.8292 38.132 34.0896 37.4819 33.673L27.5091 27.2865C25.5902 25.978 24.8795 23.4854 25.8199 21.3613C26.1054 20.8861 26.4716 20.4641 26.9026 20.1153L37.7615 11.2972C40.2633 9.25298 43.9082 9.44039 46.187 11.7307C47.0976 12.6399 47.7257 13.7932 47.9958 15.0513L48.6253 17.9538L47.1356 18.269C46.5219 18.4002 46.0443 18.8841 45.9212 19.4997C45.7982 20.1158 46.0524 20.7458 46.569 21.1033L50.3452 23.7328ZM53.2654 12.5966C50.3668 12.5966 48.0164 10.2467 48.0164 7.34809C48.0164 4.44894 50.3668 2.09907 53.2654 2.09907C56.1641 2.09907 58.5145 4.44894 58.5145 7.34809C58.5106 10.2453 56.1627 12.5933 53.2654 12.5966Z" fill="#101010"/>
<path d="M11.8001 29.3936C12.2686 29.3941 12.6805 29.0842 12.8102 28.6339C12.9395 28.1836 12.755 27.7021 12.3575 27.4537L3.9595 22.2047C3.46646 21.8976 2.81772 22.048 2.51065 22.5406C2.2031 23.0336 2.35351 23.6823 2.84655 23.9894L11.2446 29.2384C11.4118 29.3408 11.604 29.3946 11.8001 29.3936Z" fill="#101010"/>
<path d="M10.1909 23.9849L18.589 29.2339C19.0815 29.541 19.7303 29.3905 20.0373 28.898C20.3449 28.4049 20.1945 27.7567 19.7014 27.4491L11.3034 22.2006C10.8108 21.893 10.1621 22.0435 9.85454 22.5365C9.54747 23.0291 9.69788 23.6778 10.1909 23.9849Z" fill="#101010"/>
</g>
<defs>
<clipPath id="clip0">
<rect width="63" height="63" fill="white"/>
</clipPath>
</defs>
</svg>
