<svg width="85" height="84" viewBox="0 0 85 84" fill="none" xmlns="http://www.w3.org/2000/svg">
<g clip-path="url(#clip0)">
<path d="M56.4473 30.8816C57.0996 30.8108 57.7015 30.6079 58.2226 30.307C59.5003 29.5693 60.2912 28.2427 60.1378 26.8303C60.0306 25.8405 59.4626 24.9357 58.5792 24.3467C57.75 23.7937 56.7136 23.5521 55.6621 23.667C53.7843 23.8714 50.2685 25.5428 50.522 27.877C50.7778 30.2105 54.5699 31.0859 56.4473 30.8816ZM57.2577 26.3291C57.3765 26.4083 57.5536 26.5522 57.6662 26.7612C57.687 26.7991 57.7055 26.8395 57.7208 26.8818C57.7287 26.903 57.7359 26.9247 57.7422 26.9468C57.7545 26.9913 57.7637 27.0381 57.7694 27.0869L57.769 27.0872C57.842 27.7592 57.1187 28.4116 56.1896 28.5133C55.7672 28.5589 55.2835 28.5178 54.8179 28.4271C53.9297 28.2532 53.1081 27.8978 52.9071 27.6167C52.9407 27.5371 53.0125 27.4446 53.1127 27.3454C53.6232 26.8389 54.8932 26.1476 55.9208 26.0353C56.2268 26.0021 56.5317 26.0313 56.8056 26.1167C56.9696 26.1681 57.1226 26.2394 57.2577 26.3291Z" fill="black"/>
<path d="M44.3894 26.9408C45.6675 26.2029 46.4584 24.8763 46.3048 23.4635C46.1972 22.4739 45.6293 21.5685 44.7462 20.9799C43.9165 20.4271 42.8808 20.1857 41.8303 20.3005C41.7682 20.3073 41.7047 20.3155 41.6406 20.3246C40.6804 20.4663 39.5413 20.9041 38.6204 21.4917C37.4284 22.2519 36.7538 23.1675 36.6825 24.1071C36.6725 24.2414 36.6745 24.3762 36.6895 24.511C36.9443 26.8418 40.7366 27.7186 42.6144 27.5159C43.2664 27.4446 43.8683 27.2417 44.3894 26.9408ZM39.0737 24.2501C39.2805 23.7658 40.8571 22.8024 42.0876 22.6691C42.5775 22.6157 43.0647 22.7224 43.4242 22.9625C43.5971 23.0776 43.8935 23.3294 43.936 23.7214C44.0092 24.3928 43.2855 25.0454 42.3573 25.1466C41.1271 25.2797 39.3798 24.6779 39.0737 24.2501Z" fill="black"/>
<path d="M25.3741 22.7086C24.4183 23.0105 23.3021 23.6985 22.4615 24.5052C21.2954 25.6239 20.8329 26.8093 21.1589 27.8421C21.4845 28.8761 22.5433 29.5819 24.1403 29.8293C25.2914 30.0079 26.6007 29.9312 27.558 29.63C27.886 29.5261 28.1933 29.39 28.4771 29.2262C30.0598 28.3124 30.8932 26.5512 30.3827 24.9334C30.0834 23.9841 29.349 23.2081 28.3674 22.8037C27.4466 22.4245 26.3835 22.3907 25.3741 22.7086ZM28.11 25.6501L28.1105 25.6509C28.1231 25.6914 28.1331 25.7319 28.1397 25.7732C28.2397 26.3904 27.6758 27.0937 26.841 27.3576C25.661 27.7293 23.8292 27.481 23.4463 27.1212C23.5539 26.6066 24.9115 25.3531 26.0901 24.9811C26.5608 24.8329 27.0601 24.8424 27.4605 25.0072C27.6523 25.0862 27.9922 25.2747 28.11 25.6501Z" fill="black"/>
<path d="M33.8961 34.802C33.8376 34.8535 33.7837 34.9109 33.737 34.9723C33.689 35.0344 33.6473 35.1009 33.6133 35.1705C33.5779 35.2404 33.5504 35.3138 33.5303 35.3888C33.4492 35.6914 33.4926 36.0216 33.6497 36.2936C33.6886 36.3609 33.7344 36.4237 33.7866 36.4833C33.8378 36.5413 33.8953 36.5952 33.9567 36.642C34.0183 36.6891 34.0846 36.7304 34.1545 36.7658C34.2241 36.7998 34.2977 36.8277 34.3732 36.8486C34.4482 36.8687 34.525 36.8808 34.6039 36.8863C34.681 36.8912 34.7594 36.8884 34.8372 36.8779C34.9137 36.8681 34.9904 36.8502 35.0642 36.8253C35.1376 36.8007 35.2099 36.7686 35.2772 36.7297C35.3441 36.6911 35.408 36.6445 35.4672 36.5926C35.5257 36.5411 35.5783 36.4844 35.6263 36.4223C35.6735 36.3607 35.7148 36.2944 35.749 36.2252C35.7837 36.1541 35.8121 36.0813 35.833 36.0058C35.8526 35.93 35.8644 35.8527 35.8706 35.775C35.8749 35.6968 35.8723 35.6188 35.8622 35.5418C35.8524 35.4652 35.8345 35.3885 35.8099 35.3152C35.7843 35.2402 35.7521 35.1695 35.7133 35.1022C35.5562 34.8302 35.2927 34.6271 34.9901 34.546C34.6117 34.4453 34.1924 34.5417 33.8961 34.802Z" fill="black"/>
<path d="M69.5987 28.2573C69.578 28.2215 69.5555 28.1871 69.5322 28.1543C64.7509 20.2423 55.9425 15.1034 45.346 14.0493C39.9382 13.5113 34.4254 14.0851 29.403 15.7085C24.182 17.3966 19.7217 20.1582 16.505 23.6953C13.0539 27.4902 10.9324 32.0076 10.1999 37.123C9.58863 41.3903 10.0839 45.181 10.607 47.6089C11.0535 49.6834 12.7785 51.2202 14.8999 51.4329L21.0123 52.0466L33.2454 61.3544L36.4482 66.9018C35.7086 68.7761 35.8527 70.8789 36.8738 72.6475C38.7026 75.815 42.7683 76.9037 45.9366 75.0745C49.1041 73.2457 50.1933 69.1808 48.3645 66.0133C47.2318 64.0513 45.221 62.8294 42.9997 62.7061L40.5198 58.4109L47.2694 48.4206C47.5676 48.3043 47.859 48.1667 48.1383 48.0054L69.7567 35.524C71.4265 34.56 72.0006 32.4175 71.0365 30.7477L69.8053 28.6152C69.7462 28.5129 69.6863 28.412 69.6261 28.3113C69.6173 28.2933 69.6089 28.2751 69.5987 28.2573ZM44.7454 73.0113C42.7149 74.1836 40.1092 73.4858 38.9374 71.4561C38.2102 70.1966 38.1748 68.672 38.8421 67.378C39.2156 66.654 39.7871 66.0559 40.4941 65.6477C40.5666 65.6059 40.6403 65.566 40.7148 65.5284C41.2357 65.2663 41.7935 65.1173 42.3779 65.0851C43.9902 64.9942 45.4935 65.8062 46.301 67.2047C47.4728 69.2344 46.7751 71.8395 44.7454 73.0113ZM38.1283 57.6948C37.8732 58.072 37.8559 58.5624 38.0837 58.957L40.4512 63.0576C40.4354 63.0629 40.42 63.0696 40.4045 63.0754C40.3457 63.0964 40.2879 63.1191 40.2296 63.142C40.1711 63.1644 40.1122 63.1872 40.0542 63.2115C39.9896 63.2391 39.9255 63.2686 39.8618 63.2979C39.8117 63.3209 39.7621 63.3431 39.7127 63.3673C39.642 63.4022 39.5721 63.4393 39.5022 63.4765C39.4616 63.4983 39.4208 63.5197 39.3804 63.542C39.3546 63.5569 39.328 63.5695 39.3022 63.5844C38.9012 63.8159 38.5291 64.0872 38.1883 64.3925C38.1844 64.3959 38.1804 64.3992 38.1768 64.4024C38.0924 64.4785 38.0108 64.5568 37.9301 64.6367C37.9224 64.6449 37.9137 64.6521 37.9056 64.6605L35.1891 59.9554C35.1102 59.8187 35.0044 59.6987 34.8788 59.6031L24.7056 51.8629C24.723 51.8577 24.7401 51.851 24.7573 51.8454C24.8463 51.8171 24.9348 51.787 25.0227 51.755C25.0499 51.7453 25.0766 51.7357 25.1031 51.7258C25.2108 51.6851 25.3177 51.6422 25.4237 51.5961C25.4418 51.5883 25.4598 51.5795 25.4777 51.5713C25.5679 51.5311 25.6571 51.4893 25.7456 51.4452C25.7739 51.431 25.8022 51.4167 25.8302 51.4028C25.9345 51.349 26.0382 51.294 26.1402 51.2351L27.3561 50.533L34.4837 56.0388C34.7388 56.236 35.0625 56.321 35.3817 56.2754C35.7007 56.2293 35.9872 56.0564 36.1767 55.7954L41.828 47.9993C41.8813 48.0303 41.9364 48.0587 41.9905 48.0881C42.0194 48.1037 42.0479 48.1206 42.077 48.1355C42.1801 48.1894 42.2843 48.2404 42.3901 48.2879C42.4111 48.2973 42.4327 48.3058 42.4539 48.3155C42.5393 48.3527 42.6251 48.3887 42.7122 48.4222C42.7495 48.4367 42.7871 48.4505 42.825 48.464C42.8973 48.4905 42.9705 48.516 43.0439 48.5397C43.0843 48.5529 43.1249 48.5655 43.1654 48.5781C43.2408 48.6007 43.3163 48.6216 43.3923 48.6416C43.4292 48.6515 43.4657 48.6616 43.5031 48.6706C43.6106 48.6967 43.719 48.7206 43.8276 48.7412C43.8367 48.743 43.8462 48.7445 43.8553 48.7462C43.9508 48.7636 44.0468 48.7791 44.143 48.7923L38.1283 57.6948ZM29.587 49.2451L36.2424 45.4025C37.009 44.96 37.9543 45.0279 38.6502 45.5762L39.9174 46.575L34.9683 53.4026L29.587 49.2451ZM68.5655 33.4609L46.9471 45.9422C46.6932 46.0888 46.4254 46.2058 46.1491 46.2912C44.9176 46.6723 43.5774 46.4239 42.5648 45.6269L42.2923 45.4118C42.2906 45.4106 42.2889 45.4095 42.2873 45.4088L40.1244 43.7046C38.6585 42.5497 36.6668 42.4061 35.0506 43.3392L24.9488 49.1715C24.1044 49.659 23.1445 49.8655 22.1737 49.7682L21.5851 49.7093C21.5841 49.7094 21.5834 49.7092 21.5824 49.7093L15.1379 49.0621C14.049 48.9529 13.1641 48.1677 12.9364 47.1077C12.7019 46.0194 12.4859 44.7051 12.3723 43.2332L19.9948 43.9633C21.5412 44.1109 23.0696 43.7787 24.4146 43.0022L31.1526 39.112C31.7221 38.7832 31.9174 38.0546 31.5883 37.4847C31.2593 36.9148 30.5307 36.7196 29.9612 37.0484L23.2232 40.9386C22.3099 41.4659 21.2719 41.6917 20.2219 41.5913L12.2907 40.8319C12.3388 36.131 13.6319 30.3958 18.2674 25.2986C19.8959 23.5082 21.886 21.9466 24.1374 20.6467C29.9754 17.2761 37.5645 15.6696 45.1099 16.4207C54.5194 17.3567 62.3813 21.7173 66.8902 28.4453L48.3374 39.1568C47.7675 39.4859 47.5723 40.2144 47.9013 40.7843C48.2303 41.3542 48.9589 41.5494 49.5288 41.2204L68.1308 30.4805L68.9729 31.9391C69.2801 32.4711 69.0975 33.1537 68.5655 33.4609Z" fill="black"/>
</g>
<defs>
<clipPath id="clip0">
<rect width="61" height="61" fill="white" transform="translate(0.832031 30.916) rotate(-30)"/>
</clipPath>
</defs>
</svg>
