<svg width="80" height="80" viewBox="0 0 80 80" fill="none" xmlns="http://www.w3.org/2000/svg">
<g clip-path="url(#clip0)">
<path d="M16.6593 24.0835C13.8182 23.3222 10.8887 25.0136 10.1275 27.8546C9.36621 30.6957 11.0576 33.6252 13.8986 34.3865C16.7397 35.1477 19.6692 33.4564 20.4305 30.6153C21.1917 27.7742 19.5004 24.8447 16.6593 24.0835ZM14.5888 31.8106C13.167 31.4297 12.323 29.9639 12.7033 28.5448C13.0835 27.1257 14.5473 26.2783 15.9691 26.6593C17.3909 27.0402 18.2349 28.506 17.8547 29.9251C17.4744 31.3443 16.0106 32.1916 14.5888 31.8106Z" fill="black"/>
<path d="M52.8266 36.5517L51.7926 31.4987C51.6904 31.0048 51.3186 30.6097 50.8318 30.4793L46.9682 29.444C46.6257 29.3523 46.2619 29.4011 45.9581 29.5765L39.9032 33.0723L19.8305 27.6939C19.1196 27.5034 18.388 27.9258 18.1975 28.6367C18.0084 29.3424 18.4238 30.0694 19.1222 30.2648C18.5097 30.109 17.8526 30.4077 17.5819 31.006C17.2757 31.6749 17.5741 32.4671 18.2437 32.7708C22.752 34.8208 30.2673 38.9077 31.6029 41.3002L31.6418 41.4846C32.7991 46.9019 34.2426 53.641 40.0664 55.2015L58.0964 60.0326C63.235 61.4095 67.8534 59.6793 68.8369 56.0089C69.8819 52.1091 63.7922 39.9814 52.8266 36.5517ZM58.7867 57.4568L40.7566 52.6257C36.5091 51.4876 35.3074 45.8761 34.2509 40.9275L34.1728 40.5698C34.1499 40.4698 34.116 40.3697 34.0723 40.2751C32.1476 36.2588 20.651 30.9368 19.3467 30.3442C19.2883 30.3148 19.2227 30.2917 19.1608 30.2752L39.746 35.791C40.0886 35.8827 40.4524 35.8339 40.7561 35.6585L46.8111 32.1627L49.3456 32.8418L50.376 37.8773C50.4782 38.3712 50.85 38.7663 51.3368 38.8967C61.9024 41.7277 66.7774 53.392 66.2611 55.3186C65.6905 57.4487 62.3386 58.4085 58.7867 57.4568Z" fill="black"/>
<path d="M66.6065 54.029L56.2728 51.2601C54.5521 50.799 53.3602 49.2926 53.3067 47.5142L53.0129 37.5661C52.9916 36.8316 52.3765 36.2527 51.642 36.2739C50.9043 36.2972 50.3254 36.9123 50.3491 37.6474L50.6429 47.5956C50.7315 50.5621 52.7178 53.071 55.5819 53.8384L65.9157 56.6074C66.6266 56.7978 67.3589 56.3729 67.5493 55.662C67.7398 54.9511 67.3174 54.2195 66.6065 54.029Z" fill="black"/>
<path d="M18.9066 25.6178L17.7112 19.7762C17.5682 19.0836 16.9079 18.6224 16.2095 18.7251L13.2903 19.1521C12.6069 19.2505 12.1128 19.858 12.1535 20.5508L12.4062 24.7595C12.4546 25.4958 13.0888 26.0549 13.8185 26.0103C14.5534 25.967 15.1145 25.3361 15.0693 24.5979L14.8893 21.6123L15.349 21.545L16.294 26.1573C16.3999 26.6687 16.7835 27.0504 17.2549 27.1767C17.4481 27.2284 17.6562 27.2345 17.8658 27.194C18.5877 27.0451 19.0523 26.3414 18.9066 25.6178Z" fill="black"/>
<path d="M16.4169 32.4444C15.8668 31.963 15.0239 32.0076 14.534 32.5582L14.2854 32.8368C14.325 32.2152 13.9234 31.6327 13.3001 31.4657C12.5892 31.2752 11.8576 31.6976 11.6671 32.4085L10.977 34.9842C10.7865 35.6951 11.2089 36.4267 11.9198 36.6172L13.2077 36.9623C13.6945 37.0927 14.214 36.9365 14.5527 36.558L16.5308 34.3274C17.0181 33.776 16.9676 32.9343 16.4169 32.4444Z" fill="black"/>
<path d="M51.6121 22.4066C50.9012 22.2161 50.1696 22.6385 49.9791 23.3494L49.634 24.6373C49.4435 25.3482 49.8659 26.0798 50.5768 26.2703C51.2877 26.4608 52.0193 26.0384 52.2098 25.3275L52.5549 24.0396C52.7453 23.3286 52.323 22.5971 51.6121 22.4066Z" fill="black"/>
<path d="M74.1062 31.1943L50.9246 24.9828C50.2137 24.7923 49.4821 25.2147 49.2916 25.9256C49.1011 26.6365 49.5235 27.3681 50.2344 27.5586L73.416 33.7701C74.1269 33.9606 74.8585 33.5382 75.049 32.8273C75.2395 32.1164 74.8171 31.3847 74.1062 31.1943Z" fill="black"/>
<path d="M50.926 24.9833L27.7444 18.7719C27.0335 18.5814 26.3019 19.0038 26.1115 19.7147C25.921 20.4256 26.3434 21.1572 27.0543 21.3477L50.2358 27.5591C50.9467 27.7496 51.6783 27.3272 51.8688 26.6163C52.0593 25.9054 51.6369 25.1738 50.926 24.9833Z" fill="black"/>
<path d="M48.4832 54.6967C47.7723 54.5062 47.0407 54.9286 46.8502 55.6395L45.4699 60.791C45.2794 61.5019 45.7018 62.2335 46.4127 62.424C47.1236 62.6144 47.8552 62.192 48.0457 61.4811L49.426 56.3297C49.6165 55.6186 49.1941 54.8871 48.4832 54.6967Z" fill="black"/>
<path d="M58.7879 57.4564C58.077 57.2659 57.3454 57.6883 57.1549 58.3992L55.7746 63.5507C55.5841 64.2616 56.0065 64.9932 56.7174 65.1837C57.4283 65.3742 58.1599 64.9518 58.3504 64.2409L59.7307 59.0894C59.9211 58.3784 59.4988 57.6469 58.7879 57.4564Z" fill="black"/>
<path d="M66.406 62.4365C65.8784 61.9225 65.0334 61.9335 64.5194 62.4611C63.617 63.387 60.9467 63.4003 59.9801 63.2987L34.2228 56.397C33.5119 56.2066 32.7803 56.6289 32.5898 57.3398C32.3994 58.0507 32.8217 58.7824 33.5326 58.9728L59.4711 65.9092C59.9656 65.9699 64.3631 66.4442 66.4312 64.3206C66.9452 63.793 66.9335 62.9506 66.406 62.4365Z" fill="black"/>
</g>
<defs>
<clipPath id="clip0">
<rect width="64" height="64" fill="white" transform="translate(17.3711 0.807617) rotate(15)"/>
</clipPath>
</defs>
</svg>
