<svg width="86" height="86" viewBox="0 0 86 86" fill="none" xmlns="http://www.w3.org/2000/svg">
<g clip-path="url(#clip0)">
<path d="M58.6607 31.6557C57.1467 32.0646 55.7121 32.7246 54.4164 33.6081L47.2562 24.6064L53.5154 22.9292C53.9322 22.8175 54.3762 22.876 54.7499 23.0917C55.1235 23.3075 55.3962 23.6628 55.5079 24.0795C55.6195 24.4963 55.5611 24.9403 55.3453 25.314C55.1296 25.6876 54.7743 25.9603 54.3575 26.072L51.7386 26.7737L52.3 28.8689L54.9189 28.1671C55.8914 27.9066 56.7204 27.2704 57.2238 26.3985C57.7272 25.5267 57.8636 24.4906 57.603 23.5181C57.3425 22.5457 56.7063 21.7166 55.8344 21.2133C54.9626 20.7099 53.9265 20.5735 52.954 20.8341L45.0972 22.9393C44.9232 22.9858 44.7635 23.075 44.6326 23.1987C44.5017 23.3224 44.4036 23.4767 44.3473 23.6478C44.2909 23.8189 44.2781 24.0013 44.3099 24.1786C44.3417 24.3559 44.4172 24.5225 44.5295 24.6633L47.9159 28.9208L30.3658 33.6233L28.1082 30.1132L31.3174 27.9935C31.7819 27.6868 32.1221 27.2248 32.2772 26.6901C32.4323 26.1555 32.3921 25.5831 32.1638 25.0754C31.9356 24.5677 31.5341 24.1578 31.0313 23.9189C30.5284 23.6801 29.957 23.6279 29.4193 23.7718L21.642 25.8557C21.1419 25.9897 20.6927 26.269 20.3512 26.6583C20.0098 27.0476 19.7915 27.5295 19.7239 28.0428C19.6563 28.5562 19.7425 29.0781 19.9715 29.5426C20.2005 30.007 20.5621 30.393 21.0106 30.6519L21.7664 31.0883C22.4445 31.4861 23.2104 31.7101 23.996 31.7406C24.7816 31.771 25.5626 31.6068 26.2695 31.2627L28.3366 34.4769C28.2729 34.5766 28.2264 34.6862 28.1989 34.8012L26.679 41.44C23.8789 41.0194 21.0171 41.4516 18.4661 42.6804C15.9151 43.9091 13.7932 45.8775 12.3767 48.3292C10.9602 50.7809 10.3147 53.6023 10.5243 56.4261C10.7339 59.2498 11.7888 61.945 13.5517 64.1607C15.3147 66.3765 17.7039 68.01 20.4083 68.8488C23.1128 69.6875 26.0071 69.6925 28.7144 68.8631C31.4217 68.0337 33.8165 66.4083 35.5871 64.1987C37.3576 61.9891 38.4219 59.2975 38.6412 56.4745C39.1256 57.1805 39.8087 57.7267 40.6039 58.0439C41.3991 58.3612 42.2706 58.4351 43.1079 58.2564L44.5271 60.4058C44.65 60.5923 44.8275 60.7362 45.0353 60.8179C45.2431 60.8997 45.4711 60.9154 45.6881 60.8627L49.3779 59.9672L48.8647 57.8592L45.9129 58.576L45.0518 57.273C45.5455 56.8463 45.9353 56.3125 46.1913 55.7123C46.4473 55.1121 46.5628 54.4613 46.529 53.8097C46.4952 53.158 46.313 52.5227 45.9962 51.9522C45.6795 51.3817 45.2366 50.8911 44.7014 50.5178L51.3002 33.1788L52.7171 34.9594C50.2035 37.3063 48.6354 40.4918 48.3084 43.9151C47.9814 47.3385 48.9182 50.7632 50.942 53.5435C52.9659 56.3238 55.937 58.2676 59.2952 59.0085C62.6534 59.7493 66.1666 59.2359 69.1724 57.5652C72.1782 55.8944 74.4689 53.1817 75.6126 49.9386C76.7562 46.6954 76.6739 43.1458 75.381 39.9592C74.0882 36.7725 71.6742 34.169 68.5941 32.6394C65.5141 31.1098 61.9809 30.7599 58.6607 31.6557ZM25.6687 29.1253C25.2518 29.397 24.7681 29.5483 24.2708 29.5627C23.7734 29.5771 23.2818 29.454 22.8499 29.207L22.0941 28.7706C22.0181 28.7258 21.957 28.6596 21.9184 28.5802C21.8799 28.5009 21.8655 28.412 21.8772 28.3245C21.8888 28.2371 21.926 28.155 21.984 28.0885C22.042 28.0221 22.1184 27.9742 22.2034 27.9509L29.9807 25.867C30.0211 25.8559 30.0641 25.8597 30.102 25.8776C30.1398 25.8955 30.1701 25.9263 30.1872 25.9645C30.2043 26.0027 30.2073 26.0458 30.1955 26.086C30.1837 26.1262 30.1579 26.1608 30.1228 26.1837L25.6687 29.1253ZM27.6846 66.9027C25.979 67.3604 24.193 67.4337 22.4557 67.1173C20.7184 66.8009 19.0729 66.1028 17.6381 65.0733C16.2033 64.0439 15.015 62.7087 14.1588 61.1642C13.3027 59.6197 12.8001 57.9044 12.6874 56.142C12.5746 54.3797 12.8545 52.6144 13.5069 50.9734C14.1593 49.3324 15.1678 47.8566 16.4597 46.6527C17.7516 45.4488 19.2947 44.5467 20.9776 44.0116C22.6604 43.4764 24.4411 43.3215 26.1911 43.5581L23.5394 55.1372C23.5017 55.3029 23.5033 55.4751 23.5443 55.64C23.5853 55.8049 23.6645 55.9579 23.7755 56.0866C23.8864 56.2153 24.0261 56.3161 24.1832 56.3809C24.3402 56.4457 24.5103 56.4727 24.6798 56.4597L36.5161 55.554C36.4765 58.1482 35.5932 60.659 33.9998 62.7066C32.4064 64.7541 30.1896 66.2271 27.6846 66.9027ZM36.3561 53.3939L25.9837 54.1859L28.3052 44.056C30.1895 44.6714 31.8907 45.7467 33.2552 47.1846C34.6197 48.6225 35.6044 50.3777 36.1203 52.2917C36.2185 52.6583 36.2958 53.0306 36.3561 53.3939ZM38.3077 52.1625C38.2747 52.0187 38.2539 51.8738 38.2154 51.7303C37.5978 49.435 36.4095 47.3334 34.7611 45.6209C33.1128 43.9084 31.058 42.6407 28.788 41.9359L29.9286 36.9528L39.0239 51.0937C38.7332 51.4123 38.4918 51.7725 38.3077 52.1625ZM43.8474 55.4388L42.5573 53.4861L40.7443 54.6815L41.701 56.1318C41.2429 56.0221 40.8333 55.7656 40.5344 55.4015C40.2356 55.0374 40.0639 54.5855 40.0456 54.1148C40.0273 53.6441 40.1633 53.1804 40.433 52.7941C40.7027 52.4079 41.0912 52.1204 41.5394 51.9754C41.9876 51.8304 42.4709 51.8359 42.9157 51.9909C43.3605 52.146 43.7424 52.4423 44.0032 52.8345C44.2641 53.2267 44.3896 53.6935 44.3607 54.1636C44.3317 54.6338 44.1499 55.0816 43.8429 55.4389L43.8474 55.4388ZM42.6825 49.7294C42.1452 49.6652 41.6007 49.7029 41.0775 49.8406C40.9978 49.8619 40.9285 49.9007 40.8511 49.926L31.5977 35.5388L49.3887 30.7717L49.7282 31.2006L42.6825 49.7294ZM65.3974 56.7976C62.8394 57.4811 60.1267 57.2941 57.6867 56.2662C55.2466 55.2384 53.2178 53.428 51.9199 51.1202C50.6219 48.8124 50.1286 46.1384 50.5176 43.5194C50.9065 40.9004 52.1557 38.4852 54.0683 36.6543L61.4614 45.9507L63.1581 44.5978L55.7672 35.3053C57.2108 34.3549 58.8438 33.7294 60.553 33.4723C62.2622 33.2152 64.0068 33.3326 65.6662 33.8163C67.3256 34.3 68.86 35.1385 70.1633 36.2738C71.4666 37.409 72.5077 38.8139 73.2145 40.3913C73.9212 41.9686 74.2768 43.6807 74.2566 45.409C74.2364 47.1373 73.8409 48.8406 73.0974 50.4009C72.354 51.9613 71.2803 53.3415 69.9508 54.446C68.6213 55.5504 67.0677 56.3528 65.3974 56.7976Z" fill="black"/>
</g>
<defs>
<clipPath id="clip0">
<rect width="69.4102" height="69.4102" fill="white" transform="translate(0.03125 18.1729) rotate(-15)"/>
</clipPath>
</defs>
</svg>
