<svg width="62" height="63" viewBox="0 0 62 63" fill="none" xmlns="http://www.w3.org/2000/svg">
<g clip-path="url(#clip0)">
<path d="M55.8596 35.8374L46.5969 35.1756L40.475 24.9777L37.4146 19.8714V18.4571C37.4155 16.9221 36.172 15.6771 34.637 15.6762C34.2931 15.6757 33.9521 15.7396 33.6318 15.8635L24.8298 19.2589L25.4949 17.0267C26.02 15.1502 25.168 13.1611 23.4477 12.2463L16.5411 8.53592C16.0387 8.26629 15.4129 8.43847 15.1192 8.9271L4.98843 25.1499L4.77463 25.026C4.26282 24.7317 3.60957 24.9086 3.31583 25.4205C3.3092 25.4313 3.30353 25.4422 3.29738 25.4536L0.125762 31.4245C-0.147645 31.9401 0.0429831 32.5792 0.553374 32.8616L39.126 54.2408C39.2845 54.3283 39.4623 54.3742 39.6435 54.3742H55.5872C59.1277 54.3708 61.9976 51.5015 62.0009 47.9604V42.4318C61.9895 38.9673 59.3146 36.0951 55.8596 35.8374ZM44.3628 35.6084L43.1419 36.0157L33.577 23.5794L36.0357 21.7332L44.3628 35.6084ZM16.4275 10.9015L22.4363 14.1266C23.2693 14.567 23.6856 15.5253 23.4391 16.4344L22.556 19.4107L16.42 15.7311L14.2951 14.4558L16.4275 10.9015ZM10.0985 21.1036L10.6458 20.2484L14.1627 22.8642C15.9526 24.2081 16.8665 26.4214 16.5463 28.637L16.4129 31.7263L6.85924 26.2199L10.0985 21.1036ZM55.5872 52.2366H39.9183L2.50459 31.4983L4.66489 27.4365L40.0872 47.8181C40.2499 47.9117 40.4339 47.9609 40.6217 47.9604H59.8628C59.8628 50.3218 57.9485 52.2366 55.5872 52.2366ZM59.8628 45.8224H40.9069L33.5751 41.6011L36.04 39.088C36.4473 38.6608 36.4312 37.9839 36.0036 37.5767C35.5849 37.1774 34.9246 37.184 34.5135 37.5913L31.6617 40.499L27.5994 38.158L31.6735 34.8989C32.1342 34.5299 32.209 33.8568 31.84 33.3956C31.4711 32.9349 30.798 32.8601 30.3372 33.2291L25.6089 37.0123L22.1284 35.011L27.4092 30.61C27.8633 30.232 27.9248 29.558 27.5473 29.1039C27.1694 28.6498 26.4949 28.5883 26.0408 28.9658L20.1531 33.8734L18.5003 32.9221L18.6734 28.8186C19.0694 25.8623 17.8305 22.9238 15.438 21.1434L11.7957 18.4353L13.1717 16.275L22.6341 21.9523C22.7613 22.0256 22.9023 22.071 23.048 22.0861C23.0735 22.0861 23.0957 22.0946 23.1217 22.0965C23.1473 22.0989 23.1634 22.1041 23.1837 22.1041C23.3157 22.1046 23.4472 22.0804 23.5706 22.0327L34.3991 17.8563C34.5973 17.7807 34.8191 17.8067 34.9946 17.9259C35.1706 18.0465 35.2751 18.2466 35.2737 18.4604V19.6363L31.4252 22.5222C30.9531 22.877 30.858 23.5473 31.2128 24.0189C31.2152 24.0222 31.2175 24.0255 31.2199 24.0283L41.9097 37.9253C42.186 38.2871 42.6623 38.4328 43.0942 38.2876L46.0988 37.2857L55.705 37.9721C58.0426 38.1452 59.8538 40.0875 59.8628 42.4318V45.8224Z" fill="black"/>
<path d="M0 46.8908C0 47.4811 0.478699 47.9598 1.06903 47.9598H14.9655C15.5558 47.9598 16.0345 47.4811 16.0345 46.8908C16.0345 46.3005 15.5558 45.8218 14.9655 45.8218H1.06903C0.478699 45.8218 0 46.3005 0 46.8908Z" fill="black"/>
<path d="M26.7243 52.2358H1.06903C0.478699 52.2358 0 52.7141 0 53.3044C0 53.8947 0.478699 54.3734 1.06903 54.3734H26.7243C27.3147 54.3734 27.7929 53.8947 27.7929 53.3044C27.7929 52.7141 27.3147 52.2358 26.7243 52.2358Z" fill="black"/>
</g>
<defs>
<clipPath id="clip0">
<rect width="62" height="62" fill="white" transform="translate(0 0.416016)"/>
</clipPath>
</defs>
</svg>
