<svg width="61" height="61" viewBox="0 0 61 61" fill="none" xmlns="http://www.w3.org/2000/svg">
<path d="M8.52696 28.9545L33.037 4.44427L31.7733 3.18066L7.26371 27.6903C5.5239 26.2824 3.62075 25.9418 2.62128 26.941C1.62204 27.9402 1.96279 29.8435 3.37055 31.5834L1.27344 33.6807L2.53716 34.9443L4.63428 32.847C5.69844 33.7081 6.82348 34.1707 7.76565 34.1707C8.36385 34.1707 8.88855 33.9845 9.27659 33.5964C9.88862 32.9845 10.0234 32.0408 9.65617 30.9392C9.43648 30.2807 9.04474 29.596 8.52696 28.9545ZM8.01298 32.3327C7.82915 32.5167 6.58711 32.3393 5.23284 30.9847C3.87857 29.6304 3.70093 28.3887 3.88488 28.2047C3.92289 28.1667 4.00605 28.1441 4.12578 28.1441C4.48797 28.1441 5.18649 28.3523 5.99093 28.9631L5.31707 29.6369L6.58079 30.9005L7.25322 30.2281C7.57753 30.6565 7.82522 31.0984 7.96056 31.5043C8.127 32.0034 8.06767 32.2779 8.01298 32.3327Z" fill="black"/>
<path d="M35.2145 53.7357L59.7245 29.2255L58.4608 27.9619L33.9512 52.4715C32.2114 51.0638 30.3082 50.7229 29.3088 51.7222C28.3095 52.7216 28.6503 54.6248 30.058 56.3647L27.9609 58.4619L29.2247 59.7255L31.3219 57.6283C32.3861 58.4893 33.5111 58.9519 34.4533 58.9519C35.0515 58.9519 35.5762 58.7657 35.9642 58.3777C36.5762 57.7658 36.711 56.8221 36.3438 55.7205C36.124 55.062 35.7322 54.3773 35.2145 53.7357ZM34.7005 57.114C34.5165 57.2978 33.2746 57.1204 31.9203 55.766C30.5661 54.4116 30.3884 53.1699 30.5724 52.986C30.6104 52.948 30.6935 52.9253 30.8133 52.9253C31.1755 52.9253 31.8741 53.1335 32.6784 53.7443L32.0046 54.4182L33.2683 55.6818L33.9407 55.0093C34.265 55.4378 34.5128 55.8797 34.6481 56.2856C34.8145 56.7847 34.7552 57.0592 34.7005 57.114Z" fill="black"/>
<path d="M49.0765 1.37846C48.1876 0.489549 47.0058 0 45.7488 0C44.4917 0 43.3099 0.489549 42.421 1.37834L12.7667 31.0327C10.9319 32.8676 10.9319 35.8531 12.7667 37.688C13.6842 38.6055 14.8893 39.0642 16.0945 39.0642C17.2995 39.0642 18.5046 38.6055 19.4223 37.688L49.0765 8.03377C50.9112 6.19889 50.9112 3.21322 49.0765 1.37846ZM31.4519 23.0712L18.1286 36.4244C16.9907 37.5623 15.1388 37.5627 14.0006 36.4244C12.8626 35.2862 12.8626 33.4344 14.0006 32.2964L31.4519 14.8154V23.0712ZM35.2644 19.2587L33.239 21.2841V13.0283L35.2644 11.0029V19.2587ZM47.7791 6.77005L37.0515 17.4717V9.21576L43.6551 2.64194C44.2064 2.09068 44.9542 1.78711 45.7339 1.78711C46.5135 1.78711 47.254 2.09068 47.8052 2.64206C48.9434 3.78021 48.9173 5.63202 47.7791 6.77005Z" fill="black"/>
<path d="M48.2322 23.3118C46.3973 21.4769 43.4119 21.4768 41.5768 23.3118L11.9225 52.966C10.0877 54.8009 10.0877 57.7864 11.9225 59.6213C12.8114 60.5102 13.9931 60.9997 15.2502 60.9997C16.5072 60.9997 17.689 60.5102 18.5779 59.6214L48.2322 29.9671C50.067 28.1322 50.067 25.1466 48.2322 23.3118ZM30.6193 44.993L17.2843 58.3577C16.733 58.9091 16.0149 59.2126 15.2353 59.2126C14.4556 59.2126 13.7301 58.9091 13.1788 58.3577C12.0406 57.2195 12.0146 55.3677 13.1527 54.2297L30.6193 36.7371V44.993ZM34.4318 41.1805L32.4064 43.2059V34.95L34.4318 32.9246V41.1805ZM46.9387 28.7033L36.2189 39.3934V31.1375L42.8107 24.5755C43.3798 24.0063 44.142 23.7218 44.8896 23.7218C45.6369 23.7218 46.3771 24.0065 46.9461 24.5755C48.0843 25.7135 48.0768 27.5653 46.9387 28.7033Z" fill="black"/>
<path d="M45.1213 3.73803L43.7734 5.08594L45.0371 6.3496L46.385 5.00169L45.1213 3.73803Z" fill="black"/>
<path d="M44.5628 26.0554L43.2148 27.4033L44.4785 28.667L45.8264 27.3191L44.5628 26.0554Z" fill="black"/>
</svg>
