<svg width="63" height="64" viewBox="0 0 63 64" fill="none" xmlns="http://www.w3.org/2000/svg">
<g clip-path="url(#clip0)">
<path d="M58.2162 4.99301C55.132 1.9068 51.029 0.208008 46.6666 0.208008C42.3043 0.208008 38.2012 1.9068 35.117 4.99301C32.0318 8.07718 30.332 12.1802 30.332 16.5426C30.332 20.9049 32.0318 25.008 35.117 28.0921C38.2012 31.1783 42.3043 32.8771 46.6666 32.8771C51.029 32.8771 55.132 31.1783 58.2162 28.0921C61.3014 25.008 63.0012 20.9049 63.0012 16.5426C63.0012 12.1802 61.3014 8.07718 58.2162 4.99301ZM36.5606 6.43658C38.8189 4.17833 41.7029 2.78376 44.8188 2.38255C44.7606 3.80059 44.9627 6.17625 46.6666 7.88015C47.8886 9.10218 49.2648 9.69124 50.5961 10.2619C51.8028 10.7795 52.9422 11.2675 53.8865 12.2109C55.6323 13.9576 56.3816 18.3782 52.4419 22.3179C48.5022 26.2576 44.0827 25.5072 42.3359 23.7614C41.3916 22.8171 40.9036 21.6778 40.386 20.471C39.8153 19.1398 39.2262 17.7636 38.0042 16.5416C36.3003 14.8366 33.9246 14.6345 32.5066 14.6927C32.9068 11.5779 34.3024 8.69381 36.5606 6.43658ZM56.7726 26.6486C54.0733 29.3489 50.4838 30.8353 46.6666 30.8353C42.8494 30.8353 39.2599 29.3489 36.5606 26.6486C33.9093 23.9973 32.4361 20.4864 32.3841 16.7457C33.3958 16.6784 35.3161 16.7427 36.5606 17.9861C37.5039 18.9305 37.9919 20.0688 38.5095 21.2755C39.0802 22.6078 39.6703 23.984 40.8923 25.206C42.1634 26.4771 44.0602 27.2172 46.1694 27.2172C48.6686 27.2172 51.468 26.18 53.8855 23.7625C58.3438 19.3041 58.1059 13.5452 55.3301 10.7673C54.108 9.54525 52.7318 8.95619 51.4006 8.3855C50.1939 7.8679 49.0545 7.3799 48.1102 6.43658C46.8667 5.19209 46.8024 3.27278 46.8698 2.26004C50.6104 2.3121 54.1213 3.78528 56.7726 6.43658C59.4719 9.13587 60.9594 12.7254 60.9594 16.5426C60.9594 20.3598 59.4719 23.9493 56.7726 26.6486Z" fill="black"/>
<path d="M32.6717 29.0929L2.9375 58.8271L4.38127 60.2709L34.1155 30.5367L32.6717 29.0929Z" fill="black"/>
<path d="M0.00154103 61.7594L1.44531 63.2031L2.97066 61.6778L1.52688 60.234L0.00154103 61.7594Z" fill="black"/>
<path d="M29.0102 22.3656L27.5664 20.9219L19.0504 29.4379L20.4942 30.8816L29.0102 22.3656Z" fill="black"/>
<path d="M15.7406 35.641L14.2969 34.1973L8.981 39.5131L10.4248 40.9569L15.7406 35.641Z" fill="black"/>
<path d="M9.03362 42.3412L7.58984 40.8975L6.12658 42.3607L7.57035 43.8045L9.03362 42.3412Z" fill="black"/>
<path d="M16.4078 58.6304L17.8516 60.0742L42.2842 35.6415L40.8405 34.1978L16.4078 58.6304Z" fill="black"/>
<path d="M13.2711 61.7652L14.7148 63.209L16.2402 61.6836L14.7964 60.2399L13.2711 61.7652Z" fill="black"/>
</g>
<defs>
<clipPath id="clip0">
<rect width="63" height="63" fill="white" transform="translate(0 0.208008)"/>
</clipPath>
</defs>
</svg>
