<svg xmlns="http://www.w3.org/2000/svg" width="40" height="40" viewBox="0 0 40 40">
    <g fill="none">
        <path fill="#FFEB00" d="M39.657 20.343c-.19 10.856-9.143 19.503-20 19.313-10.856-.19-19.503-9.143-19.313-20C.534 8.8 9.488.153 20.344.343c10.856.19 19.503 9.143 19.313 20z"/>
        <path fill="#00AD16" d="M39.39 20.339c-.188 10.709-9.02 19.239-19.729 19.051C8.952 39.202.422 30.37.61 19.661.798 8.952 9.63.422 20.339.61 31.048.798 39.578 9.63 39.39 20.339z"/>
        <path fill="#FFEB00" d="M36.584 20.277c-.16 9.16-7.714 16.454-16.874 16.294-9.16-.16-16.454-7.713-16.294-16.873.16-9.16 7.714-16.454 16.874-16.294 9.16.16 16.454 7.713 16.294 16.873z"/>
        <path fill="#FFF" d="M36.329 20.267c-.154 9.013-7.584 16.195-16.598 16.043-9.014-.153-16.195-7.584-16.042-16.598C3.842 10.7 11.273 3.517 20.286 3.67c9.014.152 16.195 7.584 16.043 16.597z"/>
        <path fill="#FFEB00" d="M35.094 20.251c-.142 8.331-7.01 14.969-15.34 14.828-8.33-.142-14.969-7.01-14.828-15.34.141-8.332 7.01-14.969 15.34-14.828 8.33.142 14.969 7.01 14.828 15.34z"/>
        <path fill="red" d="M24.006 31.852c.193 0 .349.157.349.35v.348c0 .193-.156.349-.349.349h-.349v-1.045l.35-.002zm0 1.393c.385 0 .697-.311.697-.696V32.2c-.002-.384-.313-.694-.697-.694h-.696v1.742l.696-.003zm-1.392 0h.348v-1.741h-.348v1.741zm-.697-.645l-.696-1.094h-.349v1.739h.35v-1.094l.695 1.094h.35v-1.741h-.35V32.6zm-5.225-1.094v1.739h1.047v-.349h-.697v-.349h.697V32.2h-.697v-.349h.697v-.349h-1.045l-.002.005zm-1.392 0v1.739h1.045v-.349h-.696v-1.392H15.3v.002zm3.657 1.043h.35c.096 0 .173-.078.173-.174 0-.096-.078-.174-.174-.174h-.349v-.349h.348c.289 0 .523.234.523.523 0 .289-.234.523-.523.523h-.349l.002-.35zm.347-1.394c-.673.001-1.218.546-1.218 1.219s.547 1.218 1.219 1.218 1.219-.546 1.219-1.218c0-.674-.547-1.219-1.219-1.219h-.001zm.001.349c.481 0 .871.39.871.871s-.39.871-.871.871-.871-.39-.871-.871c.001-.479.39-.867.868-.867l.003-.004z"/>
        <path fill="red" d="M34.826 20.247c-.139 8.184-6.886 14.706-15.069 14.566-8.182-.14-14.705-6.887-14.565-15.07.14-8.183 6.887-14.704 15.07-14.564 8.182.14 14.704 6.886 14.564 15.068z"/>
        <path fill="#FFEB00" d="M21.804 2.766c.502-.182.47-.55.921-.841.195-.189.46-.305.752-.305.047 0 .093.002.138.009h-.005c.145.035.271.093.384.173L23.99 1.8c.101.065.244.227.41.136.029-.018.064-.03.101-.03.018 0 .034.003.049.007h-.001c.046.022.08.062.092.11v.002c.065.183.143.13.298.093.056-.02.122-.03.19-.03.056 0 .111.007.162.02h-.003c.218.077.487.272.628.323.142.051.284-.015.419.025.065.022.121.049.174.08l-.004-.002c.029.016.219.125.194.172l-.102.011-.342.09c-.021.002-.045.003-.07.003-.084 0-.164-.018-.236-.05l.003.001c-.018-.009-.04-.014-.065-.014-.023 0-.046.006-.066.016h.002c-.096.043-.124.136-.203.184-.041.023-.091.035-.144.035-.041 0-.081-.007-.117-.022l.002.001c-.091-.041-.152-.131-.152-.236l.001-.024v.002c.008-.084.135-.22 0-.293-.014-.004-.029-.006-.045-.006-.035 0-.066.011-.091.031-.103.052-.179.145-.209.256v.003c-.052.245.181.44.355.575.091.072.198.131.313.17l.007.002c.106.015.227.025.352.025.427 0 .828-.105 1.182-.29l-.014.006c.171-.086.374-.136.588-.136h.024l.067-.002c.157 0 .306.04.435.111l-.005-.002c.126.068.233.156.322.26l.002.002c.08.089.177.282.36.236.018-.006.038-.01.06-.01.033 0 .064.009.092.025h-.001c.037.031.06.078.061.13.012.194.105.164.265.165l.033-.001c.112 0 .218.03.31.083l-.003-.002c.194.13.402.389.526.474.124.085.278.059.399.13.055.035.101.075.144.119.023.023.178.176.143.216l-.1-.015h-.355c-.107-.015-.203-.058-.282-.121l.001.001c-.027-.022-.062-.036-.1-.036l-.03.002h.002c-.103.019-.155.1-.244.13-.021.005-.047.009-.073.009-.07 0-.135-.024-.187-.063h.001c-.059-.047-.096-.12-.096-.2 0-.032.005-.062.015-.09V4.6c.028-.079.186-.178.075-.283-.023-.015-.05-.022-.08-.022-.021 0-.04.004-.059.011h.001c-.115.024-.211.095-.267.192l-.002.003c-.113.224.066.473.194.647.073.097.158.177.255.24l.004.003c.286.121.62.191.97.191.199 0 .391-.022.576-.065l-.017.004c.08-.016.171-.026.265-.026.128 0 .252.019.371.052l-.01-.002c.177.034.331.115.454.23.101.093.183.205.245.33l.002.006c.055.106.1.317.29.32h.011c.05 0 .097.02.13.053.02.027.032.06.032.098 0 .016-.003.031-.007.046-.036.188.06.184.214.226.12.025.225.082.308.162.152.174.291.476.389.591.097.115.255.13.352.228.041.044.078.094.107.147l.003.004c.016.029.13.216.084.246l-.094-.04-.342-.091c-.098-.041-.18-.105-.24-.186l-.002-.002c-.026-.036-.067-.06-.114-.064-.103-.008-.174.058-.267.064-.095-.002-.179-.047-.234-.116-.031-.042-.05-.096-.05-.154 0-.053.017-.105.045-.146v.001c.048-.068.225-.123.144-.255-.028-.028-.066-.047-.11-.047l-.021.001h.001-.02c-.114 0-.216.048-.289.124-.167.188-.059.473.026.675.048.116.112.216.19.301v-.001c.398.303.9.492 1.442.511h.003c.223.013.428.079.605.185l-.006-.003c.159.076.289.19.38.333l.003.004c.072.111.125.241.152.381l.002.008c.026.117.016.332.2.383.052.01.096.043.123.087v.001c.008.018.011.039.011.06 0 .031-.008.06-.022.086v-.001c-.083.174.011.194.15.274.109.054.196.134.258.232v.003c.105.207.162.535.227.671s.214.188.282.31c.027.05.05.107.064.169l.002.005c.008.031.068.242.018.258l-.08-.065-.309-.175c-.08-.062-.145-.143-.184-.238l-.002-.004c-.016-.043-.051-.076-.093-.091h-.002c-.099-.034-.185.011-.275-.009-.087-.027-.157-.09-.194-.17v-.002c-.012-.03-.02-.062-.02-.097 0-.077.034-.147.088-.195.065-.053.249-.065.204-.21-.023-.042-.065-.071-.114-.077h-.001c-.037-.011-.078-.019-.12-.019-.078 0-.15.022-.211.06v-.001c-.208.14-.175.442-.145.66.016.126.053.24.108.344l-.002-.005c.23.438.784.627 1.27.86.21.068.389.18.533.327.132.109.23.253.283.416l.001.007c.034.1.054.217.054.337 0 .026-.001.054-.003.08v-.004c-.003.12-.068.324.097.421.046.024.082.064.096.114v.002l.001.018c0 .046-.018.089-.048.12-.124.148-.04.191.076.303.087.076.152.175.187.289l.002.005c.047.226.02.557.048.706.029.149.159.235.194.371.014.056.021.12.021.185 0 .032.006.251-.047.256l-.065-.081-.254-.248c-.061-.077-.104-.173-.119-.277v-.002c-.005-.048-.031-.088-.067-.113-.087-.058-.181-.035-.264-.078-.078-.047-.131-.124-.146-.214v-.002c-.002-.01-.003-.02-.003-.031 0-.101.058-.189.143-.231l.001-.002c.075-.037.259 0 .25-.15 0-.035-.034-.075-.091-.104-.06-.04-.135-.062-.214-.062-.041 0-.081.006-.119.018l.003-.002c-.238.083-.283.384-.309.602-.005.038-.008.082-.008.127 0 .08.01.158.028.233l-.001-.006c.111.482.6.806 1.01 1.153.178.117.325.268.43.447l.003.006c.098.133.16.3.17.479v.062c0 .126-.02.247-.06.36l.003-.008c-.034.116-.149.298-.014.432.039.034.064.081.065.136-.007.051-.038.095-.081.121h-.001c-.158.112-.085.175-.004.312.064.092.104.206.108.33-.012.232-.122.546-.13.696-.01.15.094.267.094.409 0 .066-.01.13-.027.19l.001-.006c-.007.033-.058.245-.111.236l-.04-.094-.183-.304c-.03-.069-.048-.149-.048-.233 0-.024.001-.048.005-.072v.002l.002-.024c0-.04-.015-.077-.04-.104-.069-.078-.166-.08-.235-.142-.055-.056-.089-.133-.089-.218 0-.01 0-.02.002-.03v.001c.015-.109.096-.196.202-.219h.002c.082-.016.247.065.28-.083v-.003c0-.05-.024-.094-.062-.12-.074-.08-.178-.13-.295-.13h-.012c-.25.02-.371.299-.454.504-.042.103-.07.225-.072.351v.001c.084.542.33 1.013.683 1.38l-.001-.001c.139.15.244.334.303.538l.002.01c.038.096.06.207.06.323 0 .065-.008.129-.02.19l.001-.006c-.03.148-.085.277-.161.393l.002-.004c-.065.102-.22.25-.123.414.021.03.034.066.034.106 0 .015-.002.03-.006.044v-.002c-.02.046-.06.081-.108.096h-.002c-.18.066-.13.148-.082.3.022.063.036.136.036.21 0 .05-.006.097-.016.143l.001-.004c-.07.221-.258.496-.303.64-.045.144.023.283-.012.42-.018.067-.044.123-.075.177l.003-.004c-.015.028-.119.222-.167.2l-.013-.102-.1-.34c-.004-.026-.007-.057-.007-.088 0-.078.016-.151.043-.219l-.001.004c.007-.018.012-.039.012-.06 0-.025-.006-.049-.016-.07v.001c-.047-.094-.14-.12-.194-.194-.025-.043-.04-.096-.04-.152 0-.038.007-.075.019-.109l-.001.003c.04-.096.132-.16.24-.16h.014c.083.005.222.13.292-.01.004-.013.005-.027.005-.04 0-.037-.013-.07-.034-.096-.055-.1-.15-.173-.262-.2h-.003c-.247-.044-.434.194-.564.373-.068.092-.123.2-.157.316l-.001.008c-.009.077-.014.169-.014.26 0 .457.121.886.331 1.257l-.006-.012c.095.176.152.384.155.605v.001c.004.029.005.063.005.096 0 .148-.035.288-.097.41l.002-.005c-.065.13-.149.24-.251.331l-.002.002c-.086.084-.276.186-.224.369.007.018.01.04.01.063 0 .032-.007.062-.022.088v-.002c-.031.04-.077.064-.129.066-.193.02-.16.11-.156.27.002.016.003.033.003.052 0 .105-.026.205-.073.293l.002-.004c-.124.194-.374.415-.454.541-.08.126-.049.28-.118.402-.033.057-.071.105-.113.15-.023.023-.172.184-.212.15l.011-.1-.01-.355c.012-.108.052-.204.112-.286l-.002.002c.022-.027.034-.06.034-.097l-.003-.034v.002c-.023-.102-.105-.151-.136-.239-.006-.024-.01-.052-.01-.081 0-.067.02-.129.056-.179l-.002.001c.048-.062.123-.102.206-.102.028 0 .055.005.08.012.08.027.183.18.284.065.013-.021.02-.047.02-.076 0-.023-.005-.044-.014-.063v.002c-.028-.114-.103-.206-.203-.258l-.003-.001c-.227-.106-.47.079-.64.218-.092.073-.169.16-.23.26l-.002.003c-.1.263-.159.568-.159.885 0 .229.03.451.086.663l-.004-.018c.024.094.038.203.038.313 0 .11-.014.218-.039.322l.003-.009c-.028.18-.104.338-.215.464l.001-.001c-.091.105-.2.191-.323.256l-.006.003c-.105.059-.314.111-.311.3l.001.017c0 .049-.018.093-.048.125-.03.021-.064.034-.103.034-.014 0-.028-.001-.04-.005h.001c-.19-.03-.182.065-.22.221-.021.121-.076.229-.154.314-.168.159-.466.306-.577.409-.111.102-.117.258-.216.36-.044.042-.091.08-.144.112l-.004.003c-.027.017-.212.135-.242.092l.037-.095.08-.345c.038-.1.1-.184.178-.247l.001-.002c.035-.027.059-.07.061-.116.005-.104-.065-.172-.07-.265 0-.095.043-.178.109-.236.044-.035.1-.055.16-.055.051 0 .099.015.139.04h-.002c.07.045.13.22.26.135.027-.028.043-.065.043-.106 0-.009-.001-.017-.003-.024v-.005c0-.119-.05-.225-.132-.297-.194-.16-.475-.044-.674.048-.115.053-.213.12-.297.203-.291.407-.466.916-.468 1.465-.006.222-.065.43-.165.611l.004-.007c-.056.127-.136.235-.232.322l-.002.001-.171-.227c.061-.067.114-.143.154-.225l.002-.005c.044-.073.07-.16.07-.254 0-.125-.046-.237-.122-.325-.096-.105-.165-.13-.216-.094-.07.047-.01.147.015.227.006.02.01.046.01.072 0 .086-.04.162-.103.211-.021.018-.046.032-.072.041l-.003.002-.439-.583c.059-.091.133-.169.22-.229h.003c.131-.076.282-.135.442-.168l.01-.002c.064-.017.11-.07.118-.137v-.001c.002-.084.036-.16.09-.217.025-.01.055-.016.086-.016.031 0 .06.007.087.017.162.05.203-.217.244-.31.061-.142.145-.263.246-.365.727-.704 1.997-.23 2.472-.842.076-.1.13-.221.155-.352l.001-.005c.013-.043.02-.09.02-.14 0-.168-.084-.316-.213-.404v-.001c-.12-.078-.195-.083-.233-.035-.055.065.029.142.072.215.023.038.036.085.036.135 0 .061-.02.117-.055.162v-.001c-.056.072-.143.119-.24.119-.023 0-.046-.003-.066-.008h.003c-.093-.025-.171-.095-.249 0-.065.071-.149.124-.244.15l-.004.002c-.102.037-.297.018-.36.065-.042.032-.084.027-.047-.066.032-.076.08-.14.137-.193.1-.095.223-.124.324-.234.102-.11.114-.349.269-.514.114-.11.244-.202.386-.275l.009-.003c.049-.03.081-.08.081-.14L34.18 30V30c-.005-.023-.009-.049-.009-.075 0-.058.015-.111.04-.159l-.001.002c.038-.03.088-.048.141-.048l.025.001h-.001c.17.008.141-.259.158-.362.023-.154.073-.292.144-.415l-.002.005c.517-.858 1.868-.719 2.173-1.432.04-.093.063-.203.063-.317l-.002-.07V27.116c0-.212-.136-.393-.325-.461l-.004-.001c-.135-.045-.206-.03-.234.025-.038.075.065.13.124.19.048.049.078.115.078.19 0 .037-.007.072-.02.105v-.002c-.046.105-.146.18-.264.186h-.002c-.096 0-.19-.05-.241.065-.046.087-.115.158-.199.207l-.002.001c-.09.065-.283.094-.332.157-.032.042-.075.047-.065-.05.014-.084.044-.158.087-.223l-.002.003c.074-.118.184-.177.253-.308s.023-.366.13-.565c.087-.143.191-.265.31-.369l.002-.001c.03-.029.048-.07.048-.115 0-.022-.005-.045-.014-.065v.001c-.023-.045-.037-.097-.037-.153 0-.028.004-.055.01-.08v.002c.036-.045.087-.078.146-.086h.001c.166-.035.072-.288.061-.389-.003-.037-.007-.082-.007-.127 0-.11.015-.218.044-.32l-.003.01c.286-.968 1.627-1.177 1.742-1.943.005-.032.007-.071.007-.11 0-.1-.018-.195-.049-.284l.002.006c-.05-.207-.224-.36-.438-.378h-.001c-.143-.009-.208.022-.221.083-.018.082.094.112.168.152.08.047.133.133.133.231 0 .014-.002.026-.003.039v-.002c-.017.118-.1.212-.208.247h-.003c-.094.023-.194 0-.218.121-.023.1-.072.186-.14.254-.072.082-.25.162-.282.236-.021.049-.061.065-.072-.032-.002-.017-.003-.037-.003-.055 0-.064.011-.127.031-.184l-.001.003c.041-.13.13-.217.166-.36.036-.144-.071-.36-.016-.583.05-.166.121-.311.211-.443l-.004.005c.014-.024.023-.051.023-.082 0-.038-.012-.073-.035-.1-.053-.058-.085-.134-.086-.218.013-.057.085-.102.121-.121.151-.078-.005-.297-.04-.394-.049-.123-.078-.268-.078-.418v-.017.002c.032-1.012 1.276-1.554 1.19-2.324-.017-.138-.066-.262-.138-.368l.002.003c-.084-.158-.246-.263-.433-.263-.03 0-.06.003-.088.008h.003c-.14.027-.194.075-.194.136.003.084.12.082.201.104.104.03.181.117.194.225v.001l.002.034c0 .108-.056.204-.141.257l-.001.002c-.084.046-.189.05-.179.172v.016c0 .098-.028.189-.074.268l.002-.003c-.048.098-.202.221-.212.299-.007.053-.042.079-.078-.012-.023-.058-.035-.124-.035-.194v-.041c.007-.137.075-.243.07-.388-.005-.145-.16-.33-.164-.556.006-.173.037-.335.093-.486l-.003.01c.004-.013.006-.028.006-.044 0-.053-.025-.098-.063-.128-.066-.044-.116-.108-.137-.186v-.003c.01-.06.041-.112.086-.147.13-.112-.08-.286-.139-.37-.08-.113-.145-.244-.182-.386l-.001-.009c-.225-.98.841-1.819.565-2.544-.051-.126-.129-.232-.224-.317l-.001-.002c-.09-.098-.219-.16-.363-.16-.075 0-.145.017-.208.047l.002-.002c-.13.066-.17.122-.151.18.025.08.137.05.221.05.111.002.205.07.245.168v.001c.013.033.02.069.02.108 0 .081-.032.156-.085.211-.069.065-.17.098-.13.213.014.043.021.093.021.144 0 .052-.007.102-.021.15l.001-.005c-.021.107-.139.264-.13.343.007.053-.021.086-.078.008-.044-.062-.077-.136-.092-.214V14.6c-.029-.135.009-.255-.032-.396-.041-.142-.239-.279-.299-.498-.025-.105-.04-.225-.04-.348 0-.048.002-.094.006-.14v.002c0-.066-.04-.124-.097-.148h-.002c-.077-.026-.14-.078-.18-.144l-.002-.002-.001-.024c0-.053.017-.102.047-.142.095-.141-.15-.259-.227-.324-.111-.092-.204-.204-.275-.33l-.003-.006c-.465-.891.353-1.973-.099-2.604-.078-.105-.178-.19-.293-.248l-.005-.003c-.075-.05-.168-.079-.267-.079-.118 0-.227.043-.312.113l.001-.002c-.107.093-.133.16-.1.214.044.07.147.013.227-.008.018-.006.04-.008.063-.008.089 0 .168.043.217.109v.001c.036.05.057.111.057.179 0 .054-.014.104-.038.146l.002-.001c-.05.081-.14.136-.072.239.048.076.075.17.075.268v.013c.007.108-.064.291-.037.365.02.05 0 .088-.075.027-.06-.051-.109-.112-.143-.184v-.003l-.13-.375s-.302-.209-.416-.405c-.071-.133-.125-.286-.154-.449v-.01c-.016-.064-.068-.112-.135-.122-.084-.005-.158-.042-.213-.097-.01-.025-.017-.055-.017-.086 0-.031.007-.06.017-.088v.002c.056-.16-.21-.21-.303-.255-.137-.065-.255-.152-.354-.255-.677-.745-.16-1.999-.756-2.495-.099-.08-.216-.138-.346-.167h-.005c-.046-.017-.099-.026-.154-.026-.162 0-.307.08-.396.203l-.001.001c-.081.118-.088.189-.044.231.061.058.144-.025.216-.065.038-.02.082-.032.128-.032.065 0 .123.022.17.06.067.056.111.141.111.236 0 .026-.004.051-.009.075v-.002c-.027.092-.101.167-.008.248.068.066.12.153.142.249l.001.004c.034.103.009.297.056.361.032.043.026.086-.065.045-.073-.036-.136-.085-.186-.144l-.001-.001c-.092-.103-.117-.226-.222-.33-.105-.104-.346-.125-.506-.286-.105-.116-.195-.25-.262-.395l-.004-.01c-.027-.051-.081-.085-.141-.085l-.02.001h.001c-.018.004-.041.006-.063.006-.062 0-.12-.016-.17-.046l.002.001c-.026-.037-.043-.085-.043-.136 0-.011.002-.021.003-.031v.001c.012-.17-.259-.15-.356-.17-.154-.029-.29-.082-.412-.159l.005.003c-.84-.549-.66-1.893-1.362-2.222-.101-.046-.219-.072-.343-.072l-.042.001h.003l-.032-.001c-.207 0-.385.129-.456.31l-.001.004c-.049.134-.038.206.016.235.074.04.134-.06.194-.118.047-.045.112-.072.183-.072.04 0 .08.008.113.025l-.001-.002c.103.05.175.153.176.272-.004.096-.055.187.055.242.086.049.155.12.201.205l.002.003c.058.092.083.286.146.336.041.034.045.077-.052.06-.082-.016-.156-.049-.218-.094l.001.002c-.115-.077-.17-.19-.299-.26-.128-.07-.365-.033-.56-.148-.139-.091-.257-.199-.357-.321l-.003-.003c-.03-.032-.071-.051-.119-.051-.02 0-.04.004-.06.011h.002c-.043.022-.091.033-.144.033-.031 0-.063-.005-.091-.013h.002c-.044-.037-.073-.09-.081-.15V3.85c-.03-.167-.285-.08-.389-.075-.026.002-.057.004-.088.004-.125 0-.247-.02-.36-.056l.008.002c-.962-.319-1.127-1.665-1.89-1.804-.025-.004-.053-.006-.084-.006-.26 0-.477.192-.516.442v.003c-.012.143.016.209.076.224.082.02.114-.093.158-.164.049-.076.133-.125.227-.125.017 0 .032.001.047.004h-.002c.117.021.208.106.24.216v.002c.022.094-.005.194.116.222.098.026.182.079.248.149.08.073.154.255.226.287.05.022.066.065-.035.071-.01.002-.024.002-.038.002-.07 0-.138-.013-.199-.038l.004.001c-.13-.045-.213-.139-.357-.177-.212-.058-.358.027-.662-.171-.025-.017-.054-.026-.086-.026-.037 0-.069.012-.095.032-.058.05-.133.08-.215.08h-.005c-.056-.015-.1-.089-.118-.125-.071-.154-.22.016-.317.049-.037.014-.079.024-.124.024-.095 0-.181-.04-.24-.107l.009-.024zM18.196 2.766c-.502-.182-.47-.55-.921-.841-.195-.189-.46-.305-.752-.305-.047 0-.093.002-.138.009h.005c-.145.035-.271.093-.384.173l.004-.002c-.101.065-.244.227-.41.136-.029-.018-.064-.03-.101-.03-.018 0-.034.003-.049.007h.001c-.046.022-.08.062-.092.11v.002c-.065.183-.143.13-.298.093-.056-.02-.121-.03-.19-.03-.056 0-.111.007-.162.02h.005c-.219.077-.488.272-.629.323-.141.051-.284-.015-.419.025-.065.022-.121.048-.174.08l.004-.002c-.029.016-.219.125-.194.172l.102.011.342.09c.021.002.045.003.07.003.084 0 .164-.018.236-.05l-.003.001c.019-.009.041-.014.065-.014.023 0 .046.006.066.016h-.001c.095.043.123.136.202.184.041.023.091.035.144.035.041 0 .081-.007.117-.022l-.002.001c.091-.041.154-.131.154-.236 0-.008 0-.016-.002-.024v.002c-.007-.084-.134-.22 0-.293.014-.004.03-.006.046-.006.035 0 .066.011.09.031.103.052.18.145.21.256v.003c.053.245-.18.44-.354.575-.091.072-.198.131-.313.17l-.007.002c-.107.015-.228.025-.353.025-.426 0-.827-.105-1.181-.29l.014.006c-.171-.086-.374-.136-.588-.136h-.025.002l-.068-.002c-.158 0-.306.04-.435.111l.005-.002c-.126.068-.234.156-.323.26v.002c-.08.089-.178.282-.362.236-.018-.006-.037-.01-.059-.01-.034 0-.065.009-.092.025H11c-.037.031-.06.078-.061.13-.013.194-.105.164-.265.165l-.033-.001c-.112 0-.219.03-.31.083l.003-.002c-.194.13-.403.389-.527.474-.123.085-.277.059-.398.13-.055.035-.102.075-.144.119-.024.023-.179.176-.144.216l.101-.015h.354c.109-.015.204-.059.284-.121l-.001.001c.027-.022.062-.036.1-.036l.03.002h-.002c.103.019.155.1.244.13.021.005.046.009.073.009.07 0 .135-.024.187-.063h-.001c.059-.047.096-.12.096-.2 0-.032-.005-.062-.015-.09V4.6c-.028-.079-.186-.178-.075-.283.023-.015.05-.022.08-.022.021 0 .04.004.059.011h-.001c.115.024.211.095.267.192l.002.003c.113.224-.066.473-.194.647-.072.097-.158.177-.255.24l-.004.003c-.286.121-.62.191-.97.191-.199 0-.391-.022-.576-.065l.017.004c-.08-.016-.171-.026-.265-.026-.129 0-.252.019-.371.052l.01-.002c-.178.034-.331.115-.454.23-.101.093-.184.205-.245.33l-.002.006c-.055.106-.1.317-.29.32h-.011c-.05 0-.097.02-.13.053-.02.027-.032.06-.032.098 0 .016.003.031.006.046.037.188-.06.184-.213.226-.12.025-.225.082-.308.162-.152.174-.291.476-.388.591-.098.115-.255.13-.353.228-.041.044-.077.094-.107.147l-.003.004c-.016.029-.13.216-.084.246l.094-.04.342-.091c.098-.041.18-.105.24-.186l.002-.002c.026-.036.067-.06.114-.064.103-.008.175.058.267.064.095-.002.179-.047.234-.116.031-.042.05-.096.05-.154 0-.053-.016-.105-.045-.146v.001c-.048-.068-.225-.123-.144-.255.027-.028.066-.047.109-.047l.021.001h-.001.02c.114 0 .216.048.288.124.168.188.06.473-.026.675-.047.116-.111.216-.19.301l.002-.001c-.4.303-.9.492-1.443.511h-.004c-.222.013-.427.079-.605.185l.006-.003c-.158.076-.288.19-.38.333l-.002.004c-.072.111-.125.241-.152.381l-.002.008c-.026.117-.016.332-.199.383-.052.01-.096.043-.123.087v.001c-.008.018-.011.039-.011.06 0 .031.008.06.022.086v-.001c.082.174-.011.194-.15.274-.109.054-.196.134-.257.232l-.002.003c-.103.207-.161.535-.226.671s-.214.188-.282.31c-.027.05-.05.107-.064.169l-.002.005c-.008.031-.068.242-.018.258l.08-.065.308-.175c.082-.062.145-.143.185-.238l.002-.004c.016-.043.051-.076.094-.091.1-.034.186.011.276-.009.087-.027.157-.09.194-.17v-.002c.012-.03.02-.062.02-.097 0-.077-.034-.147-.088-.195-.065-.053-.249-.065-.204-.21.023-.042.065-.071.114-.077h.001c.037-.011.078-.019.12-.019.078 0 .15.022.212.06l-.002-.001c.209.14.176.442.146.66-.016.126-.053.24-.108.344l.002-.005c-.23.438-.784.627-1.27.86-.21.068-.389.18-.534.327-.13.109-.23.253-.282.416l-.001.007c-.034.1-.054.217-.054.337l.002.08v-.004c.004.12.07.324-.096.421-.046.024-.081.064-.096.114v.002l-.001.018c0 .046.018.089.048.12.124.148.04.191-.076.303-.087.076-.152.175-.187.289l-.002.005c-.047.226-.02.557-.048.706-.029.149-.159.235-.194.371-.014.055-.021.12-.021.185v.001c0 .033-.006.252.047.257l.065-.082.254-.247c.061-.078.104-.174.119-.278v-.002c.005-.048.031-.088.067-.113.087-.057.182-.035.264-.077.078-.048.131-.125.146-.215v-.002l.003-.03c0-.102-.058-.19-.143-.232l-.001-.001c-.075-.038-.259 0-.25-.152 0-.033.034-.073.091-.103.06-.039.135-.062.214-.062.041 0 .081.007.119.018l-.003-.001c.238.082.283.383.309.601.005.039.008.082.008.127 0 .08-.01.158-.028.233l.001-.006c-.111.482-.6.806-1.01 1.153-.178.117-.325.268-.43.447l-.004.006c-.097.134-.158.3-.168.479v.002c-.002.018-.002.039-.002.06 0 .127.022.248.06.36l-.002-.007c.034.115.149.297.014.431-.039.034-.064.081-.065.136.007.051.038.095.081.121h.001c.158.112.085.175.004.312-.064.092-.104.206-.108.33v.001c.012.231.122.545.13.695.01.15-.095.267-.095.409.003.066.012.13.028.191l-.001-.006c.007.032.058.245.111.235l.04-.094.182-.304c.03-.069.05-.149.05-.232 0-.025-.002-.049-.006-.073v.003l-.002-.025c0-.04.015-.076.04-.104.069-.078.166-.08.235-.141.055-.056.089-.134.089-.219 0-.01 0-.02-.002-.03v.001c-.015-.109-.096-.196-.202-.219h-.002c-.082-.016-.247.066-.28-.083v-.003c0-.05.024-.094.062-.12.074-.08.179-.13.295-.13h.012c.25.02.372.299.454.504.042.104.07.225.072.351v.002c-.085.54-.33 1.012-.683 1.38l.001-.002c-.139.15-.244.334-.302.538l-.003.01c-.038.096-.06.207-.06.323 0 .066.008.13.02.19l-.001-.006c.03.148.085.278.161.393l-.002-.004c.065.102.22.25.123.414-.021.03-.033.066-.033.106 0 .015 0 .03.004.044v-.002c.02.047.06.082.11.097.18.065.13.147.083.3-.023.062-.036.135-.036.21 0 .049.005.096.016.142l-.001-.003c.07.22.259.496.304.64.045.143-.024.282.012.42.02.066.044.122.075.176l-.002-.004c.014.029.118.223.166.2l.014-.101.1-.34c.003-.026.006-.058.006-.089 0-.078-.015-.151-.043-.219l.002.004c-.008-.018-.013-.039-.013-.06 0-.025.006-.049.016-.07v.001c.048-.093.14-.12.194-.194.025-.043.04-.096.04-.152 0-.038-.006-.075-.019-.109l.002.003c-.04-.095-.133-.16-.24-.16h-.014.001c-.084.005-.223.13-.292-.01-.004-.013-.006-.026-.006-.04 0-.037.013-.069.034-.095.055-.101.15-.174.263-.2h.002c.248-.045.434.194.564.372.069.093.124.2.158.317v.007c.01.078.015.168.015.26 0 .458-.12.888-.332 1.258l.006-.013c-.095.176-.152.384-.155.605v.001c-.003.029-.005.063-.005.096 0 .148.035.288.098.41l-.002-.005c.065.13.148.24.25.332l.002.001c.086.084.276.186.225.369-.008.018-.011.04-.011.063 0 .032.007.062.022.088v-.001c.032.038.078.064.129.065.194.02.16.111.156.27l-.002.052c0 .105.026.205.072.293l-.001-.004c.124.194.374.415.452.541.08.127.05.28.118.403.034.056.071.105.114.148.022.024.171.186.211.152l-.011-.102.01-.353c-.011-.109-.051-.205-.112-.287l.002.002c-.021-.026-.034-.06-.034-.096 0-.012.001-.023.004-.034v.001c.022-.101.105-.151.135-.239.006-.024.011-.052.011-.081 0-.066-.021-.129-.056-.179l.001.002c-.047-.063-.122-.103-.206-.103-.028 0-.055.005-.08.012h.001c-.08.027-.184.18-.285.066-.013-.022-.02-.048-.02-.077 0-.022.005-.044.014-.062v.001c.029-.114.104-.206.204-.258h.002c.227-.107.47.078.64.217.093.073.169.161.23.26l.003.004c.1.262.158.567.158.884 0 .23-.03.452-.086.663l.004-.018c-.024.094-.038.203-.038.313 0 .11.014.219.039.323l-.002-.01c.027.18.103.338.215.464H5.39c.091.104.2.19.323.256l.006.002c.105.059.314.111.311.3l-.001.017c0 .05.019.093.049.126.029.02.064.033.102.033.014 0 .028-.001.04-.005H6.22c.19-.03.183.065.22.221.021.122.076.23.154.314.168.159.466.306.577.409.111.102.118.259.216.36.044.043.092.08.144.113l.004.002c.027.017.212.135.242.093l-.037-.096-.08-.344c-.038-.1-.1-.184-.178-.248v-.001c-.036-.028-.06-.07-.062-.117-.005-.103.065-.172.07-.264 0-.096-.043-.18-.109-.237-.043-.035-.1-.055-.16-.055-.051 0-.099.015-.139.04h.002c-.07.045-.13.22-.259.135-.027-.027-.044-.065-.044-.106 0-.009.002-.016.003-.024v-.006c0-.119.051-.224.132-.297.194-.16.475-.044.674.048.115.053.214.12.298.203.29.407.466.916.467 1.465.006.222.065.43.165.611l-.004-.007c.056.127.136.235.233.322l.001.001.171-.227c-.061-.067-.114-.143-.153-.225l-.003-.005c-.044-.073-.07-.16-.07-.254 0-.125.046-.237.123-.325.096-.105.165-.13.216-.094.068.047.008.147-.015.227-.007.02-.01.046-.01.072 0 .086.04.162.102.211.021.018.046.032.074.041l.002.002.44-.583c-.06-.091-.133-.169-.22-.229h-.003c-.131-.076-.283-.135-.443-.168l-.01-.002c-.064-.017-.11-.07-.117-.137v-.001c-.003-.084-.037-.16-.09-.217-.025-.01-.055-.016-.086-.016-.032 0-.06.007-.088.017h.001c-.162.05-.204-.217-.245-.31-.061-.142-.145-.263-.246-.365-.726-.704-1.996-.23-2.471-.842-.077-.1-.13-.221-.155-.352l-.002-.005c-.012-.043-.02-.09-.02-.14 0-.168.084-.316.213-.404l.001-.001c.12-.078.194-.083.233-.035.055.065-.029.142-.073.215-.022.038-.036.085-.036.135 0 .061.02.117.055.162v-.001c.056.072.144.119.241.119.023 0 .045-.003.065-.008H6.13c.092-.025.171-.095.249 0 .064.071.148.124.243.15l.004.002c.103.037.298.018.36.065.042.032.085.027.047-.066-.032-.076-.08-.14-.137-.193-.1-.095-.222-.124-.324-.234-.101-.11-.114-.349-.268-.514-.114-.11-.244-.202-.387-.275l-.009-.003c-.048-.03-.08-.08-.08-.14 0-.008 0-.017.002-.024V30c.005-.023.009-.049.009-.075 0-.058-.016-.111-.04-.159v.002c-.038-.03-.088-.048-.14-.048l-.026.001h.002c-.17.008-.142-.259-.159-.362-.022-.154-.072-.292-.144-.415l.003.005c-.518-.858-1.869-.719-2.175-1.432-.039-.093-.063-.203-.063-.317 0-.024.002-.047.003-.07V27.116c0-.212.135-.393.325-.461l.004-.001c.135-.045.206-.03.233.025.038.075-.065.13-.123.19-.05.049-.08.115-.08.19 0 .037.008.072.022.105l-.001-.002c.046.105.146.18.265.186h.001c.096 0 .19-.05.241.065.046.087.115.158.199.207l.003.001c.09.065.282.094.33.157.033.042.076.047.066-.05-.014-.084-.044-.158-.087-.223l.002.003c-.074-.118-.184-.177-.253-.308s-.022-.366-.13-.565c-.087-.143-.191-.265-.31-.369l-.002-.001c-.03-.029-.048-.07-.048-.115 0-.022.005-.045.014-.065v.001c.024-.045.038-.097.038-.153 0-.028-.004-.055-.01-.08v.002c-.037-.045-.088-.076-.148-.086h-.001c-.167-.035-.071-.288-.062-.389.004-.037.008-.082.008-.127 0-.11-.015-.218-.044-.32l.003.01c-.286-.968-1.626-1.177-1.741-1.943-.005-.032-.008-.071-.008-.11 0-.1.018-.195.049-.284l-.002.006c.05-.207.224-.36.438-.378h.001c.143-.009.208.022.222.083.017.082-.097.112-.17.152-.08.047-.132.133-.132.231 0 .014.002.026.003.039v-.002c.017.118.1.212.208.247h.003c.094.023.194 0 .218.121.023.1.072.186.14.254.072.082.25.162.282.236.021.049.061.065.073-.032l.002-.057c0-.064-.011-.126-.031-.183l.001.003c-.041-.13-.13-.217-.166-.361-.036-.144.071-.36.016-.582-.05-.167-.121-.312-.211-.443l.003.005c-.013-.024-.022-.051-.022-.082 0-.038.013-.073.035-.1.052-.058.085-.134.086-.218-.014-.058-.085-.103-.121-.121-.151-.078.005-.298.04-.394.049-.124.078-.268.078-.419v-.016.001c-.032-1.011-1.275-1.553-1.19-2.323.017-.138.066-.262.138-.368l-.002.002c.083-.157.246-.262.433-.262.03 0 .06.003.088.008h-.002c.14.027.193.075.193.136-.003.083-.12.082-.201.103-.104.03-.181.118-.194.226l-.002.035c0 .108.056.203.141.257l.001.001c.084.046.189.05.179.173v.016c0 .098.027.189.074.267l-.002-.002c.048.098.202.221.212.299.007.052.042.078.079-.013.022-.057.034-.123.034-.194v-.04c-.007-.137-.075-.243-.07-.388.006-.145.16-.33.164-.556-.006-.173-.037-.335-.093-.487l.003.011c-.003-.013-.006-.028-.006-.044 0-.053.025-.098.063-.128.066-.044.116-.109.137-.186v-.003c-.01-.06-.041-.112-.086-.147-.13-.113.08-.287.139-.37.08-.113.145-.244.182-.386l.001-.01c.225-.98-.841-1.818-.565-2.543.051-.126.129-.232.224-.317l.001-.002c.09-.099.219-.16.363-.16.075 0 .145.016.209.046H3.49c.13.064.17.12.151.18-.025.08-.137.05-.221.048-.111.002-.205.071-.245.169l-.001.001c-.013.033-.02.069-.02.107 0 .082.032.157.085.212.069.065.17.097.13.212-.014.044-.022.094-.022.145 0 .052.008.101.022.149l-.002-.004c.022.107.14.264.13.343-.006.052.022.086.08.007.043-.061.075-.135.09-.214V14.6c.03-.135-.008-.255.033-.396.041-.142.239-.28.299-.498.025-.105.038-.225.038-.349 0-.047-.002-.094-.006-.14v.003c0-.066.04-.124.098-.148h.001c.077-.026.141-.079.181-.145l.002-.001v-.024c0-.053-.017-.102-.047-.142-.095-.142.15-.259.228-.324.111-.093.204-.204.275-.33l.002-.006c.465-.892-.352-1.973.099-2.604.079-.105.179-.19.294-.249l.005-.002c.075-.05.167-.079.266-.079.119 0 .228.043.313.113l-.002-.002c.108.093.134.16.1.214-.043.07-.146.012-.226-.009-.019-.005-.041-.007-.064-.007-.088 0-.167.042-.216.108v.002c-.036.05-.058.111-.058.178 0 .054.014.104.038.147l-.001-.002c.05.082.14.137.071.24-.047.075-.075.17-.075.268v.013c-.006.108.065.29.037.364-.02.05 0 .09.075.028.06-.051.11-.113.143-.184l.001-.003.13-.375s.302-.21.415-.405c.072-.133.125-.287.154-.45l.001-.01c.015-.063.068-.112.133-.122h.001c.084-.005.157-.041.212-.096.01-.025.017-.055.017-.086 0-.032-.006-.06-.017-.088v.002c-.056-.16.21-.21.303-.255.138-.066.255-.152.354-.255.677-.746.16-2 .756-2.496.099-.08.216-.137.346-.166l.005-.001c.046-.016.099-.025.154-.025.162 0 .307.08.396.203h.002c.08.118.087.19.043.232-.061.058-.144-.025-.216-.065-.037-.02-.081-.032-.127-.032-.065 0-.124.022-.17.06-.068.056-.112.14-.112.236 0 .026.004.051.009.075V6.51c.027.093.101.168.009.249-.069.066-.12.152-.143.249l-.001.003c-.034.104-.009.298-.056.362-.032.042-.025.086.065.045.073-.036.136-.085.186-.144l.001-.001c.093-.103.118-.226.223-.33.105-.104.345-.125.505-.287.105-.116.195-.25.262-.394l.004-.01c.028-.052.081-.085.141-.085h.02-.001c.019.005.041.007.064.007.061 0 .119-.016.168-.046v.001c.02-.035.033-.077.033-.122 0-.02-.002-.04-.008-.06v.002c-.012-.17.26-.15.357-.17.153-.029.29-.083.411-.159l-.005.003c.841-.549.66-1.893 1.364-2.221.101-.047.219-.073.342-.073l.043.001h-.003l.032-.001c.207 0 .383.129.456.31l.001.004c.049.133.037.206-.016.235-.074.04-.134-.06-.194-.118-.047-.045-.112-.072-.184-.072-.04 0-.079.008-.112.025l.001-.002c-.104.05-.175.153-.176.272.004.096.055.187-.054.242-.086.049-.155.12-.201.205l-.002.003c-.058.092-.083.286-.146.336-.041.034-.045.078.051.06.083-.016.157-.049.22-.094l-.002.002c.115-.077.17-.19.299-.26.129-.07.365-.033.56-.148.138-.091.257-.199.357-.321l.003-.003c.03-.032.071-.051.118-.051.022 0 .042.004.06.011.042.021.09.033.143.033.031 0 .063-.005.091-.013h-.002c.043-.037.073-.09.081-.15v-.001c.03-.167.285-.08.389-.075.026.003.057.004.088.004.126 0 .247-.02.36-.056l-.008.002c.962-.319 1.127-1.665 1.89-1.804.025-.003.053-.006.084-.006.26 0 .477.192.516.442v.003c.012.142-.017.209-.076.224-.082.02-.114-.093-.158-.164-.049-.076-.133-.125-.227-.125-.017 0-.032.001-.047.004h.002c-.117.021-.208.106-.24.216v.002c-.022.094.005.194-.115.222-.1.026-.183.079-.25.148-.08.074-.153.256-.226.288-.048.022-.065.065.035.071.012.002.025.002.04.002.07 0 .137-.013.198-.038l-.004.001c.13-.045.213-.139.356-.177.213-.058.36.027.663-.171.025-.017.054-.026.086-.026.037 0 .069.012.095.032.058.05.133.08.215.08h.005c.056-.015.1-.089.118-.125.071-.154.22.016.317.048.037.015.079.025.124.025.095 0 .181-.04.24-.107l.001-.009zM20 3.3c-.325.003-.604-.182-.665-.705-.051-.46-.015-.951-.582-.871.083-.434.518-.459.812-.31l.001.002c-.035-.067-.055-.143-.055-.225 0-.27.219-.489.489-.489s.489.22.489.49c0 .08-.02.157-.054.222.295-.149.729-.125.813.31-.568-.081-.53.41-.583.871-.061.524-.34.705-.664.705H20zm0-.547h.01c.13 0 .236-.104.241-.234.054-.059.086-.138.086-.224 0-.185-.15-.336-.336-.336-.186 0-.336.15-.336.336 0 .086.033.165.086.225.004.13.11.234.241.234h.01L20 2.752z"/>
        <path fill="#FFEB00" d="M31.899 35.649L31.764 35.75 29.751 33.08 29.886 32.979zM28.058 35.239l.468-.283.045.076c-.042.017-.072.057-.072.104 0 .028.01.053.026.072l.2.33.731-.44-.2-.33c-.016-.042-.056-.07-.102-.07-.029 0-.055.01-.074.028l-.046-.076.469-.282.046.076c-.07.042-.095.095-.05.17l.61 1.014c.048.082.096.093.178.043l.047.077-.469.282-.046-.076c.085-.051.094-.098.046-.176l-.336-.56-.732.44.338.56c.047.08.092.092.176.042l.047.076-.47.283-.046-.077c.085-.05.094-.096.047-.175l-.608-1.008c-.016-.043-.057-.073-.105-.073-.028 0-.053.01-.073.028l-.046-.075zM26.365 37.634c.068-.025.115-.09.115-.165l-.001-.017v.002l.046-1.235V36.2c0-.095-.046-.178-.117-.23h-.002l.292-.12 1.116 1.047c.031.042.082.07.139.07.027 0 .052-.007.075-.018h-.002l.034.082-.506.208-.034-.081c.085-.035.059-.089.01-.134l-.165-.155-.736.303-.009.228c0 .065.029.115.106.083l.034.081-.365.15-.034-.083.004.002zm.89-.87l-.587-.552-.03.805.617-.253zM25.313 36.404l.2.286-.078.044c-.12-.173-.302-.138-.484-.088l-.125.034.328 1.212c.023.088.065.114.159.088l.023.085-.528.143-.024-.085c.099-.027.116-.07.092-.16l-.324-1.208-.125.034c-.178.047-.357.112-.373.32h-.089l.029-.349 1.319-.356zM23.15 38.133l.096.342-.085.024c-.029-.102-.065-.149-.174-.048-.112.105-.252.18-.408.215l-.006.002c-.062.016-.132.025-.204.025-.46 0-.833-.373-.833-.833 0-.41.295-.75.685-.82l.005-.001c.055-.013.119-.02.183-.02.108 0 .213.02.31.057l-.007-.002c.112.041.122 0 .107-.093l.087-.014.059.366h-.089c-.111-.11-.265-.18-.435-.18-.043 0-.085.006-.126.013l.004-.001c-.288.087-.493.35-.493.66 0 .38.308.688.688.688.031 0 .062-.003.094-.007h-.004c.207-.047.373-.196.445-.389l.001-.003.1.019zM19.58 38.304v.298c0 .094.035.13.13.13v.09h-.547v-.09c.093 0 .13-.035.13-.13V37.43c0-.092-.038-.13-.13-.13v-.089h.917c.303 0 .546.245.546.546 0 .301-.245.547-.546.547h-.5zm.358-.14c.223 0 .405-.181.405-.405 0-.224-.182-.405-.405-.405h-.36v.812l.36-.002zM16.349 38.395c.01.002.021.002.032.002.069 0 .129-.04.158-.098v-.002l.671-1.036c.031-.045.049-.1.049-.159 0-.04-.009-.08-.025-.116l.001.002.313.046.423 1.47c.025.087.054.14.155.155l-.012.087-.541-.08.012-.087c.09.014.095-.047.078-.111l-.066-.218-.787-.116-.125.194c-.036.056-.034.113.05.126l-.012.087-.39-.057.016-.089zm1.209-.293l-.224-.773-.438.676.662.097zM15.946 36.746l.027.349h-.09c-.015-.21-.193-.273-.372-.324l-.125-.034-.333 1.21c-.024.088 0 .13.092.157l-.024.085-.527-.145.024-.085c.097.027.134 0 .16-.09l.332-1.208-.125-.034c-.178-.048-.365-.085-.485.087l-.078-.045.202-.286 1.322.363zM11.669 36.799c.022.011.048.017.077.017.053 0 .1-.024.133-.06l.921-.824c.061-.052.1-.128.1-.215 0-.014-.001-.03-.004-.044l.289.13.021 1.53c0 .09.015.148.11.19l-.035.08-.501-.22.035-.08c.084.037.104-.02.104-.087v-.226l-.729-.32-.171.152c-.05.045-.065.102.015.136l-.035.08-.36-.158.03-.081zm1.243.036l-.01-.805-.6.536.61.269zM11.617 35.05l-.065.343-.085-.026c.042-.207-.112-.313-.273-.408l-.113-.065-.642 1.078c-.046.078-.038.125.047.175l-.045.077-.47-.28.045-.077c.088.052.13.036.178-.043l.641-1.076-.113-.066c-.158-.095-.328-.178-.49-.046l-.064-.065.27-.222 1.18.701zM8.101 35.65L8.236 35.751 10.249 33.081 10.114 32.98 8.101 35.651z"/>
        <path fill="#000" d="M13.655 13.158c.306.125.518.42.518.766v.019-.002.031c.75.542 1.35 1.248 1.755 2.068l.014.033.175.43c.153.424.335.79.554 1.132l-.014-.023c.142.23.313.424.514.586l.005.003.035.023c.113-.637.177-1.37.177-2.118 0-1.064-.13-2.096-.374-3.084l.018.088c-.26-1.224-.857-2.281-1.688-3.101l-.002-.002c-.606-.496-1.23-.54-1.665-.116l-.075.074-.013-.104c-.01-.047-.015-.104-.015-.16 0-.306.162-.575.405-.726l.004-.002c.226-.117.493-.186.776-.186.366 0 .706.114.986.31l-.006-.005c.316.217.584.48.799.78l.006.01c-.278-.96-.305-1.893.331-2.614.22-.276.547-.455.916-.48h.004c.306.01.576.157.751.38l.002.003.087.1-.133-.012c-.052-.01-.113-.015-.176-.015-.279 0-.531.114-.712.296-.208.301-.333.674-.333 1.076 0 .187.027.367.077.537l-.004-.014c.105.43.254.809.446 1.16l-.012-.025.097.209c.135.288.236.538.335.808 0-.976.148-2.125 1.027-2.352.083-.031.18-.049.28-.049.303 0 .568.167.708.415l.003.004.042.086-.096-.01c-.054-.012-.117-.02-.179-.02-.244 0-.462.105-.614.274l-.001.001c-.484.607-.082 2.166.381 3.56v-.102-.003c0-.438.069-.857.197-1.253l-.008.03c.133-.383.474-.658.885-.692h.004c.023-.002.05-.004.077-.004.29 0 .543.162.674.399l.002.004.047.09-.1-.014c-.053-.012-.114-.019-.177-.019-.186 0-.357.062-.496.164l.003-.001c-.188.189-.304.45-.304.737l.001.042v-.003l-.002.118c0 .194.017.386.051.57l-.003-.018.082.379c.065.275.148.655.232 1.1.015-.408.197-.771.477-1.025v-.002c.136-.104.308-.168.496-.168.072 0 .142.01.21.027l-.006-.001c.243.034.433.226.463.468v.002l.011.086-.08-.03c-.065-.031-.138-.048-.217-.048-.082 0-.16.02-.229.055l.003-.002c-.163.129-.267.323-.273.543v.001c-.002.051-.003.112-.003.174 0 .378.053.743.152 1.09l-.006-.028.045.214c.036.165.066.369.085.575l.001.02c.099-.328.397-.563.751-.563l.064.003h-.002c.228.009.413.186.433.411v.082l-.073-.033c-.062-.037-.136-.059-.214-.059-.037 0-.073.005-.107.014l.003-.001c-.075.037-.131.104-.155.183v.003c-.025.114-.04.245-.04.38s.015.265.041.391l-.002-.012.04.409.049-.03c.226-.14.442-.293.647-.44.635-.555 1.454-.916 2.355-.978l.012-.001h.062c.759 0 1.471.197 2.088.543l-.02-.01.263.154c.375.252.807.468 1.265.628l.04.012c.072.018.155.028.24.028.199 0 .384-.055.541-.15l-.005.002c.115-.072.195-.191.213-.33v-.002c.114-.955-.776-1.639-1.169-1.889-1.079-.691-1.991-1.19-3.074-1.771-1.053-.441-1.878-1.25-2.331-2.263l-.011-.027c-.128-.316-.203-.684-.203-1.069 0-.569.163-1.1.444-1.55l-.008.012c.3-.452.678-.684.967-.582.215.076.323.319.293.648-.05.272-.13.514-.24.74l.008-.018-.026.065c-.038.117-.059.252-.059.394 0 .34.125.65.33.887l-.001-.001c.694.671 1.496 1.236 2.376 1.666l.055.024.136.074.605.319c.59.292 1.08.576 1.552.887l-.054-.034c.757.49 1.344 1.187 1.686 2.009l.011.029c.354.881.525 2.105-.665 2.934-.517.36-.473.612-.366 1.22.091.42.144.9.144 1.396 0 .28-.017.556-.05.829l.003-.033-.017.13c-.076.471-.13 1.031-.151 1.601l-.002.025-.003.125c-.007.064-.01.139-.01.214 0 .224.031.439.091.644l-.004-.017c.06.152.13.283.213.404l-.005-.007.116.193c.081.122.13.27.13.43 0 .046-.004.088-.011.13v-.005l-.013.027c-.155.367-.31.672-.485.966l.02-.036c-.11.18-.238.365-.373.56l-.278.406c-.115.176-.241.419-.352.634l-.107.202c-.091.172-.119.284-.085.344.034.06.115.08.255.085h.089l-.045.076c-.12.188-.326.31-.561.31-.044 0-.086-.004-.129-.012l.004.001c-.208.502-.681.855-1.241.884h-.004l-.154.032c-.115.025-.233.065-.348.099-.117.043-.26.083-.408.111l-.022.004c-.533.091-.638.036-.682-.13l-.01-.033c-.015-.042-.065-.077-.115-.107-.058-.038-.115-.076-.12-.139l-.001-.011.001-.012c-.11-.04-.2-.115-.258-.212v-.002c-.02-.037-.033-.079-.033-.125v-.018.002c-.104-.028-.184-.112-.206-.216v-.002l-.002-.024c0-.107.058-.201.144-.251l.001-.001.043-.029.276-.194.143-.13c.13-.13.267-.259.44-.239l.31.048c.17.05.366.079.568.079.178 0 .349-.023.514-.064l-.015.003c.229-.175.406-.405.514-.672l.003-.011c.342-.595.584-1.291.684-2.034l.004-.029c.003-.03.004-.064.004-.1 0-.33-.104-.634-.28-.886l.004.005c-.07-.12-.146-.266-.213-.416l-.011-.03c-.094-.2-.194-.369-.305-.53l.007.011-.152-.241-.178-.297c-.117-.194-.231-.386-.341-.577-.244.423-.387.929-.387 1.47 0 .14.01.279.028.414l-.001-.015.001.034c0 .221-.142.409-.34.476l-.004.001c-.156.085-.29.173-.416.269l.008-.005-.181.13c-.558.381-1.044.762-1.503 1.172l.014-.012c-.078.064-.127.16-.127.266 0 .01 0 .02.002.03v-.001c.009.089.056.165.125.213h.001l.085.05-.089.043c-.067.04-.148.063-.235.063-.047 0-.092-.008-.135-.02l.004.001c-.085-.034-.152-.095-.194-.172l-.001-.003c-.089.07-.163.156-.214.255l-.002.004c-.056.101-.125.189-.206.262h-.002l-.044.037c-.098.093-.217.17-.348.22l-.008.002c-.142.041-.307.066-.476.069h-.001L23 28.41c-.184.014-.355.047-.518.099l.016-.004c-.09.035-.194.054-.303.054-.029 0-.057-.002-.085-.004h.004c-.131-.016-.25-.051-.36-.101l.008.003-.043-.02c-.137-.066-.359-.178-.315-.372-.021-.011-.04-.024-.058-.038h.002c-.056-.043-.16-.15-.155-.236v-.015c-.11-.03-.189-.128-.189-.245l.001-.018c.055-.14.146-.257.263-.342l.002-.001.118-.114.04-.044c.099-.145.252-.246.431-.273h.004c.027-.003.06-.004.092-.004.129 0 .254.02.37.059l-.009-.003c.227.083.488.13.76.13h.042-.003c.013.002.026.002.04.002.165 0 .315-.065.428-.17l.03-.032c.542-.582 1.056-1.134 1.573-1.74.628-.734.238-1.645-.14-2.525l-.015-.035c-.103-.244-.21-.551-.298-.865l-.014-.059-.039-.13c-.456.347-.855.73-1.206 1.154l-.01.013c-.366.428-.753.814-1.169 1.166l-.015.012c-1.042.936-2.428 1.508-3.947 1.508-.254 0-.505-.016-.75-.047l.029.002-.018.211c-.015.315-.107.607-.26.858l.005-.008-.094.189c-.135.28-.397.819-.655 1.265-.265.406-.495.874-.667 1.369l-.014.045c-.014.036-.021.079-.021.122 0 .073.021.14.057.197l-.001-.002c.05.062.126.1.211.1h.017-.002.091l-.046.079c-.076.154-.232.259-.412.259-.095 0-.183-.029-.257-.079l.002.001c-.096.25-.239.463-.42.637-.164.146-.353.267-.559.356l-.014.005c-.112.045-.243.073-.38.079h-.002c-.105.007-.201.02-.296.04l.013-.002-.344.093c-.227.084-.49.135-.763.141h-.003c-.17-.012-.395-.049-.481-.194-.045 0-.086-.014-.121-.037h.001c-.085-.062-.147-.146-.181-.247l-.002-.003c-.085-.04-.15-.11-.183-.197l-.002-.002c-.008-.021-.016-.046-.02-.071v-.002c-.096-.033-.167-.116-.182-.217v-.001c-.009-.029-.012-.061-.012-.095 0-.109.048-.206.126-.271l-.009.007c.582-.595 1.082-.61 1.2-.549.234.153.52.243.828.243.09 0 .18-.008.267-.024l-.009.001c.147-.046.263-.148.327-.28v-.003c.156-.372.292-.81.387-1.265l.009-.05c.076-.304.153-.622.245-.948l.115-.396c.115-.345.225-.776.307-1.216l.01-.066c.01-.07.015-.152.015-.236 0-.095-.007-.188-.021-.28l.001.01c-.159-.034-.299-.099-.42-.189l.003.003c-.199.119-.439.189-.696.189-.023 0-.047 0-.07-.002h.005c-.582-.117-1.097-.327-1.56-.613l.02.011-.453-.229c-.249-.122-.49-.265-.701-.389-.449-.266-.836-.496-1.055-.388-.128.065-.223.176-.265.312l-.002.004-.04.111-.056-.105c-.051-.09-.081-.197-.081-.311.001-.09.019-.175.05-.253l-.001.006c-.072-.018-.153-.028-.236-.028-.047 0-.092.002-.137.009h.005c-.215.037-.395.167-.498.346l-.002.004c-.036.096-.057.209-.057.325 0 .059.005.115.015.171l-.002-.006.01.165c0 .086-.028.165-.076.229l.002-.002c-.06.084-.155.139-.263.143-.029.095-.081.175-.151.235-.049.047-.115.076-.188.076h-.014c-.038.077-.112.133-.2.144h-.018c-.125 0-.236-.06-.305-.154l-.002-.001c-.15-.218-.24-.486-.247-.775v-.002c.008-.505.223-.957.564-1.278l.001-.002.08-.088c.13-.17.295-.308.485-.403l.008-.003c.268-.112.58-.195.906-.237l.019-.002c.12-.014.262-.021.405-.021.19 0 .377.013.56.038l-.02-.002c.346.044.694.111 1.036.176.426.098.94.175 1.465.216l.039.003-.02-.159c-.022-.259-.088-1.145-.09-1.509v-.582c.008-.115.012-.249.012-.384 0-.43-.043-.849-.125-1.255l.006.04c-.176-.703-.576-1.462-1.165-1.489-.097.03-.182.077-.256.138l.001-.002c-.192.174-.449.28-.73.28-.053 0-.107-.003-.16-.01h.007c-.204-.088-.372-.226-.495-.397l-.003-.004c-.034-.036-.055-.085-.055-.14 0-.02.002-.038.008-.056v.001c.037-.084.155-.13.383-.149.288-.024.473-.095.48-.182.002-.01.002-.023.002-.035 0-.146-.095-.271-.227-.316l-.002-.002-.044-.002c-.103 0-.197.035-.273.095l.002-.001c-.089.067-.203.109-.325.109-.023 0-.045-.002-.066-.004h.002c-.174-.044-.316-.151-.406-.296l-.002-.003c-.04-.066-.063-.147-.065-.234.002-.028.006-.057.012-.083v.002c-.06-.054-.096-.133-.096-.219v-.014.002-.088c0-.211.15-.324.312-.444l.065-.047c.152-.116.259-.194.37-.271.101-.066.219-.12.344-.155l.008-.003c.1-.026.185-.065.264-.112l-.005.002c.098-.075.183-.159.256-.251l.003-.002c.091-.12.202-.22.33-.298l.005-.002c.276-.102.595-.162.926-.162.155 0 .306.013.455.038l-.016-.003c.064-.075.131-.141.205-.201l.002-.002c.118-.112.278-.18.453-.18.039 0 .078.005.114.01h-.004v.014z"/>
        <path fill="#FFF" d="M14.885 24.495c-.373-.284-.696-.603-.975-.96l-.009-.011c-.281-.345-.496-.758-.616-1.208l-.005-.022c-.576-.043-1.104-.122-1.619-.236l.074.013c-.336-.065-.682-.13-1.026-.175-.159-.022-.341-.036-.528-.036-.138 0-.275.008-.41.021l.016-.001c-.333.044-.635.125-.92.24l.025-.009c-.18.093-.332.221-.45.375l-.003.004-.082.091c-.322.303-.527.729-.536 1.203v.001c.005.266.089.512.229.716l-.003-.005c.052.07.133.114.226.114h.002c.049-.008.089-.036.112-.076v-.002c-.106-.088-.187-.203-.235-.334v-.006l-.032-.064c-.09-.148-.144-.327-.144-.518.014-.012.033-.019.053-.019.02 0 .039.008.052.019.002.175.05.338.136.475l-.002-.004.031.065c.065.136.13.278.23.313.01.002.02.003.031.003.04 0 .073-.014.1-.04.057-.046.102-.107.128-.177l.001-.003c-.046-.015-.086-.035-.122-.06h.001c-.151-.138-.246-.336-.246-.557 0-.19.071-.365.187-.497h-.001.01c.037 0 .069.026.079.06-.285.45-.139.788.031.906.041.034.094.055.152.055.08 0 .15-.039.193-.099v-.001c.034-.045.054-.101.054-.162l-.01-.16c-.01-.052-.015-.112-.015-.175 0-.133.026-.26.072-.378l-.002.007c.121-.212.329-.362.574-.404h.005c.046-.007.098-.01.152-.01.113 0 .22.015.324.044l-.009-.002.06.015-.025.057c-.039.078-.061.169-.065.265v.002c.001.055.01.108.026.158l-.001-.004c.06-.112.151-.202.262-.257l.004-.001c.27-.135.662.097 1.156.389.222.13.45.266.695.388l.454.23c.43.269.931.473 1.468.587l.03.004c.021.002.045.003.07.003.216 0 .418-.055.595-.151l-.007.003-.002-.002zM21.465 27.968c.137-.184.328-.323.546-.395l.008-.003c.025-.01.09-.038.454.081l.065.023c.04.02.086.032.136.032l.029-.001H22.7c.018.015.029.039.029.064 0 .015-.004.029-.01.041-.014.001-.03.003-.046.003-.061 0-.12-.014-.171-.04h.002l-.065-.022c-.324-.104-.381-.084-.384-.084-.216.068-.393.203-.516.38l-.002.003c-.06.13.064.203.244.293l.044.022c.094.043.204.073.319.088h.005l.063.002c.098 0 .193-.019.28-.052h-.004c.153-.048.331-.083.515-.097h.007l.109-.006c.162-.003.317-.026.466-.067l-.012.002c.123-.05.23-.119.32-.204l.045-.037c.072-.068.134-.146.181-.233l.002-.005c.068-.137.173-.248.302-.321l.003-.002.048-.02c.027.095.092.172.177.216l.003.001c.027.009.059.014.091.014.043 0 .083-.009.12-.023l-.002.002c-.067-.073-.108-.17-.108-.277.004-.135.064-.255.159-.336.449-.402.938-.788 1.45-1.14l.049-.031.178-.13c.123-.095.262-.185.407-.264l.016-.009c.197-.097.285-.21.285-.371v-.038c-.01-.136-.015-.267-.015-.393l-.001-.1c0-.551.157-1.065.431-1.499l-.008.011c-.147-.252-.294-.552-.422-.863l-.018-.05-.064-.174c-.168-.439-.342-.893-.658-1.029-.171-.063-.369-.098-.575-.098-.457 0-.875.177-1.186.467l.001-.002.047.162c.102.369.207.671.33.966l-.02-.054.014.035c.389.912.793 1.854.123 2.638-.518.607-1.037 1.159-1.578 1.744l-.03.03c-.13.127-.306.203-.501.203l-.043-.001h.003-.041c-.284 0-.556-.05-.81-.14l.016.005c-.098-.033-.21-.05-.328-.05-.028 0-.057.001-.086.004h.004c-.152.029-.281.116-.363.237v.003l-.04.045-.124.12c-.102.093-.216.2-.232.286v.002c0 .04.016.074.043.1.02.023.049.038.081.04.038-.053.078-.1.122-.145l.08-.086c.11-.136.28-.223.467-.223.036 0 .072.003.106.01h-.004c.005.01.009.022.009.034 0 .028-.014.052-.035.067-.024-.004-.051-.006-.079-.006-.155 0-.292.072-.382.184l-.002.002-.083.091c-.065.065-.13.136-.135.194-.008.037.087.143.142.174h.009z"/>
        <path fill="#FFF" d="M26.157 30.247l.022-.02c.114-.128.262-.223.431-.272l.006-.001c.019-.003.04-.004.063-.004.082 0 .161.018.232.05l-.004-.001c.044.016.1.032.157.046l.01.002c.056.013.12.02.185.02.046 0 .092-.003.136-.01h-.005c.019.016.031.038.031.064 0 .015-.003.029-.01.04-.046.008-.099.011-.154.011-.072 0-.145-.007-.213-.022l.006.001c-.071-.016-.13-.034-.189-.055l.011.004c-.058-.027-.126-.043-.198-.043-.014 0-.028 0-.041.002-.153.046-.283.132-.383.246l-.001.001-.023.021c-.01.008-.016.017-.021.028l.074.059c.069.036.122.091.156.16l.001.002.012.04c.02.075.038.144.563.055.164-.032.303-.071.438-.119l-.023.007c.117-.038.238-.076.358-.102l.154-.032c.545-.023 1.003-.37 1.187-.852l.003-.01.018-.032.038.007c.038.008.083.014.13.014.171 0 .325-.072.432-.188-.102-.002-.192-.052-.247-.129v-.001c-.018-.032-.029-.069-.029-.109v-.005c.011-.124.053-.238.114-.335l-.002.004.105-.202c.113-.216.24-.462.358-.642l.279-.409c.135-.194.258-.377.37-.555.152-.254.306-.555.44-.867l.018-.052.012-.026c.007-.017.011-.039.011-.061v-.004c-.015-.148-.061-.282-.131-.401l.002.004-.112-.188c-.083-.12-.155-.257-.213-.401l-.005-.015c-.056-.171-.09-.367-.09-.571 0-.021 0-.041.002-.063v.003l.006-.249.003-.122c.022-.6.077-1.166.164-1.72l-.01.08.018-.13c.031-.224.049-.484.049-.748-.007-.502-.06-.989-.154-1.46l.008.05c-.036-.162-.06-.352-.07-.546v-.008c.004-.335.195-.625.476-.768l.005-.003c.532-.343.88-.934.88-1.605v-.029.002c-.01-.427-.103-.83-.26-1.197l.007.022c-.346-.833-.919-1.513-1.642-1.982l-.017-.01c-.414-.275-.901-.556-1.406-.81l-.082-.037-.607-.32-.136-.074c-.946-.46-1.758-1.034-2.462-1.718l.002.003c-.223-.26-.357-.599-.357-.971v-.004-.021c0-.142.026-.277.072-.402l-.002.008.026-.065c.097-.2.175-.433.222-.675l.003-.018.005-.1c0-.227-.083-.388-.228-.44-.197-.068-.535.072-.841.543-.264.421-.419.933-.419 1.48 0 .373.073.728.203 1.053l-.006-.02c.454 1.016 1.263 1.803 2.265 2.223l.028.01c1.084.583 1.999 1.083 3.082 1.777.406.258 1.337.975 1.217 1.988-.023.173-.119.318-.256.407h-.003c-.17.106-.375.167-.595.167-.096 0-.188-.011-.277-.034l.007.002c-.508-.175-.948-.395-1.354-.665l.022.013-.259-.151c-.581-.326-1.275-.519-2.014-.519h-.065.004c-.891.065-1.69.416-2.314.964l.005-.004c-.21.15-.426.304-.656.445l-.096.054v.006c.002.059.005.128.005.198 0 .147-.008.292-.024.435l.001-.018c.089-.096.215-.156.355-.156.043 0 .084.005.123.016l-.004-.001c.239.054.416.26.425.509v.082l-.074-.034c-.049-.03-.107-.047-.17-.047-.041 0-.08.008-.116.021l.003-.001c-.087.047-.143.176-.173.392l-.026.324c-.004.433-.093.843-.248 1.218l.008-.022c-.18.36-.408.666-.678.928l-.001.001c-.215-1.316-1.343-2.307-2.703-2.307-.527 0-1.018.149-1.436.407l.012-.006.01-.069c.05-.367.112-.791.158-1.165-.428-.064-.813-.209-1.152-.421l.012.007c-.216-.17-.397-.376-.539-.607l-.006-.01c-.21-.325-.395-.697-.537-1.091l-.013-.039-.173-.427c-.404-.812-.97-1.488-1.658-2.008l-.014-.01v.146c-.014.01-.03.017-.049.017-.022 0-.042-.01-.057-.024v-.284c-.041-.373-.21-.639-.44-.694-.025-.004-.055-.006-.084-.006-.15 0-.287.059-.387.155-.078.064-.146.133-.209.207l-.003.003-.017.021h-.026c-.134-.022-.288-.036-.444-.036-.32 0-.629.055-.914.156l.019-.006c-.117.074-.217.165-.299.271l-.002.003c-.083.102-.175.192-.278.27l-.004.002c-.082.052-.178.093-.28.12l-.007.002c-.123.033-.23.082-.328.145l.005-.003c-.112.078-.213.152-.364.268l-.066.047c-.158.117-.272.204-.268.367v.048c-.002.009-.002.018-.002.027 0 .03.004.06.012.085v-.002c.017.059.07.12.136.1.05-.019.089-.06.102-.111v-.002l.042.007c.007.111-.023.215-.205.243.001.067.021.128.053.18.077.122.196.212.337.248l.003.001c.01.002.022.002.033.002.106 0 .204-.037.281-.097l-.001.002c.086-.068.196-.108.315-.108.029 0 .056.002.084.006h-.003c.179.057.306.222.306.415 0 .017 0 .033-.002.049v-.003c-.016.192-.324.26-.576.28-.253.02-.289.07-.296.085l.034.09c.112.16.262.284.438.362l.006.002c.034.004.074.006.114.006.263 0 .501-.1.681-.262l-.001.001c.086-.076.195-.131.315-.154h.004c.647.028 1.079.828 1.265 1.568.077.373.121.8.121 1.238 0 .136-.004.27-.012.405v-.02.578c0 .361.07 1.24.09 1.502.08.553.308 1.043.643 1.442l-.003-.004c.356.508.828.912 1.38 1.176l.02.01-.05-.325c-.048-.185-.075-.398-.075-.617 0-.104.006-.207.018-.308l-.001.013c.085-.567.284-1.078.574-1.521l-.009.015.015.006c.024.014.04.04.041.069 0 .008-.001.017-.005.026-.245.41-.424.889-.51 1.4l-.004.024c-.008.081-.014.175-.014.268 0 .214.026.422.077.62l-.004-.017c.051.214.082.459.082.711 0 .092-.004.183-.012.272l.002-.012c-.095.512-.207.947-.345 1.37l.02-.075-.114.395c-.09.324-.169.642-.244.947-.105.51-.244.957-.421 1.384l.018-.048c-.078.16-.216.28-.383.335l-.005.001c-.084.015-.18.023-.279.023-.327 0-.635-.094-.894-.256l.008.004c-.082-.044-.539-.022-1.075.529l-.004.004H11.8c-.05.046-.08.112-.08.185 0 .026.004.051.011.075v-.002c.01.06.045.108.094.136h.001l.011-.02c.177-.25.427-.436.718-.53l.01-.003c.018-.003.037-.005.059-.005.075 0 .143.022.202.06l-.001-.001c.046.029.101.047.16.05h.001c.014.015.023.035.023.057 0 .018-.005.034-.015.048-.08 0-.155-.024-.219-.063l.001.002c-.043-.03-.097-.048-.155-.048-.012 0-.024.001-.035.003h.002c-.277.09-.504.263-.664.488l-.003.004c-.005.011-.007.025-.007.039 0 .02.005.04.015.056.022.057.062.105.114.135v.001l.13-.13c.106-.14.255-.241.427-.286l.005-.001c.05-.004.109-.006.168-.006.116 0 .23.01.34.027l-.012-.001c.014 0 .025.002.038.007h-.002c.01.013.015.029.015.046 0 .018-.004.034-.014.048l-.05.005c-.094-.016-.204-.025-.315-.025-.056 0-.11.003-.163.006h.008c-.153.044-.28.134-.37.254v.001l-.13.13c.026.078.072.142.133.188l.002.001c.016.012.037.02.06.02l.02-.003h-.002l.046-.01.017.044c.032.089.167.142.41.16.264-.007.512-.057.745-.142l-.016.005.35-.094c.085-.019.186-.034.288-.04h.007c.127-.004.246-.03.357-.073l-.008.003c.21-.089.388-.204.544-.344l-.002.002c.181-.178.322-.394.41-.636l.004-.012.02-.052.052.024c.248.123.408.11.531-.047-.088-.016-.163-.063-.215-.129v-.001c-.047-.066-.076-.148-.076-.236v-.012c0-.057.009-.112.024-.165l-.002.004c.187-.55.422-1.025.708-1.465l-.015.025c.255-.444.517-.979.651-1.257l.094-.19c.141-.23.23-.507.244-.803v-.004c.015-.38.12-.732.292-1.042l-.006.011.094.05c-.109.194-.192.418-.237.656l-.002.014c.211.028.455.043.703.043 1.493 0 2.857-.563 3.888-1.488l-.005.005c.431-.363.818-.75 1.172-1.163l.01-.014c.368-.444.776-.834 1.224-1.173l.02-.014c.347-.33.818-.533 1.337-.533.217 0 .427.036.622.102l-.014-.003c.357.153.54.628.713 1.087l.065.172c.258.61.534 1.127.849 1.617l-.025-.042.178.298.15.239c.108.154.21.33.297.514l.01.022c.077.176.15.319.23.457l-.012-.02c.182.26.29.584.29.933 0 .037 0 .076-.003.114v-.005c-.104.786-.35 1.496-.714 2.131l.015-.029c-.117.3-.313.548-.561.727l-.005.003c-.165.045-.354.072-.549.072-.207 0-.407-.03-.598-.084l.015.003-.302-.047c-.123-.014-.236.095-.355.21l-.15.136c-.095.076-.19.14-.283.203l-.042.029c-.06.032-.099.095-.099.166v.007c.009.054.055.1.13.13.059-.097.143-.175.243-.226l.003-.001.214-.149c.1-.055.219-.088.347-.088l.064.003h-.002l.166-.009c.014.015.023.035.023.058 0 .017-.005.035-.015.049l-.17.008-.059-.002c-.105 0-.205.025-.294.069l.004-.002-.22.153c-.13.082-.194.125-.223.222-.003.012-.006.025-.006.04 0 .027.008.052.02.073.052.08.128.14.218.17l.002.001.002-.008z"/>
        <path fill="#000" d="M8.457 24.517c.063.153.197.265.36.298h.003c-.07.054-.158.085-.254.085-.168 0-.314-.099-.38-.242l-.001-.003c.02.006.042.011.067.011.095 0 .177-.061.205-.147v-.002zm.654-.532l.014.009c.03.155.219.236.389.264-.259.178-.464.17-.629-.055.072-.017.134-.06.175-.117v-.001c.021-.029.039-.063.05-.099v-.002l.001.001zm-.324.285c.09.194.314.214.444.234-.223.168-.452.227-.636-.004.086-.054.152-.133.188-.226v-.004h.005zm3.337 6.506c.037.068.108.113.19.113.006 0 .014 0 .02-.002h-.002c.01.026.023.047.04.066-.014.08-.023.172-.023.266l.001.056v-.002c-.112-.043-.202-.12-.262-.22l-.002-.002v.037c-.12-.064-.209-.174-.244-.306v-.003c-.128-.068-.213-.2-.213-.352 0-.072.019-.14.053-.198v.002l.013-.015c.025.069.082.119.152.135h.002c.003.06.024.115.057.16v-.001c.029.046.071.081.121.101h.002c.006.01.014.018.022.023.018.053.043.101.074.142l-.001-.001v.001zm9.611-2.401c-.01.07-.016.151-.016.233l.002.09v-.003c-.132-.069-.242-.141-.266-.226-.111-.062-.194-.163-.231-.284l-.002-.004c-.128-.065-.215-.196-.215-.347 0-.069.018-.133.05-.189l-.002.003.04-.04c.031.075.103.126.186.127-.008.018-.014.038-.015.059-.003.081.173.25.228.233-.084.174.087.272.239.348h.002zm4.705 2.339c-.063.061-.1.147-.1.241 0 .016.001.033.004.049v-.002c-.149-.07-.249-.218-.249-.39 0-.027.003-.054.008-.08v.002c-.02.069-.03.146-.03.227v.023-.002c-.134-.055-.237-.165-.28-.3l-.002-.003c-.135-.109-.221-.274-.221-.459 0-.1.025-.194.069-.276l-.002.003.023-.016c0 .085.065.17.216.215-.047.148.109.303.296.36-.082.114.172.149.218.283.006.047.024.088.05.125v-.002.002z"/>
        <path fill="#FF0" d="M26.359 30.686c-.044.05-.074.113-.083.183v.001c-.067-.065-.108-.156-.108-.258 0-.047.008-.092.026-.133l-.002.002c.09.03.157.109.168.204v.001h-.001zm-.259-.323c-.058.083-.094.186-.099.296v.001c-.094-.069-.155-.179-.155-.304 0-.06.014-.117.04-.167l-.001.002c.057.067.13.118.211.15l.004.002v.005l.001.012-.001.003zm-.286-.324c-.037.083-.064.181-.08.282l-.002.006c-.053-.087-.086-.195-.086-.308 0-.046.005-.093.015-.136l-.001.003c.041.043.091.076.146.097h.003v.013l.002.042v-.002l.003.003zm-4.587-2.17c-.027.052-.047.115-.052.181v.002c-.06-.053-.096-.13-.096-.216 0-.042.01-.083.026-.121l-.001.001c.029.029.066.049.107.058h.002c-.002.006-.002.014-.002.021 0 .026.007.051.018.072l-.002.002zm.194.299c-.017.048-.027.105-.029.163v.002c-.066-.057-.107-.14-.107-.232 0-.043.009-.085.026-.122l-.001.002c.031.034.069.063.109.084l.002.001c-.002.014-.005.03-.005.047 0 .018.003.037.006.055v-.002.002zm.223.403c-.084-.036-.141-.117-.141-.212 0-.022.002-.042.008-.062v.002c.041.037.088.07.139.095l.004.001c-.006.036-.012.076-.012.119 0 .02.002.038.003.059v-.003l-.001.001zm-9.366 2.574c-.084-.036-.142-.117-.142-.212 0-.02.003-.04.008-.057v.002c.041.037.094.06.152.064h.002c-.014.048-.022.102-.022.158l.002.047v-.002zm-.228-.383c-.02.053-.033.114-.035.178v.001c-.065-.056-.106-.139-.106-.231 0-.035.006-.07.017-.101l-.001.002c.022.02.047.037.076.046h.002c.01.04.026.074.046.105h-.002.003zm-.216-.266c-.021.043-.034.091-.038.144v.001c-.06-.052-.098-.13-.098-.215 0-.031.005-.061.013-.088v.002c.024.02.053.035.083.044h.001c.005.041.018.08.036.113h-.001.004zM8.78 24.398c.064.07.149.12.244.142l.004.001c-.04.025-.088.04-.14.04-.077 0-.146-.032-.194-.085.032-.028.06-.061.083-.096l.002-.001.001-.002zm.324-.287c.047.083.125.144.219.168h.002c-.036.02-.079.031-.125.031-.081 0-.155-.037-.202-.095.04-.029.073-.064.102-.102l.001-.002h.003zm-.478.703c-.02.005-.043.009-.069.009-.093 0-.176-.046-.228-.116.041-.015.076-.037.105-.066.045.075.109.134.186.172h.006z"/>
        <path fill="#FFF" d="M21.949 21.249c.07.159.127.345.163.539l.003.016c.275-.261.505-.566.678-.905l.008-.019c.143-.342.227-.74.23-1.157v-.002l.028-.334c.002-.19.09-.358.225-.47h.001c.035-.02.078-.032.121-.033-.045-.048-.11-.078-.181-.078-.008 0-.015 0-.023.002h.002c-.279.035-.335.42-.381.728-.013.1-.03.188-.052.274l.004-.015c-.087.326-.202.609-.344.875l.011-.023c-.14.232-.303.43-.492.602l-.002.002v-.002zm-.42-.68c.072.085.142.177.205.276l.006.01c.206-.215.381-.464.514-.735l.007-.018c.209-.4.359-.864.425-1.357l.003-.023c.014-.123.022-.266.022-.41v-.032-.005c0-.279-.018-.552-.055-.821l.004.031c-.025-.116-.04-.249-.04-.386 0-.15.017-.297.051-.436l-.002.012c.035-.11.111-.198.211-.244l.003-.001c.017-.008.037-.014.057-.017h.002c-.036-.037-.084-.06-.14-.06-.023 0-.046.005-.067.013h.001c-.213.049-.381.395-.381.788 0 .238.016.466.027.602l.008.109c.004.06.005.13.005.2 0 .95-.326 1.824-.872 2.515l.006-.009v-.002zm-.505-.459c.08.056.148.11.215.166l-.004-.002c.235-.23.418-.512.529-.826l.005-.015.03-.084c.106-.256.175-.552.194-.863v-.007l.003-.401V17.8c.005-.105.009-.229.009-.352 0-.478-.045-.944-.131-1.397l.007.047-.045-.213c-.093-.324-.147-.694-.147-1.079 0-.068.001-.136.005-.204v.01c.01-.253.134-.475.321-.617l.002-.001c.07-.041.154-.065.243-.065h.024-.002c-.076-.062-.174-.098-.28-.098-.036 0-.07.004-.102.011h.003c-.27.09-.467.32-.508.603v.004c-.026.172-.041.371-.041.574 0 .31.035.613.101.905l-.005-.028c.053.294.093.65.113 1.011v.025c.008.133.012.287.012.443 0 .5-.041.99-.121 1.466l.007-.051c-.091.495-.243.935-.451 1.343l.012-.027h.002zm-.68-.341c.131.044.24.089.345.141l-.015-.006c.184-.299.311-.651.356-1.029l.001-.012.017-.104c.058-.42.092-.905.092-1.398 0-.604-.05-1.196-.146-1.772l.009.062c-.058-.403-.136-.77-.214-1.161-.065-.335-.13-.623-.183-.841l-.082-.385c-.033-.171-.05-.368-.05-.569l.002-.127v.006l-.001-.044c0-.317.131-.605.342-.81.12-.096.27-.159.432-.171h.002c-.084-.053-.185-.083-.294-.083-.05 0-.098.007-.146.019l.004-.001c-.284.117-.499.351-.59.64l-.003.007c-.06.187-.096.403-.096.625 0 .062.003.123.008.183v-.008c.045.604.136 1.162.273 1.702l-.015-.068c.08.374.164.761.212 1.129.031.24.057.458.077.668.04.333.063.717.063 1.107 0 .227-.008.453-.023.677l.002-.03c-.058.61-.192 1.173-.394 1.7l.015-.043v-.004zm-.815-.129c.154.001.303.014.45.04l-.017-.003c.167-.46.283-.992.328-1.546l.001-.022c.024-.269.041-.57.052-.895-.006-.598-.083-1.175-.224-1.726l.011.05c-.099-.46-.194-1.002-.265-1.49-.034-.27-.089-.512-.166-.745l.007.027c-.511-1.519-.917-3.096-.393-3.755.14-.17.347-.281.58-.295h.002c-.094-.053-.205-.085-.322-.087h-.017c-.191 0-.365.077-.49.203-.285.365-.456.83-.456 1.336 0 .244.04.48.114.7l-.005-.016c.086.429.243.96.41 1.523.147.498.3 1.016.403 1.465.174.76.273 1.632.273 2.529 0 .274-.01.547-.027.817l.002-.036-.036.449c-.048.47-.144 1.063-.216 1.474v.003zm-.962.175c.148-.059.323-.108.503-.139l.015-.002c.098-.418.188-.941.247-1.475l.007-.067c.029-.326.044-.705.044-1.087 0-.818-.074-1.618-.214-2.395l.012.081c-.18-.879-.404-1.64-.685-2.372l.034.101-.156-.46c-.23-.681-.459-1.236-.718-1.774l.042.095c-.184-.333-.335-.72-.437-1.127l-.007-.034c-.049-.164-.078-.354-.078-.549 0-.427.135-.824.367-1.147l-.004.006c.178-.19.431-.311.711-.319h.001c-.102-.069-.229-.11-.365-.11-.035 0-.07.003-.104.009h.004c-.254.067-.465.219-.609.421l-.002.004c-.273.37-.436.834-.436 1.338 0 .183.022.363.063.534l-.003-.014c.062.313.139.58.231.84l-.013-.04.4.867c.477.905.89 1.957 1.183 3.06l.025.107c.166.745.262 1.6.262 2.477 0 .527-.035 1.047-.1 1.556l.006-.06c-.05.46-.147 1.155-.223 1.671l-.003.004zm-1-1.408c.072-.418.14-.906.157-1.188.011-.214.017-.464.017-.715 0-1.212-.143-2.389-.416-3.517l.021.103c-.405-1.654-1.315-3.447-2.436-3.73-.123-.041-.262-.065-.409-.065-.305 0-.585.105-.807.28l.002-.002c.037-.217.164-.398.341-.505l.004-.002c.21-.107.458-.17.721-.17.345 0 .665.109.927.293l-.005-.004c.447.304.799.717 1.021 1.202l.008.018.246.564.244.546c.568 1.171.968 2.534 1.123 3.969l.005.055c.037.375.056.812.056 1.254 0 .46-.022.916-.066 1.366l.005-.058-.052.5c-.267-.043-.503-.111-.728-.202l.023.008h-.002z"/>
        <path fill="#FFEB00" d="M21.782 20.925c.04.066.084.149.123.232l.006.017c.176-.164.329-.349.453-.554l.006-.011c.127-.239.239-.518.317-.809l.007-.029c.017-.067.034-.152.045-.239l.001-.01c.046-.317.111-.752.449-.794.009-.002.017-.002.027-.002.128 0 .239.067.301.166l.002.002.056.015c-.043-.164-.171-.289-.332-.329l-.003-.001c-.027-.008-.06-.012-.092-.012-.162 0-.3.096-.364.233l-.002.002c-.033.068-.058.146-.07.228v.004c-.084.415-.218.782-.396 1.123l.012-.023c-.147.303-.33.564-.547.788h.002v.003zm-.488-.599l.182.184c.523-.675.838-1.534.838-2.466 0-.061-.002-.123-.004-.183v.009c-.015-.239-.034-.475-.034-.713 0-.436.19-.807.443-.864.026-.01.055-.014.086-.014.1 0 .188.052.238.132v.002c.057.005.108.017.158.035l-.003-.002c-.06-.125-.18-.211-.323-.224h-.001c-.24-.032-.537.095-.713.523-.049.121-.076.261-.076.407l.001.06v-.002c0 .194 0 .389-.006.598 0 .226.005.453-.005.68-.017.326-.087.63-.201.912l.006-.019-.03.083c-.121.338-.311.629-.554.862h-.002zm-.552-.389l.214.125c.188-.37.335-.802.418-1.255l.005-.03c.071-.42.112-.906.112-1.4 0-.154-.003-.307-.012-.46l.001.022c-.021-.383-.061-.736-.12-1.084l.008.055c-.062-.266-.097-.574-.097-.887 0-.21.015-.415.046-.617l-.002.023c.047-.315.269-.569.563-.663l.006-.001c.035-.008.073-.013.115-.013.165 0 .312.075.411.193l.001.001.049.011c-.056-.16-.196-.276-.365-.298h-.002c-.054-.015-.116-.023-.178-.023-.162 0-.313.055-.431.149l.001-.001c-.26.239-.426.577-.439.955v.002c-.007.099-.012.215-.012.332 0 .306.031.606.091.894l-.005-.028c.065.432.101.932.101 1.44 0 .491-.035.975-.101 1.447l.006-.055-.016.104c-.049.399-.177.76-.371 1.076l.006-.011-.003-.003zm-.702-.25l.226.057c.187-.478.319-1.032.374-1.609l.002-.025c.014-.191.022-.415.022-.64 0-.387-.023-.769-.067-1.145l.004.046c-.02-.21-.045-.427-.077-.666-.048-.365-.13-.75-.212-1.123-.122-.476-.215-1.038-.257-1.615l-.003-.032c-.005-.054-.007-.116-.007-.179 0-.232.037-.457.106-.667l-.003.015c.1-.319.336-.57.636-.693l.007-.002c.05-.014.108-.022.166-.022.164 0 .313.058.43.155h.07c-.122-.16-.315-.263-.53-.263-.024 0-.048.001-.072.004h.003c-.372.03-.678.278-.794.615l-.003.006c-.115.355-.181.764-.181 1.187v.007l-.001.13c0 .283.022.562.066.833l-.004-.03c.07.485.167 1.025.264 1.483.133.507.21 1.091.215 1.694v.002c-.01.328-.028.63-.051.9-.048.579-.164 1.115-.343 1.621l.014-.045v.002zm-.872-.03c.08-.01.177-.018.276-.022h.004c.07-.41.17-1.01.218-1.483l.037-.446c.016-.232.026-.503.026-.776 0-.89-.099-1.756-.287-2.59l.015.079c-.102-.448-.255-.963-.402-1.462-.168-.565-.324-1.1-.411-1.528-.07-.209-.111-.45-.111-.7 0-.528.18-1.013.483-1.396l-.003.005c.138-.14.33-.225.542-.225.178 0 .341.06.471.162l-.001-.001h.074c-.133-.169-.338-.278-.568-.278-.09 0-.175.016-.255.046h.005c-.641.165-.945.883-.947 2.25.029.418.126.807.282 1.164l-.008-.022c.248.635.473 1.4.637 2.187l.016.096c.129.7.203 1.504.203 2.327 0 .385-.016.767-.048 1.145l.004-.049c-.066.594-.154 1.111-.269 1.619l.019-.098-.003-.004zm-1.008.352c.09-.055.196-.109.306-.157l.018-.006c.08-.517.18-1.241.231-1.717.06-.448.095-.964.095-1.489 0-.871-.095-1.721-.275-2.539l.014.078c-.318-1.204-.728-2.252-1.241-3.236l.04.085-.402-.873c-.082-.223-.159-.495-.216-.775l-.006-.039c-.04-.161-.063-.345-.063-.535 0-.521.17-1.002.459-1.391l-.005.006c.158-.22.385-.381.65-.451l.009-.001c.034-.005.073-.009.113-.009.173 0 .332.058.46.154l-.003-.002c-.143-.132-.334-.213-.544-.218h-.001c-.343.024-.642.19-.84.44l-.002.002c-.317.421-.507.953-.507 1.529 0 .36.074.701.209 1.012l-.006-.016c.193.636.406 1.173.655 1.688l-.03-.07c.572 1.179.975 2.549 1.13 3.992l.005.055c.036.378.057.817.057 1.26 0 .464-.022.921-.066 1.374l.005-.058c-.038.454-.142 1.19-.225 1.78l-.018.125-.006.002zM13.685 9.68c.214-.194.499-.313.811-.313.14 0 .275.024.402.068l-.01-.003c.943.238 1.9 1.713 2.38 3.672.25 1.02.392 2.191.392 3.396 0 .25-.006.499-.019.745l.002-.035c-.015.277-.082.75-.152 1.161l-.183-.09c.117-.653.184-1.407.184-2.175 0-1.074-.13-2.116-.377-3.114l.019.09c-.267-1.247-.875-2.323-1.723-3.157l-.001-.001c-.24-.263-.582-.426-.965-.426-.285 0-.549.09-.763.246l.004-.003v-.038l-.002-.024.001.001z"/>
        <path fill="#000" d="M11.365 14.719l.197-.19.116-.152c.066-.078.164-.13.274-.13h.01c.286-.014.425.282.573.277.146.055-.13.092-.152.102l-.255.17c-.057.03-.122.053-.19.064h-.004c-.086.016-.185.026-.286.026h-.033.001-.003c-.08 0-.154-.018-.22-.052l.003.001c-.081-.041-.087-.061-.031-.116z"/>
        <path fill="#FFEB00" d="M11.674 14.623c-.033-.15.106-.265.251-.292.161-.028.334.052.32.23-.009.107-.119.18-.259.194-.12.014-.279.007-.311-.138l-.001.005z"/>
        <path fill="#000" d="M13.037 13.94c.08-.226.162-.441.405-.526.022-.006.046-.009.07-.009.097 0 .182.049.232.123h.001c.039.056.068.12.084.19l.001.005c.016.07.025.15.025.234 0 .15-.029.29-.081.42l.002-.007-.012.029-.039-.021-.669-.393-.031-.016.012-.029z"/>
        <path fill="#FFEB00" d="M13.125 13.931l.595.349c.036-.089.056-.192.056-.3 0-.16-.045-.309-.122-.435l.002.004c-.037-.039-.091-.064-.15-.064-.04 0-.079.011-.11.031h.002c-.137.099-.234.244-.272.41l-.001.005z"/>
        <path fill="#000" d="M12.607 16.601l.04-.046c.12.034.254.054.396.054.233 0 .453-.054.65-.15l-.01.003c.38-.23.41-.68.476-1.077.026.091.042.195.042.303 0 .287-.11.55-.291.747l.001-.001c-.216.168-.492.271-.792.271-.184 0-.359-.039-.518-.107l.009.003h-.002zM10.311 16.145c-.03.059-.047.128-.047.201l.002.052v-.003c-.122-.061-.212-.175-.237-.31v-.003c.031.015.069.03.106.04h.004c.226.054.429-.214.647-.204-.072.042-.082.17-.075.252-.075-.02-.14-.054-.195-.099l.002.002c-.012.038-.02.082-.02.127 0 .024.002.046.006.069v-.003c-.08-.011-.149-.055-.194-.116v-.001l.001-.004zm.13.436c-.099-.031-.182-.09-.244-.166v-.001c-.007.028-.01.062-.01.097 0 .078.018.152.05.215v-.002c-.007-.061.046-.113.204-.143zM22.304 22.279c0 1.54-1.249 2.788-2.789 2.788s-2.789-1.248-2.789-2.788c0-1.54 1.249-2.789 2.789-2.789s2.789 1.249 2.789 2.789z"/>
        <path fill="#FFEB00" d="M22.199 22.279c0 1.482-1.202 2.683-2.684 2.683-1.483 0-2.684-1.2-2.684-2.683 0-1.483 1.201-2.684 2.684-2.684 1.482 0 2.684 1.201 2.684 2.684z"/>
        <path fill="#000" d="M21.591 22.279c0 1.147-.93 2.076-2.076 2.076s-2.076-.93-2.076-2.076c0-1.148.93-2.076 2.076-2.076s2.076.93 2.076 2.076z"/>
        <path fill="#FFF" d="M21.486 22.279c0 1.088-.882 1.971-1.971 1.971s-1.971-.883-1.971-1.971c0-1.089.882-1.971 1.971-1.971s1.971.882 1.971 1.97z"/>
        <path fill="#000" d="M21.308 22.279c0 .99-.803 1.792-1.793 1.792-.99 0-1.793-.802-1.793-1.792s.803-1.793 1.793-1.793c.99 0 1.793.803 1.793 1.793z"/>
        <path fill="#FFEB00" d="M21.229 22.279c0 .946-.768 1.713-1.714 1.713s-1.714-.767-1.714-1.713c0-.947.768-1.714 1.714-1.714s1.714.767 1.714 1.714z"/>
        <path fill="#000" d="M20.017 21.065c.105-.031.228-.05.353-.05.697 0 1.264.566 1.264 1.264 0 .697-.567 1.264-1.264 1.264-.126 0-.248-.02-.361-.053l.008.003c-.218.393-.632.655-1.107.655-.698 0-1.264-.567-1.264-1.264 0-.475.261-.888.649-1.104l.006-.004c-.045-.105-.071-.227-.071-.356 0-.513.416-.929.929-.929.385 0 .715.234.856.567l.002.006v.001z"/>
        <path fill="#FFF" d="M19.047 23.305l.395-.953-.943.39c-.155.064-.263.215-.263.39 0 .234.19.424.424.424.172 0 .32-.102.386-.25l.002-.002v.001zm1.494-1.494l-.952.395.389-.944c.064-.154.216-.262.39-.262.235 0 .425.19.425.424 0 .172-.103.32-.25.386l-.003.001h.001zm.032.074l-.953.394.944.389c.047.02.104.032.162.032.234 0 .424-.19.424-.424 0-.233-.19-.424-.424-.424-.055 0-.108.012-.156.03h.003v.003zm-2.114 0l.952.394-.944.389c-.047.02-.103.032-.162.032-.234 0-.424-.19-.424-.424 0-.233.19-.424.424-.424.055 0 .109.012.156.03h-.002v.003zm2.082.862l-.952-.395.389.944c.064.155.216.263.39.263.235 0 .425-.19.425-.424 0-.173-.103-.32-.25-.386l-.003-.002h.001zm-1.495-1.494l.395.952-.944-.389c-.154-.065-.262-.216-.262-.391 0-.234.19-.424.424-.424.172 0 .32.103.386.25l.001.003v-.002zm.863 2.082l-.394-.953-.389.944c-.02.048-.032.104-.032.163 0 .233.19.424.423.424.234 0 .424-.19.424-.424 0-.055-.01-.109-.03-.157l.002.003h-.004zm0-2.113l-.394.953-.389-.944c-.02-.047-.032-.104-.032-.162 0-.234.19-.424.423-.424.234 0 .424.19.424.424 0 .055-.01.108-.03.156l.002-.003h-.004z"/>
        <path fill="#000" d="M19.914 22.279c0 .22-.179.4-.4.4-.221 0-.4-.179-.4-.4 0-.22.178-.4.4-.4.221 0 .4.178.4.4z"/>
        <path fill="#FFF" d="M19.81 22.156c.068.164-.01.35-.172.418-.163.067-.35-.01-.418-.173-.067-.163.01-.35.172-.417.163-.068.35.01.418.172z"/>
    </g>
</svg>
