<svg xmlns="http://www.w3.org/2000/svg" width="64" height="64" viewBox="0 0 64 64">
    <g fill="none">
        <path fill="#242424" d="M34.512 29.333c.212-1.124.206-2.278-.016-3.4l3.053-7.368v-.015c.495-1.355 1.22-2.614 2.144-3.721.23-.243.322-.585.246-.91l-1.252-5.407c-.015-.057-.038-.11-.067-.161-.005-.01-.007-.022-.013-.032-.005-.009-.028-.032-.042-.049-.027-.04-.058-.077-.094-.11-.023-.016-.047-.031-.072-.044-.033-.024-.067-.045-.104-.063-.05-.019-.102-.031-.156-.038-.015 0-.028-.01-.044-.011-.127-.009-.255.02-.367.082-.01.005-.022.007-.032.013h-.007l-4.707 2.938c-.285.177-.462.485-.47.82-.131 1.44-.51 2.846-1.121 4.156v.007l-1.526 3.689c-.75-.398-1.551-.688-2.382-.86.315-2.17.43-4.365.346-6.556 1.24-1.489 1.836-3.411 1.654-5.341-.416-3.885-3.928-6.691-4.078-6.81-.225-.177-.539-.19-.779-.032-.24.157-.351.45-.277.728.343 1.29.046 2.65-2.49 5.448-1.14 1.1-1.5 2.78-.914 4.251.224.563.545 1.082.949 1.534-.161 1.03-.288 2.005-.375 2.955-.15 1.571-.19 3.151-.116 4.728-.595.322-1.152.71-1.66 1.157L16.509 7.084c0-.014-.013-.024-.017-.037-.01-.044-.026-.087-.047-.128l-3.302-6.1c-.33-.61-1.03-.924-1.705-.766-.676.159-1.162.75-1.187 1.444L10 8.427c0 .05.006.1.017.148v.03l3.298 14.078c-.52.023-1.037.1-1.541.23L8.145 14.15c-.29-.67-1.062-.986-1.74-.713L.86 15.733c-.678.284-1.001 1.062-.722 1.742L5.06 29.347c-2.885.152-5.124 2.573-5.05 5.46.075 2.888 2.436 5.19 5.324 5.193h29.334c1.905-.028 3.651-1.07 4.58-2.734.929-1.664.9-3.697-.078-5.333-.976-1.636-2.752-2.627-4.657-2.6zm-.68-17.256l2.795-1.744-.989 2.39c-.141.34.02.73.36.871.34.141.731-.02.872-.36l.99-2.39.74 3.209c-.792.966-1.443 2.041-1.933 3.191-.695.322-1.494.339-2.201.046-.708-.293-1.262-.868-1.526-1.587.468-1.16.769-2.381.893-3.626zM32.3 17.311c.441.54 1.014.956 1.662 1.21.516.222 1.07.339 1.632.344.135 0 .27-.008.404-.024l-2.128 5.133c-.637-1.404-1.622-2.623-2.862-3.54l1.292-3.123zm-9.133-4.761l3.35.205c.02.622.013 1.266-.008 1.92-1.116.08-2.237.026-3.34-.161l-.25-.033c.067-.628.149-1.264.247-1.931h.001zm-.318-5.369c1.77-1.952 2.687-3.454 2.9-4.866 1.273 1.309 2.113 2.977 2.407 4.778.14 1.569-.345 3.129-1.35 4.342l-3.907-.24c-.553-.518-.872-1.239-.881-1.996-.01-.758.29-1.486.83-2.018h.001zm-.05 8.629l.193.025c.859.133 1.726.207 2.595.221.276 0 .567-.022.858-.045-.06.858-.16 1.754-.286 2.68-.165-.008-.326-.024-.491-.024-1.007.001-2.006.173-2.955.508-.03-1.122-.003-2.245.084-3.365h.001zm-5.157 7.796l-1.908-8.125c-.089-.352-.444-.568-.798-.485-.354.083-.576.434-.5.79l1.714 7.312c-.47-.169-.958-.29-1.453-.362L11.77 10.249c.41.187.855.284 1.305.284.042 0 .087-.006.13-.008l.471 2.013c.05.236.225.425.455.496.23.072.481.013.656-.153.175-.166.246-.413.187-.647l-.472-2.014c.452-.2.851-.504 1.165-.887l2.974 12.72c-.386.482-.721 1.002-1 1.553zM13.567 9.139c-.852.166-1.723-.183-2.226-.891l.085-2.348c.232.043.467.066.703.067.228 0 .456-.025.678-.076.45-.118.87-.327 1.236-.614l1.122 2.072c-.133.86-.759 1.56-1.598 1.792v-.002zm-1.826-7.788c.091-.02.185.021.23.103L13.4 4.097c-.258.234-.566.405-.9.5-.342.063-.693.046-1.027-.048l.108-3.004c.004-.093.07-.173.16-.194zM6.917 14.667l.509 1.23-2.467 1.022c-.292.122-.458.434-.395.745.062.311.335.535.652.536.088 0 .174-.017.255-.05l2.467-1.023.51 1.232-1.234.512c-.294.121-.461.434-.399.746s.337.537.655.536c.087 0 .174-.017.255-.05l1.234-.512.51 1.232L7 21.847c-.294.121-.461.434-.399.746s.337.537.655.536c.087 0 .174-.017.255-.05l2.466-1.022.54 1.302c-2.173.992-3.766 2.93-4.317 5.254l-4.832-11.65 5.549-2.296z" transform="translate(12 12)"/>
        <path fill="#FFCE8E" d="M34.667 38.667H5.333c-2.209 0-4-1.791-4-4 0-2.21 1.791-4 4-4 .387-.002.771.054 1.141.165.2.06.417.024.585-.1.17-.122.27-.317.274-.526.048-2.376 1.421-4.525 3.557-5.567 2.137-1.04 4.676-.799 6.577.628.168.125.385.164.585.105.201-.06.363-.21.437-.405 1.302-3.472 4.902-5.513 8.55-4.85 3.647.664 6.298 3.842 6.294 7.55.002.762-.112 1.52-.336 2.249-.07.227-.015.474.146.648.16.175.402.25.634.2.292-.064.59-.097.89-.097 2.209 0 4 1.79 4 4 0 2.209-1.791 4-4 4z" transform="translate(12 12)"/>
        <path fill="#242424" d="M25.79 10.467c.21 0 .407-.097.533-.264.833-1.126 1.154-2.55.887-3.925-.057-.235-.237-.42-.47-.486-.233-.064-.482.002-.652.174-.17.172-.234.423-.166.655.16.977-.079 1.977-.661 2.778-.152.202-.176.472-.063.698.113.226.343.368.596.368l-.004.002zM24.913 30.667c-.495.001-.984.115-1.43.333-1.199-1.641-3.438-2.122-5.205-1.118-1.768 1.005-2.5 3.174-1.705 5.045.105.245.346.405.614.405.09 0 .178-.018.261-.053.163-.07.291-.2.357-.365.066-.164.064-.347-.005-.51-.145-.338-.22-.703-.22-1.07 0-1.473 1.194-2.667 2.667-2.667 1.034-.005 1.976.594 2.41 1.533.014.022.03.043.046.063.01.023.023.045.036.066.012.015.029.022.042.036.032.032.066.061.104.086.033.026.069.048.106.067.04.016.08.029.12.037.041.011.083.018.126.02.086-.001.172-.015.254-.043.018-.003.036-.008.053-.013.022-.014.042-.029.062-.046.024-.01.047-.022.07-.036.35-.283.787-.437 1.237-.437.78.001 1.488.455 1.814 1.163.152.335.548.483.883.33.335-.152.483-.548.33-.883-.543-1.183-1.725-1.942-3.027-1.943zM11.79 26.034c-.101.033-2.457.847-2.457 3.3 0 .368.299.666.667.666.368 0 .667-.298.667-.667.054-.93.666-1.734 1.548-2.035.35-.117.538-.496.42-.846-.117-.35-.496-.538-.846-.42v.002zM21.171 25.313c.053.014.108.02.162.02.306 0 .572-.208.646-.504.307-1.245 1.41-2.13 2.691-2.162.368-.001.666-.3.665-.669 0-.368-.3-.666-.668-.665-1.895.025-3.533 1.33-3.98 3.172-.09.357.127.719.484.808z" transform="translate(12 12)"/>
    </g>
</svg>
