<svg xmlns="http://www.w3.org/2000/svg" width="64" height="64" viewBox="0 0 64 64">
    <g fill="none">
        <path fill="#242424" d="M36.536 26.411c.836-.335 1.433-1.191 1.433-2.192v-6.25c0-1.293-.993-2.344-2.214-2.344H32.11v-5.442c0-.416-.161-.793-.423-1.076.55-.65.955-1.757.213-3.532-.52-1.244-1.425-2.389-1.919-2.96-.148-.172-.364-.271-.591-.271-.227 0-.443.099-.592.27-2.344 2.717-2.945 5.001-1.717 6.475-.272.285-.44.67-.44 1.093v5.443h-3.906V7.839c0-.415-.161-.793-.423-1.076.55-.65.955-1.757.213-3.532-.52-1.244-1.425-2.389-1.919-2.96C20.457.099 20.241 0 20.014 0c-.227 0-.443.099-.591.27-2.345 2.716-2.946 5.001-1.718 6.475-.271.285-.44.67-.44 1.094v7.786H13.36v-5.443c0-.415-.16-.792-.423-1.075.55-.65.955-1.757.213-3.532-.52-1.244-1.425-2.39-1.919-2.96-.148-.173-.364-.271-.591-.271-.227 0-.443.099-.591.27C7.703 5.33 7.102 7.615 8.33 9.09c-.271.285-.44.67-.44 1.093v5.443H4.246c-1.22 0-2.214 1.051-2.214 2.344v6.25c0 1 .596 1.857 1.432 2.192v7.183c0 .274.046.537.127.781h-.546c-.431 0-.781.35-.781.781 0 .432.35.782.781.782h33.912c.431 0 .781-.35.781-.782 0-.431-.35-.781-.781-.781h-.546c.081-.244.126-.507.126-.781V26.41zm-7.15-22.037c.94 1.276 1.844 3.01 1.032 3.805-.274.267-.639.415-1.028.415h-.01c-.393-.002-.753-.148-1.014-.41-.9-.9.183-2.697 1.02-3.81zm-1.183 5.809c0-.013.014-.027.026-.027h2.292c.012 0 .026.014.026.027v5.442h-2.344v-5.442zM20.01 2.03c.94 1.276 1.845 3.01 1.033 3.805-.274.267-.639.415-1.028.415h-.01c-.393-.002-.753-.148-1.014-.41-.9-.9.183-2.697 1.02-3.81zm1.162 5.809v7.786h-2.344V7.839c0-.013.014-.027.026-.027H21.145c.013 0 .027.014.027.027zM10.635 4.374c.94 1.276 1.845 3.01 1.033 3.805-.274.267-.64.415-1.028.415h-.01c-.393-.003-.753-.148-1.014-.41-.9-.9.183-2.697 1.02-3.81zm-1.182 5.809c0-.013.013-.027.026-.027H11.77c.013 0 .027.014.027.027v5.442H9.453v-5.442zm25.52 16.875H32.55c-.431 0-.781.35-.781.781 0 .432.35.781.781.781h2.425v4.974c0 .423-.298.78-.65.781H5.675c-.352 0-.65-.358-.65-.781v-.599H7.45c.431 0 .78-.35.78-.78 0-.432-.349-.782-.78-.782H5.026V26.41c.836-.335 1.432-1.19 1.432-2.192v-2.325c0-.518.371-.955.81-.955.44 0 .81.437.81.955V25.1c0 1.389 1.065 2.518 2.373 2.518 1.309 0 2.373-1.13 2.373-2.518v-3.207c0-.518.371-.955.81-.955.44 0 .81.437.81.955v.2c0 1.388 1.065 2.517 2.373 2.517 1.308 0 2.373-1.13 2.373-2.517v-.2c0-.518.37-.955.81-.955.44 0 .81.437.81.955v1.645c0 1.388 1.064 2.517 2.373 2.517 1.308 0 2.372-1.129 2.372-2.517v-1.645c0-.518.371-.955.81-.955.44 0 .81.437.81.955v.2c0 1.388 1.065 2.517 2.373 2.517 1.309 0 2.373-1.13 2.373-2.517v-.2c0-.518.371-.955.81-.955.44 0 .81.437.81.955v2.325c0 1.001.597 1.857 1.433 2.192v.647z" transform="translate(12 14)"/>
        <path fill="#FFCE8E" d="M36.406 24.219c0 .423-.298.781-.65.781-.354 0-.652-.358-.652-.781v-2.325c0-1.388-1.064-2.518-2.373-2.518-1.308 0-2.372 1.13-2.372 2.518v.2c0 .517-.371.954-.81.954-.44 0-.81-.437-.81-.954v-.2c0-1.388-1.065-2.518-2.373-2.518-1.309 0-2.373 1.13-2.373 2.518v1.645c0 .517-.371.955-.81.955-.44 0-.81-.438-.81-.955v-1.645c0-1.388-1.065-2.518-2.373-2.518-1.308 0-2.373 1.13-2.373 2.518v.2c0 .517-.37.954-.81.954-.439 0-.81-.437-.81-.954v-.2c0-1.388-1.064-2.518-2.373-2.518-1.308 0-2.372 1.13-2.372 2.518V25.1c0 .518-.371.955-.81.955-.44 0-.81-.437-.81-.955v-3.207c0-1.388-1.065-2.518-2.373-2.518-1.309 0-2.373 1.13-2.373 2.518v2.325c0 .423-.298.781-.651.781-.353 0-.651-.358-.651-.781v-6.25c0-.424.298-.782.65-.782h31.511c.353 0 .651.358.651.782v6.25z" transform="translate(12 14)"/>
        <path fill="#242424" d="M39.219 34.375H39.2c-.431 0-.78.35-.78.781 0 .432.349.782.78.782h.019c.431 0 .78-.35.78-.782 0-.431-.349-.781-.78-.781zM.8 34.375H.78c-.431 0-.781.35-.781.781 0 .432.35.782.781.782H.8c.431 0 .78-.35.78-.782 0-.431-.349-.781-.78-.781zM9.714 31.433h-.019c-.431 0-.781.35-.781.781 0 .432.35.781.781.781h.019c.431 0 .78-.35.78-.78 0-.432-.349-.782-.78-.782zM30.305 27.058h-.019c-.431 0-.781.35-.781.781 0 .432.35.782.781.782h.019c.431 0 .78-.35.78-.782 0-.431-.349-.781-.78-.781zM19.907 26.668h-1.485c-.431 0-.781.35-.781.78 0 .432.35.782.781.782h1.485c.431 0 .78-.35.78-.781 0-.432-.349-.781-.78-.781zM14.282 28.894h-1.016c-.431 0-.781.35-.781.782 0 .431.35.781.78.781h1.017c.431 0 .78-.35.78-.781 0-.432-.349-.782-.78-.782zM31.703 31.433h-1.796c-.432 0-.782.35-.782.781 0 .432.35.781.782.781h1.796c.432 0 .782-.35.782-.78 0-.432-.35-.782-.782-.782zM26.04 28.152h-1.016c-.432 0-.782.35-.782.782 0 .431.35.78.782.78h1.015c.432 0 .782-.349.782-.78 0-.432-.35-.782-.782-.782zM21.664 31.433H20.65c-.432 0-.782.35-.782.781 0 .432.35.781.782.781h1.015c.432 0 .782-.35.782-.78 0-.432-.35-.782-.782-.782z" transform="translate(12 14)"/>
    </g>
</svg>
