<svg xmlns="http://www.w3.org/2000/svg" width="40" height="40" viewBox="0 0 40 40">
    <g fill="none">
        <rect width="40" height="40" fill="#4267B2" rx="4"/>
        <path fill="#FFF" d="M29.429 8H10.57C9.151 8 8 9.151 8 10.571V29.43C8 30.849 9.151 32 10.571 32h7.353v-8.16H14.55V20h3.375v-2.927c0-3.33 1.982-5.169 5.018-5.169 1.454 0 2.974.26 2.974.26v3.267h-1.675c-1.65 0-2.165 1.025-2.165 2.075V20h3.685l-.59 3.84h-3.095V32h7.353C30.849 32 32 30.849 32 29.429V10.57C32 9.151 30.849 8 29.429 8z"/>
    </g>
</svg>
