<svg xmlns="http://www.w3.org/2000/svg" width="40" height="40" viewBox="0 0 40 40">
    <defs>
        <radialGradient id="prefix__a" cx="26.209%" cy="107.193%" r="99.008%" fx="26.209%" fy="107.193%">
            <stop offset="0%" stop-color="#FD5"/>
            <stop offset="10%" stop-color="#FD5"/>
            <stop offset="50%" stop-color="#FF543E"/>
            <stop offset="100%" stop-color="#C837AB"/>
        </radialGradient>
    </defs>
    <g fill="none">
        <rect width="40" height="40" fill="url(#prefix__a)" rx="4"/>
        <path fill="#FFF" d="M20.003 13.847c-3.406 0-6.152 2.747-6.152 6.153 0 3.406 2.746 6.153 6.152 6.153 3.405 0 6.152-2.747 6.152-6.153 0-3.406-2.747-6.153-6.152-6.153zm0 10.153c-2.2 0-4-1.794-4-4s1.794-4 4-4 4 1.794 4 4-1.8 4-4 4zm7.838-10.405c0 .798-.642 1.435-1.435 1.435-.798 0-1.435-.642-1.435-1.435s.643-1.435 1.435-1.435c.793 0 1.435.642 1.435 1.435zm4.075 1.457c-.091-1.923-.53-3.626-1.939-5.029-1.402-1.403-3.105-1.842-5.027-1.939-1.981-.112-7.919-.112-9.9 0-1.917.091-3.62.53-5.027 1.934-1.409 1.403-1.842 3.106-1.939 5.028-.112 1.982-.112 7.92 0 9.902.091 1.923.53 3.626 1.939 5.029 1.408 1.403 3.105 1.842 5.027 1.939 1.981.112 7.919.112 9.9 0 1.922-.091 3.625-.53 5.027-1.939 1.403-1.403 1.842-3.106 1.939-5.029.112-1.981.112-7.915 0-9.896zm-2.56 12.022c-.417 1.05-1.226 1.859-2.28 2.282-1.58.626-5.328.482-7.073.482-1.746 0-5.499.139-7.073-.482-1.05-.418-1.858-1.227-2.281-2.282-.626-1.58-.482-5.328-.482-7.074 0-1.746-.14-5.5.482-7.074.418-1.05 1.226-1.859 2.28-2.282 1.58-.626 5.328-.482 7.074-.482 1.745 0 5.498-.139 7.073.482 1.049.418 1.857 1.227 2.28 2.282.627 1.58.482 5.328.482 7.074 0 1.746.145 5.5-.482 7.074z"/>
    </g>
</svg>
