<svg xmlns="http://www.w3.org/2000/svg" width="24" height="24" viewBox="0 0 24 24">
    <path fill="#000" fill-opacity=".32" d="M9.868 7.773c0-1.184.959-2.143 2.132-2.143s2.132.96 2.132 2.143c0 1.179-.959 2.132-2.132 2.132s-2.132-.959-2.132-2.132zM24 2.571V21.43C24 22.849 22.848 24 21.429 24H2.57C1.151 24 0 22.848 0 21.429V2.57C0 1.151 1.152 0 2.571 0H21.43C22.849 0 24 1.152 24 2.571zM7.655 7.773c0 2.39 1.95 4.334 4.345 4.334 2.395 0 4.345-1.94 4.345-4.334 0-2.4-1.95-4.344-4.345-4.344-2.395 0-4.345 1.939-4.345 4.344zm9.349 4.86c-.247-.488-.927-.9-1.827-.194 0 0-1.216.965-3.177.965-1.96 0-3.177-.965-3.177-.965-.9-.707-1.58-.294-1.827.193-.423.863.06 1.27 1.147 1.982.927.595 2.207.815 3.032.9l-.691.691c-.975.965-1.902 1.902-2.555 2.556-.943.943.573 2.453 1.521 1.532l2.555-2.566c.975.975 1.913 1.912 2.556 2.566.943.921 2.464-.573 1.532-1.532l-2.556-2.556-.696-.69c.83-.086 2.095-.317 3.01-.9 1.094-.713 1.57-1.126 1.153-1.983z"/>
</svg>
