<svg xmlns="http://www.w3.org/2000/svg" width="20" height="20" viewBox="0 0 20 20">
    <path fill="#FFF" d="M10 2.111c3.268 0 5.91 2.69 5.91 6 0 .184-.01.37-.026.558-.162 1.833-1.1 3.862-2.685 5.98-.572.764-1.204 1.506-1.871 2.205-.203.212-.375.385-.542.541l-.124.114-.693.624-.67-.647c-.196-.189-.403-.398-.618-.623-.668-.7-1.302-1.444-1.875-2.21-1.58-2.11-2.518-4.132-2.688-5.958-.018-.197-.027-.392-.027-.584 0-3.31 2.641-6 5.909-6zm0 3.519c-1.36 0-2.455 1.115-2.455 2.481 0 1.367 1.095 2.482 2.455 2.482s2.455-1.115 2.455-2.482c0-1.366-1.095-2.481-2.455-2.481z"/>
</svg>
