<svg xmlns="http://www.w3.org/2000/svg" width="40" height="40" viewBox="0 0 40 40">
    <g fill="none">
        <rect width="40" height="40" fill="#00A2F5" rx="4"/>
        <path fill="#FFF" d="M29.429 8H10.57C9.151 8 8 9.152 8 10.571V29.43C8 30.849 9.152 32 10.571 32H29.43C30.849 32 32 30.848 32 29.429V10.57C32 9.151 30.848 8 29.429 8zm-2.62 8.507c.01.15.01.306.01.456 0 4.644-3.535 9.996-9.996 9.996-1.993 0-3.84-.579-5.394-1.575.283.032.557.043.846.043 1.645 0 3.155-.557 4.36-1.5-1.542-.032-2.839-1.045-3.283-2.438.54.08 1.028.08 1.585-.064-1.607-.327-2.812-1.741-2.812-3.45v-.043c.466.263 1.013.423 1.586.445-.98-.651-1.566-1.75-1.565-2.925 0-.654.172-1.254.477-1.773 1.73 2.132 4.329 3.525 7.243 3.675-.498-2.384 1.286-4.318 3.429-4.318 1.012 0 1.923.423 2.566 1.109.793-.15 1.553-.445 2.228-.847-.262.814-.814 1.5-1.543 1.934.708-.075 1.393-.273 2.025-.546-.476.701-1.076 1.323-1.762 1.821z"/>
    </g>
</svg>
