<svg xmlns="http://www.w3.org/2000/svg" width="64" height="64" viewBox="0 0 64 64">
    <g fill="none">
        <path fill="#000" d="M26.484 15.625c.432 0 .782-.35.782-.781 0-.431-.35-.781-.782-.781-.43 0-.78.35-.78.78 0 .432.35.782.78.782zM5.703 4.688c.431 0 .781-.35.781-.782 0-.431-.35-.781-.78-.781-.432 0-.782.35-.782.781 0 .431.35.781.781.781z" transform="translate(12 13)"/>
        <path fill="#242424" d="M9.23 25.464l1.184.508c.978.419 2.1.419 3.078 0l1.184-.508c.528-.227 1.045-.485 1.547-.77.694 5.082 4.155 9.588 9.101 11.707l1.184.508c.978.419 2.1.42 3.078 0l1.183-.507C36.272 34.044 40 28.656 40 22.758v-9.477c0-1.292-1.051-2.344-2.344-2.344h-13.75V2.345C23.906 1.05 22.855 0 21.563 0H2.343C1.052 0 0 1.051 0 2.344v9.477c0 5.905 3.736 11.288 9.23 13.643zM38.437 13.28v9.477c0 5.179-3.328 10.084-8.283 12.208l-1.183.507c-.587.251-1.26.251-1.847 0l-1.184-.507c-4.681-2.006-7.88-6.38-8.247-11.22 1.11-.81 2.09-1.747 2.927-2.781.702.587 1.587.91 2.505.91.952 0 1.87-.347 2.584-.977.324-.285.355-.779.07-1.102-.286-.324-.78-.355-1.104-.07-.428.378-.978.587-1.55.587-.572 0-1.122-.208-1.55-.586l-.036-.029c1.401-2.154 2.225-4.63 2.35-7.198h13.767c.431 0 .782.35.782.781z" transform="translate(12 13)"/>
        <path fill="#FFCE8E" d="M1.563 2.344c0-.431.35-.781.78-.781h19.22c.43 0 .78.35.78.78v9.478c0 5.335-3.399 10.114-8.283 12.207l-1.183.508c-.587.251-1.26.251-1.847 0l-1.184-.508c-4.955-2.123-8.284-7.029-8.284-12.207V2.344z" transform="translate(12 13)"/>
        <path fill="#242424" d="M16.64 14.063H7.267c-.432 0-.782.35-.782.78 0 3.016 2.454 5.47 5.47 5.47 3.015 0 5.468-2.454 5.468-5.47 0-.43-.35-.78-.781-.78zm-4.687 4.687c-1.886 0-3.465-1.345-3.828-3.126h7.656c-.363 1.78-1.942 3.126-3.828 3.126zM7.266 9.375c.571 0 1.122.208 1.55.586.324.286.818.254 1.103-.069.285-.324.254-.817-.07-1.103-.713-.63-1.63-.976-2.583-.976-.953 0-1.87.346-2.584.976-.324.286-.355.78-.07 1.103.286.323.78.354 1.103.069.428-.378.979-.586 1.55-.586zM14.057 8.79c-.324.285-.355.778-.07 1.102.286.323.78.354 1.103.069.428-.378.979-.586 1.55-.586.572 0 1.123.208 1.55.586.325.286.82.254 1.104-.069.285-.324.254-.817-.07-1.103-.713-.63-1.63-.976-2.583-.976-.953 0-1.87.346-2.584.976zM8.828 4.688h9.375c.432 0 .781-.35.781-.782 0-.431-.35-.781-.78-.781H8.827c-.431 0-.781.35-.781.781 0 .432.35.781.781.781zM22.578 30.469c0 .431.35.781.781.781h9.375c.432 0 .782-.35.782-.781 0-3.016-2.454-5.469-5.47-5.469-3.015 0-5.468 2.453-5.468 5.469zm5.469-3.907c1.886 0 3.465 1.345 3.828 3.125h-7.656c.363-1.78 1.942-3.125 3.828-3.125zM34.285 19.727c-.428.377-.979.585-1.55.585-.572 0-1.123-.208-1.55-.585-.324-.286-.818-.255-1.104.069-.285.323-.254.817.07 1.102.713.63 1.63.977 2.583.977.953 0 1.87-.347 2.584-.977.324-.285.355-.779.07-1.102-.286-.324-.78-.355-1.103-.07zM29.61 15.625h4.687c.431 0 .781-.35.781-.781 0-.432-.35-.781-.781-.781h-4.688c-.431 0-.78.35-.78.78 0 .432.349.782.78.782z" transform="translate(12 13)"/>
    </g>
</svg>
