<svg xmlns="http://www.w3.org/2000/svg" width="40" height="40" viewBox="0 0 40 40">
    <g fill="none">
        <rect width="40" height="40" fill="#0082C6" rx="4"/>
        <path fill="#FFF" d="M31.453 13.95c.165-.547 0-.95-.793-.95h-2.624c-.669 0-.976.346-1.14.73 0 0-1.337 3.199-3.226 5.273-.61.599-.892.791-1.226.791-.165 0-.419-.192-.419-.739v-5.106c0-.656-.187-.949-.74-.949H17.16c-.419 0-.668.306-.668.59 0 .622.944.766 1.042 2.516v3.798c0 .831-.151.984-.485.984-.891 0-3.057-3.211-4.34-6.886-.258-.713-.512-1.002-1.185-1.002H8.9c-.749 0-.9.346-.9.73 0 .683.891 4.074 4.148 8.554C14.318 25.342 17.374 27 20.154 27c1.671 0 1.876-.367 1.876-1.002 0-2.922-.152-3.198.686-3.198.388 0 1.056.192 2.615 1.667C27.114 26.217 27.408 27 28.406 27h2.624c.748 0 1.127-.367.909-1.094-.5-1.527-3.872-4.668-4.024-4.878-.387-.49-.276-.709 0-1.146.005-.005 3.208-4.432 3.538-5.933z"/>
    </g>
</svg>
