<svg xmlns="http://www.w3.org/2000/svg" width="64" height="64" viewBox="0 0 64 64">
    <g fill="none">
        <path fill="#242424" d="M11.1 14.8c1.224 0 2.22-.996 2.22-2.22h-1.48c0 .408-.332.74-.74.74s-.74-.332-.74-.74H8.88c0 1.224.996 2.22 2.22 2.22zM25.9 18.5c-.408 0-.74-.332-.74-.74h-1.48c0 1.224.996 2.22 2.22 2.22 1.224 0 2.22-.996 2.22-2.22h-1.48c0 .408-.332.74-.74.74z" transform="translate(14 9)"/>
        <path fill="#242424" d="M34.04 25.097V14.06c0-4.488-3.652-8.14-8.14-8.14-3.09 0-5.783 1.732-7.162 4.274-.039-.059-.09-.109-.133-.164l.284-1.131c.233-.934.351-1.896.351-2.86 0-1.592-.94-3.015-2.377-3.647C16.28.952 14.881 0 13.31 0c-.592 0-1.185.14-1.714.405L11.1.653l-.496-.248C10.074.14 9.482 0 8.89 0 7.32 0 5.92.95 5.337 2.392 3.9 3.024 2.96 4.447 2.96 6.04c0 .963.118 1.925.352 2.859l.284 1.131c-.393.502-.636 1.126-.636 1.81 0 1.632 1.328 2.96 2.96 2.96h.507c.364.764.908 1.422 1.58 1.925l-.472 1.882-2.182.436C2.252 19.663 0 22.41 0 25.573v8.467c0 1.31.574 2.486 1.48 3.3v8.54h34.04v-4.1c.906-.813 1.48-1.989 1.48-3.3v-8.257c0-2.166-1.17-4.093-2.96-5.126zm1.48 5.126V33.3h-2.96v-2.96h-1.48V37h-8.54c.706-.787 1.14-1.822 1.14-2.96v-1.643l-2.29.458c-.819.164-1.558.558-2.15 1.11v-5.287l2.886-.825c.161-.046.316-.106.465-.176.93.755 2.098 1.183 3.309 1.183 2.125 0 4.017-1.296 4.828-3.214l1.146.209c2.113.384 3.646 2.22 3.646 4.368zm-20.716 1.02l.515.103c.834.168 1.546.689 1.969 1.403-.316-.116-.653-.189-1.008-.189h-1.078c-.234-.402-.372-.848-.398-1.316zM16.28 12.58v-2.22c.816 0 1.48.664 1.48 1.48s-.664 1.48-1.48 1.48h-.06c.036-.243.06-.488.06-.74zm-.507 2.22h.507c.542 0 1.043-.157 1.48-.411v4.91c-.297-.106-.602-.194-.913-.256l-2.182-.436-.471-1.882c.67-.503 1.215-1.161 1.58-1.925zM25.9 21.46c-2.04 0-3.7-1.66-3.7-3.7v-2.39c0-1.314.882-2.484 2.146-2.845l.91-.26c.269 1.083 1.08 1.97 2.183 2.319l2.161.684v2.492c0 2.04-1.66 3.7-3.7 3.7zm0 1.48c.363 0 .718-.038 1.06-.11l.094.38c.268 1.069 1.113 1.892 2.175 2.151-.643 1.215-1.912 2.019-3.329 2.019-.764 0-1.503-.237-2.125-.66.407-.537.645-1.203.645-1.907 0-.34-.055-.677-.163-1L23.82 22.5c.638.282 1.34.44 2.08.44zM19.263 37l.126-.51c.277-1.103 1.176-1.96 2.292-2.184l.515-.103c-.085 1.55-1.366 2.785-2.933 2.797zm-4.75-16.915l2.043.409c.332.066.65.174.961.302l-1.147 1.53c-.037.049-.063.103-.097.153l-2.59-1.295c.338-.31.62-.678.83-1.099zM16.28 34.04c.816 0 1.48.664 1.48 1.48S17.096 37 16.28 37H14.8v-2.96h1.48zM25.9 7.4c3.673 0 6.66 2.988 6.66 6.66v10.435c-.14-.036-.278-.07-.421-.096l-2.478-.451c-.57-.104-1.03-.535-1.171-1.098l-.133-.532c1.62-.876 2.723-2.59 2.723-4.558v-3.575l-3.193-1.012c-.746-.236-1.247-.92-1.247-1.767 0-.477.186-.925.523-1.263l-1.046-1.047c-.449.449-.751 1.005-.882 1.635l-1.295.37c-1.896.542-3.22 2.298-3.22 4.27v2.389c0 1.532.673 2.907 1.733 3.856l-1.727.864c-.034-.05-.06-.105-.096-.153l-1.39-1.853V14.06c0-3.672 2.987-6.66 6.66-6.66zM5.92 13.32c-.816 0-1.48-.664-1.48-1.48s.664-1.48 1.48-1.48v2.22c0 .252.024.497.06.74h-.06zm.064-4.44H5.92c-.366 0-.714.075-1.038.198l-.135-.538c-.203-.817-.307-1.658-.307-2.5 0-1.08.689-2.037 1.714-2.378l.352-.117.15-.455c.322-.963 1.22-1.61 2.234-1.61.363 0 .727.086 1.053.249l1.157.578 1.157-.578c.326-.163.69-.249 1.053-.249 1.015 0 1.912.647 2.233 1.608l.15.457.353.117c1.025.341 1.714 1.297 1.714 2.378 0 .842-.104 1.683-.307 2.5l-.135.538c-.324-.123-.672-.198-1.038-.198h-.649l-3.956-.989c-.774-.194-1.315-.886-1.315-1.685 0-.464.18-.9.51-1.228l.014-.015-1.061-1.032c-.413.412-.699.917-.84 1.467-1.569.51-2.724 1.864-2.999 3.482zm1.416 3.7V9.62c0-1.118.63-2.119 1.58-2.62.285 1.127 1.167 2.035 2.337 2.327l3.483.87v2.383c0 2.04-1.66 3.7-3.7 3.7s-3.7-1.66-3.7-3.7zm3.7 5.18c.615 0 1.203-.113 1.75-.31l.437 1.748c-.341.912-1.207 1.522-2.187 1.522-.98 0-1.845-.61-2.187-1.523l.437-1.747c.548.197 1.135.31 1.75.31zm-9.62 7.814c0-2.462 1.75-4.597 4.164-5.08l2.043-.408c.64 1.282 1.949 2.114 3.413 2.114.942 0 1.815-.352 2.493-.938l-.85 2.551c-.108.323-.163.66-.163 1 0 1.404.943 2.654 2.294 3.04l2.886.825v2.327c-.592-.553-1.331-.946-2.15-1.11l-2.29-.458v1.643c0 .513.091 1.01.258 1.48H5.92v-7.4H4.44v7.834l-1.263 1.263 1.046 1.046 1.263-1.263h7.834V37H4.44c-1.632 0-2.96-1.328-2.96-2.96v-8.466zM2.96 38.22c.464.165.96.259 1.48.259h11.84c.542 0 1.043-.157 1.48-.411V44.4H2.96v-6.179zM34.04 44.4h-14.8v-1.891c.437.254.938.411 1.48.411h11.84c.52 0 1.016-.095 1.48-.259V44.4zm-1.48-2.96H20.72c-.816 0-1.48-.664-1.48-1.48s.664-1.48 1.48-1.48h10.794l1.263 1.263 1.046-1.046-1.263-1.263V34.78h2.96v3.7c0 1.632-1.328 2.96-2.96 2.96z" transform="translate(14 9)"/>
        <path fill="#FFCE8E" d="M14.146 24.282l.346-1.038 1.181.59c-.079.322-.133.65-.133.982 0 .639.152 1.253.422 1.81l-.682-.195c-.718-.206-1.22-.87-1.22-1.618 0-.18.029-.36.086-.531zM21.327 23.834l1.18-.59.347 1.037c.057.172.086.351.086.532 0 .747-.502 1.412-1.22 1.618l-.682.194c.27-.556.422-1.17.422-1.81 0-.331-.054-.66-.133-.981zM18.792 27.036l-.292.195-.292-.195c-.744-.496-1.188-1.326-1.188-2.22 0-.574.19-1.142.534-1.6l.946-1.262.946 1.262c.345.458.534 1.026.534 1.6 0 .895-.445 1.724-1.188 2.22z" transform="translate(14 9)"/>
    </g>
</svg>
