<svg xmlns="http://www.w3.org/2000/svg" width="44" height="48" viewBox="0 0 44 48">
    <g fill="#FFF" fill-rule="evenodd">
        <path d="M18 16.95c1.2-.61 2.56-.95 4-.95-1.08 0-2.02.57-2.55 1.42-.51.17-.99.39-1.45.66-1.53.88-2.74 2.26-3.41 3.92-.13.32-.24.66-.33 1h-1.03c.08-.34.17-.68.3-1 .12-.38.28-.75.47-1.11.23-.44.49-.86.79-1.26.84-1.13 1.94-2.05 3.21-2.68M29.74 23c-.09-.34-.2-.68-.33-1-.67-1.66-1.88-3.04-3.41-3.92-.46-.27-.94-.49-1.45-.66C24.02 16.57 23.08 16 22 16c1.44 0 2.8.34 4 .95 1.27.63 2.37 1.55 3.21 2.68.3.4.56.82.79 1.26.19.36.35.73.47 1.11.13.32.22.66.3 1h-1.03zM3 48L41 48 41 47 3 47zM13 33L31 33 31 32 13 32zM13 36L31 36 31 35 13 35zM3 45L5 45 5 43 3 43zM39 45L41 45 41 43 39 43zM8 41h2v-3H8v3zm0 0h2v-3H8v3zm0 0h2v-3H8v3zm-1-5c0-1.1.9-2 2-2s2 .9 2 2H7zm0 6h4v-5H7v5zm-2 3h8V32H5v13zm3-4h2v-3H8v3zm0 0h2v-3H8v3zM34 41h2v-3h-2v3zm-1-5c0-1.1.9-2 2-2s2 .9 2 2h-4zm0 6h4v-5h-4v5zm-2 3h8V32h-8v13zM18 35L20 35 20 33 18 33zM24 35L26 35 26 33 24 33z"/>
        <path d="M22 36c4.971 0 9 4.029 9 9h1c0-5.514-4.486-10-10-10s-10 4.486-10 10h1c0-4.971 4.029-9 9-9"/>
        <path d="M24 42L22 43 20 42 20 38 24 38z"/>
        <path d="M25 45h-6c-.553 0-1-.447-1-1v-2l4 2 4-2v2c0 .553-.447 1-1 1M5 30L12 30 12 28 5 28zM32 30L39 30 39 28 32 28zM15 30L29 30 29 28 15 28zM41 26L3 26 1 24 43 24zM0 23L44 23 44 22 0 22zM6 22L14 22 14 20 6 20zM7 20L14 20 14 19 7 19zM11 14L9 14 9 15 10 16 9 19 11 19zM10 14L11 14 11 13 10 13zM30 22L38 22 38 20 30 20zM30 20L37 20 37 19 30 19zM33 14L35 14 35 15 34 16 35 19 33 19zM33 14L34 14 34 13 33 13zM22.2 17.01c-.06-.01-.13-.01-.2-.01s-.14 0-.2.01c-1.01.1-1.8.96-1.8 1.99 0 1.1.9 2 2 2s2-.9 2-2c0-1.03-.79-1.89-1.8-1.99zm0 0c-.06-.01-.13-.01-.2-.01s-.14 0-.2.01c-1.01.1-1.8.96-1.8 1.99 0 1.1.9 2 2 2s2-.9 2-2c0-1.03-.79-1.89-1.8-1.99zm0 0c-.06-.01-.13-.01-.2-.01s-.14 0-.2.01c-1.01.1-1.8.96-1.8 1.99 0 1.1.9 2 2 2s2-.9 2-2c0-1.03-.79-1.89-1.8-1.99zM18 15v7h4c-1.66 0-3-1.34-3-3 0-.58.17-1.12.45-1.58.53-.85 1.47-1.42 2.55-1.42 1.08 0 2.02.57 2.55 1.42.28.46.45 1 .45 1.58 0 1.66-1.34 3-3 3h4v-7h-8zm4.2 2.01c-.06-.01-.13-.01-.2-.01s-.14 0-.2.01c-1.01.1-1.8.96-1.8 1.99 0 1.1.9 2 2 2s2-.9 2-2c0-1.03-.79-1.89-1.8-1.99zm0 0c-.06-.01-.13-.01-.2-.01s-.14 0-.2.01c-1.01.1-1.8.96-1.8 1.99 0 1.1.9 2 2 2s2-.9 2-2c0-1.03-.79-1.89-1.8-1.99z"/>
        <path d="M24 19c0 1.1-.9 2-2 2s-2-.9-2-2c0-1.03.79-1.89 1.8-1.99.06-.01.13-.01.2-.01s.14 0 .2.01c1.01.1 1.8.96 1.8 1.99"/>
        <path d="M24 19c0 1.1-.9 2-2 2s-2-.9-2-2c0-1.03.79-1.89 1.8-1.99.06-.01.13-.01.2-.01s.14 0 .2.01c1.01.1 1.8.96 1.8 1.99M14 22L12 22 16 10 18 10zM30 22L32 22 28 10 26 10z"/>
        <path d="M28 11L16 11 15 8 29 8zM15 7L29 7 29 6 15 6zM29 6L15 6 22 5zM22 12c-2.209 0-4 .896-4 2h8c0-1.104-1.791-2-4-2M8 41L10 41 10 38 8 38z"/>
        <path d="M8 41L10 41 10 38 8 38zM34 41L36 41 36 38 34 38z"/>
        <path d="M34 41L36 41 36 38 34 38zM21 0L21 2 24 2 22 0z"/>
        <path fill-rule="nonzero" d="M21 2H22V6H21z"/>
    </g>
</svg>
