<svg xmlns="http://www.w3.org/2000/svg" width="23.023" height="17.537" viewBox="0 0 23.023 17.537"><g transform="translate(0 -61)"><g transform="translate(0 61)"><path d="M21,61H2.023A2.027,2.027,0,0,0,0,63.023v13.49a2.027,2.027,0,0,0,2.023,2.023H21a2.027,2.027,0,0,0,2.023-2.023V63.023A2.027,2.027,0,0,0,21,61Zm-.279,1.349-9.166,9.166L2.309,62.349ZM1.349,76.234V63.3l6.5,6.441Zm.954.954,6.5-6.5,2.278,2.258a.674.674,0,0,0,.952,0l2.221-2.221,6.466,6.466Zm19.371-.954-6.466-6.466L21.674,63.3Z" transform="translate(0 -61)"/></g></g></svg>