<svg xmlns="http://www.w3.org/2000/svg" width="45.429" height="45.429" viewBox="0 0 45.429 45.429"><path d="M291.425,508.668q-.284.046-.57.085Q291.141,508.714,291.425,508.668Zm0,0" transform="translate(-265.048 -463.535)" fill="#fed201"/><path d="M299.611,507.793l-.271.047Zm0,0" transform="translate(-272.78 -462.738)" fill="#fed201"/><path d="M278.278,510.34q-.332.037-.668.066Q277.945,510.378,278.278,510.34Zm0,0" transform="translate(-252.978 -465.059)" fill="#fed201"/><path d="M286.766,509.738l-.32.04Zm0,0" transform="translate(-261.03 -464.51)" fill="#fed201"/><path d="M306.9,506.41l-.24.05Zm0,0" transform="translate(-279.454 -461.477)" fill="#fed201"/><path d="M324.678,502.113l-.193.054Zm0,0" transform="translate(-295.693 -457.562)" fill="#fed201"/><path d="M319.27,503.543l-.211.055Zm0,0" transform="translate(-290.75 -458.865)" fill="#fed201"/><path d="M312.29,505.254l-.224.05Zm0,0" transform="translate(-284.378 -460.424)" fill="#fed201"/><path d="M273.839,511.09q-.179.015-.359.027Q273.66,511.105,273.839,511.09Zm0,0" transform="translate(-249.215 -465.742)" fill="#fed201"/><path d="M45.429,22.714A22.714,22.714,0,1,0,22.714,45.429c.133,0,.266,0,.4-.005V27.741h-4.88V22.054h4.88V17.869c0-4.854,2.963-7.5,7.293-7.5a40.172,40.172,0,0,1,4.375.224V15.67H31.8c-2.355,0-2.812,1.119-2.812,2.762v3.622h5.632l-.734,5.687h-4.9v16.81A22.727,22.727,0,0,0,45.429,22.714Zm0,0" fill="#fed201"/><path d="M265.6,511.43q-.355.023-.712.035Q265.248,511.453,265.6,511.43Zm0,0" transform="translate(-241.387 -466.052)" fill="#fed201"/><path d="M260.881,511.836q-.188.006-.377.009Q260.693,511.842,260.881,511.836Zm0,0" transform="translate(-237.39 -466.422)" fill="#fed201"/></svg>