<svg xmlns="http://www.w3.org/2000/svg" width="45.429" height="45.429" viewBox="0 0 45.429 45.429"><path d="M215.7,211.348A4.348,4.348,0,1,1,211.348,207,4.348,4.348,0,0,1,215.7,211.348Zm0,0" transform="translate(-188.633 -188.633)" fill="#fed201"/><path d="M156.345,138.489a4.319,4.319,0,0,0-2.475-2.475,7.216,7.216,0,0,0-2.422-.449c-1.376-.063-1.788-.076-5.271-.076s-3.9.013-5.271.076a7.221,7.221,0,0,0-2.422.449,4.321,4.321,0,0,0-2.476,2.475,7.219,7.219,0,0,0-.449,2.422c-.063,1.375-.076,1.788-.076,5.271s.014,3.9.076,5.271a7.217,7.217,0,0,0,.449,2.422,4.319,4.319,0,0,0,2.475,2.475,7.207,7.207,0,0,0,2.422.449c1.375.063,1.787.076,5.27.076s3.9-.013,5.271-.076a7.207,7.207,0,0,0,2.422-.449,4.319,4.319,0,0,0,2.475-2.475,7.223,7.223,0,0,0,.449-2.422c.063-1.376.076-1.788.076-5.271s-.013-3.9-.076-5.271A7.207,7.207,0,0,0,156.345,138.489Zm-10.168,14.39a6.7,6.7,0,1,1,6.7-6.7A6.7,6.7,0,0,1,146.178,152.879Zm6.962-12.095a1.565,1.565,0,1,1,1.565-1.565A1.565,1.565,0,0,1,153.14,140.784Zm0,0" transform="translate(-123.463 -123.467)" fill="#fed201"/><path d="M22.714,0A22.714,22.714,0,1,0,45.429,22.714,22.717,22.717,0,0,0,22.714,0ZM35.679,28.092a9.569,9.569,0,0,1-.606,3.166,6.669,6.669,0,0,1-3.815,3.815,9.576,9.576,0,0,1-3.166.606c-1.391.063-1.835.079-5.377.079s-3.987-.015-5.378-.079a9.576,9.576,0,0,1-3.166-.606,6.669,6.669,0,0,1-3.815-3.815,9.567,9.567,0,0,1-.606-3.166c-.064-1.391-.079-1.836-.079-5.378s.015-3.987.079-5.377a9.57,9.57,0,0,1,.606-3.166,6.674,6.674,0,0,1,3.815-3.815,9.578,9.578,0,0,1,3.166-.606c1.391-.063,1.835-.079,5.377-.079s3.987.015,5.377.079a9.58,9.58,0,0,1,3.166.605,6.671,6.671,0,0,1,3.815,3.815,9.568,9.568,0,0,1,.607,3.166c.063,1.391.078,1.835.078,5.377S35.742,26.7,35.679,28.092Zm0,0" fill="#fed201"/></svg>