<svg id="Layer_1" data-name="Layer 1" xmlns="http://www.w3.org/2000/svg" xmlns:xlink="http://www.w3.org/1999/xlink" viewBox="0 0 110.54 105.81"><defs><style>.cls-1{fill:#f7c3a9;}.cls-2{fill:none;}.cls-3{fill:#0893a5;}.cls-4{fill:#fff;}.cls-5{fill:#9ba7a8;}.cls-6{fill:#afb9ba;}.cls-7{fill:#4384d1;}.cls-8{fill:#ed91b0;}.cls-9{fill:#e885ab;}.cls-10{fill:#7e1bb2;}.cls-11{fill:#5ba4d6;}.cls-12{fill:#59b7d8;}.cls-13{clip-path:url(#clip-path);}.cls-14{fill:#605351;}.cls-15{fill:#d62244;}.cls-16{fill:#403689;}.cls-17{clip-path:url(#clip-path-2);}.cls-18{fill:#2a2873;}.cls-19{fill:#ea5c7e;}</style><clipPath id="clip-path" transform="translate(-39.92 -170.46)"><path class="cls-1" d="M69.75,193.59c-2.49,3.58-5.61,1.87-9.19-.62a7.9,7.9,0,1,1,9-13C73.15,182.49,72.24,190,69.75,193.59Z"/></clipPath><clipPath id="clip-path-2" transform="translate(-39.92 -170.46)"><path class="cls-2" d="M53.1,231.24H72.92l2.47-29.37A4.51,4.51,0,0,0,70.9,197H55.11a4.51,4.51,0,0,0-4.49,4.89Z"/></clipPath></defs><title>Творчество</title><path class="cls-3" d="M111.5,250.18c-3.36-5-11.56-5.68-7.78-14.08s-12-10.3-7.36-22.49-4.83-14.93-4.41-24.6,5-13,13-12c4.83.64,10.22-1,14.72-4,7.36-4.84,16.19-.21,20,6.94s0,20.6-4.2,23.54-13.19,8.3-8.83,14.5c5.47,7.78,9,16.61,1.68,21.44-7.65,5-8.62,12-8.62,12Z" transform="translate(-39.92 -170.46)"/><path class="cls-4" d="M116.09,254.38h-.36a39.29,39.29,0,0,1,.82-4.91c1.36-6.89,3.9-19.71,1.09-25.5-3.74-7.69-5.08-19.87-.2-27.3a47.21,47.21,0,0,1,11.4-11.82l.2.3a46.82,46.82,0,0,0-11.3,11.72c-4.81,7.32-3.47,19.34.22,26.94,2.87,5.9.41,18.31-1.06,25.72A40.59,40.59,0,0,0,116.09,254.38Z" transform="translate(-39.92 -170.46)"/><path class="cls-4" d="M114.28,251.74s-1.93-3.47-4.43-11.6c-1.89-6.15-1.28-9.42-.44-14,.28-1.52.6-3.24.85-5.24,1.84-14.71-6.18-23.71-9.6-27.55l-.24-.26.27-.24.23.26c3.46,3.88,11.55,13,9.69,27.84-.25,2-.57,3.74-.86,5.26-.83,4.49-1.44,7.73.43,13.79,2.49,8.08,4.38,11.49,4.4,11.53Z" transform="translate(-39.92 -170.46)"/><path class="cls-4" d="M118.62,253.56l-.36,0a31.16,31.16,0,0,1,3.8-13.52l.59-1.13c2.44-4.64,5.21-9.89,1.52-15.51-3.32-5.06-4.1-9.78-2.33-14l.33.14c-1.73,4.14-1,8.75,2.3,13.71,3.81,5.8.86,11.39-1.5,15.88l-.59,1.12A30.85,30.85,0,0,0,118.62,253.56Z" transform="translate(-39.92 -170.46)"/><polygon class="cls-5" points="89.8 55.47 95.14 27.9 110.54 27.86 103.41 55.35 89.8 55.47"/><polygon class="cls-6" points="89.28 52.24 94.91 28.91 108.18 28.76 101.3 55.35 89.28 52.24"/><polygon class="cls-7" points="90.08 53.65 95.69 29.99 106.82 30 100.89 52.95 90.08 53.65"/><path class="cls-1" d="M98.11,221.23c1.2.08,4,.78,4,2s-.85,2.61-1.27,2.57-3.15.66-4.16-.25S98.11,221.23,98.11,221.23Z" transform="translate(-39.92 -170.46)"/><polygon class="cls-5" points="103.41 55.47 73.96 55.47 73.96 52.39 102.13 52.25 103.41 55.47"/><ellipse class="cls-8" cx="23.14" cy="43.79" rx="23.14" ry="28.26"/><path class="cls-8" d="M55.33,276.27c0-.19,0-.38,0-.58a7.7,7.7,0,1,1,15.4,0c0,.19,0,.39,0,.58Z" transform="translate(-39.92 -170.46)"/><rect class="cls-8" x="22.84" y="55.77" width="1.35" height="50.04"/><rect class="cls-9" x="5.26" y="59.69" width="35.75" height="15.87" rx="4.16" ry="4.16"/><path class="cls-10" d="M79.66,231.32H53.1v6.38a6.25,6.25,0,0,0,6.25,6.25H79.66a6.25,6.25,0,0,0,6.25-6.25v-.13A6.25,6.25,0,0,0,79.66,231.32Z" transform="translate(-39.92 -170.46)"/><path class="cls-11" d="M72.19,198.68C67.75,202,76.39,221.06,78,222s17.45,3.68,18.71,3.57,2.1-4.31,1.37-4.62-14.82-2.31-15.66-3.47S76.29,195.63,72.19,198.68Z" transform="translate(-39.92 -170.46)"/><path class="cls-12" d="M53.1,231.24H72.92l2.47-29.37A4.51,4.51,0,0,0,70.9,197H55.11a4.51,4.51,0,0,0-4.49,4.89Z" transform="translate(-39.92 -170.46)"/><path class="cls-1" d="M61.76,198.81h3.08a1.85,1.85,0,0,0,1.73-2v-3.79a1.85,1.85,0,0,0-1.73-2H61.76a1.85,1.85,0,0,0-1.73,2v3.79A1.85,1.85,0,0,0,61.76,198.81Z" transform="translate(-39.92 -170.46)"/><path class="cls-1" d="M69.75,193.59c-2.49,3.58-5.61,1.87-9.19-.62a7.9,7.9,0,1,1,9-13C73.15,182.49,72.24,190,69.75,193.59Z" transform="translate(-39.92 -170.46)"/><g class="cls-13"><path class="cls-14" d="M64.3,182.36s-.88,2.65-1.24,2.53a2.71,2.71,0,0,0-3-.18c-1.43.95-.76,2.59.34,3.26s-.75,3.5-3.4,2-1.45-8.49.86-10.56,7.91-3.36,9.49-2.63,14.11,9.55,14.11,9.55Z" transform="translate(-39.92 -170.46)"/></g><path class="cls-10" d="M85.52,236.24l3.27,36.41H84s-7.7-23.71-8.47-31.41,4.81-6.35,4.81-6.35Z" transform="translate(-39.92 -170.46)"/><path class="cls-10" d="M70.32,236.24l3.27,36.41H68.78s-7.7-23.71-8.47-31.41,4.81-6.35,4.81-6.35Z" transform="translate(-39.92 -170.46)"/><path class="cls-15" d="M88.7,272.66H84v3.62h9.56c.63,0,.85-1.42.3-1.72Z" transform="translate(-39.92 -170.46)"/><path class="cls-15" d="M73.59,272.66H68.88v3.62h9.56c.63,0,.85-1.42.3-1.72Z" transform="translate(-39.92 -170.46)"/><rect class="cls-16" x="26.2" y="55.26" width="80.7" height="2.11"/><rect class="cls-16" x="26.2" y="55.64" width="0.77" height="50.04"/><rect class="cls-16" x="106.1" y="55.64" width="0.77" height="50.04"/><g class="cls-17"><circle class="cls-1" cx="23.14" cy="27.97" r="6.52"/></g><path class="cls-18" d="M99.8,218.59a2.64,2.64,0,1,0,2.64,2.64A2.64,2.64,0,0,0,99.8,218.59Zm0,4.33a1.69,1.69,0,1,1,1.69-1.69A1.69,1.69,0,0,1,99.8,222.92Z" transform="translate(-39.92 -170.46)"/><polygon class="cls-18" points="59.26 45.8 68 45.8 66.33 55.38 60.92 55.38 59.26 45.8"/><path class="cls-14" d="M63.38,179.73c1.28-1.35-1.6-9.41-7.73-9.27a12.05,12.05,0,0,0-9.08,5.11,11.71,11.71,0,0,0-1.54,8s6.14.37,8.69-3.25c2.24-3.18,4.65-4.2,5.87-3.58C62.6,178.32,62.51,180.64,63.38,179.73Z" transform="translate(-39.92 -170.46)"/><path class="cls-11" d="M51.06,199c-4.44,3.3,4.2,22.39,5.78,23.33S74.29,226,75.55,225.9s2.1-4.31,1.37-4.62S62.1,219,61.26,217.81,55.16,195.94,51.06,199Z" transform="translate(-39.92 -170.46)"/><rect class="cls-4" x="80.53" y="215.14" width="1.12" height="10.79" transform="translate(-117.1 -123.6) rotate(-22.16)"/><path class="cls-1" d="M76.29,221.59c1.26-.42,4.2-1.16,5.15-.1s3.68,3.78,2.73,4.1a56.35,56.35,0,0,1-8.62.32C74.08,225.79,76.29,221.59,76.29,221.59Z" transform="translate(-39.92 -170.46)"/><rect class="cls-19" x="70.11" y="77.61" width="10.51" height="25.65"/><circle class="cls-19" cx="75.36" cy="96.53" r="9.04"/><circle class="cls-4" cx="60.75" cy="22.64" r="0.95"/><circle class="cls-4" cx="89.03" cy="14.55" r="0.95"/><circle class="cls-4" cx="81.98" cy="38.83" r="0.95"/><rect class="cls-16" x="103.41" y="56.91" width="3.47" height="48.78"/><rect class="cls-16" x="25.41" y="56.91" width="3.47" height="48.78"/><rect class="cls-16" x="25.41" y="55.38" width="81.49" height="4.71"/></svg>