<svg id="Layer_1" data-name="Layer 1" xmlns="http://www.w3.org/2000/svg" xmlns:xlink="http://www.w3.org/1999/xlink" viewBox="0 0 140.49 115.81"><defs><style>.cls-1{fill:#fff;}.cls-2{fill:#ed91b0;}.cls-3{fill:#0893a5;}.cls-4{fill:#403689;}.cls-5{fill:#7e1bb2;}.cls-6{clip-path:url(#clip-path);}.cls-7{fill:#b3e3ef;}.cls-8{fill:#f4f4f4;}.cls-9{fill:#0c5c9b;}.cls-10{fill:#ea5c7e;}.cls-11{fill:#f7c3a9;}.cls-12{fill:#4384d1;}.cls-13{fill:#8fd5e5;}.cls-14{fill:#2b79e6;}.cls-15{fill:#59b7d8;}.cls-16{fill:#605351;}.cls-17{fill:#d62244;}.cls-18{clip-path:url(#clip-path-2);}.cls-19{fill:#4c5ff1;}</style><clipPath id="clip-path" transform="translate(-558.2 -33.42)"><path class="cls-1" d="M615.4,131.5H655V119.67H615.4C613.86,119.67,613.86,131.5,615.4,131.5Z"/></clipPath><clipPath id="clip-path-2" transform="translate(-558.2 -33.42)"><path class="cls-1" d="M656.74,135.27H605.19V147.4h51.55C658.33,147.4,658.33,135.27,656.74,135.27Z"/></clipPath></defs><title>Стратегия</title><path class="cls-2" d="M642.82,53.73c-1,6.7-4.76,7.53-6.45,10.43s-1.49,4.22-3.23,4c-2.47-.35-2-2.32-3.72-5-2-3-5.71-3.48-6-9.43A9.55,9.55,0,0,1,633.13,44C638.48,44,643.6,48.44,642.82,53.73Z" transform="translate(-558.2 -33.42)"/><path class="cls-1" d="M635.45,64.53h-.24V55h-4V63.4H631V55h-1.79a.74.74,0,0,1-.57-1.21l1.76-2.1a.47.47,0,0,1,.84.3v2.77h4V51.77a.34.34,0,0,1,.59-.24l2,2.37a.64.64,0,0,1-.49,1.06h-1.91Zm0-9.8h1.91a.4.4,0,0,0,.3-.66l-2-2.37a.1.1,0,0,0-.11,0,.1.1,0,0,0-.06.09Zm-4.73-3a.22.22,0,0,0-.17.08l-1.76,2.1a.5.5,0,0,0,.38.81H631V52a.23.23,0,0,0-.15-.22Z" transform="translate(-558.2 -33.42)"/><path class="cls-3" d="M600.28,121.84c-2.79-.41-4.95-5.52-3-8.59s3-4,1.39-7.08-6.3-5.49-4.85-9.37,6.14-4,5-7.59-5.68-5-3.45-10.55c2-5,6.59-2.46,6.59-8.26,0-4.94-7-9.88-.87-13.5,5.1-3,8.47,5,8.4,9.32-.11,7.59-6,9.65-3.72,14.43,1.12,2.38,5.53,3.86,4.56,9.84s-6.66,5.35-6.66,9.06,6.89,5.68,6.32,12.7C609.49,118.43,608.54,123.06,600.28,121.84Z" transform="translate(-558.2 -33.42)"/><path class="cls-1" d="M602.15,122.73h-.39c0-1,.81-2.8,1.67-4.72a31.48,31.48,0,0,0,1.57-3.92c1.12-4.11-1.69-7.6-3.74-10.15a11,11,0,0,1-2.07-3.14c-.81-2.91,1-4.52,2.7-6.08,1.22-1.1,2.48-2.24,2.88-3.84.56-2.29-.46-3.51-1.65-4.92a9.09,9.09,0,0,1-2.6-5.51c-.13-1.65.83-3,1.95-4.48a13.74,13.74,0,0,0,3.08-6.61,11.42,11.42,0,0,0-1.91-7.89l.31-.24a11.82,11.82,0,0,1,2,8.18,14,14,0,0,1-3.15,6.79c-1.07,1.46-2,2.71-1.87,4.22a8.76,8.76,0,0,0,2.51,5.29c1.2,1.43,2.33,2.78,1.73,5.27-.42,1.72-1.73,2.9-3,4-1.72,1.55-3.34,3-2.59,5.68a10.86,10.86,0,0,0,2,3c2.1,2.61,5,6.19,3.81,10.49a31.5,31.5,0,0,1-1.59,4C603,120,602.15,121.82,602.15,122.73Z" transform="translate(-558.2 -33.42)"/><circle class="cls-1" cx="45.6" cy="27.92" r="0.71"/><path class="cls-3" d="M599,124.51c-2,.94-5.53-1.4-5.61-4.19s.2-3.85-2.15-5.11-6.38-.8-7.12-3.89,2.18-5.21-.07-7-5.77-.74-6.74-5.25c-.88-4.07,3.14-4.4.65-8.1-2.12-3.15-8.73-3.28-6.36-8.24,2-4.11,7.53-.48,9.36,2.33,3.19,4.89.34,8.72,3.83,10.8,1.74,1,5.18.09,7.13,4.32s-1.95,6.27-.35,8.64,6.83.66,9.49,5.38C603.38,118.38,604.77,121.74,599,124.51Z" transform="translate(-558.2 -33.42)"/><path class="cls-1" d="M600.26,124.47a12.55,12.55,0,0,1-1-3.75,24.09,24.09,0,0,0-.68-3.17c-1-3.08-4.19-4.06-6.71-4.84a8.44,8.44,0,0,1-2.68-1.12c-1.79-1.52-1.34-3.33-.9-5.08a6.22,6.22,0,0,0,.18-3.66c-.62-1.68-1.73-2-3.14-2.4a7,7,0,0,1-4-2.41c-.8-1-.75-2.27-.69-3.72a10.52,10.52,0,0,0-.87-5.52,8.74,8.74,0,0,0-4.59-4.19l.12-.37a9,9,0,0,1,4.81,4.38,11,11,0,0,1,.92,5.71c-.06,1.44-.11,2.57.61,3.46a6.69,6.69,0,0,0,3.85,2.28c1.39.4,2.71.78,3.39,2.64a6.5,6.5,0,0,1-.17,3.89c-.43,1.71-.83,3.32.78,4.69a8.32,8.32,0,0,0,2.55,1c2.47.77,5.86,1.82,7,5.08a24.34,24.34,0,0,1,.7,3.23,12.87,12.87,0,0,0,.91,3.6Z" transform="translate(-558.2 -33.42)"/><circle class="cls-1" cx="575.22" cy="84.42" r="0.55" transform="translate(-507.2 302.4) rotate(-33.97)"/><path class="cls-3" d="M598.88,127.77c-.94,1.65-4.68,1.77-6.13-.2s-1.79-2.87-4.11-2.6-5,2.62-7.07.77-1-4.84-3.55-5-4.52,2.35-7.47-.4c-2.67-2.48.06-4.74-3.59-6.15-3.11-1.2-7.92,2-8.7-2.74-.65-3.94,5.17-4.12,7.9-3,4.74,1.92,4.62,6.1,8.17,5.85,1.77-.13,3.77-2.53,7.29-.47s1.74,5.48,4.08,6.39,5.24-2.95,9.52-.88C599,121.15,601.66,122.88,598.88,127.77Z" transform="translate(-558.2 -33.42)"/><path class="cls-1" d="M599.78,127.11a11,11,0,0,1-2.58-2.22,21,21,0,0,0-2.08-1.93c-2.28-1.69-5-.81-7.23-.11a7.42,7.42,0,0,1-2.5.54c-2.06-.2-2.65-1.74-3.21-3.22a5.43,5.43,0,0,0-1.69-2.71c-1.28-.89-2.23-.57-3.44-.15a6.19,6.19,0,0,1-4.13.29c-1.09-.32-1.69-1.26-2.38-2.34a9.19,9.19,0,0,0-3.39-3.52,7.6,7.6,0,0,0-5.38-.71l-.11-.37a7.89,7.89,0,0,1,5.67.74,9.65,9.65,0,0,1,3.53,3.65c.67,1.06,1.21,1.89,2.16,2.18a5.78,5.78,0,0,0,3.89-.29c1.21-.41,2.35-.8,3.79.2a5.71,5.71,0,0,1,1.84,2.89c.55,1.44,1.06,2.79,2.89,3a7.27,7.27,0,0,0,2.35-.52c2.17-.69,5.13-1.63,7.58.17a21.28,21.28,0,0,1,2.12,2,11.32,11.32,0,0,0,2.45,2.13Z" transform="translate(-558.2 -33.42)"/><circle class="cls-1" cx="561.72" cy="110.84" r="0.48" transform="translate(-302.84 561.12) rotate(-68.81)"/><path class="cls-4" d="M606.72,145.28h-8.15l-2.41-19.54s.34-5.08,7.14-4.79a5.78,5.78,0,0,1,5.83,4.79Z" transform="translate(-558.2 -33.42)"/><path class="cls-3" d="M654.11,137.28c-1.94-5.25-3.42-13.77-.78-19.24,2.91-6,8.13-5.41,8.94-9.91,1.36-7.58-1.75-9.91-3.3-15.74-1.15-4.32.21-11.42,6.61-11.85,8.55-.58,6.82,7.87,13.41,7.58,4.47-.19,13.47-9.66,18.46-.78,6.22,11.08-12.66,12.33-13.6,14.77-2.33,6,7.45-.62,6.41,7-.58,4.28-11.47,3.11-11.27,9.13.16,4.86,0,9.33-7,15.55s-9.91,5.83-9.91,5.83Z" transform="translate(-558.2 -33.42)"/><path class="cls-1" d="M657.87,141l-.36-.15a34.35,34.35,0,0,1,2.33-3.68c3.43-5.09,9.81-14.55,9.5-20.16-.41-7.47,2.64-17.76,9.1-22.1a41.29,41.29,0,0,1,13.21-5.67l.08.38a40.88,40.88,0,0,0-13.06,5.62c-6.34,4.26-9.33,14.39-8.93,21.75.32,5.74-5.87,14.91-9.57,20.4A35.5,35.5,0,0,0,657.87,141Z" transform="translate(-558.2 -33.42)"/><path class="cls-1" d="M657.24,138.26a58.6,58.6,0,0,1,.36-10.85c.56-5.6,2.16-8,4.38-11.42.74-1.13,1.58-2.41,2.46-3.93,6.46-11.22,3-21.17,1.59-25.43l-.1-.29.37-.13.1.29c1.47,4.3,4.92,14.37-1.62,25.74-.88,1.54-1.73,2.82-2.47,4-2.19,3.33-3.77,5.74-4.32,11.24a58.25,58.25,0,0,0-.36,10.77Z" transform="translate(-558.2 -33.42)"/><path class="cls-1" d="M660.19,141.21l-.35-.18a27.27,27.27,0,0,1,7.65-9.62l.86-.71c3.53-2.9,7.53-6.19,6.47-12-1-5.21,0-9.3,2.89-12.14l.27.28c-2.78,2.74-3.72,6.71-2.78,11.79,1.11,6-3.16,9.5-6.6,12.32l-.85.71A26.92,26.92,0,0,0,660.19,141.21Z" transform="translate(-558.2 -33.42)"/><circle class="cls-1" cx="666.16" cy="86.4" r="0.83" transform="translate(-229.77 633.64) rotate(-67.21)"/><circle class="cls-1" cx="691.68" cy="89.44" r="0.83" transform="translate(-216.78 659.14) rotate(-67.22)"/><circle class="cls-1" cx="677.79" cy="106.63" r="0.83" transform="translate(-241 656.94) rotate(-67.24)"/><circle class="cls-4" cx="103.04" cy="107.36" r="6.85"/><path class="cls-5" d="M614.79,133.28h40.3V117.89h-40.3c-2,0-3.64,2.36-3.64,5.28V128C611.15,130.92,612.78,133.28,614.79,133.28Z" transform="translate(-558.2 -33.42)"/><path class="cls-1" d="M615.4,131.5H655V119.67H615.4C613.86,119.67,613.86,131.5,615.4,131.5Z" transform="translate(-558.2 -33.42)"/><g class="cls-6"><rect class="cls-7" x="54.87" y="96.05" width="42.73" height="0.62"/><rect class="cls-7" x="54.87" y="93.98" width="42.73" height="0.62"/><rect class="cls-7" x="54.87" y="91.91" width="42.73" height="0.62"/><rect class="cls-7" x="54.87" y="89.84" width="42.73" height="0.62"/><rect class="cls-7" x="54.87" y="87.77" width="42.73" height="0.62"/></g><path class="cls-8" d="M626.64,118.22s-2.58,3.65-.79,5.83,16.35.47,16.94-2-.89-5.33-.89-5.33Z" transform="translate(-558.2 -33.42)"/><rect class="cls-9" x="67.58" y="82.79" width="25.53" height="1.87"/><path class="cls-10" d="M625.26,87.81c-2.8.09-11.12,14.85-9.54,18.61s12,9.1,12,9.1l.09-6.17s-7.07-4-6.26-5.88,5.89-8.78,5.89-8.78Z" transform="translate(-558.2 -33.42)"/><path class="cls-10" d="M641.76,87.66c2.79.28,10.09,15.57,8.27,19.22s-12.54,8.27-12.54,8.27l.33-6.16s7.32-3.49,6.64-5.44-5.29-9.16-5.29-9.16Z" transform="translate(-558.2 -33.42)"/><path class="cls-10" d="M626.89,87.15H640a3.73,3.73,0,0,1,3.5,4S641,103,641,107c0,2.18.59,8.7.59,8.7H625.34s.75-6.81.73-9.09c0-3.88-2.68-15.45-2.68-15.45A3.73,3.73,0,0,1,626.89,87.15Z" transform="translate(-558.2 -33.42)"/><path class="cls-11" d="M635,89.13a1.75,1.75,0,0,1-1.9,1.52c-1.87-.09-2-1.52-2-1.52V81.71H635Z" transform="translate(-558.2 -33.42)"/><path class="cls-11" d="M637.91,81.38c0,2.66-2.16,6.62-4.81,6.62s-4.81-4-4.81-6.62a4.81,4.81,0,1,1,9.63,0Z" transform="translate(-558.2 -33.42)"/><rect class="cls-12" x="62.13" y="67.7" width="25.53" height="15.22"/><circle class="cls-13" cx="74.9" cy="76.05" r="1.39"/><path class="cls-14" d="M631.39,124.45a6.41,6.41,0,0,1-1.78,1c-1.37.58-4.07,1.64-3.67,2.82.55,1.59,2.45,1.47,3.72,1.09a24.36,24.36,0,0,0,5.59-2.76Z" transform="translate(-558.2 -33.42)"/><path class="cls-15" d="M634.67,120.32c4.63-3.38,7.06-5.88,12.26-9,1.24-.75,2.09-1,4.23-.13,1.83.72,1.63,3.86.63,5.17-3,3.93-14.53,9.37-16.86,10.19-1,.35-4.56-2.64-3.12-4.07A26.69,26.69,0,0,1,634.67,120.32Z" transform="translate(-558.2 -33.42)"/><path class="cls-14" d="M632.53,126.83a15.49,15.49,0,0,0,2.44,2.51c1.57,1.21,2.65,1.62,3.93,1,1.85-.86.15-2.67-1.29-4.11a20.19,20.19,0,0,0-3.65-3Z" transform="translate(-558.2 -33.42)"/><path class="cls-16" d="M630,75.25a4.08,4.08,0,0,0-5.68-3.08c-4.77,1.6-1.69,9.47-1.69,9.47s.89,3.54-1,4.58c0,0,3.58-1.94,3.58-4.5C625.22,81.71,624.5,71.92,630,75.25Z" transform="translate(-558.2 -33.42)"/><circle class="cls-17" cx="630.22" cy="75.59" r="0.98" transform="translate(-511.56 291.82) rotate(-30)"/><path class="cls-16" d="M628.38,82.32a18.16,18.16,0,0,0,2.18-3.81c.53-1.58.84.1,3.12,1.83a23.17,23.17,0,0,0,4.19,2s.69-3-.38-4.56c-2.53-3.67-7.69-3.43-9.26.86A4.33,4.33,0,0,0,628.38,82.32Z" transform="translate(-558.2 -33.42)"/><path class="cls-11" d="M632.76,122.39l2,1.63a4.74,4.74,0,0,1,1,1.2c.65,1.2-1.58,3.65-3,2.21s-2.74-3-2.74-3Z" transform="translate(-558.2 -33.42)"/><path class="cls-15" d="M626.87,125c-5.39-2.71-8.69-3.69-12.15-8.57a5.79,5.79,0,0,1-.89-4.31c.42-1.25,2.25-2,4.39-1.49,1.8.43,13.9,9.91,15.79,11.7.81.77-1.67,4.62-3.7,4A20.22,20.22,0,0,1,626.87,125Z" transform="translate(-558.2 -33.42)"/><path class="cls-17" d="M657.37,133.44H605.14v15.79h52.23c2.06,0,3.74-2.42,3.74-5.41v-5C661.1,135.87,659.43,133.44,657.37,133.44Z" transform="translate(-558.2 -33.42)"/><path class="cls-1" d="M656.74,135.27H605.19V147.4h51.55C658.33,147.4,658.33,135.27,656.74,135.27Z" transform="translate(-558.2 -33.42)"/><g class="cls-18"><rect class="cls-7" x="46.21" y="103.3" width="54.72" height="0.64"/><rect class="cls-7" x="46.21" y="105.42" width="54.72" height="0.64"/><rect class="cls-7" x="46.21" y="107.54" width="54.72" height="0.64"/><rect class="cls-7" x="46.21" y="109.67" width="54.72" height="0.64"/><rect class="cls-7" x="46.21" y="111.79" width="54.72" height="0.64"/></g><circle class="cls-14" cx="74.97" cy="34.58" r="2.21"/><rect class="cls-19" x="71.99" y="30.98" width="5.96" height="2.73" rx="0.88" ry="0.88"/><path class="cls-10" d="M634.26,34.51A10.56,10.56,0,0,1,633.17,37a10.56,10.56,0,0,1-1.09-2.54,1.09,1.09,0,1,1,2.18,0Z" transform="translate(-558.2 -33.42)"/><path class="cls-10" d="M623.23,37.92a10.55,10.55,0,0,1,.33,2.75A10.56,10.56,0,0,1,621.34,39a1.09,1.09,0,0,1,1.89-1.09Z" transform="translate(-558.2 -33.42)"/><path class="cls-10" d="M616.89,45.53a10.56,10.56,0,0,1,1.66,2.21,10.57,10.57,0,0,1-2.75-.33,1.09,1.09,0,0,1,1.09-1.89Z" transform="translate(-558.2 -33.42)"/><path class="cls-10" d="M650.62,47.28a10.56,10.56,0,0,1-2.75.33,10.55,10.55,0,0,1,1.66-2.21,1.09,1.09,0,1,1,1.09,1.89Z" transform="translate(-558.2 -33.42)"/><path class="cls-10" d="M645,38.93a10.55,10.55,0,0,1-2.21,1.66,10.57,10.57,0,0,1,.33-2.75A1.09,1.09,0,1,1,645,38.93Z" transform="translate(-558.2 -33.42)"/></svg>