<svg id="Layer_1" data-name="Layer 1" xmlns="http://www.w3.org/2000/svg" xmlns:xlink="http://www.w3.org/1999/xlink" viewBox="0 0 122.54 101.66"><defs><style>.cls-1{fill:none;}.cls-2{fill:#f7958d;}.cls-3{fill:#403689;}.cls-4{fill:#59b7d8;}.cls-5{fill:#fff;}.cls-6{fill:#7e1bb2;}.cls-7{fill:#29266b;}.cls-8{fill:#1958db;}.cls-9{clip-path:url(#clip-path);}.cls-10{fill:#112256;}.cls-11{fill:#b3e3ef;}.cls-12{fill:#ea5c7e;}.cls-13{fill:#f7c3a9;}.cls-14{clip-path:url(#clip-path-2);}.cls-15{fill:#ff645f;}.cls-16{fill:#823024;}.cls-17{fill:#4e687f;}.cls-18{fill:#fca89e;}.cls-19{fill:#4384d1;}.cls-20{fill:#e885ab;}.cls-21{fill:#fcc4c0;}.cls-22{fill:#605351;}</style><clipPath id="clip-path" transform="translate(-373.79 -180.04)"><path class="cls-1" d="M488.1,255.13H476.4l-1.46-17.33a2.66,2.66,0,0,1,2.65-2.88h9.31a2.66,2.66,0,0,1,2.65,2.88Z"/></clipPath><clipPath id="clip-path-2" transform="translate(-373.79 -180.04)"><path class="cls-1" d="M382,255.13h11.69l1.46-17.33a2.66,2.66,0,0,0-2.65-2.88h-9.31a2.66,2.66,0,0,0-2.65,2.88Z"/></clipPath></defs><title>Внедрение</title><path class="cls-2" d="M449.78,250.35c-.13.34-.27,1.35.15,1.48s5,.17,5.64.12.74-.72-.58-1.12-3-1.09-3-1.09Z" transform="translate(-373.79 -180.04)"/><path class="cls-2" d="M426.12,249.19c-.13.34-.5,2.51-.08,2.64s5,.17,5.64.12.74-.72-.58-1.12-3-1.09-3-1.09Z" transform="translate(-373.79 -180.04)"/><path class="cls-3" d="M477.74,230.82h-84a2.29,2.29,0,0,1-2.37-2.2V182.24a2.29,2.29,0,0,1,2.37-2.2h84a2.29,2.29,0,0,1,2.37,2.2v46.38A2.29,2.29,0,0,1,477.74,230.82Z" transform="translate(-373.79 -180.04)"/><path class="cls-4" d="M473.66,227.24H397.78a2,2,0,0,1-2.14-1.89V185.51a2,2,0,0,1,2.14-1.89h75.88a2,2,0,0,1,2.14,1.89v39.84A2,2,0,0,1,473.66,227.24Z" transform="translate(-373.79 -180.04)"/><rect class="cls-5" x="26.56" y="8.07" width="38.98" height="1.99" rx="1" ry="1"/><rect class="cls-5" x="26.56" y="13.94" width="38.98" height="1.99" rx="1" ry="1"/><rect class="cls-5" x="26.56" y="19.82" width="38.98" height="1.99" rx="1" ry="1"/><rect class="cls-5" x="26.56" y="25.31" width="38.98" height="1.99" rx="1" ry="1"/><rect class="cls-5" x="70.34" y="7.96" width="26.63" height="19.34" rx="3.73" ry="3.73"/><rect class="cls-5" x="26.56" y="32.6" width="11.16" height="10.36" rx="5.18" ry="5.18"/><rect class="cls-5" x="45.51" y="32.68" width="11.16" height="10.36" rx="5.18" ry="5.18"/><rect class="cls-5" x="64.75" y="32.6" width="11.16" height="10.36" rx="5.18" ry="5.18"/><rect class="cls-5" x="83.89" y="32.6" width="11.16" height="10.36" rx="5.18" ry="5.18"/><ellipse class="cls-6" cx="108.43" cy="65.07" rx="13.65" ry="16.67"/><path class="cls-6" d="M486.78,281.7c0-.11,0-.23,0-.34a4.54,4.54,0,1,0-9.08,0c0,.11,0,.23,0,.34Z" transform="translate(-373.79 -180.04)"/><rect class="cls-6" x="107.81" y="72.14" width="0.79" height="29.52"/><rect class="cls-6" x="97.88" y="74.44" width="21.09" height="9.36" rx="2.46" ry="2.46"/><path class="cls-7" d="M472.42,255.18H488.1v3.76c0,2-1.28,3-3.31,3h-12c-2,0-4.06-.92-4.06-3v-.08A3.69,3.69,0,0,1,472.42,255.18Z" transform="translate(-373.79 -180.04)"/><path class="cls-8" d="M488.1,255.13H476.4l-1.46-17.33a2.66,2.66,0,0,1,2.65-2.88h9.31a2.66,2.66,0,0,1,2.65,2.88Z" transform="translate(-373.79 -180.04)"/><path class="cls-7" d="M468.9,258.37,467,279.57h2.84s4-12.72,4.43-17.27-2.27-5-2.27-5Z" transform="translate(-373.79 -180.04)"/><path class="cls-7" d="M477.93,258.08,476,279.57h2.84s4.17-13.79,4.63-18.33-2.47-3.95-2.47-3.95Z" transform="translate(-373.79 -180.04)"/><polygon class="cls-8" points="101.42 56.47 97.22 64.42 102.9 63.96 101.42 56.47"/><path class="cls-8" d="M488.86,235.8l7.32,10.56a1.62,1.62,0,0,1-.68,2.13L484.18,251l-1.48-2.5,7.95-2.87L484.95,240Z" transform="translate(-373.79 -180.04)"/><path class="cls-8" d="M467.09,279.57h2.78v2.13h-5.64c-.37,0-.5-.84-.17-1Z" transform="translate(-373.79 -180.04)"/><path class="cls-8" d="M476,279.57h2.78v2.13h-5.64c-.37,0-.5-.84-.17-1Z" transform="translate(-373.79 -180.04)"/><g class="cls-9"><polygon class="cls-10" points="108.71 68.62 108.63 68.39 115.7 65.97 115.78 66.2 108.71 68.62"/><polygon class="cls-10" points="109 70.95 108.98 70.7 117.53 69.79 117.55 70.03 109 70.95"/></g><rect class="cls-11" x="93.1" y="70.35" width="18.25" height="1.55"/><ellipse class="cls-6" cx="14.11" cy="65.07" rx="13.65" ry="16.67"/><path class="cls-6" d="M383.34,281.7c0-.11,0-.23,0-.34a4.54,4.54,0,1,1,9.08,0c0,.11,0,.23,0,.34Z" transform="translate(-373.79 -180.04)"/><rect class="cls-6" x="13.94" y="72.14" width="0.79" height="29.52"/><rect class="cls-6" x="3.57" y="74.44" width="21.09" height="9.36" rx="2.46" ry="2.46"/><path class="cls-12" d="M397.7,255.18H382v3.76a3.69,3.69,0,0,0,3.69,3.69h12a3.69,3.69,0,0,0,3.69-3.69v-.08A3.69,3.69,0,0,0,397.7,255.18Z" transform="translate(-373.79 -180.04)"/><path class="cls-7" d="M382,255.13h11.69l1.46-17.33a2.66,2.66,0,0,0-2.65-2.88h-9.31a2.66,2.66,0,0,0-2.65,2.88Z" transform="translate(-373.79 -180.04)"/><path class="cls-13" d="M387.13,236h1.82a1.09,1.09,0,0,0,1-1.15v-2.24a1.09,1.09,0,0,0-1-1.15h-1.82a1.09,1.09,0,0,0-1,1.15v2.24A1.09,1.09,0,0,0,387.13,236Z" transform="translate(-373.79 -180.04)"/><path class="cls-13" d="M392.48,231.46c-.73,2.47-2.79,2.09-5.26,1.36a4.66,4.66,0,0,1,2.64-8.94C392.33,224.61,393.21,229,392.48,231.46Z" transform="translate(-373.79 -180.04)"/><path class="cls-12" d="M401.15,258.08l1.93,21.48h-2.84s-4.54-14-5-18.53,2.84-3.75,2.84-3.75Z" transform="translate(-373.79 -180.04)"/><path class="cls-12" d="M392.18,258.08l1.93,21.48h-2.84s-4.54-14-5-18.53,2.84-3.75,2.84-3.75Z" transform="translate(-373.79 -180.04)"/><polygon class="cls-7" points="21.12 56.47 25.32 64.42 19.65 63.96 21.12 56.47"/><path class="cls-7" d="M381.26,235.8l-7.32,10.56a1.62,1.62,0,0,0,.68,2.13L385.94,251l1.48-2.5-7.95-2.87,5.7-5.71Z" transform="translate(-373.79 -180.04)"/><path class="cls-7" d="M403,279.57h-2.78v2.13h5.64c.37,0,.5-.84.17-1Z" transform="translate(-373.79 -180.04)"/><path class="cls-7" d="M394.12,279.57h-2.78v2.13H397c.37,0,.5-.84.17-1Z" transform="translate(-373.79 -180.04)"/><g class="cls-14"><polygon class="cls-15" points="13.84 68.62 6.76 66.2 6.84 65.97 13.92 68.39 13.84 68.62"/><rect class="cls-15" x="382.74" y="246.21" width="0.25" height="8.16" transform="translate(-272.21 430.96) rotate(-85.23)"/></g><rect class="cls-11" x="11.19" y="70.35" width="18.25" height="1.55"/><rect class="cls-16" x="12.12" y="71.84" width="98.31" height="1.24"/><rect class="cls-16" x="12.12" y="72.06" width="0.45" height="29.52"/><rect class="cls-16" x="109.98" y="72.06" width="0.45" height="29.52"/><path class="cls-2" d="M484,250.44h-4.66l-.34-2h3.51a1.35,1.35,0,0,1,1.33,1.13Z" transform="translate(-373.79 -180.04)"/><polygon class="cls-11" points="107.77 70.41 93.12 70.41 91.11 61.34 105.76 61.34 107.77 70.41"/><circle class="cls-17" cx="99.15" cy="66.12" r="0.96"/><path class="cls-13" d="M481.73,235.71h1.82a1.09,1.09,0,0,0,1-1.15v-2.24a1.09,1.09,0,0,0-1-1.15h-1.82a1.09,1.09,0,0,0-1,1.15v2.24A1.09,1.09,0,0,0,481.73,235.71Z" transform="translate(-373.79 -180.04)"/><path class="cls-13" d="M478.64,231.16c.73,2.47,2.79,2.09,5.26,1.36a4.66,4.66,0,0,0-2.64-8.94C478.79,224.31,477.91,228.7,478.64,231.16Z" transform="translate(-373.79 -180.04)"/><circle class="cls-15" cx="106.33" cy="51.95" r="3.26"/><rect class="cls-18" x="105.16" y="49.89" width="2.38" height="1.24" rx="0.51" ry="0.51"/><path class="cls-2" d="M386.13,250.44h4.65l.34-2h-3.51a1.35,1.35,0,0,0-1.33,1.13Z" transform="translate(-373.79 -180.04)"/><polygon class="cls-11" points="14.77 70.41 29.43 70.41 31.44 61.34 16.78 61.34 14.77 70.41"/><circle class="cls-17" cx="23.39" cy="66.12" r="0.96"/><path class="cls-12" d="M432.59,224.4c-1.61-.06-6,10.11-6.41,11.65s-.63,13.76-.18,13.81,2.9.34,2.94-.24.77-11.66.86-12.34S436.18,224.53,432.59,224.4Z" transform="translate(-373.79 -180.04)"/><path class="cls-19" d="M428.18,245.28,442.31,249l-.1,30.48h-2.79s-2.24-16.6-3-25.27h-2.16L432,279.44h-2.83s-1.24-27-1.2-29.17C427.94,249.92,428.18,245.28,428.18,245.28Z" transform="translate(-373.79 -180.04)"/><path class="cls-20" d="M428.18,245.28,442.31,249l6.66-18.3c.56-1.49-.58-3.19-2.46-3.68L435.26,224c-1.88-.49-3.7.44-3.94,2Z" transform="translate(-373.79 -180.04)"/><path class="cls-18" d="M440.09,227.23a2.49,2.49,0,0,1-1.6-2.46l.72-2.77c.16-.63,1.08-.33,1.64-.19l1.79.47c.56.14,1.36.9,1.2,1.52l-.58,2.21A2.76,2.76,0,0,1,440.09,227.23Z" transform="translate(-373.79 -180.04)"/><path class="cls-21" d="M441.19,224.26c-2.62.18-3-1.93-3.17-4.54a4.75,4.75,0,1,1,9.48-.65C447.68,221.69,443.8,224.08,441.19,224.26Z" transform="translate(-373.79 -180.04)"/><path class="cls-10" d="M442.25,279.4h-2.83v2.17h5.75c.38,0,.51-.85.18-1Z" transform="translate(-373.79 -180.04)"/><path class="cls-10" d="M432,279.4h-2.83v2.17H435c.38,0,.51-.85.18-1Z" transform="translate(-373.79 -180.04)"/><path class="cls-15" d="M478.65,226.92c-.61.2-1.74-.44-1.26-1.86.6-1.8,2.16-1.68,2.58-2.16s.36-2.34,2.22-2.52,2,1.5,2.7,1.86,2.22-1.08,3.78.54c1.38,1.43-.48,2.94,0,3.78s1.62,1.62,1.14,3.24a2.74,2.74,0,0,1-2.4,2.1c-.6,0-1.5-.36-1.5-.72s-1.2-2.46.24-4.2c.77-.93-.12-1.92-1.32-1.62-2.1.53-3.42-1-4-1S479.55,226.62,478.65,226.92Z" transform="translate(-373.79 -180.04)"/><path class="cls-15" d="M384.22,230.52a5.78,5.78,0,0,1-.24-4.44,4.72,4.72,0,0,1,3.42-2.64c1.51-.42,2.64-.66,3.06-1.38s.12-1.68.3-1.68,2.46,1.5,1.92,3.78a3.58,3.58,0,0,1-2.16,2.88c-1.07.61-3.36.36-3.6,1s.78,1.26,1,1.62a.63.63,0,0,1-.3.78c-.18.12-1.08-.66-2-.72A1.6,1.6,0,0,0,384.22,230.52Z" transform="translate(-373.79 -180.04)"/><path class="cls-22" d="M440,215.64c-1.16,1-1.08,3.84-.72,5s.45,4.4,1.65,4.53c3.15.36,5.58.27,6.3-.81s2.34-8-2.16-9.48C441.38,213.72,440.83,214.92,440,215.64Z" transform="translate(-373.79 -180.04)"/><path class="cls-12" d="M448.08,227.91c1.36.36,1.85,3.42,2,6.3s-.27,6.48,0,6.93,2.7,8.31,2.79,8.76-3,1.08-3.24.81-3.48-7.77-3.66-8.49a47.16,47.16,0,0,1-.75-9.68C445.42,229.71,446.37,227.46,448.08,227.91Z" transform="translate(-373.79 -180.04)"/></svg>