<svg id="Layer_2" data-name="Layer 2" xmlns="http://www.w3.org/2000/svg" viewBox="0 0 1119.57 1202.82"><defs><style>.cls-1{fill:#fff;}</style></defs><title>Иконка Интернет-портал</title><path class="cls-1" d="M1442.85,1573.86c-46.72-3.64-94.13-2.32-141-4.57-49.49-2.36-98.94-5.61-148.41-8.49-99.13-5.77-199.83-11.74-299-4.06-76.68,5.91-152.78,17.36-229.58,22.08-66.83,4.12-140.68,3.17-204.5-21.28a6.61,6.61,0,0,0,1.17-1.28c14.16-20.35,10.43-45.21,11.49-69.19,1.37-30.89,2-61.82,3.43-92.73,3-66,7.17-131.89,11.15-197.82,8.05-133.27,20-270,8.61-403.47,51.08,39.79,121.16,48.34,183.83,53.7,83.65,7.13,168.59-.06,252.07-6.66a2268.92,2268.92,0,0,1,272.18-5.26c55.17,2.21,110.32,4.9,165.54,5.69q38.31.53,76.61-.75c25.14-.85,52.17-.37,76.08-9,12.41-4.47,9.49-20.55-3-22-24.07-2.9-48.93,1.3-73.1,2.34-25.52,1.1-51.08,1.18-76.61,1-52.58-.39-105.14-2.86-157.67-4.9-88.48-3.43-175.74-2.94-263.95,4.45-79.23,6.64-158.47,12.27-238,10.74-72-1.4-151-5.73-214.36-43.89-5.38-3.25-11.67,4.57-6.8,8.81.37.32.75.59,1.12.91-12.94,135.67-19.2,272.37-29.45,408.33-5,65.93-10.05,131.85-14.15,197.82q-2.7,43.17-4.51,86.4c-1,23.9-5.24,51.12,7,72.2-2.9-1.26-5.81-2.52-8.65-3.88a4.81,4.81,0,0,0-4.86,8.29c59,42.67,131.83,50,202.6,50.71,80.17.75,159.58-11.46,239.23-18.69,99.26-9,200.22-3,299.5,2.9,2.39.14,4.78.3,7.16.45-2.93,25.14-4.33,50-5.15,75.31-.83,26.24-3.59,53.41-2.19,79.72-12.47,1.38-23.59,6-37.08,9.1-25.6,5.85-52.32,8.16-78.5,9.24a443.53,443.53,0,0,1-78-3.41c-5.27-.73-10.73-1.4-16.25-2.11,18.79-1.34,37-8.61,50.28-22.36,2.19-2.27-1-5.34-3.4-3.39-21.82,18-53,25.63-80.36,18.48a1.46,1.46,0,0,0-1.75.75,108.63,108.63,0,0,1-13.77-4.75c-6.16-2.64-13.7,4.85-7.77,10.07,40.21,35.52,100,38.18,151.07,39.18,29.49.57,58.94-1.62,87.68-8.37,2.42-.57,4.86-1.16,7.31-1.77-8.07,15.52-14.43,32-16.69,49.35-2.68,20.74-9.8,55.95,10.23,69.28,3.12,2.07,6.81.37,8.77-2.31,3.84-5.26,5.88-8.1,4.95-14.6a211.11,211.11,0,0,1-1.3-44.6,268.6,268.6,0,0,1,11.9-62.92c8.11-3.59,15.06-8.59,19.19-16.33,4.47-1.32,8.26-5.1,8.8-11.43.14-1.62.2-3.25.3-4.87,19.77-8.71,38.28-15.21,61.41-15.33,30.28-.14,60,11.52,86.06,26.08a234.22,234.22,0,0,1,53,40.68,280.92,280.92,0,0,0-3,34.36q-.36,27.33-.72,54.67c-.12,9.53-3.16,23.86,2,32.7-13.42,5.83-27.06,11.11-41.5,14.56a248.92,248.92,0,0,1-33.05,5.38c8.48-18.81,4.14-41,3.63-61.35-.61-24.23-1.63-47.85-4.71-71.9-1.25-9.79-14-9.79-15.23,0-3.07,24.05-4.09,47.67-4.71,71.9-.51,20.37-4.87,42.61,3.68,61.46a6.77,6.77,0,0,0,.76,1.12c-13.53.73-27.09.81-40.5.71-6.4-.06-12.8-.24-19.2-.45-.05-4.83-.18-9.67-.57-14.64-1.52-19.33-.85-38.89-.19-58.25,1.37-39.87,4.4-78.13-1.51-117.8-.52-3.49-6.4-3.43-7,0-6.8,41.59-12.05,82.62-15.41,124.68-1.71,21.41-4.42,44-.79,64.87-50-3-99.91-9.63-149.6-15.54-8.77-1-17.56-1.95-26.36-2.82a9.17,9.17,0,0,0,1.73-3.13c11.84-35.4,17.63-74.9,14.21-112.11-.43-4.71-6.62-4.57-7.21,0-4.73,36.64-16.35,71.63-22.45,107.86a8.54,8.54,0,0,0,1.19,6.24q-24.61-2.19-49.3-3.66c-8.56-35.62-3.92-74.37,3.55-109.69.64-3-3.51-5-5.13-2.17-17.54,31.22-27.7,76.34-14,111q-33.82-1.69-67.69-2.46c6-21.71,3.34-47.81,6-70.13,2.91-24.59,6.42-49.13,9.57-73.7.71-5.5-8.06-6.36-9.44-1.28-6.61,24.15-12.73,48-16.57,72.75-3.44,22.12-9.9,49.66-4.65,72q-25.81-.5-51.59-.79l-5.68,0c3.62-19.9,2.44-41.19,4.59-61.29,2.88-26.77,6.06-53.44,9.84-80.1.85-5.95-7.67-8.73-9.27-2.56-6.23,24.05-12.7,48.15-17,72.61-4,22.36-8.43,48.44-5,71.33-19.67.1-39.35.61-59,1.32,2.79-15.68-3.73-35.66-4.39-51-1-24.66.44-50.1,2.84-74.62.49-5.08-7.35-5.83-8.66-1.18a297.14,297.14,0,0,0-11,75.8c-.29,14.1-1.93,37.8,6.68,51.57-15.14.61-30.27,1.3-45.37,2-39.08,1.79-81.18.79-118.84,13,2.46-8.2,1.32-17.79,1.82-26.36,1-16.9,6.81-33.25,14.95-47.93a113.1,113.1,0,0,1,14.35-20.13c-2.21,31.76,3.54,65.58,30.54,76.65,4.18,1.69,7.35-4.51,4.29-7.37-8.83-8.21-11-30.14-13.32-41.84-2.78-14.3-3.39-29.39-3.54-44.42,12.41-9.91,26.31-18.12,40.32-25.1a296.61,296.61,0,0,1,35-14.52c-2.43,3.31-4.62,6.84-6.83,9.55-.32.39.2.95.57.57,3.07-3.11,6-6.32,8.88-9.57a80.87,80.87,0,0,0-6.32,7.9c-6.94,9.73-10.59,21.14-12.95,32.7-5.21,25.63-1.72,52.76-1.92,78.68-.12,15.5,24.47,15.48,24,0-1.11-39.77-8-79.11,12.85-115.34,1.81-3.15,1-6.5-1.19-9.16l-.52-.63c55.71-16.13,116.29-18.87,173.16-18.36.82.57,1.62,1.16,2.49,1.67,4.56,2.66,9.07-1.67,8.24-6.32-4.23-23.7-14.94-44-16.3-68.77-1-19,.28-38,6.48-55.65a4.86,4.86,0,0,0,4.41,2.8l59.23,2.09c17,.59,35.88,3,52-2.66a4.85,4.85,0,0,0,0-9.28c-16.16-5.65-35.07-3.25-52-2.66q-29.6,1.06-59.23,2.09a5.08,5.08,0,0,0-1.49.36,97.24,97.24,0,0,1,5.64-11.05c2.77-4.57-4.1-10.16-7.55-5.81-18,22.58-26.06,51.14-26.89,79.78-.6,20.33,2.15,47.24,15.38,64.3-79.26-12.94-164.84-5.38-236.83,31.18a200,200,0,0,0-18.9,11c-.49-4.67-7.08-5.32-8.58-.77-.87,2.62-1.71,5.52-2.54,8.59-18.18,13.81-33.86,30.77-45.23,50.67-11.65,20.37-32.52,78-6.21,94.11a6.48,6.48,0,0,0,7.77-1c.48-.47.91-.95,1.33-1.44,39.92,9.24,82.82,4.35,123.47,4.14,50-.28,99.88,1.26,149.84,1.83,82,.95,163.88,4,245.35,13.79,48.72,5.87,97.65,11.88,146.71,14.2.62.89,1.17,1.77,1.84,2.62,3.12,4.08,10.53,3.59,11.08-2.07,15.72.53,31.45.69,47.19.26,44-1.26,120.29-4.83,138-54.08,2.63-7.31-6-11.66-11.77-9l-3.15,1.44c1-7.92-.6-17.12-.69-23.9q-.35-27.36-.71-54.67c-.07-5.57-.42-11.09-.93-16.57a182.2,182.2,0,0,1,24.55,41.63,231.17,231.17,0,0,0-1.51,24.6c0,11.52-1.73,24.17,1.71,35.24a3.24,3.24,0,0,0,6.19,0c3.37-10.85,1.79-23.21,1.73-34.53a140.34,140.34,0,0,1,2.69,15.35c1.53,13.59,22.78,14,21.63,0-3.73-45.92-28.26-86.09-61.47-117.37-.91-6.68-1.76-13.36-2.33-20.11a2,2,0,0,0-4,0c-.38,4.39-.89,8.75-1.43,13.1a278.93,278.93,0,0,0-51.47-35.24c-39.34-20.94-113.79-39.87-151.88-5.56.14-19.84-1.63-40-2.27-59.63-.9-28-2.16-55.49-5.36-83.29,43.41,2.68,86.81,5.59,130.23,8.08,51.86,3,105.62,8.25,157.49,4.41C1463.53,1604.39,1463.47,1575.47,1442.85,1573.86Z" transform="translate(-393.33 -777.72)"/><path class="cls-1" d="M1509.26,1221.73c-3.07-64.42-8.27-128.68-12.9-193-4.57-63.45-6.52-127.06-12-190.42a4.81,4.81,0,0,0-9.61,0c-5,60.56-1.69,121.41.75,182,2.6,64.34,6,128.66,8.73,193,2.58,61,3.67,122.06,1.82,183.09-1.94,64.16-10.94,126.41-19.63,189.83-2.3,16.82,22.05,24.8,26.27,7.25,14-58.41,17-120.84,19.21-180.64C1514.19,1349.18,1512.28,1285.38,1509.26,1221.73Z" transform="translate(-393.33 -777.72)"/><path class="cls-1" d="M1369.53,1426.41c-1.89,0-3.77,0-5.66,0-.76-79.94-4.82-159.84-7.12-239.76-1.2-42-3.5-83.86-3.84-125.88-.36-43.6,2.78-87.21-.51-130.77a1.21,1.21,0,0,0-2.36-.32c-23.39,78.4-18.24,167.53-18.28,248.53,0,82.68,5.7,165.3,6.46,248-132.92-1.62-265.65-11.54-398.6-12.43-71.87-.47-143.36,2.32-214.7,11.47-57.52,7.39-114.58,18-167.48,41.9.94-40.5-2.23-81.5-1.49-122,.87-48.68,3.34-97.3,6-145.89,4.61-85.6,11.32-173.63,5.41-259.56,36,27,80.64,30.48,125.14,31.13,59.92.89,119.17-8.83,178.29-17.32,55.31-8,110.81-10.54,166.51-11.15,38.05,2.07,76.11,3.43,114.28,2.27,7.85-.26,16-.49,24.38-.91q15.79.36,31.58.75c41.24,1,84.28,5.12,125.36,1.18,20.13-1.95,20.09-29.27,0-31.24-17.06-1.71-34.43-2.11-51.82-2.15.26-2.11-1.77-4.59-4-3.66q-4.69,1.92-9.43,3.66c-14.44.06-28.86.18-43.12-.12-40-.85-80.05-1.81-120.09-2.25-71.37-.79-143.45-.93-214.3,8.65q-9.85,1.33-19.7,2.72c-29.14-1.2-58.25-2.88-87.45-6-73.18-7.9-146.19-22.46-220-22.67-.88,0-1.12,1.42-.21,1.58,73.06,12.51,146.63,22.87,220.18,32.07,9.93,1.24,19.85,2.27,29.78,3.19-29.64,4.1-59.31,8-89.12,10.78-50.21,4.73-109.86,6.44-157.28-13.95-.41-4.85-.84-9.69-1.34-14.54a2,2,0,0,0-4,0c-.56,5.14-1,10.3-1.58,15.46a3.94,3.94,0,0,0-.54,5.36c-8.91,88.55-14.12,178-20,266.75-3.24,48.6-6.1,97.22-7.73,145.89-1.52,45.31-4.78,93.1,1.58,138.09,1.85,13.1,19.73,10.64,23.62.24,268.26-60.91,541.21-23.78,813.25-23.36C1391.24,1460.09,1391.23,1426.45,1369.53,1426.41Z" transform="translate(-393.33 -777.72)"/><path class="cls-1" d="M967.32,1677.68c-16.22-5.59-34.84-2.4-51.84-2.09-19.81.39-39.47,2-59.23,3.55a2.41,2.41,0,0,0,0,4.81c19.75,1.52,39.42,3.17,59.23,3.55,17,.33,35.62,3.53,51.84-2.09A4,4,0,0,0,967.32,1677.68Z" transform="translate(-393.33 -777.72)"/><path class="cls-1" d="M966.25,1714.59c-14.43,1.3-28.31,7.49-42.62,10.46-22.14,4.59-46.15,1.56-66-9.26-3.2-1.77-5.82,2.84-2.82,4.85,29.37,19.54,86.64,27.19,114,.12C970.89,1718.67,969.48,1714.32,966.25,1714.59Z" transform="translate(-393.33 -777.72)"/><path class="cls-1" d="M851.84,1521.26c129.35.2,260.28,6.17,389.38-1.89a2.81,2.81,0,0,0,0-5.61c-126.17-7.88-254.11-2.09-380.53-1.91-129.65.2-259.86-2.35-389.38,4.49a.23.23,0,0,0,0,.45C597.88,1523.49,725.13,1521.08,851.84,1521.26Z" transform="translate(-393.33 -777.72)"/><path class="cls-1" d="M1388.4,891.38c-42-6.58-85.39-2.34-127.77-1.22-53.55,1.42-107.11,3.25-160.68,3.27-93.35,0-191.95-3.59-280.24-37.17-.44-.16-.68.51-.31.73,36.05,21.75,75.88,30.2,117.12,36.46,49.72,7.53,100.16,10,150.38,11.09,53.79,1.18,107.62.3,161.38-1.63,46.52-1.67,94.13-.31,140.11-7.66C1390.32,894.93,1390.32,891.68,1388.4,891.38Z" transform="translate(-393.33 -777.72)"/><path class="cls-1" d="M1423.83,892.9c-21.35,48.42-30.31,101.45-34.39,153.93-4.33,55.63-2.6,114.4,14.44,167.9.94,2.94,5.43,1.73,4.64-1.28-26.26-101.18-24.2-222.78,16.79-319.94C1425.65,892.68,1424.2,892.07,1423.83,892.9Z" transform="translate(-393.33 -777.72)"/><path class="cls-1" d="M1460,930c-.86,80.79-3.87,161.52-10.1,242-6.31,81.69-19,162.38-27.76,243.74-.3,2.72,4.09,3.21,4.72.63,18.6-76.59,24.68-157.32,29.68-235.8,5.31-83.41,6.6-167.05,5.86-250.62A1.2,1.2,0,0,0,1460,930Z" transform="translate(-393.33 -777.72)"/><path class="cls-1" d="M450.28,1288.17c.56,3.23,5.39,2.27,5.51-.75,2.57-65.5,9.9-129.72,17.85-194.77,7.27-59.55,15.3-122.65-.78-181.45a1.61,1.61,0,0,0-3.09.87C499.52,1037,428.47,1163.16,450.28,1288.17Z" transform="translate(-393.33 -777.72)"/><path class="cls-1" d="M544.85,1003.36a.22.22,0,0,0-.43-.12c-19.07,59.28-30.05,118.3-35.62,180.31-5.72,63.71-11.36,131.83-4,195.54a3.2,3.2,0,0,0,6.4,0c7.1-61.68,1.76-125.09,5.23-187.13C519.93,1129,527.85,1064.21,544.85,1003.36Z" transform="translate(-393.33 -777.72)"/></svg>