<svg id="Layer_2" data-name="Layer 2" xmlns="http://www.w3.org/2000/svg" viewBox="0 0 1067.73 1292.83"><defs><style>.cls-1{fill:#fff;}</style></defs><title>Иконка Сайт-визитка</title><path class="cls-1" d="M1699.67,901.62c-10.17-47.25-52.33-74.18-99-62.66-33.46,8.25-61.75,35.32-77.88,67.41-.63-9.41-1.11-19.14-2.1-28.78a87.76,87.76,0,0,0-.53-12.13c.05-.24.09-.51.14-.75,4.68-8.18,1.06-21.2-2.85-31.75,12.74-36.39-52.63-71.55-76.61-82-25.2-11-52.39-21.22-80-23.79-7.55-.69-15.59-1.71-23.69-2.38a26,26,0,0,1-4.2-2.35c-58.06-12.68-119.79-7.73-178.64-7.15-59.16.59-123,9.91-180.07,25.52A315,315,0,0,0,924.47,759c-24,7.38-47.32,17.22-67.23,31.71-12.23,8.89-22.27,22-25.82,35.92-.53.57-1.08,1.12-1.61,1.67-.41-.76-1.81-.53-1.75.44,0,.57.08,1.14.12,1.72a3.65,3.65,0,0,0,.23,3.44V834a.86.86,0,0,0-.31.92c.18.59.33,1.2.5,1.8.15,2.14.29,4.26.44,6.42a3.25,3.25,0,0,0,.13,2.47.42.42,0,0,1,0,.1c2.26,30.32,5.64,61,10.74,91.34-32.86-22.53-71.31-27.13-107.31,1-41.18,32.12-72.89,83.92-51.4,136.2,21.26,51.73,80.23,86.92,130,105.73a293,293,0,0,0,28.7,9,337.71,337.71,0,0,0,37.46,12c14.55,3.81,36.41,10.05,53.1,7.83,14.91,3.77,29.7,7.86,44.6,11.7,50.71,35.25,108,63.35,143.38,115.85,1.66,2.46,3.12,4.93,4.5,7.38-.25.08-.52.08-.77.16a2.18,2.18,0,0,0-.51,3.93,18.42,18.42,0,0,0,4.49,2.24c19,40.6,2.69,81.29-27.76,115-38.14,42.28-99.52,37.26-150.64,51.17-36.91,10-72.34,43.13-66,84.53,5.63,36.45,61.28,44.85,89.45,49,64.94,9.7,130.32,21,195.83,26,55.18,4.2,126.61,4.39,177.49-25a301.59,301.59,0,0,0,50.13-17.39c26.22-12,50.63-33.67,49.79-64.62-1.12-42.13-40.23-66.06-76.43-75.5-48.76-12.7-121.35-10.11-122.68-78.76-1.2-61.74,68.46-112.48,115.93-139.1,21.56-12.08,42.75-23.72,61.79-39.65a137.65,137.65,0,0,0,24.16-26.9c56.63-38,122.55-60.31,176-103.43C1681.26,1058.55,1715.56,975.39,1699.67,901.62Zm-174,103.61c.39-3.69.67-7.4.88-11.11,13.76-14.68,30.79-26.48,48.18-36,24.3-13.37,64.35-27.56,56.79,15.86-5.84,33.51-41.17,61.86-65,83.39a655.78,655.78,0,0,1-73.34,57.5c4.18-11.41,8.13-22.91,11.85-34.39C1512.94,1056.31,1523,1030.57,1525.71,1005.23Zm-150-238.91q10.06,4.1,20,8.54c.1,24.27,2.26,49.17,13.48,69.59.88,1.57,3.79,1,3.57-1-1.73-15.86-6.2-31.17-8.24-47-.79-6.07-1.22-12.23-1.56-18.36q20.57,9.51,40.5,20.32c3,1.61,6.22,3.4,9.57,5.36q5.48,3.55,11,7a86.8,86.8,0,0,1,14.34,12.08A187,187,0,0,1,1462.79,836c-5.92,2.12-11.8,4.36-17.65,6.19-3.46,1.1-6.92,2.12-10.39,3.16a47,47,0,0,0-6.42,1.91c-15.55,4.53-31.24,8.61-47,12.45q-25.2,6.15-50.74,10.72c-17.13-37.4-10.86-76.6-3.77-115.78C1342.91,759.57,1358.9,764.71,1375.66,766.32Zm-323.16-11.13c24.6-2.14,49.3-3.05,74.11-3.55-6.3,38.28-12.26,89.48,6.11,122.3,1.28,2.28,4.28.61,3.94-1.67-3.48-23.06-7-45.07-7.17-68.51-.1-17.43,1.67-34.85.54-52.2,12.79-.23,25.6-.36,38.46-.53,3.11,0,6.2-.16,9.31-.27-5.35,35.28-9,81.45,7,111.9,1.39,2.63,6.09,1.55,5.8-1.57-1.87-19.86-5.24-39.14-5.69-59.14-.4-17.2,1.11-34.37-.11-51.46,19.86-1,39.63-2.92,59.44-4.2-3.41,37.59-12.33,79.39,12.43,110.27,1.45,1.84,3.83-.49,3-2.33-16.8-36.69-10.53-70.91-11.45-108.21,9.22-.57,18.46-.94,27.72-.94,16.43,0,32,4,47.38,8.56-12.79,32.61-24.73,88.65.41,118q-40.55,7-81.6,10.52c-53.54,4.64-106.11,1.61-159.36-2.41-5.56-.55-11.13-1.06-16.7-1.59C1064.1,837,1049.09,796.56,1052.51,755.18Zm-52.08,6.65c16.28-2.83,32.57-4.89,48.9-6.38-1.87,17-1,34.41,0,51.28,1.41,22,2.45,49.65,10.81,71-13.61-1.18-27.23-2.18-40.88-2.75-4.09-.18-8.19-.32-12.28-.47-3.32-19.26-6.5-37.73-6.6-57.54C1000.31,798.64,1003,780,1000.43,761.83Zm-49.75,10.64c-.88,14.61-1.3,29.17-1.45,43.87-.16,14.92-2.25,30.72,1.57,45.21a1.69,1.69,0,0,0,3.24,0c3.81-14.49,1.72-30.29,1.57-45.21s-.58-29.8-1.51-44.72c9-2.18,18-4.14,26.73-6,5.79-1.24,11.58-2.35,17.37-3.36-3.81,20.26-4.2,41.68-5,62.21-.63,16.27-.58,34.76,6.77,49.76-27.89-2.28-59.17-5.4-87.09-9.69,0,0,0,0,0,0,2.74-11.56,1-23.81.61-35.61q-.72-22.32-1.43-44.65A343.57,343.57,0,0,1,950.68,772.47Zm-87.77,40.18a352.59,352.59,0,0,1,43.62-26.24c1.32-.53,2.62-1.06,3.93-1.57q-.61,19-1.21,38.06c-.44,13.45-2.66,27.93.34,41.11-18.55-2.91-35.46-6.36-48.7-10.37a30.79,30.79,0,0,1-8-7.34C844.56,834.95,853.47,821.76,862.91,812.65Zm11.94,365.25c-33-6.9-64.53-16.9-94-32a168.57,168.57,0,0,1-30.69-32.76c-24-34.1-24.1-77.9-4.36-113.78,9.1-16.53,24.36-29.66,42.37-35.22,21.81-6.75,40.93,6.59,58.21,17.8.48.32.91-.37.58-.76-23.71-28.86-61.4-31.53-89.9-8.54-31.1,25.09-39,72.61-30.26,109.36,4.15,17.36,12.88,32.73,24.2,46.25-2-1.32-4-2.55-5.94-4-46.09-33-72-79.09-42.57-132.41,14.81-26.88,40.27-50.1,69.68-59.44,25.51-8.09,50,2.78,70.18,17.92q3.56,19.14,8.13,38a109.89,109.89,0,0,0-48.42-12.38c-28.35-.16-56.3,16-63,44.56-9.23,39.14,24.16,73,54.49,90.94,35.85,21.22,77.37,30.08,114.88,47.88.95,1.24,1.85,2.53,2.84,3.77A225.64,225.64,0,0,0,936,1189.62C915.46,1185.24,894.63,1182,874.85,1177.9Zm-16-155.18c4.66,38.26,13.59,74.91,31.35,108.2-42.95-20.44-94.77-28.54-122.9-69.29-19.34-28-6.9-57.91,24.77-65.14,12.49-2.85,25.75-.54,37.67,3.42C843.07,1004.34,850,1013.91,858.83,1022.72ZM1472.9,1091a3.71,3.71,0,0,0-.37.49c-15.24,29.92-30.28,48.86-60.46,65.55-28.66,15.88-62.47,27.28-95.31,29.22a1,1,0,0,0,0,1.91c34.45.69,68.9-8.64,99.72-23.54,11.16-5.42,25.16-13.66,37.07-23.95a307.17,307.17,0,0,1-16.43,31.84,84.64,84.64,0,0,1-13.53,11.23c-15.64,10.32-34.28,15.69-52.22,20.32-32.84,8.46-66.83,12-99.14,22.67a1.68,1.68,0,0,0,.9,3.24c41-9.85,83.25-10.17,123.81-22.4a167.92,167.92,0,0,0,16.93-6.12c0,.31,0,.62,0,.94a118.57,118.57,0,0,1-15,13.07c-15.37,10.95-33.36,17.79-51.23,23.38-35.14,11-71.17,13.25-107.34,18.43-.59.08-.35.87.13.94,36.08,4.79,75.12,1.51,110.73-7.89-11.06,6.61-22,13.17-32.66,20.1-42.92,17-90.47,22.85-136.82,21.62-1.28-.06-1.19,1.75,0,1.92a320.79,320.79,0,0,0,111.66-5.77,238.77,238.77,0,0,0-25.53,22.71c-25.38,12.74-51.53,23.3-80.64,27.72-1.69.24-1.12,2.71.38,2.81,22,1.72,43.39-3.48,64-11.74a1.83,1.83,0,0,0-.18.22,226,226,0,0,0-12.72,18.69,1.25,1.25,0,0,0-1.8-.82c-8.48,5.81-16.36,10.93-26.22,14.33-1.74.62-1,3.38.77,2.78,8.67-3,19.92-7.22,26.17-14.45-9.38,15.79-16.34,32.73-19.32,51.2-.7.43-1.38.9-2.13,1.31a53.74,53.74,0,0,1-22.74,6.13,1.44,1.44,0,0,0,0,2.88,65.53,65.53,0,0,0,24-4,78,78,0,0,0,3.4,31.86c-7.39,7.15-15.73,11.7-27.39,11.12a.72.72,0,0,0-.19,1.41c11.39,3.53,22,.72,29.66-6.72A128.24,128.24,0,0,0,1234,1467a2.72,2.72,0,0,0-.75.24c-6.62,3.4-12.34,8.3-18.82,12.09-7.19,4.18-14.6,8.13-22,12a1.68,1.68,0,0,0,1.3,3.05,130.37,130.37,0,0,0,24-9.44c7-3.59,14.54-7.44,18.65-14.31,1.22,1.83,2.47,3.71,3.77,5.56,9.68,13.84,23.76,22.36,39.67,28.13-44.43,29.07-92.78,32-145.29,32.81-3.39,0-3.39,5.22,0,5.26,52.06.71,114.32,2.55,155.68-34.71,25.27,7.2,53.57,9.21,75.9,15.1,33.7,8.89,68.72,44.58,34.32,73.71-28.3,24-74.58,30.33-109.77,36.12-38.35,6.3-76.67,7.11-114.54,16.25-3.58.88-5.25,4.18-5.1,7.38-7.06-.49-14.11-1-21.11-1.63-62.95-5.55-127.32-15.33-189.54-26.5-18.86-3.38-44-8.31-56.22-24.64-18-24,18.22-57.09,37.89-65,46.67-18.76,100.21-12.19,144.8-37.71a115.43,115.43,0,0,0,22.47-17.18,109.44,109.44,0,0,0,37,5.71c3.11-.06,3.07-4.61,0-4.79a98.63,98.63,0,0,1-25.25-5c-1.92-.61-3.82-1.37-5.69-2.14A158.46,158.46,0,0,0,1136,1449a176.15,176.15,0,0,0,22.48-1.77,1.44,1.44,0,0,0,0-2.77,163.28,163.28,0,0,0-19.14-1.63,149.58,149.58,0,0,0,12.28-32.76c8,2.2,15.87,3.26,24.43,1.67a1.2,1.2,0,0,0,0-2.3c-7.79-1.71-15.39-3.95-23-6.37a111.12,111.12,0,0,0,1.5-11.24c1-13.37-1.41-26.23-6-38.44a249.28,249.28,0,0,1,26.79,5.47c1.29.35,2.17-1.57.93-2.18a121.94,121.94,0,0,0-25.17-8.76c-1.7-.41-3.53-.94-5.42-1.47-7.82-17.39-19.82-33.26-32.57-47,23.37,5.28,49.41,5.77,68.43,6.14.87,0,.88-1.12.19-1.41-18.1-7.58-38-8.74-57.18-12.25a156.35,156.35,0,0,1-27-8c-2.95-2.73-5.94-5.44-9-8.05.43.21.85.43,1.27.62,1.14.53,2.61-1,1.46-1.87-5.8-4.55-11.71-9-17.64-13.48a204,204,0,0,0,37.36-.43c3.61-.36,3.78-5.89,0-5.74-18.16.65-35.91-1.59-53.49-5.73-19.33-14.13-38.85-28.09-57.6-42.84l7.67,1c22.67,3.08,48.15,3.46,69.26-6.48,2.2-1,.61-4.85-1.67-3.93-20.61,8.25-44,5.93-65.38,2.36-10.48-1.73-20.42-5.77-30.28-9.66a366,366,0,0,1-43.82-44c29.72,8.84,65.35,3,93.18-4.94.51-.14.43-1-.13-1-18.2,2.18-36.15,2.43-54.45,1.94-19-.53-34.83-6.5-51.54-13.06a248.32,248.32,0,0,1-14.36-22.69c-2.2-4-4.22-8.07-6.23-12.19,25.75,9.6,58.3,7.32,79.94-5.79.68-.39.23-1.61-.55-1.3-28.4,11.37-60.52,5-86.72-9.14-3.7-8.87-7.06-17.93-10.17-27.13-.5-3-1-5.93-1.39-8.84-.59-4.34-1.23-8.66-1.85-13,9.38,5.07,20,8.52,27.51,10.7,21.61,6.32,47.71,8.36,67.54-3.76a1.2,1.2,0,0,0-.93-2.17c-19.11,5.42-39.75,3.51-58.73-1.31-10.3-2.63-20-7.11-29.32-12.23a43.37,43.37,0,0,1-8.19-6.08c-2.4-16.61-4.89-33.2-7.69-49.75-.1-.57-.21-1.14-.31-1.7a193.24,193.24,0,0,0,25.11,11.62c29.17,11.21,64.18,13.21,91.57-3.45.82-.49.1-1.59-.73-1.22-25.9,11.07-56.59,6.87-82.68-1.42-15.42-4.91-26.3-12.54-36.25-21.52a478.21,478.21,0,0,0-12.66-49.53c-.62-2.37-1.25-4.75-1.93-7.12,18.23,15.31,43,27.33,61.54,30.25,14.73,2.3,47.36,6.54,61-2.3a.73.73,0,0,0-.55-1.33c-4.38.76-10.85-1.4-15.25-1.62-14.41-.72-28.62-.57-42.94-2.84-27.88-4.38-48.42-25.62-70.31-41.84l-.19-.54c25.38,20,70.45,20.87,99.56,23.24,42.58,3.43,85,4,127.56,8.54,126.21,13.29,260,26.38,377.75-31.21,13.75-6.72,27.57-15,38.31-26.13.19-.12.35-.27.54-.36,2.25,3.38,4.87,5.75,7.79,6.55-5.2,9.91-13.69,18-22.45,24.77-16.06,12.35-35.19,16.83-54,22.91a1.69,1.69,0,0,0,.45,3.3c21.92,2.25,44.63-8.42,62.24-20.73,6.89-4.85,16.32-13,22.64-22.32.45,1.24.89,2.51,1.28,3.77a3.24,3.24,0,0,0-1,1.51,69.6,69.6,0,0,0-2.07,9.46c-3.47,5.42-8.63,10.46-15.09,15.41-20.14,15.45-46.35,28.38-71.36,33.13-1.83.34-1.43,3.53.45,3.28,28.7-3.78,59.22-17.43,82.56-35.26a38.24,38.24,0,0,1-2.82,6.26c-7.28,12.6-21,21-33.33,27.82-21,11.75-44.78,19.31-67.3,27.72a1.21,1.21,0,0,0,.65,2.32c29.3-6.95,57.7-13.94,83.66-29.88a90.25,90.25,0,0,0,22.88-20.67c0,1.79-.07,3.58-.12,5.38a2.7,2.7,0,0,0-3.16.67c-6.81,8.6-9.54,18.94-16.48,27.72-8.42,10.62-20.51,17.88-32.29,24.18-23,12.25-52.42,18.85-78.32,19.87a1,1,0,0,0,0,1.92c31.13,3.91,60.64-2.71,88.69-16.37,13.74-6.71,33.52-20.63,41.08-37.06-.08,2.82-.15,5.61-.26,8.32-.21,4.75-.5,9.5-.74,14.26-15.68,13.15-29.25,30.47-45.41,42.91-25.65,19.71-56.4,33.84-89.23,32.79a1.2,1.2,0,0,0-.33,2.35c29.25,6.12,56.33-4.67,81.65-18.81,16.06-9,37.13-22.61,52.16-38.69q-.76,12.2-1.68,24.4c-14.54,13.31-27.22,30.25-41.12,43.39-25.69,24.26-56.09,44.5-90.82,52.73a.48.48,0,0,0,.14.94c32-1.71,58.12-17.79,83.1-36.83,14.21-10.81,31.41-24.28,45.33-39.32-2.78,11.35-6.83,22.71-11,33.79-5.78,5.42-10.6,12.09-16.12,18a284.53,284.53,0,0,1-34.64,30.84c-26.75,20.44-58.1,31.63-91,37.08-3.45.55-2.65,6.52.82,6.12,32.43-3.86,62.15-13.13,90.07-30.17a254.36,254.36,0,0,0,39.21-29.33C1474.59,1086.24,1473.75,1088.62,1472.9,1091ZM1676.4,936.58c-2.52,70.08-41.74,128.31-99.68,165-31.78,20.14-66.27,35.06-99.51,52.33,2.7-5.85,5.31-11.76,7.76-17.73a7.17,7.17,0,0,0,6.19-.88c40.11-24.5,76.93-56.46,109.74-89.94,24.19-24.7,54.35-59.35,43.92-96.94-8-28.84-45.78-16.29-63.91-7.93A173.06,173.06,0,0,0,1544,963.85c8.52-24,24.67-34.79,47.48-43.58,6.57-2.55,13.26-4.86,19.68-7.75,11.8-5.3,23.16,7,33.43,12.33a2.44,2.44,0,0,0,2.56-.21c.6,1.39,1.21,2.78,1.75,4.29,9.84,27.35,3.21,57.56-8.85,82.9-24.76,52-80.81,73.79-122.29,109.07-2.19,1.86.59,4.91,2.9,3.76,58.25-29,133.77-78,141.2-149.35,5.73-55-29.77-113.74-87.19-74.12a1.2,1.2,0,0,0,1.21,2.08c28.7-15.55,54.2-10.64,68.3,15.21A272.58,272.58,0,0,0,1621,902.41a3.24,3.24,0,0,0-3.22,0c-31.44,17.25-64.22,23.24-75.7,61.26a.83.83,0,0,0,.81,1.12A151.25,151.25,0,0,0,1527,980.26c.1-13.14-.63-26.38-1.59-39.54,15.68-37.59,37.24-71.55,80.6-82.37C1657.08,845.61,1677.93,894.14,1676.4,936.58Z" transform="translate(-635.83 -384.92)"/><path class="cls-1" d="M1010.68,1552.08c39.72,32,89.43,40.24,139.27,40.67,27.87.22,55.57-3.58,82.82-9.14,23.17-4.71,54.09-9.9,73.31-24.29,1.49-1.1,1.31-4.3-1.08-4-20.15,2.5-40.22,12.31-60.12,17.22-26.2,6.44-53.06,9.79-79.95,11.6-52.27,3.55-108.7-4.26-153.38-33.16C1010.87,1550.51,1010,1551.57,1010.68,1552.08Z" transform="translate(-635.83 -384.92)"/><path class="cls-1" d="M1163,1615.47c-61.48,6.89-134,17.76-186.45-23.44-.94-.73-2.26.47-1.36,1.37,45.86,45,115.57,38.61,174.55,33.25,68.78-6.26,146.17-19.79,204.41-59.58,3.78-2.59,1.46-9.85-3.32-7.89-28.66,11.7-55.3,26.58-85.07,35.92C1232.72,1605.44,1197.43,1611.6,1163,1615.47Z" transform="translate(-635.83 -384.92)"/><path class="cls-1" d="M1222.13,1215.1c7.32-.55,15.42-6.28,14.61-14.61a31,31,0,0,0-.52-3.9c-1.83-8.29-10.47-11.55-18-10.21-5.3,1-10.61,1.61-15.92,2.18.37-11.48-3.2-25-4.47-33.09-9.5-60.6-14.94-127,4.42-186.14,3.73-11.4-14-16.15-17.84-4.93-1.32,3.61-2.5,7.21-3.63,10.84-5.87,17.58-11.8,35-19.67,51.88-9.91,21.16-25.22,30.72-39.81,46.94a2.2,2.2,0,0,0,.94,3.61c18.16,7.4,34.05-8,46.93-29.64-1,22.15-.21,44.47.76,66.59.74,16.63,2.39,33,3.91,49.61a182.51,182.51,0,0,1,.8,24.18c-.19.84-.27,1.71-.42,2.57-13.41,1.08-26.79,2.55-40.17,6.15a1.93,1.93,0,0,0,0,3.69C1163,1209.23,1191.65,1217.34,1222.13,1215.1Z" transform="translate(-635.83 -384.92)"/><path class="cls-1" d="M1453.76,837.09c-4.76-12.48-8.78-25.17-12.68-38a1,1,0,0,0-1.85.51c2.54,13.35,4.1,27,11,38.91C1451.33,840.39,1454.56,839.15,1453.76,837.09Z" transform="translate(-635.83 -384.92)"/><path class="cls-1" d="M812.08,819.55c2.26-.83,2.75-4.46,0-5.07-35.32-7.93-65.28-21.91-94.71-43.25-17.33-12.56-32.82-27.36-47.76-42.63-8.75-8.93-15.21-24-27.32-28.09-3.4-1.14-6,1.81-6.37,4.85-1.52,12.78,14.09,26.15,22,35,15.12,16.88,33.32,31.08,51.65,44.3C735.2,803.11,778.67,831.93,812.08,819.55Z" transform="translate(-635.83 -384.92)"/><path class="cls-1" d="M730.81,583.31c12,26,25,51.46,39.26,76.31,14.45,25.24,46.81,88.55,82.45,87.83a1,1,0,0,0,.68-1.63c-11.84-12.35-25.72-21.79-36.88-35.14-17.24-20.67-30.59-44.77-43.23-68.39C761.68,621,751.48,599,741.62,577c-8-17.83-14.06-40.66-25.8-56.34-3.5-4.64-10.09-1.87-9.2,3.9C709.67,544.15,722.49,565.37,730.81,583.31Z" transform="translate(-635.83 -384.92)"/><path class="cls-1" d="M913.25,565.44c6.31,26.52,13.83,52.82,21,79.08,2.05,7.46,13.62,30,12,37.26a.26.26,0,1,0,.5.09c1-10.81-1.43-20.84-3.86-31.4-5.87-25.58-11.77-51.16-17.29-76.82-5.76-26.74-11.87-53.42-16.59-80.39-3.19-18.28-.6-41.71-6.53-59-.94-2.75-4.06-2.88-5.69-.75-8.87,11.55-2,35.3-.21,48.29C900.58,509.89,906.69,537.84,913.25,565.44Z" transform="translate(-635.83 -384.92)"/><path class="cls-1" d="M1043.67,648.42c16.71-37.21,16.9-79.58,19.23-119.65,1.5-26.05,3.59-52,9.07-77.58,4.8-22.38,19.57-40.81,24.49-62.31a3.15,3.15,0,0,0-4.58-3.53c-30.78,17.78-34.74,75.34-37.75,106.69-4.94,51.67-3.11,103.08-17,153.61C1036,649.48,1042,652.21,1043.67,648.42Z" transform="translate(-635.83 -384.92)"/><path class="cls-1" d="M1200.84,647.05c24.58-70.89,48.15-142.85,55.83-217.88.59-5.81-8.57-5.81-9.11,0-6.8,73.81-29.43,146.07-50,217C1197,648.25,1200.14,649.07,1200.84,647.05Z" transform="translate(-635.83 -384.92)"/><path class="cls-1" d="M1318.82,647.8c42.28-64,74.39-138.26,98.66-210.91,2.84-8.5-10.67-12.21-13.39-3.69-23.67,73.9-61.22,141-89.64,212.77C1313.39,648.62,1317.41,650,1318.82,647.8Z" transform="translate(-635.83 -384.92)"/><path class="cls-1" d="M1447.61,666.92c23.9-12.74,42.22-33.64,60-53.65,21.78-24.48,45.36-48.92,65.38-74.76,3.17-4.1-1-11.52-6.11-7.91-22.61,16-39.77,40.3-57,61.68-20.42,25.3-42.47,47.46-66,69.75C1441.19,664.54,1444.55,668.53,1447.61,666.92Z" transform="translate(-635.83 -384.92)"/><path class="cls-1" d="M1469,691.77c-2.19.39-1.57,3.71.51,3.78,31.22.51,59.86-11.27,87.77-24.26,30.6-14.25,67.48-30.33,93.33-52.21,2.23-1.9-.25-4.79-2.56-4.4-28.47,4.63-56,26-80.67,39.91C1536.37,672.08,1504.24,685.62,1469,691.77Z" transform="translate(-635.83 -384.92)"/><path class="cls-1" d="M1558.45,729c-3.61-.77-5.11,4.55-1.53,5.54,16.3,4.58,32.18,5,49,2.55,24.08-3.56,49.49-5.72,73-11.35,2.86-.67,2.63-4.75,0-5.57C1640,708.32,1599,737.76,1558.45,729Z" transform="translate(-635.83 -384.92)"/></svg>