<svg id="Слой_1" data-name="Слой 1" xmlns="http://www.w3.org/2000/svg" viewBox="0 0 136.89 124.4"><defs><style>.cls-1{fill:#fff;}</style></defs><title>Иконка Лендинг 2</title><path class="cls-1" d="M168.93,147.67c-3.5-4.09-9.07-5.53-14-7.11a1.38,1.38,0,0,0-1.34,2.29l.34.29q-.1.66-.17,1.33c-1.54,0-3.09,0-4.64,0a16.27,16.27,0,0,0,.19-4.05c0-2.59,0-5.19-.06-7.78q-.09-7.51-.24-15l.31-.3c.09-.09,0-.22-.14-.14l-.18.14c0-1.15,0-2.3-.07-3.45-.17-6.2-.37-12.4-.5-18.6-.06-2.67-.2-5.35-.39-8l.56-.43c.2-.15,0-.49-.2-.34l-.39.29c0-.16,0-.32,0-.48-.16-2.19-.12-4.77-1.54-6.55a.26.26,0,0,0-.37,0,5.62,5.62,0,0,0-.42.62,1.17,1.17,0,0,0-.92-.32c-3.57-.08-7.16.21-10.74.16-3,0-7.12-.11-10.22-1.23,0-.18.08-.35.13-.53a0,0,0,0,0-.05,0c-.16.13-.29.28-.44.42a10.1,10.1,0,0,1-1-.45c-.05,0-.13,0-.09.09a8.26,8.26,0,0,0,.65.8c-3.65,4-3,10.7-2.47,15.75.68,6.41,1.71,12.66,1.73,19.12,0,6.06.13,12.12,0,18.19-.09,4.92-.87,9.79-1,14.66q-3.43.14-6.87.13a1.54,1.54,0,0,0,.87-1.53c-.22-7.38-1.06-14.77-1.82-22.11-.74-7-1.16-14.12-2.13-21.13l.07,0c2-1.09.24-4-1.76-3-3.47,1.71-7.51,1.92-11.3,1.86-2.37,0-6.16,0-8.41-.91a.7.7,0,0,0-.28-.08.47.47,0,0,0-.34.09.62.62,0,0,0-.34.54c-.51,9.6-.63,19.21-.51,28.82,0,1.22-.43,12.22,1.06,16.48-3.94-.17-7.89-.2-11.84-.17,2-2,1.41-7.3,1.44-9.46a125.57,125.57,0,0,0-.5-13.24.16.16,0,0,0,0-.13c0-.45-.09-.91-.14-1.37l.09,0c1.58-.69.87-2.69-.48-3.1a.41.41,0,0,0-.77-.05,1.85,1.85,0,0,0-.5.15c-3.12,1.45-6.59.53-9.73,1.47-.84.25-2.39.06-3.43.48l.06-.18c.4-1.06-1.27-1.72-1.8-.76-4.18,7.54-3.25,17.62-2.38,25.87a1.89,1.89,0,0,0,.16.57c-3.71,0-7.42-.11-11.12,0a53.31,53.31,0,0,0-5.72,0c2.13-6.19,2-13,1.58-19.44-.05-.95-.12-1.9-.2-2.84a.88.88,0,0,0,.86.26c4.81-1,9.47-4.49,13.63-7q7.26-4.38,14.41-8.93c9.94-6.3,19.63-13,29.25-19.78q20.13-14.2,39.68-29.2c.47.43.93.86,1.38,1.32.69.82,1.38,1.62,2.08,2.38.9,1,2.63-.33,1.84-1.42l-.11-.14a1.52,1.52,0,0,0,2-.66c1.26-2.11,2.48-4.21,3.62-6.35a57.91,57.91,0,0,1,3.61-5.23,2,2,0,0,0,.39-1.4l1.09-.85a1.37,1.37,0,0,0,0-2.23l1-.78c1.11-.85.54-3-1-2.45a29.21,29.21,0,0,0-7.39,3.85c-.92.45-1.81,1-2.59,1.41a71,71,0,0,1-11,4.86,1.64,1.64,0,0,0-1.16,1.39.26.26,0,0,0,0,.46h0a1.53,1.53,0,0,0,1.62,1.45l.51,0c.39.31.78.62,1.15,1a1.07,1.07,0,0,0,.22,1.21Q119.51,71.68,99.27,85.69c-9.33,6.45-18.79,12.71-28.24,19q-7.07,4.68-14.25,9.2c-4.14,2.61-9.35,5.05-12.61,8.75a.9.9,0,0,0-.09.14c-.61-7.26-1.65-14.48-1.92-21.77-.38-10.52,1.4-22,.58-32.83,0-.39,0-.78,0-1.17,0-3,.17-7.43-.69-11.15l.49,0a1.24,1.24,0,0,0,1.19-1.56l-.16-.39.26.53c.46.94,2.19.54,2-.55-.88-6.9-3.52-13.25-5.94-19.71a1.18,1.18,0,0,0-2.25,0c-.22.64-.45,1.3-.68,2a1.45,1.45,0,0,0-.1.27l0,.08C35,41.85,32.8,47.77,33,53.47a1.25,1.25,0,0,0,.21,2.31,20,20,0,0,0,4.37.28c3.81,14.13.81,29.73.87,44.09,0,4.47.42,8.95.88,13.41,0,.92,0,1.83.05,2.75.1,9.1,0,18.2.1,27.3a21.93,21.93,0,0,1-.91,2.5c-.94,2.14,1.93,4,3.15,2.41,1.44.81,3.65,1,5.23,1.25a95.86,95.86,0,0,0,13.17.82c9.9.19,19.81-.08,29.7.27,13,.45,25.77,1.49,38.76.43,8.25-.68,16.53-2.14,24.76-2,0,.37-.06.74-.09,1.11l0,0a1.05,1.05,0,0,0-.06.79c-.1,1-.25,2-.45,3a.49.49,0,0,0-.1.47c0,.11,0,.21-.07.32l-.08,0a1.11,1.11,0,0,0-.35,1.58c-.23,1.08,1.39,1.42,1.81.38l.1-.23.28-.13a1.25,1.25,0,0,0,1.54.36,36.2,36.2,0,0,0,5.83-3.9,23.25,23.25,0,0,0,4.05-2.15,2.61,2.61,0,0,0,2.68-1.19A1.39,1.39,0,0,0,168.93,147.67ZM147.84,56l-.59-.22,0-.32.81-1,1.22-.94Q148.52,54.77,147.84,56Zm-7.68-1.55a1,1,0,0,0,0,.26l-.34-.21ZM71.57,146l.22-.18c.25-.18.11-.67-.23-.54l-.29.13a36,36,0,0,0,4.87-6.23c0,.48-.05,1-.09,1.45-.08,1,0,3.4-.5,4.33-.24.33-.48.65-.7,1Zm.41-23c-1.48,2.93-3.81,5.49-5.76,8-1.48,1.93-3.81,4.75-2.37,7.24a.4.4,0,0,0,.73-.2c.36-5.91,6.12-9.67,8-15.1a18.34,18.34,0,0,0,4.21-.71c-.08,1-.14,2-.19,3-4.09,5.76-8.22,11.44-11.47,17.75a.59.59,0,0,0,0,.6l.34.45a.6.6,0,0,0,.64.26c1-.16.94-1.65,1.31-2.33a.35.35,0,0,0-.18-.48c1-1.93,2.15-3.8,3.26-5.68,1.92-3.25,4-6.39,6.06-9.55-.1,2.35-.14,4.7-.19,7.07q0,2.26-.17,4.52c-1.66,3-4.49,5.57-6.91,8.16l-6.41.09a1.72,1.72,0,0,0,0-.56c-.39-4.3-1-9-1-13.67a1.31,1.31,0,0,0,.67.55.33.33,0,0,0,.25-.6c-.56-.38-.4,0-.15-.4a3.65,3.65,0,0,0,.2-1.08,10.63,10.63,0,0,1,1.34-3,22.64,22.64,0,0,1,3.45-4.52c.35,0,.7.08,1.06.11C69.84,123.08,70.91,123.11,72,123.07ZM63.15,122a3.65,3.65,0,0,0,1.32.49c.73.05,1.44.16,2.15.27A14.76,14.76,0,0,0,62,128.46,30.25,30.25,0,0,1,63.15,122Zm45.75,16.14a18.76,18.76,0,0,1-6.26,8.7l-3.14-.15c3.1-4.36,4.77-9.6,9.61-12.75a.3.3,0,0,0-.3-.51c-5.32,2.36-8.36,8.22-11.34,13.15l-1.81-.1c4.1-6.51,9.51-12.61,14.63-18.25.34,4.43.7,8.87,1,13.3-.45,1.13-.89,2.27-1.3,3.41-.25.68-.71,1.4-1.06,2.13q-2.31-.06-4.62-.16c2.53-2.36,4.52-5.21,4.66-8.76C109,138.07,108.92,138.06,108.9,138.13Zm-16.94,7c0-.5,0-1-.09-1.5.52-.45.77-1.7,1.05-2.42a.32.32,0,0,0-.07-.36c.31-.58.62-1.16.95-1.73a77.71,77.71,0,0,1,6-8.73c3.22-4.25,6.67-8.27,9.81-12.54q.13,2.15.29,4.31.19,2.69.4,5.38a113.28,113.28,0,0,0-10.65,11.68c-1.65,2-4.13,4.48-5.26,7.13L92,146.26C92,145.92,92,145.48,92,145.16Zm-1.68-42.93A11.46,11.46,0,0,0,95.22,104a40.12,40.12,0,0,0-4.54,7.59Q90.51,106.92,90.28,102.23Zm20.81,43.5c.18-.47.33-.94.47-1.42q.05.65.1,1.31a1.77,1.77,0,0,0,1,1.52l-2.12,0C110.77,146.62,110.93,146.13,111.09,145.72Zm-1.5-42.59a88.48,88.48,0,0,0-.09,13.71c-6.4,7.19-13.31,14.44-17.91,22.89q-.1-1.67-.17-3.33a.59.59,0,0,0,1-.16l.31-.52A16.77,16.77,0,0,1,95,133.16c.25-.26-.09-.74-.4-.52l-.14.1c2.53-4.27,5-8.57,7.55-12.82a59.48,59.48,0,0,0,7.06-16.06.13.13,0,0,0-.25-.07c-3.71,11.67-12.69,20.4-17.46,31.45q-.07-1.62-.12-3.24c.28-.38.56-.76.83-1.14a.32.32,0,0,0-.11-.44,261.64,261.64,0,0,0,13.38-26.22A19.26,19.26,0,0,0,109.59,103.14Zm-5,1.15c-4.8,7.9-8.85,16.26-13.39,24.33,0-.69,0-1.39-.05-2.08q0-1.5-.08-3a.3.3,0,0,0,.31-.16c2.92-6.21,7.25-12.11,8.74-19A32.47,32.47,0,0,0,104.55,104.29Zm-5,.12A93.3,93.3,0,0,1,93.82,116c-.79,1.43-2.25,3.3-2.86,5.14q-.08-3.17-.18-6.33a39.59,39.59,0,0,1,5.36-10.66c.69.08,1.41.14,2.14.2Zm46.53,37.71a9,9,0,0,0,.32,2.49l-1.94.13A11.55,11.55,0,0,0,146.1,142.12Zm-4.52-59.26a43.1,43.1,0,0,0-8.1,11.63c-2.5,4.9-5.16,10-7.18,15.14-.26.66.73,1,1.08.46,2.86-4.2,4.47-9.44,6.59-14a55.65,55.65,0,0,1,8.17-13.2l2.59,0a27.65,27.65,0,0,0-.41,7,78.14,78.14,0,0,0-9.27,10.31c-2.93,3.8-7.8,9.78-7,15,.05.34.57.24.58-.08.15-5.3,4-10.46,7-14.56a72,72,0,0,1,8.69-10c.06,1.37.13,2.66.13,3.72,0,2.08,0,4.17.1,6.25-3.63,4.52-7.51,8.85-11.12,13.38a67.54,67.54,0,0,0-5.49,7.91c-.8,1.37-1.72,3-1.39,4.62.07.34.57.25.58-.08,0-2,1.57-4.08,2.58-5.69,1.81-2.87,3.92-5.55,6-8.25,2.9-3.85,6-7.57,8.89-11.41.12,4,.3,8.09.44,12.12q-4.39,6.19-9.26,12c-3.21,3.84-6.85,7.22-10.22,10.89,0,0,0-.09,0-.13.24-6.26.14-12.53.06-18.79a125.3,125.3,0,0,0-1.38-17.27l-.2-1.31a.57.57,0,0,0,.44-.54C124.77,92,127.53,87,131,82.43l.16,0A84.83,84.83,0,0,0,141.58,82.86Zm-18-3a8.45,8.45,0,0,0,2.85,1.63,15.63,15.63,0,0,0-3,10.38c.06.5.88.73,1,.13.56-3.76.55-7,2.72-10.29a20.88,20.88,0,0,0,3.11.61c-3.07,3.78-5.77,8-6.61,12.83C122.89,90.07,122.49,84.87,123.57,79.88Zm6.58,66.47a.32.32,0,0,0-.21-.25c4.14-6.23,10.23-11,15.05-16.69.24-.29-.15-.7-.42-.42-5.55,5.87-12.29,10.67-16.6,17.58q-1.94.18-3.89.3c1.58-2.59,1.43-6.77,1.45-9.85l0,0c4.14-3.06,7.48-7.51,10.7-11.49A126.25,126.25,0,0,0,145,113.31c0,.19,0,.38,0,.56.07,2.19.17,4.38.27,6.58-5.65,5.14-10.64,11.23-15.51,17-1.44,1.71-3.62,3.77-4.12,6-.21,1,.6,1.32,1.35.94a.36.36,0,0,0-.09-.66c.12,0,2.76-3.93,2.89-4.09,1.59-2,3.27-4,4.92-5.93,3.45-4.11,6.9-8.41,10.59-12.39.15,3.42.32,6.84.46,10.26q.16,3.95.28,7.89c0,.5,0,1,0,1.52a37.7,37.7,0,0,1-3.25,3.84c-1.15.1-2.3.22-3.45.34,2-2.38,3.92-5.38,4.05-8.56a.16.16,0,0,0-.32,0,23.52,23.52,0,0,1-5.47,8.8c-1.86.22-3.71.45-5.54.7Zm25.15-2,.33.25h-.31Z" transform="translate(-32.37 -33.28)"/><path class="cls-1" d="M125.06,103.91c.07.35.53.28.63,0,2.41-6.26,5.76-12.83,10.34-17.79.26-.28-.15-.69-.42-.42A50.58,50.58,0,0,0,128,96.2C126.84,98.23,124.54,101.41,125.06,103.91Z" transform="translate(-32.37 -33.28)"/></svg>