<svg id="Layer_2" data-name="Layer 2" xmlns="http://www.w3.org/2000/svg" viewBox="0 0 1094.05 922.83"><defs><style>.cls-1{fill:#fff;}</style></defs><title>Иконка Редизайн сайта</title><path class="cls-1" d="M1098.29,1047.85c19.58-21.61,38.18-43.33,58.83-63.95a7.12,7.12,0,0,0,1.86-3.29c1.8-1.7,3.58-3.42,5.37-5.15,17.66,27.47,33.6,56.38,52.83,82.35-5.79,1.47-11.51,3.27-17.26,4.93-10.16,3-26.15,4.67-34.7,11.13a10.5,10.5,0,0,0-3.34,4.6c-4.69-.44-7.24,6.93-2.68,9.43,53.92,29.78,106.39,63.23,161.44,90.86,50.19,25.19,101.28,43.36,147.46,76.1a6.55,6.55,0,0,0,2.25,1c2.48,6.52,13.13,5.83,13.46-2.36,3.78-93.25-17.36-187.26-24.85-280-.4-4.95-6-9.57-10.8-6.2-16.56,11.57-33.86,18.09-52.3,25.14C1350,936.86,1322.55,866,1271.19,814.73c-21.49-21.48-44.45-23.37-73.4-24.78-39.29-1.91-78.5-2.47-117.48,3.35a122.2,122.2,0,0,0-47.76,17.52A3,3,0,0,0,1029,813c-32.07,21.65-52.68,57-74.31,93-17,28.3-34.28,55.87-49.94,85-16.14,30-31.78,64.76-58.43,87.14-.49.44.15,1.16.69.89.72-.38,1.4-.84,2.12-1.25a2.67,2.67,0,0,0,1.19,3.19c26.61,12.7,62.72,7.38,91.64,7.26,38.26-.18,76.56.19,114.8-1a8.61,8.61,0,0,0,4.79-1.51,5.56,5.56,0,0,0,8.17-3.19c.64-1.93,1.4-3.77,2.11-5.65,1.06-2.24,2.25-4.34,3.4-6.47C1084.54,1063.21,1093.16,1053.49,1098.29,1047.85Zm-33.44-236.79c44.36,7.87,63.85,38.06,84.67,76.94,16.08,30,30.81,65.55,59.45,86,.52.38,1.18-.48.68-.89-38.66-31.31-63.7-151.36-122.15-166.66,3.24-.48,6.47-.9,9.72-1.27a2.92,2.92,0,0,0,2,1.12c35.36,3.88,60.56,49.89,82.22,74.22,28.59,32.11,43.88,75.11,62.06,113.42.41.86,1.91.23,1.54-.65-18-44.77-33.73-87.65-66.33-124.27-19-21.33-38.08-54.55-66.56-65.23,11.79-.8,23.64-1,35.47-.95,64.16,46.52,75.54,135.18,136,186.27.81.7,2-.44,1.19-1.19-56-52.19-68-136.51-127.09-185l3,.07a3.88,3.88,0,0,0,3.46,4.16c82.14,8.32,102.34,121.45,144.54,176.65.43.55,1.39,0,1-.57C1272,927.11,1255.41,826,1183,803.71c9.11.38,18.22.77,27.33,1.28,62.66,32.43,80,109.15,118.46,163.82.41.58,1.34.06,1-.57-33.71-55.06-49.51-126.59-105.68-162.51h.17c19.74,1,35,17,47.36,30.69,45.32,50.12,70.68,116.12,115.21,167.06,3.4,3.9,8,2.39,10.25-.92,17.05-.93,33.32-8.09,48.19-16.72,4.07,83.47,17.39,166.42,23.27,249.88-37.12-31.62-87.94-47.27-131.39-67.4-52.8-24.46-100-57.75-153.12-81.15,5.65-2.78,11.16-6.18,16.22-8.69,8.5-4.19,17.24-8,25.56-12.57a8.71,8.71,0,0,0,7.68-4.51,3.63,3.63,0,0,0,0-5.86,6.54,6.54,0,0,0-.45-.73c-22.07-28.62-40-60-59.55-90.31a7.84,7.84,0,0,0-5.13-7.94c-7.52-11.41-15.34-22.61-23.81-33.41-30.23-38.57-78.43-60.82-105.23-102.3a85.16,85.16,0,0,1,19.22-8.23C1060.65,812.05,1062.76,811.6,1064.86,811.06ZM939.32,1068.83c12-19.32,27.35-36.56,41.12-54.59,1-1.29-1.1-2.78-2.2-1.69-17.83,17.58-34.94,34.75-47.86,56-6.58-.22-13.39-.55-20.28-.76,7.29-9.92,21.74-24.92,24.22-28,10-12.13,19.45-24.59,30.31-35.94.52-.55-.23-1.24-.79-.8-16.22,12.83-30,27.35-43.42,43.05-6.15,7.2-12.33,14.4-18.64,21.48-4.53,0-9.06,0-13.53.25,15.79-26.64,37-50,56.59-73.78.68-.83-.41-2-1.19-1.19-22.7,23.37-46.09,45.29-62.07,74a3.2,3.2,0,0,0-.4,1.45,98.14,98.14,0,0,0-25.52,5.44c39.66-26.44,59.83-80.4,82.68-119.75,13.6-23.43,29.27-45.88,43.64-68.85,13.81-22.13,29.49-45.5,51.08-60.37a106.22,106.22,0,0,0,6.61,12.88c-39.85,44.9-85.33,88.14-107,145.31-.68,1.79,2.25,3,3.08,1.29,25.67-53.09,69.53-96.07,108.38-139.78,1.8,2.56,3.69,5.06,5.64,7.54C1014.88,897.2,981.53,946,959,998.39a.28.28,0,0,0,.48.28c31-47.42,62.51-94,96.2-139.49,4.78,5.38,9.9,10.53,15.2,15.54-28.07,36.87-42.5,82.12-73.41,117-2.15,2.43,1.22,5.88,3.56,3.58,33.42-32.62,50.36-76.3,78.49-112.68,6.35,5.69,12.83,11.2,19.2,16.7-13.12,10.17-23.27,29.71-32.77,42.17-16,21-30.58,43-42.19,66.73a.56.56,0,0,0,1,.57c13.85-22.28,31-42.15,47.4-62.51,9.52-11.77,26.76-26.32,32.84-41.51,4.34,3.8,8.57,7.61,12.61,11.47,1.23,1.18,2.39,2.42,3.59,3.61-31.06,31-61.22,63.09-87.4,98.39-.41.54.42,1.06.89.68,32.94-28.74,62.63-60.91,93.19-92.13,1.35,1.45,2.67,2.91,4,4.39-19.92,27.75-45.44,51.32-68.56,76.34a1.41,1.41,0,0,0,2,2c25.35-23,51.6-44.22,72.4-71.4,2.46,3,4.87,6.08,7.22,9.18-13.76,12.8-26.11,27.59-39,41.24-13.49,14.24-26.53,28.11-37.06,44.71-.36.55.42,1.11.89.68,14.11-13.11,27.44-26.87,41.14-40.42,13-12.91,27.32-25.32,39-39.59,1.57,2.18,3.13,4.35,4.66,6.58-10.3,4.64-19.54,9.85-27.38,18.3-2.85,3.06-1.89,8,1,10.3-2.74,2.84-5.42,5.75-8,8.77a349.36,349.36,0,0,0-29.94,31.47,5.69,5.69,0,0,0-.31.58,179.17,179.17,0,0,0-21.86,30.1c-3.63,3.57-7.88,6.39-11.36,9.78-1.21,0-2.44,0-3.67-.07.89-1.41,1.7-2.81,2.46-4,6-9.33,11.91-18.49,20.69-25.45,2.28-1.8-.65-5.47-3.06-4-8.56,5.33-15.19,12.54-21.55,20.27-2.81,3.4-7.93,8-11.4,12.85-3.44-.07-6.87-.18-10.32-.22,6-14.59,17.14-27,25.76-40,.9-1.35-1.1-2.81-2.2-1.7-12.54,12.7-24.74,24.84-31.22,41.63q-9.54-.11-19.09-.16c1.95-5.37,3.34-11.26,5.36-15.42a204,204,0,0,1,21.43-34.76c.41-.55-.43-1.06-.89-.68a118.63,118.63,0,0,0-26.89,31.75c-2.82,4.73-7.78,12.11-9.82,19.07l-26.41-.06c8.12-18.26,21.41-34.64,34.31-49.59a1.12,1.12,0,0,0-1.59-1.57c-16.76,14.74-32.2,30.72-41.64,51.16-4.95,0-9.9,0-14.86,0Z" transform="translate(-603.69 -788.63)"/><path class="cls-1" d="M1696.18,1414.71c-2.39-12.54-7.77-24.68-17-32.53-3.56-6.3-6.89-11.36-8.48-13.56a274.64,274.64,0,0,0-20.22-24.55c-14.23-17.21-31.54-35.53-50.24-46.43a7,7,0,0,0-4.15-6.36c-30.07-14.49-65.91-12.22-98.45-12-34.51.26-71.16,18.3-105.16,11.83a2.87,2.87,0,0,0-2.71,1.11c-.26-.28-.52-.57-.78-.86-2.39-2.47-7,.92-4.85,3.77,29.57,38.88,54.85,83.65,90.27,117.91a223.28,223.28,0,0,0,14.86,18.41c-1.3,0-2.59.07-3.88.09-35.3.51-74.24-4.61-108.37,6.42,2.4-17.94,2-36.29,2.35-54.39.16-8.26-9.85-9.3-14.08-3.81-33,42.73-84.15,63.31-132.19,84.13-47.35,20.53-92.71,50.88-143,63.48a5.69,5.69,0,0,0-4.06,3.26c-2.05.63-3.35,3.58-1.41,5.15l3.16,2.56a5,5,0,0,0,1,.8c41.58,33.67,86.14,71.22,133.36,96,20.15,10.55,41.1,19.54,61.38,29.86,16.77,8.53,46.95,21.24,53.13,40.78,2.22,7,13.86,8.22,15.39,0,5.13-27.43,1-56,2.84-84.08,1.31,3.39,4.59,5.91,9.07,4.54,27.33-8.35,57.23-4.89,85.37-3.68,29.27,1.25,56.91-3.55,85.9-4.37,18.17-.52,42.94,3.62,59.52-6.33,15.76-9.46,23.8-24,31.57-39.46a3.38,3.38,0,0,0,2.1-4.2c1.67-3.35,3.35-6.69,5.13-10,10.07-18.93,26.47-38.15,40.13-58.49,1.24-1,2.49-2,3.71-3.06a3.67,3.67,0,0,0,1-4.19c10.51-16.82,18.46-34.43,18.89-53.28a4.67,4.67,0,0,0,.17-.51c.19-1.8.3-3.65.35-5.54,0-.07,0-.15,0-.22a84,84,0,0,0-.52-11.28A6.58,6.58,0,0,0,1696.18,1414.71Zm-274.36-109.3c.41,8,5.25,15.54,9.1,22.29a238.85,238.85,0,0,0,17.87,26.15c.42.57,1.34.09,1-.55-4.63-8.18-8.9-16.47-12.72-25.06-3.23-7.25-4.82-16-8.71-23,12.47-.73,25.27-3.49,36.6-5.22a66.6,66.6,0,0,0,5.85,22.33,35.92,35.92,0,0,0,6.48,9.39c2,2.15,4.15,1.79,6.79,2.62a.84.84,0,0,0,.82-1.4c-1.48-1.32-1.23-2.78-2.42-4.1a29.39,29.39,0,0,1-5.43-9.14,53.11,53.11,0,0,1-3.26-20.82c3.8-.44,7.59-.87,11.44-1.21.2,7.61,2.56,14.93,5.64,21.87,4.27,9.69,9.17,14.59,18.28,19.25.28.15.64-.25.36-.48-3.52-2.94-5.24-7.78-7.73-11.54a60.59,60.59,0,0,1-6.55-14.17,48.34,48.34,0,0,1-2.47-13.85,14.11,14.11,0,0,1,0-1.59c6.37-.41,12.78-.67,19.23-.73,2.12,11.51,11,23.72,15.36,33.23,1.08,2.3,5,.65,4.11-1.73-2.35-6.5-5.07-12.86-7.57-19.31-1.48-3.86-2.43-8-3.61-12.12,4,.09,8,.2,12,.41,2.28,4.77,7,9.09,10.05,13.08,3.67,4.85,7.23,9.62,11.34,14.13.69.76,1.7-.2,1.32-1-2.47-5.41-5.11-10.64-8-15.84-1.58-2.85-3.15-6.42-5.06-9.6,1.91.16,3.79.35,5.7.55.71,5.37,3.56,10.42,5.94,15.34,3.93,8.1,10.55,15.07,17.42,20.78.91.76,2.59-.28,1.77-1.37-4.89-6.42-8.1-13.42-11.61-20.62-2-4.16-3.62-8.86-5.81-13.11,5.53.79,11,1.73,16.38,2.88,3,4.9,6.48,9.56,9.37,14.65,4.4,7.77,8.44,15.67,13.5,23,1.82,2.65,6.07.28,4.36-2.56-5.11-8.5-9-17.58-13.42-26.48-1-2.07-2-4.09-3.07-6,2.35.64,4.76,1.18,7.07,1.89a1.2,1.2,0,0,0,.31.06,501.15,501.15,0,0,1,56.09,51,196.18,196.18,0,0,1,20.36,25.43,5.39,5.39,0,0,0,.65,3.23,95.85,95.85,0,0,0,8,11.19,25.26,25.26,0,0,1,2.12,6.58c-3.18,2.33-5.72,5.3-8.6,8.06a4.38,4.38,0,0,0-.25-.95c-8.53-17.71-20.88-33.25-32.88-48.73-1-1.28-3,.35-2.21,1.7,9.55,17,18.14,34.43,27.35,51.57a4.39,4.39,0,0,0,1.18,1.44,49.9,49.9,0,0,1-9.38,3.93c-4.63-11.47-14.13-21.8-21.16-31.4-10.4-14.19-21.43-29.23-25.14-46.71-.41-1.85-3.42-1.44-3.32.47.81,15.54,6.68,29.13,14.59,42.34,7.54,12.57,15.1,25.86,23.16,38.3l-4.41.9c-4.31.89-8.69,1.57-13.07,2.17-4.29-14.27-14.44-27-23.06-38.75-10.8-14.74-20.66-29.58-29.09-45.82-.93-1.8-3.41-.48-3.08,1.29,3.08,16.73,12.07,30.42,21.23,44.52,8.53,13.12,15.3,26.38,22.22,40.07-12.66,1.12-25.46,1.41-38.13,1.51-5.43-30-21.31-59-32.88-86.78-.33-.79-1.79-.8-1.65.23,3.88,29.27,15.29,57.92,23.35,86.62h-1.45c-8.87,0-17.74.25-26.6.41-15.51-27.5-14.51-70.74-39.07-92.42-.38-.35-1.16,0-.95.55,11.27,27.79,14.23,58.87,25.73,86.44-1.11-.32-2.22-.7-3.34-.92-.2-.07-.41-.13-.6-.19a.15.15,0,0,1,0,.07c-.41-.07-.81-.2-1.23-.26a3.61,3.61,0,0,0-2.73.81l-.44-.28c-8.69-15-16.4-29.83-22.81-46.6-6.69-17.53-13-33.9-22.83-50-.81-1.31-3.11-.47-2.56,1.09,8.5,23.93,14.61,53.17,25.86,78.42-4.25-3.75-8.37-7.7-12.38-11.74-6-8.1-12.42-15.73-19.78-21.74-20.48-24.26-39-50.79-59.84-74.07C1404.34,1303.84,1412.91,1305.32,1421.83,1305.41ZM1635,1534.74c-57.82,4.67-115.16,11.79-173.25,7.17-2.2-.16-2.09,3.1,0,3.38,56.1,7.16,110.87,3.29,166.74-1.54a177.2,177.2,0,0,0-13,21.07c-.18.36-.36.71-.55,1.06-53.85,8.88-113.39,22.73-165.32,1.38-1.47-.61-2.5,1.86-1.08,2.56,50.77,24.63,107.46,14.27,161.18,5.38a74.13,74.13,0,0,1-11.55,14.78c-49.76.65-99.21,5.89-148.93,7.49a1.13,1.13,0,0,0,0,2.26c46.37.81,92.65-1.86,139-2.37-7.7,4.29-17,6.59-28.84,6.82-23,.45-44.87,2-67.66,3.94-43.77,3.67-89.15-9.75-132.09,2.9a7.45,7.45,0,0,0-4.3,3.13c0-.17,0-.36,0-.54.45-4-4.9-4.38-6.79-1.85-13.58,18.22-9.53,43.93-9.69,67.44-21.68-22.94-63-36.91-86.16-47.87-53-25.08-95.8-70.55-149.12-94.28,47.46-14,91-42,136.12-61.66,44.29-19.24,90.43-37.95,124.69-72.37.24,17.24.94,34.48,5.14,51.17a2.26,2.26,0,0,0,4.34,0c.47-1.88.84-3.77,1.23-5.66,24.69,6.29,176,16.46,260.63-.15,19-1.15,37.38-4.64,49.67-13.26a60.61,60.61,0,0,1-.09,7.17c-27.76,26.61-56.89,49-96.65,49.76-25.19.51-55.41-.42-79.29-9-.62-.23-1,.7-.44,1,24.22,14.93,58.52,14.91,86,15,35.7.13,63.79-20.91,88.42-44.58-3.46,13.91-10.81,27.54-19.61,40.84-53.37,31.82-109.79,14.83-169.53,21.87-1.75.2-1.85,2.82,0,2.81,51.26-.15,109.13,15,156.65-6.46C1645.6,1520.72,1640.16,1527.79,1635,1534.74Z" transform="translate(-603.69 -788.63)"/><path class="cls-1" d="M686.69,1608.33a.28.28,0,0,0,0,.55h2.5a.28.28,0,0,0,0-.55Z" transform="translate(-603.69 -788.63)"/><path class="cls-1" d="M1046.36,1579.16c-.29-36.88,4.55-73.71.35-110.57-.36-3.16-2-6.53-5.49-7.2-.55-.12-1.06-.29-1.6-.42a7.34,7.34,0,0,0-3.64-9.66c-29.3-15.19-67.47-2.75-98.51-.41-43.89,3.29-88.78-15.23-132.51-6.61,11.45-16.53,22.07-33.51,30-51.56,7,7,14.7,13,21.32,20.62,6.85,7.87,12.87,14.65,23.74,16.19a7.5,7.5,0,0,0,4.89-1,3.09,3.09,0,0,0,4.74-1.59c7.06-17,4.21-38,5-56.28,1.24-26.83,3.13-53.65,4.82-80.45,3.46-54.65,6.31-109.37,3.94-164.14-.18-4.1-4.26-8.12-8.61-6.55-51.07,18.45-104.83,18.06-156.93,31-36.14,9-68.78,22-106.3,21.32a1.7,1.7,0,0,0-1.45,2.55,19.88,19.88,0,0,0,3.56,3.68c-2.07-.9-4.15-1.73-6.29-2.52-3.35-1.19-5.39,4-2.39,5.66,31.61,17.66,52.85,50.56,81.22,72.69a9.73,9.73,0,0,0,3.1,1.66c-42.58,49.69-89,106.85-103.5,171.68-13.4,59.82,35.92,117.22,73.7,163.76.52,1.43,1,2.87,1.65,4.29a2.68,2.68,0,0,0,3.17,1.67c4.11,5.09,8,10.07,11.65,14.89a6.83,6.83,0,0,0,7.22,2.56c10.8,12.6,32.39,13.34,48.23,13.92a283.44,283.44,0,0,0,52.55-3.16c3.87-.19,7.62-.35,11.08-.45,73.85-2.23,147.66-6,221.55-6.59a9.28,9.28,0,0,0,5-1.4c3.67-.95,6.74-3.78,6.25-8.15-.73-6.77-1.16-13.52-1.39-20.27C1049.91,1586.9,1049.94,1581.09,1046.36,1579.16ZM923.12,1467.5c31.54,3.29,71.88-16.28,101.92-2.71.47,1,.87,1.93,1.27,2.9-8.09,1.5-16.11,3-24.66,3.4-12.13.52-24,1.16-35.66,4.79-3.46,1.08-2,6.36,1.48,5.41,14.15-3.81,28.68-3.08,43.18-3.32,5.86-.1,12.26-.28,18.22-1.59.21,1.08.38,2.14.53,3.2-.36,2.91-.58,5.89-.71,8.9-24.82-3-50.75,9.52-74.55,14.81-.28.06-.31.52,0,.57,24.73,3.72,49.41-4.77,74.38-5.19,0,6.61.17,13-.05,18.62,0,.7,0,1.38,0,2.07-22.89-.77-46,16.6-68.08,7.27-2.59-1.09-4.89,2.47-2.28,3.88,23.4,12.54,46.07-3.56,70.23-2.74,0,.49,0,1,0,1.47-.22,5.12-.42,10.24-.59,15.34-29.31,3.61-58.64,26-88,13.27-1-.42-1.81.9-.86,1.45,25.38,14.78,60.84,2.9,88.65-4.39-.12,7.8-.07,15.58.24,23.37-29.88,1.18-59,10.59-88.62,14.75-.66.1-.44,1.06.15,1.12,30,2.49,59.15-6.5,89-6.48.26,3.8.6,7.6,1,11.39-64.67,0-129.29,2.26-193.89,4.82-34.83,1.4-81.22,8.64-118-.38,2.39-.36,4.58-2.4,4.42-4.92-.12-1.76-.11-3.49-.09-5.22,63.5.54,126.91-5.94,190.06-12,3.55-.33,3.65-5.85,0-5.62q-94.62,6-189.36,8a88.1,88.1,0,0,1,3.52-15c66.81,2.74,137-1.92,203.34-9a1.13,1.13,0,0,0,0-2.25c-65.18-6.45-133.87-2.59-199.45.77,1.7-3.94,3.6-7.83,5.66-11.68,8.53,4.51,21.08,3.11,30.23,3.29,19.94.38,39.92-.52,59.81-1.8,33.49-2.12,68-5.33,98.9-19.21.29-.15.08-.6-.22-.52-34.25,9.39-71.37,11.54-106.69,13-17.26.74-34.53.7-51.79.2-8.13-.23-18.3-2.43-26.81-1.14,2.58-4.47,5.32-8.86,8.13-13.2,9.3,5.51,29.06,3.42,38.24,4.12,31.63,2.46,58-11.06,89-12.47a.28.28,0,0,0,0-.57c-28.45-3.75-54.21,7.74-82.51,5.53-8.32-.63-27.24-6.29-39.07-5.08,2.49-3.67,5-7.27,7.42-10.84,22.44,5.76,51.14,2.05,73.51,2.88,33.69,1.27,67,2.28,100.66.33a2.54,2.54,0,0,0,0-5.08c-33.55-2.23-67.05-3.68-100.66-5.06-19.88-.83-45.49-5.75-66.81-2.91,5.52-8.22,11.36-16.37,17.29-24.56,50.74,1.79,99.09,20.11,150.18,15.64a.57.57,0,0,0,0-1.14c-48.74-2.58-95.22-19.32-143.68-23.47q4.63-6.39,9.2-12.83C838.16,1462.83,883.5,1463.34,923.12,1467.5ZM720.33,1255.68c1.43-2.1.32-4.41-1.48-5.59.66-2.66-.13-5.75-3.34-8.09-25.48-18.61-45.24-44.17-72.69-59.39,22.95,6.69,62.41-8.24,78.66-12.95,55.46-16.09,113.79-16.25,168.76-34.25,1.67,48.18-.48,96.29-3.27,144.41-1.58,27-3.35,54-4.78,81.09-.75,14.32-3.4,31-2.42,46.37-2.68-3.78-5.67-7.45-8.42-11.13-7.17-9.63-14.77-19.79-26.66-23.4-7.85-2.4-14,4.22-14,11.07a4.35,4.35,0,0,0-3.09,2.34c-10.25,18.26-24.89,34.21-37.72,50.63-18.62,23.85-35.52,49.56-51.91,75-4.94,7.68-46.71,73.51-30.83,88.7-1.53-.54-3-1.13-4.51-1.76-6.22-8.63-13.14-17.61-20.29-26.86-2-37.1,29-78.5,46.86-106.48,19.59-30.67,44-61.84,55.84-96.6.36-1-1.24-1.43-1.63-.44-17.73,45.32-54.67,83-79.32,124.71-12.09,20.46-25.93,45.85-27.83,70.9-5.16-6.74-10.36-13.59-15.39-20.59-7.59-75.88,71.56-140.48,103.84-204.53a.56.56,0,0,0-1-.55c-25.59,41.61-58.84,78.28-84.39,120.2-6.86,11.25-27.41,44-29.92,68.24-3.57-5.49-7-11-10.08-16.67-11.5-33.76,24.73-80.24,41.34-105.81,17.39-26.71,39.88-54.56,49.34-85.45.32-1.06-1.26-1.45-1.63-.45-15,40.77-49.83,75.63-72.15,112.65-10.21,16.91-23.64,39.72-25.6,61.6a142.07,142.07,0,0,1-8.13-24c0-62.51,49.38-130.7,102-159.58.64-.35.08-1.28-.58-1C677.77,1330.35,635,1379.37,620.45,1432c.33-2.34.71-4.7,1.23-7.06C635.17,1363.09,685.52,1307,720.33,1255.68Z" transform="translate(-603.69 -788.63)"/></svg>