<svg id="Layer_2" data-name="Layer 2" xmlns="http://www.w3.org/2000/svg" viewBox="0 0 1064.38 966.1"><defs><style>.cls-1{fill:#fff;}</style></defs><title>Иконка Корпоративный сайт</title><path class="cls-1" d="M696.26,1054.61a2.8,2.8,0,0,0,4.63-1.22c2.42-6.38-.49-12.57-2-19-2.17-9.55-3.83-19.37-5.09-29.07a2.38,2.38,0,0,0-4.76,0,99.5,99.5,0,0,0,.52,24.78C690.75,1038.14,690.41,1048.52,696.26,1054.61Z" transform="translate(-560.03 -312.84)"/><path class="cls-1" d="M695.45,1100a45.74,45.74,0,0,0,3.74,22.67c2.35,5.24,5.8,13.61,12.57,13.74a2.62,2.62,0,0,0,2.58-2.58c.16-4.43-3.45-8-5.63-11.62A58.51,58.51,0,0,1,701,1100C700.54,1096.53,695.7,1096.38,695.45,1100Z" transform="translate(-560.03 -312.84)"/><path class="cls-1" d="M738.82,1204.28c2.65.2,3.34-3.07,2-4.74-3.92-4.75-9.27-7.73-12.87-12.77-3.87-5.43-6.08-13.16-7.85-19.52a1.6,1.6,0,0,0-3.06,0c-2.17,8.82-1.56,16.19,3.11,24.07C724.29,1198.37,730.63,1203.64,738.82,1204.28Z" transform="translate(-560.03 -312.84)"/><path class="cls-1" d="M834.22,1212.56c-6.32-2.4-14-.25-20.77-.65-9.4-.55-18.07-1.37-27.07-4.4-.88-.29-1.34,1-.62,1.46,12.18,7.68,36.6,19,49.58,7.9C837,1215.5,835.86,1213.19,834.22,1212.56Z" transform="translate(-560.03 -312.84)"/><path class="cls-1" d="M894.43,1220.82c-1,.13-1.47,1.75-.26,1.94,12.08,1.83,23,4.61,35.48,4.21,8.93-.3,24.36-1,28.41-10.33.74-1.68.33-4.29-1.89-4.65-8.45-1.4-17.82,4.18-26.52,5.13C917.85,1218.4,906.19,1219.25,894.43,1220.82Z" transform="translate(-560.03 -312.84)"/><path class="cls-1" d="M1008.87,1217.14c9.76,1.8,19.61,1.73,29.5,2.1,8.57.32,18.76,2.34,26.51-2a2.59,2.59,0,0,0,0-4.43c-7.75-4.33-17.94-2.31-26.51-2-9.89.37-19.74.3-29.5,2.1C1006.79,1213.33,1006.79,1216.75,1008.87,1217.14Z" transform="translate(-560.03 -312.84)"/><path class="cls-1" d="M1109.94,1218.67c9.85,2,19.91,1.85,29.93,2.26,8.55.34,20.64,3,27.16-3.93a2.81,2.81,0,0,0,0-3.91c-5.84-6.2-15.7-4.39-23.44-4.07-11.2.45-22.62.16-33.64,2.39C1106.34,1212.15,1106.34,1217.94,1109.94,1218.67Z" transform="translate(-560.03 -312.84)"/><path class="cls-1" d="M1218.41,1211.13a76.36,76.36,0,0,0,28.38,1c7.15-1.18,18.61-2,22-9.35a2.62,2.62,0,0,0-1.53-3.79c-6-1.54-10.64,2.19-16.32,4a68.94,68.94,0,0,1-30.94,2.35C1216.31,1204.9,1214.58,1210.35,1218.41,1211.13Z" transform="translate(-560.03 -312.84)"/><path class="cls-1" d="M1313.93,1211.83l33.83.79c5.62.13,5.62-8.84,0-8.71l-33.83.79C1309.33,1204.82,1309.33,1211.73,1313.93,1211.83Z" transform="translate(-560.03 -312.84)"/><path class="cls-1" d="M1451.9,1198.84c-6.29.91-12.15,3.13-18.36,4.42-8.11,1.69-16.63,1.72-24.89,2a3,3,0,0,0,0,5.93c14.68.55,34.19,2.89,45.93-7.77C1456.87,1201.4,1454.37,1198.48,1451.9,1198.84Z" transform="translate(-560.03 -312.84)"/><path class="cls-1" d="M1510.62,1203.22c6.19-1.53,12.5-3,18.38-5.58,4.06-1.77,10.21-4.7,10.39-9.65a2.19,2.19,0,0,0-2.18-2.18c-4.13-.1-8.05,4.11-11.47,6.25-5.16,3.24-10.89,5.54-16.49,7.91C1507.33,1200.78,1508.73,1203.69,1510.62,1203.22Z" transform="translate(-560.03 -312.84)"/><path class="cls-1" d="M1540.6,1167.68a3.37,3.37,0,0,0,6.74,0c1-10.91,1.66-21.69,1.89-32.64.16-7.87,2.23-17.14-3.3-23.45a2.79,2.79,0,0,0-3.92,0c-5.53,6.31-3.46,15.58-3.29,23.45C1538.94,1146,1539.65,1156.77,1540.6,1167.68Z" transform="translate(-560.03 -312.84)"/><path class="cls-1" d="M609.11,626.08c-3.46,15-6.84,33.44-1.32,48.36a2.59,2.59,0,0,0,4.95,0c5.52-14.92,2.14-33.31-1.33-48.36A1.2,1.2,0,0,0,609.11,626.08Z" transform="translate(-560.03 -312.84)"/><path class="cls-1" d="M637.74,843.47a112.14,112.14,0,0,0-4.9-21.48c-.82-2.38-5-2.18-4.66.63.88,7.27,1.41,14.57,2.21,21.85.37,3.49.82,6.94,1.28,10.42.65,4.76,1.93,4.53,4.11,9.23.76,1.64,3.36.78,3.31-.91,0-2.3,1.15-4.91.69-7.3C639,851.77,638.34,847.64,637.74,843.47Z" transform="translate(-560.03 -312.84)"/><path class="cls-1" d="M661.53,909.85a3.54,3.54,0,0,0-2.52-2.51c-.24-1.25-.45-2.5-.64-3.75-.15-1-1.46-.59-1.55.22a21.79,21.79,0,0,1-.6,3.9,3.5,3.5,0,0,0-1.79,3.11c1.49,16.72,11.66,33.82,29.45,36.45a3,3,0,0,0,2.29-5.42C674.3,932.74,664.85,925.35,661.53,909.85Z" transform="translate(-560.03 -312.84)"/><path class="cls-1" d="M764.2,953.71c-9.67.32-23,1.55-31.66-3.4-1-.6-1.85.71-1.18,1.55,5.59,7.09,14.14,9.88,22.81,10.82a196.24,196.24,0,0,0,20.69.66c6.79,0,13.91,1.33,19.58-2.86a3,3,0,0,0,0-5.12C786.6,949.73,773.37,953.4,764.2,953.71Z" transform="translate(-560.03 -312.84)"/><path class="cls-1" d="M908.75,961.84c-8.72-2.41-18.19,1.59-26.77,3.48-11.21,2.48-24.15,4.56-34.61-1.14-.58-.31-1.22.46-.72.94,7.87,7.33,16,10.88,26.74,10.48s27.13-2.44,36.08-8.34A3,3,0,0,0,908.75,961.84Z" transform="translate(-560.03 -312.84)"/><path class="cls-1" d="M1010.44,961.06c-12.68-4.09-29.3-.81-42.12,1.73-1.89.37-1.89,3.44,0,3.81,12.82,2.54,29.44,5.82,42.12,1.71A3.79,3.79,0,0,0,1010.44,961.06Z" transform="translate(-560.03 -312.84)"/><path class="cls-1" d="M1253,968.69c-7.19,0-13.37,2.13-20.38,3.48-8.82,1.67-18.06,1.69-27,2.7a3.37,3.37,0,0,0,0,6.73c15.61,1.74,36.8,2.94,49.33-8.17C1256.85,971.77,1255.34,968.71,1253,968.69Z" transform="translate(-560.03 -312.84)"/><path class="cls-1" d="M1324.34,966.72c-9.38.53-18.76.29-27.54,4a.8.8,0,0,0,0,1.52c8.78,3.68,18.16,3.44,27.54,4,8.3.46,17.5,2,25-2a3.18,3.18,0,0,0,0-5.47C1341.84,964.76,1332.63,966.26,1324.34,966.72Z" transform="translate(-560.03 -312.84)"/><path class="cls-1" d="M1451.15,968.22c-7.12-3.49-14.55-2.61-22.32-2.48-9,.14-18,.59-26.94,1.17a4.55,4.55,0,0,0,0,9.1c9,.59,17.93,1,26.94,1.19,7.76.12,15.2,1,22.32-2.49A3.79,3.79,0,0,0,1451.15,968.22Z" transform="translate(-560.03 -312.84)"/><path class="cls-1" d="M1535.71,948.6c-12.24,7.64-26,9.76-39.78,13.63a2.58,2.58,0,0,0,0,4.95c9.48,2.44,17.93,2,27.37-.51,8.65-2.33,14.41-6,16.77-14.7A3,3,0,0,0,1535.71,948.6Z" transform="translate(-560.03 -312.84)"/><path class="cls-1" d="M1561.79,876.06c-1.37,7.82,0,15.7-.27,23.63-.4,10.2-3.12,20.86-5.54,30.76-.41,1.7,2,2.84,2.9,1.22,8.44-15.53,16.1-39.29,7.62-56.23C1565.53,873.53,1562.17,873.88,1561.79,876.06Z" transform="translate(-560.03 -312.84)"/><path class="cls-1" d="M1562,767.85c-1.46,6.23-2.68,7-2.61,12.89.07,6.53.14,13.09.21,19.63.12,12,.78,23.82,1.52,35.77a3.17,3.17,0,0,0,6.34,0c.75-11.95,1.4-23.81,1.52-35.77q.08-7.84.17-15.65c.09-7.18-.94-9.94-2.56-16.87A2.39,2.39,0,0,0,1562,767.85Z" transform="translate(-560.03 -312.84)"/><path class="cls-1" d="M1559.4,677.27a3.8,3.8,0,0,0-4.55.59c-5.53,6.53-1.54,14.39-.1,22.11,2.23,12,4.68,23.49,7.62,35.2a2,2,0,0,0,3.82,0,88.54,88.54,0,0,0,1.35-33.17C1566.49,694,1567.45,681.43,1559.4,677.27Z" transform="translate(-560.03 -312.84)"/><path class="cls-1" d="M1560.69,642c2.4,4.86,9.33.61,7.17-4.18-6.68-14.76-6.21-29.69-7.78-45.26-.23-2.28-3.57-3.85-4.79-1.3s-3.57,5.15-3.73,8.05a88.45,88.45,0,0,0,.65,16.58A82.65,82.65,0,0,0,1560.69,642Z" transform="translate(-560.03 -312.84)"/><path class="cls-1" d="M1075.58,1017.29c-3.74,3.49-9.58,3.33-13.39,6.9-1.87,1.75.9,4.47,2.81,2.79,3.84-3.42,9.71-3.12,13.66-6.63C1080.76,1018.51,1077.63,1015.37,1075.58,1017.29Z" transform="translate(-560.03 -312.84)"/><path class="cls-1" d="M1215,470.78a2.58,2.58,0,0,0-5.15,0l-.78,12.49c-.19,3.21-.65,6.9,1.94,9.21a2,2,0,0,0,2.81,0c2.6-2.31,2.14-6,1.94-9.21Z" transform="translate(-560.03 -312.84)"/><path class="cls-1" d="M1301.94,492c1.56-2.69,1-5.67,1-8.71q-.05-6.25-.13-12.49c0-3.06-4.71-3.06-4.75,0,0,3.65-.06,7.28-.11,10.93,0,3.41-.81,7.23.95,10.26A1.8,1.8,0,0,0,1301.94,492Z" transform="translate(-560.03 -312.84)"/><path class="cls-1" d="M1614.73,942.1c14.47-66.32,10.75-133.93,1.68-201.44-5-37.42-11.3-74.69-17.59-111.91-4.16-24.53-6.73-49.21-9.34-73.88a404.44,404.44,0,0,1,1.23-50.27c.6-6.44-7.49-7.56-10.87-3.5a8.83,8.83,0,0,0-8.8-6.2c-85.52,0-171.13-2-256.7-2-2.24-11.89-2.63-24.21-4.42-36.12a4.27,4.27,0,0,0-5.28-3,77.9,77.9,0,0,1-24.45,4.89c2.65-20.58-3.94-40.83-8.71-60.66-4.17-17.31-7.36-34.83-12.27-51.95-3.72-13-8-21.13-21-26.22-14.68-5.74-31-6.74-46.58-7-30.68-.56-61,3.9-91.43,7-6.05-.27-12.1-.39-18.1-.34-44.74.36-89.81,8.08-133,19.6-8.42,1.29-16.82,2.62-25.22,4.07-15.12,2.61-28.8,6.18-41.1,15.8-1.77,1.38-3.44,2.85-5.08,4.37-16.38,9.23-30.14,23.13-34.79,41.79-6.33,25.4,7.46,49.41,22.47,68.77a48.18,48.18,0,0,1-15.65.52c-1.45-.2-3.38-1.11-5-.66s-2.8,2.7-4.54,2.78a3.52,3.52,0,0,0-3.47,3.47c.11,11.06-1.28,22.16.37,33.06q-58.78,1.64-117.56,2.56c-47,.74-93.84,2.95-140.76,5.47,0-.22-.07-.43-.1-.65a.4.4,0,0,0-.77,0c0,.23-.07.46-.11.7-5,.27-10,.51-14.95.79a3,3,0,0,0,0,5.93c3.62.2,7.23.33,10.85.52a50.7,50.7,0,0,0-9.94,4,2,2,0,0,0,0,3.42,61.2,61.2,0,0,0,10.84,5.5c0,.08,0,.16,0,.24-11,77.23-8,158.23-1.75,235.41,3.58,44.09,8.44,89.35,22,131.64a160.42,160.42,0,0,0,7.72,19.83A123.4,123.4,0,0,0,618.41,956a88.88,88.88,0,0,0,22.28,20c-.53,2.61-1,5.24-1.49,7.89h0c-1.34-2.52-4.85-.31-3.76,2.19.91,2.08,1.71,4.2,2.52,6.3-5.05,39.15-.88,81.31,3.46,119.27a1113,1113,0,0,0,25.47,143.11,13.43,13.43,0,0,0,12.93,9.83c21.92-.35,43.53-3.16,65.19-6.38,5.08-.76,10.22-1.34,15.38-1.88,12.89-.74,25.77-1.34,38.7-1.33l39.33.06c36,15.74,77.16,21.59,115.41,23.26,66.64,2.92,133.42-5.14,199.55-12.32,137.42-14.93,285.34,29.71,416.36-28.07,11.32,7.52,31-1.52,26.24-18.32-1.08-3.84-2.07-7.67-3-11.52,2.45-37.41-3.57-74.09-10.26-110.9-1.44-8-2.92-16-4.37-23.95-.92-26.34-1.7-52.71-4-79a128.94,128.94,0,0,0,22.8-13.45,13.53,13.53,0,0,0,9.46-8.43C1614.71,963.68,1619,953.39,1614.73,942.1Zm-441.62,57.68,1.27-1.33q-.07,12.65-.11,25.28l-1.57.06-10,.14c-.31-7.3-.31-14.65-.3-22,0-7.92.06-16.3-.64-24.61a31.78,31.78,0,0,0,12.78-10q-.07,13.15-.14,26.28a.33.33,0,0,1-.08.08c-1.24,1.2-2.5,2.4-3.75,3.58C1168.92,998.86,1171.5,1001.44,1173.11,999.78ZM1073.22,1086c-10-8.08-13.61-22.06-16.29-34-3.44-15.25-4.34-31.17-5.55-46.72,0-.35-.06-.72-.07-1.07,4.44-1.15,6.11-7.38,2.74-10.17,0-.21,0-.4,0-.6l10.41.76c4.42.33,9.45.88,13.59-.9a1.79,1.79,0,0,0,0-3.08c-3.76-1.62-7.84-1.05-11.89-1s-8.3.48-12.44.86a16.37,16.37,0,0,0-3.84-8.12c-.52-7.71-1.15-15.43-2.22-23.06,9.34,1.42,18.34,4.33,27.56,6.12a.92.92,0,0,0,0,.22c7.49,24.35,12.32,49.58,12.8,75-2.91,3.15-5.86,6.26-8.71,9.48a39.36,39.36,0,0,1-9.84,8.16c-2,1.17-.26,4,1.8,3.08a44.61,44.61,0,0,0,10.41-7.11,34.81,34.81,0,0,0,6.37-7.51c-.06,6.61-.42,13.23-1.12,19.84-.22,2.06,1.87,3.69,3.74,3.74l1.49,0a46.87,46.87,0,0,1-9.24,15.55c-1.18,1.32.7,3.23,2,2a50.46,50.46,0,0,0,11-17.39c7.6.27,15.32.74,23,1a92.22,92.22,0,0,0,4.78,15.62c.3.77,1.69.74,1.57-.21-.6-4.79-1.8-10.06-2.39-15.31,11.34.27,22.65,0,33.65-2.15.11,5.88.83,11.92,1,17.46a.79.79,0,0,0,1.58,0c.18-5.78.93-12.11,1-18.22,2-.46,4.05-1,6.07-1.58a4.07,4.07,0,0,0,2.8-5c-.65-1.92-1.21-3.84-1.74-5.76,2.42,5,4.79,10,7,15.08q0,8.76,0,17.53c-11.19,1-22.37,2.12-33.51,3.62-12.34,1.64-24.54,1.82-37,1.6C1093.22,1093.64,1081.72,1092.87,1073.22,1086Zm126.55-628q.27,13.88.54,27.75c.06,2.84.09,5.8.21,8.8q-28.06.84-56.09,2.26c-59,3-117.91,8.1-176.93,11.36,1.12-11.17-.56-22.41-.73-33.64,0-2.67-2.39-5.62-5.32-5.32-11.11,1.13-21.9-.09-32.91-1.6l-1.64-.19c4.86-20,.46-45.71,16-60,6.58-6,18.13-7.72,26.5-9.44,12.25-2.51,24.73-3.79,37.16-5,20.3-2,40.65-3.16,61-4.19.42.57.8,1.15,1.21,1.71,1.13,1.52,3.88.7,3.26-1.37-.06-.19-.12-.36-.19-.55l22.18-1.09c27.44-1.4,54.94-2.52,82.43-2.34.16,1.5.34,3,.52,4.45a1.59,1.59,0,0,0,3.18,0c.16-1.47.26-2.94.36-4.4,6.16.07,12.32.19,18.47.42.34.31.7.61,1,.92.46,2.08.94,4.17,1.43,6.25-1.3,3.31-2.57,6.63-3.72,10-.42,1.27,1.58,2.13,2.17.92.92-1.89,1.87-3.75,2.81-5.62,4.45,18.42,9.51,36.74,12.18,55.5-3.69-.07-7.38,0-11.07.29A4.16,4.16,0,0,0,1199.77,458Zm-243,50.75c-4.73.25-9.46.46-14.19.66-4.16-9.31-8-19.64-5.81-29.84a147.09,147.09,0,0,0,19.55.62C956.93,489.66,958.19,499.33,956.81,508.72Zm218.5-133.49c-9.28-.05-18.56.08-27.83.32a.93.93,0,0,0,0-.23c-1.24-5.34-2.53-10.65-4-15.94.75.06,1.51.14,2.26.2a148.47,148.47,0,0,1,28.7,9.87Q1174.93,372.31,1175.31,375.22Zm-144.19-8.95c7.73-.2,15.41-.47,23.07-.86a141.7,141.7,0,0,0,7.69,14.68c-10,.66-20,1.36-29.94,2.18C1033.28,377.3,1032.62,371.75,1031.12,366.27Zm-5.78.15c.8,5.37.63,11.12,2.29,16.23-6.48.56-13,1.16-19.43,1.85-3.77-5.44-8.79-10.39-12.87-15.42,9.27-1,18.56-1.85,27.84-2.6Zm-69,19.54c-5.76-2.15-11.59-4.07-17.44-5.9,1.38-.84,2.84-1.58,4.32-2.3,2.88-.69,5.77-1.33,8.69-1.95,5,3.83,11.49,8.48,17,8.4a1.4,1.4,0,0,0,1.2-2.09c-2.6-3.56-7.63-5.55-12.14-7.55,10.17-1.95,20.45-3.48,30.77-4.74L990,372c2.81,4.29,6,9.47,10,13.45l-2.29.26c-12.15,1.45-26.6,2.54-39.57,6.36A4.07,4.07,0,0,0,956.32,386Zm-47.41,32.6c-.35,4-.5,8-.57,12,0,2.34,0,4.67,0,7a50.63,50.63,0,0,1-5.24,1.38c1.53-6.9,3.05-13.79,4.63-20.66C908.15,418.34,908.53,418.47,908.91,418.56Zm7-32.86c1.56-.53,3.08-1,4.6-1.53-6.21,8.28-9.27,17.85-10.78,27.79l-.42-.1C911.33,403.11,913.5,394.41,915.89,385.69Zm144.55-20.62c11.64-.69,23.25-1.67,34.9-3.11.31,2.66.59,5.26.94,7.63.21,1.45,2.18.88,2.33-.32a57,57,0,0,0,.44-7.76,254.48,254.48,0,0,1,38.1-2.41c1.73,5.48,3.21,11,4.67,16.6-18.27.57-36.55,1.58-54.83,2.76l-18.62,1.2C1066,374.67,1063.22,369.88,1060.44,365.08Zm164.29-5.9a54,54,0,0,1,4.57,8.66,117.71,117.71,0,0,0-9.19-8.82,35,35,0,0,0,.83-4.71A26,26,0,0,1,1224.73,359.17Zm-9.86-4.39q-1.3-1-2.64-1.95c1.17,0,2.29,0,3.41.08C1215.39,353.55,1215.09,354.15,1214.87,354.78Zm-29.41,20.62c-1.61,0-3.24-.1-4.85-.11,0-1-.19-1.9-.25-2.86C1182.09,373.37,1183.79,374.38,1185.46,375.4ZM879.51,408.94c.16-.25.37-.45.53-.68A172.22,172.22,0,0,0,878,438.71c-.34-.06-.68-.15-1-.23C873.75,428.59,873.26,418.36,879.51,408.94Zm19.94,46.7c.68-3,1.33-6,2-9.08a24.77,24.77,0,0,0,7.14-1.95c.21,4.76.52,9.53.86,14.29a71.06,71.06,0,0,1-15.79,3.25A9.12,9.12,0,0,0,899.45,455.64Zm12,9.79a2,2,0,0,0,2.2-.91,30.24,30.24,0,0,0,9.15-6,1.79,1.79,0,0,0-1.74-3c-2.25.57-4.5,1.24-6.75,1.91.25-5.82.31-11.67.47-17.51a18.47,18.47,0,0,0,1.53-2.07,1.68,1.68,0,0,0-1.38-2.59c.21-5.32.55-10.61,1.21-15.86a3.21,3.21,0,0,0,.77-5.1c.34-2,.75-4,1.21-6a43.92,43.92,0,0,1,14.17-23.51c7.34,2.76,14.76,5.4,22.08,8.39l.07,0a54.57,54.57,0,0,0-16.72,8.92c-18.3,14.91-10.92,43.43-14.6,64.83a142.19,142.19,0,0,0-15.37-.48A36.77,36.77,0,0,0,911.41,465.43Zm303.23-59.57c0-.19-.08-.36-.12-.55l.23.41A1.6,1.6,0,0,1,1214.64,405.86Zm1.21,2a75.36,75.36,0,0,1,5.12,13.54c-.72.22-1.38.49-2.13.67-.11,0-.18.1-.28.13q-1.62-6.91-3.29-13.8C1215.46,408.25,1215.66,408,1215.85,407.86Zm3.72,16.88c.7-.12,1.4-.34,2.1-.49a90.11,90.11,0,0,1,2.25,15.12,19.87,19.87,0,0,0,.39,2.34c-.53.06-1.05.16-1.58.21-1.06-5.75-2.26-11.47-3.57-17.17A1.25,1.25,0,0,0,1219.57,424.74Zm5.65,20.25a17.29,17.29,0,0,0,12,10.41c-4.19-.52-8.37-1-12.55-1.32-.4-3-.85-6-1.38-8.92C1223.92,445.13,1224.58,445,1225.22,445Zm20.85,10.78a4.07,4.07,0,0,0,5.46-1.95,14.58,14.58,0,0,0,3.88-3.32,37.9,37.9,0,0,0,8.4,7.81c-7-.52-13.95-1.33-20.95-2.23A20,20,0,0,0,1246.07,455.78ZM888.89,466.33a42.6,42.6,0,0,0,4.79.95c-1.67.22-3.34.52-5,.85A12.47,12.47,0,0,0,888.89,466.33Zm-.06,11.5a82.08,82.08,0,0,1,12-1.05c10.5,0,21,1.31,31.49,2.35a37.63,37.63,0,0,0,6.11,30.45l-5.22.24c-4.45.19-8.9.32-13.37.5a54.3,54.3,0,0,0-.54-13.69c-1.07-6.24-4.64-11.87-11.09-13.26a1,1,0,0,0-.75,1.8c5.82,3.71,6.19,11.44,6.26,17.69a44.16,44.16,0,0,1-1.08,7.73q-9.12.35-18.26.68c-1.39-4.5-3-8.93-4-13.59A85.32,85.32,0,0,1,888.84,477.83ZM643.51,960.68c.31,1.2.67,2.37,1.08,3.52a2.59,2.59,0,0,0-1.23,1.08,79.16,79.16,0,0,1-6.33-5.05A37.15,37.15,0,0,0,643.51,960.68Zm529.91,100.88.8.59v1.29C1174,1062.81,1173.69,1062.18,1173.42,1061.55Zm.78-2.22-2.28-1.06a46.52,46.52,0,0,0-6.15-9.7.86.86,0,0,0-.36-.26,154.23,154.23,0,0,1-2.54-21.07l9.81.14,1.57.05Q1174.22,1043.38,1174.2,1059.33Zm-12.51-83a91.25,91.25,0,0,0-3-16.9c2.67-.28,4.3-4.05,5.43-6.19a20.26,20.26,0,0,0,2.74-8.86c0-2.32-3.4-2.26-3.56,0a13.94,13.94,0,0,1-1.89,5.52,3.7,3.7,0,0,0-4-2.18l-3.3.55c-1.66-1.62-4.41-.86-5.63,1l-11.39,2.1c.55-4,.88-8,1.55-11.62,12,.82,24.07,1.45,36.13,1.68q-.08,11.55-.15,23.07A30.47,30.47,0,0,1,1161.69,976.34ZM1158,954.77c-.2.26-.39.52-.56.79-.06-.23-.17-.45-.25-.68ZM1057.16,929c-2.2-1.79-4.4-3.56-6.55-5.44a.79.79,0,0,0-1.11,1.12c1.32,1.47,2.7,2.91,4.11,4.34-3.43.06-6.88.13-10.32.27a1.59,1.59,0,0,0,0,3.17c4.88.24,9.76.55,14.64.87,6.13,6,12.37,12,17.14,19,1.72,2.54,5.87.1,4.1-2.38-4.56-6.41-10.27-11.45-16.2-16.31,13.2.94,26.4,2.08,39.59,3.22a1.84,1.84,0,0,0-.16.75c-.06,4.32-.13,8.64-.18,13,0,2.54,4,2.54,3.94,0q-.08-6.49-.19-13a1.74,1.74,0,0,0-.09-.46c10.11.87,20.22,1.69,30.34,2.41-1.48,3.88-2.71,7.83-3.85,11.85-.07.28-.15.57-.23.85-16,2.9-32.1,5.32-48.24,4.27-1.55-.1-1.89,2.45-.37,2.72,15.82,2.81,31.36,1.67,46.91-.42a31.15,31.15,0,0,0-.75,5.86,1.6,1.6,0,0,0,3,.81,24,24,0,0,0,3.16-7.4c4.34-.64,8.69-1.31,13.06-2,4.1,17.88,5.35,34.85,5.39,53.42,0,17.13.9,34.07,5.8,50.49l-.43.1c0-.34-.07-.68-.13-1a1.2,1.2,0,0,0-2.3,0c-.09.52-.14,1.07-.21,1.6-11.19,2.41-22.76,2.73-34.35,2.51a21.88,21.88,0,0,1,2.91-10c.73-1.23-.87-2.26-1.87-1.44-3.53,2.87-5,6.9-5.27,11.3-6.74-.2-13.49-.5-20.16-.62a56.51,56.51,0,0,0,1.38-9.84c.14-2.8-4.33-2.81-4.35,0a53.29,53.29,0,0,1-.53,6.75c1.21-31.83-4.91-63.56-15.15-93.65,1.43.2,2.88.4,4.32.52s2.25-2.34.8-2.94c-11.48-4.92-24.69-6.28-37.26-6-1.72-11.72-4.46-23.22-9.37-34.18-.86-1.95-3.61-.49-3.25,1.37,3.42,17.48,4.38,35.38,4.81,53.31-.42,0-.82,0-1.25,0-67,8.08-134.21,12.58-201.7,11.41-39.57-.69-79.15-.46-118.23-7.58-21.65-3.94-50.86-7.38-66.11-25.58a7,7,0,0,0-4.44-9.49c-9.4-3.25-12.64-13.17-17.45-20.92-8.34-13.45-12.7-29.25-16.65-44.42-10.92-41.92-14.55-85.44-18.21-128.47-5.9-69.35-4-140-13.28-209.06a128.76,128.76,0,0,0,23.46,4A126.5,126.5,0,0,0,600.33,579c-.16,4.08,6.33,4.09,6.33,0,0-10.42,1.74-20.67,3.45-30.92,19.78,1.29,40.43,0,56.7.51,42.53,1.37,85,1.87,127.57,1.13q33.36-.6,66.72-1.6c-33.35,46.92-76.73,85.79-115.16,128.42C712.21,714,676.83,760,670.67,811.46c-.32,2.77,3.89,3,4.67.63,34.65-107.67,127.73-172.43,187.77-264,62.34-1.84,124.65-4.49,187-7.06,85.66-3.52,171.27-7.73,257-9.47,80.29-1.64,160.4.48,240.63,2.09.56,2.15,1.12,4.3,1.57,6.43,1.82,8.73,3.76,17.49,5,26.32.55,4.06,6.23,2.55,6.61-.9a102.07,102.07,0,0,0,0-25.18c-.28-2-.5-4.21-.77-6.42l6,.11a14.23,14.23,0,0,0,5-.79c-6.72,62.08,5.28,126.77,14,187.94-1,45.43,6.54,91,8.28,136.29.07,2,.15,4.08.22,6.17a493.24,493.24,0,0,1-11.28,85.74c-13.91,7.41-29.74,12.64-43.41,17-41.63,13.25-85.76,19.12-129.08,23.51q-9.55,1-19.13,1.87c-19.94-1.34-39.84-2-60.32-.73-45.31,2.81-90.33,7.79-135.67,9.74-1.8-.24-3.63-.4-5.4-.72a8.37,8.37,0,0,0-6.45,1.34q-.16-31.86-.38-63.72a3.92,3.92,0,0,0-3.87-3.88C1138,933.86,1097.71,928.7,1057.16,929Zm245.15-465.24c1.31,9.68,2,19.58,3.72,29.21-7.54,0-15.09.05-22.63.1.12-2.64-.21-5.42-.25-7.9a69.87,69.87,0,0,0-1.53-14.8,1.59,1.59,0,0,0-3,0,70.12,70.12,0,0,0-1.53,14.8c0,2.49-.38,5.28-.25,7.94q-34.87.28-69.75,1.25c.11-2.91.17-5.82.36-8.63.5-7.87.42-15.83.5-23.75,3.85,0,7.71.14,11.57.41a5.59,5.59,0,0,0,2.1.16c5.22.42,10.44,1,15.67,1.7a92.49,92.49,0,0,0-1.21,11.11c-.22,5.3-1.95,12.39,1.41,16.93a2.42,2.42,0,0,0,4.1,0c3.37-4.53,1.66-11.63,1.42-16.93a93.77,93.77,0,0,0-1.1-10.51c4.33.57,8.67,1.12,13,1.6a43.19,43.19,0,0,1,3.24,12.68c.39,4.3-1.88,8.48-.2,12.49.46,1.08,1.75,2,2.91,1.17,7.1-4.89,3.31-17.61-.31-25.79C1274.54,468.24,1288.52,468.16,1302.31,463.74Zm-417.86,14.8c-1.67,10.58-1.76,23.53,2.78,33q-10.82.39-21.63.7c.81-4.28.56-9.11.64-12.93a71.31,71.31,0,0,0-1.75-17.35C871.15,481.22,877.76,479.75,884.45,478.54ZM843.54,483a9.71,9.71,0,0,0,3.18-1.8A49.61,49.61,0,0,0,859,482.28a75.93,75.93,0,0,1,.93,17c-.17,4.24-1.64,8.8-2,13.17l-16.33.49C841.12,503,842.87,492.9,843.54,483ZM650.74,981.84c4.35,2.26,8.84,4.31,13.42,6.17.5.19,1,.37,1.53.58a157.52,157.52,0,0,0,24.43,13.06c36.93,16.42,82.38,18.92,122.14,22,44.28,3.47,89.43,1.07,133.7-1.83,31.28-2,63.89-3.64,94.37-11.54.11,3.91.19,7.82.38,11.71,1.22,24.6,4.81,57.26,25.29,74,6.73,5.49,14.84,7.86,23.22,9.13-7.27,17.63-19.31,33-25.7,50.8-.8,2.24,2.41,3.26,3.62,1.53a223.41,223.41,0,0,0,26.26-51.78l.32,0c12.67,1.4,28.32,2.38,40.81,0,11.84-2.23,24-3.08,36-4.18,5.41-.51,11-.59,16.33-1.75a45.54,45.54,0,0,0,4.94-1.51c.35-.11,3.86-1.28,1.72-.67,5.09-1.44,3.85-8.66-1.21-8.93h-.17a2.48,2.48,0,0,0-.53,0c2.51-.77-1.17-.29-3.23-.59a30.05,30.05,0,0,0-5.41-.23q0-10.18,0-20.35a8.45,8.45,0,0,0,2.39.41c2.33,0,2.24-3.35,0-3.56a9.11,9.11,0,0,1-2.38-1q0-17.94-.06-35.89a15.15,15.15,0,0,0,2.79-.54,1.4,1.4,0,0,0,0-2.67,15.29,15.29,0,0,0-2.79-.55c0-3.16,0-6.3,0-9.46l.3.24c24.54,16.27,61.28,17.95,89.53,18.93a1026,1026,0,0,0,151-5.63c36.47-4.15,73.55-9.39,109.18-19.18-4.74,13.26-1.94,27.92-.57,41.94a147.37,147.37,0,0,0,11.31,42.91.4.4,0,0,0,.73-.09,165,165,0,0,0,2-42.81c-1.24-14.84.47-30.52-5.65-44.18q8.28-2.45,16.41-5.28c-6.42,69-13.48,142.38,1.86,210.72l-.09,0c-.87.39-1.77.73-2.65,1.11-8,1-15.86,2.08-23.5,4.85a4.34,4.34,0,0,0-2.78,2.82c-54.23,7.89-109.54,9.87-164.06,12.42q-31.56,1.48-63.12,2.66c-47.51-2.19-95.07-4.23-142.49,0-16.73,1.49-33.72,3.37-50.88,5.34q-85.7,1.44-171.42,1.57c-28.14.05-56.37-.42-84.6-.56q-10.21-2.58-20.29-5.87c-.44-4.46-3.12-8.6-8.16-9.55a136.1,136.1,0,0,0-22-2.19c-2.18-1-4.37-1.95-6.52-3a3.41,3.41,0,0,0-4.84,3c-29.39,1.11-59.77,8.55-89.11,11.81-1.88-4.74-3.9-10.56-5.83-14.11-7.52-13.8-14.52-26.4-19.34-41.16q-5.55-25.65-10.08-51.53c-3.91-34.56-4.45-70.05-12.46-103.46C653.5,1011.28,652.24,996.56,650.74,981.84Zm39.06,253.63c.32.61.6,1.24.9,1.85l-.45,0C690.1,1236.74,690,1236.1,689.8,1235.47Z" transform="translate(-560.03 -312.84)"/><path class="cls-1" d="M709.61,603.34c1.79-3.65-3.61-6.86-5.47-3.2-13.77,27.07-27.58,54.12-42,80.87-9.72,18.12-22.56,36.19-32.91,54.85-1.41-7.26-2.84-14.41-4.91-21.67a.6.6,0,0,0-1.15,0,90,90,0,0,0-1.39,36.38c-1.95,4.27-3.71,8.55-5.2,12.9-.78,2.3,2.37,3.93,4,2.31,1.38-1.4,2.65-2.95,4-4.44a53.24,53.24,0,0,0,3.59,8.54c1.08,2,4.67,1.75,5.06-.66,1-6.44.34-11.91-.82-17.82,12.86-18.15,22.36-40.34,32.38-59.18C680.38,662.93,695,633.11,709.61,603.34Z" transform="translate(-560.03 -312.84)"/><path class="cls-1" d="M986,555.38c1.52-2.06-1.91-4-3.41-2-49.52,66-107.3,125-163.58,185.19-53.85,57.58-109.61,117.32-148,186.7-1.5,2.72,2.37,4.86,4.1,2.39A1907.58,1907.58,0,0,1,833.22,732.09C886,674.8,939.68,618.22,986,555.38Z" transform="translate(-560.03 -312.84)"/><path class="cls-1" d="M1052.1,602.08c.44-.25,0-.91-.4-.69-65,34-118.55,87.07-164.4,143.57-23.87,29.39-45.75,60.37-66.49,92-19.74,30.15-41,61.76-55.09,95-1.18,2.74,2.37,5,4.1,2.39,18.75-28.67,34.26-59.55,52.73-88.48a1123.8,1123.8,0,0,1,69.23-96.52C937,692.85,988.42,637.92,1052.1,602.08Z" transform="translate(-560.03 -312.84)"/><path class="cls-1" d="M1172.91,560.93c-21.27,59.53-59.29,111.71-98.7,160.46-19.68,24.35-40.46,47.81-61.48,71-19.23,21.2-41.5,41.58-57.93,65-1.92,2.75,2.09,5.24,4.35,3.35,23.44-19.63,43.33-45.54,63.38-68.57,20.79-23.86,41.15-48.15,60.4-73.28,36.91-48.21,72.09-99.53,91.52-157.56C1174.77,560.38,1173.25,560,1172.91,560.93Z" transform="translate(-560.03 -312.84)"/><path class="cls-1" d="M1256.22,602.53c.87-1.81-1.77-3.42-2.72-1.6-18.57,35.16-38.36,69.63-58.17,104.09C1177,736.81,1155.51,769,1143.94,804c-1,3.15,3.35,4.55,5.07,2.13,21-29.9,36-64.85,53-97.17C1220.51,673.68,1239,638.42,1256.22,602.53Z" transform="translate(-560.03 -312.84)"/><path class="cls-1" d="M1250.32,827.23c25.06-24.51,44.36-56.11,65.31-84.12,25-33.43,49-67.62,75.09-100.22.61-.78-.42-1.88-1.13-1.11a1077.59,1077.59,0,0,0-71.84,83.88c-24.22,31.69-52.52,63.17-72.4,97.74C1243.54,826.53,1247.75,829.75,1250.32,827.23Z" transform="translate(-560.03 -312.84)"/><path class="cls-1" d="M1331.24,894.6c72.05-85.06,119-195.44,207.91-265.65.2-.16-.06-.47-.27-.35-47.4,28-80.94,69.52-113.56,113.27-35.66,47.83-66,99.37-98.43,149.37C1325.17,893.86,1329.2,897,1331.24,894.6Z" transform="translate(-560.03 -312.84)"/><path class="cls-1" d="M1432.71,908.13c38.59-39.47,81.29-88.67,94.28-143.61a1.59,1.59,0,0,0-3.06-.84c-18,56.59-68.73,90.28-95.57,141.09C1426.91,907.5,1430.45,910.44,1432.71,908.13Z" transform="translate(-560.03 -312.84)"/><path class="cls-1" d="M769.81,1157.68c23.2-30.84,43.91-64,66.63-95.31.79-1.09-1-2.51-1.87-1.45-23.39,29.93-52.21,60-68.85,94.36A2.37,2.37,0,0,0,769.81,1157.68Z" transform="translate(-560.03 -312.84)"/><path class="cls-1" d="M877.8,1146c29.92-21.3,48.92-61.5,56.14-96.73,1-5-6.44-7.1-7.63-2.11-9.1,38.07-32.35,62.6-53.39,94C871,1144.05,874.89,1148.1,877.8,1146Z" transform="translate(-560.03 -312.84)"/><path class="cls-1" d="M973.11,1164.65c9.07-14.81,14.92-31.75,22.83-47.28,9.45-18.61,19.93-36.69,30.27-54.81a1.58,1.58,0,0,0-2.73-1.6c-19.43,30.85-46.88,65.63-55.43,101.54A2.79,2.79,0,0,0,973.11,1164.65Z" transform="translate(-560.03 -312.84)"/><path class="cls-1" d="M1236.85,1150.34c14.78-36,39.34-66.7,66.21-94.5a1.18,1.18,0,0,0-1.67-1.67c-27.78,27.59-53.17,58.16-68.87,94.35A2.36,2.36,0,1,0,1236.85,1150.34Z" transform="translate(-560.03 -312.84)"/><path class="cls-1" d="M1385.07,1158.17c31-25.48,45.25-69.72,86.38-82.49.41-.13.36-.82-.11-.77-43,4.63-66.27,49.37-90,80.37C1379.58,1157.58,1383.15,1159.74,1385.07,1158.17Z" transform="translate(-560.03 -312.84)"/><path class="cls-1" d="M1486.45,1129.42c.12-14.5,6.29-27.5,12.29-40.39.21-.45-.44-.86-.68-.4-6.9,12.91-13.85,25.92-14.78,40.79C1483.17,1131.44,1486.44,1131.48,1486.45,1129.42Z" transform="translate(-560.03 -312.84)"/></svg>