<svg id="Layer_2" data-name="Layer 2" xmlns="http://www.w3.org/2000/svg" viewBox="0 0 1137.23 1026.77"><defs><style>.cls-1{fill:#fff;}</style></defs><title>Иконка интернет-магазин</title><path class="cls-1" d="M1294.08,675.6c-.87,3.41-1.79,6.82-2.66,10.24-.08.05-.17,0-.24.11-17.39,12.46-37.15,25.08-52.65,40.88,3-11.78,6.15-23.52,9.31-35.26a125,125,0,0,0,16.72-2.58,11.14,11.14,0,0,0,8.44-9.09l14.21-.83a1.8,1.8,0,0,0,0-3.6l-14.23-.82a11.18,11.18,0,0,0-8.43-9.1c-26-6.15-54.88-3-81.54-3.59-29.07-.62-58.14-1.66-87.2-2.83-57.61-2.33-115.18-5.65-172.75-8.93-115.78-6.61-232-14-347.81-5.11a6.3,6.3,0,0,0,0,12.6q44.85,3.6,89.79,6.51c-.08.69.59,1.43,1.27.91l1-.77q12.77.84,25.53,1.62a17.06,17.06,0,0,1,1.95,1.34c8.81,7.37,11.52,20.25,20.76,26.42,2.66,1.77,6-.6,6.1-3.49a22.93,22.93,0,0,0-2.76-10.76,39.83,39.83,0,0,1,21,12,30.91,30.91,0,0,1,3.51,4.57c-35-1.23-69.81-.11-104.07,5-2.6.39-1.83,4.35.6,4.42,37.3,1.15,74.29,4,111.16,7.76a18.26,18.26,0,0,0,3.11,5.16,3.18,3.18,0,0,0,5.27-1.39,15.36,15.36,0,0,0,.24-2.82c44.58,4.74,89,10.78,133.55,17-2.31,35.29-2,70.62-1,106-42.49.73-86.66,8.19-130.13,10.6-2.34-14.22-4.57-28.46-6.48-42.76-4-29.87-4.29-60-8.72-89.72-.54-3.6-6.17-3.28-7,0-10.09,42.19-5.9,88.6-.51,133.21-33.8.22-66.92-3.9-98.21-18.07-2.61-1.19-5.7,2-3.28,4.24,28.79,26.08,66.41,31.07,103.82,32.71,1.16,9.32,2.3,18.54,3.28,27.56,2.83,26.07,6,52.08,8.38,78.09a474.41,474.41,0,0,1-83.23-25.36c-.43-1.13-.86-2.25-1.26-3.38-10.12-28.15-18.73-56.84-27.34-85.46-15.18-50.5-28.9-101.91-51.42-149.76-3.44-7.32-7.13-14.56-11-21.79-11-48.63-36.49-93.1-62.41-137.38a6.72,6.72,0,0,0-4.89-8.36q-5.23-8.93-10.38-17.86c-2-30.32-8.86-60.2-21.89-87.74-2.46-5.18-9-8.41-14.54-8.34-48.52.59-97.35,2.92-145.62,7.89-47.76,4.91-100.73,3.78-146.95,17.11a5,5,0,0,0-1.81,8.56c4.79,37.48,9,74.85,8.11,112.72-.12,4.69,3.73,7.5,8,8,60.64,6.67,120.79,13.83,181.93,13.36,30.06-.24,75.7.24,109.76-13.35,29.61,86.62,60.25,174.08,97.1,258.49,6.21,17.59,12.17,35.25,16.61,53.37,5.9,24.13,11.9,48.23,18.26,72.24,2.6,9.82,4.53,29.79,14.59,35.77a4.16,4.16,0,0,0,2.63.55c1.94,13.35,4.5,26.54,9.17,38.44,1.23,3.14,6.24,3,6.19-.84-.34-23.09-8-47.07-12.25-69.76q-2.34-12.37-4.73-24.73,7,13.16,14.27,26.15,4.08,15.35,8.16,30.7c1.16,4.38,6.31,3.91,8.12.89a60.93,60.93,0,0,0,17.8,18.25c6,4,12.09-1.52,12.87-7.38,2.43-18.26-4.11-34.85-11-51.46,22.48,16.84,52.08,26.82,79,32.7,1.31,18.48,2,37,1.82,55.52a317.83,317.83,0,0,1-51.28-15.22c-4.76-1.88-8,6-3.47,8.23A334.15,334.15,0,0,0,756.86,1064q-.4,10.28-1.26,20.58c-35.1-.94-71-6.67-98.37-26.34-8-5.76-17.22,6.81-10.36,13.44,20.16,19.47,45.15,29,71.53,34,10.52,37,11,76.43,17.77,114.17,2.64,14.65,6.45,38.65,15.34,57.22a60.5,60.5,0,0,0-17.31,16.07c-2.45,3.35-1.85,7.85.36,11.29-.38.77-.72,1.54-1.09,2.31-.23-.51-.45-1-.66-1.52-9.1-22.53-14.23-46.65-19-70.38-8.93-44.36-15.13-89-32.83-131-1.09-2.58-5.14-1.7-4.34,1.19,12.6,46.06,13.86,94.92,20.92,142,3.59,24,8.7,47.59,16.62,70.5,2.55,7.34,5.37,16.3,9.69,23.84-.16,1.87-.25,3.75-.28,5.62-.57,38.39,25.82,73.14,56.85,92.89,32.58,20.75,72.13,18.86,101.75-5.45,22.23-18.24,31.27-46.27,28-73.11,13.36,2.23,26.9,3.51,40.24,5.78,14.17,32.45,52,58.85,82.6,68.11,60,18.16,117.41-42.33,124.36-97.69,5.9-47-27.63-82.58-69.17-95.45,9.16-36.21,14.47-75.49,19.12-111.76.2-1.51-2.39-1.86-2.65-.36-6.41,35.84-21.43,72.94-26.21,109.59-1.19-.26-2.38-.51-3.58-.73,6.89-39.85,19.4-78.59,29.66-117.73a383.3,383.3,0,0,0,45.3-1.4c16.24-1.54,43.76-3.64,53.17-19.73,5.21-8.9-.06-15.34-7.5-17.52,16.41-18.79,23.94-53.2,31.87-75.38,12.77-35.73,23.53-72.16,33.66-108.72,19.94-72,32.62-145.79,45.17-219.42C1307.58,671.09,1296.1,667.58,1294.08,675.6Zm-708.61,155C565.42,773.71,541,718.22,527.9,659.24c14.34,32.1,27.75,64.58,38.71,98.09,1.75,5.32,6.41,7.09,10.5,6.07,14.07,36.8,22.88,75.93,30.53,114.28Q596.29,854.28,585.47,830.55Zm-79-266.37c1-1,2-2,2.9-3.08,9.33,17.56,18.55,35.18,26.8,53C525.94,597.61,515.82,581,506.42,564.18Zm73.19,198.2c6.29,18.8,11.91,37.9,17.26,57q-8.67-28.42-19.65-56A9.19,9.19,0,0,0,579.61,762.39ZM354.93,570.23c-53.47,1.49-107.13-2.12-160.58-4.18-2.36-34.58-8.57-68.53-15.45-102.48a191.75,191.75,0,0,0,22.63,3.84c-5.15,4.85-11.32,8.15-15,15.47-.21.43.39,1,.71.55,5.21-6.68,11.93-9.11,18.08-12.87-.72,8.15.28,16.49,1.4,24.86,2.29,17,6,40.15,15.15,54.69,1.85,2.92,7.65,3.06,8.22-1.08,1.88-13.63-3.77-26.36-7.38-39.46-3.83-13.9-4-27.18-4.86-40.85,13.7.67,27.63.44,41.47-.1a427.41,427.41,0,0,0,1,46.72c1.28,14.84,3.29,26.33,15.41,35.6,2.86,2.19,5.68-1.42,5.29-4.07-3.86-26.47-8-52.27-10.37-78.75,9.64-.47,19.17-1,28.51-1.36-2.2,33.07-2.25,64.15,9.4,96.17,3.56,9.78,19.37,5.42,15.63-4.31-11.24-29.28-14.08-61-16.46-92.15l2.17-.06c17.46-.42,34.89-1.18,52.32-2-5.73,33.92-3.86,78.4,19.73,104.71C372.9,569.63,363.9,570,354.93,570.23ZM397.1,568c-6.51-16.39-15.56-31.18-20.16-48.6-4.68-17.75-5.67-37-4.73-55.5,22.12-1,44.23-2.06,66.37-2.54-2.87,16.12-3.61,32.46-.91,48.75,2.46,14.85,4,36.75,19.63,42.87,2.83,1.11,5.8-1.21,6.65-3.77,3.71-11.37-3.93-20.67-7.5-31.52a118.14,118.14,0,0,1-5-22.44c4.76,11.89,10,23.64,15.48,35.3,0,1.42.1,2.86.11,4.27a16.09,16.09,0,0,0,9.07,14.9l.57,1.16c-11,3.68-22.07,7.38-33.49,10.09A318.1,318.1,0,0,1,397.1,568Zm92.24,8.66c3.86,7.88,7.69,15.75,11.38,23.6,8.5,18.14,17,36.27,25.19,54.51,4.3,25.15,9.53,49.95,15.63,74.58-20.67-49.52-40.65-99.27-61.13-148.43C483.49,579.66,486.48,578.25,489.34,576.7ZM621.17,954.6q-5.53-19.94-10.75-40c2.08,4.17,4.12,8.35,6.25,12.5Q619,940.86,621.17,954.6Zm-8.1-73.25c-1.86-8.42-3.87-16.76-6-25.06q2.77,9.91,5.6,19.76,4.25,14.69,8.69,29.3c-1.83-3.61-3.69-7.21-5.49-10.83C615,890.13,614,885.73,613.07,881.35Zm631.19-21.45-37.2,35c-3,2.84-6.14,5.65-9.27,8.47.87-4.1,1.77-8.2,2.65-12.3a39.72,39.72,0,0,0,14.16-16.62c1.52-3.44.42-7.45-3.5-8.59a41.71,41.71,0,0,0-5-1.11c.26-1.23.55-2.45.82-3.68a2.85,2.85,0,0,0,2.61,1.09c11.13-1.31,24.06-13.53,31.91-21.23a118.59,118.59,0,0,0,11.76-13.24Q1248.73,843.77,1244.26,859.89ZM1206.3,985c-1.22,3.57-2.56,7.1-3.84,10.65-8,11.12-16.28,22.12-25.15,32.42-2.36,2.73-4.83,5.35-7.33,7.94q3.78-18.09,7.55-36.18c7.55-5.74,13.09-14.88,18.67-22.26a272.1,272.1,0,0,0,26.87-44.05Q1215.08,959.38,1206.3,985Zm-281.13,69.83c0-15.71-.49-31.42-1.24-47.14,35.59-.43,71.1-2.26,106.55-5-.39,12.34-.59,24.68-.47,37a11.73,11.73,0,0,0,.7,3.86c-31.66,2.86-63.22,6.92-94.84,10.19C932.31,1054.13,928.73,1054.48,925.16,1054.82Zm-8.9-157.49c-.78-10.61-1.48-21.22-2.18-31.84,42,1.47,82.93,14,123.92,24.17-2.45,29.52-4.94,59-6.49,88.61-36.18,3.45-72.56,6.27-108.79,7.32C920.93,956.13,918.43,926.69,916.27,897.33Zm303.23-140.58c-10.54,35.67-20,71.55-28.82,107.63-14.09,1.42-28.53,6.52-42.41,8.52,3.91-43.92,10.41-88.54,21.79-131.1a254.34,254.34,0,0,1,49.81,9.76c.11,0,.21,0,.32.07-.26.5-.56,1-.8,1.5A3.65,3.65,0,0,0,1219.49,756.75ZM1131.78,874c-23.84.32-47.74-3.74-71-8.38l-2.86-.6c2-41,4.41-82.43.68-123.27q7.56-.23,15.15-.5c29.54-1.15,59.43-2.48,88.89-.13C1145.5,783.72,1137.65,828.25,1131.78,874Zm-55.32,24a421,421,0,0,0,51.61,6.17c-2.51,21.34-4.66,43-6,64.68-22.56,2.38-45.31,4.87-68.18,7.2q1.09-41,2.74-82C1063.25,895.5,1069.85,896.84,1076.46,898Zm-23.94,141.72q.32-19.45.77-38.89,33.87-3,67.67-6.65c-.4,15.21-.32,30.32.54,45.18-22.26-3-47.3,1-67.76,2.32l-1.46.12A12.55,12.55,0,0,0,1052.52,1039.72Zm89.71,0c1-16,1.42-32,1.69-48.06q9.22-1,18.45-2.09-6.37,29.89-12.66,59.88a5.63,5.63,0,0,0-1.93-1.84,58.2,58.2,0,0,0-6.81-3.25A11.47,11.47,0,0,0,1142.23,1039.72Zm25.6-75.45q-11.73,1.09-23.56,2.3c.24-20.71.56-41.42,1.69-62.12,12.83-.3,25.41-1.76,36.41-5.07q-2.76,11.9-5.46,23.82a122.76,122.76,0,0,0-9.31,11.15c-2.1,2.87,2.06,7,4.92,4.92.32-.24.64-.5,1-.74Q1170.62,951.39,1167.83,964.28Zm91.79-159.77a2.39,2.39,0,0,0-.63.85c-5.5,12.32-15.82,21.42-26.38,29.44-5.25,4-10.22,8.36-15.51,12.31-3.06,2.28-6.13,4-8.53,6.61,2.47-11.15,4.93-22.3,7.47-33.44,12.41-7.5,22-21.17,31.65-31.51l23-24.51Q1265.18,784.4,1259.62,804.51Zm27.67-102.75q-6.2,23.87-12.62,47.67l-29.77,27.92c-7.15,6.7-16,13.5-23.74,21q5.53-23.78,11.39-47.45C1250.94,734.64,1268.39,717.57,1287.29,701.76Zm-53.17,7.93c-3.06-5.46-4.36-12-7.72-17.3q6.81.07,13.56-.26Q1237,700.9,1234.12,709.69ZM968.53,681.58c5.32,4.21,10.43,8.77,15.4,13.29a64,64,0,0,1,9.48,11c2.72,3.94,3.84,8.67,7.11,12.15,1.7,1.82,4.48.33,4.61-1.9.54-9.58-10.06-19.89-16.57-25.87A53.1,53.1,0,0,0,976.49,682q32.79,1.81,65.56,3.44a42,42,0,0,1,9.7,10.73c4.92,7.51,6.26,16.41,12.21,23.11,2.79,3.14,7.47.46,7.69-3.18.66-11-7.88-21.47-15.07-29.16-.26-.29-.56-.54-.84-.82q20,.95,40.08,1.82c3.85.15,7.69.27,11.55.43a53.89,53.89,0,0,0,7.06,9c5,5.07,10.94,10.05,18.28,8.79,2.14-.37,2.7-3,1.88-4.63-2.77-5.65-8.58-7.23-13.25-11.06-.65-.52-1.2-1.12-1.8-1.69q31.71,1.15,63.45,1.95a.91.91,0,0,0,.67.34c12.61.9,18.72,9,23.56,19.88,1.39,3.13,6.45.35,4.67-2.72-4.53-7.84-9.85-14.11-17.28-17.07,9,.41,18.08.91,27.2,1.13,5.31,6.9,5.47,16.39,10.27,23.64q-2.76,8.55-5.41,17.13a9.77,9.77,0,0,0-1.54-.66c-43.36-13.43-88.75-13.13-133.71-11.68-50.3,1.62-99,2.62-148.76-3a100.74,100.74,0,0,1-13.36-13.92,99.26,99.26,0,0,1-13.58-25.29l7.37.41Q945.8,680.32,968.53,681.58ZM746.29,685c-7.33-8.42-17.89-10.82-28.65-9.58a1.72,1.72,0,0,0-.73.38,60.74,60.74,0,0,0-7-8.83c66.27,4,132.59,7.45,198.88,11.19,4.47,13,11.59,27,21.28,38.1-.49-.07-1-.11-1.46-.17q-13.81-1.89-27.78-3.86a4.48,4.48,0,0,0-2.78-.39q-13.69-1.91-27.48-3.77c-12.4-16.64-27.35-30.18-49.39-31.09-.33,0-.32.48,0,.5,16.28.93,31.17,15.77,41.92,29.61-18.37-2.44-36.84-4.69-55.36-6.58-12-8.94-25.19-16.63-37.43-24.83-1.47-1-3.51,1-2.47,2.47a114,114,0,0,0,19,20.43q-16.22-1.35-32.47-2.15A73.22,73.22,0,0,0,746.29,685Zm185.37,51.34c39.52,5.43,78.36,6.44,117.84,5.57-4.6,39.53-6.53,79.43-9.32,119.18-40.23-9.27-80-21-121.38-23.57-2.19-.13-4.4-.23-6.61-.32-2.22-34.88-4.49-69.76-7.46-104.58Q918.2,734.53,931.66,736.39Zm-158.89,173c-2.37-13.83-4.8-27.65-7.18-41.48,42.56.62,85.12-2.74,127.68-2.72q.58,16.09,1.15,32.18c1,29.55,1.57,59.11,2.13,88.67-38.5.15-76.73-2-114.27-7.88C780,955,776.68,932.07,772.77,909.34Zm11.4,90.91c37.27,5.63,75.19,7.31,112.82,7.57q.47,24.64,1.17,49.27c-37.74,2.72-75.47,3.15-112.56-1.67Q786.11,1027.85,784.18,1000.25Zm88.73,78.17c-22.52,1.81-45,4.07-67.45,5.17-6.85.34-13.94.64-21.16.86.33-4.59.68-9.17.9-13.77C813.93,1076.3,843.23,1078.56,872.91,1078.42Zm-144.77,28.95c12,1.8,24.16,2.86,36.24,3.61,52,3.22,104.35-2,156.36-3.61,49.4-1.54,98.92,7.71,148,11.76,2.58.21,5.17.4,7.76.59-23.22,29-29.07,77.53-29.67,117.4a101.54,101.54,0,0,0-25.83,5c-21.61,7.27-38.09,24.11-46.62,44.48a88.11,88.11,0,0,0-20.32,22.76,3.15,3.15,0,0,0-2.36-1.69c-9-1.32-17.71,3.26-26.4,5.68a201.86,201.86,0,0,1-21.93,4.82c-14.08-42-62.68-75.33-108.28-64.61a80.45,80.45,0,0,0-25.8,11.31c-.28-.53-.56-1-.82-1.59-9.14-18.78-13-40.61-17-60.92C745.23,1170.83,739.56,1137.78,728.14,1107.37Zm221.29,211.11c-.33-.14-.69-.28-1-.4.52-.29,1.07-.54,1.56-.87C949.77,1317.64,949.61,1318.05,949.44,1318.47Zm-112.49,70.37c-22.27,8-51-.54-65.27-17.69a53.27,53.27,0,0,1-6.69-19.81,47.23,47.23,0,0,1,3.77-23.93c.47-.82.92-1.63,1.45-2.47a.71.71,0,0,0,.05-.75,58.45,58.45,0,0,1,10.61-14.41c30.56,3,64.94,12.64,80.85,33.25q-2.63,1.87-5.18,3.85c-4.46,3.48,1.33,10.78,6,7.78,1.48-.95,3-1.84,4.48-2.72a40.53,40.53,0,0,1,3,9.24C864.45,1373.69,852.37,1383.31,836.94,1388.85Zm70.44-48.46c0-1.24-.06-2.5-.16-3.75,1.15-.25,2.29-.52,3.46-.73,11-2.15,23.89-.66,34.79-3.85a57.23,57.23,0,0,0-.74,9.87A267.83,267.83,0,0,0,907.38,1340.39Zm93,35.9c-9.46-8.38-14.85-16.35-17.16-23.84a42.22,42.22,0,0,0,10.11,7.61c20.08,26.08,47.59,41.46,74.51,42.91C1043.67,1408.17,1020.85,1394.38,1000.43,1376.29ZM1110.16,1298c18.84,11.33,1.7,42-7.47,55.4-22.7,33.26-64,9.7-82.64-14.66-6-7.81-12.48-18.21-13.94-28.67,12.2-7.68,27.34-13.38,41.49-16.62C1067.32,1288.89,1092.14,1287.13,1110.16,1298Zm-47.55-60.74-.58,0c.82-39.48,1.44-81.94,18.36-117.2q8.51.57,17,.91C1084,1159.19,1070.24,1197.22,1062.61,1237.22Zm55.12-146.75c-55.07.38-109.7-9.95-164.51-13.85-9.22-.66-18.46-.81-27.7-.77,36.73-3.06,73.31-7.7,110-10.84,18.17-1.55,36.37-2.45,54.6-2.89,18.81-.44,37.88,2.95,55.77-3.68a24.91,24.91,0,0,0-3.82,5.57,3.19,3.19,0,0,0,3.56,4.63c5.09-1,9.92-3.92,14.46-7.71a7.08,7.08,0,0,0,5.68-5.3c6.79-7,12.77-15.32,17.72-21.37q4.66-5.71,8.85-11.57c-1.65,4.25-3.25,8.5-4.94,12.73-5.7,14.24-14.47,27.63-15,43.13a10.36,10.36,0,0,0,1,4.88c-.12.12-.26.22-.39.33C1154.66,1086.61,1136.91,1090.35,1117.72,1090.48Zm106.73-161.6c-.68-1.5-2.89-2.18-3.91-.32a291.58,291.58,0,0,1-26.43,39.83,9.54,9.54,0,0,0-8.9-5.52q4.59-22,9.25-44c4.5-4.86,8.89-9.83,13.38-14.61l34.2-36.4q-2.14,7.71-4.28,15.42Q1231.44,906.16,1224.46,928.88Z" transform="translate(-169.11 -427.43)"/><path class="cls-1" d="M635.58,673c8.3,4.56,9.24,13.16,15.11,19.4,2,2.14,5.18.36,5.38-2.22.6-8.17-7.2-17.79-13.58-22.29-8.58-6.08-18.27-6.21-28.42-5-1.37.17-2,2.4-.35,2.65A64.15,64.15,0,0,1,635.58,673Z" transform="translate(-169.11 -427.43)"/></svg>