<svg xmlns="http://www.w3.org/2000/svg" width="975.271" height="231.042" viewBox="0 0 975.271 231.042"><path d="M2425.871-711.763c20-38.232,47-66.711,76.654-80.865,8.739-4.172,18.2-7.1,26.863-2.547,15.344,8.053,22.98,36.994,23.034,63.161s-5.438,51.475-7.464,77.433.34,55.5,12.668,72.367c15.085,20.641,37.9,13.683,56.28,2.044,50.861-32.2,94.2-90.866,145.428-121.516,63.1-37.754,132.517-30.048,199.714-25.589,76.723,5.092,153.855,5.32,229.7,24.736s151.351,59.356,211.973,135.827" transform="translate(-2425.65 797.599)" fill="none" stroke="#1d1d1b" stroke-miterlimit="10" stroke-width="0.5" stroke-dasharray="5" opacity="0.63"/></svg>