<svg width="822" height="163" viewBox="0 0 822 163" fill="none" xmlns="http://www.w3.org/2000/svg">
<circle cx="796" cy="26" r="26" fill="#3E66F3"/>
<path d="M75.52 84.408C80.4693 86.0293 84.3947 88.76 87.296 92.6C90.1973 96.3547 91.648 101.048 91.648 106.68C91.648 114.445 88.6613 120.461 82.688 124.728C76.7147 128.909 68.0107 131 56.576 131H12.032V41.4H54.016C64.5973 41.4 72.7467 43.4907 78.464 47.672C84.1813 51.768 87.04 57.4427 87.04 64.696C87.04 69.1333 86.016 73.0587 83.968 76.472C81.92 79.8853 79.104 82.5307 75.52 84.408ZM28.672 54.456V79.16H52.224C58.0267 79.16 62.464 78.136 65.536 76.088C68.6933 73.9547 70.272 70.8827 70.272 66.872C70.272 62.776 68.6933 59.704 65.536 57.656C62.464 55.5227 58.0267 54.456 52.224 54.456H28.672ZM55.552 117.944C68.4373 117.944 74.88 113.635 74.88 105.016C74.88 96.3973 68.4373 92.088 55.552 92.088H28.672V117.944H55.552ZM172.127 97.208C172.127 98.3173 172.042 99.896 171.871 101.944H118.239C119.178 106.979 121.61 110.989 125.535 113.976C129.546 116.877 134.495 118.328 140.383 118.328C147.892 118.328 154.079 115.853 158.943 110.904L167.519 120.76C164.447 124.429 160.564 127.203 155.871 129.08C151.178 130.957 145.887 131.896 139.999 131.896C132.49 131.896 125.876 130.403 120.159 127.416C114.442 124.429 110.004 120.291 106.847 115C103.775 109.624 102.239 103.565 102.239 96.824C102.239 90.168 103.732 84.1947 106.719 78.904C109.791 73.528 114.015 69.3467 119.391 66.36C124.767 63.3733 130.826 61.88 137.567 61.88C144.223 61.88 150.154 63.3733 155.359 66.36C160.65 69.2613 164.746 73.4 167.647 78.776C170.634 84.0667 172.127 90.2107 172.127 97.208ZM137.567 74.68C132.447 74.68 128.095 76.216 124.511 79.288C121.012 82.2747 118.879 86.2853 118.111 91.32H156.895C156.212 86.3707 154.122 82.36 150.623 79.288C147.124 76.216 142.772 74.68 137.567 74.68ZM228.584 127.288C226.707 128.824 224.403 129.976 221.672 130.744C219.027 131.512 216.211 131.896 213.224 131.896C205.715 131.896 199.912 129.933 195.816 126.008C191.72 122.083 189.672 116.365 189.672 108.856V75.96H178.408V63.16H189.672V47.544H205.672V63.16H223.976V75.96H205.672V108.472C205.672 111.8 206.483 114.36 208.104 116.152C209.725 117.859 212.072 118.712 215.144 118.712C218.728 118.712 221.715 117.773 224.104 115.896L228.584 127.288ZM267.858 61.88C277.927 61.88 285.607 64.312 290.898 69.176C296.274 73.9547 298.962 81.208 298.962 90.936V131H283.858V122.68C281.895 125.667 279.079 127.971 275.41 129.592C271.826 131.128 267.474 131.896 262.354 131.896C257.234 131.896 252.754 131.043 248.914 129.336C245.074 127.544 242.087 125.112 239.954 122.04C237.906 118.883 236.882 115.341 236.882 111.416C236.882 105.272 239.143 100.365 243.666 96.696C248.274 92.9413 255.485 91.064 265.298 91.064H282.962V90.04C282.962 85.2613 281.511 81.592 278.61 79.032C275.794 76.472 271.57 75.192 265.938 75.192C262.098 75.192 258.301 75.7893 254.546 76.984C250.877 78.1787 247.762 79.8427 245.202 81.976L238.93 70.328C242.514 67.5973 246.823 65.5067 251.858 64.056C256.893 62.6053 262.226 61.88 267.858 61.88ZM265.682 120.248C269.693 120.248 273.234 119.352 276.306 117.56C279.463 115.683 281.682 113.037 282.962 109.624V101.688H266.45C257.234 101.688 252.626 104.717 252.626 110.776C252.626 113.677 253.778 115.981 256.082 117.688C258.386 119.395 261.586 120.248 265.682 120.248ZM398.263 132.28C389.132 132.28 380.898 130.317 373.559 126.392C366.22 122.381 360.46 116.877 356.279 109.88C352.098 102.797 350.007 94.904 350.007 86.2C350.007 77.496 352.098 69.6453 356.279 62.648C360.46 55.5653 366.22 50.0613 373.559 46.136C380.898 42.1253 389.132 40.12 398.263 40.12C407.394 40.12 415.628 42.1253 422.967 46.136C430.306 50.0613 436.066 55.5227 440.247 62.52C444.428 69.5173 446.519 77.4107 446.519 86.2C446.519 94.9893 444.428 102.883 440.247 109.88C436.066 116.877 430.306 122.381 422.967 126.392C415.628 130.317 407.394 132.28 398.263 132.28ZM398.263 117.688C404.236 117.688 409.612 116.365 414.391 113.72C419.17 110.989 422.924 107.235 425.655 102.456C428.386 97.592 429.751 92.1733 429.751 86.2C429.751 80.2267 428.386 74.8507 425.655 70.072C422.924 65.208 419.17 61.4533 414.391 58.808C409.612 56.0773 404.236 54.712 398.263 54.712C392.29 54.712 386.914 56.0773 382.135 58.808C377.356 61.4533 373.602 65.208 370.871 70.072C368.14 74.8507 366.775 80.2267 366.775 86.2C366.775 92.1733 368.14 97.592 370.871 102.456C373.602 107.235 377.356 110.989 382.135 113.72C386.914 116.365 392.29 117.688 398.263 117.688ZM501.405 61.88C510.024 61.88 516.936 64.3973 522.141 69.432C527.346 74.4667 529.949 81.9333 529.949 91.832V131H513.949V93.88C513.949 87.9067 512.541 83.4267 509.725 80.44C506.909 77.368 502.898 75.832 497.693 75.832C491.805 75.832 487.154 77.624 483.741 81.208C480.328 84.7067 478.621 89.784 478.621 96.44V131H462.621V62.648H477.853V71.48C480.498 68.3227 483.826 65.9333 487.837 64.312C491.848 62.6907 496.37 61.88 501.405 61.88ZM550.246 36.024H566.246V131H550.246V36.024ZM587.246 62.648H603.246V131H587.246V62.648ZM595.31 51.384C592.409 51.384 589.977 50.488 588.014 48.696C586.051 46.8187 585.07 44.5147 585.07 41.784C585.07 39.0533 586.051 36.792 588.014 35C589.977 33.1227 592.409 32.184 595.31 32.184C598.211 32.184 600.643 33.08 602.606 34.872C604.569 36.5787 605.55 38.7547 605.55 41.4C605.55 44.216 604.569 46.6053 602.606 48.568C600.729 50.4453 598.297 51.384 595.31 51.384ZM663.03 61.88C671.649 61.88 678.561 64.3973 683.766 69.432C688.971 74.4667 691.574 81.9333 691.574 91.832V131H675.574V93.88C675.574 87.9067 674.166 83.4267 671.35 80.44C668.534 77.368 664.523 75.832 659.318 75.832C653.43 75.832 648.779 77.624 645.366 81.208C641.953 84.7067 640.246 89.784 640.246 96.44V131H624.246V62.648H639.478V71.48C642.123 68.3227 645.451 65.9333 649.462 64.312C653.473 62.6907 657.995 61.88 663.03 61.88ZM776.752 97.208C776.752 98.3173 776.667 99.896 776.496 101.944H722.864C723.803 106.979 726.235 110.989 730.16 113.976C734.171 116.877 739.12 118.328 745.008 118.328C752.517 118.328 758.704 115.853 763.568 110.904L772.144 120.76C769.072 124.429 765.189 127.203 760.496 129.08C755.803 130.957 750.512 131.896 744.624 131.896C737.115 131.896 730.501 130.403 724.784 127.416C719.067 124.429 714.629 120.291 711.472 115C708.4 109.624 706.864 103.565 706.864 96.824C706.864 90.168 708.357 84.1947 711.344 78.904C714.416 73.528 718.64 69.3467 724.016 66.36C729.392 63.3733 735.451 61.88 742.192 61.88C748.848 61.88 754.779 63.3733 759.984 66.36C765.275 69.2613 769.371 73.4 772.272 78.776C775.259 84.0667 776.752 90.2107 776.752 97.208ZM742.192 74.68C737.072 74.68 732.72 76.216 729.136 79.288C725.637 82.2747 723.504 86.2853 722.736 91.32H761.52C760.837 86.3707 758.747 82.36 755.248 79.288C751.749 76.216 747.397 74.68 742.192 74.68Z" fill="#393939"/>
</svg>
