<svg xmlns="http://www.w3.org/2000/svg" xmlns:xlink="http://www.w3.org/1999/xlink" viewBox="0 0 188.29 92.86"><defs><style>.cls-1{fill:none;}.cls-2{clip-path:url(#clip-path);}.cls-3{fill:#104654;}.cls-4{fill:#46bccd;}</style><clipPath id="clip-path" transform="translate(0 0)"><rect class="cls-1" width="188.29" height="92.86"/></clipPath></defs><title>logo</title><g id="Шар_2" data-name="Шар 2"><g id="Шар_1-2" data-name="Шар 1"><g class="cls-2"><path class="cls-3" d="M40.49,91.36V61.69a.94.94,0,0,1,.94-.94H56c5.77,0,9,3.59,9,8A7.09,7.09,0,0,1,59.5,76c3.36.52,6.1,3.88,6.1,7.76,0,4.87-3.26,8.51-9.17,8.51h-15a.94.94,0,0,1-.94-.94M59.31,69.74c0-2.36-1.61-4.11-4.44-4.11H46v8.18h8.84c2.84,0,4.44-1.7,4.44-4.07M59.92,83c0-2.36-1.66-4.35-4.82-4.35H46v8.75H55.1c3,0,4.82-1.65,4.82-4.4" transform="translate(0 0)"/><path class="cls-3" d="M69.76,91.36V61.69a.94.94,0,0,1,.94-.94H90.43a.94.94,0,0,1,.93.94v3a.94.94,0,0,1-.93.94H75.29v8.18H90.1a.94.94,0,0,1,.94.94v3a.94.94,0,0,1-.94.94H75.29v8.75H90.43a.94.94,0,0,1,.94.94v3a.94.94,0,0,1-.94.94H70.69a.94.94,0,0,1-.94-.94" transform="translate(0 0)"/><path class="cls-3" d="M95,88.83a.94.94,0,0,1,.85-.93c2.85-.3,4.39-2.43,5.39-10.93L103,61.59a.94.94,0,0,1,.93-.83h19.65a.94.94,0,0,1,.94.93V91.36a.94.94,0,0,1-.94.94h-3.66a.94.94,0,0,1-.93-.94V65.63H108.06l-1.32,11.72C105.31,90,101.56,92.59,96,92.84a.94.94,0,0,1-1-.94Z" transform="translate(0 0)"/><path class="cls-3" d="M153.08,91.69,151,86.24H136.53l-2.09,5.45a.94.94,0,0,1-.87.6H129.3a.94.94,0,0,1-.87-1.28l11.65-29.66a.94.94,0,0,1,.87-.59h5.63a.94.94,0,0,1,.87.59L159.1,91a.94.94,0,0,1-.87,1.28H154a.94.94,0,0,1-.87-.6m-9.32-25.36-5.67,15h11.35Z" transform="translate(0 0)"/><path class="cls-3" d="M159.5,76.55c0-9.69,7.23-16.31,16.55-16.31a14.12,14.12,0,0,1,12.07,6.19.94.94,0,0,1-.33,1.39l-3,1.55a.92.92,0,0,1-1.17-.28A9.37,9.37,0,0,0,176,65.15c-6.24,0-10.87,4.78-10.87,11.4s4.63,11.4,10.88,11.4A9.28,9.28,0,0,0,183.57,84a.92.92,0,0,1,1.18-.28l3,1.54a.94.94,0,0,1,.33,1.39A14.14,14.14,0,0,1,176,92.86c-9.32,0-16.55-6.62-16.55-16.31" transform="translate(0 0)"/><path class="cls-4" d="M9.25,47.25h-5a2,2,0,0,1-2-2v-5a2,2,0,0,1,2-2h5a2,2,0,0,1,2,2v5a2,2,0,0,1-2,2" transform="translate(0 0)"/><path class="cls-4" d="M51.75,48.75v-12a3,3,0,0,0-3-3H37.37a3.61,3.61,0,0,1-2.56-1.06h0a3.62,3.62,0,0,1-1.06-2.56V18.75a3,3,0,0,0-3-3H21a7.46,7.46,0,0,1-5.27-2.19h0A7.46,7.46,0,0,1,13.5,8.29V3a3,3,0,0,0-3-3H3A3,3,0,0,0,0,3v7.5a3,3,0,0,0,3,3H8.29A7.46,7.46,0,0,1,15.75,21v9.79a3,3,0,0,0,3,3H30.13a3.62,3.62,0,0,1,3.62,3.62v9.17A7.46,7.46,0,0,1,26.29,54H21a3,3,0,0,0-3,3v7.5a3,3,0,0,0,3,3h7.5a3,3,0,0,0,3-3V59.21A7.46,7.46,0,0,1,39,51.75h9.79a3,3,0,0,0,3-3" transform="translate(0 0)"/></g></g></g></svg>